/* XPM */
static char *addseismicdatamod_xpm[] = {
/* width height num_colors chars_per_pixel */
"    32    32      256            2",
/* colors */
"`` c #046a04",
"`. c #848284",
"`# c #24ae14",
"`a c #446644",
"`b c #54d23a",
"`c c #84c28c",
"`d c #048a04",
"`e c #c4c2c4",
"`f c #54ba34",
"`g c #248e24",
"`h c #84e64e",
"`i c #448e44",
"`j c #3cc324",
"`k c #6ce24a",
"`l c #24a20c",
"`m c #2c722c",
"`n c #84f258",
"`o c #3cb220",
"`p c #cce2d4",
"`q c #6cd238",
"`r c #54c22a",
"`s c #7c8a7c",
"`t c #047c04",
"`u c #049e04",
"`v c #94a694",
"`w c #449e44",
"`x c #9cf46c",
"`y c #64ca31",
"`z c #349e2c",
"`A c #3cba24",
"`B c #eceae8",
"`C c #acc2ac",
"`D c #249614",
"`E c #6cda4c",
"`F c #747674",
"`G c #acaaac",
"`H c #8cfa61",
"`I c #acceac",
"`J c #049804",
"`K c #2cb81c",
"`L c #84ea52",
"`M c #54ca30",
"`N c #147b14",
"`O c #5caa54",
"`P c #047504",
"`Q c #7cec54",
"`R c #44a93c",
"`S c #447c44",
"`T c #64dc44",
"`U c #d4d4d4",
"`V c #34a624",
"`W c #44cb2c",
"`X c #7ce24a",
"`Y c #94f261",
"`Z c #44ae44",
"`0 c #14a20b",
"`1 c #f4f7f4",
"`2 c #349634",
"`3 c #acbeac",
"`4 c #64d240",
"`5 c #24a60c",
"`6 c #6cda3c",
"`7 c #44a04c",
"`8 c #94ee68",
".` c #6cb26c",
".. c #247e20",
".# c #dce2dc",
".a c #4cbd24",
".b c #b4c3b4",
".c c #7cde4c",
".d c #14960c",
".e c #8c928c",
".f c #34ae14",
".g c #3c8e44",
".h c #449649",
".i c #4cc220",
".j c #3cb61b",
".k c #54c238",
".l c #048404",
".m c #64ce4c",
".n c #34a634",
".o c #bcd2c4",
".p c #84ea5c",
".q c #147514",
".r c #dcdbdc",
".s c #14a60c",
".t c #2ca60c",
".u c #14920c",
".v c #24921c",
".w c #74e249",
".x c #649e6c",
".y c #8cbe8c",
".z c #3c9e44",
".A c #44ba20",
".B c #74de4c",
".C c #bcaabc",
".D c #34b620",
".E c #5cca3c",
".F c #14860c",
".G c #5c865c",
".H c #7cde44",
".I c #dceadc",
".J c #1c6e1c",
".K c #4c764c",
".L c #5cd236",
".M c #2c8a28",
".N c #8cf25b",
".O c #9cfe64",
".P c #6cce34",
".Q c #ecf2ec",
".R c #249a24",
".S c #6c806c",
".T c #94fa63",
".U c #4c834c",
".V c #94f26c",
".W c none",
".X c #3c963c",
".Y c #74da40",
".Z c #4c9e50",
".0 c #7cb47c",
".1 c #248620",
".2 c #1c9614",
".3 c #9c9a9c",
".4 c #549a54",
".5 c #64a664",
".6 c #046e04",
".7 c #2cae11",
".8 c #049204",
"#` c #d4ced4",
"#. c #bcb8bc",
"## c #5cb05c",
"#a c #9cbe9c",
"#b c #9cc69c",
"#c c #c4dec4",
"#d c #546e54",
"#e c #3c763c",
"#f c #a4a2a4",
"#g c #8c8e8c",
"#h c #84e26c",
"#i c #5c725c",
"#j c #44b634",
"#k c #347a34",
"#l c #a4caa8",
"#m c #b4d6b4",
"#n c #b4cab4",
"#o c #c4b2c4",
"#p c #a49ea4",
"#q c #c4bec4",
"#r c #3cb624",
"#s c #4cc634",
"#t c #44ae2c",
"#u c #f4eef4",
"#v c #74d654",
"#w c #1c9e14",
"#x c #74ae74",
"#y c #1c821c",
"#z c #a4fe6c",
"#A c #8ce65c",
"#B c #1c921c",
"#C c #0c660c",
"#D c #ccc6cc",
"#E c #4c924c",
"#F c #44c224",
"#G c #5cc62b",
"#H c #0c7c0c",
"#I c #4ca244",
"#J c #3ca134",
"#K c #7c7a7c",
"#L c #b4adb4",
"#M c #b4d1b4",
"#N c #8cee54",
"#O c #1c7e19",
"#P c #0c740c",
"#Q c #4c7a4c",
"#R c #4cca34",
"#S c #fcf9fc",
"#T c #e4e3e4",
"#U c #bcc6bc",
"#V c #0c820c",
"#W c #8cea64",
"#X c #1c721c",
"#Y c #e4dee4",
"#Z c #c4aec4",
"#0 c #e4ebe4",
"#1 c #547254",
"#2 c #748274",
"#3 c #a496a4",
"#4 c #6ca86c",
"#5 c #dccadc",
"#6 c #249e1c",
"#7 c #0c9f04",
"#8 c #0c9604",
"a` c #44a64c",
"a. c #7ce654",
"a# c #1ca70c",
"aa c #2ca81c",
"ab c #6ca26c",
"ac c #44ba2c",
"ad c #9cfa74",
"ae c #4cae3c",
"af c #949294",
"ag c #2c9a27",
"ah c #0c6e0c",
"ai c #a4bea4",
"aj c #ccdecc",
"ak c #accaac",
"al c #44b62c",
"am c #d4e2d4",
"an c #3ca624",
"ao c #7cde5c",
"ap c #6cce4c",
"aq c #74de5c",
"ar c #0c9204",
"as c #6ce64c",
"at c #6cd63c",
"au c #44a242",
"av c #64ce31",
"aw c #3cbe1c",
"ax c #eceeec",
"ay c #249a1c",
"az c #84ee54",
"aA c #54ce32",
"aB c #7ce64c",
"aC c #94f661",
"aD c #349a2c",
"aE c #64d640",
"aF c #24aa12",
"aG c #6cde44",
"aH c #248224",
"aI c #149a04",
"aJ c #34b21a",
"aK c #449a46",
"aL c #54c634",
"aM c #bcd6c0",
"aN c #2caa14",
"aO c #74e64c",
"aP c #3ca240",
"aQ c #44be24",
"aR c #34ba1f",
"aS c #5cce34",
"aT c #5cd63c",
"aU c #2c8e29",
"aV c #8cf65c",
"aW c #94fe64",
"aX c #3c9a39",
"aY c #74de44",
"aZ c #4ca24c",
"a0 c #1c9a10",
"a1 c #2cb214",
"a2 c #a4a6ac",
"a3 c #74da58",
"a4 c #1ca20c",
"a5 c #74b27c",
"a6 c #44c62c",
"a7 c #8cee5c",
"a8 c #048e04",
/* pixels */
".W.W.W.W.W.W#S.W.W.W.W.W.W#S.IaM#Maj#S.W.W.W.W.W.W.W.W.W.W.W.W.W",
".W.W.W.W.W.W.W.W.Qam#M.y###Jag#6#w.v.X.0.o#u.W.W.W.W.W.W.W.W.W.W",
".W.W.W`1#c#b.0##ae`Vaa.D`j`W`W`Wa6`j`Ka4.u`2#4ak#0.W.W.W.W.W.W.W",
".W.WaM#J`f#saAaT`Tasas`kaE.L`baA#R`W#s`W`WaRa#a0`g.4#a.#.W.W.W.W",
".W#0#J`naWaVaV`n`QaO.waG`T`T`TaT`b`baA#R`Wa6a6`j`j`Ka0#Habax.W.W",
".W`IaL#z.TaWaVaVazaz`Q`QaOaO`kaG`T`T.L`baA`TaTaT#saaar.l```v#S.W",
".W`I`faV.NaV.T.OaW.TaV.N`n`Q`QaO`kaO`Q`n`Q.Lac.d`t`t`t`t`t.S#Y.W",
".WaM#t`haB`L#N.N.T.OaW.T`HaVaV.O.O.N.B`o.2.l`t`t.l`t`t`t`P#2.r.W",
".Waman.Y.Y.Y`XaB`LaV.OaW.O#z.TaE#j#8.l.l.l.l.l.l`t.l`t`t`P`s`B.W",
".W#0aDav`y`q`q.Y.Y.c`L.T.O.D.d`d.l.l`d.l.l.l.l.l`t`t`t`t#C#g`B.W",
".W`1`2`r#G#G`yav.PatataC.N.8`da8a8`d`d.l.l.l`t`t`t`t`t`t``af#u.W",
".W.WaX.i`r`r#G#G#G`y`y#NaC.8a8a8`d`d.l.l.l.l`t`t`t`t`P`P#C.3.W.W",
".W.W#I.j.a.a.a`r`r#G`r`h`Ya8`d`d`d.l.l.l.l`t.l`t`t`P`P`P.J#f.W.W",
".W.W`O.7`A.A.A.A.a.a.A`X`Y`d`d`d.l.l.l.l`t`t`t`t`P`t`P`P`m#L#S.W",
".W.W.``laJaJ`o`A.A.A`oaY.N.l`d.l.l.l.l`t`t`t`t`t`P`P`P.6#e#..W.W",
".W.W.0aIa1.7a1.faJ.j.f`Ea7.l`d.l.l.l`t.l`t`P`P.6`P.6````.K#q.W.W",
"#S.W.yaraFaFaF.7.7aJaN.L#N`t.l.l.l`t.l`t#HauaKaK.h.h.Z...K#`.W.W",
".W.W#l`d.s`0a#a#`5`#a#`M`h`t.l.l.l`t`t`P`g##.n`R`R#Jau`i#1.r.W.W",
".W.W#M.l#7#7`0`0`0a#`0#Fa.`t.l`t`t.l`t`PaUaPao`x.V.wag`i#1#Y.W.W",
"#S.Waj.l`u`J`J#7#7aI#7.D.w`t.l`t`t`P`P.6#ya`.B.N`L.Lag#E#i#u.W.W",
".W.W.Q`ga8`J`J`J`J`u`J`#`E`P.l`t.l`w`7.h.5.za3a7`LaE#Bab.e#u#S#S",
".W.W.W#n#H`da8a8.8`J`J.s.L`P`t`t`g##`V`Z`Zay#h#N`Lat`D`2aX.X.h.r",
".W.W.W#Sai`N.la8`da8a8`J.E`t`t`P`g`waqad`8`x`8aB`h`X#W#A.pat#O`G",
".W.W.W.W.Wai#P.l.l.l`da8#s`P`t`P`gaua3#N`QaB`haB`X`XaYat.Y`r#y#f",
".W.W.W.W.W#S`3.q`t.l.l.l#t`t`t.6.M`7ao`Y#N`L`h`X`X.H`X.H.H.L..#f",
".W.W.W.W.W.W.W`C.q`P`t`taa`P`P`P`gaK.jaQaRaw.H`X`X`4.jaJaJ.7`N#f",
".W.W.W.W.W.W.W.W`C.q`P`P`D`P`P.6#y.`aX.g.UaH#v`X.HaS#H.U`S`S.K#f",
".W.W.W.W.W.W.W.W.W.b.q``#V`P`P`P`P#k.S`.#oab.m.H.Y`M.1#3#L#q#.#`",
".W.W.W.W.W.W.W#S.W#S.b#X.6`P.6.J`a`F#f`U#S#xap`h.HaS..#p.##S`1.W",
".W.W.W.W.W.W.W.W.W.W.W#U.G#e#d`F`G.r.W.W.W#4.t.j.7.7`N#p`B.W.W.W",
".W.W.W.W.W.W.W.W.W.W.W.W#T#q`e#T.W.W.W#S.Wak.U`S`S`S#Q#f`B.W.W.W",
".W.W.W.W.W.W.W.W.W.W.W.W.W.W.W.W.W.W.W.W.W#S#5#Z#o#o.C#U`1.W.W.W"
};
