/* XPM */
static char *gdeoutput_xpm[] = {
/* width height num_colors chars_per_pixel */
"    32    32      256            2",
/* colors */
"`` c #040e14",
"`. c #248adc",
"`# c #0c5694",
"`a c #948a84",
"`b c #c4c6c4",
"`c c #6c4e04",
"`d c #6c2604",
"`e c #0c324c",
"`f c #fcaa0c",
"`g c #e4e6e4",
"`h c #a4aab4",
"`i c #1472bc",
"`j c #6c6e6c",
"`k c #342e24",
"`l c #b4babc",
"`m c #241614",
"`n c #3c5264",
"`o c #f4f6f4",
"`p c #a44e04",
"`q c #343e44",
"`r c #748a9c",
"`s c #d4d6d4",
"`t c #645a3c",
"`u c #eceeec",
"`v c #041e34",
"`w c #9c9a9c",
"`x c #249efc",
"`y c #54768c",
"`z c #b4aeac",
"`A c #147ecc",
"`B c #443614",
"`C c #54626c",
"`D c #342e2c",
"`E c #dcdedc",
"`F c #04223c",
"`G c #2c5274",
"`H c #c4c2c4",
"`I c #844e0c",
"`J c #0c3e6c",
"`K c #ece6e4",
"`L c #7c7e7c",
"`M c #bcc2c4",
"`N c #545654",
"`O c #64666c",
"`P c #a4a29c",
"`Q c #1c96f4",
"`R c #b4bac4",
"`S c #444234",
"`T c #f4eeec",
"`U c #0c5ea4",
"`V c #949294",
"`W c #cccecc",
"`X c #645634",
"`Y c #acb2c4",
"`Z c #147acc",
"`0 c #2c221c",
"`1 c #dcd6d4",
"`2 c #64625c",
"`3 c #141e24",
"`4 c #2caefc",
"`5 c #b4b6b4",
"`6 c #2486dc",
"`7 c #a44a04",
"`8 c #acaaa4",
".` c #1c76bc",
".. c #6c7a84",
".# c #3c361c",
".a c #4c5664",
".b c none",
".c c #2ca6fc",
".d c #1c86dc",
".e c #343634",
".f c #4c4a4c",
".g c #2c2a24",
".h c #1c1614",
".i c #248eec",
".j c #6c560c",
".k c #2c2e34",
".l c #e4eaf4",
".m c #bcbab4",
".n c #445a6c",
".o c #fcfafc",
".p c #6c623c",
".q c #ecf2fc",
".r c #0c1e2c",
".s c #a49e9c",
".t c #2c9efc",
".u c #1c7ecc",
".v c #e4dedc",
".w c #142a44",
".x c #1c4264",
".y c #eceaf4",
".z c #a4a6ac",
".A c #444244",
".B c #1c5e94",
".C c #9c9694",
".D c #acaeb4",
".E c #041a2c",
".F c #248ee4",
".G c #ccc6c4",
".H c #745204",
".I c #6c4604",
".J c #e4eaec",
".K c #1476cc",
".L c #3c2e14",
".M c #445664",
".N c #f4fafc",
".O c #b45604",
".P c #8c8a8c",
".Q c #d4dadc",
".R c #6c5a3c",
".S c #ecf2f4",
".T c #9c9e9c",
".U c #b4b2ac",
".V c #1482dc",
".W c #546a7c",
".X c #3c2e2c",
".Y c #042a4c",
".Z c #2c5a84",
".0 c #144674",
".1 c #eceae4",
".2 c #848684",
".3 c #5c5e5c",
".4 c #a4a6a4",
".5 c #2496f4",
".6 c #bcbec4",
".7 c #f4f2ec",
".8 c #1466a4",
"#` c #949694",
"#. c #7c5e0c",
"## c #1c527c",
"#a c #2c3a44",
"#b c #7c7674",
"#c c #34465c",
"#d c #142634",
"#e c #44322c",
"#f c #344e64",
"#g c #bcb6b4",
"#h c #342a14",
"#i c #143654",
"#j c #747274",
"#k c #848284",
"#l c #5c5a5c",
"#m c #d4cecc",
"#n c #4c4644",
"#o c #0c1214",
"#p c #0c263c",
"#q c #6c6a6c",
"#r c #744a04",
"#s c #143e64",
"#t c #3c362c",
"#u c #5c6a74",
"#v c #ac4e04",
"#w c #b4b6c4",
"#x c #ac4a04",
"#y c #342a24",
"#z c #948e8c",
"#A c #6c520c",
"#B c #1476c4",
"#C c #3c566c",
"#D c #2c2624",
"#E c #dcdad4",
"#F c #acaeac",
"#G c #bcbebc",
"#H c #0c2234",
"#I c #e4e2e4",
"#J c #cccacc",
"#K c #249afc",
"#L c #7c7a7c",
"#M c #d4d2d4",
"#N c #24a2fc",
"#O c #645a34",
"#P c #2ca2fc",
"#Q c #8c8e8c",
"#R c #6c5e3c",
"#S c #3c322c",
"#T c #248ae4",
"#U c #e4e6ec",
"#V c #f4f6fc",
"#W c #d4d6dc",
"#X c #eceef4",
"#Y c #147ed4",
"#Z c #dcdee4",
"#0 c #a4a2a4",
"#1 c #b4bacc",
"#2 c #646264",
"#3 c #acaaac",
"#4 c #1c76c4",
"#5 c #3c3624",
"#6 c #bcbabc",
"#7 c #0c1e34",
"#8 c #3c2e1c",
"a` c #9c9ea4",
"a. c #b4b2b4",
"a# c #eceaec",
"aa c #f4f2f4",
"ab c #1466ac",
"ac c #94969c",
"ad c #4c464c",
"ae c #dcdadc",
"af c #000000",
"ag c #000000",
"ah c #000000",
"ai c #000000",
"aj c #000000",
"ak c #000000",
"al c #000000",
"am c #000000",
"an c #000000",
"ao c #000000",
"ap c #000000",
"aq c #000000",
"ar c #000000",
"as c #000000",
"at c #000000",
"au c #000000",
"av c #000000",
"aw c #000000",
"ax c #000000",
"ay c #000000",
"az c #000000",
"aA c #000000",
"aB c #000000",
"aC c #000000",
"aD c #000000",
"aE c #000000",
"aF c #000000",
"aG c #000000",
"aH c #000000",
"aI c #000000",
"aJ c #000000",
"aK c #000000",
"aL c #000000",
"aM c #000000",
"aN c #000000",
"aO c #000000",
"aP c #000000",
"aQ c #000000",
"aR c #000000",
"aS c #000000",
"aT c #000000",
"aU c #000000",
"aV c #000000",
"aW c #000000",
"aX c #000000",
"aY c #000000",
"aZ c #000000",
"a0 c #000000",
"a1 c #000000",
"a2 c #000000",
"a3 c #000000",
"a4 c #000000",
"a5 c #000000",
"a6 c #000000",
"a7 c #000000",
"a8 c #000000",
/* pixels */
".b.b.b.b.b.b.b.b.b.b.b.b.b.b.b.b.b.b.b.b.b.b.b.b.b.b.b.b.b.b.b.b",
".b.b.b.b.b.b.b.b.b.b.b.b.b.b.b.b.b.b.b.b.b.b.b.b.b.b.b.b.b.b.b.b",
".b.b.b.b.b.b.b.b.b.b.b.b.b.b.b.b.b.b.b.b.b.b.b.b.b.b.b.b.b.b.b.b",
".b.b.b.o.b#0.f.3#2`N#2#l#l#2#l#l#2`N#2#l#l#2#l#l#2`N`D.z.b.b.b.b",
".b.b.b.o.b`j#g#Z`H.o`Hae.S.m#Xae`b.o`Hae`u#6`uae`H.S#t`B.Q.b.b.b",
".b.b.b.o.b#q#6#G#k`o#k.U#Z#q#I.U`L`o#k#F`E`jae#F`L#I.p#.#1.b.o.b",
".b.b.b.b.b#2#6`b#Q.o#Q#6`g`L#I#G`V`o`V#6#I`L.v`5#Q#U`X#A#1.b.b.b",
".b.b.b.o.b#2#6`b`V`o#Q`H`W#j`g#6`Vaa#Q#6`E`L#I`5.P#U`X#A#w.b.b.b",
".b.b.b.o.b#2#6`b#`.o`w#0`C#a`1`H#``o#`#6`g#k#Z#6#z.l`t#A#w.b.o.b",
".b.b.b.b.b#2#G`W.C#V`w`q`i`i..#G`w`o`w#G#I.2#I#6#`#U#O.H`Y.b.b.b",
".b.b.b.o.b#2#6`Wa`.b`2`#`4.u.aa.#0aa.T`H`g.P`g#G.C.l`t#A`R.b.b.b",
".b.b.b.b.b#2#G#M.4.v#f#K.t`F`2`5.4.o.4`H`g`V`g.6.T.y#O#A#w.b.b.b",
".b.b.b.o.b#2#G#M`5`h.8.c.i#H`w#J#3#m.T`W`Kac`K`H.T#X`t.j#w.b.b.b",
".b.b.b.b.b#2#Gae.U`r.K#N#K`e.mae`w#C`n.G#X.Ta#`b.4.q.R#A#w.b.b.b",
".b.b.b.o.b#2#G#I`8`y.d.t.c`U#b`g#z.Z`Z`C#M#Fa#`W#Faa`t#A#w.b.b.b",
".b.b.b.b.b#2#G.J`z.W`Z#N`x#K##.P`a.x#N`Z.n`P#V`Wa..q.R.j#w.b.b.b",
".b.b.b.o.b#2`Ha#.m#uab#P#K.t`Q.B`q`J#K.c.u#c#E`E#6.N.R#A#w.b.b.b",
".b.b.b.b.b#2`M`u`W#b`J#P`x`x.t#N.d`6`x#K#P`Z.n#g#J#V`t.j#w.b.b.b",
".b.b.b.o.b#2`H`o`1a.`3#4.c#K#K`x#P`x.t`x`x.c`Z#f#g.b`t.H`Y.b.b.b",
".b.b.b.b.b#2`H.o`E#I#n.E.F#N`x.t#K`x`x`x`x#K`4ab.P.b#R#A`R.b.o.b",
".b.b.b.o.b#2`b.b`g.o.T`0`F.u#P#N#P`x.t`x.t#N`6#p#`.b`t.j#w.b.b.b",
".b.b.b.b.b`O`H.ba#.b`E#Q`D``.0.`#T.5`x#K#N`6#7#t`5.b#R#A#w.b.b.b",
".b.b.b.o.b#2`H.b`u.b#X`K#F.A.h#o``.0#K#P#T`v`D.T`E.b`t#A`Y.b.b.b",
".b.b.b.b.b`O`H.b`o.baa.o#V`H#``j`D#i`x#T`v#Da`.Ja#.b#R#A`R.b.o.b",
".b.b.b.o.b#2`H.b.o.b.o.o.b`u`o`u`a#s.F#p.g`w.7.o`u.b.R`c#w.b.b.b",
".b.b.b.b.b`O`H.b.o.b.o.o.o`u.o.ba.#d`F#y.T`u.b`o`T.N.R`c#w.b.b.b",
".b.b.b.o.b`2`b.b.b.b.b.b.b.b.b.b#W`S.e.D.b.b.b.b.b.b`X.I`R.b.b.b",
".b.b.b.b.b`jad#e.X.X#e.X.X#e.X.X#y`m.h#y.X.X.X#e.X#e`I#r`Y.b.b.b",
".b.b.b.o.b`O`d.O`7#x`p#v#x`p#x#v`7`p`p#x#v`p#x`p#v.O`f.H`Y.b.o.b",
".b.b.b.b.ba`.L.L#h#h#h#h#h.L#h#h#h#h#h#h#h#h.L#h#h#h.L`Sae.b.b.b",
".b.b.b.b.b`T.6a``w.T`w.T`w`w`w.T`w`w`w`wa``w`w`w`wa`.z`W.o.b.b.b",
".b.b.b.b.b.oa#`g`g`K`g`K`g`g`g`K`g`K#U`K`g`g`g`g`g`g.1aa.o.b.b.b"
};
