/* XPM */
static char *import3dsesmic_xpm[] = {
/* width height num_colors chars_per_pixel */
"    32    32      256            2",
/* colors */
"`` c #1c264c",
"`. c #9c9ab4",
"`# c #c4ced4",
"`a c #44567c",
"`b c #acb6c4",
"`c c #eceaec",
"`d c #343e64",
"`e c #c4c2d4",
"`f c #dcdee4",
"`g c #3c4a6c",
"`h c #bcc2cc",
"`i c #f4f6f4",
"`j c #a4aabc",
"`k c #647294",
"`l c #243254",
"`m c #bcbac4",
"`n c #4c5274",
"`o c #d4d2dc",
"`p c #4c5e84",
"`q c #44527c",
"`r c #9ca2b4",
"`s c #ecf2f4",
"`t c #e4e6ec",
"`u c #444e74",
"`v c #fcfefc",
"`w c #343a5c",
"`x c #34466c",
"`y c #c4cad4",
"`z c #3c4a7c",
"`A c #fcf6fc",
"`B c #b4b2cc",
"`C c #b4b6cc",
"`D c #e4e2ec",
"`E c #bcc6cc",
"`F c #acb2c4",
"`G c #747e94",
"`H c #2c3a5c",
"`I c #bcbed4",
"`J c #dcdae4",
"`K c #54628c",
"`L c #9c9eac",
"`M c #cccedc",
"`N c #4c567c",
"`O c #eceef4",
"`P c #dce2ec",
"`Q c #3c4e74",
"`R c #f4fafc",
"`S c #acaec4",
"`T c #2c3254",
"`U c #bcbecc",
"`V c #d4d6dc",
"`W c #4c6284",
"`X c #a4a6bc",
"`Y c #f4f2f4",
"`Z c #3c466c",
"`0 c #cccad4",
"`1 c #b4bac4",
"`2 c #242e54",
"`3 c #c4cedc",
"`4 c #eceaf4",
"`5 c #34426c",
"`6 c #c4c6d4",
"`7 c #dcdeec",
"`8 c #3c4a74",
".` c #bcc2d4",
".. c #f4f6fc",
".# c #a4aebc",
".a c #6c768c",
".b c #bcbacc",
".c c #4c5e8c",
".d c #9ca6b4",
".e c #e4e6f4",
".f c #343a64",
".g c #344674",
".h c #3c4e7c",
".i c #fcfafc",
".j c #bcc6d4",
".k c #7c829c",
".l c #9c9eb4",
".m c #4c5a84",
".n c #2c365c",
".o c #d4d6e4",
".p c #f4f2fc",
".q c #cccadc",
".r c #b4bacc",
".s c #000000",
".t c #000000",
".u c #000000",
".v c #000000",
".w c #000000",
".x c #000000",
".y c #000000",
".z c #000000",
".A c #000000",
".B c #000000",
".C c #000000",
".D c #000000",
".E c #000000",
".F c #000000",
".G c #000000",
".H c #000000",
".I c #000000",
".J c #000000",
".K c #000000",
".L c #000000",
".M c #000000",
".N c #000000",
".O c #000000",
".P c #000000",
".Q c #000000",
".R c #000000",
".S c #000000",
".T c #000000",
".U c #000000",
".V c #000000",
".W c #000000",
".X c #000000",
".Y c #000000",
".Z c #000000",
".0 c #000000",
".1 c #000000",
".2 c #000000",
".3 c #000000",
".4 c #000000",
".5 c #000000",
".6 c #000000",
".7 c #000000",
".8 c #000000",
"#` c #000000",
"#. c #000000",
"## c #000000",
"#a c #000000",
"#b c #000000",
"#c c #000000",
"#d c #000000",
"#e c #000000",
"#f c #000000",
"#g c #000000",
"#h c #000000",
"#i c #000000",
"#j c #000000",
"#k c #000000",
"#l c #000000",
"#m c #000000",
"#n c #000000",
"#o c #000000",
"#p c #000000",
"#q c #000000",
"#r c #000000",
"#s c #000000",
"#t c #000000",
"#u c #000000",
"#v c #000000",
"#w c #000000",
"#x c #000000",
"#y c #000000",
"#z c #000000",
"#A c #000000",
"#B c #000000",
"#C c #000000",
"#D c #000000",
"#E c #000000",
"#F c #000000",
"#G c #000000",
"#H c #000000",
"#I c #000000",
"#J c #000000",
"#K c #000000",
"#L c #000000",
"#M c #000000",
"#N c #000000",
"#O c #000000",
"#P c #000000",
"#Q c #000000",
"#R c #000000",
"#S c #000000",
"#T c #000000",
"#U c #000000",
"#V c #000000",
"#W c #000000",
"#X c #000000",
"#Y c #000000",
"#Z c #000000",
"#0 c #000000",
"#1 c #000000",
"#2 c #000000",
"#3 c #000000",
"#4 c #000000",
"#5 c #000000",
"#6 c #000000",
"#7 c #000000",
"#8 c #000000",
"a` c #000000",
"a. c #000000",
"a# c #000000",
"aa c #000000",
"ab c #000000",
"ac c #000000",
"ad c #000000",
"ae c #000000",
"af c #000000",
"ag c #000000",
"ah c #000000",
"ai c #000000",
"aj c #000000",
"ak c #000000",
"al c #000000",
"am c #000000",
"an c #000000",
"ao c #000000",
"ap c #000000",
"aq c #000000",
"ar c #000000",
"as c #000000",
"at c #000000",
"au c #000000",
"av c #000000",
"aw c #000000",
"ax c #000000",
"ay c #000000",
"az c #000000",
"aA c #000000",
"aB c #000000",
"aC c #000000",
"aD c #000000",
"aE c #000000",
"aF c #000000",
"aG c #000000",
"aH c #000000",
"aI c #000000",
"aJ c #000000",
"aK c #000000",
"aL c #000000",
"aM c #000000",
"aN c #000000",
"aO c #000000",
"aP c #000000",
"aQ c #000000",
"aR c #000000",
"aS c #000000",
"aT c #000000",
"aU c #000000",
"aV c #000000",
"aW c #000000",
"aX c #000000",
"aY c #000000",
"aZ c #000000",
"a0 c #000000",
"a1 c #000000",
"a2 c #000000",
"a3 c #000000",
"a4 c #000000",
"a5 c #000000",
"a6 c #000000",
"a7 c #000000",
"a8 c #000000",
/* pixels */
"`v`D`F`b`F`b`F`b`F`b`F`b`F`b`F`b`F`b`F`b`F`b`F`b`F`b`F`b`b`F`3`v",
"`f`k.g.g.h`z`z.g.h`z.h`z.h.h.h`z.h.h.h`z.h.h.h.h.h.h.h`z.h.g`a.q",
".j`q.m`p.m.m.m`p.m.m`p.m.m.m`p`p`p.m`p`p`p.c`p`p.c`p.c`W.c`K.h.#",
"`6`q`q`a`q`a`a`a`a`a`a`a`a`a`a`N`a`a`N`a.m`N`a.m.m.m.m.m.m`p`8`b",
"`E`Q`8`Z`x`g.g`Z`8`8`Z`8`8`8`8`8.h`8.h.h`8`Q.h`Q`8`Q`8`Q`Q`q`5`F",
"`6`Z`G`y.j`6`6`E`6`h.``6.j`6`6.j`e`E`6`6.j`6`6.``6`6`6.j`M`j.g.#",
"`E`d`y`v`A.i.i.i.i`7`V.i.i.i.i.i`V`J.i.i.i.i`i`o`t.i`R.i.i`O`Q`j",
".j.f`h.i`D`t`D`D`t.``B`t`t`t`D.e`C`e.e`t`D.e`P`B`y.e`t`D`t`J`8`X",
"`h`H`h.i.e.e`c.e`4`6.b`4`4.e`c`4.b`6`4`t.e`O`D.r`o`4`c.e`O`f`x`X",
"`h`T`h`v`4`O`O`O`O.q`U.p`O`O`O`Y`I`6`s`O`O`Y`t.b`M.p`4`O`Y`P`Z`r",
"`h`T`U`O`o`J.o`J`J.`.b.o`J.o`J.o.b.``J`J.o`J`o.b`6`J.o.o`J`M.f`r",
"`U`l.r`o`B`C.b`C`C.r.b`C.r.b`C.r.b`C.b`C.b`C.r`C`C.b`C.b.b`S.n`r",
"`h`T.b`i`7`D`D`D`D`6.b.e`D`D`D`D.b`6`D`D`P`D`D.b`M`D`D`P`t.o`H`L",
"`h`2`U`v`Y`Y`s`Y...q`I`i`Y`Y`Y..`I.q..`Y.p.p`4`I.o..`Y.p..`D`w`L",
"`h`T`U`v`O.p`s`Y`s.q`h.p`Y`s`O..`I`M`Y`O`O`Y`4`U`o.p`s`O`Y`D`H.l",
"`h`2`U`v`Y`Y.p`Y.p`M`e`i.p.p`Y..`e`0..`Y`Y..`O`U.o`i`Y`Y..`t`H`L",
"`h`T.r`v.........i`M`U.i...i...i`h`M.i.....i`O`I.o.i....`v`c.n.l",
"`h`2`e`c.b`e`e`e`e`U`I`e`e`e`e`e`U`I`e`e`e`e`e`U`I`6`e`e`e`I`w.l",
"`h`l`h`4.``0`6`y`y`e`U`y`6`y`6`y`I`U`y`6`6`y`6`I`e`6`6`y`0.``d`r",
"`h`T`U`v`Y....`A..`M`e.i..`A...i`e`M`A.....i`Y`U`J.i.....i`t`H`L",
"`h`2`U`v.i.i.i.i`v`o`e`v.i.i.i`v`6`o`v.i.i.i...``J`v.i.i`v`O`w`L",
"`h`l.b`v`R.i.i`R`v`M`6`v.i`v`R`v`6`M`v.i.i`v`i`e`J`v`R.i`v`c`H.l",
"`h`T`m`v`v`v`v`v`v.o`6`v`v`v`v`v`6`o`v`v`v`v`A.``f`v`v.i`v`s`w.l",
"`h`2`U`v.i`v.i.i`v`o`6`v.i`v.i`v`6`o`v.i.i`v..`e`f`v.i.i`v`O`H`L",
"`h`l`h`O`6.q`M`0`M`e`e`M.q`M.q`M`e`6.q`M.q`M`0`h`6`M.q`M`M`0`w`r",
"`h`T`U`Y.q`o`o`o`o`6`e`o`o`o`o`o`e`6`o`o`M`V`o`e`0`o`o`o`o.q`H.l",
"`h`2.b`v`v`v`v`v`v.o`y`v`v`v`v`v`6.o`v`v`v`v.i`e`7`v`v`v`v`Y`H`L",
"`h`T.r`v.i`v.i`v`v`o`6.i`v`v.i`v`6`o`v.i`v`v..`e`f.i`v.i`v`O`H.l",
"`h`l`h`v`v`v`v`v`v`J`M`v`v`v`v`v`M`J`v`v`v`v`v`0`D`v`v`v`v`A`w`L",
"`U`2.a`e`m`U`U`U`U`X.l`U`U`U`U`U.l`X`U`U`U`U`1`.`j`U`U.b`h`L```r",
"`c`G`2`l`l`l`2`l`l`T`l`l`l`2`T`l`T`l`l`l`2`T`l.n`l`T`l`l`T`2`q`f",
"`v`i`U`U`e`h`h`h`U`h`U`e`h`h`h`U`h`U`e`h`h`h`U`h`U`h`h`h`h`U`f`v"
};
