/* XPM */
static char *seiismicsection_xpm[] = {
/* width height num_colors chars_per_pixel */
"    32    32      256            2",
/* colors */
"`` c #045a04",
"`. c #24ae14",
"`# c #a4aea4",
"`a c #5c6a5c",
"`b c #048204",
"`c c #54d63c",
"`d c #a4daac",
"`e c #4cba24",
"`f c #348224",
"`g c #049a04",
"`h c #ccdacc",
"`i c #34621c",
"`j c #34be24",
"`k c #4cce34",
"`l c #046e04",
"`m c #74d63c",
"`n c #bcb6bc",
"`o c #3cae24",
"`p c #1c9e14",
"`q c #dceedc",
"`r c #649264",
"`s c #74ea4c",
"`t c #1c8614",
"`u c #1c721c",
"`v c #94ca94",
"`w c #54ba4c",
"`x c #349e2c",
"`y c #8c8e8c",
"`z c #94f25c",
"`A c #4cc228",
"`B c #64ca32",
"`C c #3cb61b",
"`D c #048e04",
"`E c #1ca60c",
"`F c #047a04",
"`G c #34ae14",
"`H c #14a60c",
"`I c #e4dee4",
"`J c #74e244",
"`K c #f4eef4",
"`L c #246a24",
"`M c #accaac",
"`N c #54a654",
"`O c #5cc22c",
"`P c #149a0a",
"`Q c #5cca2f",
"`R c #cccecc",
"`S c #84ea54",
"`T c #34aa24",
"`U c #9c9e9c",
"`V c #2caa10",
"`W c #54c229",
"`X c #046204",
"`Y c #64d63f",
"`Z c #bcdebf",
"`0 c #44ba30",
"`1 c #84e24c",
"`2 c #2cb61c",
"`3 c #cce6cc",
"`4 c #447a44",
"`5 c #147214",
"`6 c #9cd6a0",
"`7 c #8c9a8c",
"`8 c #148e0c",
".` c #84f254",
".. c #2cae24",
".# c #acb2ac",
".a c #148604",
".b c #546654",
".c c #c4c2c4",
".d c #3cae30",
".e c #64a664",
".f c #2c6e2c",
".g c #94fa61",
".h c #44b61c",
".i c #049604",
".j c #24a610",
".k c #7ce24b",
".l c #f4faf4",
".m c #44a644",
".n c #5c8a5c",
".o c #048a04",
".p c #4c824c",
".q c #44c624",
".r c #047604",
".s c #eceeec",
".t c #1c960c",
".u c #147a14",
".v c #14a209",
".w c #5cd234",
".x c #3ca639",
".y c #146a14",
".z c #64de44",
".A c #2cae13",
".B c #0c8204",
".C c #0ca204",
".D c #346634",
".E c #54d23c",
".F c #848e84",
".G c #4cc234",
".H c #64d234",
".I c #0c8e08",
".J c #34ae24",
".K c #e4e6e4",
".L c #5cca3c",
".M c #54c634",
".N c #046a04",
".O c #c4dec4",
".P c #a4d2ac",
".Q c #9c989c",
".R c #b4bab4",
".S c #24a61c",
".T c #7ce654",
".U c #7c7a7c",
".V c #b4dab8",
".W c #5cbe3c",
".X c #34922c",
".Y c #0c9d04",
".Z c #dcdedc",
".0 c #44be27",
".1 c #54ca2c",
".2 c #0c6e0a",
".3 c #74de44",
".4 c #bcbebc",
".5 c #44b224",
".6 c #2c9e18",
".7 c #247624",
".8 c #44a23c",
"#` c #3cb624",
"#. c #848284",
"## c #6cc26c",
"#a c #94be94",
"#b c #6c7a6c",
"#c c #a4a6a4",
"#d c #dcd6dc",
"#e c #dceae4",
"#f c #acd4ac",
"#g c #548e54",
"#h c #a4cea4",
"#i c #74a274",
"#j c #2c9214",
"#k c #446844",
"#l c #749274",
"#m c #348a1c",
"#n c #cce2d4",
"#o c #f4f6f4",
"#p c #4c6e4c",
"#q c #7c967c",
"#r c #045e04",
"#s c #9ccea4",
"#t c #3ca234",
"#u c #d4e6dc",
"#v c #24921c",
"#w c #ecf6ec",
"#x c #2c762c",
"#y c #b4c2b4",
"#z c #c4bac4",
"#A c #7cec54",
"#B c #246f24",
"#C c #948e94",
"#D c #9cf664",
"#E c #0c7a0c",
"#F c #2c682c",
"#G c #d4cfd4",
"#H c #8cee54",
"#I c #3ca624",
"#J c #0c660c",
"#K c #949894",
"#L c #8cf259",
"#M c #b4b0b4",
"#N c #ccc6cc",
"#O c #44b234",
"#P c #9cfe64",
"#Q c none",
"#R c #6ce04c",
"#S c #ece8ec",
"#T c #acaaac",
"#U c #b4d6b4",
"#V c #0c5604",
"#W c #5cd83c",
"#X c #4cbe34",
"#Y c #2ca91c",
"#Z c #54ce3c",
"#0 c #646a64",
"#1 c #3c821c",
"#2 c #249e1c",
"#3 c #e4eee4",
"#4 c #6cd63c",
"#5 c #0c760c",
"#6 c #6cd23c",
"#7 c #0c6a0c",
"#8 c #c4bec4",
"a` c #fcf6fc",
"a. c #acdaac",
"a# c #3cbe24",
"aa c #0c9604",
"ab c #7cde44",
"ac c #d4e2d4",
"ad c #74da44",
"ae c #3cb21f",
"af c #34a224",
"ag c #4cc62c",
"ah c #64ce34",
"ai c #3cba1c",
"aj c #34b218",
"ak c #74e64c",
"al c #149e07",
"am c #5cce2c",
"an c #84ee50",
"ao c #54c628",
"ap c #bce2bc",
"aq c #ccead4",
"ar c #2cb21c",
"as c #94fe64",
"at c #44ba21",
"au c #24aa12",
"av c #7ce648",
"aw c #44ca2c",
"ax c #ecf2ef",
"ay c #147e18",
"az c #3caa34",
"aA c #2cb214",
"aB c #0c8609",
"aC c #0c9204",
"aD c #a4d6a8",
"aE c #54ce34",
"aF c #6cc664",
"aG c #249614",
"aH c #3caa2c",
"aI c #8cf65c",
"aJ c #24b214",
"aK c #048604",
"aL c #4cbe24",
"aM c #049e04",
"aN c #34661c",
"aO c #047204",
"aP c #1c8a14",
"aQ c #8c928c",
"aR c #94f65c",
"aS c #049204",
"aT c #1caa0c",
"aU c #047e04",
"aV c #14aa0c",
"aW c #e4e2e4",
"aX c #f4f2f4",
"aY c #5cc62c",
"aZ c #046604",
"a0 c #84e64c",
"a1 c #147614",
"a2 c #c4c6c4",
"a3 c #2c722c",
"a4 c #849284",
"a5 c #4cc634",
"a6 c #34b224",
"a7 c #5cce3c",
"a8 c #c4e2c4",
/* pixels */
"#Q#Q#Q#Q#Q#Q#Q#Q#Q#Q.l#ea8#f`v`v#h#U.Oac#eax#Q#Q#Q#Q#Q#Q#Q#Q#Q#Q",
"#Q#Q#Q#Q#Q#Q#QapaF`w#O#O.0a5.1`Wat`o`Taf`x.8.8`M#Q#Q#Q#Q#Q#Q#Q#Q",
"#Q#Q#Q#Q#Q#Q#u`2`J.`.gas.gaRaR`zaIaR.gan.Hae.o.ua2#Q#Q#Q#Q#Q#Q#Q",
"#Q#Q#Q#Q#Q#Q`6.q#D#H#LaIaR.g.gas#La7..`P.oaU`b#Ea4a`#Q#Q#Q#Q#Q#Q",
"#Q#Q#Q#Q#Q#QaDaj`m#6#4adab.k.kaR#Z`b.o`baK`baU#E.F`K#Q#Q#Q#Q#Q#Q",
"#Q#Q#Q#Q#Q#QaD`VahaY`Q`B`Bah`B.ka5.o.oaK`baU`Fa1aQaX#Q#Q#Q#Q#Q#Q",
"#Q#Q#Q#Q#Q#Qa..jaoaL`W`W`W`W`W.3a#`b.o`baUaU.r`u#K#o#Q#Q#Q#Q#Q#Q",
"#Q#Q#Q#Q#Q#Q.ValaL.hatataLaLat#6a6`b`baUaU`F.r#B`Ua`#Q#Q#Q#Q#Q#Q",
"#Q#Q#Q#Q#Q#Q`Z.Y`Cajaj`Caj#`ae.w#YaU`baU.r.raO#B#c#Q#Q#Q#Q#Q#Q#Q",
"#Q#Q#Q#Q#Q#Q`Zaa.Aau...A.Aaj`VaE`paUaU`F.r.r`l`L#Ta`#Q#Q#Q#Q#Q#Q",
"#Q#Q#Q#Q#Q#Q#naSaT`E`E`Eauau`Eag.t.r`F`FaOaO.N#F#M#Q#Q#Q#Q#Q#Q#Q",
"#Q#Q#Q#Q#Q#w#s`D.C.Yal.v.v.val`j`8.r.r.raO`l.N#F`n#Q#Q#Q#Q#Q#Q#Q",
"#Q#Q#wa.##.d.jalaS`g`g`gaM.Y`g`.aBaO.raO`laZ`X`L`##Q#Q#Q#Q#Q#Q#Q",
"#Q`6..aj`CaL`Bae`b`b.o`DaSaSaS.v.BaOaO.N`X`l#2#Y#v.X.e#a`h#Q#Q#Q",
"`Z`0an#H`1`m`B`Q.5.6aB`F`F`b`b.o`F.NaZ#5`TaE`c`k.q`j`E`P.a#iaX#Q",
".P#X.g.g.gaI#H.kad`m`maeaO`XaO.N`l`t#Xav#Aak`Y#W.E`k#W`k`P`l.##Q",
".V#O#4ab`S#L.gasaR#LagaSaU#V`i`f`QaR#P#PaI.`#Aak`s#A.G`8`F`5.FaX",
".OaH`W`Qah#6abav.g#R`baKaK```i#6av.ka0.`aRas.g.g#A#YaUaUaU`u#C#o",
"#naH`CaL`W`WaY`Bab.HaKaKaK```fam`O`B#6`m.3a0aR#A.oaU`baU`F`u`U#o",
"#u.x.A`C`CataL`eaha7`baUaK#r#m.q`e`WaoaY`Bah.k`Y`b`baU`F.r`L#T#o",
"#3.x.Cau`Varajajaoa5`FaU`b``#jaj`C.h.0#X`W`W#4a7`F`baU`FaO#F#M#Q",
"ax#t`g.v.v`Eau.j.0`0`FaUaU#r.t`..A.Aae`C.h`C.H.G.raU`F.raO#F`n#Q",
"#o.m.o`g`gaMal.YaA`G.r`F`FaZaC`H.vauau.AaA`Gao`0`l`F.raO`l#F#z#Q",
"#Q`N`F.o.oaS.i.iaV.SaO.raO`l`D`g`g.Y.C`E`E`Ea#`o`l`FaO`l.N.D#N#Q",
"#Q#f.u.r`FaUaKaK.Y`8aO.raOaO.o`D`D.i.i`g.Y.Y...6`l.r`l.N`l#p#G#Q",
"#Q#Q#y#g#5aOaO.raKaBaOaO`l`l.raUaKaK.oaSaS.i.CaG`laO`l.N#F#.aW#Q",
"#Q#Q#QaW.R`r`u.N`laOaO`l.D#b.p#5`l`F`b`baK.oaa`8.N`l.N#k#.#G#Q#Q",
"#Q#Q#Q#Q#Q#S.c#q#xaZ`L`a#C#G`I.#.n`5`l.r`FaUaK#E.N.y.b#CaW#Q#Q#Q",
"#Q#Q#Q#Q#Q#Q#QaX`R#c.Q#8ax#Q#Q#Q#S.4#la3.N`l.r.N`L#0#Tax#Q#Q#Q#Q",
"#Q#Q#Q#Q#Q#Q#Q#Q#Q#Q#Q#Q#Q#Q#Q#Q#Q#Q`K`R`7`4#B#k.U.4#Q#Q#Q#Q#Q#Q",
"#Q#Q#Q#Q#Q#Q#Q#Q#Q#Q#Q#Q#Q#Q#Q#Q#Q#Q#Q#Qa`#d`n`n.Z#Q#Q#Q#Q#Q#Q#Q",
"#Q#Q#Q#Q#Q#Q#Q#Q#Q#Q#Q#Q#Q#Q#Q#Q#Q#Q#Q#Q#Q#Q#Q#Q#Q#Q#Q#Q#Q#Q#Q#Q"
};
