/* XPM */
static char *seismicstructure_xpm[] = {
/* width height num_colors chars_per_pixel */
"    32    32      256            2",
/* colors */
"`` c #2c4244",
"`. c #748a8c",
"`# c #a40e04",
"`a c #ac5224",
"`b c #c4c7c5",
"`c c #445051",
"`d c #d41104",
"`e c #d45234",
"`f c #745654",
"`g c #d48e4c",
"`h c #dce6e4",
"`i c #d43a1c",
"`j c #ec6a1c",
"`k c #741a1c",
"`l c #6c6e6c",
"`m c #a4aeac",
"`n c #9c3634",
"`o c #eccacc",
"`p c #643739",
"`q c #947169",
"`r c #a48e8c",
"`s c #546769",
"`t c #f44e04",
"`u c #dc3e14",
"`v c #c4b2b4",
"`w c #ac6e6c",
"`x c #842e2c",
"`y c #bc0e04",
"`z c #ecf6f4",
"`A c #f46014",
"`B c #ccd6d8",
"`C c #d41e04",
"`D c #d4726c",
"`E c #545254",
"`F c #6c7e7c",
"`G c #ec3f07",
"`H c #8c8c8c",
"`I c #fce9e9",
"`J c #fc7b1d",
"`K c #744244",
"`L c #ecb2ac",
"`M c #4c3e3f",
"`N c #cc5234",
"`O c #f44a0c",
"`P c #845a54",
"`Q c #9c221c",
"`R c #d4b2b4",
"`S c #d4dedc",
"`T c #a46a44",
"`U c #d41804",
"`V c #d48e8c",
"`W c #cc2e1c",
"`X c #e4dcdc",
"`Y c #848180",
"`Z c #9c9e9c",
"`0 c #ec5a2c",
"`1 c #fc601c",
"`2 c #545b5c",
"`3 c #e4eef0",
"`4 c #ec3004",
"`5 c #ec721c",
"`6 c #b4c0c0",
"`7 c #c42210",
"`8 c #ec2004",
".` c #7c7b7d",
".. c #fc4106",
".# c #949797",
".a c #34464c",
".b c #c4cecc",
".c c #7c7677",
".d c #743c38",
".e c #647a7c",
".f c #fc590f",
".g c #c4763c",
".h c #4c4e4c",
".i c #746464",
".j c #acb2b4",
".k c #646867",
".l c #8c422c",
".m c #dcd8da",
".n c #aca6a4",
".o c #fc3804",
".p c #848a8e",
".q c #6c2224",
".r c #6c767c",
".s c #643e34",
".t c #fcfafc",
".u c #fc6604",
".v c #f44004",
".w c #7c4234",
".x c #b41e14",
".y c #d4c2c4",
".z c #ac5e54",
".A c #e41804",
".B c #f4e2e4",
".C c #948684",
".D c #645a5c",
".E c #7c6464",
".F c #9c1a0c",
".G c #3c565c",
".H c #dc5e2c",
".I c #f48a2c",
".J c #ece9ea",
".K c #a44634",
".L c #6c3838",
".M c #5c6e7c",
".N c #bcbfbe",
".O c #f46e44",
".P c #748284",
".Q c #949294",
".R c #f4f1f2",
".S c #fc8221",
".T c #4c4a4c",
".U c #845e4c",
".V c #f48a6c",
".W c #bc3e2c",
".X c #848684",
".Y c #9ca6ac",
".Z c #fc2f04",
".0 c #fc7318",
".1 c #cc2604",
".2 c #f42604",
".3 c #403a3c",
".4 c #9c5254",
".5 c #ccc8c9",
".6 c #e41204",
".7 c #fc6c18",
".8 c #747272",
"#` c #b4aaac",
"#. c #ec9e94",
"## c #8c261c",
"#a c #cc6a34",
"#b c #c47e7c",
"#c c #ac7a54",
"#d c #940e04",
"#e c #b48e84",
"#f c #fcc2b4",
"#g c #c4865c",
"#h c #a45e64",
"#i c #c43a14",
"#j c #9c7e7c",
"#k c #d44a24",
"#l c #843634",
"#m c #bc160c",
"#n c #e47e6c",
"#o c #cc4a34",
"#p c #dc2a04",
"#q c #ac361c",
"#r c #fccac4",
"#s c #945244",
"#t c #dc5e4c",
"#u c #846264",
"#v c #9c9a9c",
"#w c #a42a24",
"#x c #944a3c",
"#y c #ac6a44",
"#z c #cc665c",
"#A c #ac2a1c",
"#B c #fc9634",
"#C c #9c6a6c",
"#D c #645254",
"#E c #fcbaac",
"#F c #e44e24",
"#G c #e4360c",
"#H c #ac4e44",
"#I c #444747",
"#J c #d4d1d4",
"#K c #cc1604",
"#L c #fc6a34",
"#M c #fca294",
"#N c #943a34",
"#O c #7c4a4c",
"#P c #bc2a18",
"#Q c #ac1a0c",
"#R c #ec7654",
"#S c #942a24",
"#T c #942e2c",
"#U c #e41e04",
"#V c #5c4a4c",
"#W c #ecd2d4",
"#X c #8c766c",
"#Y c #bcbabc",
"#Z c #d4b6b4",
"#0 c #e4e2e4",
"#1 c #6c6a6a",
"#2 c #444244",
"#3 c #d46644",
"#4 c #6c4a44",
"#5 c #949e9e",
"#6 c #849298",
"#7 c #bc3a2c",
"#8 c #7c4648",
"a` c #fc4f0d",
"a. c #a41e14",
"a# c #fc661e",
"aa c #7c8284",
"ab c #4c5654",
"ac c none",
"ad c #646264",
"ae c #545654",
"af c #b45e44",
"ag c #7c8e94",
"ah c #e4e8e8",
"ai c #a43a3c",
"aj c #5c6664",
"ak c #e4421c",
"al c #b47274",
"am c #f4f7f7",
"an c #fc6010",
"ao c #d4d7d5",
"ap c #747c7e",
"aq c #948e90",
"ar c #fc4908",
"as c #dcaeac",
"at c #dce0e0",
"au c #a4a1a3",
"av c #ecefed",
"aw c #943e34",
"ax c #b4a29c",
"ay c #dcbfbf",
"az c #fcdedc",
"aA c #c4c2c4",
"aB c #fcf2ec",
"aC c #942214",
"aD c #cc8274",
"aE c #8c666c",
"aF c #dc1204",
"aG c #acacac",
"aH c #ec3e14",
"aI c #dc1904",
"aJ c #ecdedc",
"aK c #5c5d5c",
"aL c #f42e04",
"aM c #f42204",
"aN c #fc561c",
"aO c #b4b4b4",
"aP c #fc7624",
"aQ c #fc2a04",
"aR c #c41a0c",
"aS c #e42604",
"aT c #ac3a2c",
"aU c #a42224",
"aV c #dc7264",
"aW c #f45a34",
"aX c #747674",
"aY c #a41a0f",
"aZ c #445654",
"a0 c #fc8a30",
"a1 c #fc8a64",
"a2 c #a4a6a4",
"a3 c #f4d2cc",
"a4 c #ac5234",
"a5 c #cccecc",
"a6 c #fc6614",
"a7 c #544a4c",
"a8 c #8c8684",
/* pixels */
"acacac.tac.tacacacacacacacacacaz`L#Wacacacacacacacac.t.tacacacac",
"acacacacacacacacacacacacacac#f#L`A#G`Vamacacacacacacacacacacacac",
"acac#r.V#n`Lacacacacacac.tat#3`J`J`G.FaOacacacacac`I#M#..Bacacac",
"ac#E`1.0`taS#b`3#0.5aOauaq`Y`s`aar.Uag.`#vaO.5aha3#La6ar`i`Racac",
"`I.O`Ja0`1#G`y.`.8.kae`c`c`c`M.1.ZaY#VaXaX.`.`.p#F.Sa0`1.ZaT`Bac",
"#W`0.f.f`a.p`P`M#Iad.k.iaf`e#o.xaY#w.E.X.8.8#1.``q`Ta6a`.Z#P#v.t",
".R#taQ..#q.k#6#vaqaa`r#L`JaPa`#p.L`sa2aAaO.#`Y.8.G.s.v.o.2#Aaq.R",
"acay`7aIaF#da7aK.8#6`N.0#BaP.f.oaRau#vaX.k.h.3`c#4`U.2`8#K.d`m.t",
"acac.5#C#8#D.#aO.X`2`u.7.0a#ar.oaI`pab#2.T.8`HaG.5alaU`Q`K.X#0ac",
"ac.tac`Bap`2#Jacam.makara`ar.o.2`C`papa2aA.mav.tac`Sap#I#5#0acac",
"ac.tac.m.8`E#Jac.tacaVaM.o.o`4`8`#ada5.tacacacacac.m.`#I.5acacac",
"acacac.m`Y`E`bacacac`X#7aF.A.A`y#4aj.macacacac.tac.m.`.T.5acacac",
"acacac#0`H`EaOacac.tac#J#hai`k.iap.Daoacacacacacac.maXae#Jac.tac",
"acacacav`H`EaG.tacacacac`S.#```Y.rab#Jac.tacac.tacao.`aKaoacacac",
"acacac.t.Q.h.#amacac.tac`X.#.3.H#c#i#zavacacacacac#JaX#1.macacac",
"acacacac`Z.Ta8.Racac.tac.R.#`M`j.0ar#Q#`acac.tacac#J.`.8atacacac",
"acac.tac.j#Iapamacacac.R.Nau.a.l...l.ea8.5.tacacaca5.`.`#0acacac",
"acacacaB#e.a#xay`z.mauaXadau#I##`8aC#I#1.Xa2#Jam.RaA.Paa.Jacacac",
"acac.ta1`j.g..`W.`aja7#IaKa2ae.8#CaE.X.`ae#1.pa2#R#g`q.W.yacacac",
".tacazaN.S.7`O`d`p`2.k.##YaGae.X`Satav.RaA.c`s.K.ua0`AaQ#Hatacac",
".tacazaHa``G#X#C`f`Zat.Rav#`aK`Yavacac.tac.t.N.z#a`1a`.ZaY.jacac",
"acacac`DaFaM.L.P#5aGavac.RaOad`Y.J.tacac.taoau`F`Eak.o`8#T.Yacac",
"acacac.J`w`n`x`E.k.Qau.mav`6#1apavac.t.5#v`l`E`c.d`d`da.ad.5acac",
"acacacac`z.b`6#J`H.T`Y#5aDax.Maw`R.baq.k`E#Iae.`.n#j`P.`aO.tacac",
"acacacacacacacacacaO.G#san`g`T.vaRaK.h#2.h.`#`#0.tam`h.J.tac.tac",
"acacacacacacacac.tac.5#k`J.S.uar.2.qaZ.c.j#0acacacacacacacacacac",
"acacacacacacacacacac`IaW.f`1a`.o`8`x#5`Xacacacacacacacacacacacac",
"acacacacacacacacacac.t#taQ...ZaL`U#8.bacacacacacacacacacacacacac",
"acacacacacacacacac.tacay`7.A.2#K#S.`#0acacacacacacacacacacacacac",
"acacacacacacacacacacacac`v.4#N#O.c`bacacacacacacacacacacacacacac",
"acacacacacacacacacacacacacat`6.Nat.tacacacacacacacacacacacacacac",
"acacacacacacacacacacacacacacacacacacacacacacacacacacacacacacacac"
};
