/* XPM */
static char *seismiccubemod_xpm[] = {
/* width height num_colors chars_per_pixel */
"    32    32      256            2",
/* colors */
"`` c #046904",
"`. c #049e04",
"`# c #84aa2c",
"`a c #944e04",
"`b c #84d244",
"`c c #449e14",
"`d c #047804",
"`e c #cca64c",
"`f c #44c82c",
"`g c #fcd71f",
"`h c #447604",
"`i c #98760c",
"`j c #94a694",
"`k c #247a04",
"`l c #c4dec4",
"`m c #2cb81c",
"`n c #7c9e1c",
"`o c #c46a14",
"`p c #24a20c",
"`q c #64cc30",
"`r c #048c04",
"`s c #4c6a04",
"`t c #c4c2c4",
"`u c #84ec58",
"`v c #44b921",
"`w c #c8c65c",
"`x c #84c28c",
"`y c #e4eee4",
"`z c #90ba38",
"`A c #d08e34",
"`B c #24ab13",
"`C c #507650",
"`D c #317204",
"`E c #c43604",
"`F c #54d238",
"`G c #fcea51",
"`H c #a4bea4",
"`I c #048304",
"`J c #8c868c",
"`K c #248f21",
"`L c #70b228",
"`M c #44c224",
"`N c #549a54",
"`O c #146914",
"`P c #f4d65c",
"`Q c #dcd6dc",
"`R c #d15a09",
"`S c #b4d3b4",
"`T c #54ca2c",
"`U c #049804",
"`V c #9cea5c",
"`W c #fcc804",
"`X c #6c7a6c",
"`Y c #a4caa8",
"`Z c #b4aa3c",
"`0 c #ec9e44",
"`1 c #84961c",
"`2 c #dc6f20",
"`3 c #67da47",
"`4 c #14a20b",
"`5 c #349e30",
"`6 c #8cf759",
"`7 c #bcba4c",
"`8 c #ec8624",
".` c #3cad16",
".. c #6cb26c",
".# c #e45604",
".a c #f4be48",
".b c #48a240",
".c c #147714",
".d c #7c4a04",
".e c none",
".f c #dce2dc",
".g c #ecae44",
".h c #3cc424",
".i c #8cc640",
".j c #349830",
".k c #fce259",
".l c #a48e1c",
".m c #dc7c20",
".n c #047004",
".o c #a4d654",
".p c #3c763c",
".q c #54b224",
".r c #f4f0f4",
".s c #54c234",
".t c #54ce37",
".u c #149808",
".v c #708270",
".w c #b4c8b4",
".x c #14a60c",
".y c #f4cd59",
".z c #84b630",
".A c #047e04",
".B c #aca7ac",
".C c #377704",
".D c #3cb618",
".E c #446744",
".F c #188608",
".G c #74c134",
".H c #147214",
".I c #f8d668",
".J c #eca844",
".K c #74da3c",
".L c #ec943c",
".M c #eceaec",
".N c #84de4c",
".O c #4cc933",
".P c #fce244",
".Q c #24a60c",
".R c #64d244",
".S c #14920c",
".T c #94f25c",
".U c #44b72f",
".V c #2cb214",
".W c #5c865c",
".X c #5cda3c",
".Y c #bcbabc",
".Z c #dc6214",
".0 c #bcd5c1",
".1 c #54c634",
".2 c #b4b23c",
".3 c #37a624",
".4 c #94fe64",
".5 c #38b220",
".6 c #e85e0c",
".7 c #5cad59",
".8 c #e1eae1",
"#` c #a0c844",
"#. c #748a14",
"## c #b4660c",
"#a c #7c8a7c",
"#b c #6ca46c",
"#c c #7c5e04",
"#d c #b48624",
"#e c #846204",
"#f c #3c663c",
"#g c #44ae2c",
"#h c #949294",
"#i c #a4fe6c",
"#j c #6c9a14",
"#k c #94a22c",
"#l c #e4a22c",
"#m c #9cbe9c",
"#n c #549e14",
"#o c #9cae34",
"#p c #fcf274",
"#q c #607660",
"#r c #9c5a04",
"#s c #a4be44",
"#t c #9c921c",
"#u c #2c722c",
"#v c #7cae24",
"#w c #fcb24c",
"#x c #f4922c",
"#y c #74e24c",
"#z c #d46e0c",
"#A c #7cb634",
"#B c #ec8028",
"#C c #546e54",
"#D c #249614",
"#E c #7c962c",
"#F c #4cae44",
"#G c #c84004",
"#H c #b4c64c",
"#I c #a4a2a4",
"#J c #d4e2d4",
"#K c #dc8a34",
"#L c #7c7a7c",
"#M c #7cb47c",
"#N c #b49028",
"#O c #7c867c",
"#P c #f4c25c",
"#Q c #74d63c",
"#R c #5c6a04",
"#S c #ecb65c",
"#T c #6cba34",
"#U c #fcda4c",
"#V c #94ce4c",
"#W c #e49a3c",
"#X c #ecba5c",
"#Y c #8cda4c",
"#Z c #cc721c",
"#0 c #cccacc",
"#1 c #89f259",
"#2 c #dddedd",
"#3 c #cc620c",
"#4 c #f6f6f6",
"#5 c #b4ceb4",
"#6 c #b4aeb4",
"#7 c #84e64c",
"#8 c #b4c2b4",
"a` c #ec6614",
"a. c #9c9a9c",
"a# c #5ca61c",
"aa c #247e04",
"ab c #069204",
"ac c #147e04",
"ad c #54ba34",
"ae c #ccdfcf",
"af c #8c9424",
"ag c #1ca010",
"ah c #94fa64",
"ai c #3c9838",
"aj c #1c9911",
"ak c #f4a648",
"al c #bcb544",
"am c #2c9a24",
"an c #fcce0c",
"ao c #dc761c",
"ap c #ec8e2c",
"aq c #8c8e8c",
"ar c #7c6604",
"as c #9cc69c",
"at c #74b27c",
"au c #5cc234",
"av c #2ca618",
"aw c #0c660c",
"ax c #0c780c",
"ay c #ccc6cc",
"az c #ecf0ec",
"aA c #2cae14",
"aB c #5cd53c",
"aC c #acbfac",
"aD c #4cc020",
"aE c #1c6a1c",
"aF c #fcd458",
"aG c #5cc628",
"aH c #747974",
"aI c #acceac",
"aJ c #3ca234",
"aK c #e4e3e4",
"aL c #ac9224",
"aM c #0c6f0c",
"aN c #acd24c",
"aO c #bcc6bc",
"aP c #fcca54",
"aQ c #b4aab4",
"aR c #1c6f1c",
"aS c #8ce254",
"aT c #6cd63c",
"aU c #5cca3c",
"aV c #9c9e24",
"aW c #7ce650",
"aX c #0c9f04",
"aY c #fcda2c",
"aZ c #2c7604",
"a0 c #34b71c",
"a1 c #249e1c",
"a2 c #546e04",
"a3 c #8cbe8c",
"a4 c #fce65c",
"a5 c #0c8304",
"a6 c #f4a244",
"a7 c #ec5204",
"a8 c #1ca70c",
/* pixels */
".e.e.e.e.e.e.e.e.e.e.e.e.e.e.f.0`Sae#4.e.e.e.e.e.e.e.e.e.e.e.e.e",
".e.e.e.e.e.e.e.eaz#J`S`x.7aJama1ag`Kai#M.0.r.e.e.e.e.e.e.e.e.e.e",
".e.e.e#4`las#M.7#F.3av.`ad`f`f`f`f.h`mag.Sai#b`Y.M.e.e.e.e.e.e.e",
".e.e`S.b.U.O.taBaT`b.o.z#A#A#TaG.O.O`f.O`f`ma8aj`K`N#m.f.e.e.e.e",
".e`yaJ#1.4`6`6aS.i#o`w#N#d.l#k`#.G`F.t.O`f`f`f.h.h`maja5#b.M.e.e",
".eaI.s#iah.4`V#``Z#Z.J`0.#`2#3al#s.GaB`F`F`3.XaB.Oavab.A```j#4.e",
".eaI.s#1#1.TaNal.ma`.L.yak`8ak#SaL`z.N#1aWaB.U.u`d.A`d`I`d.vaK.e",
".e.0#g#7aW#Y#H`A.#a6aPa4.k#U`P.6`2.2.i.5aj`I`d`I`I.A.A.A.n.vaK.e",
".e#JaJ.K#Q.ial#S.a.a`Ganan`G.aap`Rar`D.A`I`I`I`I.A.A.A`d.n#aaK.e",
".e.8`5`q`q.z.l`2ap.k`g`W`Wan.I#z`E#c.Ca5`I`I`I`I.A.A`d.AaMaqaz.e",
".e#4.jaGaG`L.l`R.maPaY`W`WaY.k.y#K#e`Da5`I`I`I.A.A`d`d`d``#h.r.e",
".e.eaiaDaD`Laf`o.6#w`G.P`g#p#l.m`Aaf.C`I`I`I.A.A`d.A`d`dawa..e.e",
".e.e.b.DaD.q`n`i`2`P.J.I#U.g#K#G`a`s`k`I`I.A.A.A`d`d`d`daE#I.e.e",
".e.e.7aA`v`va#af`w`2.Z#B#w#W`E#r#R`D.A`I.A.A`d`d`d`d`d.n#u#6.e.e",
".e.e..`p.5.5.``L`1`i###3.L`e.da2.Cac`I.A.A.A`d`d`d`d.n.n.p.Y.e.e",
".e.e#M.u.VaA.V.``c#j#.aVal#E`haZac.A.A.A.A`d`d`d`d.n`d```C`t.e.e",
".e.ea3ab`B.Q`BaAaA`c`c.G#V`k.F.A`I.A.A.A`d`d`d`d.n.n.n.n`C#0.e.e",
".e.e`Y`r.xaga8a8`B`Ba8`T#7`d`I`I.A.A.A`d.A`d`d`d.n`d.n``#q`Q.e.e",
".e.e.0`IaXaXaX`4aga8`4`MaW.A`I`I.A.A`d`d`d`d.n.n.n.n````#qaK.e.e",
".e.eae`I`.`U`.aXaX`4aXa0#y`d`I.A.A.A`d`d`d`d.n.n.n.n`````X.M.e.e",
".e.eaz`K`r`Uab`U`U`U`U`B`3`d`I.A`d.A`d`d`d.n.n.n.n.n````#O.r.e.e",
".e.e.e.wax`rab`r`U`U`U.x.R`d.A`d.A`d`d`d.n.n.n.n``````aEaq.r.e.e",
".e.e.e.e`Hax`I`r`r`r`r`UaU`d.A`d`d`d.n.n`d.n.n``.n````#f.B.e.e.e",
".e.e.e.e.eaCax`I`I`r`r`r.s`d`d`d`d`d`d.n.n.n``````aw.E`J.f.e.e.e",
".e.e.e.e.e.eaC.c`d`I`I`I.U`d`d`d`d.n.n.n.n.n```O#f#L.B.f.e.e.e.e",
".e.e.e.e.e.e.eaC.H`d.A`dav`d`d`d`d.n.n.n.naw.EaH.B#2.e.e.e.e.e.e",
".e.e.e.e.e.e.e.eaC.c.n`d#D`d`d.n.n.n.n`O.EaH.B`Q.e.e.e.e.e.e.e.e",
".e.e.e.e.e.e.e.e.e#8.H.na5`d.n.n`d`O.EaH.B#2.e.e.e.e.e.e.e.e.e.e",
".e.e.e.e.e.e.e.e.e.e#8aR``.n.n.H#f#L.B#2.e.e.e.e.e.e.e.e.e.e.e.e",
".e.e.e.e.e.e.e.e.e.e.eaO.W.p#CaHaQ#2.e.e.e.e.e.e.e.e.e.e.e.e.e.e",
".e.e.e.e.e.e.e.e.e.e.e.eaK`t`taK.e.e.e.e.e.e.e.e.e.e.e.e.e.e.e.e",
".e.e.e.e.e.e.e.e.e.e.e.e.e.e.e.e.e.e.e.e.e.e.e.e.e.e.e.e.e.e.e.e"
};
