/* XPM */
static char *seismicconnectwell_xpm[] = {
/* width height num_colors chars_per_pixel */
"    32    32      256            2",
/* colors */
"`` c #043eb4",
"`. c #04a304",
"`# c #84aa94",
"`a c #84de54",
"`b c #c4d6d4",
"`c c #dcead4",
"`d c #b4a6bc",
"`e c #64667c",
"`f c #e4d2e4",
"`g c #bcbec1",
"`h c #44a63c",
"`i c #54a6ec",
"`j c #14960c",
"`k c #ccbec4",
"`l c #5cce2c",
"`m c #5c86cc",
"`n c #c4dec4",
"`o c #d4d2d3",
"`p c #f4eaf0",
"`q c #b4ccbc",
"`r c #64aa6c",
"`s c #e4dee4",
"`t c #045bc4",
"`u c #8cb694",
"`v c #84868c",
"`w c #1472d4",
"`x c #b4b6b7",
"`y c #d4d2e8",
"`z c #a4a2a4",
"`A c #c4c2c1",
"`B c #cccaca",
"`C c #f4e6fc",
"`D c #b4b2cc",
"`E c #5c7eb4",
"`F c #44ba1c",
"`G c #e4e6ea",
"`H c #949694",
"`I c #f4f6f9",
"`J c #24a61c",
"`K c #6ce234",
"`L c #4c72b4",
"`M c #cccadc",
"`N c #345eac",
"`O c #d4dae9",
"`P c #a4a6c4",
"`Q c #1c4ab4",
"`R c #b4d2bc",
"`S c #7cce5c",
"`T c #e4eaf4",
"`U c #f4f2f9",
"`V c #e4def7",
"`W c #c4bed4",
"`X c #747684",
"`Y c #044ebf",
"`Z c #c4dad4",
"`0 c #d4dedc",
"`1 c #6cc64c",
"`2 c #c4babc",
"`3 c #9c9a9c",
"`4 c #44b62c",
"`5 c #6cd23c",
"`6 c #bccce4",
"`7 c #2460b4",
"`8 c #b4babc",
".` c #a4aaac",
".. c #c4bad4",
".# c #44c614",
".a c #dccae4",
".b c #ecf2f6",
".c c #dcdff0",
".d c #14a406",
".e c #e4d9f7",
".f c #bcbed8",
".g c #5cd224",
".h c #d4dadc",
".i c #8c8e94",
".j c #3472c4",
".k c #dcd5e8",
".l c #bcbacf",
".m c #34b80c",
".n c #7c7e8c",
".o c #c4d6ec",
".p c #6c6e7f",
".q c #3c9e44",
".r c #fceef8",
".s c #0466cc",
".t c #2480dc",
".u c #e4e6f4",
".v c #4482cc",
".w c #acdea4",
".x c #ececf2",
".y c #ece1f9",
".z c #9c9eb8",
".A c #84a2d4",
".B c #5c9adc",
".C c #bcb4c0",
".D c #c4c6cb",
".E c None",
".F c #d4cbe1",
".G c #14aa04",
".H c #ececfc",
".I c #0448b8",
".J c #84ea4c",
".K c #ccd4d9",
".L c #e4dadc",
".M c #64aeec",
".N c #ccbedc",
".O c #64cd31",
".P c #d4d4dc",
".Q c #f4eefc",
".R c #7cb27c",
".S c #9cb6ac",
".T c #247ad0",
".U c #a4a4bc",
".V c #ccccd4",
".W c #bcb6d0",
".X c #fcf9fc",
".Y c #34ae34",
".Z c #dcdaeb",
".0 c #c4c6d7",
".1 c #144eac",
".2 c #dcdfe0",
".3 c #7cc07c",
".4 c #4cb448",
".5 c #c4cbd7",
".6 c #54c22c",
".7 c #8c8ea8",
".8 c #74729c",
"#` c #b4c6c4",
"#. c #5caa5c",
"## c #8c9ec4",
"#a c #7496cc",
"#b c #7cea44",
"#c c #9caedc",
"#d c #4c9e4c",
"#e c #6ca2dc",
"#f c #bcdac4",
"#g c #5c92dc",
"#h c #3c66ac",
"#i c #2c56ac",
"#j c #8caedc",
"#k c #5476bc",
"#l c #24b204",
"#m c #3c8ee4",
"#n c #94b2a4",
"#o c #249e1c",
"#p c #94ea5c",
"#q c #8cc284",
"#r c #7ce23c",
"#s c #acafc4",
"#t c #1468d0",
"#u c #64ae6c",
"#v c #7cca74",
"#w c #c4ccc8",
"#x c #8c8aac",
"#y c #6c8ecc",
"#z c #4cae54",
"#A c #447acc",
"#B c #acdaa4",
"#C c #bce2ac",
"#D c #144ab4",
"#E c #1c9e1c",
"#F c #74769c",
"#G c #4cc228",
"#H c #7c7ea4",
"#I c #2cae18",
"#J c #8cb29c",
"#K c #1c7ad8",
"#L c #8cf254",
"#M c #8ce654",
"#N c #4ca654",
"#O c #ccc6cc",
"#P c #ccdaec",
"#Q c #3cbe0c",
"#R c #e4eee4",
"#S c #94ba84",
"#T c #acacac",
"#U c #1ca614",
"#V c #b4aec4",
"#W c #0456c4",
"#X c #bcc6dc",
"#Y c #ccc6e4",
"#Z c #749ed4",
"#0 c #146ed4",
"#1 c #0462c4",
"#2 c #9496ac",
"#3 c #7cc67c",
"#4 c #647ea8",
"#5 c #4cb638",
"#6 c #64d230",
"#7 c #549e5c",
"#8 c #4c7abc",
"a` c #6ca674",
"a. c #ece2ec",
"a# c #aca6ac",
"aa c #7c7a8c",
"ab c #84828f",
"ac c #747280",
"ad c #b4e2ac",
"ae c #6cb0f4",
"af c #a4bab4",
"ag c #aca2b4",
"ah c #9492ac",
"ai c #446ab4",
"aj c #94aad4",
"ak c #6cb274",
"al c #6c6a7c",
"am c #ccc2d4",
"an c #b4b5c4",
"ao c #c4c1cc",
"ap c #44be24",
"aq c #ccceec",
"ar c #3c62ac",
"as c #949294",
"at c #dcd6f4",
"au c #ccd2ec",
"av c #1cae04",
"aw c #64ca3c",
"ax c #c4cae4",
"ay c #7cde4c",
"az c #acaebc",
"aA c #ece6ec",
"aB c #fcf2f8",
"aC c #bcbabf",
"aD c #4cc61c",
"aE c #dcdadb",
"aF c #449e4c",
"aG c #ece6f6",
"aH c #a49eb8",
"aI c #448edc",
"aJ c #b4daac",
"aK c #bcbecc",
"aL c #84869c",
"aM c #ccdad4",
"aN c #6cc65c",
"aO c #bcbadc",
"aP c #e4daec",
"aQ c #dcdaf4",
"aR c #0442bc",
"aS c #e4d6e8",
"aT c #d4d6d4",
"aU c #f4eef4",
"aV c #e4e2eb",
"aW c #d4d6e9",
"aX c #cccecc",
"aY c #b4b6cf",
"aZ c #44be18",
"a0 c #cccedf",
"a1 c #7cd254",
"a2 c #e4e2f4",
"a3 c #c4c2d5",
"a4 c #747a8c",
"a5 c #0452bc",
"a6 c #d4e2d4",
"a7 c #9c9e9f",
"a8 c #dccee8",
/* pixels */
".E.E.E.E.E.E.E.E.E.E.E.E.E.E.E.E.E.E.E.E.E.E.E.E.E.E.E.E.E.E.E.E",
".EaUaCaC`g`gao`g`Aao.D.D#O.V.V.V.P.P.PaE.ZaEaV`G`GaA.x.x.x.X.E.E",
".E.2.D.X`U.xaA`G.2.VaEaW.P.V.V`W`x.f.Can`D#sazaz#V#s#s#saHaz.X.E",
".E`s`B.E.E.E.E.E.XaV`I.X`I.X`I.xaV`I`I`I`U`UaW.u.Ha2a2a2axacaE.E",
".E.2`B.E`I.X`cad#Ra..x`U.x.H.H`GaW.xaGaGa2a2a0.Za2.c.ca2.0.p`o.E",
".EaE.D.E.X#C#6`l`4`q.X.x.b.x`UaV.P.Qa6#f.u.H.V.Z.c.c.Za2.0.paT.E",
".EaE#w.E`I`1#r#M#l#N.y`U.x.H.xaV.Z.w#6aD#5.h.P.ZaVaV.c`V.0.p`o.E",
".EaE.0.X.X`1.m#G`.`r`f.b`U`U`U.uaTaw.Jayavak.a.caGauaV.x#Y.p`o.E",
".EaE.C.h.k#w.4`J#da7`A`OaT.P.Pa0`g#5#Q`F`.a``da0.B.t#A.0a3.paT.E",
".E.P.D`I.x`U.Q.2.kao`GaG`GaV`G`Oa8#f.Y#E#..W`k#Z.t.M.I`L.lac`o.E",
".EaT#O.X`U.x`I.X`U.h.Q.b.x.H.xaV.P.QaG.k.F.F`s.A`t`w.I#kanal`o.E",
".E.Pa3`I.x.X.u#P`T`s.x.x.Q.H.QaV.P`T.u.ua2.u.V.Z`m#D`N#s#V.paT.E",
".E`o.0`U`I.oaI#t.j.f`U.HaJ`S#vaM.k.uaVa2.x.u.0.Z.x.k`Ba0.f.p`o.E",
".E.V.0`I.X#g#m`iaR`EaBaJ`l#b#Q`h`M.xaGa2`6`O.P.k.c.c.Za2.0.paT.E",
".E`o.laVaU#a`Y#1``#4`f#3aD`a`F`j.`.Z.Z.B.t#t##.kaWaW`y.Z.fac`o.E",
".E.V`xaW`o.P#y`7`Ea7am`q#I.d`.#7ag`oaj#0ae.s.1.C.V.V`Ma0`D.paT.E",
".E.V.0`U.x.H.X`p.L.D.x`paM.3`u.CaK.Q`6`Y`t.I`Nao.Z.Z`O.ca3acaT.E",
".E#O.0.H.u.uaV`T`G.Pa2`T.r`V`C.Za0aVaG#c`7ai.z`8.K.eat.Z.f.paE.E",
".E.0a3.xaG`T.uaG.c.V.uaA#e.T.v#X.P.c.c.xaAaS#Saw#G.3at.c.fac`o.E",
".E.Da3.x.uaV.u`G`s.5.r#j#K.M#W#h#Oa2.Z`O.c`b`l#L`5.d#naQ.f.paE.E",
".Eao.0.H.uaG.u.x.c.5`U#j`t#K`Yar.C.c.c.c`V`b`Faw.6`.`#.F`W.paT.E",
".EaoaY.k.K.F.K.Fa8..a0.F#8#D#i.7.``M.0#O.0.F`r#U.d.qaH.l#sacaT.E",
".Eaoan.Pa0a0`y.K#q.R.P.k`sa0.VanaK.ZaWaW`yaW.N#`af...faWaO.paE.E",
".EaKa3.Ha2.u.ca1`KaD.4.k.ca2.c`y`M.c.Z.ZaQ.Z.f`yaQ`y`y.Z.l.paT.E",
".E.la3a2.c.y`R.##paw`.#n.k.Z.ca0.0.c.k`OaW.k.fa0aW`yauaWaO.paE.E",
".EaC.f.u.Z.c.K#I.mav#o`x`MaQ.c`M.0.kaWaW`yaWaK`M`yau.FaWaY.paE.E",
".E.W.fa2.Z.Za2`q#zaF.S`W`O.c`Va0`M.caQ.caQ.ca3aW.caQaQ.c.f.p`o.E",
".Ean.0`T.c.caQ.yat.Wam`M`ya0aq.l`D.f`D#s.UaH#x#xaL#H#F#F.8acaE.E",
".E.lah.z#2ah#x`vaLaa`Xac`e`ealal`X`Xaaabab`v.i.iasas`H`3a7.C.x.E",
".EaUa7`vasasa7`z`zaz`xaC`A#O`BaX`oaEaE.2`s#RaA.x`I`I.X.E.E.E.E.E",
".E.E.X`U`U`I`I.X.E.X.E.E.E.E.E.E.E.E.E.E.E.E.E.E.E.E.E.E.E.E.E.E",
".E.E.E.E.E.E.E.E.E.E.E.E.E.E.E.E.E.E.E.E.E.E.E.E.E.E.E.E.E.E.E.E"
};
