/* XPM */
static char *seismicdatamod_xpm[] = {
/* width height num_colors chars_per_pixel */
"    32    32      256            2",
/* colors */
"`` c #045e04",
"`. c #848284",
"`# c #14aa0c",
"`a c #4caa2c",
"`b c #4c664c",
"`c c #84c27c",
"`d c #4cce34",
"`e c #048604",
"`f c #c4c2c4",
"`g c #4cc234",
"`h c #44be27",
"`i c #348a2c",
"`j c #34aa14",
"`k c #6ce24c",
"`l c #cce2cc",
"`m c #84e64c",
"`n c #246a24",
"`o c #6cce34",
"`p c #3cb618",
"`q c #047204",
"`r c #74ae74",
"`s c #548e54",
"`t c #6cbe5c",
"`u c #a4a2a4",
"`v c #0c9a04",
"`w c #249a14",
"`x c #54aa50",
"`y c #5cbe34",
"`z c #ece6ec",
"`A c #84f65c",
"`B c #049204",
"`C c #349a20",
"`D c #44aa1c",
"`E c #6cda3c",
"`F c #047e04",
"`G c #aca6ac",
"`H c #4cb62c",
"`I c #c4dac8",
"`J c #a4cea4",
"`K c #64ce39",
"`L c #7c8a7c",
"`M c #f4f6f7",
"`N c #24aa0c",
"`O c #647664",
"`P c #14860c",
"`Q c #4cc634",
"`R c #3cb218",
"`S c #84ee4c",
"`T c #3cb629",
"`U c #046a04",
"`V c #447644",
"`W c #7cea54",
"`X c #147604",
"`Y c #24a20f",
"`Z c #5cc62f",
"`0 c #94f65c",
"`1 c #acb2ac",
"`2 c #d4d2d4",
"`3 c #5cd63c",
"`4 c #24b20c",
"`5 c #5cb644",
"`6 c #bcb2bc",
"`7 c #94c294",
"`8 c #34aa2c",
".` c #7ce249",
".. c #dce6dc",
".# c #346634",
".a c #6cd63f",
".b c #44a63c",
".c c #34a214",
".d c #7cde46",
".e c #54ba44",
".f c #8cee54",
".g c #949294",
".h c #546e54",
".i c #048e04",
".j c #54be2c",
".k c #047a04",
".l c #64b65c",
".m c #eceeec",
".n c #14920c",
".o c #54b630",
".p c none",
".q c #5cc63f",
".r c #94fe64",
".s c #d4ded4",
".t c #4cb23c",
".u c #44b61c",
".v c #5c965c",
".w c #84b684",
".x c #2c9a18",
".y c #64aa60",
".z c #44b21c",
".A c #74da44",
".B c #14820c",
".C c #bccec4",
".D c #64d244",
".E c #649a64",
".F c #fcf6fc",
".G c #2caa14",
".H c #148e0c",
".I c #44b62c",
".J c #1c6a1c",
".K c #e4eeec",
".L c #54be34",
".M c #14661c",
".N c #8c8a8c",
".O c #0c8a08",
".P c #d4cad8",
".Q c #44ca2c",
".R c #2c9614",
".S c #74e24c",
".T c #2c6e2c",
".U c #0c720c",
".V c #6cb664",
".W c #7cbe78",
".X c #3c9e1c",
".Y c #64d238",
".Z c #1c8a14",
".0 c #54c629",
".1 c #84ee5c",
".2 c #0c6a0c",
".3 c #2ca618",
".4 c #64ca34",
".5 c #94fa64",
".6 c #b4bab4",
".7 c #64d639",
".8 c #2cb216",
"#` c #bcbabc",
"#. c #9cbea4",
"## c #5c7a5c",
"#a c #7c9e7c",
"#b c #1ca60c",
"#c c #7cba84",
"#d c #747e74",
"#e c #54a64c",
"#f c #1c761c",
"#g c #046604",
"#h c #749274",
"#i c #3c6a3c",
"#j c #8c9a8c",
"#k c #4c7e44",
"#l c #54aa3c",
"#m c #8cc68c",
"#n c #ccded4",
"#o c #acd2b4",
"#p c #9cc2a4",
"#q c #3ca624",
"#r c #a4aaac",
"#s c #bcd6c0",
"#t c #7cc674",
"#u c #64a264",
"#v c #1c821c",
"#w c #349624",
"#x c #8c868c",
"#y c #546654",
"#z c #54ce34",
"#A c #3c8e34",
"#B c #3cae1c",
"#C c #2c662c",
"#D c #5c925c",
"#E c #0c9204",
"#F c #b4b2b4",
"#G c #dcd6dc",
"#H c #3caa24",
"#I c #e4e6e4",
"#J c #3c623c",
"#K c #5c6e5c",
"#L c #f4eef4",
"#M c #1c960e",
"#N c #dcdadc",
"#O c #948e94",
"#P c #4cae3c",
"#Q c #44ac2c",
"#R c #0c8204",
"#S c #24ae1c",
"#T c #54ca34",
"#U c #d4e2d4",
"#V c #8cf65b",
"#W c #74d640",
"#X c #0c7a0c",
"#Y c #c4bac4",
"#Z c #0c660c",
"#0 c #1caa0c",
"#1 c #44be34",
"#2 c #3cb224",
"#3 c #34a224",
"#4 c #0c8e04",
"#5 c #9cfe64",
"#6 c #54b23c",
"#7 c #44b22c",
"#8 c #34ae1c",
"a` c #84ea50",
"a. c #6cd239",
"a# c #3cba1c",
"aa c #54ae4c",
"ab c #5cc237",
"ac c #349e1c",
"ad c #6cde44",
"ae c #4cba2a",
"af c #f4fafc",
"ag c #24ae14",
"ah c #148a0e",
"ai c #84f250",
"aj c #3cba24",
"ak c #147a0c",
"al c #5cca2c",
"am c #94fa58",
"an c #34ae24",
"ao c #7ce64c",
"ap c #8cf257",
"aq c #54c229",
"ar c #54ba2c",
"as c #2c9e1c",
"at c #74de42",
"au c #d4ced4",
"av c #0c7604",
"aw c #2cb61c",
"ax c #54d23c",
"ay c #0c960c",
"az c #84c67c",
"aA c #048a04",
"aB c #6ce64c",
"aC c #047604",
"aD c #74b274",
"aE c #549254",
"aF c #0c9e04",
"aG c #249e14",
"aH c #eceaec",
"aI c #048204",
"aJ c #046e04",
"aK c #7cee54",
"aL c #d4d6d4",
"aM c #5cda3c",
"aN c #bcb6bc",
"aO c #94c694",
"aP c #dceadc",
"aQ c #ecf2ec",
"aR c #44ba1c",
"aS c #5c9a5c",
"aT c #84ba84",
"aU c #fcfafc",
"aV c #2cae14",
"aW c #44ba2c",
"aX c #54c234",
"aY c #74e64c",
"aZ c #0c6e0c",
"a0 c #9cc6a4",
"a1 c #546a54",
"a2 c #2c6a2c",
"a3 c #b4b6b4",
"a4 c #3cae24",
"a5 c #e4eae4",
"a6 c #5c725c",
"a7 c #f4f2f4",
"a8 c #dcdedc",
/* pixels */
".p.p.p.p.p.p.p.p.p.p.p.p.p.p.p.p.p.p.p.p.p.p.p.p.p.p.p.p.p.p.p.p",
".p.p.p.p.p.p.p.p.p.p.p.p.p.p.p.p.p.paf#m`caO#o#n..a5.p.p.p.p.p.p",
".p.p.p.p.p.p.p.p.p.p.p.p.p.p.p.p.p.p`c`3.S#TaR.G`8.b.y.s.p.p.p.p",
".p.p.p.p.p.p.p.p.p.p.p.p.p.p.p.p.p`M.t#5#5#VaKaBaM.Q`4#AaL.p.p.p",
".p.p.p.p.p.p.p.p.p.p.p.p.p.p.p.p.p#s.qam.5#V`Wad`3#z`dag`s`z.p.p",
".p.p.p.p.p.p.p.p.p.p.pa7a5..aU.p.paT.Y`0`0.r.5#VaK`kax.Q`Y#a.F.p",
".p.p.p.p.paUaP#U`Jaz#t`t`5#6#e#.aH.V`E.fap#5`QaW#1`haWaj.8#v.6.p",
".p`l`c.V`5#P#6.o.R`j.aaiam.f.Sab`i#Qa`.`ap.S`e.k.k.k`F.k`F`q`L.F",
"#s.e`maiapapa`at`K#3.B#Qab.Y`ga4#R`H.`.dap`T`FaAaI`F.kaCaC`n#Oa7",
"#p.q#5#5.1#7#7aeaba..a.4.L.x.kaC`qarat.d.S.OaI`F`F.kaC`qaJa1`f.p",
".C#6.A.`a4.1.r`0#Vapap.fap.f`K`P`U.R.a.daR.k`F.k.kaC`q`q.J`.aH.p",
"#n#l.0.4as`0ap.5.5#V.1.D`T#M.O`F`UaJ`Z.d.O.k.kaC`qaJaJ`U`b#`.p.p",
"#I`x`paq`w`o.d`map#S`eaI`F.k.kaC`U.M`D`HaC.kaCaCaJaJ`U.J`.#I.p.p",
"`M`x`N`p#M.jal`oatay`e`eaI`F.kaC`U.##k.k`q`q`qaJ`U#g`U`b#F.p.p.p",
".p.y`vag.n.uaeaq.aayaIaI`F.kaC`q#ga2#j#h`V#C#Ca2a2`n#i`.aH.p.p.p",
".p.w.kaF#E.Ga#aR#T#4aI`F.kaC`q`Uav`C.R.v#r.P.P`f#Ya3aNa8.p.p.p.p",
".p.Waeah`F`YaVaV`haA`F.kaC`qaJ#gakac`D`D`D`ra5.p.paU.p.p.p.p.p.p",
".paD.7.d.ZaA#0#b#8`e.kaC`qaJaJ``#X.X.o`Z`Z`F#h#L.p.p.p.p.p.p.p.p",
".p#c#B.d.4ah.iaF`#`FaCaC`q`U#g```Caq#8#M.kaC###G.p.p.p.p.p.p.p.p",
".p`7`j.0#BaXab`F.i.k`qaJ#g`U`UaJ.Oay.k.k.k`q###N.p.p.p.p.p.p.p.p",
".pa0aG`h.3`D.f.L#X`UaC`q.k.kaIaCaC`e`F`FaC`U`O`z.p.p.p.p.p.p.p.p",
".p`I.H`4`Y.3`K`o#W.IaIaAaI`F.kaJ.kaI.kaCaC`U#daH.p.p.p.p.p.p.p.p",
".paU.E.i`v`waqae`E`h`FaI`F.kaCaJaC`F.k`qaJaZ`La7.p.p.p.p.p.p.p.p",
".p.pa7.E.k#Ma#`R.0an.kaI.k`q`q`U`q.k`qaJ`U.J.ga7.p.p.p.p.p.p.p.p",
".p.p.p#L#DaI.8aV`h.3aC`FaC`qaJ#g`qaCaJ`U`n`b#FaU.p.p.p.p.p.p.p.p",
".p.p.p.p#L.v#E#0aV#M.kaC`qaJ`U#g`q.2.#a6.N#YaQ.p.p.p.p.p.p.p.p.p",
".p.p.p.p.p#L.v.i`#.n`qaCaJ`U#g#Ca6`.`uauaQ.p.p.p.p.p.p.p.p.p.p.p",
".p.p.p.p.p.paHaE`e`e`q`q#Z#i#K.N`fa5aU.p.p.p.p.p.p.p.p.p.p.p.p.p",
".p.p.p.p.p.p.p`zaE#f#C.h`.`u`2a7.p.p.p.p.p.p.p.p.p.p.p.p.p.p.p.p",
".p.p.p.p.p.p.p.paH#F`u`f#I.p.p.p.p.p.p.p.p.p.p.p.p.p.p.p.p.p.p.p",
".p.p.p.p.p.p.p.p.paUaU.p.p.p.p.p.p.p.p.p.p.p.p.p.p.p.p.p.p.p.p.p",
".p.p.p.p.p.p.p.p.p.p.p.p.p.p.p.p.p.p.p.p.p.p.p.p.p.p.p.p.p.p.p.p"
};
