/* XPM */
static char *bayesnetwork_xpm[] = {
/* width height num_colors chars_per_pixel */
"    32    32      256            2",
/* colors */
"`` c #040204",
"`. c #848284",
"`# c #c4c2bc",
"`a c #a4a2bc",
"`b c #e4e2e4",
"`c c #444264",
"`d c #b4b2b4",
"`e c #d4d6d4",
"`f c #646264",
"`g c #949694",
"`h c #747274",
"`i c #b4b2dc",
"`j c #c4c2e4",
"`k c #242234",
"`l c #a4a2cc",
"`m c #f4f2f4",
"`n c #8482ac",
"`o c #d4d2ec",
"`p c #646284",
"`q c #9492bc",
"`r c #acaacc",
"`s c #eceae4",
"`t c #bcbab4",
"`u c #cccae4",
"`v c #141224",
"`w c #747294",
"`x c #bcbadc",
"`y c #dcdaec",
"`z c #8c8a94",
"`A c #cccac4",
"`B c #6c6a6c",
"`C c #343244",
"`D c #9c9abc",
"`E c #545264",
"`F c #8c8aac",
"`G c #acaadc",
"`H c #acaaac",
"`I c #dcdad4",
"`J c #64627c",
"`K c #9c9e9c",
"`L c #fcfaf4",
"`M c #6c6a84",
"`N c #eceaf4",
"`O c #bcbad4",
"`P c #cccaf4",
"`Q c #7c7a9c",
"`R c #bcbaec",
"`S c #3c3a54",
"`T c #040224",
"`U c #e4e2f4",
"`V c #b4b2d4",
"`W c #c4c2f4",
"`X c #a4a2dc",
"`Y c #d4d2fc",
"`Z c #1c1a24",
"`0 c #84829c",
"`1 c #c4c2d4",
"`2 c #7c7e84",
"`3 c #b4b6ec",
"`4 c #14162c",
"`5 c #dcdafc",
"`6 c #8c8a9c",
"`7 c #ccced4",
"`8 c #9c9ad4",
".` c #5c5e5c",
".. c #dcdae4",
".# c #6c6a94",
".a c #a4a2c4",
".b c #b4b6b4",
".c c #646664",
".d c #74728c",
".e c #b4b6dc",
".f c #a4a6cc",
".g c #f4f6f4",
".h c #8486bc",
".i c #d4d6ec",
".j c #9496cc",
".k c #acaecc",
".l c #bcbec4",
".m c #8c8abc",
".n c #acaedc",
".o c #dcded4",
".p c #9c9ab4",
".q c #eceef4",
".r c #cccef4",
".s c #7c7aac",
".t c #bcbeec",
".u c #3c3a64",
".v c #040214",
".w c #c4c6c4",
".x c #e4e6e4",
".y c #4c4a64",
".z c #9492b4",
".A c #747674",
".B c #c4c6ec",
".C c #8486ac",
".D c #9496bc",
".E c #eceeec",
".F c #bcbebc",
".G c #ccceec",
".H c #14161c",
".I c #747694",
".J c #bcbee4",
".K c #dcdef4",
".L c #8c8e8c",
".M c #cccecc",
".N c #6c6e6c",
".O c #343254",
".P c #9c9ebc",
".Q c #545674",
".R c #acaec4",
".S c #646674",
".T c none",
".U c #6c6e84",
".V c #bcbecc",
".W c #7c7e9c",
".X c #0c0a1c",
".Y c #e4e6fc",
".Z c #c4c6f4",
".0 c #8486a4",
".1 c #04020c",
".2 c #848294",
".3 c #c4c2c4",
".4 c #a4a6b4",
".5 c #e4e2ec",
".6 c #b4b2bc",
".7 c #d4d2e4",
".8 c #64626c",
"#` c #b4b2e4",
"#. c #5c5a74",
"## c #4c4e74",
"#a c #24263c",
"#b c #64668c",
"#c c #acaeb4",
"#d c #8c8ec4",
"#e c #9c9eac",
"#f c #9496ac",
"#g c #343644",
"#h c #8c8eac",
"#i c #b4b6d4",
"#j c #a4a6dc",
"#k c #d4d6fc",
"#l c #dcdefc",
"#m c #9c9ed4",
"#n c #6c6e94",
"#o c #a4a6c4",
"#p c #3c3e64",
"#q c #c4c2ec",
"#r c #a4a2d4",
"#s c #f4f2fc",
"#t c #d4d2f4",
"#u c #9492c4",
"#v c #acaad4",
"#w c #eceaec",
"#x c #bcbabc",
"#y c #cccaec",
"#z c #bcbae4",
"#A c #dcdaf4",
"#B c #cccacc",
"#C c #acaae4",
"#D c #dcdadc",
"#E c #9c9ea4",
"#F c #fcfafc",
"#G c #6c6a8c",
"#H c #eceafc",
"#I c #cccafc",
"#J c #bcbaf4",
"#K c #3c3a5c",
"#L c #e4e2fc",
"#M c #8482a4",
"#N c #c4c2dc",
"#O c #141634",
"#P c #8c8aa4",
"#Q c #cccedc",
"#R c #b4b6bc",
"#S c #64666c",
"#T c #b4b6e4",
"#U c #a4a6d4",
"#V c #f4f6fc",
"#W c #d4d6f4",
"#X c #acaed4",
"#Y c #acaee4",
"#Z c #dcdedc",
"#0 c #eceefc",
"#1 c #cccefc",
"#2 c #bcbef4",
"#3 c #74767c",
"#4 c #8486b4",
"#5 c #141624",
"#6 c #74769c",
"#7 c #8c8e94",
"#8 c #6c6e74",
"a` c #9c9ec4",
"a. c #54567c",
"a# c #64667c",
"aa c #bcbed4",
"ab c #7c7ea4",
"ac c #0c0a24",
"ad c #c4c6fc",
"ae c #000000",
"af c #000000",
"ag c #000000",
"ah c #000000",
"ai c #000000",
"aj c #000000",
"ak c #000000",
"al c #000000",
"am c #000000",
"an c #000000",
"ao c #000000",
"ap c #000000",
"aq c #000000",
"ar c #000000",
"as c #000000",
"at c #000000",
"au c #000000",
"av c #000000",
"aw c #000000",
"ax c #000000",
"ay c #000000",
"az c #000000",
"aA c #000000",
"aB c #000000",
"aC c #000000",
"aD c #000000",
"aE c #000000",
"aF c #000000",
"aG c #000000",
"aH c #000000",
"aI c #000000",
"aJ c #000000",
"aK c #000000",
"aL c #000000",
"aM c #000000",
"aN c #000000",
"aO c #000000",
"aP c #000000",
"aQ c #000000",
"aR c #000000",
"aS c #000000",
"aT c #000000",
"aU c #000000",
"aV c #000000",
"aW c #000000",
"aX c #000000",
"aY c #000000",
"aZ c #000000",
"a0 c #000000",
"a1 c #000000",
"a2 c #000000",
"a3 c #000000",
"a4 c #000000",
"a5 c #000000",
"a6 c #000000",
"a7 c #000000",
"a8 c #000000",
/* pixels */
".T.T.T.T#F#L#W.G`P.B#q#q.J`j.7.q.T.T.T.T.T.T.T.T.T.T.T.T.T.T.T.T",
".T.T.T#L.r`5.Y#H#0#0#H#L#k`P`R`G`1`m.T.T.T.T.T.T.T.T.T.T.T.T.T.T",
".T.T`5`5#V#F#V#F#V#s#0#l#k#k`Y#1#C.4.x.T.T.T.T.T.T.T.T.T.T.T.T.T",
".T`5#A.T#F#s#V.J.Q.u##`r`5#1#1#I#1#C.P#w.T.T.T.T.T.T.T.T.T.T.T.T",
"#L#W#F#F#s#0.T#M#p`p#O`k`W#k#I#Iad#1.j#c`L.T.T.T.T.T.T.T.T.T.T.T",
"`P.Y.T#V#V#H#L#t#W#s`p.v`i#k#Iad`W.r`R`0#D.T.T.T.T.T.T.T.T.T.T.T",
"#q#0#F#s#H#L#l#L#L.J`k`C.Z`Y#Iad`W#t#2ab.F.T.T.T.T.T.T.T.T.T.T.T",
".t#0#F#H#l#l#l#L`D`v`S.e`Y#Iadad#2#W#q#M`H#F.T.T.T.T.T.T.T.T.T.T",
"`j`5.Y#l#L#l`5#l.W.1.J`5ad#1#I`W`W.K`3`w`H#F.T.T.T.T.T.T.T.T.T.T",
"`j`P#L`5`5`5#k`5.e#h.t#1#1#I`W#2#t#A`Xa#.b.T.T.T.T.T.T.T.T.T.T.T",
"..#T#l`5#k#k`Y#l`J```F#kad`W#2#W#l`3#6.A`b.T.T.T.T.T.T.T.T.T.T.T",
".T#N`R#l#k#k`Y`Y.J#U#q#Iad#t#l#A#T.h`0.R`o.G`o.G`y.q.T.T.T.T.T.T",
".T.E.k#z#k`Y`Y`5.Y#H#l#l#l`5#q#Y#`.B`5#l#A#t#t.Z#z`i`x`b.T.T.T.T",
".T.T.x`a`X#U`R.n#i#e#y#2#Y#u#j#t#0#F#V#s#F.T#H`5#k`Y#J#r.V`L.T.T",
".T.T.T#w.7#Q.i.6#S`B#S`M`M.a#L#F#V#s#0#0`Dab`P`5#1#1#1#I#m`r`L.T",
".T.T.T.T.T.T`L.A`h`f`g`I.V`5.T#F#s#s#H#0.u`T.e#l`Y#1#Iad`P`q.l#F",
".T.T.T.T#F.T#R`B`f.L.g.T`Y#0#F#V#s#H#l.Y.y`4.J`5#1#1#I`W#I.n`6`s",
".T.T.T.T.T#x`f`B.L#F.T#s.r#V#V#V#H#l#l#H.y`v.t#k#1#I#I#2.Z#qab`A",
".T.T.T.T#x.``h`f#w.T.T`N.r#F#V#H#L#l#l#L.y`v.J#k#I#Iad`W.Z#y#6.b",
"#s#0#s#w.A#8`B.b.g.T.T`N.Z#0#H#l#l#l`5#l###5#q`Y#Iad.Z#2.Z.B`w.b",
".B#q#q.f`h`f`..T.T.T.T#V`j`5#l#l`5`5#k`5`V.a#I#1#Iad`W`3#t`i.U.F",
"#0#H.Y#l#y`x.f#i`b.T.T.T`u#q#L#k`5#k`Y`5#g.H#X`Yad`W`R#q`5#4#8`I",
"#V#0.Y`5`Y#k`Y`Ra`.7#F.T`m#X`W#l#k`Y`Y`Y.U#.`3#1`W#2.Z#l.na#`g`m",
".u`c.C`Y`Y#1#I#1#J`q.M.T.T`b`a#`#1#k#k`Y#l#L#1`W#J.B#W`G#b`h`e.T",
"#b`C`T.z#l#I#Iad#1.n#f#w.T.T`b.4.D#v#`#2#2#J#2#2#v`2.2.U`h.3.T.T",
".Ta`.v#n#Lad#1ad.Z.r`n#B.T#F.T`m.M#E`6#P.0`0`0#M`h#S.N`B.w.T.T.T",
"#A.Q.X.a#k#Iad`W.Z#k`n.l.T#F.T.T.T#F`b.M`t#x.w.w.3.L`B`B.6.T#F.T",
"`k`k#h#k#1#Iad`W`P`5.h.3.T.T.T.T.T.T.T.T.T.T.T.T.T#B.``h`f.b.T.T",
"``.W#H#I#Iad.Z#2#t`Y#6#x.T#F.T.T.T.T.T.T.T.T.T.T#F.T#x.`.A`f#R.T",
"#P#v#1#I#Iad#2`P.K`R.#`d.T.T.T.T.T.T.T.T.T.T.T.T.T.T.T#x.``h`f#x",
"``.y#kadad`W`P.K`P#d.S#B.T.T.T.T.T.T.T.T.T.T.T.T.T.T#F.T#R`B.N`B",
"`F.f#1ad.Z#t.K.r.j`w`z.K.T.T.T.T.T.T.T.T.T.T.T.T.T.T.T#F.T`K`B#8"
};
