/* XPM */
static char *crossplot_xpm[] = {
/* width height num_colors chars_per_pixel */
"    32    32      256            2",
/* colors */
"`` c #0442a4",
"`. c #04a204",
"`# c #8caa94",
"`a c #84d664",
"`b c #64657c",
"`c c #b4b2b0",
"`d c #d4d2d3",
"`e c #dceadc",
"`f c #44a634",
"`g c #049c04",
"`h c #5c866c",
"`i c #c4c2c1",
"`j c #e4daea",
"`k c #7cae84",
"`l c #848289",
"`m c #9ca6bc",
"`n c #c4d2ec",
"`o c #44c210",
"`p c #14868c",
"`q c #ccc6d4",
"`r c #849694",
"`s c #045ec4",
"`t c #bcbac1",
"`u c #f4eaf4",
"`v c #5472a4",
"`w c #ccdefc",
"`x c #2c5aa4",
"`y c #84c2bc",
"`z c #64ce30",
"`A c #24a614",
"`B c #74727e",
"`C c #9c96ac",
"`D c #84c274",
"`E c #e4e2e9",
"`F c #d4d2e7",
"`G c #dccadc",
"`H c #1c62bc",
"`I c #b4c2dc",
"`J c #9caedc",
"`K c #cccae6",
"`L c #b4aec4",
"`M c #64d22c",
"`N c #2cb604",
"`O c #c4e2c4",
"`P c #7cb26c",
"`Q c #1472d7",
"`R c #c4bacc",
"`S c #f4f6f9",
"`T c #eceaeb",
"`U c #54aa54",
"`V c #3c8ee4",
"`W c #7c7a87",
"`X c #84829c",
"`Y c #ccced1",
"`Z c #0c69cf",
"`0 c #d4dae8",
"`1 c #c4c5d7",
"`2 c #2c82d4",
"`3 c #a4a6a4",
"`4 c #44b22c",
"`5 c #5c82bc",
"`6 c #aca8ba",
"`7 c #b4bed4",
"`8 c #f4e6fc",
".` c #d4dadc",
".. c #849ac4",
".# c #74c64c",
".a c #9c9e9f",
".b c #ece5e9",
".c c #c4b6d4",
".d c #ecf2f0",
".e c #b4b6c5",
".f c #34be0c",
".g c #4c9af4",
".h c #c4cada",
".i c #b4d6bc",
".j c #5c6e94",
".k c #dcd5dc",
".l c #2c7e64",
".m c #64aabc",
".n c #5cd22c",
".o c #f4f2f4",
".p c #dcdeea",
".q c #a4cca0",
".r c #ececf6",
".s c #4c90d8",
".t c #0454ba",
".u c #14a604",
".v c #94b694",
".w c #44ae34",
".x c #ecdeec",
".y c #a4aabc",
".z c #5cca24",
".A c #d4cad9",
".B c #949599",
".C c #1462dc",
".D c #bcbccc",
".E c #2c6ab4",
".F c #9cbee4",
".G c #24af0f",
".H c #647ebc",
".I c #a49aac",
".J c #e4e5f4",
".K c #dcd6e8",
".L c none",
".M c #847e8c",
".N c #8c8da7",
".O c #c4c4e4",
".P c #3486dc",
".Q c #6c96b4",
".R c #6cca54",
".S c #74a2dc",
".T c #dcdff4",
".U c #acda9c",
".V c #b4b4bc",
".W c #d4d4dc",
".X c #e4daf4",
".Y c #8c8a8c",
".Z c #a4a5b9",
".0 c #ccdaf4",
".1 c #4cc41e",
".2 c #045ad8",
".3 c #6c7a94",
".4 c #9c99b4",
".5 c #246cc4",
".6 c #acaebf",
".7 c #bcb0c8",
".8 c #7cd24c",
"#` c #3cba04",
"#. c #44924c",
"## c #5c9e64",
"#a c #4c8e4c",
"#b c #84ca6c",
"#c c #7c92c4",
"#d c #74829c",
"#e c #547ebc",
"#f c #2c8e34",
"#g c #8cc2f4",
"#h c #54a2ec",
"#i c #acd2f4",
"#j c #4466a0",
"#k c #94ba9c",
"#l c #d4e2d4",
"#m c #54b67c",
"#n c #449e74",
"#o c #649edc",
"#p c #9caaac",
"#q c #44be1c",
"#r c #14aa04",
"#s c #9494b4",
"#t c #6c82a4",
"#u c #6c6c80",
"#v c #247adc",
"#w c #acacac",
"#x c #7caee4",
"#y c #247e8c",
"#z c #6c9a74",
"#A c #7cde4c",
"#B c #34b214",
"#C c #547abc",
"#D c #8cda6c",
"#E c #0462cc",
"#F c #3c92e4",
"#G c #2c82df",
"#H c #74c264",
"#I c #1ca41c",
"#J c #44ba2c",
"#K c #94ae9c",
"#L c #147adc",
"#M c #0c6ed4",
"#N c #e4eaf0",
"#O c #3462a4",
"#P c #64da2c",
"#Q c #b4e29c",
"#R c #446eac",
"#S c #8492ac",
"#T c #9493ac",
"#U c #4ca644",
"#V c #ccd4e8",
"#W c #2460b0",
"#X c #448cd8",
"#Y c #8c82a4",
"#Z c #9cb2a4",
"#0 c #4caa40",
"#1 c #5486c4",
"#2 c #9c9eb4",
"#3 c #6cce3c",
"#4 c #d4ced9",
"#5 c #dcdaea",
"#6 c #0c5abc",
"#7 c #fceefc",
"#8 c #bcc4d8",
"a` c #d4cee4",
"a. c #34ba0c",
"a# c #1c76d4",
"aa c #fcfafc",
"ab c #347ed0",
"ac c #bcbed7",
"ad c #3cc008",
"ae c #accea4",
"af c #0c52b4",
"ag c #a4c2dc",
"ah c #74cc4c",
"ai c #dce1dc",
"aj c #0446b4",
"ak c #94a694",
"al c #84d274",
"am c #44a244",
"an c #c4c2cc",
"ao c #cccadc",
"ap c #2caa14",
"aq c #74768c",
"ar c #7c7d94",
"as c #8486ac",
"at c #aca2a4",
"au c #6486bc",
"av c #acaac4",
"aw c #ece6f4",
"ax c #a4a2c4",
"ay c #94c4f4",
"az c #5ca3ec",
"aA c #1cae04",
"aB c #ccd2f4",
"aC c #bcb6c4",
"aD c #8cca74",
"aE c #4cba34",
"aF c #cccedc",
"aG c #dcdadc",
"aH c #f4f2fc",
"aI c #acaecc",
"aJ c #3cba14",
"aK c #4492e4",
"aL c #7cc264",
"aM c #146ed4",
"aN c #6cda2c",
"aO c #dcdaf4",
"aP c #b4b6b4",
"aQ c #d4d6d4",
"aR c #c4c6c4",
"aS c #e4dee8",
"aT c #84868b",
"aU c #cccad1",
"aV c #bcbec1",
"aW c #f4eef9",
"aX c #747684",
"aY c #9c9aa8",
"aZ c #e4e6e9",
"a0 c #d4d6ea",
"a1 c #9cb2d4",
"a2 c #cccee4",
"a3 c #b4b2c5",
"a4 c #2cba0c",
"a5 c #c4bec8",
"a6 c #f4fafc",
"a7 c #eceeec",
"a8 c #7c7e8c",
/* pixels */
".L`E`Y`daQ.W.WaGaG.p`E`EaZaZ`Ta7.o.o`Saaaa.L.L.L.L.L.L.L.L.L.L.L",
"`S`t`YaG`d`YaUaUaV.VaV`t.V.e.V`6.Z`6.Z.Z.Z.Z`6`6.6`La3.e.ea3.b.L",
".oaV`S.L.L.L.L.L.o`E.L`SaaaH`S.raG.d.r.raZ.Ja0ao#5`Fa2ac`K#s.a`S",
".da5.oaaaa`S`Saa.raiaHaH.r.r.raZa0.r.r.Jaw.ra0.W#N.T#D`z#k`C`l.o",
"a7aVa7aa`Saa`Saa.raG`S.r.daW.d.J.W.r.J.r`E.J.K`Y`8.i.1.f###YaT.o",
"a7`ta7aa`S`SaH`S`T#5aaaaaW.r.raZ#5.raZ.J.J.J.``FaZ.#aA#faY.N`l.o",
"`TaV.oaaaaaa`S`S.raG#Qae.JaH.r.bao.b.r.r.J.ra0#4`a`N#U`6.A.4`l.o",
"`T`t`E.r#N`T`TaW`T#HaNap#Z.JaW.F#G#e`Y.J`E.J`j#bad`f`7#5.J#2`l.d",
"`T.V`YaQaQ.K`j.qaE.u`A.G`f`iaS#XaM.t#S#4`F.haD.1.w#Z`qaFa`#TaT.o",
"aZ`taHaaaa.d#b.G`gam`#.#`o#H.0#F```s`2#Vai#D.napak.K#5a0.p.4`l.o",
"aZaPaW`e.U#J`.`A`k`q`uaiah`o#m.C#t#1.2.m.8#``N#..7.J.p#5.J.4a8`S",
"`E.D`O#AaJ`g`U.h.x.`aHaW#l#3.1.l.c.T#n.1#`#U`h#TaF#5aO`0.T.4aT.d",
"ai`R.qa..G#z.A`S`E.W.r#N.r`y`z.z`D.Rad#I`p`J`G.D.JaS.J`jaw.4`l.o",
".p.e.b.v`#a5awaH.T.WaHaW.0.g#y`z#P.u`f.Q.2`2`I.W.T#V#xab..#T`l.d",
"aS.6.p`j#4a0`EaZ.WaU`EaS#ga#.H`P`A#a.IaS#1`Qab#XaK`Q`Z`Q#W.M`l.o",
"ai`caF.W.W.WaF.W`1`t#5`I#h`H.V`R`rat.D.k`7a#`Zajaf#W#R#O#d`WaT.o",
"#5a3.r.r.r.r.r.r.p.W.ray#v.H`T#5#4.T.J.T`E#c#j.3`c`j#4a5`1#saT.o",
".W.V.J.J.J.J.J.r#5`d.0#h.5.D.ra0`Y.J.p.p.p`j`t.7.T#5`0.K.T#saT.o",
".Wa3.J`T.J.r`E#Na0.kay#G`5`E.Ja0`Y.J.p.X.p.TaFaU.p.Ka0a0aO#TaT.o",
".W.V.J.JaZ.J.J.JaSa1az.5`7.b.J`FaU.T.p.T#5.TaF`1.Ta0.Ka0#5#saT.o",
".W.6.Jaw.J.J.J`u`n#X#M#R.k.J.Ja0ao.J.X.p.TaSa2`q.Ta0aOa0aO#saT.o",
".W`6.p`0#5`j.T#i#X#E.t.jaVa0.W`q.D`FaF.W`Ka2.D.Da2`q`1`1`K.NaT.o",
".W.Zao#4`1agaz#M.t#j.3aY`taoao#8`taFaoaFaoaFan.e`F`Ka2ao#V#T`l.o",
"aUa3.0#o.s#G#6#C.Za5.ka0.J.J.J.Wao.T.p.T#5.T`K`1#5a0a0`F.K#s`l.o",
".h.7.S#L.t`x`maS.WaU.J.p#5#5#5a2`1#5.Ka0.K#5`1an`0`F`F`Fa0#s`l.o",
"`1.V#8.E`v`3.K.T`Fan.T#5aO`0.TaFan.Ta0.Ka0a0.Oac.KaB`Fa2`F#sa8`S",
"aU.Z.J`q`tao#5.pao`1.Ta0#5a0#5`KanaOa0`0a0aOaoanaOa0a0`FaO#s`l.o",
"`1av.J.T.p.J.T.Ja0aU.r.J.J.J.Ja2`1.Ta0`F`F`Fac.eaB.O.OacacasaT.o",
"an.Z.Ka2`K.Oa5acaIaxaI`6ax#2ax#s#T#T.N#Yasaraq`B#u`b`b`b`baqaY`S",
".p.Narar`W`W`W`WaX`W`B`B#u`B`W`l.Y.Y.B.a`3at.6.V`ta5aRaU#4`daZ.L",
".LaG#w`c`taVaRaU`daQai`E#Na7.o.d.o`S`Saaa6.L.L.L.L.L.L.L.L.L.L.L",
".L.L.L.L.L.L.L.L.L.L.L.L.L.L.L.L.L.L.L.L.L.L.L.L.L.L.L.L.L.L.L.L"
};
