/* XPM */
static char *decisiontree_xpm[] = {
/* width height num_colors chars_per_pixel */
"    32    32      256            2",
/* colors */
"`` c #1c62c4",
"`. c #3c86e4",
"`# c #cc9e0c",
"`a c #fcc604",
"`b c #d40a04",
"`c c #a4d2fc",
"`d c #ac5204",
"`e c #7caee4",
"`f c #ac9284",
"`g c #dccec4",
"`h c #dc4e2c",
"`i c #7c5e4c",
"`j c #848694",
"`k c #f4eee4",
"`l c #1c6edc",
"`m c #cca65c",
"`n c #cc7204",
"`o c #fce64c",
"`p c #a4a6b4",
"`q c #7c9ad4",
"`r c #a4dafc",
"`s c #946e44",
"`t c #84c2fc",
"`u c #e48e04",
"`v c #eccecc",
"`w c #4c66b4",
"`x c #3456a4",
"`y c #c43224",
"`z c #4c9af4",
"`A c #b4865c",
"`B c #fc4e14",
"`C c #8c726c",
"`D c #fcf62c",
"`E c #ccae94",
"`F c #fc2a04",
"`G c #9c9aa4",
"`H c #fcd604",
"`I c #c4c6cc",
"`J c #dc8a7c",
"`K c #dcdeec",
"`L c #8c8e9c",
"`M c #fcfaf4",
"`N c #3472c4",
"`O c #cc6a64",
"`P c #94cefc",
"`Q c #3462b4",
"`R c #bc9a4c",
"`S c #6cbafc",
"`T c #bce6fc",
"`U c #e4cec4",
"`V c #cc5e54",
"`W c #746e84",
"`X c #4c7ecc",
"`Y c #fc3a04",
"`Z c #5492e4",
"`0 c #fcf6f4",
"`1 c #b4dafc",
"`2 c #94c6fc",
"`3 c #5ca6f4",
"`4 c #ac7e54",
"`5 c #94a6d4",
"`6 c #c4d2e4",
"`7 c #c46604",
"`8 c #eceef4",
".` c #fcee44",
".. c #c4aea4",
".# c #c46e04",
".a c #ecdacc",
".b c #fcfe64",
".c c #e4a6a4",
".d c #fc7a44",
".e c #bc9a6c",
".f c #e45a34",
".g c #1466dc",
".h c #548ad4",
".i c #fcce04",
".j c #bc967c",
".k c #748ac4",
".l c #2c7ae4",
".m c #fcbe04",
".n c #fc925c",
".o c #4c6ebc",
".p c #345eb4",
".q c #649ee4",
".r c #fc6224",
".s c #fcfe1c",
".t c #ccb28c",
".u c #fce244",
".v c #cccacc",
".w c #cc9a74",
".x c #948e9c",
".y c #347ee4",
".z c #4466b4",
".A c #cc9e44",
".B c #7cbafc",
".C c #c47a04",
".D c #dc623c",
".E c #4486e4",
".F c #84b2ec",
".G c #d4ced4",
".H c #64667c",
".I c #fc7234",
".J c #a4b6dc",
".K c #7caae4",
".L c #ace2fc",
".M c #8ccafc",
".N c #e49604",
".O c #cc3e2c",
".P c #54a2f4",
".Q c #b48e5c",
".R c #fc3204",
".S c #9ca2b4",
".T c #e4d2c4",
".U c #74768c",
".V c #fc460c",
".W c #bc7a7c",
".X c #bc5e5c",
".Y c #f4eef4",
".Z c #7c92cc",
".0 c #c4a28c",
".1 c #cc9a3c",
".2 c #fcca04",
".3 c #c42614",
".4 c #acd6fc",
".5 c #74b6fc",
".6 c #2c6ecc",
".7 c #e4b22c",
".8 c #d47a04",
"#` c #fcea4c",
"#. c #946644",
"## c #8c7e8c",
"#a c #7c6674",
"#b c #bcbac4",
"#c c #d42e0c",
"#d c #9c724c",
"#e c #2c5ab4",
"#f c #446ebc",
"#g c #8ca2d4",
"#h c #a496a4",
"#i c #5c7abc",
"#j c #246acc",
"#k c #cc726c",
"#l c #d41604",
"#m c #f49a04",
"#n c #f4e2d4",
"#o c #bccae4",
"#p c #e45634",
"#q c #2476e4",
"#r c #acaebc",
"#s c #c4a254",
"#t c #d4a234",
"#u c #fc823c",
"#v c #ecd6d4",
"#w c #fc561c",
"#x c #bc9e84",
"#y c #fcde04",
"#z c #b4e2fc",
"#A c #c47604",
"#B c #c48204",
"#C c #d4a64c",
"#D c #1c66cc",
"#E c #d4aa8c",
"#F c #3c76cc",
"#G c #3c62b4",
"#H c #c49e54",
"#I c #ccd6ec",
"#J c #acdafc",
"#K c #8cc2fc",
"#L c #cc3624",
"#M c #549ef4",
"#N c #9ccefc",
"#O c #9ccafc",
"#P c #64aaf4",
"#Q c #7c8ec4",
"#R c #84befc",
"#S c #646a8c",
"#T c #7c7a8c",
"#U c #c4625c",
"#V c #3c5eac",
"#W c #cca284",
"#X c #74bafc",
"#Y c #fcfe2c",
"#Z c #ccb29c",
"#0 c #e4623c",
"#1 c #7cb6fc",
"#2 c #a4aabc",
"#3 c #ecd2d4",
"#4 c #4c6ab4",
"#5 c #345aac",
"#6 c #b48a5e",
"#7 c #fcfa28",
"#8 c #9c9eac",
"a` c #dce2f4",
"a. c #8c92a4",
"a# c None",
"aa c #3466bc",
"ab c #fc3e0c",
"ac c #94aad8",
"ad c #fcf24c",
"ae c #fc7e4c",
"af c #e45e38",
"ag c #bc9a84",
"ah c #ccced4",
"ai c #cc9e7c",
"aj c #9492a4",
"ak c #446abc",
"al c #448ae0",
"am c #d4d2d8",
"an c #bc7e7f",
"ao c #f4f2f8",
"ap c #7c96d4",
"aq c #a4d6fc",
"ar c #cc7604",
"as c #7c9ed4",
"at c #e49204",
"au c #fc5214",
"av c #fc2e04",
"aw c #fcda04",
"ax c #bceafc",
"ay c #747284",
"az c #5496e4",
"aA c #b4defc",
"aB c #94cafc",
"aC c #c46a04",
"aD c #fcd204",
"aE c #2c7ee4",
"aF c #fcc204",
"aG c #4c72bc",
"aH c #fc6624",
"aI c #3482e4",
"aJ c #7cbefc",
"aK c #c47e04",
"aL c #fc3604",
"aM c #cc766c",
"aN c #acdefc",
"aO c #8cc6fc",
"aP c #9cd2fc",
"aQ c #fcc60c",
"aR c #f4eeec",
"aS c #fce654",
"aT c #9c9aac",
"aU c #8c8ea4",
"aV c #fcfafc",
"aW c #e4cecc",
"aX c #fcee4c",
"aY c #ccb294",
"aZ c #fce24c",
"a0 c #cccad4",
"a1 c #cc9e4c",
"a2 c #54a2fc",
"a3 c #e4d2cc",
"a4 c #fc4614",
"a5 c #5c7ac4",
"a6 c #f4e2dc",
"a7 c #3c5eb4",
"a8 c #4c6abc",
/* pixels */
"a#a#a#a#a#a#a#a#a#a#a#a#a#aVaV`MaVaV`MaVa#a#a#a#a#a#a#a#a#a#a#a#",
"a#a#a#a#a#a#a#a#a#a#a#a#a#a#a#a#a#a#a#a#a#a#a#a#a#a#a#a#a#a#a#a#",
"a#a#a#a#a#a#a#a#a#a#a#a#.Y.Wan.Wanananan.Ya#a#a#a#a#a#a#a#a#a#a#",
"a#a#a#a#a#a#a#a#a#a#a#a##k#0#0af.f.f#p`h`Va#a#a#a#a#a#a#a#a#a#a#",
"a#a#a#a#a#a#a#a#a#a#aVa#`O.n#u.I.r`Bab.R#LaVaVa#a#a#a#a#a#a#a#a#",
"a#a#a#a#a#a#a#a#a#a#a#a#aMae.r#wa4.R.R`F.Oa#a#a#a#a#a#a#a#a#a#a#",
"a#a#a#a#a#a#a#a#a#a##r#h#U.daua4.Rav.R`F`y.S#ba#a#a#a#a#a#a#a#a#",
"a#a#a#a#a#a#a#a#a#a#.H.G#U.d.V`YaLaLaL.R.3am`ja#a#a#a#a#a#a#a#a#",
"a#a#a#a#a#a#a#a#a#a##Ta#.c#c#l#l#l#l#l`b`Ja#aTa#a#a#a#a#a#a#a#a#",
"a#a#a#a#a#a#a#a#a#a##TaVa#`v#3#3#3#3#v`va#a#aTa#a#a#a#a#a#a#a#a#",
"a#a#a#a#a#a#a#a#a#a#`Wa#a#a#a#a#a#a#a#a#a#a#aja#a#a#a#a#a#a#a#a#",
"a#a#a#a#`0aY`4.Q#6#6`s`A.eaRaVa#a#aV`0.t`4`A#d.Q.Q`A.eaRa#a#a#a#",
"a#a#a#a#a3`R.baXaX#`#`aS.7.wa#aVaVa#`U.1.baXaX`oaZaZ#taga#aVa#a#",
"a#a#a#a#a3#H.s#yaw.iaF`a`u#Wa#aVa#a#`va1.sawaD.2aF.maC.0a#a#a#a#",
"a#a#a#aV`g#H#Y#yaw.i`a`aataiaV`0aVaV`U.A#7aw`H.2aFaF`n#xaVaVa#a#",
"a#a#a#a#a6#H#7`HaD.2aF.m`u#Ea#a#a#a##n.A`DaD.i.2.m.m.#`Ea#aVa#a#",
"a#a#a#ah#a#s#Y#yawaD`aaF#m#.ajajajaj`C#C#Yaw`H.iaF.m.8`i`pa#a#a#",
"a#aVa#aU##`m`#aK#Bar#Aar`7.j`I`G#Tah..#H`#aKaKar#A`n`d`f#Sa#a#a#",
"a#aVa#aj`K.a.j.0.0.0.0#x#Za#a#am`pa#a#.T.j.0.0.0.0ag#Za##Ta#a#a#",
"a#aVa#aj`Ia#a#a#a#a#a#a#a#aVa#`I#8a#aVa#a#a#a#a#a#a#a#a##Ta#a#a#",
"a#aVa#`La0a#`MaVa#aVaVa#a#a#a#a0aTa#a#a#a#aVaVa#a#a#a#a#aya#a#a#",
".J.oa8#5.z.o.o#4#Ia#a#`8a5`wa8#G#V.o.oa8#oa#a#`8a5`w.o.o`x.o`wac",
"aa#J#JaN.4aP`c#Ka7aVa#.k.K`Taq#J#JaP`c#R.pa#a#.k.K`T.4aq#J#N#J`N",
"#FaAaq`c#OaBaO#P.pa#a##Q.K`Taq`caBaO#K#M#ea#a##Q.K`T`c#NaBaO`t.6",
"#F#J`c#NaB`t#R`3.pa#a##Q.K#z#N#O`2`t#Ra2.pa#a##Q.KaN#N`PaO#RaJ#j",
"#F`c#NaO#K.B.5#M#Ga#a##Q.K#JaB`2`t.B.5`z.pa#a##Q.K#JaBaO#R#1`S#j",
"#FaAaPaB`taJ#Xa2#ea#a#.k`e#zaP.M`t#X#Xa2#ea#a#.k.FaN`PaO`t#X`S``",
"`X.qal`.`..yaE.g.oa#a#`5.hazal`.aIaE.l`l.oa#a##g.h`Z.E`..y.l.l``",
"a`ap`q`q`q`qasap`8a#a#a#`5ap`q`q`q`qas.Z`8a#a#a#acapas`q`qas#Q#I",
"a#a#a#a#a#a#a#a#a#a#a#a#a#a#a#a#a#a#a#a#a#a#a#a#a#a#a#a#a#a#a#a#",
"a#a#aVa#aVa#aVaVa#a#a#a#aVaVa#aVa#aVa#aVa#a#a#a#a#aVa#aVa#aVaVa#",
"a#a#a#a#a#a#a#a#a#a#a#a#a#a#a#a#a#a#a#a#a#a#a#a#a#a#a#a#a#a#a#a#"
};
