/* XPM */
static char *layeroverlap_xpm[] = {
/* width height num_colors chars_per_pixel */
"    32    32      256            2",
/* colors */
"`` c #04329c",
"`. c #049afc",
"`# c #0c66ac",
"`a c #4c679c",
"`b c #0c82cc",
"`c c #4c82b4",
"`d c #3c4e7c",
"`e c #849ebc",
"`f c #2c66a4",
"`g c #cccecc",
"`h c #144e94",
"`i c #7c8294",
"`j c #0c76bc",
"`k c #2c84c4",
"`l c #e4eaf4",
"`m c #6c6e74",
"`n c #6486af",
"`o c #24397c",
"`p c #2c4e88",
"`q c #bcbbb4",
"`r c #4c78ac",
"`s c #2c76b4",
"`t c #d4deec",
"`u c #1c78bc",
"`v c #1c66aa",
"`w c #0c46a4",
"`x c #1c86dc",
"`y c #5c556c",
"`z c #7486b4",
"`A c #2c92d4",
"`B c #a4a2ab",
"`C c #048eec",
"`D c #548ed4",
"`E c #4c66ac",
"`F c #dcd6cc",
"`G c #045eac",
"`H c #3c82bc",
"`I c #6c8eb4",
"`J c #f4f6f8",
"`K c #2c5aac",
"`L c #4476a9",
"`M c #3c5a94",
"`N c #3c6aa4",
"`O c #047ee4",
"`P c #7492b4",
"`Q c #2450a4",
"`R c #5c76a4",
"`S c #0482e4",
"`T c #c4c7c4",
"`U c #1c72cc",
"`V c #1c4290",
"`W c #0472bc",
"`X c #4c82cc",
"`Y c #84a6d4",
"`Z c #1c6fb4",
"`0 c #4c6fa4",
"`1 c #1485e4",
"`2 c #143984",
"`3 c #54a2e4",
"`4 c #c4d2ec",
"`5 c #24428c",
"`6 c #247ed4",
"`7 c #145aa4",
"`8 c #8496c4",
".` c #2c82d4",
".. c #747e8c",
".# c #6485c4",
".a c #2c7ace",
".b c #e4e2d8",
".c c #1c76d1",
".d c none",
".e c #1476d4",
".f c #7493cc",
".g c #344ea4",
".h c #048af0",
".i c #6c9ad4",
".j c #2c6eac",
".k c #0c4a8c",
".l c #a4aabc",
".m c #448ad4",
".n c #6493d4",
".o c #4c62ac",
".p c #2456ac",
".q c #5c7abc",
".r c #4c72bc",
".s c #7c9abc",
".t c #445a84",
".u c #1c4ea4",
".v c #f4f2ed",
".w c #7c727c",
".x c #5c5e74",
".y c #5496d8",
".z c #e4dad1",
".A c #3c82cc",
".B c #fcf6f4",
".C c #3c7ebc",
".D c #3c62b0",
".E c #3c6ea4",
".F c #ccc6c4",
".G c #4c8ad4",
".H c #94a6cb",
".I c #d4d2dc",
".J c #347ccc",
".K c #e4e6f1",
".L c #2476cc",
".M c #1466ac",
".N c #5c729c",
".O c #8c96a4",
".P c #147ac0",
".Q c #348acc",
".R c #6c86b3",
".S c #c4c2bc",
".T c #547eac",
".U c #2466a4",
".V c #048ef7",
".W c #5c7eac",
".X c #0c82e4",
".Y c #146fb8",
".Z c #2470ae",
".0 c #143ea4",
".1 c #2446a4",
".2 c #1462a8",
".3 c #7c94c6",
".4 c #6c95d0",
".5 c #043e84",
".6 c #5c6a84",
".7 c #5c82ac",
".8 c #9c9ea4",
"#` c #3466a4",
"#. c #4496e4",
"## c #b4aa9c",
"#a c #4c4e6c",
"#b c #748ecc",
"#c c #344a7c",
"#d c #bcc8e0",
"#e c #847a7c",
"#f c #6c6264",
"#g c #949ac4",
"#h c #1c3e74",
"#i c #1c4aa4",
"#j c #7ca2d4",
"#k c #047ecc",
"#l c #9caed4",
"#m c #548abc",
"#n c #243e84",
"#o c #248adc",
"#p c #748eac",
"#q c #0c62ac",
"#r c #44629c",
"#s c #2c4a84",
"#t c #2c8adc",
"#u c #6c8acc",
"#v c #0c4eac",
"#w c #447eb4",
"#x c #0c4aa4",
"#y c #5c8abc",
"#z c #143e8c",
"#A c #6c7285",
"#B c #7c9cd4",
"#C c #0c368c",
"#D c #84858b",
"#E c #ecebe5",
"#F c #348ee4",
"#G c #4466b4",
"#H c #2c4e9c",
"#I c #647aa4",
"#J c #2c7ebc",
"#K c #5c5a71",
"#L c #147edc",
"#M c #d4dae4",
"#N c #4c5674",
"#O c #344e7e",
"#P c #0c8edc",
"#Q c #ccd2dc",
"#R c #447ecc",
"#S c #d4d2ca",
"#T c #3483bf",
"#U c #547aa9",
"#V c #1445a0",
"#W c #2483df",
"#X c #aca6a4",
"#Y c #5c8fce",
"#Z c #0c5ca8",
"#0 c #4486c4",
"#1 c #0c7cdd",
"#2 c #5486cc",
"#3 c #8caadc",
"#4 c #2c4684",
"#5 c #5471b9",
"#6 c #4c5e83",
"#7 c #4485cc",
"#8 c #445eac",
"a` c #446fa7",
"a. c #546a9c",
"a# c #6482bc",
"aa c #c4bbb4",
"ab c #dce2ec",
"ac c #4c6ab4",
"ad c #dcdadc",
"ae c #345eac",
"af c #445e94",
"ag c #5c7ab4",
"ah c #1c469c",
"ai c #546ea4",
"aj c #1c5ea4",
"ak c #e4e4e4",
"al c #749cd4",
"am c #94aad4",
"an c #b4aeac",
"ao c #eceef4",
"ap c #2c52ac",
"aq c #7c92b9",
"ar c #0c8aec",
"as c #346ea7",
"at c #2c56a6",
"au c #5c96d4",
"av c #548acc",
"aw c #1c62a4",
"ax c #144ea4",
"ay c #849ecc",
"az c #0c72bc",
"aA c #3482d4",
"aB c #3c7ecc",
"aC c #647eac",
"aD c #2c3e84",
"aE c #7c8eac",
"aF c #144aa4",
"aG c #0c369c",
"aH c #0c6ab4",
"aI c #2c6aa6",
"aJ c #7c868c",
"aK c #1c6aac",
"aL c #a4a6ac",
"aM c #4c6aa4",
"aN c #dcdad3",
"aO c #6c92bc",
"aP c #f4faf4",
"aQ c #0486ec",
"aR c #4c86d0",
"aS c #2c7ed2",
"aT c #1c7ad4",
"aU c #147ad7",
"aV c #5c7ec4",
"aW c #1c52aa",
"aX c #7c7682",
"aY c #3c86d4",
"aZ c #fcfaf9",
"a0 c #3c72ac",
"a1 c #cccacc",
"a2 c #d4d6dd",
"a3 c #247acf",
"a4 c #146ab1",
"a5 c #147ec4",
"a6 c #246aac",
"a7 c #0492fc",
"a8 c #0c86e9",
/* pixels */
".d.d.d.d.d.d.d.d.d.d.d.d.d.d.d.d.d.d.d.d.d.d.d.d.d.d.d.d.d.d.d.d",
".d#l.gapa2am.1apa2am.1apa2am.1apa2am.1apa2am.1apa2am.1.D.D`8aZ.d",
".day`V#6.8#d.N#6.8#d.N#6.8#d.N#6.8#d.N#6.8#d.N#6.8#d.N.xah`p.z.d",
".d.f`5##.b.d#E.z.baZ#E.z.baZ#E`F.baZ#E`F.baZ#E`F.baZ#E.bag#c#S.d",
".d#u`2`q.d.d.d.d.d.d.d.d.d.d.d.d.d.d.d.d.d.d.d.d.d.d.d.d.B.S#E.d",
".dao`B`T.d.d.daZaZ.Ha.a.aMa.aM`E`aaM`a`E`a`a`a`E`aaf#I.va##baZ.d",
".d#d.H.B.d.daZ.dab`MaE.RaC#U`0a`a`#`#``f.U.U.Ua6a6`s`h`i.D#4.z.d",
".d#u#z#S.d.d.d.d#Maf`e.R`n.7#U`r.Ea0as.j.ja6.Z.Z.Z#Jaj#K`0#O#S.d",
".d#b`2`q.d.d.d.d#M`Maq`n.W#U`L.EasaI.U`v`v`vaKaK`Z`u`7#N#S.Fak.d",
".dao`B`T.d.d.d.d#M`M`IaC.T`r.Eas`f.Uaw`v.MaKa4.Y`Z`u#Z`y`0.3aZ.d",
".d#d.H.B.d.daZ.d#M`M`I.T`r`LasaI.U`v`va4aKa4.Y.Y.Y.P#Z#K#H`p.z.d",
".d#u#z#S.d.d.d.d.I#H`n`r`L#`aIaw.2.2#q#q`#aHaH.Y.Ya5#Z#K`0`d#S.d",
".d#b`2`q.d.d.d.d.K`R.saO#y#m`c.C.C.C`H#T#T#T`k`Waza5#Z#a#S`Tak.d",
".dao.8`g#Q#5#5#5acat`K`Kat.p.p`QaW`QaW.u.p.u#0`k`W`b#Z`yaM`8aZ.d",
".d#d.H.d#5.3`Y.f.n#uaR`X#R.C.J.J.aaSaSaS#t.Lax.Q`W`b`G`yat#saN.d",
".d#u#z`F#5`Y#3#B.i#Y#m#7.A.JaSa3a3aT`6`x#W#W#i`A#k#P`G`yaM#O`F.d",
".d#b`2`q#5#B#j.n#Yav#7aB.J.L.L`U.eaT#LaT`x#1aha`.5.k`o`m#S.F.b.d",
".dao.8a1#5.4al.n`D#7aB.a.L`U.e.eaUaU#L#L`1#L#n#f.w.w#e.S.W.3aZ.d",
".d#d.H.dac.4.i#YaRaB.a.L`U.e.e.eaU#1#L.X`1a8aDaL`J`J`J.d.D`5.z.d",
".d#u#z`Fac.n.n`D#7.Ja3`U.e.e.e.e#1#1.X.Xar.X#han.d.d.d.da##c#S.d",
".d#b`2aaaM#Yau.GaYaS.c.c.e.e#1#1`O#1`S`Sara8aD##.d.d.d.d.B.Sak.d",
".dao.8`g`E#Yau.m.Q.aaT.eaU#1#1`O`O`O`SaQ`CaQ`oan.d.daZ.da#aq.d.d",
".d#d.HaZ.o`D.y.maAa3aUaUaU#1#1`O`O`OaQaQ`C.h`oan.d.daZ.d.D`5.z.d",
".d#u#z`F.o`D`3#.#F`x`x`1a8a8.h.h.h`C.Va7`..V`o##.d.d.d.da##O#S.d",
".d#b`2aa#g#Hat`Q#iah#VaF`w#V`w`w`w`w#x#x#v`w#a`q.d.d.d.d.B.Sak.d",
".dao.8`T`J`BaX.waXaXaXaXaXaXaX.w.w.waX.w.waX`B.b.d.d.d.da#.3aZ.d",
".d#d#l.B.d.d`J.daZaP`J.daZaP`J.d.daP`J.daZ`J`J.d.d.d.d.d#G`5.z.d",
".d#u`2`T`l`J.d`l`l`J.d`l`l`J.d`lak`J.d`l`l`J.d`l.K`JaZ`l.r#O`F.d",
".d#b#C#V```z#Q#C``.R.I#C```z#Q#C```z#Q#C``.R.I#C```z#QaG.0.t`F.d",
".d.K.O..#A#Dad.l#A#D#M.l#A#DaN.l#A#D#M.l#A#DaN.l#A#Dad.l#AaJak.d",
".d.d.B.v.vaoaZ.d.v.vaZ.d.vaoaZ.d.vaoaZ.d.vaoaZ.d.vao.d.d.vaoaZ.d",
".d.d.d.d.d.d.d.d.d.d.d.d.d.d.d.d.d.d.d.d.d.d.d.d.d.d.d.d.d.d.d.d"
};
