/* XPM */
static char *mapalgebra_xpm[] = {
/* width height num_colors chars_per_pixel */
"    32    32      256            2",
/* colors */
"`` c #042284",
"`. c #7c96c4",
"`# c #f4ce04",
"`a c #a46a04",
"`b c #2c56b4",
"`c c #c49604",
"`d c #c4cad4",
"`e c #043a9c",
"`f c #545a64",
"`g c #8caadc",
"`h c #bcb29c",
"`i c #dce6f4",
"`j c #34425c",
"`k c #dcb204",
"`l c #6c6e84",
"`m c #3466b4",
"`n c #9c927c",
"`o c #f4f6f4",
"`p c #fce64c",
"`q c #144aa4",
"`r c #d4a604",
"`s c #646e7c",
"`t c #3c4e8c",
"`u c #ecbe04",
"`v c #042e84",
"`w c #dcdad4",
"`x c #1c3a7c",
"`y c #b4aa9c",
"`z c #243e74",
"`A c #84a2d4",
"`B c #fcd62c",
"`C c #3c62ac",
"`D c #84868c",
"`E c #2c4674",
"`F c #b48204",
"`G c #eceeec",
"`H c #5472a4",
"`I c #949aa4",
"`J c #2c5ebc",
"`K c #0c3684",
"`L c #2c4274",
"`M c #7c9ecc",
"`N c #0c429c",
"`O c #9cb2dc",
"`P c #d4b23c",
"`Q c #7c7e84",
"`R c #446ab4",
"`S c None",
"`T c #cca62c",
"`U c #5c7294",
"`V c #bc8a04",
"`W c #fcde24",
"`X c #d4a204",
"`Y c #d4d2cc",
"`Z c #0c3e9c",
"`0 c #94b2dc",
"`1 c #74767c",
"`2 c #3c6ebc",
"`3 c #a49e94",
"`4 c #fcf6ec",
"`5 c #ecc634",
"`6 c #dce2f4",
"`7 c #244284",
"`8 c #ecf2fc",
".` c #fcce0c",
".. c #c49624",
".# c #94aad4",
".a c #e4ba04",
".b c #6c728c",
".c c #3c66bc",
".d c #fcf26c",
".e c #ecc604",
".f c #042e9c",
".g c #e4e2dc",
".h c #1c428c",
".i c #b4bedc",
".j c #244274",
".k c #fcde34",
".l c #3462b4",
".m c #d4ae34",
".n c #c48a04",
".o c #dcd2cc",
".p c #a4a69c",
".q c #fcfafc",
".r c #042a84",
".s c #7c9acc",
".t c #2c5aac",
".u c #cc9604",
".v c #043ea4",
".w c #64666c",
".x c #e4e6ec",
".y c #dcb61c",
".z c #6c727c",
".A c #647284",
".B c #04328c",
".C c #e4decc",
".D c #1c3e74",
".E c #b4b2a4",
".F c #748ebc",
".G c #f4eee4",
".H c #043694",
".I c #849ec4",
".J c #5c769c",
".K c #fcfaf4",
".L c #94aedc",
".M c #dcd6c4",
".N c #aca69c",
".O c #042294",
".P c #7c96cc",
".Q c #f4ce0c",
".R c #ac7a04",
".S c #043aa4",
".T c #545e7c",
".U c #bcc2c4",
".V c #e4b604",
".W c #3466bc",
".X c #fcea44",
".Y c #1c4ea4",
".Z c #dcae04",
".0 c #646e84",
".1 c #ecc204",
".2 c #042e8c",
".3 c #dcdadc",
".4 c #243e7c",
".5 c #8ca6d4",
".6 c #fcda2c",
".7 c #445e9c",
".8 c #848a9c",
"#` c #2c467c",
"#. c #dcba24",
"## c #547abc",
"#a c #b48e1c",
"#b c #fcfa7c",
"#c c #bc8604",
"#d c #d4aa2c",
"#e c #fce244",
"#f c #b4b6b4",
"#g c #f4f2f4",
"#h c #f4c604",
"#i c #849ed4",
"#j c #fcd214",
"#k c #e4eaf4",
"#l c #f4f2ec",
"#m c #2c62bc",
"#n c #3c6abc",
"#o c #c48e04",
"#p c #cc9a04",
"#q c #2c427c",
"#r c #5c729c",
"#s c #0c3ea4",
"#t c #fcf6f4",
"#u c #94aadc",
"#v c #24427c",
"#w c #3462bc",
"#x c #d4ae3c",
"#y c #2c5ab4",
"#z c #6c7284",
"#A c #1c3e7c",
"#B c #04369c",
"#C c #dcd6cc",
"#D c #aca6a4",
"#E c #000000",
"#F c #000000",
"#G c #000000",
"#H c #000000",
"#I c #000000",
"#J c #000000",
"#K c #000000",
"#L c #000000",
"#M c #000000",
"#N c #000000",
"#O c #000000",
"#P c #000000",
"#Q c #000000",
"#R c #000000",
"#S c #000000",
"#T c #000000",
"#U c #000000",
"#V c #000000",
"#W c #000000",
"#X c #000000",
"#Y c #000000",
"#Z c #000000",
"#0 c #000000",
"#1 c #000000",
"#2 c #000000",
"#3 c #000000",
"#4 c #000000",
"#5 c #000000",
"#6 c #000000",
"#7 c #000000",
"#8 c #000000",
"a` c #000000",
"a. c #000000",
"a# c #000000",
"aa c #000000",
"ab c #000000",
"ac c #000000",
"ad c #000000",
"ae c #000000",
"af c #000000",
"ag c #000000",
"ah c #000000",
"ai c #000000",
"aj c #000000",
"ak c #000000",
"al c #000000",
"am c #000000",
"an c #000000",
"ao c #000000",
"ap c #000000",
"aq c #000000",
"ar c #000000",
"as c #000000",
"at c #000000",
"au c #000000",
"av c #000000",
"aw c #000000",
"ax c #000000",
"ay c #000000",
"az c #000000",
"aA c #000000",
"aB c #000000",
"aC c #000000",
"aD c #000000",
"aE c #000000",
"aF c #000000",
"aG c #000000",
"aH c #000000",
"aI c #000000",
"aJ c #000000",
"aK c #000000",
"aL c #000000",
"aM c #000000",
"aN c #000000",
"aO c #000000",
"aP c #000000",
"aQ c #000000",
"aR c #000000",
"aS c #000000",
"aT c #000000",
"aU c #000000",
"aV c #000000",
"aW c #000000",
"aX c #000000",
"aY c #000000",
"aZ c #000000",
"a0 c #000000",
"a1 c #000000",
"a2 c #000000",
"a3 c #000000",
"a4 c #000000",
"a5 c #000000",
"a6 c #000000",
"a7 c #000000",
"a8 c #000000",
/* pixels */
"`S`S`S`S`S`S`S`S`S`S`S`S`S`S`S`S`S`S`S`S`S`S`S`S`S`S`S`S`S`S`S`S",
"`S`S`S`S##.F.q.q`S`S`S`S`S`S`S`S`S`S`S`S`S`S`S.q`S`O`C.G`S`S`S`S",
"`S`S`S`S#w#v.C`S`S`S`S`S`S`S`S`S`S`S`S`S`S`S`S`S`S#u``.E`S`S`S`S",
"`S#g`i`i.c`7.U.x`i.x#k`i.x`i.x#k`i.x#k`i.x#k`i`6#k`M.B`I`i#g`S`S",
"`S.P.O.S`Z`e.v#B#B#B#B.S#B.S#B#B#B#B#B.S#B#B#B#B#B.v`e#s.f`H.G`S",
"`S`i.8.z.Y`x.w.A.A.b.0.A.0.0.A.A#z.A.A#z.0.A.A.A`1.7.B`f.0`Q.3`S",
"`S`S#t`4.W.j`S`S`S`S`S#z`S`S`S`S`S`S`S#z`S`S`S`S`S.5.r`3#g#g.q`S",
"`S`S`S`S.c#v`S`S`S`S`S#z`S`S`S`S`S`S`S#z`S`S`S`S`S#u.r.p`S`S`S`S",
"`S`S.q`S.c#q`S`S`S`S`S#z`S`S`S`S`S`S`S#z`S`S`S`S`S`g.r#D`S`S`S`S",
"`S`S`S`S.c.j`S`S`S`S`S#z`S`S`S`S`S`S`S#z`S`S`S`S`S#u.r.p`S`S`S`S",
"`S`S`S`S.c#A`S`S`S`S`S#z`S`S`S`S`S`S`S#z.q`S`S`S`S.L.r#D`S`S`S`S",
"`S`S`S`S.J#a#x`P.m#d`T..#z#z#z#z#z#z#z.A#z#z#z#z#z.s.r.p`S`S`S`S",
"`S`S`S`S.J`5#b`p.6.`#h.u`S`S`S`S`S`S`S#z`S`S`S`S`S`A.r#D`S`S`S`S",
"`S`S`S`S`U#..d#e.6.`.1`c`S`S`S`S`S`S`S#z`S`S`S.q`S.L.r.p`S`S`S`S",
"`S`S`S`S`U.y`p`B#j.e`u#o`S`S`S`S`S`S`S#z`S`S`S`S`S#u.r#D`S`S`S`S",
"`S`S`S`S#r.Z`W.`#h.a.Z`V`S`S`S`S`S`S`S#z`S`S`S`S`S`g.r.p`S`S`S`S",
"`S`S`S`S.J`X.``u.a.Z`r`F`S`S`S`S`S`S`S#z`S`S`S`S`S#u.r.p`S`S`S`S",
"`S`S`S`S#r#p`u.V.Z`X#p.R`S`S`S`S`S`S`S#z`S`S`S`S`S.L.r#D`S`S`S`S",
"`S`S`S`S.J.n`c`V#c`F.R`a#z#z#z#z#z#z#z#z#z#z#z#z#z`M.r.p`S`S`S`S",
"`S`S`S`S`R`j`S`S`S`S`S#z`S`S`S`S`S`S`S#z`S`S`S`S`S#i.r.p`S`S`S`S",
"`S`S`S`S.c#A`S`S`S`S`S#z`S`S`S`S`S`S`S#z`S`S`S`S`S`g.r#D`S`S`S`S",
"`S`S`S`S#n#q`S`S`S`S`S#z`S`S`S`S`S`S`S#z`S`S`S`S`S.L.r.p`S`S`S`S",
"`S`S`S`S.c#v`S`S`S`S`S#z`S`S`S`S`S`S`S#z`S`S`S`S`S`g.r#D`S`S`S`S",
"`S`S.q`S.c#v`S`S`S`S`S#z`S`S`S`S`S`S`S#z`S`S`S`S`S#u.r.p`S.q`S`S",
"`S`S`S`S#n`L`S`S`S`S`S#z`S`S`S`S`S`S`S#z`S`S`S`S`S`0``#D`S`S`S`S",
"`S#u`b`2.Y#s.l#n.c#n.c#w#w#n.c#n.c#n.W#w.c#n.c#n.c#y`e.t#w.I.K`S",
"`S.i`t`L`Z`K`L#v#v#v#v`E#v#v#v#v#v#v#q#v.j#v#v#v`L.h#B.j.4.T`w`S",
"`S`S.g.M.W`L`h#C.o.o`Y.o`Y.o.o.o.o`Y.M.o`Y.M.o`Y.C`..B`n`Y`Y#g`S",
"`S`S`S`S#w`x#C`S`S`S`S`S`S`S`S`S`S`S`S`S`S`S`S`S`S`g``.p`S`S`S`S",
"`S`S`S`S`d`D.3`S`S`S`S`S`S`S`S`S`S`S`S`S`S`S`S`S`S.x.8#f`S.q`S`S",
"`S`S`S`S`S#g`o`S`S`S`S`S`S`S`S`S`S`S`S`S`S`S`S`S`S`S#t`o`S`S`S`S",
"`S`S`S`S`S`S`S`S`S`S`S`S`S`S`S`S`S`S`S`S`S`S`S`S`S`S`S`S`S`S`S`S"
};
