/* XPM */
static char *parallelcoor_xpm[] = {
/* width height num_colors chars_per_pixel */
"    32    32      256            2",
/* colors */
"`` c #045604",
"`. c #248e04",
"`# c #c48e04",
"`a c #8cce84",
"`b c #e4ce84",
"`c c #945204",
"`d c #cce6dc",
"`e c #eceacc",
"`f c #0446c4",
"`g c #1496f4",
"`h c #a4d2d4",
"`i c #94928c",
"`j c #acdadc",
"`k c #9c5a04",
"`l c #646684",
"`m c #dcfafc",
"`n c #ecf6fc",
"`o c #fc5a04",
"`p c #44ae14",
"`q c #e4e6d4",
"`r c #5ca2dc",
"`s c #ccb284",
"`t c #cccac4",
"`u c #c4d2cc",
"`v c #c48604",
"`w c #046ad0",
"`x c #5c5e6c",
"`y c #74baf4",
"`z c #ecdadc",
"`A c #8cbef4",
"`B c #bcdedc",
"`C c #449634",
"`D c #eceeed",
"`E c #dce6f4",
"`F c #047204",
"`G c #6c7691",
"`H c #bca674",
"`I c #0486ec",
"`J c #a4b6dc",
"`K c #ccdef4",
"`L c #bce2dc",
"`M c #dceefc",
"`N c #a4cefc",
"`O c #fcfaec",
"`P c #fc7604",
"`Q c #acc2e4",
"`R c #fc8e40",
"`S c #5cb234",
"`T c #bccae8",
"`U c #84d2fc",
"`V c #fc762c",
"`W c #fc1a04",
"`X c #d4eedc",
"`Y c #fc6e10",
"`Z c #74befc",
"`0 c #247a2c",
"`1 c #6c7e9c",
"`2 c #bcd2ec",
"`3 c #fce6dc",
"`4 c #ecfefc",
"`5 c #74b2ec",
"`6 c #fcae94",
"`7 c #0472e0",
"`8 c #4ca63c",
".` c #fc3a04",
".. c #34a20c",
".# c #bcdaf9",
".a c #f4eeec",
".b c #7c828c",
".c c #6cbe4c",
".d c #045ad4",
".e c #4cbafc",
".f c #848ab4",
".g c #f4f6fa",
".h c #ccc6d4",
".i c #ccd2d4",
".j c #84baec",
".k c #f4e2d4",
".l c #e4e6ec",
".m c #7c7a84",
".n c #b4bac4",
".o c #dcded4",
".p c #e4eefb",
".q c #acd2f4",
".r c #fc8244",
".s c #5caa3c",
".t c #fc4a04",
".u c #046604",
".v c #3c9234",
".w c #bca26c",
".x c #cce6fc",
".y c #f4eedc",
".z c #4496dc",
".A c #b4d6cc",
".B c #646e8c",
".C c #fc6234",
".D c #ccbe84",
".E c #046ae0",
".F c #7cb6ec",
".G c #e4e2d8",
".H c #747984",
".I c #2486dc",
".J c #bce2fc",
".K c #b4c2de",
".L c #f48e74",
".M c #bccbf4",
".N c #1c8a04",
".O c #54aa44",
".P c #c4daf4",
".Q c #1c9604",
".R c #c49e34",
".S c #ace2ac",
".T c #f4de84",
".U c #ece6dc",
".V c #2c8ee4",
".W c #acd6d8",
".X c #b4e2f4",
".Y c #b47604",
".Z c #e4fefc",
".0 c #8492ac",
".1 c #6c6a74",
".2 c #eceefc",
".3 c #147e04",
".4 c #fc7e14",
".5 c #fc9649",
".6 c #64ba4c",
".7 c #cceefc",
".8 c #fc6a34",
"#` c #c4d2e4",
"#. c #d4ae2c",
"## c #8ca6d4",
"#a c #fc3604",
"#b c #dc9e04",
"#c c #b4862c",
"#d c #2c8834",
"#e c #84a2cc",
"#f c #746674",
"#g c #f4be8c",
"#h c #e4ba2c",
"#i c #f4caa4",
"#j c #948694",
"#k c #fc522c",
"#l c #2c96fc",
"#m c #9c9e9c",
"#n c #dcf2dc",
"#o c #9cd68c",
"#p c #d49604",
"#q c #dcc684",
"#r c #0462d4",
"#s c #b4ccec",
"#t c #7c82ac",
"#u c #84b2f4",
"#v c #1476d4",
"#w c #dcd6c4",
"#x c #44b604",
"#y c #0452cc",
"#z c #fc660c",
"#A c #2c9a0c",
"#B c #fc7e44",
"#C c #b4bedc",
"#D c #849ac4",
"#E c #2c8ae4",
"#F c #4c9e3c",
"#G c #cce2f4",
"#H c #3caa14",
"#I c #0c7a04",
"#J c #6cc644",
"#K c #d4c684",
"#L c #4cb61c",
"#M c #fc7a18",
"#N c #dcdaec",
"#O c #d4eaec",
"#P c #acbacc",
"#Q c #7caee4",
"#R c #d4d2cc",
"#S c #2c82ec",
"#T c #8cc6fc",
"#U c #fceed4",
"#V c #6c727c",
"#W c #fc723c",
"#X c #045e04",
"#Y c #fc4204",
"#Z c #fc8a44",
"#0 c #fc5204",
"#1 c #046e04",
"#2 c #b47e04",
"#3 c #148604",
"#4 c #d4daec",
"#5 c #7cbef4",
"#6 c #54a23c",
"#7 c #b4d2f4",
"#8 c #6c7284",
"a` c #b4dea4",
"a. c #f4e6dc",
"a# c #e4ca94",
"aa c #b4dbdc",
"ab c #e4f7fc",
"ac c #0482fc",
"ad c #c4e5dc",
"ae c none",
"af c #5cb444",
"ag c #2c7e2c",
"ah c #e4eafc",
"ai c #b4b9d4",
"aj c #d4eafc",
"ak c #7cbafc",
"al c #b4c6ec",
"am c #d4effc",
"an c #c4d6f4",
"ao c #7cb2f4",
"ap c #ece2dc",
"aq c #e4e6e4",
"ar c #c4dedc",
"as c #fc763c",
"at c #f4fefc",
"au c #c4e2fc",
"av c #6cc654",
"aw c #ecfafc",
"ax c #fc5e0c",
"ay c #ecf2ec",
"az c #dceafb",
"aA c #6c7a94",
"aB c #bcceec",
"aC c #bcd6f4",
"aD c #bcdef4",
"aE c #f4f2ed",
"aF c #045ecc",
"aG c #f4fafc",
"aH c #e4f2fc",
"aI c #046edc",
"aJ c #7cbaf0",
"aK c #b4c6e4",
"aL c #c4defc",
"aM c #2c9af4",
"aN c #0466dc",
"aO c #dcdee4",
"aP c #d4d6c4",
"aQ c #7cc2fc",
"aR c #54a640",
"aS c #b4d6fc",
"aT c #f4eae4",
"aU c #249204",
"aV c #a4d6d4",
"aW c #646a84",
"aX c #ccb684",
"aY c #cccec4",
"aZ c #ecdedc",
"a0 c #dcf2fc",
"a1 c #fceadc",
"a2 c #e4eaec",
"a3 c #fc8644",
"a4 c #fc4e04",
"a5 c #046a04",
"a6 c #cceafc",
"a7 c #64728c",
"a8 c #fc6634",
/* pixels */
"aeaeaeaeaeaeaeaeaeaeaeaeaeaeaeaeaeaeaeaeaeaeaeaeaeaeaeaeaeaeaeae",
"aeae`n`Kau`KaLaL.P.P.P.PananaCan`2an`2#`aBaBaBaB`TaB`T#4aeaeaeae",
"ae.g`Nauazaj`Mazazazazazazazazazaz`E`E`Eaz`E`E`E`E`E`K###P`Oaeae",
"aeaS.xam.7am.7.7amama0`ma0a0a0aHabab`maHabababababawataz#e.n.gae",
"ae.#ab.X`h.Wa6ajamamamazama0`Ma0`M`M`MaHa0aHaHa0aHar.Aabal.b.aae",
"aeaCab`h```0a0.7`M`M`Ma0a0`Ma0a0a0aHa0aHaHa0aH`Mawag#X`d.M.H.aae",
"aeaCaw`h.uag`majam`Mam`M`Ma0aHaHaHa0aHaHabaHawaeat.v#I`X#s.H`Dae",
"aeaSaw.Wa5#dabaHa0`Ma0a0`naba0aHa0aHabaHaHaw.q`raSaR.N`X#s.H.aae",
"ae`2aw.W#1`C.j`w.jawabaD#v.z`naHabaHaHab.pae#Q`f#u`S.Q#n#s.H`Dae",
"ae#7awaa`F#Fao#y`5aw.paDaF.I`n`MaHab`naHaHae.F.d#5a``aawal.H.aae",
"ae`2awaa#I`8aJ#r`y`4.ZaDaI.V`4`4awaH`n`n`4aeaJ.E#5aeaGaeal.H.aae",
"ae#saGaa.3#6akaN`Z`6.L#``7aM#w.w#Raw`na2`Ha##5.EaQaeaHat#s.H`Dae",
"ae#7aG`L#3.s#T`I`U#k`W.h`g.e`s`c`s`4aw.o`k#ca0.Ja0aG`naeaK.H.aae",
"ae#saG`B.N`8ab`nab.C#a`zawat.D.Y#Katat`q#2.RataeaG.gawaeal.H`Dae",
"ae#saG`LaU.OaHa0`ma8#a`zabaw#K`v`ba6aL`q`##.at`naGaG`nae`T.H.aae",
"ae#saG`L#AafaHa0ab.8#Y`zab`4#q#p.T#S.d`u#b#hat.gaGaG.gaeaK.H`Dae",
"ae#saG`L..afabaHab#W.taZ.Z`na2`eaE#E`waL.y`eaGaGataGaGae`T.H.aae",
"ae#saGad#H.6ab.p`mas#0aZaw`nawawae.VaIa6aeataGaGaGaGaGae.K.H`Dae",
"ae#sawad#H.cabaHab.r`oaZ`4`n`n`nae#laca6aeaGaeaGaeae.gae.K.H.aae",
"ae`QaGad#Lav`naHaba3#zapaw`n`n`nat#j#f.laeaGaeaeaeaeaeae.K.H`Dae",
"aealaGad#x#JabaHab`R`Y.k`4`naG.gat`Va4.kaeaGae.gae.gaeae#C.H.aae",
"ae`QaG.7#o.SaHabab.5#Map`4`n`naG`4.r`oa.aeaeaeaeaeaeaeae#C#8.aae",
"aealawa0`n`naHaHab`R`Pa.aw`naGaGata3#z`3ataeaeaeaeaeaeae#C#8aEae",
"ae`Q.ga0a0aHab`n`n#i#g`Daw.gaw.gat`R`Ya1aeaeaeaeaeae.gaeai.H.aae",
"ae`Q`na0aHaHaHababab`4aw.gawaGaGat.5#Ma1aeaeaeaeaeaeaeaeai#8.aae",
"ae.K`na0aHaHabaH`n`n`n`n`naGawaGat.5.4a1aeaeaeaeaeaeaeaeai#VaEae",
"ae`Q.ga0aHa0aH`naH`n`n`n`naG.gaGaGa1a.aeae.gaeaeaeae.gaeai#V.aae",
"ae`J`2awabab`n`naw`naGaGataGatataeaeaeaeaeaeaeaeaeaeae.2#t.m`Dae",
"aeaO#D#sajajazajaz`Maz`M`M.p.p.p.p.pah.2.2.2.2.2ah.2#N.f`x#m.gae",
"aeae.i.0`1aAaAaAaAaAaAaAaA`GaAa7`Ga7`G.B.BaWaW`l`l`l`l`l`i.Uaeae",
"aeaeaeaO`t`t`t.h`t`t.h`t`t`t`t`t`t`t`t`t`t`t`t`taY`t`t#R`Daeaeae",
"aeaeaeaeaeaeaeaeaeaeaeaeaeaeaeaeaeaeaeaeaeaeaeaeaeaeaeaeaeaeaeae"
};
