/* XPM */
static char *probablitytree_xpm[] = {
/* width height num_colors chars_per_pixel */
"    32    32      256            2",
/* colors */
"`` c #142674",
"`. c #5c96d4",
"`# c #145ebc",
"`a c #5c5e7c",
"`b c #047ae4",
"`c c #b4aeac",
"`d c #2c7ed4",
"`e c #343274",
"`f c #949694",
"`g c #5486cc",
"`h c #d4dee4",
"`i c #0c429c",
"`j c #048aec",
"`k c #7c7a84",
"`l c #2c8ee4",
"`m c #1c7ad4",
"`n c #2c62b4",
"`o c #345294",
"`p c #acaeac",
"`q c #1c2674",
"`r c #749ed4",
"`s c #0482e4",
"`t c #c4c6c4",
"`u c #447ecc",
"`v c #eceee4",
"`w c #9496cc",
"`x c #7c92c4",
"`y c #2c82d4",
"`z c #0476dc",
"`A c #548ad4",
"`B c #24429c",
"`C c #2c76cc",
"`D c #4c4e7c",
"`E c #1c367c",
"`F c #74a2d4",
"`G c #746a74",
"`H c #147ad4",
"`I c #3c3e84",
"`J c #e4e6f4",
"`K c #d4d2c4",
"`L c #8c8a9c",
"`M c #3c82cc",
"`N c #bcbacc",
"`O c #4466b4",
"`P c #1482dc",
"`Q c #fcfaf4",
"`R c #a4a6d4",
"`S c #1c76cc",
"`T c #4c4e8c",
"`U c #043694",
"`V c #aca6a4",
"`W c #448ad4",
"`X c #1c2e74",
"`Y c #8c8ab4",
"`Z c #5ca6e4",
"`0 c #646684",
"`1 c #0c7adc",
"`2 c #b4b2c4",
"`3 c #6c7aac",
"`4 c #7c7aac",
"`5 c #1c82dc",
"`6 c #3c62ac",
"`7 c #0c82dc",
"`8 c #949ebc",
".` c #3482d4",
".. c #2c4ea4",
".# c #84a2d4",
".a c #6c96d4",
".b c #e4e2f4",
".c c #0c56b4",
".d c #247acc",
".e c #8496c4",
".f c #1472d4",
".g c #648ecc",
".h c #444284",
".i c #ccd2e4",
".j c #143e9c",
".k c #4c92dc",
".l c #2c2e6c",
".m c #649edc",
".n c #545e9c",
".o c #347acc",
".p c #343a6c",
".q c #9c9e9c",
".r c #647eb4",
".s c #dce2f4",
".t c #1c429c",
".u c #248ae4",
".v c #a4b6dc",
".w c #c4c6dc",
".x c #4486d4",
".y c #f4f6ec",
".z c #2c86d4",
".A c #244aa4",
".B c #545a7c",
".C c #2c3e84",
".D c #6c669c",
".E c #eceaec",
".F c #949294",
".G c #fcfef4",
".H c #545684",
".I c #0c3694",
".J c #4c8acc",
".K c #9c9ed4",
".L c #6496d4",
".M c #1c5eb4",
".N c #047edc",
".O c #b4b6bc",
".P c #34367c",
".Q c #9c9aa4",
".R c #dcdad4",
".S c #1446a4",
".T c #0492f4",
".U c #84828c",
".V c #3466bc",
".W c #345aac",
".X c #0486ec",
".Y c #cccacc",
".Z c #0c72d4",
".0 c #5492d4",
".1 c #2c4694",
".2 c #4c76bc",
".3 c #5c4e64",
".4 c #1c3694",
".5 c #7ca2d4",
".6 c #74727c",
".7 c #147edc",
".8 c #344694",
"#` c #8c8e94",
"#. c #043294",
"## c #3c6ebc",
"#a c #c4c2bc",
"#b c #9492bc",
"#c c #8482b4",
"#d c #6486c4",
"#e c #3456ac",
"#f c #5c5a8c",
"#g c #2c56ac",
"#h c #84aad4",
"#i c #a4bee4",
"#j c #348adc",
"#k c #345eac",
"#l c #847eb4",
"#m c #d4d2e4",
"#n c #7c9ad4",
"#o c #4c82cc",
"#p c #d4d6d4",
"#q c #4c6ab4",
"#r c #acaad4",
"#s c #646294",
"#t c #b4b2d4",
"#u c #5c629c",
"#v c #6482c4",
"#w c #545a94",
"#x c #2476cc",
"#y c #9c9ec4",
"#z c #4c86cc",
"#A c #9496a4",
"#B c #0c8aec",
"#C c #9c96cc",
"#D c #8492c4",
"#E c #544e7c",
"#F c #747aac",
"#G c #f4f6fc",
"#H c #5c92d4",
"#I c #b4b2b4",
"#J c #1c7edc",
"#K c #1c3a84",
"#L c #746e7c",
"#M c #3c427c",
"#N c #3c86d4",
"#O c #1486e4",
"#P c #043a9c",
"#Q c #acaaa4",
"#R c #1c327c",
"#S c #8c8ebc",
"#T c #0c7edc",
"#U c #b4b6cc",
"#V c #3c66b4",
"#W c #0c86e4",
"#X c #247ed4",
"#Y c #849acc",
"#Z c #6492d4",
"#0 c #44467c",
"#1 c #347ecc",
"#2 c #4c8ed4",
"#3 c #1c62bc",
"#4 c #d4d6ec",
"#5 c #1c2a74",
"#6 c #24469c",
"#7 c #e4eaf4",
"#8 c #3486d4",
"a` c #1476d4",
"a. c #a4badc",
"a# c #0c3a94",
"aa c #649ad4",
"ab c #5c5e84",
"ac c #34327c",
"ad c #0c42a4",
"ae c #7c7a8c",
"af c #0482ec",
"ag c #c4c6cc",
"ah c #2c82dc",
"ai c #0476e4",
"aj c #74a2dc",
"ak c #147adc",
"al c #3c82d4",
"am c #fcfafc",
"an c #1c76d4",
"ao c #1c2e7c",
"ap c #3c62b4",
"aq c #0c82e4",
"ar c #949ec4",
"as c #247ad4",
"at c #8496cc",
"au c #2c2e74",
"av c #f4f6f4",
"aw c #2c86dc",
"ax c #eceaf4",
"ay c none",
"az c #4c8ad4",
"aA c #047ee4",
"aB c #dcdadc",
"aC c #8c8e9c",
"aD c #84aadc",
"aE c #acaaac",
"aF c #0c7ee4",
"aG c #347ed4",
"aH c #000000",
"aI c #000000",
"aJ c #000000",
"aK c #000000",
"aL c #000000",
"aM c #000000",
"aN c #000000",
"aO c #000000",
"aP c #000000",
"aQ c #000000",
"aR c #000000",
"aS c #000000",
"aT c #000000",
"aU c #000000",
"aV c #000000",
"aW c #000000",
"aX c #000000",
"aY c #000000",
"aZ c #000000",
"a0 c #000000",
"a1 c #000000",
"a2 c #000000",
"a3 c #000000",
"a4 c #000000",
"a5 c #000000",
"a6 c #000000",
"a7 c #000000",
"a8 c #000000",
/* pixels */
"ayayayayayayayayayayayayayayayayayayayayamamamamamamamamamamayay",
"ayayayayayayayayayayayayayayayayayayayayayayayayayayayayayayayay",
"ayayayayayayayayayayayayayayayayayayama.`xat#Y#Y#Yat#Y.e`w`x.iay",
"ayayayayayayayayayayayayayayayayayay.s#e#v.2##.V`n.M.M`#.M.c`oaB",
"ayayayayayayayayayayayayayayayayayaxar`O#i`F.L`A`W#8.`aw`law`E`c",
"ayayayayayayayayayayayayayayayay`J#r.napaD#H#z.`#x`Sa``H.7ak`EaE",
"ayayayayayayayayayayayayayayayay#t`4#w.Waj.Jal#x`Sa`ak`1#O`1#RaE",
"`x#q`O`O`O`O#V`O`6ap.W`3axayayay`4#f.h.W.m.x`d`Sa``1`1#T#W`bao`p",
".A.#`r.g#o`u.o`C`C`C`yadaCayay#b.P.U.B#g.m#N#Xa``H`1.NaA.X`s#5aE",
".W.#.5#H.J`M`C.d#J#J.u.S#S#m#yac`L`K`2.A`Z#j#X`P#Waq.X`j.Taf```p",
"..`r.L.J`M#xana``H.7#O`i#C.K`Dae#aay`J.1.t.ja#.I`U`U`U#.#P#..p#I",
".A.a.0al.dana``H`1`7#Oad.D#F#s.qavayay.Y`k#L.6#L#L#L#L#L`G#L.F.R",
"#6#Z#2aG`Sa``1`1.NaF`j`i#Eab.l`cayayayay`Qavavavavavavavavavavam",
"#6`..k`y.7.7`7aF`s.X.Tad.3`f.l#A`Qayayayayayayayayayayayayayayay",
".4`u#8an.f.Z`z`zai`baf`U`G.y`4`D`vayayayayayayayayayayayayayayay",
"`3.Cao`X#5#5``#5``#5``.p#`ay.w`e.Yayayayayayayayayayayayayayayay",
"av#a`V#Q#Q#Q#Q#Q#Q`V#Q`p#payav.h`Layayamamamamamamamamamamamayay",
"ayayayayayayayayayayayayayamay`4.H.Eayayayayayayayayayayayayayay",
"ayayayayayayayayayayayayayayay.w`e`tay.v`x#Y#Y#Y#Yat#Y.e`w`x.iay",
"ayayayayayayayayayayayayayayayam`I.Q`h#e#v.2##.V`n.M.M`#.M.c`oaB",
"ayayayayayayayayayayayayayayamay`Y#s`8`O#i`r.L`A`W#8.`aw`law`E`c",
"ayayayayayayayayayayayayayayayay#4`w#u#k.5#H.J#1#xana``H.7ak`EaE",
"ayayayayayayayayayayayayayayayay#r#c#wapaj`Aal#xana``H`1#O`1#RaE",
"ayayayayayayayayayayayayayayayay`N#f#M#e.m.x`d`Sa`.Z#TaF#W`bao`p",
"ayayayayayayayayayayayayayayayayam#I`a#g.m#N#Xa``H#TaAaA.XaA#5`p",
"ayayayayayayayayayayayayayayayayayay#U#6`Z#j#X#Oaqaq.X.X.T.X``aE",
"ayayayayayayayayayayayayayayayayayay`J.8.t.ja#.I`U`U`U`U`U#..p#I",
"ayayayayayayayayayayayayayayayayayayay.Yae#L.6#L#L#L#L#L`G#L.FaB",
"ayayayayayayayayayayayayayayayayayayayayavavavavavavavavavavavam",
"ayayayayayayayayayayayayayayayayayayayayayayayayayayayayayayayay",
"ayayayayayayayayayayayayayayayayayayayayayayayayayayayayayayayay",
"ayayayayayayayayayayayayayayayayayayayayayayayayayayayayayayayay"
};
