/* XPM */
static char *probabilitypanel_xpm[] = {
/* width height num_colors chars_per_pixel */
"    32    32      256            2",
/* colors */
"`` c #0ca204",
"`. c #8c949c",
"`# c #2cb204",
"`a c #94da74",
"`b c #0c6ecc",
"`c c #cccac8",
"`d c #4c7aac",
"`e c #64ba8c",
"`f c #64d638",
"`g c #e4e6f3",
"`h c #8cb18c",
"`i c #64b65c",
"`j c #4ca2b4",
"`k c #ccded4",
"`l c #248aa4",
"`m c #b4aeac",
"`n c #44b254",
"`o c #44ba0c",
"`p c #94d4cc",
"`q c #b4bebc",
"`r c #6c9a54",
"`s c #2cae07",
"`t c #3c7abc",
"`u c #dcccec",
"`v c #6c7e91",
"`w c #ece6e4",
"`x c #4c9adc",
"`y c #7ce744",
"`z c #e4dee0",
"`A c #44b62c",
"`B c #f4f6f9",
"`C c #a4a4a4",
"`D c #94ea6c",
"`E c #cccadc",
"`F c #348adc",
"`G c #ccc5cc",
"`H c #34b224",
"`I c #247fd4",
"`J c #548ac2",
"`K c #eceef3",
"`L c #6ca2dc",
"`M c #4496e9",
"`N c #1ca40c",
"`O c #6cb2d4",
"`P c #5cca31",
"`Q c #b4cab4",
"`R c #c4bebc",
"`S c #dcdada",
"`T c #44c22c",
"`U c #74d63c",
"`V c #b4b6bc",
"`W c #448edf",
"`X c #1caa08",
"`Y c #3cb60f",
"`Z c #8cbafc",
"`0 c #3cae3c",
"`1 c #a4fa7c",
"`2 c #84c2cc",
"`3 c #ccd2cc",
"`4 c #a4a6bc",
"`5 c #949a9c",
"`6 c #1c76d6",
"`7 c #a4b2ac",
"`8 c #94cafc",
".` c #2ca624",
".. c #2c7edc",
".# c #7c8694",
".a c #5ca2ec",
".b c #7cee3c",
".c c #54be34",
".d c #8cf650",
".e c #d4d2dc",
".f c #dcdaec",
".g c #a4cea4",
".h c #e4e1f4",
".i c #44be28",
".j c #5c8ec4",
".k c #f4eeec",
".l c #7cb5fc",
".m c #7cce64",
".n c #74e13c",
".o c #24aa09",
".p c #5c7ea4",
".q c #6c9e84",
".r c #44be04",
".s c #bcbecf",
".t c #847a9c",
".u c #ece6fc",
".v c #acaaab",
".w c #3c92e3",
".x c #4c8acc",
".y c #64ca54",
".z c #c4c6ca",
".A c #bcb6c8",
".B c #2cb614",
".C c #d4cecc",
".D c #84b674",
".E c #2480dd",
".F c #6cabf9",
".G c #6cd23c",
".H c #9c9eb2",
".I c #247ad4",
".J c #2c86da",
".K c #94fe5c",
".L c #24ab14",
".M c #9cda7c",
".N c #ccccd4",
".O c #5cbe5c",
".P c #b4b1bd",
".Q c #b4c6b4",
".R c #34ae14",
".S c #dcd6e4",
".T c #54a2cc",
".U c #e4e2ec",
".V c #4cba3c",
".W c none",
".X c #d4cce8",
".Y c #3c8ef4",
".Z c #64d22c",
".0 c #bcdcb8",
".1 c #dcdde4",
".2 c #4492f4",
".3 c #3cba0c",
".4 c #1c76e4",
".5 c #acaec0",
".6 c #a4d1fc",
".7 c #84f250",
".8 c #94fa5c",
"#` c #f4f1fc",
"#. c #3c9a94",
"## c #84a984",
"#a c #b4daa4",
"#b c #74c2b4",
"#c c #7c9e7c",
"#d c #d4f2d4",
"#e c #84968c",
"#f c #4cb274",
"#g c #349694",
"#h c #5caebc",
"#i c #b4f294",
"#j c #8ce65c",
"#k c #9ce67c",
"#l c #7c9ec4",
"#m c #74a654",
"#n c #c4cacc",
"#o c #94b78c",
"#p c #d4c5ec",
"#q c #7cda50",
"#r c #8cf257",
"#s c #74badc",
"#t c #54c42c",
"#u c #84c6dc",
"#v c #3cba24",
"#w c #c4e2c4",
"#x c #5cba70",
"#y c #d4daec",
"#z c #74b6ec",
"#A c #44c018",
"#B c #1476d4",
"#C c #84baf9",
"#D c #ace29c",
"#E c #14aa04",
"#F c #2486c4",
"#G c #8cc2ec",
"#H c #848e94",
"#I c #c4c2ce",
"#J c #84bee4",
"#K c #9cde94",
"#L c #84ea44",
"#M c #3cb624",
"#N c #7ce048",
"#O c #647f99",
"#P c #e4d6ec",
"#Q c #449ea4",
"#R c #2cae1f",
"#S c #dce2ec",
"#T c #848299",
"#U c #54a2e4",
"#V c #84ae84",
"#W c #447ab0",
"#X c #9496a4",
"#Y c #34b60c",
"#Z c #1472d4",
"#0 c #547ea4",
"#1 c #6cd838",
"#2 c #9cd6d0",
"#3 c #bcbfc1",
"#4 c #74808c",
"#5 c #549ee0",
"#6 c #4cba28",
"#7 c #fcfafc",
"#8 c #3c8ddf",
"a` c #24a60f",
"a. c #64cc30",
"a# c #bcb9b9",
"aa c #d4d4d2",
"ab c #acaabf",
"ac c #9c9da1",
"ad c #acaeb0",
"ae c #64a6ec",
"af c #84f044",
"ag c #ece2fc",
"ah c #f4eafc",
"ai c #548ecc",
"aj c #34b319",
"ak c #74aefc",
"al c #54b67c",
"am c #4cc21c",
"an c #44b81c",
"ao c #2cae14",
"ap c #a4a4b4",
"aq c #449af4",
"ar c #74b6d4",
"as c #3cb61c",
"at c #3caa4c",
"au c #9ccbfc",
"av c #8cf65c",
"aw c #d4d6ec",
"ax c #dcd2f4",
"ay c #3cb234",
"az c #6482a4",
"aA c #d4ded8",
"aB c #4cc224",
"aC c #4cbe24",
"aD c #3486dc",
"aE c #eceefc",
"aF c #acaab4",
"aG c #c4c6d4",
"aH c #5cbe6c",
"aI c #7cc2b4",
"aJ c #84ea54",
"aK c #cccecc",
"aL c #e4eaf4",
"aM c #b4b2b0",
"aN c #6c9e5c",
"aO c #eceaeb",
"aP c #e4e2e3",
"aQ c #44ba24",
"aR c #cccede",
"aS c #548ec4",
"aT c #c4c2c4",
"aU c #dcdedc",
"aV c #74da34",
"aW c #4492e2",
"aX c #1c7ad6",
"aY c #2caa1c",
"aZ c #2c82dd",
"a0 c #5ca6e8",
"a1 c #8cfa54",
"a2 c #d4d6de",
"a3 c #dcdeed",
"a4 c #f4f2f3",
"a5 c #24ae08",
"a6 c #eceaf5",
"a7 c #4c8ecf",
"a8 c #bcbac4",
/* pixels */
".W.1aa.Naaa2aa`S.1.1aPaP`gaOaO`Ka4`B`B#7.W.W.W.W.W.W.W.W.W.W.W.W",
"a4aM.zaK`c.zaT#3ad`V.P.5.vapap.H`C.H.H.Hapapababab.5.5#Ia4.W.W.W",
"`Ka#`B.W.W.W.W.W.f#7#7`B`B#7.U.1#`a6`g`g.S#IawaR`E`E.s#Ta8#7.W.W",
"`Ka#`K.W#7#7#`#7aa`K#``KaEaE.1.f`Ka6`ga6a3aR.u`g.h`ga3.t.v#7.W.W",
"aO`q.k#7`B`B`B`Ba2a4#``Ka4aE.1`SaE`g`g.u.1.N.U#Sa3.haw.#.v`B.W.W",
"aO`V.k`B`B`B#``B.ea4aEa4`K#`.fa2`K.u`g`g.1`E.ha3a3.haw.t.v#7.W.W",
"aO`V`B.W#7#7#7#7a2#``B#`aE#`.1.1#`aL`wa6a3.N`g.ha3#S.f.#.v`B.W.W",
"aOada2`z.1.1.faPaT.1aP.1aP.U`3aR.U.1a3.Ua2aG.f#y.f#Pax.t.v`B.W.W",
"`gaMa2.1.f`Sa2`Sa8a2a2.eaRa2#I#3.eaR.NaRaG.A.X.X`E`Q.g#e`7#7.W.W",
"aP`V#`#7`B`B`B`Ba2#`#`#``K#`a3.faEa6`g.ua3.Q#a`a#q`U`f#t.D`z.W.W",
"aP.P`Ka4`K#``K#`.N`Ka6a6a6`Ka2a2a6.U.h`g`D`y.ZaC#AaQaQamaN`G.W.W",
"#SaMa6aE`KaE`K.kaRa6`KaLaLa6a2.ea6.h`g#kaf#r.iaj`AanaCaCaNaT.W.W",
"`z.5`KaE.kaEa6aE.Na6a6.uah#`.ea2aLag#D.naJaCajananaQ#6#AaN`G.W.W",
"aU.Pa6aE`KaE`K#`.Na6#i`1#K`k#P.eah.0#1#N#tajas#ManaQaCaB`r`G.W.W",
".1`4#naK.N.N.N.Nab.0#r.7`X`N`i`q`3#1`U`PajasasanaQaQ#AaC.q#I.W.W",
"aUab`z.ha3`za3.UaT#j#r`T`Na5#EaY.ca.`P.Rajas#M`A.3aC#x`O.a`La2.W",
".S`7#d#`ahaLa6ah.M`y`f`Na`.LaYa5.Lajasajas#M`Y`o#xarak#5`M.xac`B",
"`u#o.8.yaAah.u#w.n#N.L.o.L.Laoao.Raj.Raj#M#Y#x#s.l.F`M#8.w.xaca4",
"#P#o.8.B.`aAa6#qaV.i`N.Laoaoaoaoajajaj#Maj.Vauau#5`F`F#8.w`Jac`B",
"`u#oav.i``#R.maV`Pa`.Lao.Laoao.Raj.Rajas`YaI.6#zaZ#8#8#8aWa7ac`B",
"`u`hav#v`N.L`X#t.R.L.La5`s`s#Rajajaj#M#Y.O.6`8#8aD#8#8#8.waSac`B",
"`u`h#r.ia`#R.La`.La5.R#f#h`n#Yajasasasas#u.6.aaZ#8`F#8aW.w`J`C`B",
"`u`h#r#v`Na5`s`#ay`e#J#Cak.2`l`H`Y#M`Yal#CakaD`F`F#8#8aW`M`Jac`B",
"#p##.7#b.T`j#g#.#G`8#C`x`I`6.4#F`0.3`A#5ae.waD`F#8#8#8aW.wai`C`B",
"`u##af#2.l.EaZ.4aD#5`I#ZaX.I`I.I..at#g.2#8aD`F`F#8#8aWaW`M`J`C`B",
"#p##`y#2.l`b#BaX#B#Z#B`IaX`I.E.E..aZ`I`IaD`F`F#8#8#8aWaW`M`J`C#7",
"#p##`y`p.l#B.IaX.I`IaX.E`I.E..`IaZaZ.J.J`F`F#8#8#8#8aWaW`M`J`C#7",
"#p#c.b`p.l#B`I.IaX`I`I.E..`IaZaZaZ.JaD`FaD#8`F#8#8.w`M`MaqaS`C#7",
".h#XaN`2.FaX.E.E.E.E.E.E.E.E.E.JaZ.J.JaD#8`W`Wa7a7aiaS`J.jaz.v`B",
".W`za#`V#l`t`t#W`d#0#0.p#O#O`v#O`v`v#4#4.##H#H`.`5ac`C`C.vadaA#7",
".W.W.W`B`SaM.v`ma#a#`RaT`GaKaaaa`zaP`waOaO.ka4a4a4`Ba4`B#7#7#7.W",
".W.W.W.W.W.W.W.W.W.W.W.W.W.W.W.W.W.W.W.W.W.W.W.W.W.W.W.W.W.W.W.W"
};
