/* XPM */
static char *radarmap_xpm[] = {
/* width height num_colors chars_per_pixel */
"    32    32      256            2",
/* colors */
"`` c #44466c",
"`. c #a4a6a4",
"`# c #747674",
"`a c #d4d6d4",
"`b c #8c8e9c",
"`c c #bcbebc",
"`d c #5c5e84",
"`e c #74769c",
"`f c #eceeec",
"`g c #a4a6cc",
"`h c #6c6a6c",
"`i c #9c9ea4",
"`j c #e4e2dc",
"`k c #84869c",
"`l c #cccacc",
"`m c #b4b2cc",
"`n c #54527c",
"`o c #d4d6f4",
"`p c #5c5e8c",
"`q c #6c6e8c",
"`r c #848284",
"`s c #8c8ebc",
"`t c #8482b4",
"`u c #b4b2b4",
"`v c #9c9ac4",
"`w c #cccaec",
"`x c #bcbad4",
"`y c #545284",
"`z c #dcdedc",
"`A c #bcbee4",
"`B c #7c7ea4",
"`C c #fcfaf4",
"`D c #acaecc",
"`E c #747294",
"`F c #eceaec",
"`G c #646694",
"`H c #9496bc",
"`I c #7c7a8c",
"`J c #dcdad4",
"`K c #b4b2dc",
"`L c #a4a2bc",
"`M c #acaabc",
"`N c #64666c",
"`O c #7476ac",
"`P c #f4f6f4",
"`Q c #acaacc",
"`R c #e4e2ec",
"`S c #8c8a9c",
"`T c #64628c",
"`U c #6c6a9c",
"`V c #8c8a8c",
"`W c #8c8ab4",
"`X c #d4d2ec",
"`Y c #5c5a84",
"`Z c #4c4e84",
"`0 c #7c7e84",
"`1 c #9496a4",
"`2 c #c4c6c4",
"`3 c #f4f2ec",
"`4 c #747274",
"`5 c #d4d2cc",
"`6 c #5c5a6c",
"`7 c #dcdef4",
"`8 c #9492bc",
".` c #bcbab4",
".. c #c4c6ec",
".# c #4c4a6c",
".a c #747684",
".b c #d4d6e4",
".c c #bcbed4",
".d c #64627c",
".e c #a4a29c",
".f c #e4e6e4",
".g c #8482ac",
".h c #b4b6d4",
".i c #545674",
".j c #dcdaec",
".k c #848294",
".l c #8486b4",
".m c #9c9ecc",
".n c #cccee4",
".o c #bcbae4",
".p c #545684",
".q c #c4c2e4",
".r c #7c7eb4",
".s c none",
".t c #acaedc",
".u c #7472a4",
".v c #9496cc",
".w c #dcdae4",
".x c #b4b6dc",
".y c #a4a2cc",
".z c #acaebc",
".A c #7c7aac",
".B c #acaadc",
".C c #64629c",
".D c #6c6e9c",
".E c #acaaac",
".F c #74767c",
".G c #d4d6dc",
".H c #94929c",
".I c #c4c2c4",
".J c #7476a4",
".K c #eceef4",
".L c #a4a6d4",
".M c #6c6a7c",
".N c #e4e2e4",
".O c #cccecc",
".P c #b4b2d4",
".Q c #5c5e94",
".R c #6c6e94",
".S c #848684",
".T c #8c8ec4",
".U c #b4b6bc",
".V c #9c9acc",
".W c #bcbadc",
".X c #dcdee4",
".Y c #7c7eac",
".Z c #fcfafc",
".0 c #acaed4",
".1 c #74729c",
".2 c #eceaf4",
".3 c #64669c",
".4 c #9496c4",
".5 c #7c7e94",
".6 c #dcdadc",
".7 c #646684",
".8 c #acaad4",
"#` c #e4e6f4",
"#. c #8c8aac",
"## c #bcbac4",
"#a c #4c4a7c",
"#b c #a4a2ac",
"#c c #8486ac",
"#d c #646294",
"#e c #8c8a94",
"#f c #8c8abc",
"#g c #d4d2f4",
"#h c #5c5a8c",
"#i c #9496ac",
"#j c #f4f2f4",
"#k c #74727c",
"#l c #d4d2d4",
"#m c #9492c4",
"#n c #646284",
"#o c #54567c",
"#p c #dcdaf4",
"#q c #8486bc",
"#r c #ccceec",
"#s c #54568c",
"#t c #c4c2ec",
"#u c #b4b6e4",
"#v c #a4a2d4",
"#w c #acaec4",
"#x c #7c7ab4",
"#y c #6c6ea4",
"#z c #000000",
"#A c #000000",
"#B c #000000",
"#C c #000000",
"#D c #000000",
"#E c #000000",
"#F c #000000",
"#G c #000000",
"#H c #000000",
"#I c #000000",
"#J c #000000",
"#K c #000000",
"#L c #000000",
"#M c #000000",
"#N c #000000",
"#O c #000000",
"#P c #000000",
"#Q c #000000",
"#R c #000000",
"#S c #000000",
"#T c #000000",
"#U c #000000",
"#V c #000000",
"#W c #000000",
"#X c #000000",
"#Y c #000000",
"#Z c #000000",
"#0 c #000000",
"#1 c #000000",
"#2 c #000000",
"#3 c #000000",
"#4 c #000000",
"#5 c #000000",
"#6 c #000000",
"#7 c #000000",
"#8 c #000000",
"a` c #000000",
"a. c #000000",
"a# c #000000",
"aa c #000000",
"ab c #000000",
"ac c #000000",
"ad c #000000",
"ae c #000000",
"af c #000000",
"ag c #000000",
"ah c #000000",
"ai c #000000",
"aj c #000000",
"ak c #000000",
"al c #000000",
"am c #000000",
"an c #000000",
"ao c #000000",
"ap c #000000",
"aq c #000000",
"ar c #000000",
"as c #000000",
"at c #000000",
"au c #000000",
"av c #000000",
"aw c #000000",
"ax c #000000",
"ay c #000000",
"az c #000000",
"aA c #000000",
"aB c #000000",
"aC c #000000",
"aD c #000000",
"aE c #000000",
"aF c #000000",
"aG c #000000",
"aH c #000000",
"aI c #000000",
"aJ c #000000",
"aK c #000000",
"aL c #000000",
"aM c #000000",
"aN c #000000",
"aO c #000000",
"aP c #000000",
"aQ c #000000",
"aR c #000000",
"aS c #000000",
"aT c #000000",
"aU c #000000",
"aV c #000000",
"aW c #000000",
"aX c #000000",
"aY c #000000",
"aZ c #000000",
"a0 c #000000",
"a1 c #000000",
"a2 c #000000",
"a3 c #000000",
"a4 c #000000",
"a5 c #000000",
"a6 c #000000",
"a7 c #000000",
"a8 c #000000",
/* pixels */
".s.s.s.s.s.s.s.s.s.s.s.s.s#j.W`g.y`x`f.s.s.s.s.s.s.s.s.s.s.s.s.s",
".s.s.s.s.s.s.s.s.s.s.s.s`R.4.B...q.m`8.6.s.s.s.s.s.s.s.s.s.s.s.s",
".s.s.s.s.s.s.s.s.s.s.s.2.4`A`7.j`X`X.8.l#l.s.s.s.s.s.s.s.s.s.s.s",
".s.s.s.s.s.s.s.s.s.s`P`v.o`R`w`A.o`A..`g#.`j.s.s.s.s.s.s.s.s.s.s",
".s.s.s.s.s.s.s.s.s.s.P.8`7..`A`A.o.x.x.o#m#i`f.s.s.s.s.s.s.s.s.s",
".s.s.s.s.s.s.s.s.s`X.4#p`w`A`A.o.o#u.x`K.x.g.z.Z.s.s.s.s.s.s.s.s",
".s.s.s.s.s.s.s.s`P#m..#g`A#t.o.o#u.W`K.t`K.y.A`5.s.s.s.s.s.s.s.s",
".s.s.s.s.s.s.s.s`x#v#p`A`A.o.o#u.x`K`K.t.0.t.l`1#j.s.s.s.s.s.s.s",
".s.s.s.s.s.s.s.2#m#r`w`A`A.o.o.x#u`K.t.0.8.8#v`e.I.s.s.s.s.s.s.s",
".s.s.s.s.s.s.s`D.8#g`A.o.o.o#u.x`K.t.0.8.8.L.8.l`S`F.s.s.s.s.s.s",
".s.s.s.s.s.s.2#m`w...o.o#u.x#u`K.t.0.B.8.L#v.y.m.D.I.s.s.s.s.s.s",
".s.s.s.s.s.s.P.y#r.o.o#u.x#u`K.t.P.B.L.L.L.y.m#v.Y`k`f.s.s.s.s.s",
".s.s.s.s.s#j`s#t`A#u.o.x.x`K.t.0.B.8.L.L.y.m.V`v#m`U`2.s.s.s.s.s",
".s.s.s.s.s`A.4`w.o.x.x#u`K.t.t.8.L.L.y.y.m.V.V.4.4.u.H#j.s.s.s.s",
".s.s.s.s.Z`v.P.q.x#u`K`K.t.0.B.8.L.L#v.m.V.V.4#m.4`t`q#l.s.s.s.s",
".s.s.s.s.w`W#t.x.x`K`K.t.8.B.L.L#v.y.m.V.V.4.4.T`s.T`T.E.Z.s.s.s",
".s.s.s.s.0`v#t`K`K.t.t.8.B.L.8.y.y.m.V.V.4#m`8`s#f#f#y.5.f.s.s.s",
".s.s.s.Z`W`K.x.t.t.0.8.8.L.L.y.m.m.V.V#m#m.T`s#f#q#q.A#n.O.s.s.s",
".s.s.s.w.l`A`K.0.0.B.8.L.L.y#v.m.V.V#m#m`s`s#f#q`t`t.r`T`i.Z.s.s",
".s.Z.s`m#m.W.8.t.8.L.L.L.y.m.m.V.4.4#m.T`s#f#q`t`t.r`t.Q`I`f.s.s",
".s.s.s`8.m.x.8.L.8`g#v.y.m.m`v.v.4#m.T`s#f#q.l`t.r.r.Y`U`q`5.s.s",
".s.s.K`t.0.0.8.L.y#v.y.m.V`v.4.4#m`s#f#q#q`t`t.r.r.Y.A.u`n`u.s.s",
".Z.s.w.A.x.L`g#v.y.m.m`v.4.V#m#m`s#f#f.l`t`t.r.r.Y.A`O`O`Z`i`C.s",
".s.s`x.g`K.y.y.y.m.m`v.V.4`s`s`s#f#q.l`t`t.r`t.A.A`O.A.1.p#e`F.s",
".Z.s`D.l.P.m.y.m`v`v.v`8.g.l.l.A.A#q#q`t.r.Y.A.A`O.A.u#y#h.a`j.s",
".s.s`L#f.8.m.m`v.4.V`W.g.l.A`Y`d.d#s.u`t.r.A`O.A`O.u.J`U#h.7`J.s",
".s.s`L.l`Q`v`v`v.4#c#c.r`T.i`#.e.U.e`T#s.A.r.A`O.u.u#y`G#h`N.6.s",
".Z.s`m.A`g.4.4`H`W.g#y`6`N.e`z.Z.s.Z.6`b`n.C`O`O.u#y`U`G`Z.F.6.s",
".s.s.w`G`v.m`v#f.J`p`6.S`l`P.s.s.s.s.s`C##.7`Z`U.u.D#d`p.#`V`f.s",
".s.s.s`M`p.1.D`Y`6`4.E.f.s.s.s.s.s.s.s.s.s`j`1.i#a`y`Z.#`N`c.s.s",
".s.s.s`C.U`r`I`r`.`a.Z.s.s.s.s.s.s.s.s.s.s.s.Z.O`i`I.F`r.U`P.s.s",
".s.s.s.s.s.N.O`j.Z.s.s.s.s.s.s.s.s.s.s.s.s.s.s.s`C`z.O`z.Z.s.s.s"
};
