/* XPM */
static char *ternarygraph_xpm[] = {
/* width height num_colors chars_per_pixel */
"    32    32      256            2",
/* colors */
"`` c #14465c",
"`. c #0c8204",
"`# c #949e44",
"`a c #8cd264",
"`b c #44c304",
"`c c #fcca34",
"`d c #c40e04",
"`e c #4c9c40",
"`f c #d49004",
"`g c #9c7e04",
"`h c #d4d6b4",
"`i c #5483bc",
"`j c #8cc6e4",
"`k c #d4eecc",
"`l c #047204",
"`m c #e48284",
"`n c #7ca28c",
"`o c #24a204",
"`p c #d42d2c",
"`q c #dce2ec",
"`r c #54e204",
"`s c #b4c2dc",
"`t c #3c720c",
"`u c #f4ac04",
"`v c #e4f2ec",
"`w c #2c8b11",
"`x c #dc4244",
"`y c #5c94c8",
"`z c #9cda80",
"`A c #d46e6c",
"`B c #f4f2f0",
"`C c #dc2224",
"`D c #143e74",
"`E c #4cd504",
"`F c #eca7a7",
"`G c #b4d2b4",
"`H c #8ca6cc",
"`I c #cc1a1c",
"`J c #4cb804",
"`K c #a4ca9c",
"`L c #d49e0c",
"`M c #f4c5c4",
"`N c #3462ac",
"`O c #6ca3d4",
"`P c #74f004",
"`Q c #3c6aac",
"`R c #dc3a3c",
"`S c #2c529c",
"`T c #acd3ec",
"`U c #1c7604",
"`V c #dcaa34",
"`W c #f4faf4",
"`X c #4476b4",
"`Y c #1c8f04",
"`Z c #94d2ec",
"`0 c #3c9a1c",
"`1 c #dc5a5c",
"`2 c #7c9e9c",
"`3 c #c4ae9c",
"`4 c #7cb6dc",
"`5 c #5cca04",
"`6 c #dc1818",
"`7 c #dc9904",
"`8 c #748ebc",
".` c #f44344",
".. c #fcf4f2",
".# c #bcdab9",
".a c #5cb63c",
".b c #6485b7",
".c c #34b604",
".d c #f4e6e4",
".e c #f4b604",
".f c #3c8a3c",
".g c #d4be74",
".h c #ecd29c",
".i c #7ca5d1",
".j c #ec3534",
".k c #1c8404",
".l c #94c684",
".m c #54c228",
".n c #8ccaec",
".o c #047804",
".p c #f49494",
".q c #dc7c78",
".r c #79f604",
".s c #2c5a84",
".t c #6476ac",
".u c #6ce204",
".v c #3c9224",
".w c #e44d4c",
".x c #b4e2a4",
".y c #2c4a94",
".z c #9cbaac",
".A c #b4d1ac",
".B c #5479b1",
".C c #7c94c0",
".D c #dc1e21",
".E c #c4daba",
".F c #94c294",
".G c #44cc04",
".H c #e4ca94",
".I c #64aa5c",
".J c #d0d6e4",
".K c #ecf4ec",
".L c #349220",
".M c #6c9ccc",
".N c #f4f6fc",
".O c #e42b2c",
".P c #60de04",
".Q c #54b234",
".R c #4c64a8",
".S c #2c7c1c",
".T c #acb6d4",
".U c #e49604",
".V c #fcbe04",
".W c #fcdadc",
".X c #7caed4",
".Y c #ec3a3c",
".Z c #1c8a04",
".0 c #749ecc",
".1 c #d40304",
".2 c #e49204",
".3 c #5c84b8",
".4 c #9cc5e4",
".5 c #fce29c",
".6 c #44a804",
".7 c #d4eadc",
".8 c #a4dc88",
"#` c #f4f6f3",
"#. c #545a14",
"## c #94b67c",
"#a c #e8b6b4",
"#b c #9c7e5c",
"#c c #fce294",
"#d c #74b654",
"#e c #f4a604",
"#f c #bc3a2c",
"#g c #8cbee4",
"#h c #fcca54",
"#i c #244890",
"#j c #5cc62c",
"#k c #ecdabc",
"#l c #f4e2c8",
"#m c #ec6c6c",
"#n c #c4cee4",
"#o c #3c5ca0",
"#p c #44b61c",
"#q c #ec9e9f",
"#r c #e4eee4",
"#s c #146a04",
"#t c #a4d2ec",
"#u c #bcbedc",
"#v c #b0def4",
"#w c #546ea4",
"#x c #54de04",
"#y c #ecb0b0",
"#z c #64eb04",
"#A c #fcd664",
"#B c #dcae54",
"#C c #247e1c",
"#D c #f4cecc",
"#E c #c4d6bc",
"#F c #e4a004",
"#G c #ec7e7c",
"#H c #ec4644",
"#I c #3c569c",
"#J c #9cceec",
"#K c #147a04",
"#L c #84fa04",
"#M c #d4decc",
"#N c #44be04",
"#O c #4cba24",
"#P c #2c5aa4",
"#Q c #449630",
"#R c #d4961c",
"#S c #f4b61c",
"#T c #24821c",
"#U c #74ba6c",
"#V c #e48a8c",
"#W c #94aacc",
"#X c #d41e1c",
"#Y c #84bee4",
"#Z c #f4eee8",
"#0 c #d4deec",
"#1 c #acbedc",
"#2 c #dc0a0c",
"#3 c #ecbebc",
"#4 c #fcb204",
"#5 c #dcfaec",
"#6 c #54be04",
"#7 c #24761c",
"#8 c #219604",
"a` c #3cbe04",
"a. c #3c922c",
"a# c #94be8c",
"aa c #348e1c",
"ab c #accca8",
"ac c #344e9c",
"ad c #648abc",
"ae c #547eb4",
"af c #ecfaf4",
"ag c #a4daf4",
"ah c #7caa8c",
"ai c #248a14",
"aj c #549e44",
"ak c #0c6e0c",
"al c #6492c4",
"am c #bcd6bc",
"an c #94a5ce",
"ao c #d41618",
"ap c #e4ae3c",
"aq c none",
"ar c #4c7abc",
"as c #e45654",
"at c #fceaec",
"au c #84a2cc",
"av c #e47e7c",
"aw c #9cc596",
"ax c #7c9cc8",
"ay c #7cba5c",
"az c #64ca34",
"aA c #f4dcb8",
"aB c #dc9a14",
"aC c #dc9204",
"aD c #94c2e4",
"aE c #2ca604",
"aF c #a4ceac",
"aG c #74a6d4",
"aH c #7cef04",
"aI c #446eac",
"aJ c #e43b3c",
"aK c #34569c",
"aL c #84badc",
"aM c #fc4644",
"aN c #fcf6fc",
"aO c #fcb904",
"aP c #94ceec",
"aQ c #0c7a04",
"aR c #ec4b4c",
"aS c #c4dcc4",
"aT c #4cce04",
"aU c #6ca65c",
"aV c #ec2d2c",
"aW c #84aad4",
"aX c #f43c3c",
"aY c #e4eaf4",
"aZ c #6cea04",
"a0 c #bce2ac",
"a1 c #e41e1f",
"a2 c #e4ae4c",
"a3 c #b4bed4",
"a4 c #148204",
"a5 c #ec8284",
"a6 c #5ce204",
"a7 c #9cd2ec",
"a8 c #9cc684",
/* pixels */
"aqaqaqaqaqaqaqaqaqaqaqaqaqaq#`#Eab.E.Kaqaqaqaqaqaqaqaqaqaqaqaqaq",
"aqaqaqaqaqaqaqaqaqaqaqaqaqa#`w.k`w.Z`wa#aqaqaqaqaqaqaqaqaqaqaqaq",
"aqaqaqaqaqaqaqaqaqaqaqaqaU`..aa0`ka0.Q`.aUaqaqaqaqaqaqaqaqaqaqaq",
"aqaqaqaqaqaqaqaqaqaqaqa#`.#O.8`z`a`z`z#p`.a#aqaqaqaqaqaqaqaqaqaq",
"aqaqaqaqaqaqaqaqaqaq#`aa`o.maza`a``baz.m`oaa#`aqaqaqaqaqaqaqaqaq",
"aqaqaqaqaqaqaqaqaqaq#E`Y.ca`.GaT`E.G`b`b.c`Y.Eaqaqaqaqaqaqaqaqaq",
"aqaqaqaqaqaqaqaqaqaqab`Ya`.G`E#x#x#x`E.Ga``Y.Aaqaqaqaqaqaqaqaqaq",
"aqaqaqaqaqaqaqaqaqaq.E#8.G`Ea6#z#z#z`r`E`b#8.Eaqaqaqaqaqaqaqaqaq",
"aqaqaqaqaqaqaqaqaqaq.K`0a`.P#z`P.r`P#za6a``0#`aqaqaqaqaqaqaqaqaq",
"aqaqaqaqaqaqaqaqaqaqaqa8aE.P`P.r#L.r`P.PaEa8aqaqaqaqaqaqaqaqaqaq",
"aqaqaqaqaqaqaqaqaqaqaqaq#d`J.uaH.raH.u`Jayaqaqaqaqaqaqaqaqaqaqaq",
"aqaqaqaqaqaqaqaqaqaqaqaqa##K.6#6`5#6.6.kaSaqaqaqaqaqaqaqaqaqaqaq",
"aqaqaqaqaqaqaqaqaqaqaq`BaaaQab.#`U.Eaw`lajaqaqaqaqaqaqaqaqaqaqaq",
"aqaqaqaqaqaqaqaqaqaqaqaw.o#Qaq#rak#raq.v`l.Aaqaqaqaqaqaqaqaqaqaq",
"aqaqaqaqaqaqaqaqaqaq#`a..oabaq#M`t`haq.A`la.aNaqaqaqaqaqaqaqaqaq",
"aqaqaqaqaqaqaqaqaqaq`K.o.vaq.HaBaCaC#B..`e`l`Kaqaqaqaqaqaqaqaqaq",
"aqaqaqaqaqaqaqaqaqaq#Q.o`KaAaC#S.5#h.2ap#EaQaa`Baqaqaqaqaqaqaqaq",
"aqaqaqaqaqaqaqaqaqab.o.v`B`V#F`c#c#AaO`7#l.I`l##aqaqaqaqaqaqaqaq",
"aqaqaqaqaqaqaqaqaq`e`l.Faq`LaO.V.VaO.V#F.h.7#K.Z`vaqaqaqaqaqaqaq",
"aqaqaqaqaq`qa3#u.zaQ.L.Kaqap`u.V.V.VaO#FaAaq#U#s#b#q`Fataqaqaqaq",
"aqaqaq`q.t.y#I#I#i```naq.K`#aC#4aOaO#e`g`K#Z`A`d.D`p#X`Iav..aqaq",
"aqaq.J#Iac.TaYaYa3.Rac`2.S.f.gaB`7`fap###C#f#2#m`M.W#3as.1`1aNaq",
"aq`B.R.y#W#1anan#1#W#o`D`naqaq#Z#k#laqaq.q.1#H.p#G#ma5.paJ.1#Vaq",
"aq.T#i.B.Cad`i`i.b.0.B`Sanaqaqaqaqaqaqat`pa1.w.waVaVaVaR#H.D`pat",
"aq`8`Nae`y.M`O`O.Mal.3`N#w.K`B#`.K`Baf#aao.O.j.j.j.Y.j.Y.j.O.D`M",
"aq.b`Q`y`O`4aL#Y`4`Oalar.s#7.S.S.S.S#T#.a1aV.jaX.`aMaXaX.j.j.D#3",
"aq.CaI.M`4`jaPaP`j#Y`Oar.B#Eamamamamam`3.D.jaX.`.`aM.`.`aX.j#X#D",
"aqa3aIaG#g#Jag#v#JaD.X`XanaqaqaqaqaqaqaN`R.OaXaX.`aM.`.`aX.O`x..",
"aq`B.bal.4#t#v#v#t.4.0.BaYaqaqaqaqaqaqaq#q`6.Y.`.`aM.`.`aX`6#qaq",
"aqaq`q.b.0aD`T`T.4.i.3#naqaqaqaqaqaqaqaqaqav`6aVaXaXaXaV`6`maqaq",
"aqaqaqaYanaxaWaWaxau#0aqaqaqaqaqaqaqaqaqaqaq`F.waJaJaJ.w`Faqaqaq",
"aqaqaqaqaq.J#1#1#naqaqaqaqaqaqaqaqaqaqaqaqaqaqaN#y#q#yaqaqaqaqaq"
};
