/* XPM */
static char *contourgridout_xpm[] = {
/* width height num_colors chars_per_pixel */
"    32    32      256            2",
/* colors */
"`` c #043eac",
"`. c #049efc",
"`# c #84a2dc",
"`a c #bcd2fc",
"`b c #5c626c",
"`c c #b4b2b4",
"`d c #dceafc",
"`e c #046edc",
"`f c #b4c2dc",
"`g c #5c82a4",
"`h c #3c72bc",
"`i c #dcd6cc",
"`j c #44a2f4",
"`k c #ccc6c4",
"`l c #84befc",
"`m c #84827c",
"`n c #048af4",
"`o c #dce2e4",
"`p c #9c9ea4",
"`q c #f4eeec",
"`r c #64aaec",
"`s c #b4c2ec",
"`t c #5c7aa4",
"`u c #0456bc",
"`v c #8c929c",
"`w c #a4aaac",
"`x c #ccd2e4",
"`y c #b4b6dc",
"`z c #c4cad4",
"`A c #348ac4",
"`B c #ccd6ec",
"`C c #c4c2bc",
"`D c #dcdaec",
"`E c #1c8aec",
"`F c #4caefc",
"`G c #ccc6dc",
"`H c #345eb4",
"`I c #249efc",
"`J c #b4babc",
"`K c #1c76d4",
"`L c #3c7eb4",
"`M c #fcfafc",
"`N c #5c92cc",
"`O c #ece6e4",
"`P c #0462c4",
"`Q c #94929c",
"`R c #c4c2d4",
"`S c #6c6a64",
"`T c #eceaec",
"`U c #047ae4",
"`V c #aca6ac",
"`W c #f4f6f4",
"`X c #74726c",
"`Y c #d4dae4",
"`Z c #0496fc",
"`0 c #e4e2fc",
"`1 c #a4a6a4",
"`2 c #64bafc",
"`3 c #9caed4",
"`4 c #d4d2d4",
"`5 c #e4deec",
"`6 c #5caef4",
"`7 c #349ef4",
"`8 c #44769c",
".` c #9cb6e4",
".. c #8c8e94",
".# c #ccced4",
".a c #c4bebc",
".b c #9c9a94",
".c c #eceafc",
".d c #147ad4",
".e c #d4d2e4",
".f c #548edc",
".g c #dcdedc",
".h c #cccecc",
".i c #148eec",
".j c #e4e2e4",
".k c #a49e9c",
".l c #fcf2fc",
".m c #acaaac",
".n c #d4dafc",
".o c #c4c2cc",
".p c #dcdafc",
".q c #1c92ec",
".r c #54b6fc",
".s c #bcbabc",
".t c #1462b4",
".u c #7c7a7c",
".v c #74befc",
".w c #34a6fc",
".x c #243e7c",
".y c #54668c",
".z c #bcb6b4",
".A c #5caaec",
".B c #d4cabc",
".C c #84868c",
".D c #0492f4",
".E c #f4eefc",
".F c #145ebc",
".G c #bcbecc",
".H c #448adc",
".I c #d4d6ec",
".J c #54aef4",
".K c #d4c6dc",
".L c #447eac",
".M c #7496d4",
".N c #046ad4",
".O c #9496a4",
".P c #c4c6d4",
".Q c #746a5c",
".R c #eceeec",
".S c #0c7adc",
".T c #d4d6d4",
".U c #4476c4",
".V c #e4e6e4",
".W c #acaeac",
".X c #0c46a4",
".Y c #149efc",
".Z c #94a2bc",
".0 c #b4b6b4",
".1 c #bcc2cc",
".2 c #6c8abc",
".3 c #dcdadc",
".4 c #cccacc",
".5 c #94bef4",
".6 c #848684",
".7 c #bccefc",
".8 c #6c7a8c",
"#` c #045ec4",
"#. c #9cc2f4",
"## c #246ac4",
"#a c #8496c4",
"#b c #2482dc",
"#c c #acb2d4",
"#d c #648ed4",
"#e c #347ac4",
"#f c #6cb2f4",
"#g c #4c92d4",
"#h c #a4cafc",
"#i c #5c9adc",
"#j c #1ca6fc",
"#k c #ece2fc",
"#l c #94a6d4",
"#m c #0c3a9c",
"#n c #647694",
"#o c #bcbacc",
"#p c #5cb6fc",
"#q c #24a6fc",
"#r c #c4ceec",
"#s c #646664",
"#t c #2496ec",
"#u c #4c7abc",
"#v c #5c96dc",
"#w c #6cbafc",
"#x c #a4a2ac",
"#y c #7cc2fc",
"#z c #3caafc",
"#A c #5c6a8c",
"#B c #d4d2fc",
"#C c #fcf6fc",
"#D c #e4eafc",
"#E c #3c8ac4",
"#F c #e4defc",
"#G c #cccee4",
"#H c #9c9aa4",
"#I c #5c86ac",
"#J c #cccabc",
"#K c #f4f2f4",
"#L c #045ac4",
"#M c #c4cedc",
"#N c #c4c6c4",
"#O c #dcdeec",
"#P c #cccad4",
"#Q c #0466cc",
"#R c #949694",
"#S c #6c6e6c",
"#T c #747674",
"#U c #34a2f4",
"#V c #a4a2a4",
"#W c #1c96f4",
"#X c #bcbebc",
"#Y c #7c7e7c",
"#Z c #54b2fc",
"#0 c #94c2fc",
"#1 c #0472dc",
"#2 c #44a6f4",
"#3 c #048ef4",
"#4 c #1c8eec",
"#5 c #3c82b4",
"#6 c none",
"#7 c #047ee4",
"#8 c #049afc",
"a` c #e4e6fc",
"a. c #64befc",
"a# c #eceefc",
"aa c #d4d6e4",
"ab c #c4c6cc",
"ac c #dcdefc",
"ad c #f4f2fc",
"ae c #d4d6fc",
"af c #848284",
"ag c #9c9eac",
"ah c #8c92a4",
"ai c #c4c2c4",
"aj c #b4bac4",
"ak c #0462cc",
"al c #c4c2dc",
"am c #6c6a6c",
"an c #eceaf4",
"ao c #f4f6fc",
"ap c #a4a6ac",
"aq c #d4d2dc",
"ar c #8c8e9c",
"as c #147adc",
"at c #dcdee4",
"au c #e4e2ec",
"av c #acaab4",
"aw c #5caaf4",
"ax c #0492fc",
"ay c #bcbed4",
"az c #54aefc",
"aA c #447eb4",
"aB c #c4c6dc",
"aC c #eceef4",
"aD c #0c7ae4",
"aE c #d4d6dc",
"aF c #e4e6ec",
"aG c #acaeb4",
"aH c #b4b6bc",
"aI c #bcc2d4",
"aJ c #dcdae4",
"aK c #4c7ac4",
"aL c #dcdef4",
"aM c #cccadc",
"aN c #94969c",
"aO c #34a2fc",
"aP c #bcbec4",
"aQ c #7c7e84",
"aR c #000000",
"aS c #000000",
"aT c #000000",
"aU c #000000",
"aV c #000000",
"aW c #000000",
"aX c #000000",
"aY c #000000",
"aZ c #000000",
"a0 c #000000",
"a1 c #000000",
"a2 c #000000",
"a3 c #000000",
"a4 c #000000",
"a5 c #000000",
"a6 c #000000",
"a7 c #000000",
"a8 c #000000",
/* pixels */
"#6#6#6#6#6#6#6#6#6#6#6#6#6#6#6#6#6#6#6#6#6#6#6#6#6#6#6#6#6#6#6#6",
"#6.3`c.0`c.0`c`c`c`c.Wap.mapapapap#xap`p.m.m`V.map`V`1`V`p#N`M#6",
"#6#N`4#K#K#K#K#K.R#K.3.s.R`O`T`TaF.V.R.zaqan`o`0#O`D`Y`Day.u.3#6",
"#6#N.3#6#6#6#6#6#6#6.V.4#6#6#6#6#6#6#6ab`o#6ada#a#a#.c.caM#S`4#6",
"#6#N.3#6#6#6#6#6#6#6.jab#6#6#6#6#6`M#6.oat`Ma#ad.c.c`0#D`G`X`4#6",
"#6ai.3#6#6#6#6#6#6#6.Vab#6#6#6#6#6`M#6abat`Mada#a#.ca`.caB#S.T#6",
"#6ai.3#6#6#6#6#6#6#6.V`k#6#6#6#6#6#6#6.oat#6ada#a#.ca`.caB`X`4#6",
"#6ai.T#6#6#6#6#6#6#6.Vab#6#6#6#6#6`M#6abat`Madada#.ca`.c`z`Xaq#6",
"#6ai.T#6`M#6#6#6#6#6.j#N#6#C#6`M`M`M#6aiat`Ma#a#.c.c`0a`aB#S`4#6",
"#6ai.g#6#6#6#6#6#6#6`T.4#6#6#6#6#6#6#6#PaF#6#6`Maoada#ao.eam.T#6",
"#6ai.W.4#N`kab`k#N.4.s.W.4#N.4ab.4#N`k`w.sab.a.1ai.1.a.oap`X`4#6",
"#6ai`kaF.j.V.j.V.j.V.##X.V.j.V.j.V.j.Vaj.h.jataJaJaaaaaJ.G#S`4#6",
"#6ai.3#6#6#6#6#6#6#6`Tab#6#6#6#6#6#6#6abau#6aoaoada#.ca#aM#S`4#6",
"#6aP.T#6#6#6#6#6#6#6.j#N#6#6#6#6#6`M#6abaJ`Ma#a#.c.c`0#Dal#S`4#6",
"#6`C.T#6#6#6#6#6#6#6.V`k#6#6#6#6#6`M#6abaJao.Ea#.ca``0.cal#S.T#6",
"#6aP`i#6#6#6#6#6#6#6aFab#6`M#6#6#6`M#6.o`Yaoa##D.c`0ac#Dal#S`4#6",
"#6.aaq#6#6#6#6#6#6#6.V#N#6#6#6#6`Mao#6.1`5#6#C.ladad.c.cay`S.T#6",
"#6aP`4#6`M#6#6#6#6#6.Vab#6`M#6`M`Mao#6`4`z#laK`h.U.M`s.c`G`X`z#6",
"#6#Xaq#6#C`M`M`M`M#6.j`k#6`M`Mao#Cad`M`3#m``ak`e#1#1.N.H`f#I`N`O",
"#6.a`1.saHaHaHaH.z.saGap.s`J.zajaHaH.s.Z.2.U#`.N#3ax#8`nas`UaA`k",
"#6#X#PaoaC#K#KadaCao.3ab#6aoaoaoada#ao.P.j#C.I#d.N.D`..w.w#U.L.a",
"#6#X#P`Ma#adaoaoao`Matai#6adad.Eada#ad.s`xa`.c.E.`as`I#z.r`F`L#X",
"#6#X.Paoa#a#ada#adaoaJ.1`Ma#.Ea#`d`daoaq`D.la`acad#i`Ea..v`2#5.s",
"#6.s.Pad.ca#a#.Ea#ad`Y.o#Ca#a#ad#p`7`j`jaw.A#..c.5.S#taOaz#p`A.z",
"#6#X`Rad.c.c.c.ca#adaa.Gao.c#Dad.J#w#w`F.q#b`a`0.7#h.5`l#f`A`8#X",
"#6.s`Ra#a`.ca`.ca`a#.e.Gada`.c.Eawaz`2.r#4#i.E.p.p#F#F#k.K.Q.kaF",
"#6#Xay.c`0a`a`a`a`.c.e.sa#`0`0.E.A#z.r.w#j`U.f.na`ae#B#B#c#s.T#6",
"#6.s`Ra#a`.c.c.c.ca#.I.G.Ea``0a#`r.i#W#j`.#8#1##`##Gaeac`y`Saq#6",
"#6ai..#x#H#H#H.OagagaN.C.Oahar#x#g`K#e`U#3#3`n`U#L`u`H#a`Q#s.T#6",
"#6#K`1af.6.6.6.6af`maf#Y#T#T#T#Y`g.8#Y`t.t`P#Qak`P.X.x`b#YaN.V#6",
"#6#6#C#K#K#K#K#K#K#K#K#K#K.R`qaC.j.4.V`O.sah#n.y#A.uaN.h.R#K`M#6",
"#6#6#6#6#6#6#6#6#6#6#6#6#6#6#6#6#6#6#6#6#6`q`i#J`k.TaC#6#6#6#6#6"
};
