/* XPM */
static char *contour2line_xpm[] = {
/* width height num_colors chars_per_pixel */
"    32    32      256            2",
/* colors */
"`` c #04329c",
"`. c #04a6a4",
"`# c #849ecc",
"`a c #84d29c",
"`b c #fcf24c",
"`c c #d4d2cc",
"`d c #84868c",
"`e c #c4eacc",
"`f c #1466bc",
"`g c #e4f6b4",
"`h c #e4eaf4",
"`i c #a4deb4",
"`j c #f49a94",
"`k c #449acc",
"`l c #e4f6dc",
"`m c #044eac",
"`n c #5c6a84",
"`o c #5cc274",
"`p c #7c868c",
"`q c #94dad4",
"`r c #54baec",
"`s c #f45a5c",
"`t c #d4ee8c",
"`u c #b4b6b4",
"`v c #fcf6e4",
"`w c #fccecc",
"`x c #f47a74",
"`y c #94da94",
"`z c #c4c2bc",
"`A c #6ccae4",
"`B c #244684",
"`C c #acdef4",
"`D c #6482c0",
"`E c #a4a2ac",
"`F c #e4e2d8",
"`G c #d4eecc",
"`H c #7ccee9",
"`I c #6c8ec4",
"`J c #2c4e84",
"`K c #f4f6fc",
"`L c #fcb6b4",
"`M c #f4eeec",
"`N c #fcf67c",
"`O c #44527c",
"`P c #0442ac",
"`Q c #ecf694",
"`R c #fcfab4",
"`S c #6c7284",
"`T c #f48a8c",
"`U c #84d2ac",
"`V c #fcf264",
"`W c #b4e6c4",
"`X c #f4727c",
"`Y c #94daac",
"`Z c #84aacc",
"`0 c #d4d6dc",
"`1 c #74d2f4",
"`2 c #bce2f4",
"`3 c #d4f2ec",
"`4 c #345eac",
"`5 c #fcc2c6",
"`6 c #2ca2a8",
"`7 c #e4f6fa",
"`8 c #4c72bc",
".` c #f47a8c",
".. c #6ccef4",
".# c #7486b4",
".a c #7c92c2",
".b c none",
".c c #f4f2ec",
".d c #fcfe7f",
".e c #143e8c",
".f c #fcfec7",
".g c #8cd695",
".h c #c4eaec",
".i c #7cce94",
".j c #8cd6f4",
".k c #f46264",
".l c #b4c2dc",
".m c #f4feec",
".n c #9cdaa0",
".o c #2446a4",
".p c #6c8acc",
".q c #b4ae9c",
".r c #dce2ec",
".s c #7cd2f4",
".t c #e4dad4",
".u c #1c4694",
".v c #eceae4",
".w c #f4aaac",
".x c #f4e2d4",
".y c #c4cadc",
".z c #34468c",
".A c #b4e6fc",
".B c #6c86b8",
".C c #7ccaf4",
".D c #748ec0",
".E c #2c52ac",
".F c #fcf6f4",
".G c #fceefc",
".H c #fcfa72",
".I c #bce6cf",
".J c #dcd6cc",
".K c #fccacc",
".L c #143ea4",
".M c #94d6fc",
".N c #143a84",
".O c #9c9ea4",
".P c #fcfa5c",
".Q c #848ec4",
".R c #3c66b4",
".S c #a4debc",
".T c #64ca84",
".U c #64c6ef",
".V c #f48684",
".W c #cccacc",
".X c #2c4684",
".Y c #b4e2fc",
".Z c #a4aacc",
".0 c #e4e2e4",
".1 c #d4f2e4",
".2 c #fceae9",
".3 c #fcfa8c",
".4 c #445a84",
".5 c #fcfa94",
".6 c #fcfabc",
".7 c #94a6cc",
".8 c #dceeec",
"#` c #fcc2dc",
"#. c #749ad4",
"## c #34be84",
"#a c #ecdacc",
"#b c #8c96a4",
"#c c #5c7ab4",
"#d c #54a6cc",
"#e c #fce6fc",
"#f c #747e8c",
"#g c #fcb6d4",
"#h c #0cb2a4",
"#i c #f4869c",
"#j c #f49694",
"#k c #fcd2ec",
"#l c #5c729c",
"#m c #bccae4",
"#n c #fcb2b4",
"#o c #9caed4",
"#p c #a4aabc",
"#q c #fcbec4",
"#r c #5c6e9c",
"#s c #0c368c",
"#t c #8cd6ac",
"#u c #c4eae4",
"#v c #f49aac",
"#w c #8496c4",
"#x c #9cdaac",
"#y c #cceafc",
"#z c #fcfee1",
"#A c #8c9ac4",
"#B c #dccec4",
"#C c #ecf2ac",
"#D c #ace2ac",
"#E c #ecfadc",
"#F c #64c67c",
"#G c #5cbef4",
"#H c #ccc6bc",
"#I c #dcf2cf",
"#J c #3c62b1",
"#K c #ecf6fc",
"#L c #74caf4",
"#M c #1c428c",
"#N c #bcc6df",
"#O c #bcaaa4",
"#P c #e4e6f4",
"#Q c #344ea4",
"#R c #bcbab4",
"#S c #84d6bc",
"#T c #d4eefc",
"#U c #f46274",
"#V c #eceef4",
"#W c #748ecc",
"#X c #dcdadc",
"#Y c #4c5e84",
"#Z c #fcfea4",
"#0 c #dcf2fc",
"#1 c #5c7ec4",
"#2 c #1c66b4",
"#3 c #74caec",
"#4 c #344e7f",
"#5 c #fcf2e4",
"#6 c #0ca6a4",
"#7 c #f47a84",
"#8 c #94daa4",
"a` c #fcfe8c",
"a. c #fcfed4",
"a# c #8cd6a4",
"aa c #c4eafc",
"ab c #7ccea4",
"ac c #4466b4",
"ad c #34be94",
"ae c #0c369c",
"af c #9cdabc",
"ag c #fcfeec",
"ah c #84d69c",
"ai c #fcf654",
"aj c #e4eef0",
"ak c #5cc67c",
"al c #f45e64",
"am c #fcfadc",
"an c #c4c6c4",
"ao c #ace2f6",
"ap c #6486c4",
"aq c #fcfa7d",
"ar c #fcfeac",
"as c #6c768c",
"at c #f48e94",
"au c #fcf667",
"av c #f4767f",
"aw c #bce6f7",
"ax c #fcc6c4",
"ay c #f47e94",
"az c #144294",
"aA c #8cdafc",
"aB c #f4666c",
"aC c #9cdea4",
"aD c #7ccef5",
"aE c #fcfafa",
"aF c #bcead0",
"aG c #dcdad3",
"aH c #14429c",
"aI c #94daf8",
"aJ c #9ca2ac",
"aK c #a4e2c4",
"aL c #2c4a7c",
"aM c #fceee4",
"aN c #fcfe9c",
"aO c #94aad4",
"aP c #5c7ebc",
"aQ c #74cef7",
"aR c #a4a6ac",
"aS c #f4fafc",
"aT c #e4e6e4",
"aU c #445e84",
"aV c #fcfebc",
"aW c #ecf6ac",
"aX c #ecfafc",
"aY c #7492cc",
"aZ c #84d2a4",
"a0 c #fcf254",
"a1 c #c4ead4",
"a2 c #f49a9c",
"a3 c #e4f6e4",
"a4 c #f45a64",
"a5 c #f47a7c",
"a6 c #94da9c",
"a7 c #6ccaec",
"a8 c #24468c",
/* pixels */
".b.b.b.b.b.b.b.b.b.b.b.b.b.b.b.b.b.b.b.b.b.b.b.b.b.b.b.b.b.b.b.b",
".b#o#Q.E`0aO.o.E`0aO.o.E`0aO.o.E`0aO.o.E`0aO.o.E`0aO.o#J#J#waE.b",
".b`##M#Y.O#N#l#Y.O#N#l#Y.O#N#r.4.O#N#r#Y.O#N#l#Y.O#N#r`n#M`J.t.b",
".baYa8.q.0.b.v.t`F.b.v.t.v.b#5.x.2.b#5aG`F.b.v.t`F.b.v.t#c#4`c.b",
".b.p.N#R.b.b.b.b.b.b.b.b.j#3#3aQaQ`A.j.b.b.b.b.b.b.b.b.b.F`z.v.b",
".b#V`Ean.b.b.b.b.bawa7#Gaa#T#y#T#T#T.Y`r.Uaw.b.b.b.b.b.b`D.aaE.b",
".b#m.7.F.baE.b.YaQ.C#K`e`a.na6a6a6`y.m.baS.C.U.Y.b.b.b.b#J`B.t.b",
".b.B.e`c.b.b.Y.M`q#D`oaf#u#u#u.h#u.h.iak`W.b#0aDaI#0aE.b`D#4`c.b",
".b#W.N`u.baw`A.ga#`W.b.6`N`Naqaq`N`Nam.b#8ab.n.b.s.Y.b.b.F`zaT.b",
".b#VaJ#Bawa7a6#u.f.5`Vaqa..fa..fa.a..Ha0.H#C.S#t.bao`C.b#1.aaE.b",
".b#N.Z.Y`Ha#`laq`V.f.b.b#vay#i#i#iay.2.b.b.daN.I`Y.baDaaac`B.t.b",
".bap.z#dad#E`N.6.b`5ava4`L`5axax`5`5`x`s#n.G`RaN.S#D#0...QaL#B.b",
".b.Daz`6ah.Ham.ba2a5.2.b.b.b.b.b.b.b.b.b`T`x#e.HaW`U`3aDaj#HaT.b",
".b`M`Z`.`Q`N.b`j.w.b.b.b.b.b.b.b.b.b.b.b.b.2`X#z.daZ#IaI`f#AaE.b",
".b.y#.`.`t`N.ba5.K.baEaE.b.b.b.b.b.baEaE.b.bal.b.P`a#IaA`m#4.t.b",
".b.B`P#h#C.H.b.2.V`5.b.b.b.b.b.b.b.b.b.b`w`T#`.3aVab#IaI`f`O`c.b",
".b#WaH`6#S.f`N.b.G#7.Va5.2.b.b.b.b.ba2a5.`#q#zaua3a#`3aD.8#HaT.b",
".baj#O`k###KaVa0`R.b#k#`av.kaBaBaB#U#g#`.fa``b.baK#D#T`1.a.DaE.b",
".b#N#o`2`H.ga3.b`N`V.d.dag.b.b.b.baV.d.d`V`R.b.I#8.baDaaac`B.t.b",
".b.B.e.t.Y`Aa6`e.b.b`R.6auaiaiaiai`N.6.6.b#K`ia#.b`H`C.b#1#4#B.b",
".b#W.N`u.baw#3.g.g.I.b.b.b.b.b.b.b.b.b.b#8.iaC.baD.Y.b.b`v`z#P.b",
".b#V`Ean.b.b.Y.j`q#D#F.T.I`ea1a1`e`Y#F.T`W.b#0aD.Y.b.b.b`D.a.b.b",
".b#m.7.F.baE.b.Y#L.C`7.b#xa6a6.n.g`G.b.b`K.C.U.Y.b.baE.b#J`B.t.b",
".b.B.e`c.b.b.b.b.bawa7`raD#T#T#T#Taa.U`r.Uaw.b.b.b.b.b.b`D#4`c.b",
".b#W.N#R.b.b.b.b.b.b.b.b`7a7#La7#L#L`7.b.b.b.b.b.b.b.b.b.F`zaT.b",
".b#V`Ean.b.b.b.b.b.b.b.b.b.b.b.b.b.b.b.b.b.b.b.b.b.b.b.b`D.aaE.b",
".b#m.7aE.b.b.b.b.b.b.b.b.b.b.b.b.b.b.b.b.b.b.b.b.b.b.b.b.R.XaG.b",
".b.B.e.W#P`K.b`h#P`K.b`h#P`K.b`h`h`K.b`h`h`K.b`h`h`KaE`h`8#4.J.b",
".baY#saH``.B`0ae``.#`0ae``.#`0````.#`0ae``.#`0ae``.#`0``aH#Y.J.b",
".b#P#b#f`S`d#X#p`S`p#X#p`S`p#X#p`S`d`0#p`S`d`0#p`S`p#X#p`S`p.0.b",
".b.b.F.c.c`MaE.b`M`M.b.b`M#V.b.b.c.c.b.b`M#V.b.b`M`MaE.b`M#VaE.b",
".b.b.b.b.b.b.b.b.b.b.b.b.b.b.b.b.b.b.b.b.b.b.b.b.b.b.b.b.b.b.b.b"
};
