/* XPM */
static char *contourparaanaly_xpm[] = {
/* width height num_colors chars_per_pixel */
"    32    32      256            2",
/* colors */
"`` c #8c0204",
"`. c #0489f3",
"`# c #a48234",
"`a c #8cce08",
"`b c #8cce84",
"`c c #c4c2c4",
"`d c #94968c",
"`e c #a4a6a4",
"`f c #c4e6fc",
"`g c #ace6b4",
"`h c #247eac",
"`i c #84c2ec",
"`j c #bcaa94",
"`k c #44a2d4",
"`l c #e4e3fc",
"`m c #b4aecc",
"`n c #e4d4fc",
"`o c #ccd4f8",
"`p c #b7878c",
"`q c #9c423c",
"`r c #e4f3dc",
"`s c #acc6cc",
"`t c #9c42a4",
"`u c #04a2fc",
"`v c #b482c8",
"`w c #b4d6c4",
"`x c #b4c789",
"`y c #b46898",
"`z c #8c028c",
"`A c #2582ae",
"`B c #bcb68c",
"`C c #ccb8dc",
"`D c #acde98",
"`E c #f4e6dc",
"`F c #d4d6d4",
"`G c #94fe04",
"`H c #c4c6fc",
"`I c #5dc1fc",
"`J c #a4c6ec",
"`K c #acc6b4",
"`L c #9c9e1c",
"`M c #bc9587",
"`N c #f8f4fc",
"`O c #ac66e4",
"`P c #0793dc",
"`Q c #943204",
"`R c #84bcee",
"`S c #c4eefc",
"`T c #bcbad0",
"`U c #bcb7ac",
"`V c #7cbcec",
"`W c #bcce9c",
"`X c #8c8e4c",
"`Y c #94fecc",
"`Z c #b4a6c4",
"`0 c #e4edef",
"`1 c #b494cc",
"`2 c #b4ce88",
"`3 c #9c22a4",
"`4 c #ccb9f1",
"`5 c #d7d5fc",
"`6 c #9cf244",
"`7 c #b49aa4",
"`8 c #dac6bc",
".` c #9c6e1c",
".. c #bcc4d4",
".# c #b8d6e4",
".a c #9496cc",
".b c #c4acf8",
".c c #ccdee4",
".d c #ebf3fc",
".e c #a476ac",
".f c #faecfc",
".g c #d4ccea",
".h c #b6ccfc",
".i c none",
".j c #b47ecc",
".k c #1492dc",
".l c #77c9fc",
".m c #840240",
".n c #1c86e4",
".o c #b4cc74",
".p c #a4a2c4",
".q c #dce4fc",
".r c #8c46fc",
".s c #24aaf4",
".t c #acc999",
".u c #2490e8",
".v c #a48254",
".w c #dbdcfc",
".x c #acdee4",
".y c #8ccecc",
".z c #b8b29c",
".A c #c4b2cc",
".B c #e5dcfc",
".C c #b484b4",
".D c #8c464c",
".E c #c4baa4",
".F c #bcc8bc",
".G c #a49e54",
".H c #b99b9c",
".I c #a47ecc",
".J c #c4bec4",
".K c #acee54",
".L c #d4cecc",
".M c #c4def5",
".N c #a476c4",
".O c #8c0c08",
".P c #048efc",
".Q c #84ce3c",
".R c #8cfe8c",
".S c #75b6ed",
".T c #ece4fc",
".U c #bcb2cc",
".V c #accacc",
".W c #bc86e4",
".X c #8c02cc",
".Y c #3482ac",
".Z c #bcbe9c",
".0 c #d4becc",
".1 c #bcd6a4",
".2 c #accafc",
".3 c #0492fc",
".4 c #a42244",
".5 c #acb2ec",
".6 c #dcefee",
".7 c #ace6cc",
".8 c #ecedfc",
"#` c #cc92fc",
"#. c #747a7c",
"## c #ac4a54",
"#a c #a47a4c",
"#b c #94568c",
"#c c #9c32f4",
"#d c #ac92cc",
"#e c #ac56cc",
"#f c #945604",
"#g c #949604",
"#h c #a43254",
"#i c #ac8e54",
"#j c #9cf614",
"#k c #9456cc",
"#l c #9cf674",
"#m c #c472fc",
"#n c #ac96b4",
"#o c #9ccac4",
"#p c #a432a4",
"#q c #9cf2f4",
"#r c #8c8efc",
"#s c #ac56b4",
"#t c #34aaec",
"#u c #b45a74",
"#v c #a4f6a4",
"#w c #9cf2a4",
"#x c #a43234",
"#y c #84fefc",
"#z c #9c9674",
"#A c #acaa74",
"#B c #84d1fc",
"#C c #8402fc",
"#D c #b48874",
"#E c #9c72f4",
"#F c #a4f654",
"#G c #9cca3c",
"#H c #b4aebc",
"#I c #8cfe44",
"#J c #9ccaa4",
"#K c #c49ea4",
"#L c #b47c9a",
"#M c #9c7674",
"#N c #b496ec",
"#O c #ac78e8",
"#P c #b49674",
"#Q c #dcdedc",
"#R c #3cb6fc",
"#S c #a4bee4",
"#T c #a432cc",
"#U c #a4f2cc",
"#V c #a49ecc",
"#W c #b4daac",
"#X c #f7e5fc",
"#Y c #bcdaf4",
"#Z c #9c0e14",
"#0 c #9c3674",
"#1 c #b48ec4",
"#2 c #a4f634",
"#3 c #ac72e4",
"#4 c #14a1f4",
"#5 c #6cc2f4",
"#6 c #9c92f4",
"#7 c #f4defc",
"#8 c #acea74",
"a` c #c4afbc",
"a. c #c4cab4",
"a# c #54a2cc",
"aa c #2c8abc",
"ab c #74c2fc",
"ac c #d4bef4",
"ad c #a49ea4",
"ae c #9c42c4",
"af c #9c22c4",
"ag c #945624",
"ah c #949624",
"ai c #9cf2c4",
"aj c #b8adac",
"ak c #b9aadf",
"al c #b4b6a4",
"am c #b8b6c4",
"an c #bc98bc",
"ao c #d4c2d4",
"ap c #b9d4fc",
"aq c #aca6dc",
"ar c #c4eafc",
"as c #c4becc",
"at c #d8eaf8",
"au c #bc8aac",
"av c #a8a650",
"aw c #8cfe1c",
"ax c #a49e34",
"ay c #bc9acc",
"az c #acce9c",
"aA c #ecfafc",
"aB c #7ccefc",
"aC c #b4b2e4",
"aD c #c486fc",
"aE c #ccbee4",
"aF c #8cd6fc",
"aG c #aca7a8",
"aH c #d4bad4",
"aI c #b4da8c",
"aJ c #dcd2e4",
"aK c #ccc4f4",
"aL c #d4baf4",
"aM c #ccbab4",
"aN c #dccabc",
"aO c #8c0a84",
"aP c #a47ea4",
"aQ c #8c021c",
"aR c #c4f6fc",
"aS c #8c0acc",
"aT c #049afc",
"aU c #7cc2ec",
"aV c #94ca04",
"aW c #ccc6bc",
"aX c #cce2f4",
"aY c #b4c5c9",
"aZ c #0c9ef4",
"a0 c #bcd2cc",
"a1 c #acc6e7",
"a2 c #b4c9b9",
"a3 c #c4b6cc",
"a4 c #1c92dc",
"a5 c #aca6cc",
"a6 c #b4c69c",
"a7 c #ccdaf4",
"a8 c #bcba9c",
/* pixels */
".i.i.i.i.i.i.i.i.i.i.i.i.i.i.i.i.i.i.i.i.i.i.i.i.i.i.i.i.i.i.i.i",
".i.dararararararararararararararararararararararararararar.d.i.i",
"ar.l`I`I`I`I`I`I`I`I`I`I`I`I`I`I`I`I`I`I`I`I`I`I`I`I`I`I`I`I.#.i",
"#R`V`J`J#S`J`J#S`J`J#S`J`J#S`J`J#S`J`J#S`J`J#S`J`J#S`J`J#S`R`kaJ",
"`u.u.n.n.n.n.n.n.n.n.n.n.n.n.n.n.n.n.n.n.n.n.n.n.n.n.n.n.n.u`Paj",
"`u`.`.`.`.`.`.`.`.`.`.`.`.`.`.`.`.`.`.`.`.`.`.`.`.`.`.`.`.`.`P`e",
"`u.3.P.P.P.P.P.P.P.P.P.P.P.P.P.P.P.P.P.P.3.P.P.P.3.P.P.3.3.3`PaG",
".s`VaUaU`iaUaU`i`VaUaU`VaU`i`VaU`V`V`V`V`V.S`V.S.S.S.S.S.S.S.k`e",
"#4aX.i.i.i.i.i.i.i.i.i.i.i.i.i.i.i.i.i.i.i.i.i`N.f.f.f.T#X.M.k`e",
"#4.M.i.i.i.i.i`N.0.0aJ.0aoaJ`C.gao`C.g`4`CaK.b.g.8.q.q.w`lap.k`e",
"#4.M.i.i.i.i.i.d.O```paQ.4`y.m`y`3`z.j.Xaf`O#C#m.i`l`l.q.Tap.k`e",
"#4.M.i.i.i.i.i`N###x#K#h#uau#0au#s#pan#T#e.W#c#`aA`l`l.B`lap.k`e",
"#4.M.i.i.i.i.i.8`M#DaM`p.Ha`#La`an.C.A`vayak#3aL.d`l`l.q.Bapa4`e",
"#4.M.i.i.i.i.i.d`Q.O`M.O`q#L.m#L`taO#1aSae#O#CaDaA`l`l.w.Tap.k`e",
"#4.M.i.i.i.i.i.f#P#DaM`p.Ha`#Laj#1.C.U.j`1ak#3`4.d`l`l.w`lap.k`e",
"#4.M.i.i.i.i.i.8#i`#.E.v#Paj#Maj#naP.U.I#dak#E`4.8`l`l.w.Bap.k`e",
"#4.M.i.i.i.i.i`N.`#f`jag#a`7.D.H.e#b`Z#k.N#N.r.b.d.B.q.w.Bap.k`e",
"#4.M.i.i.i.i.i.8a8`B`c`j`U.Jajamam#Has`m`m`TaqaK.8.q.B.w.Bap.k`e",
"#4.M.i.i.i.i.i.8`L#g.Zahaval`Xal`e`dam.a.p.5#r`H.8.w.w.w.Bap.k`e",
"#4.M.i.i.i.i.i.8avax.Z.G#Aal#zalaGadam#V.paC#6`H.8.w.w.w.w.h.k`e",
"#4.M.i.i.i`N.i.T`2.oa.`2a6a.az.Fa2a2...VaY..`Ja7.T.w.w.w`5ap.k`e",
"#4.M.i`N.i`N.i.TaVaV`2`a#Gaz.Q.t#J`ba2.y#oa1#B#Y.T.w.w.w`5.h.k`e",
"#4.M.i`NaA`N.i`l`x.oa.`xa6`c.t.F`c`K`T`saYa1#S`5`l.w`5`5`5.h.k`e",
"#4#Y.i`N`N`N`N`l.K#2.1#F#8#W#l#W`g#wa0#U.7.##qar.B.w.w`5`5.h.k`e",
"#4.M.i`N`N`NaA.B#j`GaIaw`6`D#I`D#w.R`w`Yai.x#yaR.B.w`5`o`5.h.k`e",
"#4.#`N.d.d.d.f.8`r`r`0`r`0`0.6`0`0.6.q.6.q.qat.q.w`o`5`o`5.2.k`e",
"aZa7.i`N`N`N`N`N`N.f`N.f.f.f.f.f#X#X.f#X#X.B#7.B`n.B`n`5`n`H`P`e",
"#t`IaF#BaF#B#BaF#B#B#B#B#B#B#B.l#BaB.l.l.l.l.l.lababab.Sab`I.YaG",
".ca#`h`h`h`h`h`h`h`h`h`h`h`h`h`h`h`h`h`h`h`A`h`h`A`h`A`A`h.Y#..L",
".i`E`8`8`8`8`8`8aN`8aN`8aN`8aN`8aN`8aNaN`8aN`8`8`8`8`8`8`8ao#Q.i",
".i.i.i.i.i.i.i.i.i.i.i.i.i.i.i.i.i.i.i.i.i.i.i.i.i.i.i.i.i.i.i.i",
".i.i.i.i.i.i.i.i.i.i.i.i.i.i.i.i.i.i.i.i.i.i.i.i.i.i.i.i.i.i.i.i"
};
