/* XPM */
static char *contourenvidence_xpm[] = {
/* width height num_colors chars_per_pixel */
"    32    32      256            2",
/* colors */
"`` c #5c4e54",
"`. c #4ca24c",
"`# c #aca6a4",
"`a c #ac4a24",
"`b c #acd6ac",
"`c c #747274",
"`d c #dcdadd",
"`e c #74da74",
"`f c #f4a69c",
"`g c #cc7624",
"`h c #7c7e7b",
"`i c #84b67c",
"`j c #b4bab0",
"`k c #dceadc",
"`l c #c478b0",
"`m c #8c8b8c",
"`n c #c4c0c0",
"`o c #7ca2ec",
"`p c #f4f1f5",
"`q c #943e34",
"`r c #aceaac",
"`s c #e484c4",
"`t c #e4523c",
"`u c #d47674",
"`v c #dcf8dc",
"`w c #647694",
"`x c #ccd2d4",
"`y c #acbadc",
"`z c #949494",
"`A c #6ca2ec",
"`B c #84528c",
"`C c #fcd5d1",
"`D c #94f294",
"`E c #8cb6e4",
"`F c #ccaed4",
"`G c #b46aac",
"`H c #ecbcf8",
"`I c #7cba74",
"`J c #64c264",
"`K c #acaeae",
"`L c #9cd29c",
"`M c #9c72ac",
"`N c #ececeb",
"`O c #c4cac9",
"`P c #cc8a8c",
"`Q c #648ad4",
"`R c #d47edc",
"`S c #dce2e4",
"`T c #f4fafc",
"`U c #cce1fc",
"`V c #acc6e4",
"`W c #9c9d9f",
"`X c #646264",
"`Y c #b4622c",
"`Z c #7c8284",
"`0 c #9ca2a4",
"`1 c #ac8e94",
"`2 c #8c6e9c",
"`3 c #bcb6c4",
"`4 c #64a264",
"`5 c #a4aec4",
"`6 c #fcc2c0",
"`7 c #b4b6b6",
"`8 c #ec8e74",
".` c #bccae4",
".. c #9cae9c",
".# c #547ec4",
".a c #d4dad8",
".b c #d4ccd0",
".c c #b4d2f4",
".d c #74e274",
".e c #bcc2c4",
".f c #dcebfc",
".g c #7c9abc",
".h c #f4f6fa",
".i c #a45b1c",
".j c #ccfacc",
".k c #9c5d91",
".l c #94c2f4",
".m c #94de9c",
".n c #ecf2f6",
".o c #e48ed4",
".p c #accefc",
".q c #ac6e6c",
".r c #a4aaaa",
".s c #4c9c4c",
".t c #e4a6e4",
".u c #f47644",
".v c #847e84",
".w c #b4babc",
".x c #b48ac4",
".y c #d4c0dc",
".z c #ecfae4",
".A c #d4d4d2",
".B c #dccadc",
".C c #b4b2b4",
".D c #ece6ec",
".E c #a49ea0",
".F c #64464c",
".G c #5cb164",
".H c #ecdadc",
".I c #7c7d84",
".J c #849884",
".K c #84b0e8",
".L c #fcf0f8",
".M c #acfaac",
".N c #d49397",
".O c #ec6a2c",
".P c #f47e64",
".Q c #a496b0",
".R c #f4d2fc",
".S c #9cbee4",
".T c #c472ac",
".U c #94ca94",
".V c #6ccb71",
".W c #ecedf4",
".X c #cccbcb",
".Y c #dc8e8c",
".Z c #6c93bc",
".0 c #e4e3e3",
".1 c #acc9f7",
".2 c #6c6c6c",
".3 c #a4a4a4",
".4 c #5c84cc",
".5 c #e4f2fc",
".6 c #a4dea0",
".7 c #d4d4dc",
".8 c #bca2c4",
"#` c #acdeac",
"#. c #c496d4",
"## c #748e74",
"#a c #b45e54",
"#b c #fc6e5c",
"#c c #948284",
"#d c #f4cafc",
"#e c #6c5a5c",
"#f c #c46e64",
"#g c #cc7228",
"#h c #a45254",
"#i c #e48acc",
"#j c #9c4a2c",
"#k c #a466ac",
"#l c #84e27c",
"#m c #4c5a74",
"#n c #dc8efc",
"#o c #84d284",
"#p c #d48684",
"#q c #5c86ac",
"#r c #ec967c",
"#s c #64b264",
"#t c #e4aef4",
"#u c #94b1e6",
"#v c #f4b6ac",
"#w c #746264",
"#x c #f45a54",
"#y c #ecc6f4",
"#z c #ac72b4",
"#A c #ec822c",
"#B c #747e8c",
"#C c #ac4e4c",
"#D c #e49af4",
"#E c #a4c6a4",
"#F c #fc928c",
"#G c #94fe8c",
"#H c #e49ad4",
"#I c #f4ddfc",
"#J c #8c868c",
"#K c #e49694",
"#L c #cc7840",
"#M c #745e84",
"#N c #ecfeec",
"#O c #dcdee4",
"#P c #5c7ea4",
"#Q c #74aaf4",
"#R c #e4c2ec",
"#S c #84c284",
"#T c #94da8c",
"#U c #c4622c",
"#V c #ac66c4",
"#W c #849ed4",
"#X c #a45ea4",
"#Y c #54aa54",
"#Z c #bc7eb4",
"#0 c #84568c",
"#1 c #a47ab4",
"#2 c #94e694",
"#3 c #b4feb4",
"#4 c #e47224",
"#5 c #ec865c",
"#6 c #c49edc",
"#7 c #6c966c",
"#8 c #c4c6c8",
"a` c #acc2ec",
"a. c #ecf6fc",
"a# c #e4daec",
"aa c #94baf4",
"ab c #f48a84",
"ac c #5c7ab4",
"ad c #bc86d0",
"ae c #e4ceec",
"af c #8caeec",
"ag c #6482bc",
"ah c #cc6a54",
"ai c #a44c38",
"aj c #8ce68c",
"ak c #ecb2e4",
"al c #8c9294",
"am c #9cb694",
"an c #a46eb4",
"ao c #dcfedc",
"ap c #e4eaec",
"aq c #6c8ac4",
"ar c #6cb274",
"as c #dc7a6c",
"at c #8c4e94",
"au c #a476b4",
"av c #bcd3fc",
"aw c #7cde7c",
"ax c #e4eef8",
"ay c #d4fed4",
"az c #eca2ec",
"aA c #bcbdbe",
"aB c #b4f6b4",
"aC c #9cc69c",
"aD c #b4caf4",
"aE c #b4e1b4",
"aF c #ec86d4",
"aG c #8cbaf4",
"aH c #acaebc",
"aI c none",
"aJ c #d4e2fc",
"aK c #848484",
"aL c #bccef4",
"aM c #d4cadc",
"aN c #9cc6f4",
"aO c #9ce29c",
"aP c #84b2f4",
"aQ c #6c92cc",
"aR c #e4e6ec",
"aS c #a4a6ac",
"aT c #74565c",
"aU c #ec7e3c",
"aV c #54a254",
"aW c #b4eab4",
"aX c #74a2e4",
"aY c #6cc268",
"aZ c #6ca26c",
"a0 c #b4cef4",
"a1 c #a4beec",
"a2 c #e48e88",
"a3 c #d48a8c",
"a4 c #b4b6c4",
"a5 c #8cd284",
"a6 c #ac72c4",
"a7 c #cc9edc",
"a8 c #acaaac",
/* pixels */
"aI`z`z`z`z`z`z`z`mal`z`z`z`z`z`zaK`z`z`z`z`z`z`m`m`z`z`z`z`z`m.3",
".3`m.0.a.0aR.0`N`0a8.0.a`S#O`S`x.2`S#O#O#O#O.0`W`KaR.a`S#O#O.a`z",
"a8`0aIaI.favaDaJ`K`OaIaIaIaIaI.W`ZaIaIaIaI`TaI.w.XaIaIaIaIaI`T.3",
"a8`WaI`V#uaL.1aG`Q.`aI`T`T.haIap.I`T.h`T`T`TaI.C#8aI.h`T`T`T.n`W",
".3.3axafax.5`U.paP`o.n`T`T`TaIap`haIaI`N.H.DaI.w#8aI.h`T`TaI`p`0",
"aS`#avaD.f.f`U.p.l`Aa1aIaI.haIap`Z`p.N#p.Y`u.Y.E`OaI`TaI.h`T.h`W",
".3.rav.1`U`Ua0aNaG#Q#uaIaI`TaI.W`Z.N#K`C`6#F#x#C.7aIaIaI`TaI.h`W",
"aS.3aD#ua`.S`E.K.KaX#W.D.n`p.hapaTa2`C`C`6ab#b`t.N`T.W`p.n`p`N`W",
".C`h`5aQ.g.Z.Z.Zaq.4#Ba8`K`K`K.r``a2#v#v`f.P.u.O#a`K`K`K`K`K.r`m",
".3.3aI#u.##P#P#q.#`w.AaIaIaIaI`TaTas`8`8#5aU#A#4#f.haIaIaIaIaI`0",
"a8`WaI`p`yaqacag#m`WaIaIaIaIaI.n#wah#L#L#g#g#g#U.q.naIaIaIaI`p.E",
"a8`WaIaIaI.0aA.X.E#8aIaIaIaIaI`N`Za3`a.i.i.i`Y`q`WaIaIaIaIaI.h.3",
"a8`0aIaIaIaIaIaIaA`naIaIaIaIaI`NaK.L`Pai#j#j#h``#8aIaIaIaIaI.h`W",
"a8`WaI.haIaI.haI.C#8aIaIaI.haI`N`haIaI.b`1.v`7.3.XaI.haI.haI.h.E",
".3.3aIaIaIaIaIaI`n.XaIaIaIaIaI.haKaIaIaIaIaIaI`n.XaIaIaIaIaIaI.3",
"`7`h.Ca8`K.Ca8.C.v.J#``L`b`j.C.3`Xa8a8a8.Ca8.CaK`m.Ca8`K`K.C.3`m",
"`K`m`d.A`d.A.a`dam`IaWaWajaY#E.b`c`d.a`d.A.A`d`W`K`d.A`d`d.A.A`z",
"`#.3aIaIaIaIaI.z#Tao#Nay#3#G#l`kaKaIaIaIaIaIaIaA.XaIaIaIaIaIaI.3",
"a8`0aIaIaIaIaIaE.6`vao.j.M`D`e.U.vaIaIaIaIaIaI.C.XaIaIaIaIaI.h.E",
"a8`WaIaIaIaIaIaEaO.j.jaB#2aw`e#S.vaIaIaIaI.haI`7#8ae`F.y.WaI.h.E",
"a8`WaI.haI.haIaEa5.6.m#o.VaY.V`I`haI.haIaI.haI`3`M#6a7ada6#R`T`W",
".r.3aIaIaIaIaIaxaYar.G.G.G.G`J..aKaIaIaIaIaIaI.x#R.L#I`H#n#VaM.r",
"a8`z`paR`N`Nap`paC.s.s.saV#Y#7`3`h`N`NaR`N.WaM#.#I.R.R#t#D`R#z`W",
".C`h`7.C.C`K.C`j#J.J.U`4aZ##`z.C`X.C`K.C.C`7.Q#.#d#y`H.t.oaF#kaK",
"`#`0aIaIaIaIaIaI`j.XaI`d.b`paI`N`haIaIaIaIaIa#adak.t#H`s`s`san`z",
"a8`WaI.h`T`T.haI`7aAaIaIaI`TaIap.I`T`T`T.h`T.W#z#Z`l.T.T`l`G`2`z",
"a8`WaI.h`T`T.haI`7#8aI.h.h`T`Tap.IaI`T`T`T.haI.8at.k.k.k.k`B.3`0",
".r`WaI`T`T`T.haI`7.eaI.h`T`T`Tax`h`T`T.h`T.haI.w.Q`M`B#0#M`Wax.3",
"a8`WaI.n.ha.a.aI.CaAaIa..ha.`TaR`h.ha..ha.a.aI`K`Oa.`7aS.ea..n`W",
".3.3aIaIaIaIaIaI.w`OaIaIaIaIaI.n.IaIaIaIaIaIaI.w.XaIaIaIaIaI`T.3",
".CaK#8.e.e.e.e.X`z`W#8.e.e.e#8`7.2.e.e.e.e.e#8`z`W#8aA.e.e#8.w`z",
".0`WaK`m`m`m`maK`zal#J`m`m`m`m`m`W`m`m`m`m`m#Jal`z`m`m`m`m`maK.C"
};
