/* XPM */
static char *contourfeature_xpm[] = {
/* width height num_colors chars_per_pixel */
"    32    32      256            2",
/* colors */
"`` c #1c264c",
"`. c #9c9eac",
"`# c #d4d2dc",
"`a c #44567c",
"`b c #b4bac4",
"`c c #e4eaec",
"`d c #343e64",
"`e c #a4aebc",
"`f c #bcc6cc",
"`g c #647294",
"`h c #3c4a6c",
"`i c #f4f6f4",
"`j c #9ca6b4",
"`k c #dcdee4",
"`l c #4c5e84",
"`m c #c4c2d4",
"`n c #4c5274",
"`o c #bcc2cc",
"`p c #f4f2f4",
"`q c #44527c",
"`r c #243254",
"`s c #bcbac4",
"`t c #b4b2c4",
"`u c #cccadc",
"`v c #444e74",
"`w c #e4e6ec",
"`x c #a4a2bc",
"`y c #4c567c",
"`z c #ecf2f4",
"`A c #34466c",
"`B c #c4ced4",
"`C c #3c4a7c",
"`D c #fcfefc",
"`E c #9ca2bc",
"`F c #eceaec",
"`G c #acb6c4",
"`H c #747e94",
"`I c #fcfafc",
"`J c #acaac4",
"`K c #e4e2ec",
"`L c #54628c",
"`M c #343a5c",
"`N c #bcbed4",
"`O c #9ca2b4",
"`P c #dcdae4",
"`Q c #acaec4",
"`R c #c4c6d4",
"`S c #3c4e74",
"`T c #f4fafc",
"`U c #a4a6bc",
"`V c #dce2ec",
"`W c #4c6284",
"`X c #2c3a5c",
"`Y c #bcbecc",
"`Z c #4c5a7c",
"`0 c #3c466c",
"`1 c #eceef4",
"`2 c #242e54",
"`3 c #9c9eb4",
"`4 c #d4d6e4",
"`5 c #445a7c",
"`6 c #b4bacc",
"`7 c #34426c",
"`8 c #bcc6d4",
".` c #6c768c",
".. c #3c4a74",
".# c #f4f6fc",
".a c #dcdeec",
".b c #4c5e8c",
".c c #f4f2fc",
".d c #2c365c",
".e c #bcbacc",
".f c #b4b6cc",
".g c #e4e6f4",
".h c #344674",
".i c #c4cedc",
".j c #3c4e7c",
".k c #eceaf4",
".l c #7c829c",
".m c #acb2c4",
".n c #a4aabc",
".o c #4c5a84",
".p c #000000",
".q c #000000",
".r c #000000",
".s c #000000",
".t c #000000",
".u c #000000",
".v c #000000",
".w c #000000",
".x c #000000",
".y c #000000",
".z c #000000",
".A c #000000",
".B c #000000",
".C c #000000",
".D c #000000",
".E c #000000",
".F c #000000",
".G c #000000",
".H c #000000",
".I c #000000",
".J c #000000",
".K c #000000",
".L c #000000",
".M c #000000",
".N c #000000",
".O c #000000",
".P c #000000",
".Q c #000000",
".R c #000000",
".S c #000000",
".T c #000000",
".U c #000000",
".V c #000000",
".W c #000000",
".X c #000000",
".Y c #000000",
".Z c #000000",
".0 c #000000",
".1 c #000000",
".2 c #000000",
".3 c #000000",
".4 c #000000",
".5 c #000000",
".6 c #000000",
".7 c #000000",
".8 c #000000",
"#` c #000000",
"#. c #000000",
"## c #000000",
"#a c #000000",
"#b c #000000",
"#c c #000000",
"#d c #000000",
"#e c #000000",
"#f c #000000",
"#g c #000000",
"#h c #000000",
"#i c #000000",
"#j c #000000",
"#k c #000000",
"#l c #000000",
"#m c #000000",
"#n c #000000",
"#o c #000000",
"#p c #000000",
"#q c #000000",
"#r c #000000",
"#s c #000000",
"#t c #000000",
"#u c #000000",
"#v c #000000",
"#w c #000000",
"#x c #000000",
"#y c #000000",
"#z c #000000",
"#A c #000000",
"#B c #000000",
"#C c #000000",
"#D c #000000",
"#E c #000000",
"#F c #000000",
"#G c #000000",
"#H c #000000",
"#I c #000000",
"#J c #000000",
"#K c #000000",
"#L c #000000",
"#M c #000000",
"#N c #000000",
"#O c #000000",
"#P c #000000",
"#Q c #000000",
"#R c #000000",
"#S c #000000",
"#T c #000000",
"#U c #000000",
"#V c #000000",
"#W c #000000",
"#X c #000000",
"#Y c #000000",
"#Z c #000000",
"#0 c #000000",
"#1 c #000000",
"#2 c #000000",
"#3 c #000000",
"#4 c #000000",
"#5 c #000000",
"#6 c #000000",
"#7 c #000000",
"#8 c #000000",
"a` c #000000",
"a. c #000000",
"a# c #000000",
"aa c #000000",
"ab c #000000",
"ac c #000000",
"ad c #000000",
"ae c #000000",
"af c #000000",
"ag c #000000",
"ah c #000000",
"ai c #000000",
"aj c #000000",
"ak c #000000",
"al c #000000",
"am c #000000",
"an c #000000",
"ao c #000000",
"ap c #000000",
"aq c #000000",
"ar c #000000",
"as c #000000",
"at c #000000",
"au c #000000",
"av c #000000",
"aw c #000000",
"ax c #000000",
"ay c #000000",
"az c #000000",
"aA c #000000",
"aB c #000000",
"aC c #000000",
"aD c #000000",
"aE c #000000",
"aF c #000000",
"aG c #000000",
"aH c #000000",
"aI c #000000",
"aJ c #000000",
"aK c #000000",
"aL c #000000",
"aM c #000000",
"aN c #000000",
"aO c #000000",
"aP c #000000",
"aQ c #000000",
"aR c #000000",
"aS c #000000",
"aT c #000000",
"aU c #000000",
"aV c #000000",
"aW c #000000",
"aX c #000000",
"aY c #000000",
"aZ c #000000",
"a0 c #000000",
"a1 c #000000",
"a2 c #000000",
"a3 c #000000",
"a4 c #000000",
"a5 c #000000",
"a6 c #000000",
"a7 c #000000",
"a8 c #000000",
/* pixels */
"`D`K.m`G.m`G.m`G.m`G.m`G.m`G.m`G.m`G.m`G.m`G.m`G.m`G.m`G`G.m.i`D",
"`k`g.h.h.j`C`C.h.j`C.j`C.j.j.j`C.j.j.j`C.j.j.j.j.j.j.j`C.j.h`a`u",
"`8`q.o`l.o`Z.o`l.o.o`l.o.o.o`l`l`l.o`l`l`l.b`l`l.b`l.b`W.b`L.j`e",
"`R`q`q`a`q`a`a`a`a`a`a`a`a`a`a`y`a`5`y`a.o`y`5.o.o.o`Z.o.o`l..`G",
"`f`S..`0`A...h`0....`0..........`C..`C`S`C`S`C..`S...j`S`S`q`7.m",
"`R`0`H`B`o`R`R`8`R`8`R`8`R`R`8`R`R`8`R`R`8`R`B`R`R`R`R`8`u`e`7`e",
"`f`d`R`D`I`I`I`I`I`I`I`I`I`I`I`I`I`I`I`I`I`I`I`T`I`I`I`I`I`1.j.n",
"`8`d`o`I`K`K`w`w`w`w`w`w`w`w`w`w`w`w`w`w`w`w`K`w`w`w`w`w.g`P`h`U",
"`o.d`o`I.g`1.k`1.k`1.k.k.k.k`1.k`1.k`1.k`1.k`1.k`1.k`1`c.k.a`A`U",
"`o.d`Y`I`w`w`K`w`K`V.k`c.k`w`K`w`K`w`K`w`K`w`K`w`K`w`K.g`1`k`7`j",
"`Y.d`s`D`K`t`Q`Q`Q`Q`K`1.g`t`Q`Q`Q`Q`Q`Q`Q`Q`Q`Q`Q`Q`Q`#.c`k`d`O",
"`o`2`Y`D`K`Q`E`U`x`E`K`p.g`J`E`U`U`U`U`U`U`U`U`U`U`x`E`#.#`K`M`O",
"`o`r`Y`D.g`N.f.e`6.f`w`p.g`Y.f.e.f`6.e.f`6.e.f`6.e`6.f`P.c`V.d`.",
"`o`2`Y`D`p`1`1`1`p.k`p`1`p`1`1`1`p.k`1.c.k`1.c.k`1`p`1`1.c`K`X`.",
"`o.d`Y`D`p`p`p`p.c`p.c`p.c`p`p.c`p.c`p`p.c`p`p.c`p.c`p`p`p`w`M`3",
"`o`2`Y`D`p.c.#.#`i.#`p.c`i.#.#.#.#`i.#.#`i.#.#`i.#.#.#`p.#`w`X`.",
"`o.d`s`D`p`w`K`K`w`K`z.#`p`w`K`K`w`K`w`K`w`K`w`K`K`K`K`1`I`w.d`3",
"`Y`r`Y`D.k`t`Q`Q`Q`J`c`I`1`t`Q`Q`Q`Q`Q`Q`Q`Q`Q`Q`Q`Q`Q`P`I`w`M`3",
"`o.d`s`D`1`Q`U`U`U`x.k`I`1`Q`U`U`U`U`U`U`U`U`U.n`U.n`U`4`D`F`X`3",
"`o`2`Y`D`p`u`m`R`R`m`z`I`p`u`m`R`R`u`m`R`u`m`R`u`m`R`m`w`D.k`X`.",
"`o.d`s`D.#`D`D`D`D`D`I`I`I`D`D`D`I`D`D`I`D`D`I`D`I`D`D`I`D.k`X`3",
"`Y`2`Y`D`I`I`I`I`I`I`I`D`I`T`I`I`I`I`I`I`I`I`I`I`I`I`I`I`D`1`M`.",
"`o.d`s`D`I`D`D`D`D`D`D`D`D`D`D`D`D`D`D`D`D`D`D`D`D`D`D`D`D`1`M`3",
"`o`2`Y`D`I`w`K`K`K`K`I`D`I`w`K`w`K`w`K`w`K`w`K`w`K`w`K.c`D`p`X`.",
"`o.d`b`D.#`t`J`Q`Q`U`p`D.#`t`J`Q`J`Q`J`Q`J`Q`J`Q`J`Q`J`k`D`1`M`3",
"`o`2`Y`D`i`Q`U`U`U`x`1`D.c`Q`U`U`U`U`U`U`U`U`U`U`U`U`U`k`D`1`X`.",
"`o.d`s`D`I`P`4`4`P`#`T`D`I`P`4`P`4`P`4`P`4`P`4`P`4`4`4`p`D`p`X`3",
"`o`2`6`D`D`D`D`D`D`D`D`D`D`D`D`D`D`D`D`D`D`D`D`D`D`D`D`I`D.k`M`.",
"`o.d`o`D`D`D`D`D`D`D`D`D`D`D`D`D`D`D`D`D`D`D`D`D`D`D`D`D`D.#`M`3",
"`Y`2.``m`s`Y`Y`Y`Y`Y`Y`Y`Y`Y`Y`Y`Y`Y`Y`Y`Y`Y`Y`Y`Y`Y`Y`6`m`.```O",
"`F`H`2`r`r`r`r`r`r`r`r`r`r`r`r`r`r`r`r`r`r`r`r`r`r`r`r.d`r`2`v`k",
"`D`p`Y`Y`o`Y`o`Y`o`Y`o`Y`o`Y`o`Y`o`Y`o`Y`o`Y`o`Y`o`m`Y`Y`o`Y`k`D"
};
