/* XPM */
static char *contouredit_xpm[] = {
/* width height num_colors chars_per_pixel */
"    32    32      256            2",
/* colors */
"`` c #0432a4",
"`. c #149afc",
"`# c #545654",
"`a c #046ad4",
"`b c #0482e4",
"`c c #8c9abc",
"`d c #b4cef4",
"`e c #547e9c",
"`f c #4c667c",
"`g c #7c7e7c",
"`h c #2c82d4",
"`i c #044ebc",
"`j c #c4eafc",
"`k c #1c72cc",
"`l c #5c8ab4",
"`m c #9cbadc",
"`n c #2c4e9c",
"`o c #1c82dc",
"`p c #6c8aac",
"`q c #5ca2e4",
"`r c #0476dc",
"`s c #d4d2d4",
"`t c #2c6ab4",
"`u c #2c76cc",
"`v c #4482cc",
"`w c #0c8eec",
"`x c #1c4ea4",
"`y c #24367c",
"`z c #546eb4",
"`A c #acaaa4",
"`B c #e4eaf4",
"`C c #548acc",
"`D c #bcbebc",
"`E c #1476cc",
"`F c #1482e4",
"`G c #247abc",
"`H c #5496d4",
"`I c #145aa4",
"`J c #dcdedc",
"`K c #cccacc",
"`L c #3c9eec",
"`M c #7c7684",
"`N c #74828c",
"`O c #7c96cc",
"`P c #3c7ac4",
"`Q c #f4f6f4",
"`R c #5c666c",
"`S c #048aec",
"`T c #5486cc",
"`U c #848e9c",
"`V c #bcc6d4",
"`W c #8caadc",
"`X c #5c82a4",
"`Y c #348ee4",
"`Z c #6cb6f4",
"`0 c #047ee4",
"`1 c #2c7ecc",
"`2 c #0c429c",
"`3 c #0c82e4",
"`4 c #94a6b4",
"`5 c #ccdef4",
"`6 c #8c7e84",
"`7 c #749ad4",
"`8 c #4466b4",
".` c #4496e4",
".. c #6492cc",
".# c #ece6dc",
".a c #14a2fc",
".b c #647e9c",
".c c #3c82cc",
".d c #0456b4",
".e c #2472cc",
".f c #2c629c",
".g c #6c92cc",
".h c #448ad4",
".i c #2c4284",
".j c #c4bebc",
".k c #1c7acc",
".l c #e4e6e4",
".m c #144aa4",
".n c #1c9af4",
".o c #645e5c",
".p c #146acc",
".q c #9c9a9c",
".r c #cccecc",
".s c #547aac",
".t c #1c8eec",
".u c #bcb2ac",
".v c #f4f2ec",
".w c #5c8acc",
".x c #147edc",
".y c #045ac4",
".z c #e4ded4",
".A c None",
".B c #7ca2d4",
".C c #4c6eb4",
".D c #247acc",
".E c #5c5e5c",
".F c #0486e4",
".G c #848684",
".H c #2c8adc",
".I c #2482d4",
".J c #0c76d4",
".K c #dcdadc",
".L c #347acc",
".M c #4c86cc",
".N c #b4b2ac",
".O c #eceae4",
".P c #147adc",
".Q c #5c92d4",
".R c #4c9ee4",
".S c #fcfafc",
".T c #646264",
".U c #0c7edc",
".V c #347ec4",
".W c #044ab4",
".X c #4c66ac",
".Y c #c4d6e4",
".Z c #0c62c4",
".0 c #e4e2e4",
".1 c #5c5654",
".2 c #0472dc",
".3 c #7c828c",
".4 c #3482d4",
".5 c #0c4eb4",
".6 c #dceef4",
".7 c #1c76cc",
".8 c #3c5694",
"#` c #6c92ac",
"#. c #b4b6b4",
"## c #9c9694",
"#a c #445ea4",
"#b c #6c9ad4",
"#c c #1c5ab4",
"#d c #8c8a8c",
"#e c #1496fc",
"#f c #a4a29c",
"#g c #0442ac",
"#h c #c4cee4",
"#i c #94a2b4",
"#j c #3472bc",
"#k c #c4e6fc",
"#l c #44a6ec",
"#m c #d4c6bc",
"#n c #c4c6c4",
"#o c #6486b4",
"#p c #34427c",
"#q c #2c56a4",
"#r c #243e84",
"#s c #5476bc",
"#t c #3462ac",
"#u c #b4aeac",
"#v c #9caabc",
"#w c #7496cc",
"#x c #5c7aac",
"#y c #dcd6d4",
"#z c #7c9ed4",
"#A c #84a6d4",
"#B c #2486e4",
"#C c #948a84",
"#D c #5c7e9c",
"#E c #244ea4",
"#F c #449eec",
"#G c #0c8aec",
"#H c #0456c4",
"#I c #4c8ad4",
"#J c #1c4aa4",
"#K c #a4a2ac",
"#L c #2c86dc",
"#M c #6c8ea4",
"#N c #047ae4",
"#O c #2c7acc",
"#P c #5472bc",
"#Q c #548ed4",
"#R c #bcc2c4",
"#S c #147ad4",
"#T c #1486dc",
"#U c #3c7ecc",
"#V c #f4faf4",
"#W c #0c86e4",
"#X c #6496d4",
"#Y c #3c86d4",
"#Z c #2476c4",
"#0 c #6c96d4",
"#1 c #2c468c",
"#2 c #c4c2bc",
"#3 c #1c9ef4",
"#4 c #146ed4",
"#5 c #ccd2d4",
"#6 c #5c8ecc",
"#7 c #045ec4",
"#8 c #e4e2dc",
"a` c #247ed4",
"a. c #0c7adc",
"a# c #eceeec",
"aa c #4c6ab4",
"ab c #5c5a5c",
"ac c #dcf2fc",
"ad c #0446b4",
"ae c #c4cacc",
"af c #5c7eb4",
"ag c #149efc",
"ah c #046ed4",
"ai c #0452bc",
"aj c #d4d6d4",
"ak c #4486cc",
"al c #243a7c",
"am c #3492e4",
"an c #749ed4",
"ao c #446ab4",
"ap c #5c96d4",
"aq c #646664",
"ar c #0482ec",
"as c #7c7e84",
"at c #acaaac",
"au c #bcbec4",
"av c #1476d4",
"aw c #5496dc",
"ax c #5c6674",
"ay c #047eec",
"az c #2c7ed4",
"aA c #6492d4",
"aB c #0456bc",
"aC c #1c7ad4",
"aD c #1c9afc",
"aE c #e4dedc",
"aF c #247ad4",
"aG c #0486ec",
"aH c #2482dc",
"aI c #4c86d4",
"aJ c #eceaec",
"aK c #0c7ee4",
"aL c #347ecc",
"aM c #1c76d4",
"aN c #2c7ad4",
"aO c #1486e4",
"aP c #f4fafc",
"aQ c #0c86ec",
"aR c #2476cc",
"aS c #c4c2c4",
"aT c #5c8ed4",
"aU c #045ecc",
"aV c #000000",
"aW c #000000",
"aX c #000000",
"aY c #000000",
"aZ c #000000",
"a0 c #000000",
"a1 c #000000",
"a2 c #000000",
"a3 c #000000",
"a4 c #000000",
"a5 c #000000",
"a6 c #000000",
"a7 c #000000",
"a8 c #000000",
/* pixels */
".A.A.A.A.A.A.A.A.A.A.A.A.A.A.A.A.A.A.A.A.A.A.A.A.A.A.A.A.A.A.A.A",
".A.A.A.A.A.A.A.A.A.A.A.A.A.A.A.A.A.A.A.A.A.A.A.A.A.A.A.A.A.A.A.A",
".A.A.A.A.A.A.A.A.A.A.A.A.A.A.A.A.A.A.A.A.A.A.A.A.A.A.A.A.A.A.A.A",
".A.A.A.A.A.A.A.A.A.A.A.A.A.A.A.A.A.A.A.A.A.A.A.A.A.A.A.A.A.A.A.A",
".A.A.A.A.A.A.A.A.A.A.A.A.A.A.A.A.A.A.A.A.A.A.A.A.A.A.A.A.A.A.A.A",
".A.A.A.A.A.A.A.A.A.A.A.A.A.A.A.A.A.A.A.A.A.A.A.A.A.A.A.A.A.A.A.A",
".A.A.A.A.A.A.A.A.A.A.A.A.A.A.A.A.A.A.A.A.A.A.A.A.A.A.A.A.A.A.A.A",
".A.A.A.A.A.A.A.A.A.A.A.A.A.A.A.A.A.A.A.A.A.A.A.A.A.A.A.A.A.A.A.A",
".A.A.A.A.A.A.A.A.A.A.A.A.A.A.A.A.A.A.A.A.A.A.A.A.A.A.A.A.A.A.A.A",
".A.A.A.A.A.A.Y#P#P`z.C`z.C.C.C.Cao.Caoaaaoaa`8.Cae.A.A.A.A.A.A.A",
".A.A.A.A.A.A#P`O#A#waA.w.M`v`P`P.L`uaRaRaFa`#LaM.8#y.A.A.A.A.A.A",
".A.A.A.A.A.A`z`W`W#z#0..`CaI`vaLazaNa`a`aHaH#L#B.i#u.A.A.A.A.A.A",
".A.A.A.A.A.A`z`7.B#0#6.M`v#U#OaR`kaMaM#SaC.x`o.x#r#u.A.A.A.A.A.A",
".A.A.A.A.A.A`z`7`7.Q`C.M#U#OaR`kaMav#S.P.x.xaO`F#r#u.A.A.A`j.6.A",
".A.A.A.A.A.Aaa#0#b.Q.M.c#OaR`k#4avav.Pa..U`FaO#W#r#u.A.A#k#3`4.v",
".A.A.A.A.A.A`z..#X#QakaLaR`kav#Sava.a..U`3`3#G`3#r`A.AacaD`b.3#8",
".A.A.A.A.A.A.X.Qap#I.cazaMaMav.Pa.a..U`0`b`3#GaG#r#uaP`Lay#T`N#8",
".A.A.A.A.A.A.X#6`H.h.4azaM#S#S.J.U.U`0`b`baG`S`S`y.u`Z`rar`Gas.0",
".A.A.A.A.A.A.X#Q.Q.h.4a`#S#S.Pa.am#F`b`0araG`SaG#p#M#N#N#S`R#fa#",
".A.A.A.A.A.A#aap`q.`.H#B`FaO#W.t#Fa`#l#e#eag.aaDaf`E.2.J`R##`J.A",
".A.A.A.A.A.A`c`n#q#E`x#J.m.m`2#taL.y.V`p`X#D`e.baR`aah`f#d.K.A.A",
".A.A.A.A.A.A.S#K`M`M`M`M`M`M`M`6.s.yaB`p#m.j#2#o#7`a.f.o#n.S.A.A",
".A.A.A.A.A.A.A.A`Q`Q`Q`Q`Q`Q.v`Q#5`I#H.p.Y.A`5#4.yaL#d.E.K.A.A.A",
".A.A.A.A.A.A.A.A.A.A.A.A.A.A.A.AaE`U.ead`P.O#U`i.Z#v.Nabaj.A.A.A",
".A.A.A.A.A.A.A.A.A.A.A.A.A.A.A.Aaj`A`dadai#jaBai`l#8#R.1`J.A.A.A",
".A.A.A.A.A.A.A.A.A.A.A.A.A.A.A.A`s.q.A#6#g.W.W`t.j.A.j`#`J.A.A.A",
".A.A.A.A.A.A.A.A.A.A.A.A.A.A.A.Aaj.q.A`B#c#g`i#i.v.AaS`#`J.A.A.A",
".A.A.A.A.A.A.A.A.A.A.A.A.A.A.A.A`s.q.A.A`m``.s.z.S.Aau.1`J.A.A.A",
".A.A.A.A.A.A.A.A.A.A.A.A.A.A.A.A.r.q.A.A.A#w#..A.A.A`K`#.K.A.A.A",
".A.A.A.A.A.A.A.A.A.A.A.A.A.A.A.AaE`gaS#n#nau#.aSaS#n.G.E`J.A.A.A",
".A.A.A.A.A.A.A.A.A.A.A.A.A.A.A.A.A#.aq.Tab.E.oababab.T.qaJ.A.A.A",
".A.A.A.A.A.A.A.A.A.A.A.A.A.A.A.A.A.AaE.r`s`K.r.r`s.r.r.l.A.A.A.A"
};
