/* XPM */
static char *fracture_xpm[] = {
/* width height num_colors chars_per_pixel */
"    32    32      256            2",
/* colors */
"`` c #2c0204",
"`. c #a48224",
"`# c #644204",
"`a c #8c6204",
"`b c #c4c6c4",
"`c c #6c6284",
"`d c #7c828c",
"`e c #4c2204",
"`f c #9ca2a4",
"`g c #5c4644",
"`h c #4c3204",
"`i c #947224",
"`j c #747274",
"`k c #845204",
"`l c #7c82b4",
"`m c #643204",
"`n c #745204",
"`o c #e4e6e4",
"`p c #7472a4",
"`q c #c49214",
"`r c #ac7604",
"`s c #6c4224",
"`t c #b4b2b4",
"`u c #543624",
"`v c #8c92c4",
"`w c #9c6604",
"`x c #4c222c",
"`y c #645654",
"`z c #744204",
"`A c #949294",
"`B c #4c2a04",
"`C c #9ca2d4",
"`D c #847aac",
"`E c #b4820c",
"`F c #646694",
"`G c #643e04",
"`H c #441204",
"`I c #9c7a24",
"`J c #946a14",
"`K c #d4d6d4",
"`L c #f4f6f5",
"`M c #b48a24",
"`N c #543a04",
"`O c #845a05",
"`P c #743e09",
"`Q c #5c4a4c",
"`R c #8c86b4",
"`S c #747aac",
"`T c #8c8284",
"`U c #a47204",
"`V c #847a74",
"`W c #543e34",
"`X c #9c9acc",
"`Y c #acaadc",
"`Z c #643a1c",
"`0 c #945e04",
"`1 c #5c3204",
"`2 c #ac7e04",
"`3 c #64526c",
"`4 c #744a04",
"`5 c #5c2a04",
"`6 c #b48a19",
"`7 c #746e9c",
"`8 c #441e0c",
".` c #845a1c",
".. c #6c4a04",
".# c #8c6619",
".a c #542204",
".b c #9c7218",
".c c #7c7294",
".d c #c49a2c",
".e c #a4a2d2",
".f c #6c3a07",
".g c #dcdedc",
".h c none",
".i c #6c4a47",
".j c #6c4218",
".k c #6c6a6c",
".l c #a4aaac",
".m c #747a84",
".n c #848ac4",
".o c #543634",
".p c #9c6e05",
".q c #9c9a9c",
".r c #542a0a",
".s c #6c6ea2",
".t c #fcf6f4",
".u c #9c7224",
".v c #3c0604",
".w c #946204",
".x c #ccced4",
".y c #848a8c",
".z c #4c2214",
".A c #543204",
".B c #7c767c",
".C c #8482b2",
".D c #eceeee",
".E c #7c769c",
".F c #bc922c",
".G c #6c4a3c",
".H c #bcbae4",
".I c #9492c4",
".J c #8c7ea7",
".K c #946e24",
".L c #8c5a04",
".M c #7c7aae",
".N c #ac7e18",
".O c #6c5a7c",
".P c #7c4a04",
".Q c #bc8a0c",
".R c #a4a2dc",
".S c #6c3e14",
".T c #6c4204",
".U c #848288",
".V c #a4a29c",
".W c #747684",
".X c #7c5a04",
".Y c #64423c",
".Z c #bcbebc",
".0 c #6c6694",
".1 c #44161c",
".2 c #a47a1c",
".3 c #946e17",
".4 c #dcdadc",
".5 c #bc8e24",
".6 c #644a58",
".7 c #8c8ec4",
".8 c #948a84",
"#` c #a49ed4",
"#. c #4c2a24",
"## c #7c6274",
"#a c #8c7a94",
"#b c #541e04",
"#c c #440e04",
"#d c #5c321c",
"#e c #64424c",
"#f c #6c5644",
"#g c #5c3e2c",
"#h c #a46e04",
"#i c #eceaec",
"#j c #5c3a24",
"#k c #94827c",
"#l c #4c1a04",
"#m c #8c5e14",
"#n c #e4e2e4",
"#o c #746e71",
"#p c #a49ea4",
"#q c #f4f2f4",
"#r c #c49629",
"#s c #745e74",
"#t c #643614",
"#u c #7c5204",
"#v c #8c96d4",
"#w c #9c9694",
"#x c #b4861c",
"#y c #643a14",
"#z c #4c1604",
"#A c #b48e34",
"#B c #5c3a04",
"#C c #acaeac",
"#D c #542e14",
"#E c #d4d2d4",
"#F c #543214",
"#G c #8482bc",
"#H c #bc8e1c",
"#I c #a4a6ac",
"#J c #ccc6bc",
"#K c #b47e08",
"#L c #7c6e94",
"#M c #948ebc",
"#N c #340204",
"#O c #ac8224",
"#P c #6c4a54",
"#Q c #9c6e14",
"#R c #7c76ac",
"#S c #6c5654",
"#T c #5c3e3c",
"#U c #8c660c",
"#V c #4c2604",
"#W c #74767c",
"#X c #7476aa",
"#Y c #c4961c",
"#Z c #ac7a06",
"#0 c #6c462c",
"#1 c #b4b6b4",
"#2 c #744606",
"#3 c #847eb0",
"#4 c #b48614",
"#5 c #d4dadc",
"#6 c #f4fafc",
"#7 c #b48e2c",
"#8 c #845e04",
"a` c #8c8abc",
"a. c #9c9ed0",
"a# c #acaee4",
"aa c #643e24",
"ab c #645674",
"ac c #845e14",
"ad c #9c7618",
"ae c #a4a6d4",
"af c #6c3e06",
"ag c #dce2e4",
"ah c #543a38",
"ai c #542e04",
"aj c #fcfafb",
"ak c #946607",
"al c #9496c9",
"am c #7c7ead",
"an c #7c4e05",
"ao c #bc8e14",
"ap c #848684",
"aq c #a4a6a4",
"ar c #6c6a9c",
"as c #a47e22",
"at c #644654",
"au c #644604",
"av c #4c3604",
"aw c #845604",
"ax c #643604",
"ay c #9c6a04",
"az c #949694",
"aA c #4c2e04",
"aB c #441604",
"aC c #5c4e4c",
"aD c #8c8684",
"aE c #a47604",
"aF c #5c3604",
"aG c #744e04",
"aH c #5c2e04",
"aI c #542604",
"aJ c #c49e2c",
"aK c #6c6e6c",
"aL c #9c9e9c",
"aM c #9c7624",
"aN c #3c0a04",
"aO c #ccd2d4",
"aP c #4c2614",
"aQ c #543604",
"aR c #8c5e04",
"aS c #6c5e7c",
"aT c #a4a6dc",
"aU c #6c4604",
"aV c #64463c",
"aW c #4c2e24",
"aX c #4c1e04",
"aY c #7c5604",
"aZ c #5c3e04",
"a0 c #8486bc",
"a1 c #4c220c",
"a2 c #74727c",
"a3 c #b4b2bc",
"a4 c #54362c",
"a5 c #9ca2dc",
"a6 c #64669c",
"a7 c #946a1c",
"a8 c #d4d6dc",
/* pixels */
"`L.x.Ha#aeaT.ea.`XaTa.#3.c#L.E.Cal#va0#3amam.M#X#X`p`p.sarara6`F",
".t#1.UaT`Y.e.Ra.a.`D.G`saf.j.j#0.6#s.Ma0`l.M#R`S`p`p.s.sara6.0a6",
".h.Daz.BaTaTa.aT#M#t.f`4an.L`a`J.L.P.f#P`7`l.M#X`p`p.s.sara6a6`F",
".h.h#qaz.W.e`Y`R`xaI`4ananaw.Lak.2#O.N`0`P.6`p.M#X`p.s.sarara6`F",
".h.h.h#qaz`d.J.1``#z.T.P#uaw`O.L.w.p.N.F`6`0`Z`c`S`p`7.sararara6",
".h.h.h.h.4#f`5.v``.vaH..`kaw.LaRak`w.p#Z`M#r`2`P`3`S`p.s.sararar",
".h.h.h.t.8`5#8aH#N```HafaGaw`OaR.way.p`U#Z`6#rao#2`3#X`p.s.sar.s",
".h.h.h.x#j#2`OaY`H#N#NaXaUan.LaR.w`w.p`U`r#Z`6#r`q`P.O#X`p.s.s.s",
".h.haj#p.raGaG`Oan`H#N#N#b..#uaR.wakay`UaE`r`2#H.d#4`Z.s#X`p`p`p",
".h.h.D`VaHauan#u#U`OaX#N#N#zaUaw.Lakayay`U`r`r`2.5aJ`w.Y.M`p#X`p",
".h.hag#SaiaUaG`naY.3#U#b``#N#c`Gaw`O`w.p#h`U`r`r`E.F#Y`P.0`S#X#X",
".h.h#5`gaHaZaGaG#uaYaM`J.a#N``.v`5#u`O.w.p`U`UaE`r#4.dakatam#R.M",
"aj.h`K#TaiaZaU`4`n#u`O`I.3`5#N``#N#z#2.XaRay#h`U`U#Z#7#4.S`pam.M",
".h.ha8`gai`Nau..aG#uaY#8adad.f.v````.v.f`O#8ay.p#h.p.N.5.PaSa0.M",
".h.h#5`y.raQ`GaU`4aG#uaY#8.bas#u#z#N``#NaxaYaRayayay.p#AaR.6.nam",
".h.h.g#o.r`h#Bau..`4`naYaw#8.3#O.b`5#N#N#NafaYaRakak.w#O#Q.Y#G.C",
".h.h#i.UaXavaQ`#.T..aG`naY`O`O#U`..2aH#N#N`Hanaw.w.waR#Q.baaama0",
".h.hajaz#DaA`h#B`#aU..aG#uaY`O#8`aas.2#b``#Nax`n.L.L.L#UaM.S`Da`",
".h.h.h.ZaC`e`haQ`G`#aU`4aG#uaY`O`O`a`.`O.v``#l`4#u`Oaw`O.u.f.M.7",
".h.h.h#n#oaPaAaA`N`#`#aU..aG#uaY`O`O`J.2aI``#c`Gan#u`k`k.#af`D`v",
".h.h.h.t#Iah#V`h`h#B`#.T..`4aG#uaw`O`Oasaf#N#NaH..anan#uac#y.C.I",
".h.h.h.h`K#o`8aAaAaQaZ`GauaU`4aG#uaY#u.3#m.v``#b`G`4`4aGanaaa`.I",
".h.h.h.haj.l`Q`8aAaA.AaZ`GauaU..aG#u#u`O`iaH#N.v`1`##2`4.f.Gal.I",
".h.h.h.h.h`o.ya4`8`haAaQaZ`GaUaU`4aGaGan#U.#`H```HaF.T`4`1##a.al",
".h.h.h.h.h.h#E`jaW#V`haAaQ`G`G`#aU..aGaGan.3.`.v#N#zaF`1#d#M`Xal",
".h.h.h.h.h.h.h`b.k#.`8`haA`h#B`G`#.T..`4aGaG.3#2#N``aN#0.Ja.`Xa.",
".h.h.h.h.h.h.haj`baKah`8aA`h`haQ`G`#.TaU#2`4`4.#`m#Nah.Ba.#`a.a.",
".h.h.h.h.h.h.h.h.h#Eap`ga1#Vai`haQ#B`G`#aU..`4#u.f.G.4`f`ja..ea.",
".h.h.h.h.h.h.h.h.h.h#naq.kaha1#V.r`B.A`G`G`GaxaH`Z#J.h#qaLa2.eaT",
".h.h.h.h.h.h.h.h.h.h.h.t`K`f.B`g`u`u#D.r#D#daV`T#E.haj.h#q.V#W.e",
".h.h.h.h.h.h.h.h.h.h.h.h.haj.g`b.l`A`T`Taz#1#5`L.h.h.h.h.h#qaq#C",
".h.h.h.h.h.h.h.h.h.h.h.h.h.h.h.haj#q`L`L`Laj.h.h.h.h.h.h.h.h#q.D"
};
