/* XPM */
static char *importcontour_xpm[] = {
/* width height num_colors chars_per_pixel */
"    32    32      256            2",
/* colors */
"`` c #0486f2",
"`. c #049afc",
"`# c #fc9a04",
"`a c #84fe04",
"`b c #84cefc",
"`c c #f4ce04",
"`d c #ccd2fc",
"`e c #c4fa94",
"`f c #c4f604",
"`g c #04fe04",
"`h c #fc322c",
"`i c #c4ee7c",
"`j c #e4d2fc",
"`k c #84baf0",
"`l c #8cfa78",
"`m c #7ccefc",
"`n c #c4eafc",
"`o c #4cf204",
"`p c #f46604",
"`q c #e4f604",
"`r c #44a2d4",
"`s c #747a7c",
"`t c #e4eafc",
"`u c #247eac",
"`v c #dce2bc",
"`w c #e4f6fc",
"`x c #a4f604",
"`y c #64f604",
"`z c #fc8204",
"`A c #f4ba04",
"`B c #d4c6bc",
"`C c #5cbefc",
"`D c #ecce7c",
"`E c #e4defc",
"`F c #e4fa04",
"`G c #0492dc",
"`H c #e4ee78",
"`I c #f4eafa",
"`J c #b4f604",
"`K c #8cfe84",
"`L c #d4cecc",
"`M c #a4a6a4",
"`N c #acf67c",
"`O c #f4e204",
"`P c #d4f604",
"`Q c #5cf204",
"`R c #7cbaec",
"`S c #f4e6dc",
"`T c #fc7604",
"`U c #b4cefc",
"`V c #f44a2c",
"`W c #c4def4",
"`X c #74fa04",
"`Y c #f4c204",
"`Z c #f4fa04",
"`0 c #24aaf4",
"`1 c #ec9a7c",
"`2 c #d4f27c",
"`3 c #248ee4",
"`4 c #f4f6fc",
"`5 c #ec9294",
"`6 c #f4f2fc",
"`7 c #d4d2fc",
"`8 c #a4c6ec",
".` c #1c86e4",
".. c #fca604",
".# c #94fa04",
".a c #2cfa04",
".b c #9cf67c",
".c c #a4fa2c",
".d c #fc8e04",
".e c #e4e6fc",
".f c #1492dc",
".g c #74c6fc",
".h c #dcdefc",
".i c #f4d22c",
".j c #c4f27c",
".k c #44fc04",
".l c #f4ee04",
".m c #2c8abc",
".n c #a4fe04",
".o c #64fe04",
".p c #f4f07c",
".q c #b4fe04",
".r c #dcfe08",
".s c #bcd6e4",
".t c #f45804",
".u c #f4fefc",
".v c #d4dafc",
".w c #048efc",
".x c #14a1f4",
".y c #fcda04",
".z c #c4f22c",
".A c #f4662c",
".B c #74b6ee",
".C c #e4f2fc",
".D c #3482ac",
".E c #fcb62c",
".F c #f4b684",
".G c #ecdef4",
".H c #fceaf4",
".I c #bcf67c",
".J c #fce62c",
".K c #54fe04",
".L c #f4762c",
".M c #f4fa2c",
".N c #b4cafc",
".O c #3cfe04",
".P c #fc8e2c",
".Q c #4cfa04",
".R c #f4f604",
".S c #048af4",
".T c #fca22c",
".U c #84fe2c",
".V c #fccf04",
".W c #c4daf8",
".X c #dcee84",
".Y c #c4fe04",
".Z c #e4dafb",
".0 c #84c2ec",
".1 c #2c82b4",
".2 c #acf904",
".3 c #6cf704",
".4 c #f4be04",
".5 c #dcc6bc",
".6 c #6cc2f4",
".7 c #f4e67c",
".8 c #ecfd04",
"#` c #0492fc",
"#. c #bceafc",
"## c #f44204",
"#a c #34aaec",
"#b c #dcf2fc",
"#c c #f4c62c",
"#d c #f45a2c",
"#e c #3cb6fc",
"#f c #c4f6bc",
"#g c #f4462c",
"#h c #b4aeac",
"#i c #fc7104",
"#j c #f4e5f4",
"#k c #ecd87c",
"#l c #dcdedc",
"#m c #9cfa84",
"#n c #54a2cc",
"#o c #74c2fc",
"#p c #c4e6fc",
"#q c #14fe04",
"#r c #accafc",
"#s c #04a2fc",
"#t c #8cd6fc",
"#u c #b4fe7c",
"#v c #a4fe7c",
"#w c #f49604",
"#x c #fc6e2c",
"#y c #bcd6fc",
"#z c #d4d6d4",
"#A c #fca204",
"#B c #fc8a04",
"#C c #fc7e04",
"#D c #f4522c",
"#E c #f4ca04",
"#F c #fcae04",
"#G c #dce6fc",
"#H c #f45e04",
"#I c #bcfe7c",
"#J c #f47e2c",
"#K c #7cc2ec",
"#L c #0c9ef4",
"#M c #94fe7c",
"#N c #ecee7c",
"#O c #ccdeec",
"#P c #1c92dc",
"#Q c #fce6fc",
"#R c #8cfe04",
"#S c #ccf804",
"#T c #cced7c",
"#U c #eceafc",
"#V c #fcb604",
"#W c #64befc",
"#X c #0c96dc",
"#Y c #bcf804",
"#Z c #fce404",
"#0 c #dcf804",
"#1 c #bcd2fc",
"#2 c #7cfe04",
"#3 c #fcfd04",
"#4 c #dcee7c",
"#5 c #fcf8fc",
"#6 c #dcd5fc",
"#7 c #9cfe04",
"#8 c #34fd04",
"a` c #a4f87c",
"a. c #7ccafc",
"a# c #ccf27c",
"aa c #fcef04",
"ab c #5cfc04",
"ac c #fcf2f5",
"ad c #acc6e4",
"ae c #7cb6ec",
"af c #ccdaf4",
"ag c #ecf6fc",
"ah c #aca6a4",
"ai c #ece6fc",
"aj c #acfe04",
"ak c #6cfe04",
"al c #bcfe04",
"am c none",
"an c #dcdafc",
"ao c #ecf2fc",
"ap c #bccafc",
"aq c #fcf604",
"ar c #e4ee84",
"as c #fcbe04",
"at c #fc9604",
"au c #84beec",
"av c #2482ad",
"aw c #e4f27c",
"ax c #2492ec",
"ay c #1496e4",
"az c #ece2f9",
"aA c #fceef8",
"aB c #4cfe08",
"aC c #dccabc",
"aD c #bcdaf4",
"aE c #cce2f4",
"aF c #fc9e04",
"aG c #84d2fc",
"aH c #f4d204",
"aI c #e4d6fc",
"aJ c #e4eefc",
"aK c #a4fa04",
"aL c #64fa04",
"aM c #5cc2fc",
"aN c #e4e2fc",
"aO c #e4fe04",
"aP c #b4fa04",
"aQ c #acfa7c",
"aR c #f4e604",
"aS c #d4fa04",
"aT c #5cf604",
"aU c #7cbeec",
"aV c #fc7a04",
"aW c #b4d2fc",
"aX c #74fe04",
"aY c #f4c604",
"aZ c #f4fe04",
"a0 c #f4fafc",
"a1 c #d4d6fc",
"a2 c #fcaa04",
"a3 c #94fe04",
"a4 c #2cfe04",
"a5 c #fc9204",
"a6 c #74cafc",
"a7 c #dce2fc",
"a8 c #c4f67c",
/* pixels */
"amamamamamamamamamamamamamamamamamamamamamamamamamamamamamamamam",
"am`w`n#p`n`n`n`n`n`n`n`n`n`n`n`n`n`n`n`n`n`n`n`n`n`n`n`n`n.Camam",
"`na6`CaM`C`C`C`C`C`C`C`C`C`C`C`C`C`C`C`C`C`C`C`C`C`C`C`C`C.6.s#5",
"#e`k`8`8`8`8`8`8`8`8`8`8`8`8`8`8`8`8`8`8`8`8`8`8`8`8`8`8ad`R`r#z",
"#s`3.`.`.`.`.`.`.`.`.`.`.`.`.`.`.`.`.`.`.`.`.`.`.`.`.`.`.`ax#X#h",
"#s.S``````````````````````````````````````````````````````.w`G`M",
"#s#`#`#`#`#`#`#`#`#`#`#`#`#`#`#`#`#`#`#`#`#`#`#`#`#`#``..w`.`Gah",
"`0aUaU#K.0#K#K#K#K#K.0#KaU.0aU#KaUaUaU`R`R`R.B`R.B.B.B.B.B.B.f`M",
".xaEamamamamamamamamamamamamamamamamamamam#5#5#5`4ac#jai#Q.W.f`M",
".x`Wamamam`e.U.c.z.M.J.i#c.E.T.P#J.L#x.A#d#D`V#g`h`5#ban`E#y.f`M",
".x`Wam.uam#m#q.aaT`xaq#Z.V`A#FaF.d`zaV#i`p#H.t.t##`1aJ`EaN#y.f`M",
".x`Wamamam`K`g#q#8.3`P.Raa.yaYas#Va2..aF`#ata5.d#C.FaJ.haz#y.f`M",
".x`Wamamam#M#q#8#8.k#R#Y`q#3aqaa#Z.y`c`Y.4#V.4#V#V`D.e.haN#y.f`M",
".x`Wamamam#v.Oab`Q`y`X#R.2#Y`P`q.8`Z#3aqaaaaaaaaaa.7a7.h.GaWay`M",
".x`WamamamaQ`o.3#2#2#2#2#RaK`J#Y`f`f`P#0`FaOaO`FaOaw`E.haN#y.f`M",
".x`Wamamam#u.3`aa3#7.##R`a`a#Ra3#7`x.2aP.qaPajaPaj#TaN.h`E#1.f`M",
".x`Wamamam#Iak`aa3.n.n.n.n#7`a.#`x.2aP.q.n#7#7.n.na#`E.h`EaWay`M",
".x`Wamamam#uak`a#R#7.nal#Y`f`f#S`FaO#S#Y.n#7#7.n.n`i`Ean.Z#1.f`M",
".x`Wamamam#u.o`a`a#R.n#Y#0.laH.V.V.y.8`faK#7#7.n.n#T.Z.v`EaW.f`M",
".x`Wamamam#u.o#2#2`a#7#Y.Rasa5`za5`Aaq#SaK#7#7.naj#T.han.Z`U.f`M",
".x`Wama0am#uaT`X.3.3a3#Y.R.4`z`T#C#V.8`f.2.naj.qaP#T.Z.vanaW.f`M",
".x`Wama0#5a`.QaTaTaT#2`x`PaR`Aa5`pat`O`q`f#Y#Y`f#S#4#6a1aI`U.f`M",
".x`Wam`4#5a`#8.KaB.K.3#R.n`JaO#E#C`T#A`caZaOaO#0aO.X#6a1#6`U.f`M",
".xaDam`6#5`l#q#8.O.k.oaXa3.2#0#Z#A`#..`Yaa#3.8.8.8`Ha1a1#6#r.f`M",
".x.W#5`4ac#f`l#m#ma``N.Ia8`2#4.p#k#k`D.7.7#N#N#N`H`va1`7#6`U.f`M",
".x.s#5aoao`6aAaAaAaA`I`6#U#U#U`t`t`t.ea7.h.han.va1`7a1`d`7#r.f`M",
"#Laf#5#5acacacacacacaAaAaA.HaA`I.H#j#j#jazaz.G.G.ZaIaI#6`jap.f`M",
"#a#W#taGaGaGaGaGaGaG`m`b`m`m`m`b`m`m`ma.a.a..ga.#o#o#o#o#o#W.mah",
"#O#n.1`u`u`u`uav`u`uav`u.1`u`u`u`u.1`u`u`u`u`u`u.1`u`u`u`u.D`s`L",
"am`SaC`BaCaC.5aC`BaC.5`L.5aCaC.5`B.5`BaCaC.5aC`B.5`BaC.5.5`B#l`4",
"amamamamamamamamamamamamamamamamamamamamamamamamamamamamamamamam",
"amamamam#5amamamamam#5amam#5amamamamamamamamamamamamamamam#5amam"
};
