/* XPM */
static char *landformanaly_xpm[] = {
/* width height num_colors chars_per_pixel */
"    32    32      256            2",
/* colors */
"`` c #6c562c",
"`. c #84aec4",
"`# c #84827c",
"`a c #c4ae7c",
"`b c #a48244",
"`c c #dcdad4",
"`d c #ac9a74",
"`e c #ccc6a4",
"`f c #bc9a5c",
"`g c #bcae9c",
"`h c #8c6a34",
"`i c #9cbacc",
"`j c #bca674",
"`k c #846e3c",
"`l c #7cc6fc",
"`m c #749aac",
"`n c #a48e64",
"`o c #c4ba9c",
"`p c #d4b27c",
"`q c #a49e8c",
"`r c #dcc694",
"`s c #eceeec",
"`t c #7c663c",
"`u c #8c7644",
"`v c #ccbe9c",
"`w c #bca264",
"`x c #cca66c",
"`y c #b48e4c",
"`z c #6c624c",
"`A c #8cd2fc",
"`B c #9c9a8c",
"`C c #c4b694",
"`D c #d4d6cc",
"`E c #c4c6c4",
"`F c #8cc6ec",
"`G c #b4a68c",
"`H c #74beec",
"`I c #848684",
"`J c #e4e6e4",
"`K c #b4a27c",
"`L c #bcaa7c",
"`M c #84a6b4",
"`N c #bcbabc",
"`O c #9c7a3c",
"`P c #c49a5c",
"`Q c #747664",
"`R c #d4be8c",
"`S c #e4cea4",
"`T c #b48a4c",
"`U c #acc6ac",
"`V c #f4faf4",
"`W c #ccae74",
"`X c #ac8a4c",
"`Y c #dce2dc",
"`Z c #bcb6a4",
"`0 c #849eac",
"`1 c #a4926c",
"`2 c #b4965c",
"`3 c #6c6a54",
"`4 c #745a2c",
"`5 c #ac8244",
"`6 c #ac9a84",
"`7 c #8c7244",
"`8 c #acb2ac",
".` c #c4a664",
".. c #7ccefc",
".# c #c4c2ac",
".a c #d4cabc",
".b c #aca69c",
".c c #8cbad4",
".d c #7c7a74",
".e c #9c9274",
".f c #d4c6ac",
".g c #bc9e6c",
".h c #c4baac",
".i c #d4ba84",
".j c #ac9e8c",
".k c #947e54",
".l c #ccc2ac",
".m c #c4a264",
".n c #ccb684",
".o c #8cceec",
".p c #84969c",
".q c #a47e3c",
".r c #e4d2b4",
".s c #ccb284",
".t c #b4b6b4",
".u c #c4a674",
".v c #8cb6d4",
".w c #94825c",
".x c #e4ded4",
".y c #bc9e5c",
".z c #bcb2ac",
".A c #84c6ec",
".B c #7ca2ac",
".C c #e4ca9c",
".D c #f4f6f4",
".E c #7c6a4c",
".F c #94763c",
".G c #ccaa6c",
".H c #bc9254",
".I c #74664c",
".J c #cccecc",
".K c #7cbeec",
".L c #b4a67c",
".M c #c4a67c",
".N c #c4c2bc",
".O c #9c7e4c",
".P c #c49e6c",
".Q c #74726c",
".R c #dcc294",
".S c #e4d2a4",
".T c #fcfafc",
".U c #ccb274",
".V c #ac966c",
".W c #b4ae9c",
".X c #ccba94",
".Y c #6c5e44",
".Z c #8caecc",
".0 c #a4864c",
".1 c #dcdedc",
".2 c #b49a6c",
".3 c #bcb29c",
".4 c #946e34",
".5 c #7c6e54",
".6 c #ac9664",
".7 c #c4bea4",
".8 c #d4b68c",
"#` c #f4f2ec",
"#. c #8ca6ac",
"## c #9c9684",
"#a c #9ca29c",
"#b c #84c2ec",
"#c c #8c8a6c",
"#d c #645a44",
"#e c #9c8a64",
"#f c #bcae94",
"#g c #ac8e54",
"#h c #c4b69c",
"#i c #746a5c",
"#j c #947234",
"#k c #846634",
"#l c #cccabc",
"#m c #eceaec",
"#n c #7c725c",
"#o c #b4aa9c",
"#p c #7c9eac",
"#q c #d4be9c",
"#r c #6c665c",
"#s c #94d6fc",
"#t c #94caec",
"#u c #848a94",
"#v c #84aac4",
"#w c #84cafc",
"#x c #947a4c",
"#y c #b4b2ac",
"#z c #e4e2dc",
"#A c #bc9654",
"#B c #ccc6b4",
"#C c #bca274",
"#D c #6c6a64",
"#E c #84cefc",
"#F c #c4a274",
"#G c #8ccefc",
"#H c #8c6e3c",
"#I c #d4b684",
"#J c #a4a294",
"#K c #b49254",
"#L c #b4aa94",
"#M c #848a8c",
"#N c #e4eaec",
"#O c #bcbeb4",
"#P c #9c7e44",
"#Q c #c49e5c",
"#R c #d4c294",
"#S c #84a2ac",
"#T c #a49674",
"#U c #745e34",
"#V c #ac8644",
"#W c #ac9e7c",
"#X c #c4aa6c",
"#Y c #d4cec4",
"#Z c #acaaa4",
"#0 c #d4cab4",
"#1 c #aca28c",
"#2 c #ccba8c",
"#3 c #747674",
"#4 c #846a3c",
"#5 c #7ccafc",
"#6 c #6c664c",
"#7 c #8ccaec",
"#8 c #7c7e74",
"a` c #c4beac",
"a. c #c4aa74",
"a# c #7cc2ec",
"aa c #c4aa7c",
"ab c none",
"ac c #8cb2cc",
"ad c #b49e6c",
"ae c #d4c29c",
"af c #a4824c",
"ag c #dcdadc",
"ah c #bc9a64",
"ai c #846e44",
"aj c #c4baa4",
"ak c #dcc69c",
"al c #cca674",
"am c #b48e54",
"an c #b4a694",
"ao c #74bef4",
"ap c #b4a284",
"aq c #bcaa84",
"ar c #84a6bc",
"as c #9c7a44",
"at c #d4be94",
"au c #e4ceac",
"av c #acc6b4",
"aw c #f4fafc",
"ax c #ccae7c",
"ay c #bcb6ac",
"az c #a49274",
"aA c #745a34",
"aB c #c4a66c",
"aC c #d4c6b4",
"aD c #d4ba8c",
"aE c #ccc2b4",
"aF c #c4a26c",
"aG c #ccb68c",
"aH c #bc9e64",
"aI c #7ca2b4",
"aJ c #e4caa4",
"aK c #947644",
"aL c #ccaa74",
"aM c #b4a684",
"aN c #e4d2ac",
"aO c #ccb27c",
"aP c #b4aea4",
"aQ c #bcb2a4",
"aR c #f4f2f4",
"aS c #94723c",
"aT c #cccac4",
"aU c #e4e2e4",
"aV c #bc965c",
"aW c #bcbebc",
"aX c #c49e64",
"aY c #84a2b4",
"aZ c #ac864c",
"a0 c #ac9e84",
"a1 c #aca294",
"a2 c #000000",
"a3 c #000000",
"a4 c #000000",
"a5 c #000000",
"a6 c #000000",
"a7 c #000000",
"a8 c #000000",
/* pixels */
"abababababababababababababababababababababababababababababababab",
"abababababababababababababababababababababababababababababababab",
"abababababababababababababababababababababababababababababababab",
"abababababababababababababababababababababababababababababababab",
"abababababababababababababababababababababababababababababababab",
"abababababababababababababababababababababababababababababababab",
"abababababababababababababababababababababababababababababababab",
"#`ababababababababababababababababababababababababababababababab",
"#zababababababababababababababababababababababababababababababab",
"#h#Yabababababababababababababababababababababababababababababab",
".r`C#B.Dabababababababababababababababababababababababababababab",
"auauaq.Nabababababababababababababababababababababababababababab",
"#qaG#q`v#0#mab.TaUag#Nababababababababababab.D`s.TabababaUaT.NaT",
"aD.MaGaJ`C`Z.T#N`8`B`NaRababababababababab.T`D#BaU.Tab#m#Z#ZaQ#y",
"aa.M.u.saJ#2.W#Za`#Y.h.taRababababababab.Taj.Xae.X#B`Yayay#0`Zay",
".s.u.2aaaO.R.n.L.3.la`aj.t.Tababababababa`aDak.C`S#Ra0a`.h`g.baQ",
"ax.u.2al`Wa.#Iat.L`G`Z.l.3`E.Tabababab.x`j.RaxaL.8ak`R#1#L#f#1.z",
"a.aFahaFaL.ual.Rat`d.3aE.l.b`Jabababab.hax`pa.aL.u`p.C`w`q`g#1aP",
"aBaX`2.gaFaX.u`W`WaDaa#W#L.3.W.N`sab.x.2aF.g.gaHaLaBaxaO.2a0.ja1",
"aXaHaVah.maHaBaLaF`p`W.6#Tan.3`qaT#ma`#gaHaVaV`2aLaBaF`WaB`1`6#J",
"aB`2aHaHaBaO.maBa.aH`f.uaL`n`1ajaj.e`WaBam`f`faVah.m`f.m`p.u.w##",
"al#KahaF`x#IaLa..UaB.maXaO.6#e#f`o`1.naL#KaHaHaV`faF`faXaOax.k`B",
".yaV`XaBaB#QaBaX`faHaHaB`W`R.i`a`j`W.GaHax`WaL.m.m#XaO`x`W.n.U.7",
"#AaH`yaV.m#K`f#A`T`2`TaHaBaO`r.i`W`a.`.HaB`j`waH.GaB`WaB.m`W.U`e",
"`T`X`X`X`y#K#K.H#K#V`X#V`X#V`f#Q`y`X`p`f`b`5#V`yaX.y#A`P`P`f`y`K",
"`X`b.q`X`y`f#A#K`y`b#V#V`X#V`X`P#g`b`f`f`b`O.q#V`Xam#K#A#A#K`5`d",
"`bas#jasaf#gam.0`bas`Oas`b#PaK#g`b`O#Paf`O`h.4aK#HaSas.0af#P#H#c",
"`7`7#k`t`7`7.O#x`k#4#4#4`k#4`t`7`7#kai#4#k```4#U#U#U#U`t#4`t``#n",
".5.5.I.E.I.5#n.5.I.I.I`z.Y.Y#d`z`z`z#i#r`3#r#D.Q.d#8#8#u#u`I#3.p",
"#.#S#p#p.B.B`M#S#p#p#p#p`0#p`m#p#paIaYaIaIaIar#v`.ac`i`U`U.v`..c",
"#E#w`A#s#G`l#5#5#5#5#5#5#5#5#5#5`l#5#5#5#5#5#5`l`l`l#5.o.o`l#G#7",
"a#.Ka#`F#7#b`H#7#t`H.K#b`H.K.K#ba#a#.K.Ka#.Ka#a#a#a#`H`Hao`H.K.A"
};
