/* XPM */
static char *trendsurfaceanaly_xpm[] = {
/* width height num_colors chars_per_pixel */
"    32    32      256            2",
/* colors */
"`` c #3c5274",
"`. c #84aec4",
"`# c #9cd6e4",
"`a c #f4d66c",
"`b c #e4aa14",
"`c c #d4d6d4",
"`d c #6482a4",
"`e c #e4eecc",
"`f c #cccea4",
"`g c #8c8a8c",
"`h c #94c6dc",
"`i c #eceecc",
"`j c #aceafc",
"`k c #fcc20c",
"`l c #646a7c",
"`m c #bcdae4",
"`n c #94969c",
"`o c #a4aecc",
"`p c #dcfafc",
"`q c #f4eac4",
"`r c #e4c25c",
"`s c #e4d69c",
"`t c #6c92b4",
"`u c #d4eef4",
"`v c #accadc",
"`w c #eceeec",
"`x c #8cbad4",
"`y c #8ca2b4",
"`z c #4c6a8c",
"`A c #d4b664",
"`B c #d4e2ec",
"`C c #e4eef4",
"`D c #647694",
"`E c #e4b62c",
"`F c #bce2f4",
"`G c #d4f6fc",
"`H c #ecfafc",
"`I c #b4e2f4",
"`J c #9ccee4",
"`K c #c4eaf4",
"`L c #f4e294",
"`M c #545e7c",
"`N c #acd6ec",
"`O c #c4c2bc",
"`P c #fcc62c",
"`Q c #f4ce4c",
"`R c #7c9ebc",
"`S c #9cb6c4",
"`T c #e4e6e4",
"`U c #f4b60c",
"`V c #7c7e7c",
"`W c #a4c2cc",
"`X c #8c9ac4",
"`Y c #dceef4",
"`Z c #9ca2a4",
"`0 c #c4f2fc",
"`1 c #fcbe04",
"`2 c #94aabc",
"`3 c #fcda76",
"`4 c #747680",
"`5 c #fce6a4",
"`6 c #acdee4",
"`7 c #dcdee4",
"`8 c #747274",
".` c #ccd6dc",
".. c #9c9ea0",
".# c #acd2e4",
".a c #5c7694",
".b c #dceaf4",
".c c #fcfeec",
".d c #ccced4",
".e c #f4d25c",
".f c #445e84",
".g c #ac9a64",
".h c #fceeb4",
".i c #6c727a",
".j c #7c92ac",
".k c #ecf6ec",
".l c #dce2e4",
".m c #cce2f4",
".n c #cceaf7",
".o c #9cbed4",
".p c #a4cae2",
".q c #a4a2a5",
".r c #8cb2cc",
".s c #dcdadc",
".t c #8c9294",
".u c #fcc21f",
".v c #c4daf4",
".w c #bcbec1",
".x c #5c6a7c",
".y c #c4e2f4",
".z c #b4d6e4",
".A c #fcce3c",
".B c #f4ba1c",
".C c #848684",
".D c #dceefc",
".E c #fcda84",
".F c #7c7a7c",
".G c #8caac4",
".H c #d4dae4",
".I c #748aa4",
".J c #6c6a6c",
".K c #bcdee7",
".L c #9c9a9d",
".M c #e4fafc",
".N c #eceaec",
".O c #7492b3",
".P c #d4f2fb",
".Q c #94bacc",
".R c #e4ba44",
".S c #e4f6fc",
".T c #dcf6f1",
".U c #f4fafc",
".V c #ece6a4",
".W c #5c667c",
".X c #c4cacc",
".Y c #fcca3c",
".Z c #fcce4c",
".0 c #849ebc",
".1 c #9cb6d4",
".2 c #fcb604",
".3 c #a4c2dc",
".4 c #fcbe15",
".5 c #74768c",
".6 c #fce6ac",
".7 c #bcd2ec",
".8 c #fcf2d4",
"#` c #cceefa",
"#. c #e4ce84",
"## c #fcb204",
"#a c #f4de8c",
"#b c #f4c24c",
"#c c #b4b2b4",
"#d c #94b2c4",
"#e c #bceafc",
"#f c #94a6cc",
"#g c #445a7c",
"#h c #849ab4",
"#i c #ecb214",
"#j c #ccdeec",
"#k c #e4f2e4",
"#l c #5c6274",
"#m c #9caecc",
"#n c #b4ced4",
"#o c #fcd660",
"#p c #fceab7",
"#q c #b4deec",
"#r c #f4f6fc",
"#s c #44567c",
"#t c #9ccae4",
"#u c #f4f2d4",
"#v c #b4c6e4",
"#w c #6c7a94",
"#x c #949290",
"#y c #f4e2a4",
"#z c #6c86a4",
"#A c #e4c66c",
"#B c #ecf2fc",
"#C c #546a8c",
"#D c #a4cee4",
"#E c #c4c6cc",
"#F c #ccf2fc",
"#G c #fcfafc",
"#H c #d4d2d4",
"#I c #4c5e84",
"#J c #fceec4",
"#K c #dce6f4",
"#L c #5c6e8c",
"#M c #6c6e7c",
"#N c #e4be54",
"#O c #b4d2e4",
"#P c #a4d6ec",
"#Q c #d4ceac",
"#R c #fcd260",
"#S c #b4eafc",
"#T c #9ca2b4",
"#U c #acdef4",
"#V c #9c9eac",
"#W c #ecf6fc",
"#X c #dcf6fc",
"#Y c #fcde8c",
"#Z c #d4dadc",
"#0 c #94cae4",
"#1 c #d4e6f4",
"#2 c #e4f2fc",
"#3 c #647a9c",
"#4 c #b4e6fc",
"#5 c #c4eefc",
"#6 c #546284",
"#7 c #fcca34",
"#8 c #9cbacc",
"a` c #e4eaec",
"a. c #7c8284",
"a# c #a4c6d4",
"aa c #dcf2f0",
"ab c #fcde7c",
"ac c #fcea9c",
"ad c #5c7a9c",
"ae c #fcf2bc",
"af c #dce6ec",
"ag c #a4a6ac",
"ah c #fcc624",
"ai c #c4e6f2",
"aj c #b4dae8",
"ak c #848a8c",
"al c #8caecc",
"am c #94bed4",
"an c #e4be4c",
"ao c #fcd24f",
"ap c #fcba05",
"aq c #b4b6bc",
"ar c #949694",
"as c #f4e6ac",
"at c #6486a4",
"au c #646e7c",
"av c #949a9c",
"aw c #dcfefc",
"ax c #6c96b4",
"ay c #8cbed4",
"az c #bce6f4",
"aA c #ecfefc",
"aB c #acdaec",
"aC c #7ca2bc",
"aD c #8c9ec4",
"aE c #ccd2d4",
"aF c #dcf2fc",
"aG c #fcde84",
"aH c #e4fefc",
"aI c #f4fefc",
"aJ c #84a2bc",
"aK c #9cbad4",
"aL c #a4c6dc",
"aM c #747a8c",
"aN c #fceaac",
"aO c #b4cae4",
"aP c #546e8c",
"aQ c #a4d2e4",
"aR c #ccf6fc",
"aS c none",
"aT c #4c6284",
"aU c #84aecc",
"aV c #d4d6dc",
"aW c #fcc214",
"aX c #bcdaec",
"aY c #d4eefc",
"aZ c #eceef4",
"a0 c #8ca2bc",
"a1 c #d4e2f4",
"a2 c #e4eefc",
"a3 c #c4c2c4",
"a4 c #fcc634",
"a5 c #e4e6ec",
"a6 c #7c7e84",
"a7 c #9ca2ac",
"a8 c #fcbe0c",
/* pixels */
"aS.L...L...L...L...L...L...L...L...L...L...L...L.L...L...L..`naq",
"#M#E.l`7`7`7.l#Zak.d.l`7`7#Z`T#c.ta5#Z.l`7#Z`T`n.waf`7`7`7.l.dav",
"`8`7aSaSaSaSaSaS`na`aSaSaSaSaS.X.qaSaSaSaSaSaSag#ZaSaSaSaSaSa`..",
"`8#ZaSaSaSaSaSaS`na5aSaSaSaSaS#E`ZaSaSaSaSaSaS.qaVaS#r.U.UaSa5..",
"`8`7aSaSaSaSaSaS#xa5aSaSaSaSaS#E.qaSaSaSaSaSaS.qaVaSaSaSaS#B`oav",
".i.saSaSaSaSaSaS`na5aSaSaSaSaSa3..aSaSaSaSaSaSag#HaSaSaSaS.7`X.L",
"`8`7aS#GaS.UaS.U`na`aSaSaSaSaS.X.qaSaSaSaSaSaSag#ZaSaSaS#KaOaD..",
"#M`c.c#J.6aG`3#y#xaVaZ.Na`.NaZ.w..aZ.Na`.Na`aZ...d.N.N`Ca1#v#f..",
"`4#Q.h#p`5`3a4.4#i.g#V`Z.L.....t`g.........L..`g#x.....`#1#v#m..",
".i`s.h#p.6#Y.Z.u`1.2#b`qaIaSaSa3..#GaS#r#r#r#G.q.`#G`C.b.maO.1..",
"`4#.`5.6`5aG.Z`P.4ap##`U.EaSaS.X.qaSaSaSaSaSaSagaVaS`C`Y#j.7.3.L",
"`4#Aab#YaG#Ra4.u.ua8ap.2##.B#Y`O#TaSaSaSaSaSaSag.saS.D`C#j.v`v..",
".i`r#o#R#R.Y.4.4.4.u.4a8ap.2.2`U`A.8aSaSaSaSaS.qaEaI.Sa2.m.y.#..",
"aManaoao.Z`Papapa8.4.4.u.4.u.4a8`k.4#o#paSaSaS.w.b`H#Waa`u.n.z..",
".i`raoao.Z`Papapapap.4.4.uah`P`P`P`P.u`P.Y`3#uaI`H`H#W.D#`#`aX..",
"aManao#R.Z`Pap.2apapapapa8ap.4.4`Pa4.Z`3as.k`H`H`H`H.SaF.P#F.K`Z",
"`4.R.Aa4a4.uap.4.4.4.4.ua4.Z`a#a#y`i.k`H`H`H`H`H#W.S#X.P#`#F#q..",
"#w`EaW#R.V`i#k.T#kaa.T.S#X`paw.Maw.M.M.M.M.M.M#X#X`G#F#F#5`0`6..",
"`4`b#a`p`p#X`G.P`G.P.P.P.P.P.P.PaF`G.P`G.P.P#`#5#5#e#e#S#4`j`#..",
"`8`f`paFaF.P`u#`#`#`#`#`#`#`aY#`#`.n.n`Kaiaz`F`I`I`I#q#U#U#U#0`Z",
"`8aX.P`u.P.n`Kai.y.y.yaz.y`F`F`F.K#q#qajaB`NaB`N`N`NaB#P#P`#`h..",
"`4#nai.yai`m.#.##DaQ`vaQ#D#D#D#D#D.p#D.p#D.p#D.p`J.p.p#t#t#0`x..",
"`4`W`m.z#OaL.oam.oam.oam.o.o.oam.oamam.oamam.oam.oamamam`xayaUav",
".F`SaL`v`W.Qal.r.r.r.r.r.r.r.r.r.r.r.r.r.r.r.r.r.r.r.ralaUaUaC..",
".Fa0#8#8aK.GaJaJaJaJaJaJaJaJaJaJaJaJaJaJaJaJaJaJaJ.0aJ`R`RaCaxav",
".FaJ#d`S#d.0.O.O.O.O.O.O.O.O.O.O.O.O.O.O.O.O.O.O.O.O.O.O`t`tat.L",
".F.j.0`y#h#z#z#z#z#z#z#z#z#z#z#z#z#z#z#z#z#z#z#z#z#z#z#z`d`dadav",
"`V#w#3#3.a`D.a`D.a`D.a`D.a`D.a`D.a`D.a`D.a`D.a`D.a.a.a#L.a.aaPav",
"`V#L#C#C#C#C#C#C#C#C#C#C#C#C#C#C#C#C#C#C#C#C#C#C#C#6#C#CaT`zaTav",
"a6#6#I#I#I#g#g.f#g#I#g.f#I#g.f#g#I#g#I#g.f#I#g.f.f#I.f.f#I.f#sav",
".C`M#s#s#s#s#s#s#g#s#s#s#s#s#s#s#s#s#s#s#s#s#s#s#s#s#s#s#s#s```n",
".C.i#M.J.i.i#M#M#M#M#Mau#Mau#Mauauau`lau`lau`l`l.x`l`l.W.W.W#l.L"
};
