/* XPM */
static char *varianceanaly_xpm[] = {
/* width height num_colors chars_per_pixel */
"    32    32      256            2",
/* colors */
"`` c #042484",
"`. c #049204",
"`# c #849a7c",
"`a c #84da5c",
"`b c #6c665c",
"`c c #bcccac",
"`d c #147a04",
"`e c #d4cabc",
"`f c #d4a604",
"`g c #34c624",
"`h c #e4e6dc",
"`i c #84b684",
"`j c #043ea4",
"`k c #3c5a8c",
"`l c #449644",
"`m c #eceeec",
"`n c #243e77",
"`o c #a46604",
"`p c #bca66c",
"`q c #94aedc",
"`r c #a4e69c",
"`s c #dcdada",
"`t c #64c634",
"`u c #545a64",
"`v c #7492bc",
"`w c #345084",
"`x c #f4f6f3",
"`y c #44b62c",
"`z c #7c8084",
"`A c #3c6634",
"`B c #c4c0bc",
"`C c #244aac",
"`D c #b4d6b4",
"`E c #3c4a8c",
"`F c #acaeac",
"`G c #5cde3c",
"`H c #04328c",
"`I c #1cae0c",
"`J c #3466bb",
"`K c #2c467a",
"`L c #a49e98",
"`M c #d4deec",
"`N c #44723c",
"`O c #849ed0",
"`P c #c4cad4",
"`Q c #e4be04",
"`R c #d4febc",
"`S c #ecf2fa",
"`T c #64b254",
"`U c #b4bec4",
"`V c #d4d2cb",
"`W c #f4fefc",
"`X c #748ebc",
"`Y c #a4a69c",
"`Z c #f4ca04",
"`0 c #b4b2a4",
"`1 c #144aa4",
"`2 c #2c5ab0",
"`3 c #b47a04",
"`4 c #646e81",
"`5 c #8c8a88",
"`6 c #2c9a14",
"`7 c #cccabc",
"`8 c #4cca2c",
".` c #e4f2dc",
".. c #6c964c",
".# c #2c4277",
".a c #bce2b4",
".b c #5cd638",
".c c #fcf6f0",
".d c #e4e2e7",
".e c #d4d6d7",
".f c #3c62ac",
".g c #042a84",
".h c #6c7283",
".i c #244ea4",
".j c #5c5e54",
".k c #7cee54",
".l c #1c3a7c",
".m c #8caadb",
".n c #ecbe24",
".o c #3462b8",
".p c #bc8804",
".q c #6cd63c",
".r c #c4d2b1",
".s c #dce6f3",
".t c #84c664",
".u c #1c3e74",
".v c #44a620",
".w c #eceafc",
".x c #44be1c",
".y c #ccc6ac",
".z c #04369c",
".A c #34ba1c",
".B c #2c4686",
".C c #dce0e9",
".D c #5c7e54",
".E c #b4bedc",
".F c #dcd5cb",
".G c #b4aa9c",
".H c #2c9e1c",
".I c #9c927c",
".J c #244284",
".K c #e4decc",
".L c #848688",
".M c #b4b6b6",
".N c #6cea2c",
".O c #3c6ebc",
".P c #4c7e3c",
".Q c #f4c604",
".R c #f4f2ee",
".S c #64c244",
".T c #aca6a3",
".U c #fcda14",
".V c #345eb4",
".W c #5472a4",
".X c #bcf1a9",
".Y c #64d739",
".Z c #2c56b4",
".0 c #e4e7f3",
".1 c #dce2f4",
".2 c #84f254",
".3 c #c4ceb0",
".4 c #248214",
".5 c #c4ae64",
".6 c #44d22c",
".7 c #0c3f9f",
".8 c #24427b",
"#` c #9cb2dc",
"#. c #c4d6cc",
"## c #b4c6a4",
"#a c #f4da3c",
"#b c #94c294",
"#c c #54a44c",
"#d c #5ca64c",
"#e c #3c923c",
"#f c #9cae8c",
"#g c #646468",
"#h c #647eac",
"#i c #e4f6dc",
"#j c #54da34",
"#k c #0c8a04",
"#l c #ac7604",
"#m c #949694",
"#n c #1cba14",
"#o c #6c6e84",
"#p c #cce2cc",
"#q c #54b234",
"#r c #dcf6dc",
"#s c #ccdedc",
"#t c #7c9ecc",
"#u c #94c47c",
"#v c #54c234",
"#w c #b4eea4",
"#x c #3ca21c",
"#y c #fce644",
"#z c #74c25c",
"#A c #ccd2e4",
"#B c #049e04",
"#C c #2cb214",
"#D c #cc8a04",
"#E c #6ce848",
"#F c #bcc2c8",
"#G c #fcd214",
"#H c #848a9c",
"#I c #d4e2d4",
"#J c #54d234",
"#K c #64665c",
"#L c #34a624",
"#M c #84fa54",
"#N c #dcae04",
"#O c #b48204",
"#P c #c4eab4",
"#Q c #c4c6c4",
"#R c #2c8a14",
"#S c #54ba24",
"#T c #545e7c",
"#U c #042e9c",
"#V c #1c428c",
"#W c #5476bc",
"#X c #7c96c8",
"#Y c #b4b2b4",
"#Z c #0c3684",
"#0 c #74767c",
"#1 c #74d24c",
"#2 c #ccdabc",
"#3 c #9c9a9c",
"#4 c #3c6e30",
"#5 c #ccd2b4",
"#6 c #6c6e5c",
"#7 c #3cc828",
"#8 c #aceaa4",
"a` c #3c67bc",
"a. c #4c7634",
"a# c #cccecc",
"aa c #ecbd07",
"ab c #bcbabc",
"ac c #34961c",
"ad c #2c50ac",
"ae c #646159",
"af c #bcc2d4",
"ag c #042694",
"ah c #dcaa04",
"ai c #4c9a44",
"aj c #f4fafc",
"ak c #4cb22c",
"al c #848284",
"am c #ccc2bc",
"an c #acb2bc",
"ao c #a4a2a4",
"ap c #6cb654",
"aq c #1c4ca4",
"ar c #2c5ebc",
"as c #e4eeec",
"at c #fcfafc",
"au c #3cbe1c",
"av c #acaaac",
"aw c #949aa4",
"ax c #f4eee9",
"ay c #64de44",
"az c #bcb29c",
"aA c #94aad9",
"aB c #8cfa5c",
"aC c none",
"aD c #a4a6ac",
"aE c #bc7a04",
"aF c #54ca2c",
"aG c #2c4284",
"aH c #6c728c",
"aI c #f4c614",
"aJ c #f4f2fc",
"aK c #6cc244",
"aL c #24ba14",
"aM c #bc8204",
"aN c #ccc6c4",
"aO c #d4cec4",
"aP c #bcaa6f",
"aQ c #94b2e0",
"aR c #dcdedc",
"aS c #f4faf4",
"aT c #043694",
"aU c #2c4a7c",
"aV c #a4a29c",
"aW c #447638",
"aX c #84a2d4",
"aY c #d4d6cc",
"aZ c #2c5eb4",
"a0 c #8c8e8c",
"a1 c #fcfaf4",
"a2 c #042e88",
"a3 c #2452ac",
"a4 c #7cf24c",
"a5 c #ecc22c",
"a6 c #eceef5",
"a7 c #043aa1",
"a8 c #2c4a84",
/* pixels */
"aCaCaCaCaCaCaCaCaCaCaCaCaCaCaCaCaCaCaCaCaCaCaCaCaCaCaCaCaCaCaCaC",
"aCaCaCaC#W#Xa1ataCaCaCaCaCaCaCaCaCaCaCaCaCaCaCataC#`.faxaCaCaCaC",
"aCaCaCaC.V.8.KaCaCaCaCaCaCaCaCaCaCaCaCaCaCaCaCaCaCaA```0aCaCaCaC",
"aCaJ.s.sa`.J#F.0.s.0.s.0.s.0.0.s.0.0.s.0.s.0.s.1.0#t`Haw.saJaCaC",
"aC#Xaga7.7a7a7.z.za7.za7.za7.z.za7.z.za7a7`ja7`ja7.7a7.7#U.WaxaC",
"aC.C#H.haq.l#g`4`4.h`4aH`4`4`4`4.h`4aH`4aeae.j#g`b`k.z`u`4`z`saC",
"aCaC.c.c`J.8`e`x.R.R`x#I.eax`x.R.R.Ra6.5.na5`Qah#D#6.z`LaxaxataC",
"aCaCaCaCa`.8.FaCaCaCaC.0.daCaCaCaCaC`WaP#a#y.U`QaE#KaTaVaCaCaCaC",
"aCaCataCa`.8`VatatataC.0.CaCaCaCaCaCaCaPaI#G.Q#NaE#K.zaVaCaCaCaC",
"aCaCaCaCa`.8.FaCaCaCaC.0.CaCaCaCaCaC`WaPaa`Zaa`f`3ae.z`YaCaCaCaC",
"aCaCaCaCa`.#`7ab#Y`saC.0.CaCaCaCaCaCaC`p.p.p#O#l`o.j.zaVaCaCaCaC",
"aCaCaCaCa`.B.Mafan#m`U#A`M.C.C.1.C`M`M#QabaNaNab`V`Xa2.TaCaCaCaC",
"aCaCaCaCa`.8a#aCaCaCab`z`xaCatataCaCaJ.saCaCaCataC`q.g`YaCaCaCaC",
"aCaCaCaCa`.#.3#1.taCaC.e#3.MaCaCaCaCaJ.saCatatataC.m.g`YaCaCaCaC",
"aCaCaCaC`JaG#5#M.SaCaCa6a6#mao.daCaC.R.saCaCaCataCaA.g.TaCaCaCaC",
"aCaCaCaCa`.#.ra4#z#P`t#batata#`z.FaCa6.0aCaCaCataC.m.g`YaCaCaCaC",
"aCaCaCaC`J.B.r#Eap`R.N`iataCaC`sav.CaC.CaCaCaCataCaA.g.TaCaCaCaC",
"aCaCaCaCa`.#.3`G`T`R.Y#q`aaK.`aCa1.L.e`SaCaCaCaCaC`q.g`YaCaCaCaC",
"aCaCaCaCa`.B.r#j#c.X#j.vaBaF#..w.s`P#0`P.0.C.0.1a6#t.g`YaCaCaCaC",
"aCaCaCaC`JaG`c.6#c.X`8#x.2#v`D#I`m`x.eao.Ca6.d.C`m`O.g.TaCaCaCaC",
"aCaCaCaCa``K`c`g#c.Xauac#Eak#S.Y#iaCaCaf`5.MaSaCaC.m.g`YaCaCaCaC",
"aCaCaCaC`JaG`caLai#w#C#R.b#Lak.k#r#i#p.e`m`Fa0.daC`q.g`YaCaCaCaC",
"aCaCaCaCa``K`caL`l#8`I.4#J.H#xay#P.q.x#uaCaCaN`5`BaQ``.TaCaCaCaC",
"aCaCataC`J.B###B#e`r`.`d.A#k`6#7.a.Y#7#uatataCaj`L#h`HaVaCaCaCaC",
"aCaCaCaCa`aU.y`N.D`#`A`NaW#4.Pa.#2..#4#faCaCaCaCaCaQ.gavaCaCaCaC",
"aCaA.Z.Oaq.7.Vad`Caqadadadad`Cad`2ad`Ca3a`a`a`a`a``2.z`2.V`Oa1aC",
"aC.E`E.#.7#Z.#`K`KaU`K`K`KaUaU`K.B`Ka8`w.8.8.8.8.##VaT.8`n#T`saC",
"aCaC`h.F`J.#az.F`V`V`V`V`V`V`V`V`V.F`V.F`V.F.FaO.K#X`H.I`V`V.RaC",
"aCaCaCaC.o.l.FaCaCaCaCaCaCaCaCaCaCaCaCaCaCaCaCaCaC.m``aVaCaCaCaC",
"aCaCaCaC`P.L.eaCaCaCaCaCaCaCaCaCaCaCaCaCaCaCaCaCaC.0#H.MaCaCaCaC",
"aCaCaCaCaC.RataCaCaCaCaCaCaCaCaCaCaCaCaCaCaCaCaCaCaC.c`xaCaCaCaC",
"aCaCaCaCaCaCaCaCaCaCaCaCaCaCaCaCaCaCaCaCaCaCaCaCaCaCaCaCaCaCaCaC"
};
