/* XPM */
static char *about_xpm[] = {
/* width height num_colors chars_per_pixel */
"    32    32      256            2",
/* colors */
"`` c #043e9c",
"`. c #049efc",
"`# c #046ed4",
"`a c #949eac",
"`b c #6c6e74",
"`c c #8cd6fc",
"`d c #3c5684",
"`e c #3c72bc",
"`f c #0456bc",
"`g c #0486ec",
"`h c #d4d2cc",
"`i c #d4eaf4",
"`j c #44a2ec",
"`k c #24428c",
"`l c #bcb6ac",
"`m c #1c6ec4",
"`n c #044aac",
"`o c #245aac",
"`p c #5486c4",
"`q c #eceae4",
"`r c #1c86e4",
"`s c #047adc",
"`t c #749ed4",
"`u c #e4dedc",
"`v c #0462c4",
"`w c #f4f6f4",
"`x c #84c2f4",
"`y c #44b6fc",
"`z c #143e94",
"`A c #848a8c",
"`B c #24a2fc",
"`C c #ccdeec",
"`D c #1462bc",
"`E c #0492f4",
"`F c #c4c6c4",
"`G c #0442a4",
"`H c #545e74",
"`I c #046acc",
"`J c #2caafc",
"`K c #146ec4",
"`L c #fcf2ec",
"`M c #147ad4",
"`N c #54b6fc",
"`O c #1c4a9c",
"`P c #ecf2f4",
"`Q c #1c92ec",
"`R c #cccacc",
"`S c #0476dd",
"`T c #9c9e9c",
"`U c #3c62a4",
"`V c #348adc",
"`W c #dcd6d1",
"`X c #0452b9",
"`Y c #7492bc",
"`Z c #0462d8",
"`0 c #acb6c4",
"`1 c #7c7e89",
"`2 c #0482ea",
"`3 c None",
"`4 c #8492a4",
"`5 c #34a2f4",
"`6 c #b4c6e4",
"`7 c #0442af",
"`8 c #a4bee4",
".` c #1486ec",
".. c #44aefc",
".# c #247ad4",
".a c #5c92d4",
".b c #1c8ee4",
".c c #fcf6f0",
".d c #dcdee0",
".e c #149af8",
".f c #54befc",
".g c #0c6ecc",
".h c #045ec4",
".i c #e4eaef",
".j c #044ab5",
".k c #2466bc",
".l c #f4eeea",
".m c #e4e6e7",
".n c #0c62c4",
".o c #c4cedc",
".p c #043aa4",
".q c #647294",
".r c #c4d2e0",
".s c #445a84",
".t c #4c7ec4",
".u c #048ef4",
".v c #ccdae4",
".w c #344a7c",
".x c #2476cc",
".y c #0c7adc",
".z c #64c2fc",
".A c #94928c",
".B c #049afc",
".C c #3caaf4",
".D c #acaaa4",
".E c #34a6f4",
".F c #b4ceec",
".G c #acbed4",
".H c #54b2f4",
".I c #0472d8",
".J c #84aadc",
".K c #2c7acc",
".L c #0c56b4",
".M c #048af2",
".N c #d4f2fc",
".O c #b4bacc",
".P c #2472c4",
".Q c #648abc",
".R c #eceef4",
".S c #248ae0",
".T c #047eec",
".U c #7ca6d4",
".V c #4cb6fc",
".W c #1c3e8c",
".X c #8c8a84",
".Y c #d4e6f4",
".Z c #0c429c",
".0 c #646a6c",
".1 c #0c6acc",
".2 c #f4f2f1",
".3 c #4c6694",
".4 c #2c96ec",
".5 c #dcdadc",
".6 c #0446ae",
".7 c #4caef4",
".8 c #fcfafc",
"#` c #5cbefc",
"#. c #149efc",
"## c #647eac",
"#a c #4c567c",
"#b c #346ab4",
"#c c #9ca6b4",
"#d c #849abc",
"#e c #345a9c",
"#f c #3c7ecc",
"#g c #749ad4",
"#h c #dce6f4",
"#i c #24a6fc",
"#j c #446aac",
"#k c #2c92ec",
"#l c #9cd6fc",
"#m c #8ca2c4",
"#n c #a4b6dc",
"#o c #2c4e94",
"#p c #74767c",
"#q c #4caaf4",
"#r c #1c82dc",
"#s c #bcbebc",
"#t c #548ed4",
"#u c #146acc",
"#v c #5c6a7c",
"#w c #c4d6f4",
"#x c #445274",
"#y c #2c9eec",
"#z c #2492e4",
"#A c #84827c",
"#B c #3cb2fc",
"#C c #148eec",
"#D c #0c76d4",
"#E c #bccedc",
"#F c #8caacc",
"#G c #8c9aac",
"#H c #dceaf4",
"#I c #2c4684",
"#J c #44669c",
"#K c #3c9eec",
"#L c #bccadc",
"#M c #6492cc",
"#N c #2c66bc",
"#O c #747274",
"#P c #d4d6dc",
"#Q c #d4e2ec",
"#R c #c4cad4",
"#S c #5cbafc",
"#T c #d4cecc",
"#U c #acaeb4",
"#V c #acc2e4",
"#W c #1ca2fc",
"#X c #0c3e98",
"#Y c #0c4aa4",
"#Z c #0c52b4",
"#0 c #0c82e4",
"#1 c #248ee7",
"#2 c #ece6e4",
"#3 c #d4dadc",
"#4 c #a4a6ac",
"#5 c #646a84",
"#6 c #046adc",
"#7 c #34aafc",
"#8 c #0c5ec4",
"a` c #0c9afc",
"a. c #3ca6f4",
"a# c #3c76c4",
"aa c #045abf",
"ab c #d4eefc",
"ac c #bcbab4",
"ad c #1c72cc",
"ae c #548acc",
"af c #eceeec",
"ag c #047ee4",
"ah c #74a2d7",
"ai c #e4e2e1",
"aj c #0466cc",
"ak c #f4fafc",
"al c #0496fc",
"am c #1472cc",
"an c #147edc",
"ao c #1c96f4",
"ap c #dcdad4",
"aq c #0466d4",
"ar c #fcfaf4",
"as c #0c72d4",
"at c #044eb5",
"au c #246ac4",
"av c #0c66c7",
"aw c #043eac",
"ax c #3caefc",
"ay c #acc2dc",
"az c #8c8e8c",
"aA c #4cb2fc",
"aB c #6496d4",
"aC c #24468c",
"aD c #1c8ae4",
"aE c #44bafc",
"aF c #144294",
"aG c #cce2ec",
"aH c #0446a4",
"aI c #54bafc",
"aJ c #b4cae4",
"aK c #a4c2e4",
"aL c #44b2fc",
"aM c #54c2fc",
"aN c #445e84",
"aO c #4cbafc",
"aP c #1c428c",
"aQ c #0c469c",
"aR c #2c9aec",
"aS c #5cc2fc",
"aT c #a4badc",
"aU c #3ca2ec",
"aV c #046edc",
"aW c #0486f4",
"aX c #d4d2d4",
"aY c #1c6ecc",
"aZ c #eceaec",
"a0 c #047ae4",
"a1 c #0462cc",
"a2 c #f4f6fc",
"a3 c #848a94",
"a4 c #0492fc",
"a5 c #046ad4",
"a6 c #146ecc",
"a7 c #147adc",
"a8 c #ecf2fc",
/* pixels */
"`3`3`3`3`3`3`3`3`3`3`3`3`3`3`3`3`3`3`3`3`3`3`3`3`3`3`3`3`3`3`3`3",
"`3`3`3`3`3`3`3`3`3`3`3.i`6.UaB.a#M`taT#h.8`3`3`3`3`3`3`3`3`3`3`3",
"`3`3`3`3`3`3`3`3`3.r#tad#D#r`r`r#r`Mav.n.t#n`w`3`3`3`3`3`3`3`3`3",
"`3`3`3`3`3`3`3.i#tas#zax`N`NaL..`5`5aR#1.I`f`e#L`3`3`3`3`3`3`3`3",
"`3`3`3`3`3`3#wa6aDaO.faI#B`B.e.u.M`2agag#0#0a1#Z#mar`3`3`3`3`3`3",
"`3`3`3`3`3aKav`5aS#S`y#W.u`2`2.Tagaga0aga0`S`saVat`Y`L`3`3`3`3`3",
"`3`3`3`3#w.1a.aSaI#7al`.at`o.kau.P.#.#.Iag`s`S.I`#`n#dar`3`3`3`3",
"`3`3`3a8.KaRaS#S#ialal.B.L.G.5#P#3`u#E.Ia0`S`S`#.Iaj#Y`0`3`3`3`3",
"`3`3`3aha7aM#S`Jal.B.B.B#8#R#2ai.m.l.ra0ag`S`S.I`#`#`X`U.d`3`3`3",
"`3`3.i#u..#`#Bal.Balalalav#L`q.m.i.l`C.Ta0`S.I.I`#`Ia1`7#Gar`3`3",
".8`3.Ja7aI`Na`a4alalala4.g.r.lafaf.c.YaW`s`S.I`#`#`Iajat#J`W`3`3",
"`3`3#f#z#S.E.uala4a4`E.u#D.v.2.2a2`3`i.M`S`S.I`#`Ia5a1`f.Z#U`3`3",
"`3#haYa..Hao.u.u.u.u.u.u.y.v.8a2.8`3ab.M`S.I.I`#`I`I`v`faH`4.2`3",
"`3#L#u.7...M.M.M.u.u.M.M#0#Q.8.8`3`3ab.M`S.I`#`#ajaja1`f`7.qai`3",
"`3`8.1#q#K`g`g.M`g.M`g`g#0.Y`3`3`3`3abaW`S`#`#a5`Iaj.h`X.6aNap`3",
"`3`8.1`j#z`2`g`g`g`g`g`2#C`i`3`3`3`3abaW.I`#`#`Iajajaa`X`7`d`W`3",
"`3#Vav`j#z.T`2`2`2ag`2aga4aL#`aI#S#`aE.u`#`#`Iaqa1a1`Xat`7.s`h`3",
"`3.r`D`5aDagagagagagagag`2a0#6`Z`Z#6.I.I`#a5`Iaj`v.h`Xat`G#5`W`3",
"`3.2.k.SaD`Sag`s`sa0`s`s.I`fa##gah`V.IaV`Ia5aja1`vaa`n.j``#Aai`3",
"`3`3`p.g#1.I`sa0`S`s`s`S`f#FaZ`w.c`P`x.T`Iaja1`v.hat.j.6aP.A`w`3",
".8`3`6`X.S.I.I`S`S.I`Sa1ae`L.iaf.2ar`3`ya5aj`v.h`f`nat.p.s`l`3`3",
"`3`3.2#ba5.yaV.I.I.I.I`Zah.2`q.2akak`3.z#6.h.haa.j`n.6`z#p.d`3`3",
"`3`3`3.Gatas`#`#`#`#`#`I#r#h.c`3`3`3ab.ea1.haaat`n`n.p#x.D.8`3`3",
"`3`3`3.8.Qat.Ia5`I`#a5`Ia5`Q#lab.N`c#Wa5aaaaat.6`nawaC#Aai`3`3`3",
"`3`3`3`3aZ#jat`#`Iajaj`Iaj`I`S`2`2`S`Zaa`f`n`n`naw`z`b`R`3`3`3`3",
"`3`3`3`3`3.d#j.6a1`Iaja1`va1.h`v.h`f`Xat`n.j.6awaP.0acar`3`3`3`3",
"`3`3`3`3`3`3ai##`Gat.h`v.haaaa`f`Xatat`n.j`7.p#I#O#sar`3`3`3`3`3",
"`3`3`3`3`3`3`3.l#c#e``.6.jatatatat.6.6aw``aP`H.A#T`3`3`3`3`3`3`3",
"`3`3`3`3`3`3`3`3.8`W`a.3#o`O`G````aFaC.w#v.Xac`q`3`3`3`3`3`3`3`3",
"`3`3`3`3`3`3`3`3`3`3.8ai`F#ca3`1`1a3`T`l`Raf`3`3`3`3`3`3`3`3`3`3",
"`3`3`3`3`3`3`3`3`3`3`3`3`3.c.2.2.2.2.2.8`3`3`3`3`3`3`3`3`3`3`3`3",
"`3`3`3`3`3`3`3`3`3`3`3`3`3`3`3`3`3`3`3`3`3`3`3`3`3`3`3`3`3`3`3`3"
};
