/* XPM */
static char *admin_32_xpm[] = {
/* width height num_colors chars_per_pixel */
"    32    32      256            2",
/* colors */
"`` c None",
"`. c #1c82d4",
"`# c #a48684",
"`a c #9c0204",
"`b c #94caf4",
"`c c #f4421c",
"`d c #5c8ec4",
"`e c #cccacc",
"`f c #d41a04",
"`g c #5caae4",
"`h c #bc7a6c",
"`i c #1c468c",
"`j c #fc8284",
"`k c #7cbaf4",
"`l c #3c9adc",
"`m c #64769c",
"`n c #0462c4",
"`o c #a4daf4",
"`p c #f45234",
"`q c #f42e04",
"`r c #fca6c4",
"`s c #ac1e24",
"`t c #64b6e4",
"`u c #5482b4",
"`v c #e4e2e4",
"`w c #7cc2ec",
"`x c #a4a6a4",
"`y c #f4625c",
"`z c #54a6e4",
"`A c #246ebc",
"`B c #b40a04",
"`C c #d4fafc",
"`D c #fc726c",
"`E c #f44a2c",
"`F c #1452a4",
"`G c #4c9ee4",
"`H c #bce6fc",
"`I c #ec3a1c",
"`J c #c4c2c4",
"`K c #fc929c",
"`L c #3c8ed4",
"`M c #8cc6f4",
"`N c #6cb2ec",
"`O c #0c72d4",
"`P c #f45a4c",
"`Q c #fcb6dc",
"`R c #74b6ec",
"`S c #b4b6b4",
"`T c #f46a64",
"`U c #9cd2f4",
"`V c #e42604",
"`W c #64b2ec",
"`X c #34467c",
"`Y c #44a2e4",
"`Z c #84c2f4",
"`0 c #b41204",
"`1 c #f4f2f4",
"`2 c #548ebc",
"`3 c #343264",
"`4 c #2c8adc",
"`5 c #a4a2a4",
"`6 c #fc4214",
"`7 c #64aae4",
"`8 c #fc8a8c",
".` c #84bae4",
".. c #449adc",
".# c #f4360c",
".a c #bceafc",
".b c #ac0a04",
".c c #e42204",
".d c #1c4e9c",
".e c #1c6ecc",
".f c #b4e6fc",
".g c #fcaecc",
".h c #cc1a04",
".i c #eceaec",
".j c #acaeac",
".k c #fc624c",
".l c #2c7acc",
".m c #fc4a24",
".n c #fc3a0c",
".o c #fc5e44",
".p c #74beec",
".q c #84c2fc",
".r c #2c3a74",
".s c #fc4624",
".t c #449edc",
".u c #c4867c",
".v c #9ccefc",
".w c #fcc2ec",
".x c #dc2204",
".y c #5caee4",
".z c #244284",
".A c #fc8684",
".B c #7cbeec",
".C c #046acc",
".D c #acdafc",
".E c #fc5234",
".F c #fc3204",
".G c #b42614",
".H c #6cb6ec",
".I c #346aac",
".J c #bc0e04",
".K c #dcfafc",
".L c #fc7a74",
".M c #0c5ebc",
".N c #54a2e4",
".O c #c4e2f4",
".P c #fc9aac",
".Q c #3c96dc",
".R c #1c7ed4",
".S c #fcbeec",
".T c #74baec",
".U c #bcbebc",
".V c #fc6a5c",
".W c #a4d6f4",
".X c #84c6ec",
".Y c #c41604",
".Z c #fcfefc",
".0 c #5492cc",
".1 c #348edc",
".2 c #fc461c",
".3 c #fc4e2c",
".4 c #2486d4",
".5 c #9c8e8c",
".6 c #a40604",
".7 c #94cef4",
".8 c #8c8a8c",
"#` c #dcdedc",
"#. c #dc6a74",
"## c #c49a9c",
"#a c #7c7e7c",
"#b c #b42a34",
"#c c #548ab4",
"#d c #acaaac",
"#e c #bcbabc",
"#f c #b4b2b4",
"#g c #1476d4",
"#h c #ec2a04",
"#i c #fc8e9c",
"#j c #84bef4",
"#k c #c4eefc",
"#l c #0c6ecc",
"#m c #bc1204",
"#n c #fc360c",
"#o c #2472c4",
"#p c #1456ac",
"#q c #ec3e24",
"#r c #fc96a4",
"#s c #3c92dc",
"#t c #f45e54",
"#u c #344a84",
"#v c #34366c",
"#w c #64aeec",
"#x c #fcb2d4",
"#y c #fc6654",
"#z c #fc3e14",
"#A c #2c3e7c",
"#B c #24468c",
"#C c #acdef4",
"#D c #c4e6ec",
"#E c #fc6e64",
"#F c #d41e04",
"#G c #f43204",
"#H c #fcaac4",
"#I c #e4e6e4",
"#J c #f4665c",
"#K c #54aae4",
"#L c #b40e04",
"#M c #4ca2e4",
"#N c #c4c6c4",
"#O c #fcbadc",
"#P c #9cd6f4",
"#Q c #f4f6f4",
"#R c #5492bc",
"#S c #2c8edc",
"#T c #ac0e04",
"#U c #eceeec",
"#V c #dcfefc",
"#W c #5caaec",
"#X c #f4523c",
"#Y c #7cc2f4",
"#Z c #8cc6fc",
"#0 c #fc421c",
"#1 c #449ae4",
"#2 c #fc4a2c",
"#3 c #fc5e4c",
"#4 c #449ee4",
"#5 c #fc868c",
"#6 c #7cbef4",
"#7 c #6cb6f4",
"#8 c #fc7a7c",
"a` c #74baf4",
"a. c #84c6f4",
"a# c #000000",
"aa c #000000",
"ab c #000000",
"ac c #000000",
"ad c #000000",
"ae c #000000",
"af c #000000",
"ag c #000000",
"ah c #000000",
"ai c #000000",
"aj c #000000",
"ak c #000000",
"al c #000000",
"am c #000000",
"an c #000000",
"ao c #000000",
"ap c #000000",
"aq c #000000",
"ar c #000000",
"as c #000000",
"at c #000000",
"au c #000000",
"av c #000000",
"aw c #000000",
"ax c #000000",
"ay c #000000",
"az c #000000",
"aA c #000000",
"aB c #000000",
"aC c #000000",
"aD c #000000",
"aE c #000000",
"aF c #000000",
"aG c #000000",
"aH c #000000",
"aI c #000000",
"aJ c #000000",
"aK c #000000",
"aL c #000000",
"aM c #000000",
"aN c #000000",
"aO c #000000",
"aP c #000000",
"aQ c #000000",
"aR c #000000",
"aS c #000000",
"aT c #000000",
"aU c #000000",
"aV c #000000",
"aW c #000000",
"aX c #000000",
"aY c #000000",
"aZ c #000000",
"a0 c #000000",
"a1 c #000000",
"a2 c #000000",
"a3 c #000000",
"a4 c #000000",
"a5 c #000000",
"a6 c #000000",
"a7 c #000000",
"a8 c #000000",
/* pixels */
".Z.Z.Z#e`S#e``````````````````````````````.F.F.F`q#h#h`V.c``````",
".Z.Z#e#Q.Z#e`S``````````````````````````.F.2`K`Q`Q#H`T.x.x``````",
".Z#e`1`1.Z`S`S````````````````````````.F.3.w#x#i.L`p.c.c````````",
"#e`1#U.i#U.Z.U#f````````````````````.F.2.S.g.P.A#3.x.c``````#m#m",
"`S#I`1#I`1.i.Z#f````````````````````.F`K.g#r#5#t.c.x``````#m#m#m",
"#e`S#e#e#e`v.Z`e.j````````````````.Z.F`Q#5`j#y.c.x``````#m#m`V#L",
"```S`S`S#`#U#U.Z`J.j``````````````.Z`q`Q#E#y#q.x``````#m#m`V.n`B",
"``````#f#f`J.i#U.Z.U.j````````````.Z`q`r.E.E`I`f````#m#m#h.F.o.b",
"``````````.j#e#I#U.Z#e#d`````````````V#r.2`6#n`f.Y#m.Y`V.F.n#8.6",
"````````````.j#e#I.i.Z#e#d`````````V`V.L.o.F.F.F`V#F#h.F.F.k#..6",
"``````````````.j#e#I.i.Z#e`x`````V`V`y`j.3.F.F.F#n.F.F#n.m`r`s`a",
"````````````````#d`S`v#I.Z#e`x`V`V`y`j.3.F.F#n.F.F.F.n.o`r#b`a``",
"``````````````````#d`S`v#I.Z#e`h`y.A.3.F#n.F`q#n.n.o#8#.`s`a````",
"`````````````````````x`S`v#I.Z`S##.3.F.F.F#h#m#L`B.b.6.6`a``````",
"```````````````````````x#f`v`v.Z#e#d`#.F#h#L.J``.Z``````````````",
"```````````````````````V`h.j#``J`e`1#a`V.J`0````````````````````",
"`````````````````````V`V`y.u#e#N`1`5`2.Q`L#S````````````````````",
"```````````````````V`V`y.E.n`x#Q`5#R`z`k#w.1.4.R````````````````",
"``````.F.F`q`c#G`V`V`y.A.n#h.5.8#c`z.v`M#j`N#1.R#g`O````````````",
"````.F.2`K`Q`Q#H#r.L`j.3.F#h`f.G.Q`Z#j.q#6`N`z`z.N.C.C``````````",
"``.F.3.w#x#i.L#y.E.o.3.F.F.F.Y#L#s`ka``k`N`W`Z#k.f`7.C`n````````",
".F.2.S.g.P.A`D#3.m.F.F.F#n#h#L#m#S`G.B`N#w`U.f`U`Z.p`g.e.M``````",
".F`K#x#r#5#y#q#q`6.F.F.F`q.J`0````.4`M`za.`H`ba.`w.T`W#K`A#p`F``",
".F`Q`j`j#t.c.x`f#F.F.F#n#n#L``````.R`4.7#k.7a.#Y.p.H`W`g#M`A`i``",
"`q`Q#E.3.x.c````.Y`V.F.F.n`0````````#g.H.f`Z.B.T.H`W.y`z`Y`l.I`i",
"`q`r`E.c.x``````#m.x.F#n.o#L`````````O#l`b.T.T.H`W.y#K#M.t`z.B.z",
"#h`T.c.x``````#m#m#h.F#n.L.6``````````.C#l`o.H.y`g#K#M.t.t`w#C.r",
"`V.x`V``````#m#m#h.F.F.k#..6`````````````n.l.7#K`z#M.t#1.p#P#k.r",
".c.x``````#m#m`V.F.F.m`r`s`a``````````````.M.0#P`Y..#4.B#P.a#D.r",
"````````#m#m#h.F.n.k`r#b`a``````````````````#p`d`o`t.X`o.a#V`m`3",
"``````#m#m`V.n.o#8#.`s`a`````````````````````F.d`u.O`C.K#D`m`3`3",
"``````#m#m#L`B.b.6.6`a`````````````````````````i#B.z`X`X#v`3````"
};
