/* XPM */
static char *authorization_xpm[] = {
/* width height num_colors chars_per_pixel */
"    32    32      256            2",
/* colors */
"`` c #040205",
"`. c #4485df",
"`# c #9c0204",
"`a c #74c2fc",
"`b c #b48304",
"`c c #844a04",
"`d c #44464c",
"`e c #b48a7c",
"`f c #9c6804",
"`g c #4c3214",
"`h c #1c2234",
"`i c #4ca2f4",
"`j c #f4c24c",
"`k c #bcc6e4",
"`l c #040351",
"`m c #e4a63c",
"`n c #b4680c",
"`o c #e0e2f4",
"`p c #74828c",
"`q c #b4a694",
"`r c #d48516",
"`s c #3c4ea4",
"`t c #c80204",
"`u c #240204",
"`v c #a46008",
"`w c #4c92d8",
"`x c #dca9a9",
"`y c #040430",
"`z c #dcc2a4",
"`A c #c47070",
"`B c #945906",
"`C c #9ca2a4",
"`D c #346adc",
"`E c #041271",
"`F c #b47a04",
"`G c #ac8a6c",
"`H c #a4664c",
"`I c #ecf2fc",
"`J c #140e09",
"`K c #ac2204",
"`L c #fcb219",
"`M c #e4d4c8",
"`N c #7c7c7c",
"`O c #64a9f4",
"`P c #c48228",
"`Q c #5c9ad4",
"`R c #4c6abc",
"`S c #ac7d04",
"`T c #040769",
"`U c #a4b6dc",
"`V c #d4b694",
"`W c #6086d8",
"`X c #dc9624",
"`Y c #e40204",
"`Z c #040420",
"`0 c #ac0204",
"`1 c #9c6634",
"`2 c #fcde5c",
"`3 c #8c5654",
"`4 c #4478d4",
"`5 c #c47912",
"`6 c #dcdee8",
"`7 c #985204",
"`8 c #9c6e04",
".` c #fccb49",
".. c #945e14",
".# c #f4fcfc",
".a c #fcb830",
".b c #448ae4",
".c c #5c5f5f",
".d c #d49294",
".e c #2c3244",
".f c #5cb4fc",
".g c #b47012",
".h c #7c95d7",
".i c #bc8e04",
".j c #844e14",
".k c #783a04",
".l c #ecedef",
".m c #b4b2ac",
".n c #dcbea0",
".o c #5ca4f2",
".p c #ccd2ec",
".q c #040d59",
".r c #d48b1f",
".s c #549eec",
".t c #040b40",
".u c #446cc8",
".v c #041584",
".w c #e4dad2",
".x c #5c97ee",
".y c #b47224",
".z c #0c0a04",
".A c #a4a29c",
".B c #5c3e14",
".C c #34261c",
".D c #fcc440",
".E c #f4a20c",
".F c #8c8684",
".G c #bca694",
".H c #d60204",
".I c #a45234",
".J c #4c92e8",
".K c #84b2dc",
".L c #8c7a7c",
".M c #1c1008",
".N c #842e6c",
".O c #64b6fc",
".P c #c48a3c",
".Q c #040e71",
".R c #f40204",
".S c #ac1204",
".T c #c97e1b",
".U c #ac7004",
".V c #fcbe38",
".W c #bc6f11",
".X c #0c0604",
".Y c #9c1204",
".Z c #cc8317",
".0 c #3462cc",
".1 c #ccb0a0",
".2 c #dccabc",
".3 c #945a1c",
".4 c #b47e04",
".5 c #cc9e74",
".6 c #fcf2f4",
".7 c #b42e14",
".8 c #bcbebc",
"#` c #ec9e1c",
"#. c #b4cee4",
"## c #6c420c",
"#a c #747674",
"#b c #2c1a04",
"#c c #c48644",
"#d c #84aedc",
"#e c #7c6a64",
"#f c #bc5254",
"#g c #d4c5b7",
"#h c #9c7e64",
"#i c #c4a080",
"#j c #bc9e7c",
"#k c #545aac",
"#l c #98bee4",
"#m c #4c76d4",
"#n c #4c66b4",
"#o c #a45e5c",
"#p c #949490",
"#q c #603004",
"#r c #74a6d4",
"#s c #b42a2c",
"#t c #3c3e3c",
"#u c #3c0204",
"#v c #2c2224",
"#w c #dcb6b4",
"#x c #b4bee4",
"#y c #4c5254",
"#z c #fcad16",
"#A c #a40204",
"#B c #5486ec",
"#C c #ac869c",
"#D c #ac670d",
"#E c #ecdbdc",
"#F c #945e24",
"#G c #548cec",
"#H c #8c5224",
"#I c #b03234",
"#J c #a47248",
"#K c #848684",
"#L c #6c8ad4",
"#M c #bc0304",
"#N c #2c2a3c",
"#O c #ecae2c",
"#P c #e49a14",
"#Q c #64666c",
"#R c #acaaac",
"#S c #bc7716",
"#T c #bcbab4",
"#U c #c8daf4",
"#V c #bcae94",
"#W c #dcbebc",
"#X c #940a04",
"#Y c #bc8a04",
"#Z c #e4eaf4",
"#0 c #dccab4",
"#1 c #0c0e18",
"#2 c #ccb6a8",
"#3 c #5caae4",
"#4 c #948e84",
"#5 c #d80a04",
"#6 c #cc8e44",
"#7 c #bca284",
"#8 c #040240",
"a` c #242624",
"a. c #3c6cd0",
"a# c #f4f5f7",
"aa c #ecd6d4",
"ab c #e49214",
"ac c #ec0204",
"ad c #9c5f07",
"ae c #8c4f05",
"af c #f4eeec",
"ag c #643c08",
"ah c #cc8e2c",
"ai c #d4b294",
"aj c #e4cebc",
"ak c #c47674",
"al c #040a24",
"am c #041a8c",
"an c #5c9ef1",
"ao c #64aef4",
"ap c #54a2e8",
"aq c #a41214",
"ar c #bc7e14",
"as c #f49e0c",
"at c #341a14",
"au c #a47e54",
"av c #4c82e4",
"aw c #ac620c",
"ax c #9c5808",
"ay c #b48674",
"az c #acbae0",
"aA c #cc7a14",
"aB c None",
"aC c #4c8ee1",
"aD c #34363c",
"aE c #dc8e1c",
"aF c #ecdecc",
"aG c #c4a791",
"aH c #5494ec",
"aI c #6cb2f4",
"aJ c #fc0205",
"aK c #547acc",
"aL c #e4babc",
"aM c #040214",
"aN c #8c4804",
"aO c #04065c",
"aP c #04137c",
"aQ c #fcb324",
"aR c #e4d6d4",
"aS c #c48434",
"aT c #649ed4",
"aU c #040a74",
"aV c #e40614",
"aW c #b40304",
"aX c #4478e4",
"aY c #a47104",
"aZ c #fcca54",
"a0 c #c49004",
"a1 c #eceefc",
"a2 c #3c2a1c",
"a3 c #fcc64c",
"a4 c #8cb6dc",
"a5 c #ac6e14",
"a6 c #3c66cc",
"a7 c #dccecc",
"a8 c #bc9a8c",
/* pixels */
"aBaBaBaBaBaBaBaBaBaBaBaBaBaBaBaBaBaBaBaBaBaBaBaBaBaBaBaBaBaBaBaB",
"aBaBaBaBaBaBaBaBaBaBaBaBaBaBaBaBaBaBaBaBaBaBaBaBaBaBaBaBaBaBaBaB",
"aBaBaBaBaBaBaBaBaBaBaBaBaBaBaBaBaBaBaBaBaBaBaB.6aBaBaBaBaBaBaBaB",
"aBaBaBaBaBaBaBaBaBaBaBaBaBaBaBaBaBaBaBaBaBaBaBaBaBaBaBaBaBaBaBaB",
"aBaBaBaBaBaBaBaBaBaBaBaBaBaBaBaBaBaBaBaB.8#p`N`N.F.m.laBaBaBaBaB",
"aBaBaBaBaBaBaf#2#i#i#ia7aBaBaBaBaBaB.A#N.t`l`l`l`l.t`h.F.6aBaBaB",
"aBaBaBaBaB#2#Fad.U.UaYax#J.waBaBaB`N`yaUaP.v.v.v.v.QaO`Z#yafaBaB",
"aBaBaBaBaG`7`F.i#Y.ia0a0.U.3`MaB#T`yaPaPaPaPaPaP.q.q.q.q``#aaBaB",
"aBaBaB#Wae`S.4`S.4.4.4`b.i.U`1aB`d`T.vaPaPaPaP`E.qaO.t.t`y#1.waB",
"aBaBaB#JadaY`Bad`S`S`S`S`S`b`B#0.c#8`TaUaP`T`l`l#1`J`y`yal``#paB",
"aBaB#E`c`f`caSa5`c`Bad`8aY`faN.1`q#q.Ba2#v.C`g##a5ar`J`Z`Z``.caB",
"aBaB.w`caeaS`2.``m`Pa5adax#D#D#0.G.WaE.T`5.Z`r`XaE#S`J`Z`````daB",
"aBaBaa.k`B`j.Da3.`.`.D.D.V.D#``V#V`v.T.T.T.T`5`5.T.y`J``````a`aB",
"aBaBaf#Hah.`.D.V.V.V.V.a.a.V#Pai#4`7`5.W#S#S#S#SaA`B````````#taB",
"aBaBaB.5#O.D.V.V.V.V.a.a.a.a#P.n#Q.k.W.g.W.g.W`n`5ag````````.caB",
"aBaBaB.n`X.D.V.V.a.a.aaQaQ`L`raF.eataw`n#D`naw.W`v.M````````.AaB",
"aBaBaBaf`PaQ.a.aaQaQaQ#zaQas#ca#aD``agaxawaw#Dax#b````````#aaBaB",
"aBaBaBaB.n`r.a.a#zaQ#zaQ#z`rajaB.l#o#X`caNaN`7#q.X.X`u#u`3aBaBaB",
"aBaBaB`o.h#e`r#z#zaQ#z.E`5.La1aBak.H.HaG#g`Gau#j#h.YacaJ`t`AaBaB",
"aBaB`k.u.Jap`p#c.r.r`r#6`C`.`W#C`taJ#5.1aBaBaB#g.7aJaJaJaJ#M#WaB",
"aB.pa.anaoao.sa4aaa7.waB#Uap.f`s`YaJ.Ha8aB.#.G`K.RaJ.Racac.H#faB",
"a##Lav.oan.o`O`w#laBaB.##.ap`a`i.NaJ`Y`e.#ay.Sacac.H.H.H.H`t#saB",
"`k#maHaH.x.s.x.o`w#d.laB#l.sao.f#kaJac.I`HaW`Y.H.H`t`t`t#M`0#IaB",
"#xa.#G#G#G#GaHaHanaC#r#Z#d.s`O.O#n#M.H.S#M.H`t`t#M#MaW`0#Aaq`xaB",
".pa6`4#B#G#G#G#GaHaHaCaT`Q.o`O.J`R`A#saW`0`0#A#A#A`##A#I`AaaaBaB",
"aBaz.u.0`D`4av#G#GaH.xaCav`.`4aK#UaBaf#E#w`x.d.d`x#w#EafaBaBaBaB",
"aBaB.l`U.haK.u.0.0.0a6#m`W.h#xa#aBaBaBaBaBaBaBaBaBaBaBaBaBaBaBaB",
"aBaBaBaBaBaf#Z`6`6`6`6#Za#aBaBaBaBaBaBaBaBaBaBaBaBaBaBaBaBaBaBaB",
"aBaBaBaBaBaBaBaBaBaBaBaBaBaBaBaBaBaBaBaBaBaBaBaBaBaBaBaBaBaBaBaB",
"aBaBaBaBaBaBaBaBaBaBaBaBaBaBaBaBaBaBaBaBaBaBaBaBaBaBaBaBaBaBaBaB",
"aBaBaBaBaBaBaBaBaBaBaBaBaBaBaBaBaBaBaBaBaBaBaBaBaBaBaBaBaBaBaBaB",
"aBaBaBaBaBaBaBaBaBaBaBaBaBaBaBaBaBaBaBaBaBaBaBaBaBaBaBaBaBaBaBaB"
};
