/* XPM */
static char *cancel_32_xpm[] = {
/* width height num_colors chars_per_pixel */
"    32    32      256            2",
/* colors */
"`` c #8c1e28",
"`. c #c49910",
"`# c #f4cc08",
"`a c #b4cecc",
"`b c #f4e786",
"`c c #84662c",
"`d c #cc9a04",
"`e c #dceaec",
"`f c #c4220c",
"`g c #ccae39",
"`h c #fce74a",
"`i c #dc5634",
"`j c #ece6c4",
"`k c #fcf9c7",
"`l c #fcf889",
"`m c #cc3e24",
"`n c #8c8e88",
"`o c #e4cd89",
"`p c #ccb06f",
"`q c #dcca74",
"`r c #c47e7c",
"`s c #e4d7c1",
"`t c #cc9e74",
"`u c #fcf66c",
"`v c #ecf7f7",
"`w c #7c3a3c",
"`x c #f4eca7",
"`y c #945e5c",
"`z c #f4ae9c",
"`A c #fcdd19",
"`B c #f4e66c",
"`C c #ecebe9",
"`D c #f43a0c",
"`E c #ecdaa4",
"`F c #fcfaa8",
"`G c #e42a04",
"`H c #acaeac",
"`I c #c4a23c",
"`J c #ac1a14",
"`K c #dcc170",
"`L c #ec734c",
"`M c #ec966c",
"`N c #ec4e2c",
"`O c #fcf7e5",
"`P c #7c7674",
"`Q c #f48664",
"`R c #f4ee88",
"`S c #ccb254",
"`T c #fcd184",
"`U c #fc6736",
"`V c #f4dc48",
"`W c #fcf06a",
"`X c #ec9e5c",
"`Y c #942a2c",
"`Z c #bc8e84",
"`0 c #dcccb4",
"`1 c #f0d230",
"`2 c #f4f0d8",
"`3 c #d4b86e",
"`4 c #fc3404",
"`5 c #c4a357",
"`6 c #ec7e54",
"`7 c #9c8674",
"`8 c #8c222c",
".` c #dcaa08",
".. c #fcfe9a",
".# c #dcdee0",
".a c #f4da3c",
".b c #fcf0e4",
".c c #ec4224",
".d c #fcfea8",
".e c #fcfee6",
".f c #dcc264",
".g c #f4e07c",
".h c #fceadc",
".i c #fcfec7",
".j c #f8f2a4",
".k c #f42804",
".l c #8c8374",
".m c #dcb64c",
".n c #c4ab5a",
".o c #cc2008",
".p c #fcee5c",
".q c #ece8d8",
".r c #f4f69c",
".s c #9caaac",
".t c #f2f2f4",
".u c #f7ee95",
".v c #d4b64f",
".w c #fce249",
".x c #f0a28c",
".y c #ac8e4c",
".z c #fcd610",
".A c #fce684",
".B c #fce858",
".C c #f45a34",
".D c #e4d498",
".E c #8c4644",
".F c #b4c4c4",
".G c #fc7241",
".H c #fc4c1a",
".I c #fc6e40",
".J c #fcf178",
".K c #fce238",
".L c #cccecc",
".M c #ece69c",
".N c #a47a1c",
".O c #a48e8c",
".P c #e4decc",
".Q c #f4fefc",
".R c #fceab4",
".S c #f6ea76",
".T c #f4eee8",
".U c #ecdcb0",
".V c #fcf8b7",
".W c #d4be9c",
".X c #fcf9f9",
".Y c #dcba74",
".Z c #cca729",
".0 c #d0260c",
".1 c #9c1e24",
".2 c #e4ba24",
".3 c #fcf8d4",
".4 c #ccae7c",
".5 c #fcfe78",
".6 c #f4f7f8",
".7 c #744e4c",
".8 c #f4eeb4",
"#` c #7c6c54",
"#. c #aca29c",
"## c #cc9694",
"#a c #fcd27c",
"#b c #9c7e3c",
"#c c #ac322c",
"#d c #c4aa6c",
"#e c #dcaaa4",
"#f c #fcbe74",
"#g c #c49e4c",
"#h c #d4f6fc",
"#i c #94762c",
"#j c #e43e1c",
"#k c #ac820c",
"#l c #ccdedc",
"#m c #e4d254",
"#n c #b9babc",
"#o c #e4d2a4",
"#p c #9c9684",
"#q c #fcbaa4",
"#r c #fc8e6c",
"#s c #8c7e74",
"#t c #fcd6ac",
"#u c #fc9a74",
"#v c #fc9a7c",
"#w c #e4c68c",
"#x c #fc4512",
"#y c #8c6a6c",
"#z c #9c4e4c",
"#A c #cca11f",
"#B c #ccaa64",
"#C c #bc962c",
"#D c #fcd524",
"#E c #fc7c50",
"#F c #9c2224",
"#G c #847e7c",
"#H c #898a8c",
"#I c #c4cccc",
"#J c #c4c6c4",
"#K c #844a4c",
"#L c #9c9aa0",
"#M c #e4eef4",
"#N c #bc2a1c",
"#O c #f4b6a4",
"#P c #ec5634",
"#Q c #ccaf5f",
"#R c #f46947",
"#S c #f4dc58",
"#T c #ccb67c",
"#U c #948a8c",
"#V c #cc462c",
"#W c #744244",
"#X c #b42219",
"#Y c #8c3234",
"#Z c #fc6234",
"#0 c #d4d6d4",
"#1 c #ece294",
"#2 c #ec2e04",
"#3 c #bc9694",
"#4 c #f4f2bc",
"#5 c #f82e04",
"#6 c #f4e25c",
"#7 c #fc5224",
"#8 c #7c6a6c",
"a` c #e4d66c",
"a. c #d4b244",
"a# c #f4925c",
"aa c #fc8761",
"ab c #f4a26c",
"ac c #942430",
"ad c #e4e2e4",
"ae c #fcdb31",
"af c #f44214",
"ag c #ece2c0",
"ah c #ecd6a4",
"ai c #fc9670",
"aj c #fca280",
"ak c #fcfeb8",
"al c None",
"am c #fcfed9",
"an c #d4b664",
"ao c #941b24",
"ap c #e4e6e4",
"aq c #f4e7c7",
"ar c #fce964",
"as c #fc3c07",
"at c #f47654",
"au c #847a6c",
"av c #fcf288",
"aw c #fcde44",
"ax c #d42008",
"ay c #f4e9d4",
"az c #fcf997",
"aA c #fc5b2f",
"aB c #ecd49c",
"aC c #f4e998",
"aD c #b48604",
"aE c #d4b25c",
"aF c #d4ba84",
"aG c #f4ca14",
"aH c #ccb244",
"aI c #d44224",
"aJ c #e4ca94",
"aK c #fcf67c",
"aL c #fcda24",
"aM c #eceef4",
"aN c #ec2704",
"aO c #c4a64c",
"aP c #b41e14",
"aQ c #dcc27c",
"aR c #c4a464",
"aS c #dce2ec",
"aT c #fc2a04",
"aU c #c4aa64",
"aV c #a4a6ac",
"aW c #fcd41c",
"aX c #bcc2c4",
"aY c #fc754c",
"aZ c #fc4e24",
"a0 c #ccaa34",
"a1 c #7c4a4c",
"a2 c #e4d6b4",
"a3 c #fc8a6c",
"a4 c #fcde3c",
"a5 c #f44624",
"a6 c #fcae94",
"a7 c #f44e24",
"a8 c #d4b24c",
/* pixels */
"alalalalalalalalalalalalalalalalalalalalalalalalalalal.Xalalalal",
"alalalalalalalalalalalalalalalalalalalalay#Q`p#B#B#B#BaR#B`0alal",
"alalalalalalalalalalalalalalalalalalalalaJaJ`O.T`O.T`O.X.U#b.#al",
"alalalalalalalalalalalalalalalalalalalalaE.bal.eal.e.eal`O.y#nal",
"alalalalalalalalaq.UahaB`oaJaQ.Y`3an.YaE#Qal.e.e.e.e.e.e.e#d#p.X",
"alalalalalalal.h.m`oaBaB`E`Eag.Uagagaqaq`O.eam.e.eam.e.3al#d.l.6",
"alalalalalalalaq`qal.ealal.eal.eal.e.e.e.eam.eamamamamam.e#d.l.6",
"alalalalalalalaq.f.Xamamamamamamam.eamamamam.3amamamamamam#d.l.6",
"alalalalalalalay`Kalamam.i`k.3#4.R`x`x.RaCaC`b.jamam.iamam#d.l.6",
"alal.bayag`s#o`3a8.3#1aC#1aCaC.uav.uavavavavav.g`kam.i.iamaU.l.6",
"ay`p#Q`3`3an`K`K.v.i`F.dak.d.d`Faz`Fazavavavav.A.uam.i.iam.n#s.t",
".q#g`j.e.e.e.e.V.vam.d.d.dazazazaz`lavavav.J.J.J.g.iak`k.iaU.l.t",
"al.4.D.e`k.i`kaCa..i.d`F....azaz`l`lav`l.J.J.J`W`B.j.iak.i.n#s.6",
"al`s`Sam.iak.i.ua8.i....azazaz`l`lavaK.J.J.Jar.Sar.gak.V.i.n#G.6",
"al.X`5.V.iakakaCa.ak..az..`l`l`laKaK.J.Jar`W`u`W`u#6.jakak.n.l.t",
"alalaF`q.i`Fak`Ra..d`l`l`laKaKaK.J.J`W`W.5.A#a`T#a.g.u.dakaO#s.t",
"alal`s#Qak.d.d`R`g.daK`laK.J.J.J`War`W.Aaj`Qat#R#R`L`M.RakaO#G.6",
"alal.b.n.u.d.d`Ra0az.J.J.J`W`W.par`u`T#Ea3aia3aY`U.Haf`N#t`Sau.t",
"alalal.4a`.d...Sa0`l`W`War.par.B.p#aaYaj#u#E`U`U#7#7.H`4#j`t#HaM",
"alalal`s`g..`l.Sa0aKarar.B.B.B.B.Aaa#v#r.GaY.G#ZaA#7#x#xaT#V#HaM",
"alalal.X#gaK`l`B.Z`W.B.B.B`haw`h#fataj.G.G.I`UaA.H.Has`4`4.o#y.t",
"alalalal`p#maK#6#A.p.w.w.w.wa4.Ba##r#RaI`i`N.CaAaA#ZaA#Zasax#z#0",
"alalalal`0`g.5#S#A.Ba4.wa4a4aear`Laaa7##`eapaM.Xalalal.h#x`f`Y#n",
"alalalal.T`I.B`V#A.Kaea4aeaeaW.B`LaY.H#e#h#M`v.Qalalal.bafaP```H",
"alalalal.XaR`1`V`.a4aL#D#D#DaW.w`6aA.H`6.x.x`z#O#q#q#qa6#j.1#Y`H",
"alalal.Xal.W.2.a`daL#DaWaW`A.zaW`Xa5.Has`4as`4`4`4aT.k.k#Naoa1aX",
"alalalalal.P#A`1`.`A.z`A`#.``.#i`7aIasasasasas`4#5.kaNax`8ao#8.#",
"alalalalal.X#CaG`d`#.`#k#i#`#8#L#n`ZaN`4`4#5#5#5.kaN.oacao#W.s.X",
"alalalalalal#TaD.N`c#`#G#LaXap.6al.6`rax.k.kaN`Gax#X`8ao`w#Hapal",
"alalalalalal.T#.#HaV#Iap.Xalalalalal.6#3#c#XaP`J.1`8`8.7`n.#alal",
"alalalalalalal.X.t.Xalalalalalalalalal.Q.L.O`y.E#K#y#H#n#Malalal",
"alalalalalalalalalalalalalalalalalalalalal.6#l`a.F#Iapalalalalal"
};
