/* XPM */
static char *defaultview_xpm[] = {
/* width height num_colors chars_per_pixel */
"    32    32      256            2",
/* colors */
"`` c #0486ec",
"`. c #3caad4",
"`# c #b4aeac",
"`a c #acd6f4",
"`b c #ecd67c",
"`c c #dcdedc",
"`d c #fc5214",
"`e c #fcaa4c",
"`f c #64befc",
"`g c #f4ee8c",
"`h c #e4f2fc",
"`i c #747a7c",
"`j c #0c96dc",
"`k c #d4c6bc",
"`l c #e4e694",
"`m c #8cbeb4",
"`n c #247eac",
"`o c #f4e6dc",
"`p c #a4a6a4",
"`q c #fcc264",
"`r c #54b6dc",
"`s c #b4ca9c",
"`t c #d4d6d4",
"`u c #dce2fc",
"`v c #fc7e34",
"`w c #a4c6ec",
"`x c #e4ce74",
"`y c #fcd664",
"`z c #74c6fc",
"`A c #f4fafc",
"`B c #fc9644",
"`C c #fcfa8c",
"`D c #fce27c",
"`E c #f4ce6c",
"`F c #1c86dc",
"`G c #34b6f4",
"`H c #8ccabc",
"`I c #bccafc",
"`J c #f4eefc",
"`K c #248ee4",
"`L c #fcd67c",
"`M c #fcf684",
"`N c #f4d27c",
"`O c #b4def4",
"`P c #ecdefc",
"`Q c #74b6ec",
"`R c #2c8abc",
"`S c #fcea7c",
"`T c #0492dc",
"`U c #dcd6fc",
"`V c #fcb654",
"`W c #3ca6cc",
"`X c #d4d2fc",
"`Y c #84baec",
"`Z c #3482ac",
"`0 c #c4e6fc",
"`1 c #ece2fc",
"`2 c #fc8a34",
"`3 c #acd2f4",
"`4 c #fc6a24",
"`5 c #fcee84",
"`6 c #2c82b4",
"`7 c #f4e2fc",
"`8 c #fcde74",
".` c #fca24c",
".. c #fcce5c",
".# c #3cb6f4",
".a c #f4f6fc",
".b c #74c2fc",
".c c #dcdefc",
".d c #44aed4",
".e c #bcd6e4",
".f c #04a2fc",
".g c #5cc2fc",
".h c #c4dafc",
".i c #fcd674",
".j c #7ccefc",
".k c #fce68c",
".l c #f4eafc",
".m c #fcce6c",
".n c #048aec",
".o c #34b2f4",
".p c #fcb254",
".q c #e4f6fc",
".r c #1496e4",
".s c #d4cecc",
".t c #ecea8c",
".u c #2482ac",
".v c #b4d2a4",
".w c #e4eafc",
".x c #fc8634",
".y c #b4cafc",
".z c #fce67c",
".A c #1492dc",
".B c #84cefc",
".C c #ccd2fc",
".D c #fceefc",
".E c #fcde7c",
".F c #7cb6ec",
".G c #e4d6fc",
".H c #84c2ec",
".I c #fcee94",
".J c #d4d6fc",
".K c #3cb2dc",
".L c #b4d6f4",
".M c #ecde84",
".N c #fc6224",
".O c #fcae54",
".P c #eceefc",
".Q c #44a2d4",
".R c #0496fc",
".S c #dcc6bc",
".T c #ece28c",
".U c #8cc6bc",
".V c #5cb6f4",
".W c #b4ce9c",
".X c #e4e2fc",
".Y c #accafc",
".Z c #ecce74",
".0 c #fcda6c",
".1 c #7ccafc",
".2 c #fcfafc",
".3 c #fc9e44",
".4 c #fcfa9c",
".5 c #2cbefc",
".6 c #bcd2f4",
".7 c #fcf694",
".8 c #fcce74",
"#` c #bcdef4",
"#. c #fc7a2c",
"## c #048efc",
"#a c #e4d2fc",
"#b c #54a2d4",
"#c c #7cbeec",
"#d c #ccdeec",
"#e c #fcbe5c",
"#f c #5cbefc",
"#g c #eceafc",
"#h c #bcd6fc",
"#i c #6cc2f4",
"#j c #b4cefc",
"#k c #fce6fc",
"#l c #8cd2fc",
"#m c #acc6e4",
"#n c #aca6a4",
"#o c #94cabc",
"#p c #fcea8c",
"#q c #dcd2fc",
"#r c #fcf6fc",
"#s c #e4defc",
"#t c #fceafc",
"#u c #1c92dc",
"#v c #ecda84",
"#w c #2492ec",
"#x c #fcba5c",
"#y c #84beec",
"#z c #fc8e3c",
"#A c #fcf28c",
"#B c #fca64c",
"#C c #fcd264",
"#D c #3cbaf4",
"#E c #ecd27c",
"#F c #3caed4",
"#G c #fc5614",
"#H c #8cc2b4",
"#I c #fcc664",
"#J c #fc8234",
"#K c #74cafc",
"#L c #fc9a44",
"#M c #fcfe8c",
"#N c #34baf4",
"#O c #f4f2fc",
"#P c #fcda7c",
"#Q c #dcdafc",
"#R c #c4eafc",
"#S c #ece6fc",
"#T c #fc6e24",
"#U c #f4e6fc",
"#V c #5cc6fc",
"#W c #fcda74",
"#X c #7cd2fc",
"#Y c #fcd26c",
"#Z c #fcf2fc",
"#0 c #7cbaec",
"#1 c #e4dafc",
"#2 c #fcf294",
"#3 c #d4dafc",
"#4 c #b4daf4",
"#5 c #ecf2fc",
"#6 c #049afc",
"#7 c #dccabc",
"#8 c #ece68c",
"a` c #e4e6fc",
"a. c None",
"a# c #fcd274",
"aa c #bce2f4",
"ab c #0492fc",
"ac c #b4d2fc",
"ad c #0486f4",
"ae c #fcaa54",
"af c #f4ee94",
"ag c #247eb4",
"ah c #fcd66c",
"ai c #fce284",
"aj c #1c86e4",
"ak c #74b6f4",
"al c #fcea84",
"am c #3ca6d4",
"an c #84baf4",
"ao c #fc8a3c",
"ap c #2c82bc",
"aq c #fcce64",
"ar c #3cb6fc",
"as c #048af4",
"at c #2482b4",
"au c #fc863c",
"av c #fce684",
"aw c #fcde84",
"ax c #b4cea4",
"ay c #bcd2fc",
"az c #fcf69c",
"aA c #fca654",
"aB c #000000",
"aC c #000000",
"aD c #000000",
"aE c #000000",
"aF c #000000",
"aG c #000000",
"aH c #000000",
"aI c #000000",
"aJ c #000000",
"aK c #000000",
"aL c #000000",
"aM c #000000",
"aN c #000000",
"aO c #000000",
"aP c #000000",
"aQ c #000000",
"aR c #000000",
"aS c #000000",
"aT c #000000",
"aU c #000000",
"aV c #000000",
"aW c #000000",
"aX c #000000",
"aY c #000000",
"aZ c #000000",
"a0 c #000000",
"a1 c #000000",
"a2 c #000000",
"a3 c #000000",
"a4 c #000000",
"a5 c #000000",
"a6 c #000000",
"a7 c #000000",
"a8 c #000000",
/* pixels */
"a.a.a.a.a.a.a.a.a.a.a.a.a.a.a.a.a.a.a.a.a.a.a.a.a.a.a.a.a.a.a.a.",
"a..q#R`0#R#R#R#R#R#R#R#R#R#R#R#R#R#R#R#R#R#R#R#R#R#R#R#R#R`ha.a.",
"#R#K#f.g#f#f#f#f#f#f#f#f#f#f#f#f#f#f#f#f#f#f#f#f#f#f#f#f#f`f.ea.",
"ar`Y`w`w`w`w`w`w`w`w`w`w`w`w`w`w`w`w`w`w`w`w`w`w`w`w`w`w#m#y.Q`t",
".f`K`Faj`Faj`Faj`Faj`Faj`Faj`Faj`Faj`Faj`Faj`Faj`Faj`Faj`F#w`j`#",
".fas````ad````ad``ad``ad``ad``ad``ad``ad``ad``ad``ad``ad``as`T`p",
".fabababababababab.Rababababababababababababababababab.Rab#6`T#n",
".o.W.v.Wax.W.W`s`s.o.V.H#c#c#c#c#c#c#c#c#c#0`Q#0`Q`Q`Q`Q`Qak.A`p",
".d`g#M#M`C`C`C`M#2#D#`a.a.a.a.a.a.a..2.2#r#r#Z#Z.D`J.l#S#k.h.A`p",
"#F`l`M#palai#P`D.I`G`Oa.a.a..2.2.a.a#O.P.P#g#g.wa`a`.X.c#s#h.A`p",
"#F.t#p`V`V#L#TaA.4.o#`a.a.a..2`A#r.a#O#O#O.P#g#g.wa`.X`u`1#h.A`p",
"`.#8al.`#B`B`4aAaz`G#`a.a.a..2.2.a.a#O#O.P.P#g#ga`a`a`.X.X#h.A`p",
"`.#8`D`v#J#.`d.3az.o#`a.a..2.2.a.a.a#O#5.P.P#g#ga`#S.X.c.X#h.A`p",
"#F.T`5.i.i.i.8#W#p`G#`a.a..2.2.a#r#O#O#O.P#g.Pa`#Sa`.X.c`1.L.A`p",
"`..M#A#A#A#A#A`S.k`G`Oa..2.2`A.a.a#O#5.P.P#g#g#ga`a`.X.c#s#h.A`p",
"`..M.z`q`q#B#J.p.I`G#`a..2`A#r.a#O#O#O.P`J#g.wa`a`.X.X.c#say.A`p",
"`..M`D`eae#L#T.`.I`G#`a.`A#r.a.a#O#O#5.P#g#g#g#Sa`a``u.c#sac.r`p",
"`..M#W#J`2`v`d`B.I`G#4a.#r.a.a#O#O#5`J.P#g#ga`a`.X.X#s#Q#say.A`p",
"`.#v.E.O.Oae`B#x.k`G#4a..a.a.a#O#O.P.P#g#g.w#Sa`a`.c.c#Q#1ac.A`p",
"`.`b`S`5`5`5#A.z.E`G#4.2#O.a#O#5.P`J.P#g#ga`a`a`.X.c.c#3#1ac.A`p",
"`.`b.E.m.m#x#B#eai`G.L.2.a#O#O`J.P.P#g#g.w#Sa`.X.X.c.c#Q#Q#j.A`p",
"`.`b#W.p.O#L`4#L.k`G.L.2#O.P#O.P.P#g#g.w#Sa`.X.X.c.c#Q.J.Gac.A`p",
"`W#Eah`B`Bao.N#Lai.#`a#r`J#5.P.P#g#g#ga`a`a`.X`u#s#Q#Q.J`U#j.A`p",
"am#E#Yao#z`2`4.3ai`Gac#Z.P.P.P#g#g#ga`#ga`.X.X.c.c#Q#3.J`U.Y.A`p",
"`..Z`8`8#W#W#Waha#`G`a#Z.P.P#g#g#g.wa`a`.X.X.c.c#Q#3`U`X#q.Y.A`p",
"`..Z#W.i#Y.i#Y.ma#`G`3`J#g#g.wa`a`a`.X.X`u.c.c#Q.J.J`X.C`X.Y.A`p",
"`W`E.0`y#C#C#C..a#.#.6#Z.D.D#t#t.l#U.l#U`7`P`P`P#1#1.G#q#a`I.A`p",
"`r`m.U.U#o.U#o#H#o.5.g#l#X.j.j.j.B.1.j.1.1#K.1`z.b.b.b.b.b`f`R#n",
"#d#batagagagagagat`6`6ag`nag`6`nagag`nagag`nag`6`n`6ag`nag`Z`i.s",
"a.`o.S`k#7.S`k#7.S`k`k#7`k#7`k#7.S#7#7`k#7#7`k.S`k.S`k#7.S`k`c#r",
"a.a.a.a.a.a.a.a.a.a.a.a.a.a.a.a.a.a.a.a.a.a.a.a.a.a.a.a.a.a.a.a.",
"a.a.a.a.a.a.a.a.a.a.a.a.a.a.a.a.a.a.a.a.a.a.a.a.a.a.a.a.a..2a.a."
};
