/* XPM */
static char *edit_32_xpm[] = {
/* width height num_colors chars_per_pixel */
"    32    32      256            2",
/* colors */
"`` c #8c2224",
"`. c #1e8714",
"`# c #94862c",
"`a c #94d24c",
"`b c #bce294",
"`c c #ece69c",
"`d c #cc9c0c",
"`e c #f4cb0c",
"`f c #cce66c",
"`g c #dce6ec",
"`h c #94120c",
"`i c #dcc64c",
"`j c #ccb067",
"`k c #60c240",
"`l c #9c8a6c",
"`m c #e4c98c",
"`n c #fcf8ca",
"`o c #fcf989",
"`p c #fcd818",
"`q c #ac5e34",
"`r c #e4d8c4",
"`s c #2c7a24",
"`t c #ccb24c",
"`u c #6ce244",
"`v c #9cba34",
"`w c #fce74b",
"`x c #745654",
"`y c #ccaea4",
"`z c #fcf664",
"`A c #806e50",
"`B c #f4d946",
"`C c #8c8c8e",
"`D c #f4f6e4",
"`E c #f4e66c",
"`F c #e4eeac",
"`G c #ece6c4",
"`H c #d4ba6c",
"`I c #e4d69c",
"`J c #e4f6b4",
"`K c #a4a6ac",
"`L c #f4da3c",
"`M c #d94f34",
"`N c #e4c634",
"`O c #e4d66c",
"`P c #ecebe9",
"`Q c #64d23c",
"`R c #e8b80c",
"`S c #6c6e74",
"`T c #f4de44",
"`U c #d4a614",
"`V c #84f254",
"`W c #b4a234",
"`X c #40a82c",
"`Y c #b48604",
"`Z c #f4ee88",
"`0 c #ac361c",
"`1 c #fcfee7",
"`2 c #ccaf77",
"`3 c #fcf06b",
"`4 c #bca674",
"`5 c #84766c",
"`6 c #c4a54f",
"`7 c #96f964",
"`8 c #c4c7c9",
".` c #e4d6b8",
".. c #fcf9a8",
".# c #fcdf39",
".a c #94742c",
".b c #dcdedc",
".c c #84e759",
".d c #f4f0d8",
".e c #f4ca34",
".f c #bc8e54",
".g c #fcfea8",
".h c #dccab4",
".i c #fcfe9a",
".j c #d4be34",
".k c #fcee59",
".l c #7c6234",
".m c #f4f6f6",
".n c #84d244",
".o c #fce14a",
".p c #cca82c",
".q c #4c921c",
".r c #fcfec8",
".s c #64aa3c",
".t c #ece8d8",
".u c #d4ba84",
".v c #fc7e4c",
".w c #68da40",
".x c #f4ee96",
".y c #c4b25c",
".z c #ccd4d4",
".A c #ac820c",
".B c #746959",
".C c #fcd218",
".D c #d4b666",
".E c #9c9aa0",
".F c #f4f694",
".G c #fcde1c",
".H c #dcb64c",
".I c #fce758",
".J c #f4e979",
".K c #f4edac",
".L c #fcd931",
".M c #f05e38",
".N c #f4f2f3",
".O c #bc920c",
".P c #bc2e1c",
".Q c #bcaaac",
".R c #c4aa5d",
".S c #2c961c",
".T c #94d64c",
".U c #ac0a04",
".V c #70ce40",
".W c #e4cf8f",
".X c #fcd724",
".Y c #d4b44b",
".Z c #ecd85c",
".0 c #dcc26e",
".1 c #ecc220",
".2 c #7c7d77",
".3 c #847f79",
".4 c #d4cadc",
".5 c #ece0b7",
".6 c #fcf7b9",
".7 c #a48224",
".8 c #ece2cc",
"#` c #fbd229",
"#. c #4c4e3c",
"## c #446e2c",
"#a c #84ae2c",
"#b c #acc644",
"#c c #94ba8c",
"#d c #e4ae9c",
"#e c #cc4428",
"#f c #44ba2c",
"#g c #b8bcc0",
"#h c #acde5c",
"#i c #7c986c",
"#j c #b81c14",
"#k c #9c4240",
"#l c #9c6e4c",
"#m c #b47e44",
"#n c #f4d2c4",
"#o c #d4be9c",
"#p c #dcca74",
"#q c #348e24",
"#r c #c49e4f",
"#s c #ecbeac",
"#t c #e4ea7c",
"#u c #f4e27c",
"#v c #a47a18",
"#w c #a4b2a0",
"#x c #449e34",
"#y c #94868c",
"#z c #7ce454",
"#A c #7c746c",
"#B c #c4a23c",
"#C c #aca29c",
"#D c #bc962c",
"#E c #f4e2f4",
"#F c #ece294",
"#G c #ecd030",
"#H c #b4b6bc",
"#I c #8c723c",
"#J c #e4d254",
"#K c #60cc40",
"#L c #c4b26c",
"#M c #a4863c",
"#N c #cca11e",
"#O c #b48e24",
"#P c #ccde88",
"#Q c #94b654",
"#R c #74d64c",
"#S c #dce2e8",
"#T c #74dc4c",
"#U c #54ba3c",
"#V c #a4e27c",
"#W c #24820c",
"#X c #846a2c",
"#Y c #fcf2a4",
"#Z c #bcca4c",
"#0 c #fcfe78",
"#1 c #ccae39",
"#2 c #9c7a1c",
"#3 c #88ee60",
"#4 c #dcd2b4",
"#5 c #dcaea4",
"#6 c #cc2e1c",
"#7 c #dcdadc",
"#8 c #e4ba24",
"a` c #7c6644",
"a. c #74ea4c",
"a# c #acaeb4",
"aa c #8cfa5c",
"ab c #d0b678",
"ac c #cccec8",
"ad c #dcc27c",
"ae c #f1663c",
"af c #c49a0f",
"ag c #349e24",
"ah c #bcc2c4",
"ai c #f0de5c",
"aj c #95fe64",
"ak c #9ca2ac",
"al c #fcd238",
"am c #8cb62c",
"an c #dcd264",
"ao c #9c8e8c",
"ap c #f4f2bc",
"aq c #fcf277",
"ar c #c4a264",
"as c #f4e994",
"at c #fccc10",
"au c #d4b25c",
"av c #dcaa08",
"aw c #ecdaac",
"ax c #7c6a54",
"ay c #fceeac",
"az c #ecd29c",
"aA c #8c8274",
"aB c #ac1208",
"aC c #c4aa34",
"aD c #948644",
"aE c #fcf67c",
"aF c None",
"aG c #fcfeb8",
"aH c #fcfed9",
"aI c #7cea54",
"aJ c #6cd244",
"aK c #e4decc",
"aL c #f4c214",
"aM c #e4d2a4",
"aN c #e4e7e7",
"aO c #e4ca54",
"aP c #fcf7e8",
"aQ c #fcea67",
"aR c #f4e7c7",
"aS c #dcbc70",
"aT c #ecd7a1",
"aU c #ecca3c",
"aV c #f4eee8",
"aW c #8cf55c",
"aX c #bca62c",
"aY c #fcef8c",
"aZ c #dcc22c",
"a0 c #84662c",
"a1 c #fcfafa",
"a2 c #f4e9d4",
"a3 c #fcf094",
"a4 c #fcfa97",
"a5 c #fcea74",
"a6 c #c49614",
"a7 c #f4da54",
"a8 c #4cb634",
/* pixels */
"aFaFaFaFaFaFaFaFaFaFaFaFaFaFaFaFaFaFaFaFaFaFaFaFaFa1aFaFaFaFaFaF",
"aFaFaFaFaFaFaFaFaFaFaFaFaFaFaFaFaFaFaFaFa2`j`j`2.R.D.f#m`6.`a1aF",
"aFaFaFaFaFaFaFaFaFaFaFaFaFaFaFaFaFaFaFaF`m`maP.daP#d.P#j`0#l#SaF",
"aFaFaFaFaFaFaFaFaFaFaFaFaFaFaFaFaFaFaFaFauaPaFaF#n`Mae`M#j`h.QaF",
"aFaFaFaFaFaFaFaFaRawaTaz.W`madaS`H.DaSau`jaFaH`D`y.M.vae#e.U#k#S",
"aFaFaFaFaFaFaF.d.H.WazaTaTaw.5.5.5aR.5aRaP`1aPac`g#s.Mae#eaB``#H",
"aFaFaFaFaFaFaFaR.0aF`1aF`1aF`1aF`1aF`1`1`1aH#V#c#EaF#5`M#6aB`xah",
"aFaFaFaFaFaFaFaRaSaFaHaHaHaHaHaH`1aHaHaH`1`b.w#3#w.4.zao#k`q.2aN",
"aFaFaFaFaFaFaFa2.0aFaHaHaH`n`n.6.K.K.Kay#PaJaWaj.c#i`C`S#w#LaA.N",
"aFaFaVa2.8awaMab.Y`n#Fas#Fasas.xa3a3a3#t.V`V`7aW#T`k`s#i`n.RaA.N",
"a2`jau.D.D.Dad.0.YaH...g.g.g.g..a4a4a4.na.ajaW#T`k.S#xapaH.R.3.m",
"`P#r`G`1`1`1`1...YaH.g.g.g..a4a4a4a4`a`u`7`7#z.Vag#q`FaG.r.RaA.N",
"aF`2`I`1.r`n.ras.Y.r.g.ga4.ia4a4a4#haJ`7`7#z.Vag#W#P.r.6.r.R.3.m",
"aF`r`jaH.raG.ras.Y.r.i.ia4a4a4`o`f.Vaa`7.caJ`X`.#ZaYaGaG.r.RaA.N",
"aFa1#r.6aGaGaG.x.YaG.ia4.i`o`o`o`aaIaj`V#Ra8`.#b`za7...6aG.R.3.m",
"aFaF.u#p.r..aGas#1aG`o`oaEaEaEaE#Q`Q`7#T#U`.`v`3.Iai#u.6.g.RaA.N",
"aFaF`r`t.r.g.g`Z#1.gaEaEaEaYaEaQ`4.sa8a8`.#a.k.o.o.Ia7#Y.g.R`5.m",
"aFaF.N`6a3.g.g`Z#1a4aqaqaq`3`3`O`l`5##.qam`w.o.o.o.o`B#u.g`6aA.N",
"aFa1aF`2`O.g.i.J.p`o`3`3aQaQ`z.y#.aDaO.o`w.o.o.o`B.oal.Z..`6.3.N",
"aFaFaF`r#1.i`o.J.paE.IaQ.I.I.k`i`#`W`L.o.#.L.#.L`Bal`B.eaY`6.3.N",
"aFaFaFa1#raE`o`E.p`3.I.I.I`w.o`LaCaX.j.L.L.#.Lal.Lalal.eaQ`6.3.N",
"aFaFaFaF`2#JaEai.p.k.o`w.o.#.o.#`NaZ.1.L.L.X.Lal.L.L.Lal.1#M`C.N",
"aFaFaFaF.h#1#0`B#N.I.#.#.#.#.#.L.X.X.X.X#`.X.X.X.XaL`U#Oa0.B#Ha1",
"aFaFaFaFaV#B.I`T#N.#.#.L.#.L.X.L.X#`.X.X`p.CaL`U#v#I.B.3ak`8.NaF",
"aFaFaFaFa1ar`L`Baf.#.L.X.X#``p`p`p`p.C`R`d.7.l#A.3`KacaNa1aFaFaF",
"aFaFaFa1aF#o#8`La6.G.C#``p`p`pat`R.O#2`A.B`Ca#.z`Pa1aFaFaFaFaFaF",
"aFaFaFaFaF`r#N#`af.G`p`patava6.aa`.2`C#H.z.Na1aFaFaFaFaFaFaFaFaF",
"aFaFaFaFaFa1#D`e`d`eav.A.a.B#A.E#g#7.maFaFaFaFaFaFaFaFaFaFaFaFaF",
"aFaFaFaFaFaFab.A#va0ax.2.E`8aN`DaFaFaFaFaFaFaFaFaFaFaFaFaFaFaFaF",
"aFaFaFaFaFaFaV#C`C`K`8aNaFaFaFaFaFaFaFaFaFaFaFaFaFaFaFaFaFaFaFaF",
"aFaFaFaFaFaFaFa1.N.maFaFaFaFaFaFaFaFaFaFaFaFaFaFaFaFaFaFaFaFaFaF",
"aFaFaFaFaFaFaFaFaFaFaFaFaFaFaFaFaFaFaFaFaFaFaFaFaFaFaFaFaFaFaFaF"
};
