/* XPM */
static char *linkdb_xpm[] = {
/* width height num_colors chars_per_pixel */
"    32    32      256            2",
/* colors */
"`` c #1c466c",
"`. c #6ca6d4",
"`# c #bcb6b4",
"`a c #3476c4",
"`b c #94a6b4",
"`c c #747674",
"`d c #94badc",
"`e c #dcdedc",
"`f c #5c8eb4",
"`g c #8c8e8c",
"`h c #7cb6e4",
"`i c #aca6a4",
"`j c #c4cacc",
"`k c #546e9c",
"`l c #5c7694",
"`m c #acbadc",
"`n c #949294",
"`o c #345e84",
"`p c #84aacc",
"`q c #94c6ec",
"`r c #6482d4",
"`s c #dcd6d4",
"`t c #5482ac",
"`u c #7c8ec4",
"`v c #b4b2ac",
"`w c #f4f2f4",
"`x c #649ac4",
"`y c #94b2d4",
"`z c #d4d6d4",
"`A c #8cbee4",
"`B c #446a8c",
"`C c #245684",
"`D c #74aedc",
"`E c #c4c2c4",
"`F c #94bae4",
"`G c #eceaec",
"`H c #d4ced4",
"`I c #748aa4",
"`J c #6c92b4",
"`K c #7c96ac",
"`L c #8cb6d4",
"`M c #647694",
"`N c #64829c",
"`O c #acb2c4",
"`P c #34567c",
"`Q c #9cb2c4",
"`R c #74869c",
"`S c #ece6dc",
"`T c #acaeac",
"`U c #cccac4",
"`V c #9c9e9c",
"`W c #84aed4",
"`X c #a4c6ec",
"`Y c #74a2c4",
"`Z c #7caad4",
"`0 c #bcbebc",
"`1 c #a4a6a4",
"`2 c #e4e6e4",
"`3 c #6496c4",
"`4 c #44668c",
"`5 c #94c2e4",
"`6 c #74a6d4",
"`7 c #4c86b4",
"`8 c #e4dedc",
".` c #6492bc",
".. c #acbee4",
".# c #3c668c",
".a c #5c8ab4",
".b c #b4b2bc",
".c c #6ca2d4",
".d c #94b6d4",
".e c #447294",
".f c #2c5a94",
".g c #848284",
".h c #849ab4",
".i c #9ca6b4",
".j c #9cbacc",
".k c #5c8ec4",
".l c #8492a4",
".m c #84b6e4",
".n c #acaab4",
".o c #547ea4",
".p c #9cc6e4",
".q c #e4dad4",
".r c #5c86b4",
".s c #fcfafc",
".t c #6c9ac4",
".u c #2c5274",
".v c #7caedc",
".w c #ccc6cc",
".x c #8c96a4",
".y c #8cbae4",
".z c #647e94",
".A c #ccced4",
".B c #a4a2a4",
".C c #8cb2d4",
".D c #74aae4",
".E c #bcbab4",
".F c #4c769c",
".G c #94aac4",
".H c #5c92bc",
".I c #acaaa4",
".J c #c4ced4",
".K c #6c6e6c",
".L c #b4bad4",
".M c #9c9a9c",
".N c #3c6284",
".O c #8ca6c4",
".P c #dcdad4",
".Q c #5486ac",
".R c #b4b6b4",
".S c #9caedc",
".T c #8cc2ec",
".U c #446e94",
".V c #c4c6c4",
".W c #94bee4",
".X c #eceeec",
".Y c #d4d2cc",
".Z c #6c829c",
".0 c #b4b6cc",
".1 c #345a7c",
".2 c #b4aeac",
".3 c #cccecc",
".4 c #94a2ac",
".5 c #a4caec",
".6 c #c4bec4",
".7 c #9cc2e4",
".8 c #74aadc",
"#` c #e4e2dc",
"#. c #7486cc",
"## c #a4aac4",
"#a c #7c7e7c",
"#b c #8c8a8c",
"#c c #8ca2bc",
"#d c #7496c4",
"#e c #4486cc",
"#f c #244a74",
"#g c #747274",
"#h c #acb6d4",
"#i c #9cbedc",
"#j c #9cb6cc",
"#k c #acaebc",
"#l c #8c92a4",
"#m c #94aabc",
"#n c #dce2e4",
"#o c #34628c",
"#p c #d4dadc",
"#q c #84b2dc",
"#r c #849ebc",
"#s c #84baec",
"#t c #9ccaec",
"#u c #6c9ecc",
"#v c #2c567c",
"#w c #7cb2e4",
"#x c #8c9aa4",
"#y c #4c7aa4",
"#z c #b4bedc",
"#A c #9cb2e4",
"#B c #5c7a94",
"#C c #949694",
"#D c #f4f6f4",
"#E c #647a94",
"#F c #748a9c",
"#G c #b4b6bc",
"#H c #848684",
"#I c none",
"#J c #8caac4",
"#K c #6c869c",
"#L c #5c8ebc",
"#M c #8c8e94",
"#N c #7cb6ec",
"#O c #c4cad4",
"#P c #b4b2b4",
"#Q c #649acc",
"#R c #8cbeec",
"#S c #446a94",
"#T c #c4c2cc",
"#U c #6c92bc",
"#V c #8cb6dc",
"#W c #cccacc",
"#X c #74a2cc",
"#Y c #bcbec4",
"#Z c #94c2ec",
"#0 c #74a6dc",
"#1 c #acbeec",
"#2 c #3c6694",
"#3 c #44729c",
"#4 c #9cbad4",
"#5 c #547eac",
"#6 c #9cc6ec",
"#7 c #2c527c",
"#8 c #7caee4",
"a` c #8cbaec",
"a. c #647e9c",
"a# c #8cb2dc",
"aa c #bcbabc",
"ab c #acaaac",
"ac c #dcdadc",
"ad c #5486b4",
"ae c #94beec",
"af c #eceef4",
"ag c #d4d2d4",
"ah c #345a84",
"ai c #94a2b4",
"aj c #a4caf4",
"ak c #e4e2e4",
"al c #8c9aac",
"am c #000000",
"an c #000000",
"ao c #000000",
"ap c #000000",
"aq c #000000",
"ar c #000000",
"as c #000000",
"at c #000000",
"au c #000000",
"av c #000000",
"aw c #000000",
"ax c #000000",
"ay c #000000",
"az c #000000",
"aA c #000000",
"aB c #000000",
"aC c #000000",
"aD c #000000",
"aE c #000000",
"aF c #000000",
"aG c #000000",
"aH c #000000",
"aI c #000000",
"aJ c #000000",
"aK c #000000",
"aL c #000000",
"aM c #000000",
"aN c #000000",
"aO c #000000",
"aP c #000000",
"aQ c #000000",
"aR c #000000",
"aS c #000000",
"aT c #000000",
"aU c #000000",
"aV c #000000",
"aW c #000000",
"aX c #000000",
"aY c #000000",
"aZ c #000000",
"a0 c #000000",
"a1 c #000000",
"a2 c #000000",
"a3 c #000000",
"a4 c #000000",
"a5 c #000000",
"a6 c #000000",
"a7 c #000000",
"a8 c #000000",
/* pixels */
"#I#I#I#I#I#I#I#I#I#I#I#I#I#I#I#I#I#I#I#I#I#I#I#I#I#I#I#I#I#I#I#I",
"#I#I#I#I#I#I#I#I#I#I#I#I#I#I#I.saf`8`S`8`8`8#``8ak#``8akakak#I#I",
"#I#I#I#I#I#I#I#I#I#I#I#I#I#I#I`w.Y###.`y..#z.0#h.b`O#G.6`j.Y`w#I",
"#I#I#I#I#I#I#I#I#I#I#I#I#I#I#I`2.E#c`a#0#6#6.7`d`y.O#m`Q.i`H#D#I",
"#I#I#I#I#I#I#I#I#I#I#I#I#I#I.sak.2`b.Q#X#Zajaj#t.7`d.d.j#r#W#D#I",
"#I#I#I#I#I#I#I#I#I#I#I#I#I#I.s#n`v.x#2#5`3.8#w#N#w`D`Z`Z`J.w#D#I",
"#I#I#I#I#I#I#I#I#I#I#I#I#I#I#Iak`v#xah.ead.``.#8`h`h#q`L`Y.V.s#I",
"#I#I#I#I#I#I#I#I#I#I#I#I#I#I.sak`v.xah.#.F`t#L#u`D#w#R#Z.v#W`w#I",
"#I#I#I#I#I#I#I#I#I#I#I#I#I#I#Iak`v.l`o.#.U#3.o.a.t`..m`q#s#O#D#I",
"#I#I#I#I#I#I#I#I#I#I#I#I#I#I.s#n#P#xah.#.U.U#3#yad`3`Zae#s.A`w#I",
"#I#I#I#I#I#I#I#I#I#I#I#I#I#I.s#``v.xah.#.U.e.U.U.F#5.t#q#q.J#D#I",
"#I#I#I#I.s#I#I#I.s#I.s.s#I.s.sak#P.l.1.N`4.#`4#2`B#2#y.a.k.V.s#I",
".s.s`e`s.q`s`s`sac`sac.Pacac`zag.R.l#f.u.u#7.u#7.u.u#v#o.f#T#D#I",
"#D`2.w`u`r#A#1#h#h###k.n#Gaa.3#W.R.4#B#E#B.za..z#E#E#E#B`M#Y.s#I",
"#Dag`#.`#e.y#t#t#6#i`L#J#j#m#k.Y.V.2`v`T#P.B`n`V`T`v`T.R`E`z.s#I",
"`w.3`T`K`t`Z#Z#6#6#6.W`L#4`pai`s`2#pag#p`e.R#g.g.V`e`zac`2.s#I#I",
"#D#W.2`N#2ad.t#0#w#N#w.8#q`Y.h`e#I.s.sak`e#W`Vab`z`G`2#D.s.s#I#I",
"#D.3.2a.`o.Fad`3`.#w#N`h.y.v.O.P#I#I`2.M`V`i.R.6.V`E.V#I#I#I#I#I",
"`w.3`Ta..1.U.F`t.`.c`D#N`5.y.C.q#I#I.3.g`n#b`g#b`g`gab#I#I#I#I#I",
"#D.3.2a..1#2.e#3#y#L.t.8ae.T`Fac#I#I`Saa#Y`1`c#a.2#Y`2#I#I#I#I#I",
"`w.3.2`N.1.U#3.U.F#y.a`3#q#R`F.P#I#I#I#I#I`8#M`1af#I#I#I#I#I#I#I",
"#D.3`Ta.ah`B.U.U.U.U.F`t#X.v.Cac#I#I#I#I#Iac`g.B`G#I#I#I#I#I#I#I",
"`w.3.2#E#v.N.#.#.##2.##S.o`7#d`8#I#I#I#I#I`e`n.B`G#I#I#I#I#I#I#I",
"#D#W`T`l``#7.u#7.u.u`C.u`P`C#S`8#I#I#I#I#I`s#M`T.X#I#I#I#I#I#I#I",
"`wag`Tal#K`R`R#F#F`R`R`R#F.Z#l`e#I#I#I#I#I`e.M.R.X#I#I#I#I#I#I#I",
"#Dak`0`v#P`v.I#b.B.B.I`i.I.2`0ac`w#D`w`w`w#W#C.B`G#I#I#I#I#I#I#I",
".s`w`2`eac`Gaa.K`V#M#b#M#C`V`1.2`T#P#Pab.M#C#C`n`2#I#I#I#I#I#I#I",
"#I#I.s.s`w`e`0`nab.I`1`1#C`n`n#C#C`n#C`n#C#C.M`V`G#I#I#I#I#I#I#I",
"#I#I#I#I`E`g`V`T.R`0`E`E.V`Gak`2`2`2`2`2`2`2ak.X#I#I#I#I#I#I#I#I",
"#I#I#I#Iab#H#b.g.g#H#b#H`z#I#I#I#I#I#I#I#I#I#I#I#I#I#I#I#I#I#I#I",
"#I#I#I#Iac#W`0`Vab.V#W`z.s#I#I#I#I#I#I#I#I#I#I#I#I#I#I#I#I#I#I#I",
"#I#I#I#I#I#I#I#I#I#I#I#I#I#I#I#I#I#I#I#I#I#I#I#I#I#I#I#I#I#I#I#I"
};
