/* XPM */
static char *mergedb_xpm[] = {
/* width height num_colors chars_per_pixel */
"    32    32      256            2",
/* colors */
"`` c #0c5a8c",
"`. c #849ec4",
"`# c #049444",
"`a c #44ab42",
"`b c #4493b9",
"`c c #84d6fc",
"`d c #3c8d7c",
"`e c #68b09c",
"`f c #048739",
"`g c #84be74",
"`h c #6496bf",
"`i c #4cb244",
"`j c #c4dacc",
"`k c #acbad4",
"`l c #2493d0",
"`m c #84bad4",
"`n c #44a3d9",
"`o c #dcebef",
"`p c #0c77b6",
"`q c #6cb56d",
"`r c #1c619c",
"`s c #54aedc",
"`t c #4c88ba",
"`u c #2c8e84",
"`v c #4c9a8c",
"`w c #6cafce",
"`x c #24a239",
"`y c #9cca94",
"`z c #64a4c4",
"`A c #5496a4",
"`B c #3478ad",
"`C c #dce0f0",
"`D c #045e9c",
"`E c #72b87c",
"`F c #a4d29c",
"`G c #349581",
"`H c #3487b8",
"`I c #84bf9a",
"`J c #74a3c4",
"`K c #c4e1d5",
"`L c #6cc2ec",
"`M c #046bac",
"`N c #acd2e4",
"`O c #54a963",
"`P c #3ca0d4",
"`Q c #2c76a9",
"`R c #34a744",
"`S c #f4f9fb",
"`T c #5cb264",
"`U c #54a6ac",
"`V c #147eb9",
"`W c #84b3d7",
"`X c #4c95c7",
"`Y c #9cbec4",
"`Z c #6cbe56",
"`0 c #74b6d0",
"`1 c #64a2cf",
"`2 c #3492c4",
"`3 c #1c6b9f",
"`4 c #1489cc",
"`5 c #4489b5",
"`6 c #b4e0f8",
"`7 c #acceb4",
"`8 c #c4e0f4",
".` c #2488c0",
".. c #84ca74",
".# c #34a05c",
".a c #5495c7",
".b c #a4aecc",
".c c #e4f2f4",
".d c #0466a4",
".e c #58ae50",
".f c #1c863c",
".g c #54a770",
".h c #7cb0cc",
".i c #7cc480",
".j c #94c39c",
".k c #146ca9",
".l c #bcdad4",
".m c #54a6cc",
".n c #acc8e0",
".o c #44a657",
".p c #5cb551",
".q c #6cba69",
".r c #5cb6e4",
".s c #3481af",
".t c #3c8eba",
".u c #1c81be",
".v c #2c71a5",
".w c #4c9cb4",
".x c #c4d6f4",
".y c #7cbb81",
".z c #8cc694",
".A c #94b6e8",
".B c #9ccae4",
".C c #69aacf",
".D c #359ad1",
".E c #d4e0ee",
".F c #c4c6dc",
".G c #749ac4",
".H c #94c6e4",
".I c #eceefc",
".J c #1c78b0",
".K c #2c9c58",
".L c #9cc8a4",
".M c #69aac4",
".N c #b4d6b8",
".O c #3c87b8",
".P c #8cc0a8",
".Q c #74a6d4",
".R c #64ba64",
".S c #449dcc",
".T c #1c8ecc",
".U c #94c987",
".V c #5c9bcc",
".W c #14639e",
".X c #64ae6c",
".Y c #d4d8e8",
".Z c #189c4c",
".0 c #4c93bb",
".1 c #7cbe9c",
".2 c #2c9ad4",
".3 c #4ca5d5",
".4 c #e4ecf5",
".5 c #5c8ec4",
".6 c #74b1d6",
".7 c #7cbee4",
".8 c #0c72b0",
"#` c #acd6ec",
"#. c #207c74",
"## c #046a64",
"#a c #a4aadc",
"#b c #74aeb4",
"#c c #2c8a7c",
"#d c #9cd2f4",
"#e c #9cbeec",
"#f c #7cc16e",
"#g c #94bedc",
"#h c #649cd0",
"#i c #bcdecc",
"#j c #64aec4",
"#k c #a4aee4",
"#l c #64aecc",
"#m c #5ca28c",
"#n c #2c8e44",
"#o c #4482bc",
"#p c #84c279",
"#q c #88c2e8",
"#r c #549abc",
"#s c #3c9a6c",
"#t c #5caac4",
"#u c #268ecc",
"#v c #59ae6f",
"#w c #afced9",
"#x c #14863c",
"#y c #145e9c",
"#z c #84a6dc",
"#A c #1c669c",
"#B c #518eb7",
"#C c #cce6dc",
"#D c #2472a4",
"#E c #58aad8",
"#F c #c7dae7",
"#G c #24a24c",
"#H c #64b67c",
"#I c #5aa3c4",
"#J c #1180c6",
"#K c #88b4e8",
"#L c #6fb9df",
"#M c #3496cf",
"#N c #8cc888",
"#O c #7c9edc",
"#P c #b8d4c8",
"#Q c #046284",
"#R c #0c9a44",
"#S c #b1c2dc",
"#T c #54a294",
"#U c #e0e6f0",
"#V c None",
"#W c #bce6fc",
"#X c #c0cee0",
"#Y c #a4cea4",
"#Z c #7caad4",
"#0 c #0c726c",
"#1 c #9cb6ec",
"#2 c #71be6c",
"#3 c #5aae62",
"#4 c #94ceec",
"#5 c #9cc6dc",
"#6 c #8cc28c",
"#7 c #5cae84",
"#8 c #acceec",
"a` c #84ba8c",
"a. c #5494b8",
"a# c #accacc",
"aa c #7cb2e0",
"ab c #bcd8e6",
"ac c #7cbc94",
"ad c #4cae4c",
"ae c #448e84",
"af c #6c92cc",
"ag c #5cb0de",
"ah c #6ca4c0",
"ai c #3c9274",
"aj c #7ca6bc",
"ak c #cce2cc",
"al c #74c5ec",
"am c #5caa64",
"an c #3caa43",
"ao c #246ca2",
"ap c #2c86bc",
"aq c #3ca154",
"ar c #5caa6c",
"as c #5ca4d4",
"at c #4ca85e",
"au c #64b45b",
"av c #ccd2e4",
"aw c #a4cde7",
"ax c #4c9dc4",
"ay c #448eb7",
"az c #a4b6d4",
"aA c #1c8e44",
"aB c #d4e6ec",
"aC c #2ca241",
"aD c #acd2ac",
"aE c #b4d2d8",
"aF c #a4bed4",
"aG c #74ba72",
"aH c #5c9aac",
"aI c #2466a4",
"aJ c #0c964c",
"aK c #54b346",
"aL c #2c95d4",
"aM c #1479b6",
"aN c #e4e2ec",
"aO c #0c5c98",
"aP c #8cc094",
"aQ c #0c6da9",
"aR c #fcf9fa",
"aS c #64b367",
"aT c #8cb6dc",
"aU c #6ca4d4",
"aV c #3c96c1",
"aW c #1c89ca",
"aX c #bce2f4",
"aY c #cce0f0",
"aZ c #8cc67c",
"a0 c #5c96c4",
"a1 c #ecf3f6",
"a2 c #0c64a2",
"a3 c #64b7e3",
"a4 c #3c82ae",
"a5 c #a4caac",
"a6 c #7ca2dc",
"a7 c #b4d3ef",
"a8 c #7cb2bc",
/* pixels */
"#V#V#V#V#VaR.4`oaYaYaB`oa1#V#V#V#V#V#V#V#V#V#V#V#V#V#V#V#V#V#V#V",
"#V#V#V.E#5`0#E`n#M`2#M.tax.Caw.4#V#V#V#V#V#V#V#V#V#V#V#V#V#V#V#V",
"#VaR#8`0a3`n#M#uaW`4`V`V.8aQ.J#B#F#V#V#V#V#V#V#V#V#V#V#V#V#V#V#V",
"#Vab`L`ca3`s.D`l#u.TaW.uaM.8aQa2a4aB#V#V#V#V#V#V#V#V#V#V#V#V#V#V",
"aR#g`Lalag.3.D`l.TaWaWaMaM.8aQa2.W#w#V#V#V#V#V#V#V#V#V#V#V#V#V#V",
"#Xaya3ag.3`PaL`l#uaW.u.u`paQa2`3.O#Ba1#V#V#V#V#V#V#V#V#V#V#V#V#V",
"aF`5ao#t`s`P`laW`4#J`V`p`paM`H`5.v`5.I#VaR#V#V#V#V#V#V#V#V#V#V#V",
"#Fah.O#y.v.O.S.S.S.D`baVay.Oao.W.0#B.4#V#V#V#V#V#V#V#V#V#V#V#V#V",
"#V#S`z#I.saI`r`r`raI#A`r.Wao`5.M.O.v`C.E#F`Naw#5#wab#Fa1#V#V#V#V",
"a1aN#Saj.C`w#I#I.V.a.V`1.C.C#r#D```3.6`s.D`laW`4.u.``H.waT`o#V#V",
"aR`Cav.F.b`..G`A`G`G`G#c#.###Q#y``.s.r`naL#uaWaW.u`V.8`MaQ`5#F#V",
"#V`Sav#S`k.b#k`dau`y#6#N`F.o#Q#y.sala3.3.D`l.TaW.u`VaM.8.kaO.0a1",
"#V#V#V#U.F`Y#aae#N`j.N#Pak#3`3`Xala3`s`naL#uaWaW.u`VaMaQ.kaO.s#w",
"#V#V#V#V#Va1.4#7.y`7.L.j.N`Oah.0a3ag`naL`l.`.TaW.uaM.8`Ma2.s.s`h",
"#V#V#V#V#V#V#Vac.y`y.j.jaD`O#b#B.v`b.3`n.2`l.TaW.u.u.uap.O`B.s`J",
"#V#V#V#V#VaR#Vac`E.jaP`I#Y.ea#.h.w.vao`Q`H.t.t.t`H`H`B.v.va.aya0",
"#V#V#V#V#V#V#V`I`EaP.y.y`y`O`j`C`W.6`z.0#o`B.v`Q`B.s`5aH#l`b`Da0",
"#C`K`K`K`K`K`K.gaG.y.y`E`yat.P#w`Yaj`A.w`U#j`w`w.M.M#I`H.8`M.d.h",
"#x`O`O`O`Oat`O.g`y`q`q.Xa`#6`O.g`Oam`Oamaq`d#Oa0.5`t#o.J`paM`Mah",
"am.i.g#H`E`E`EaGaS.X`q`q`q#faZaZaZaZaZ#p#p`v#1#ZaU#h.aapaMa2`Q`J",
"arat`f.K.K.#aq.o`Oam#3aSaSau.Xauau`q.eaC.R`d#Oa0#B#o`B.W#y`t.0`z",
"am`O`f`#aJ.Kaq.oatad`O.pauauauauau.ean`R#f#0aI#Aaoao.s.a.C#I.8as",
".X#v`faJaJ#R.ZaCaCaqadad.e.eaKaKaK`i`i`a#f`G.6.C#l`w`waxaW`V`p`0",
"aA`qaSaS`TaS`T`E.i`x`Ranad.UaG`g#f.q.qaG.e`u#KaU`1.V`X#JaW.T#J#h",
".1.1.1.1`Iac.1#s#2`Ranan`Zamai#c#.#m`e`e#ma8#e#Kaa.C#EaLaW`p.s`J",
"#V#V#V#V#V#V#V.P`T`Ran`a`Z.e#P.h.a`taf#z.A.A`W`WaU.V#o.8.k#B.0#l",
"#V#VaR#V#V`S#VacaSanan`a`Z`O.l.E.h.M`b.s.v`Q.v.v.v`Qa4.5`w#r#J#E",
"#V#V#V#V#V#V#V.1aSananan`Z`O#P.IaY#S#g`m`0`w`w`w`w`w#l.3#uaW#J.7",
"#V#V#V#V#V#V#VacaS`Ranan`Z`O.l.I#F`8ab#w#8awaw#4#q#L`P#MaL`4`P.4",
"#V#V#V#V#V#V#V`IaS`x`x`x.p`O`j#V.4#Fa7a7a7aX`6`6#da3`P#M`P#La1#V",
"#V#V#V#V#V#V#Vac`q#2.Rau..at`K#V#VaR.4#U`8`8aXaX#4#q#q#``o#V#V#V",
"#V#V#V#V#V#V#V.1#nar.g`O.g.f#C#VaR#V#V#V#V`S`Sa1a1`S#V#V#V#V#V#V"
};
