/* XPM */
static char *newdb_xpm[] = {
/* width height num_colors chars_per_pixel */
"    32    32      256            2",
/* colors */
"`` c #243e5c",
"`. c #449e24",
"`# c #a49e9c",
"`a c #1c6e0c",
"`b c #6c7a8c",
"`c c #4c9fe4",
"`d c #34729c",
"`e c #3c8a94",
"`f c #a4d284",
"`g c #94be8c",
"`h c #74b744",
"`i c #9c9e9c",
"`j c #4c86ca",
"`k c #146214",
"`l c #d4d2cc",
"`m c #4c95d4",
"`n c #74c23c",
"`o c #4c72b8",
"`p c #eceae6",
"`q c #248612",
"`r c #54aee9",
"`s c #8cc264",
"`t c #848484",
"`u c #1c524c",
"`v c #3c7eb4",
"`w c #a4ba94",
"`x c #5c9ed8",
"`y c #5c92d9",
"`z c #5c86d4",
"`A c #3c5e8f",
"`B c #3c921c",
"`C c #849ec4",
"`D c #ecf6ec",
"`E c #8cce58",
"`F c #bcbab4",
"`G c #64ba24",
"`H c #2c4a74",
"`I c #84bedc",
"`J c #4c8ec4",
"`K c #d4e0cc",
"`L c #4c92dc",
"`M c #2c861f",
"`N c #7cb2d4",
"`O c #6496dc",
"`P c #546e8c",
"`Q c #8cae74",
"`R c #2c5974",
"`S c #4c7eb4",
"`T c #acbad0",
"`U c #8cd2f6",
"`V c #547a4c",
"`W c #447ab6",
"`X c #9cca78",
"`Y c #8c98ac",
"`Z c #5ca6e0",
"`0 c #2c648a",
"`1 c #2c7a5c",
"`2 c #648abc",
"`3 c #bcdabc",
"`4 c #a4ca8c",
"`5 c #e4dede",
"`6 c #6c8294",
"`7 c #54a7e6",
"`8 c #4c86d4",
".` c #ecf2eb",
".. c #8cca5c",
".# c #2c5274",
".a c #5ca054",
".b c #447aac",
".c c #4c9ad4",
".d c #248e08",
".e c #fcf9f8",
".f c #4c7fd0",
".g c #244567",
".h c #1c820c",
".i c #7ccc3e",
".j c #64b6ec",
".k c #5c6a74",
".l c #5cc20c",
".m c #9caecc",
".n c #8cbe6c",
".o c #9cd5f7",
".p c #949694",
".q c #b4c9a7",
".r c #446e9c",
".s c #5cb6f4",
".t c #2c4c6c",
".u c #3c6898",
".v c #8ca2c4",
".w c #9ccf6f",
".x c #4c9ae4",
".y c #84b7d9",
".z c #549fd4",
".A c #5487ca",
".B c #5493c7",
".C c #4c76c9",
".D c #f4eefc",
".E c #5cb0eb",
".F c #94c46e",
".G c #649ef4",
".H c #5c9ae0",
".I c #3c923c",
".J c #bccab0",
".K c #344d77",
".L c #4c8edc",
".M c #349020",
".N c #34578c",
".O c #4c7ac7",
".P c #8498be",
".Q c #5ca9ec",
".R c #346a96",
".S c #cce2cc",
".T c #a4ce8c",
".U c #e4e6e7",
".V c #7c8387",
".W c #64ae44",
".X c none",
".Y c #5481cf",
".Z c #1c7a24",
".0 c #a4b69c",
".1 c #b4d3b2",
".2 c #7cb274",
".3 c #9cba8c",
".4 c #d4dae4",
".5 c #84c550",
".6 c #f4eeec",
".7 c #5ca0e4",
".8 c #5c8ede",
"#` c #3c6294",
"#. c #a4b6d4",
"## c #4c7aa8",
"#a c #7c9ac4",
"#b c #549e4c",
"#c c #c4d2dc",
"#d c #8cc8e4",
"#e c #4c87b9",
"#f c #6cc72a",
"#g c #cccecc",
"#h c #8c8e8c",
"#i c #94a6bc",
"#j c #244b67",
"#k c #dce2ec",
"#l c #4c9a4c",
"#m c #b4aeac",
"#n c #84be64",
"#o c #94bef4",
"#p c #9cba84",
"#q c #7ca8cc",
"#r c #4474ac",
"#s c #7c7e84",
"#t c #349214",
"#u c #a4c28c",
"#v c #8cb66c",
"#w c #347e74",
"#x c #b4d294",
"#y c #1c722c",
"#z c #9cc69c",
"#A c #d4e6d4",
"#B c #3c829c",
"#C c #7caeec",
"#D c #8cbaec",
"#E c #c4cec4",
"#F c #4ca62c",
"#G c #ccdae4",
"#H c #f4f2f6",
"#I c #94ca70",
"#J c #345289",
"#K c #44768c",
"#L c #94b684",
"#M c #84869c",
"#N c #5c8ae4",
"#O c #3c9234",
"#P c #7c869c",
"#Q c #2c3c60",
"#R c #747e84",
"#S c #9cc29c",
"#T c #6cba34",
"#U c #dcdedc",
"#V c #348a2c",
"#W c #6c92cc",
"#X c #345684",
"#Y c #5482c4",
"#Z c #acca8c",
"#0 c #2c9014",
"#1 c #248210",
"#2 c #64c418",
"#3 c #547694",
"#4 c #9cdafc",
"#5 c #345e94",
"#6 c #1c822c",
"#7 c #2c526c",
"#8 c #acbaa4",
"a` c #94ce60",
"a. c #84b264",
"a# c #acb6c4",
"aa c #3c73a4",
"ab c #dcd6d4",
"ac c #2c8a14",
"ad c #4480ba",
"ae c #f4f9f4",
"af c #8cc2e4",
"ag c #5495dc",
"ah c #94b278",
"ai c #94d4f8",
"aj c #5489d4",
"ak c #2c466c",
"al c #94ba74",
"am c #6caf49",
"an c #547eac",
"ao c #9ca4b4",
"ap c #54b2f4",
"aq c #3c5c9c",
"ar c #64b634",
"as c #4c82c4",
"at c #2c6694",
"au c #2c766c",
"av c #e4e2ec",
"aw c #1c7e1c",
"ax c #54a0e4",
"ay c #5493d4",
"az c #84c25c",
"aA c #84a8cc",
"aB c #acc69c",
"aC c #548ec8",
"aD c #4c7ab8",
"aE c #94ca64",
"aF c #34527c",
"aG c #549ad3",
"aH c #549ae1",
"aI c #548ed9",
"aJ c #ece6e4",
"aK c #dcdadc",
"aL c #243e6c",
"aM c #c4dabc",
"aN c #a4ca9c",
"aO c #748294",
"aP c #9c9694",
"aQ c #94a2c4",
"aR c #acce8c",
"aS c #ccd2dc",
"aT c #84aeec",
"aU c #747e94",
"aV c #d4d6d4",
"aW c #4c76b4",
"aX c #eceee9",
"aY c #248a0c",
"aZ c #8cc661",
"a0 c #5ca2dc",
"a1 c #5c96d8",
"a2 c #5c8acc",
"a3 c #3c9620",
"a4 c #bcbebc",
"a5 c #2c4e79",
"a6 c #4c96e4",
"a7 c #2c8a1c",
"a8 c #5caae1",
/* pixels */
".X.X.X.X.X.X.X.X.X.X.X.X.X.X.X.X.X.X.X.X.X.X.X.X.X.X.X.X.X.X.X.X",
".X.X.X.X.X.X.X#Hav#GaS#caS.4.U#H.X.X.X.X.X.X.X.X.X.X.X.X.X.X.X.X",
".X.X.X.X.U#.aA#q.y`Iaf#daf.y`N#q.v`T`p.X.X.X.X.X.X.X.X.X.X.X.X.X",
".X.X.e.m#Waf.o#4ai`U`U`U`U`U.o#4.o.y`2`T.e.X.X.X.X.X.X.X.X.X.X.X",
".X.X#..C#o#C`y.L.La6`c`c`ca6.LaIa1#DaT`oa#.X.X.X.X.X.X.X.X.X.X.X",
".X.X.P.Yaj.fajaIaHax`7`7`7axagaI`8.f`z.f#P.6.X.X.X.X.X.X.X.X.X.X",
".X.e.P.Oaj`yaH.Hax`Z.E.E.E`7ax.HaH`y.A.OaU`p.X.X.X.X.X.X.X.X.X.X",
".X.X.P`o.Yaj.Bag`x`Za8a8`Za0.zag.B.A.Y.CaU`p.X.X.X.X.X.X.X.X.X.X",
".X.e#a.f.Y.faIa6.z`7`7`r`7`caxayaj.f.Y.faO`p.X.X.X.X.X.X.X.X.X.X",
".X.X#iaj.8ajaIa6`c`7`rap`r`7`c`Lajaj`y.Y.V`p.X.X.X.X.X.X.X.X.X.X",
".e.Xao.N.A`y`x.7.Q`7apapap`7.Q.7.7`yaW```i.X.X.X.X.X.X.X.X.X.X.X",
".X.X.v#5.KaF.u`S`J.za8a8`ZaG`J#r`A.g#Q#J`Y.e.X.X.X.X.X.X.X.X.X.X",
".X.X.P.CaW.u#X#j#j#j#j#j#j``.g.g.##`aW.OaU`p.X.X.X.X.X.X.X.X.X.X",
".X.e.P.C.Yas`8adadaa`d.R`d`d.b#eas.f.Y.CaU`p.X.e.X.X.X.X.X.X.X.X",
".X.X.P.C.Y.fajaj.L`m.c.c.ca6ay`8aj.Y.Y.OaU`p.X.X.X.X.X.X.X.X.X.X",
".X.eaQ`8#NajajaIagax`7`7`ZaHayaIaj.L.8.Y#M`p#A.1.1`K.X.X.X.X.X.X",
".e.Xao#5aC.H.H.H.7.7.Q.E`7.7axa1.H.Has.K`V#O#1aYac`q.I#z.X.X.X.X",
".X.X.P#J.K#5#raCaGa8.E.E.E`Zag#e.ra5#Q`kaYam`X#Z`4`X.W#1.aae.X.X",
".X.X.P.O`o#5.t.t#j#j#7#7#7#j.g``#j.N#y`..w#x.q#g#E.q#x.wac.a.X.X",
".X.X.P.C.f.A`j`Waa`dat`0`0.Raaad.Y#w#taE`X`4.q.XaJ`w`4`X.w.haN.X",
".X.e.P.C.Y.f.A`8`L`L.c.c.c`maI`8aj.Z`h`E#I`XaB.XaK.3aR#I.w.W.I.e",
".X.X.vajajajajayag`x`7.Q`7axay.8#Bac..az`s.n#u.Xav#p.F.naZaZ`M.S",
".X.X`Y`AaI.H.Ha1.7ax.Q.E.Q.7aH.G`e`BaZaM.`aX#H.X.X.`aX.`.qaZa7.1",
".X.X.P#J.K#``WaC`xa8.E.E.E`ZaGajaua3.F`K#H.D.e.X.X#H.D.D#8aE`M.1",
".X.e.P.C#r#Xa5#j.t.#`R`R`R.t.g```u.M`Xalaha.#p.eaJ`Q`Qahal.F`M.S",
".X.X.P.C.Y`jas`Waa.R`0#5`0.R.r`Wad.Z`saE.i#faz.XaK`h.i.5.wam#O.X",
".X.e.P.O.Y.YajaIayaH`c`7`caHa6aI#N`1a3.w.5#faz.Xav`h`n`E.w#1#z.X",
".X.X#i.f`yaIajaIagax`7a8ax.zayajaIaIaw#F`E#f`n.J.0`h.ia`#0#b.X.X",
".X.Xab`6`Say.H.7.7.Q.E.E.E.Q.7.7aH.8#K`a#0`G#2.l.l#f`G#1#lae.X.X",
".X.X.Xab.p`b#3`S#e.B.z.zaG.B#e##`P.k#sa4.2`MacaY.dac#V`g.X.X.X.X",
".X.X.X.X.eaK`F`##h.V.V#R.V#s`taP#m`l.6.X.X.`.1#S#S`3ae.X.X.X.X.X",
".X.X.X.X.X.X.X.XaeaJ`5#U`5.U.6.X.X.X.X.X.e.X.X.X.X.X.X.e.X.X.X.X"
};
