/* XPM */
static char *open_32_xpm[] = {
/* width height num_colors chars_per_pixel */
"    32    32      256            2",
/* colors */
"`` c #7c6234",
"`. c #e4b60c",
"`# c #b4b6bc",
"`a c #f4e684",
"`b c #fcda14",
"`c c #dcdedc",
"`d c #bc920c",
"`e c #ccb244",
"`f c #8c8a8c",
"`g c #fcee5c",
"`h c #fcf284",
"`i c #fcf6c4",
"`j c #f4da4c",
"`k c #9c7a1c",
"`l c #d4a614",
"`m c #d4ba84",
"`n c #f4ca0c",
"`o c #dcca74",
"`p c #f4f2ec",
"`q c #f4f2a4",
"`r c #94762c",
"`s c #ccb264",
"`t c #e4ce8c",
"`u c #ecdeac",
"`v c #fce64c",
"`w c #ecca3c",
"`x c #eceadc",
"`y c #c4a23c",
"`z c #c4a264",
"`A c #f4da3c",
"`B c #fcfae4",
"`C c #e4d6bc",
"`D c #fcfaa4",
"`E c #dcbe6c",
"`F c #8c723c",
"`G c #f4ea8c",
"`H c #ac8e4c",
"`I c #dcceb4",
"`J c #ecd234",
"`K c #746654",
"`L c #fcfa84",
"`M c #f4e66c",
"`N c #c4a254",
"`O c #fce234",
"`P c #ece2cc",
"`Q c #9ca2ac",
"`R c #fcfe74",
"`S c #fcfac4",
"`T c #f4e27c",
"`U c #7c7674",
"`V c #fcd224",
"`W c #c49a0c",
"`X c #fcde4c",
"`Y c #fcd214",
"`Z c #dcba74",
"`0 c #eceae4",
"`1 c #f4ea94",
"`2 c #848284",
"`3 c #c4c6c4",
"`4 c #dcb64c",
"`5 c #fcee74",
"`6 c #a48224",
"`7 c #cca21c",
"`8 c #f4f2f4",
".` c #d4ba6c",
".. c #f4eaa4",
".# c #c4aa64",
".a c #f4fafc",
".b c #fcfab4",
".c c #fcd238",
".d c #ccb254",
".e c #ccb274",
".f c #fcda37",
".g c #e4d6b4",
".h c #7c6e54",
".i c #c4aa59",
".j c #fcfad4",
".k c #ecc220",
".l c #9c9684",
".m c #e4c68c",
".n c #f4f2bc",
".o c #fcea5f",
".p c #fcfa98",
".q c #f4e6c6",
".r c #8c7e74",
".s c #ccae78",
".t c #fcda2a",
".u c #fcf694",
".v c #ecda5c",
".w c #ac820c",
".x c #fcca0c",
".y c #f4d644",
".z c #e4d69c",
".A c #dcc277",
".B c #fcea6c",
".C c #7c7e7c",
".D c #c49a14",
".E c #f4eee8",
".F c #fcee94",
".G c #cccecc",
".H c #ccaa2c",
".I c #f4eeb4",
".J c #fcfafa",
".K c #fcde44",
".L c #ecd6a4",
".M c #846a2c",
".N c #ece294",
".O c #dce2ec",
".P c #c49614",
".Q c #d4b248",
".R c #fcee6c",
".S c #fcf687",
".T c #fcf2e4",
".U c #d4b666",
".V c #fcea50",
".W c #f4ead1",
".X c #ccaa34",
".Y c #dcdadc",
".Z c #fcfea8",
".0 c #fcee8c",
".1 c #7c6a54",
".2 c #f4e67c",
".3 c #c4a25c",
".4 c #fce244",
".5 c #acaeb4",
".6 c #fcfec7",
".7 c #fcd627",
".8 c #fce24d",
"#` c #fcd619",
"#. c #c49e44",
"## c #dccab4",
"#a c #e4d254",
"#b c #b48e24",
"#c c #aca29c",
"#d c #a4863c",
"#e c #9c9aa0",
"#f c #7c6644",
"#g c #e4ba24",
"#h c #f4f2dc",
"#i c #9c7e3c",
"#j c #7c7264",
"#k c #bcbec4",
"#l c #bc962c",
"#m c #ecd65c",
"#n c #d4be9c",
"#o c #e4d66c",
"#p c #dcaa08",
"#q c #ecd29c",
"#r c #e4d2a4",
"#s c #8c8274",
"#t c #fcf67c",
"#u c #e4decc",
"#v c #94722c",
"#w c #f4c214",
"#x c #847e74",
"#y c #84662c",
"#z c #fcf6f4",
"#A c #ccaa64",
"#B c #d4b25c",
"#C c #d4b674",
"#D c #ccae5c",
"#E c #fcf6b8",
"#F c #f4de60",
"#G c #b48604",
"#H c #cc9e18",
"#I c #f4e694",
"#J c #e4e6e4",
"#K c #fcf6d4",
"#L c #ecba0c",
"#M c #bcbabc",
"#N c #f4ca14",
"#O c #fcf2a4",
"#P c #ece2bc",
"#Q c #746a64",
"#R c #ece6d4",
"#S c #a4a6ac",
"#T c #cca62c",
"#U c #e4ca94",
"#V c #ecdab4",
"#W c #a47a18",
"#X c #f4ca34",
"#Y c #f4d22c",
"#Z c #cc9a04",
"#0 c #846e4c",
"#1 c #f4e6d4",
"#2 c #ecd69c",
"#3 c #c49e54",
"#4 c #847e84",
"#5 c #fcde1c",
"#6 c #8c8e90",
"#7 c #f4ce04",
"#8 c #e4d294",
"a` c #f4de44",
"a. c #fcfee6",
"a# c #e4dac4",
"aa c #dcc268",
"ab c #f4ee88",
"ac c #f4ea74",
"ad c #c4a64e",
"ae c #ece6c4",
"af c #eceeec",
"ag c #f4ee96",
"ah c #c4cacc",
"ai c #fcf278",
"aj c #cca624",
"ak c #f4f6f7",
"al c #f4eea7",
"am c #fcfeb8",
"an c #fcd637",
"ao c #ccb67c",
"ap c #fcde39",
"aq c #fcfed9",
"ar c #e4ca84",
"as c #fcfe9a",
"at c #fcce14",
"au c #ccd2d4",
"av c None",
"aw c #ecdaa8",
"ax c #ece69c",
"ay c #d4b64c",
"az c #fcf6e6",
"aA c #f4eed4",
"aB c #ccae39",
"aC c #ccae6c",
"aD c #d4b654",
"aE c #c4a664",
"aF c #746a54",
"aG c #7c7a74",
"aH c #fcf26c",
"aI c #f4ea7c",
"aJ c #fce644",
"aK c #8c8674",
"aL c #fcf6a4",
"aM c #fcda1c",
"aN c #fcee64",
"aO c #fcf28c",
"aP c #f4da54",
"aQ c #ccb26c",
"aR c #ecdeb4",
"aS c #fce654",
"aT c #e4d6c4",
"aU c #fcfaac",
"aV c #fcfa8c",
"aW c #fce23c",
"aX c #fcfe7c",
"aY c #fcfacc",
"aZ c #fcd22c",
"a0 c #fcde54",
"a1 c #fcd21c",
"a2 c #eceaec",
"a3 c #f4ea9c",
"a4 c #c4c6cc",
"a5 c #cca224",
"a6 c #f4eaac",
"a7 c #c4aa6c",
"a8 c #fcfabc",
/* pixels */
"avavavavavavavavavavavavavavavavavavavavavavavavavavav.Javavavav",
"avavavavavavavavavavavavavavavavavavavav.W#DaCaC#A#A#AaE.3`Iavav",
"avavavavavavavavavavavavavavavavavavavav.m#Uaz`p.T`paz.Jaw#i.Oav",
"avavavavavavavavavavavavavavavavavavavav#Bazava.ava.a.av`B`H#Mav",
"avavavavavavavav.qaw.L#q`t#U.A`Z.`.U`Z#B#Dava.a.a.a.a.a.a.a7.l.J",
"avavavavavavavaA`4`t#q#2#2`u#PaR.q#P.qae`Ba.a.a.aqa.aq`Ba.a7aKak",
"avavavavavavav.q.Aavava.avava.ava.a.a.a.a.aqaqaqaqaqaqaqa.a7aK`8",
"avavavavavavav.qaaav.6aqaqaqaqaqa.a.aqaqaqaq.jaqaqaqaqaqa.a7#sak",
"avavavavavavav.W`EavaqaqaqaY`i#E.Iala6#O#Ia3`aa6aqaqaq.6aqa7#sak",
"avav.T#1`P.g#r.`#B`i#I.N#I`1`1ag.F.F.0.FaOaO.0.2`S.6.6aqaq.##sak",
"#1aC#D.U.`.U.AaaayaqaUam.Z.Z.Z`D.p.p.u.uaO`h`h.Balaq.6.6.6.##s`8",
"`0`Naea.a.a.a.#Eayaq.Z.Z.Z`D.p.u.u.u.SaO`hai`5`5`T.6.6a8.6.#.r`8",
"av.s.za..6`S.6`1.Q.6.Z.Z.pas.p.p.u.S.S`haiai`5ai`M#O.6a8.6.##xak",
"ava##Daq.6am.6`1.Q.6asas.p.p.paV.S.S#taiai`5`5.R.o`aama8.6.i#sak",
"av.J#.#E.6amamag.Qamas.paVaV`L.S#taiaiaiai.RaN.o.B#FaLamam.i#saf",
"avav`m`o.6aUam`G.Q.Z`LaVaV.S#tai#tai.R.R.o.o.o.o.oa0.2aUam.i.rak",
"avavaT.dam.Z.ZabaB.Z.S#t#taiai`5.RaNaN.o.o.VaSaS.8.8#m#O.Zad#xak",
"avav#zaEag.Z.ZabaB.paiaiai.R.RaN.o.o.oaSaS`v.8.8`X.8.y`T.Zad#x`8",
"av.Jav.s#o.ZasaI.XaVaN.R.oaN.o.o.oaS`v`v.8.4.K.K`X`Xan#m.Zad#x`8",
"avavav`CaBasaVac#T#t.o.o.o.oaSaS`v.8.4.Kapapap.f.fan`X#XaO`N#x`8",
"avavav#z#..S`L`M#T.RaSaSaS`v.8.4.Kapapapap.f.fanan.c.c#X.Bad#x`8",
"avavavav.e#a`L#Fa5`g`v.8.4.4aWapapap.f.t.7.7.7.c.c.f.faZ.k#d`fak",
"avavavav##.H`R`j`7aSap.4apap.fap.t.t.7.7.7.7.7.t.7#w`l#b#y`K`#.J",
"avavavav.E`y.V`j#HaJ.fap.t.f.t.7.7#`#`.taMat#w`l#W`F`K#x`Q`3`pav",
"avavavavav`z.y`j`W`O.7.t.7`V#`#`aM`b`Y`.#H`6``#j`2#S.G#J#zavavav",
"avavav.Jav#n#g`A#Z.ta1a1aMaM#`.x#L`d`k#0#Q`f.5aua2.Javavavavavav",
"avavavavava#a5#Y`W#5#``b.x#p.P#v#faG`f`#au`8avavavavavavavavavav",
"avavavavav#z#l#N#Z.x#p.w#vaF`U#e#k.Yakavavavavavavavavavavavavav",
"avavavavavavao#G`k#y.h.C#e`3#Jakavavavavavavavavavavavavavavavav",
"avavavavavav`8#c`f#Sah#Javavavavavavavavavavavavavavavavavavavav",
"avavavavavavav.Jafavavavavavavavavavavavavavavavavavavavavavavav",
"avavavavavavavavavavavavavavavavavavavavavavavavavavavavavavavav"
};
