/* XPM */
static char *option_xpm[] = {
/* width height num_colors chars_per_pixel */
"    32    32      256            2",
/* colors */
"`` c #4c4a5c",
"`. c #a4a6a4",
"`# c #7c7a74",
"`a c #d4d6d4",
"`b c #bcbebc",
"`c c #64626c",
"`d c #9496a4",
"`e c #eceef4",
"`f c #a4a6cc",
"`g c #cccac4",
"`h c #7c7aa4",
"`i c #646294",
"`j c #545674",
"`k c #e4e2e4",
"`l c #9492c4",
"`m c #b4b2d4",
"`n c #bcbedc",
"`o c #8486ac",
"`p c #cccae4",
"`q c #6c6e94",
"`r c #b4b2e4",
"`s c #4c4a74",
"`t c #6c6a6c",
"`u c #545684",
"`v c #d4d6ec",
"`w c #9c9ea4",
"`x c #b4b2b4",
"`y c #8c8a84",
"`z c #fcfaf4",
"`A c #eceae4",
"`B c #9c9ec4",
"`C c #c4c6dc",
"`D c #8482a4",
"`E c #bcbacc",
"`F c #8c8ec4",
"`G c #6c6a84",
"`H c #a4a6c4",
"`I c #dcdedc",
"`J c #c4c6c4",
"`K c #9c9ab4",
"`L c #f4f6f4",
"`M c #acaecc",
"`N c #d4d2cc",
"`O c #e4e2f4",
"`P c #bcbeec",
"`Q c #d4d2e4",
"`R c #74769c",
"`S c #54526c",
"`T c #7c7a9c",
"`U c #6c6a94",
"`V c #5c5e6c",
"`W c #8c8eac",
"`X c #545274",
"`Y c #5c5e8c",
"`Z c #4c4a6c",
"`0 c #acaeac",
"`1 c #dcdad4",
"`2 c #bcbecc",
"`3 c #9492b4",
"`4 c #f4f2ec",
"`5 c #acaacc",
"`6 c #7c7eb4",
"`7 c #5c5a6c",
"`8 c #9c9ac4",
".` c #b4b2dc",
".. c #bcbae4",
".# c #4c4a84",
".a c #a4a2d4",
".b c #acaaa4",
".c c #646284",
".d c #cccedc",
".e c #7c7ea4",
".f c #e4e6e4",
".g c #c4c2dc",
".h c #cccee4",
".i c #7472a4",
".j c #6c6a7c",
".k c #5c5a84",
".l c #dcdeec",
".m c #9c9eb4",
".n c #8c8a9c",
".o c #6c6e84",
".p c #9496b4",
".q c #4c4e64",
".r c #7c7e7c",
".s c #cccecc",
".t c #64669c",
".u c #9496c4",
".v c #b4b6cc",
".w c #8c8ab4",
".x c #6c6ea4",
".y c #b4b6e4",
".z c #4c4e74",
".A c #6c6e74",
".B c #bcbabc",
".C c None",
".D c #eceaf4",
".E c #a4a2c4",
".F c #8482b4",
".G c #bcbadc",
".H c #d4d2dc",
".I c #e4e6f4",
".J c #c4c2ec",
".K c #d4d2f4",
".L c #7476ac",
".M c #848294",
".N c #6c6aa4",
".O c #8c8ebc",
".P c #dcdae4",
".Q c #c4c2d4",
".R c #f4f2fc",
".S c #acaadc",
".T c #5c5a7c",
".U c #5c5a94",
".V c #4c4a64",
".W c #a4a6ac",
".X c #7c7a7c",
".Y c #d4d6e4",
".Z c #c4c2c4",
".0 c #646274",
".1 c #eceefc",
".2 c #a4a6dc",
".3 c #cccacc",
".4 c #7c7aac",
".5 c #64629c",
".6 c #54567c",
".7 c #e4e2ec",
".8 c #bcbee4",
"#` c #8486b4",
"#. c #a4a29c",
"## c #acaabc",
"#a c #a4a2bc",
"#b c #dcdaec",
"#c c #c4c6d4",
"#d c #acaab4",
"#e c #8c8e8c",
"#f c #64667c",
"#g c #8c8e94",
"#h c #b4b6b4",
"#i c #4c4e6c",
"#j c #b4b6dc",
"#k c #4c4e84",
"#l c #cccaec",
"#m c #6c6e9c",
"#n c #6c6a74",
"#o c #fcfafc",
"#p c #eceaec",
"#q c #9c9ecc",
"#r c #c4c6e4",
"#s c #8482ac",
"#t c #bcbad4",
"#u c #8c8ecc",
"#v c #6c6a8c",
"#w c #dcdee4",
"#x c #9c9abc",
"#y c #f4f6fc",
"#z c #acaed4",
"#A c #d4d2d4",
"#B c #e4e2fc",
"#C c #d4d2ec",
"#D c #7476a4",
"#E c #6c6a9c",
"#F c #8c8eb4",
"#G c #5c5e94",
"#H c #dcdadc",
"#I c #bcbed4",
"#J c #9492bc",
"#K c #f4f2f4",
"#L c #acaad4",
"#M c #5c5a74",
"#N c #9c9acc",
"#O c #bcbaec",
"#P c #a4a2dc",
"#Q c #7c7eac",
"#R c #e4e6ec",
"#S c #c4c2e4",
"#T c #ccceec",
"#U c #5c5a8c",
"#V c #dcdef4",
"#W c #6c6e8c",
"#X c #9496bc",
"#Y c #9496cc",
"#Z c #b4b6d4",
"#0 c #b4b6ec",
"#1 c #4c4e7c",
"#2 c #c4c2f4",
"#3 c #84829c",
"#4 c #000000",
"#5 c #000000",
"#6 c #000000",
"#7 c #000000",
"#8 c #000000",
"a` c #000000",
"a. c #000000",
"a# c #000000",
"aa c #000000",
"ab c #000000",
"ac c #000000",
"ad c #000000",
"ae c #000000",
"af c #000000",
"ag c #000000",
"ah c #000000",
"ai c #000000",
"aj c #000000",
"ak c #000000",
"al c #000000",
"am c #000000",
"an c #000000",
"ao c #000000",
"ap c #000000",
"aq c #000000",
"ar c #000000",
"as c #000000",
"at c #000000",
"au c #000000",
"av c #000000",
"aw c #000000",
"ax c #000000",
"ay c #000000",
"az c #000000",
"aA c #000000",
"aB c #000000",
"aC c #000000",
"aD c #000000",
"aE c #000000",
"aF c #000000",
"aG c #000000",
"aH c #000000",
"aI c #000000",
"aJ c #000000",
"aK c #000000",
"aL c #000000",
"aM c #000000",
"aN c #000000",
"aO c #000000",
"aP c #000000",
"aQ c #000000",
"aR c #000000",
"aS c #000000",
"aT c #000000",
"aU c #000000",
"aV c #000000",
"aW c #000000",
"aX c #000000",
"aY c #000000",
"aZ c #000000",
"a0 c #000000",
"a1 c #000000",
"a2 c #000000",
"a3 c #000000",
"a4 c #000000",
"a5 c #000000",
"a6 c #000000",
"a7 c #000000",
"a8 c #000000",
/* pixels */
".C.C.C.C.C.C.C.C.C.C#o#R.h.P.C.C.C.C.C#o#o.C.C.C.C.C.C.C.C.C.C.C",
".C.C.C.C.C.C.C.C.C.C`m#z#t.u.3.C.C.C.D.O#a.P.C.C.C.C.C.C.C.C.C.C",
".C.C.C.C.C.C.C.C.C#o`f`e.R.g`W`k.C.R#J#I#j`o.v`z.C.C.C.C.C.C.C.C",
".C.C.C.C.C.C.C.C.C#o`f.D.7.I.E.p#t#x#Z#b#V`m`U.Z.C.C.C.C.C.C.C.C",
".C.C.C.C#o`O#K.C.C.R`8.I.7`O.7`p#Z.g#b.h`v.E`G`0.C#o.C.C.C.C.C.C",
".C.C.C.C`m`5`f.G.g`f`n.D.I.l`v`v#b`v`v`Q`v`8`G`g.C.C.C.C.C.C.C.C",
".C.C.C`n#Z#o.D.h#Z.l.R.l.g.G`n.G.G`n`n#r#b#z#W##.Q`5`W#c.C.C.C.C",
".C.C#o`5.D`e.D`e.R`e`p`m`p`v.l.l#b`Q#r`n`n`Q#j`3#X.E`B`U`N.C.C.C",
".C.C#o.a#b.1.I.7.D.g.G.7`O.l#b`v.Y`v`Q#C.g`n.h`p#r#r#T`o.n`L.C.C",
".C.C.C`2#J#C.I.D.h#j.I.l.l.l`v#b`v.h.h.h.h#S.g#S.g`n`p.a`G.3.C.C",
".C#o#o#o##.O#V#R#j.7.l.7`v`f#N#P#2#B`Q`p`p#r.g.8.g`n`8#D`Y.b.C.C",
".C.C.C.C#c#J.D`p#r.7#b#b#Q.U.k#f`q.w#T.h`p#r.g.g#r.w.5.t#f.B.C.C",
".C.D`E`B`8`p.I`n`Q#b`O`M.#`V.r.b`x`w#F#r`p.g#r`n#r#`#U.0.X`1.C.C",
".l#X`M.h.7.7#b`n`v`v.I#x.z`y`k.C.C#o.Q`f`p.g.g.g#r.w`Z.X`I.C.C.C",
".d#x.7`O`v`v#b.g`Q`v.l`M.o.B.C.C#o.C.D#L#r.g.8#r`n#j.w`q.m`e.C.C",
".H#x.Y#b#b#b`v`n`Q`v`Q#C.i`x.C.C.C.C#T.G#r`n`C#r#t.G.8`m.i#3`4.C",
"#p`3.J.h.g#r#b#r#r`Q`Q#C.v#F.g.D`O#T...g.g`n`p.G.G#j`m.8.O.6`g.C",
".C#a#u.2.u.4.g`Q`n#C.h.h#C`n#z#z#j.G.g.8`n#S#r.G#Z.`#z`m.x.T.W#o",
".C#w.e`h.i#G#X`v#r`C`p`p#r.h`p`p.g#r`n`n.g`p`n`m#Q.a`r#2.4.V`0#o",
".C.C`1`w#g#W`3#C`p`C#r`p`C`C.g.g#S`n`n#S.h`n.G.w.t`F#Y#P.x`V.3.C",
".C.C#o#o`k`h.g.h`p#r`C#r`p#S#S`n`C#r`p`p`n#j.G#`#G`Z``.q`7#e#p.C",
".C.C.C.C#x#X#C#S`C`p#r`C.g`p`p`p`p#r.g.G#Z.``n`l`s`#`b`N.d.f.C.C",
".C.C.C#R`h#T.g`p#r`B.`.8.g`n`n`n`n`n#z#L#j`m#j`5`X.W.C.C.C.C.C.C",
".C.C.C#y`D.h`p`f#Q.N.a#0#O.G`n.G`m.4#D`l.y`m#L.8.L.M`4.C.C.C.C.C",
".C.C.C.C#a#s`n.t.x.t`U.4.S..#Z.8#F.i`6.F#O`P#z`f.i#i`1.C.C.C.C.C",
".C.C.C.C#K`T#m.x.k`7#n.j.x#r.G.G#m`u`X.6`Y#O#2.i.5#i`N.C#o.C.C.C",
".C.C.C#o.C`A.e#M.A#.`I`I`q.y`f#J.U#i.r`x`d.k#N.N.z`c`a.C.C.C.C.C",
".C.C.C.C.C.C`4.Z`N#y.C.C#s#N.L.t#k#n.s.C.C.B.6#i`t`0`L.C.C.C.C.C",
".C.C.C.C.C.C.C.C.C.C.C.C`K.N`6`i`Z#e`4.C.C.C`a.b.3#o.C.C.C.C.C.C",
".C.C.C.C.C.C.C.C.C.C.C.C.7.T`s`j#n`b#o.C#o.C.C.C.C.C.C.C.C.C.C.C",
".C.C.C.C.C.C.C.C.C.C.C.C.C#H`.`0.Z`e.C.C.C.C.C.C.C.C.C.C.C.C.C.C",
".C.C.C.C.C.C.C.C.C.C.C.C.C.C.C.C.C.C.C.C.C.C.C.C.C.C.C.C.C.C.C.C"
};
