/* XPM */
static char *save_32_xpm[] = {
/* width height num_colors chars_per_pixel */
"    32    32      256            2",
/* colors */
"`` c #042e9c",
"`. c #3c9adc",
"`# c #1466c4",
"`a c #a4a29c",
"`b c #646674",
"`c c #acd2f4",
"`d c #2c82cc",
"`e c #444a54",
"`f c #0c4aa4",
"`g c #3c6aac",
"`h c #dcd6cc",
"`i c #244a8c",
"`j c #1c7ad4",
"`k c #dceefc",
"`l c #849ab4",
"`m c #b4babc",
"`n c #5c82ac",
"`o c #2466ac",
"`p c #94bae4",
"`q c #1c5e9c",
"`r c #94a6c4",
"`s c #4c96dc",
"`t c #2c8edc",
"`u c #bcbab4",
"`v c #246eb4",
"`w c #045abc",
"`x c #dce2e4",
"`y c #7c8294",
"`z c #2c3e6c",
"`A c #949a9c",
"`B c #848e94",
"`C c #144674",
"`D c #c4c6c4",
"`E c #c4d6e4",
"`F c #f4eeec",
"`G c #3c86d4",
"`H c #1c5aac",
"`I c #b4aeac",
"`J c #6c7684",
"`K c #348acc",
"`L c #3c7ec4",
"`M c #8c8e8c",
"`N c #d4eafc",
"`O c #f4fafc",
"`P c #1c56ac",
"`Q c #246ebc",
"`R c #ece6e4",
"`S c #94a2b4",
"`T c #043e9c",
"`U c #d4dadc",
"`V c #1c6ec4",
"`W c #4c5264",
"`X c #0c56b4",
"`Y c #2c76bc",
"`Z c #2466bc",
"`0 c #145ab4",
"`1 c #0446a4",
"`2 c #3482cc",
"`3 c #dcdedc",
"`4 c #1c5284",
"`5 c #ccc6c4",
"`6 c #a4aaac",
"`7 c #3c92d4",
"`8 c #bcc2c4",
".` c #dceaf4",
".. c #9ca2a4",
".# c #d4d2cc",
".a c #1c62b4",
".b c #54769c",
".c c #2c6ebc",
".d c #0c3e9c",
".e c #1c66bc",
".f c #646e7c",
".g c #8ca2bc",
".h c #2c66b4",
".i c #949aa4",
".j c #7c92ac",
".k c #f4f6ec",
".l c #5c5e6c",
".m c #2c7ecc",
".n c #04369c",
".o c #4c9adc",
".p c #2c86dc",
".q c #2c4a8c",
".r c #8c9abc",
".s c #94c2ec",
".t c #2c5e8c",
".u c #94aecc",
".v c #e4e2dc",
".w c #7c8a9c",
".x c #747a84",
".y c #949694",
".z c #fcfaf4",
".A c #1452ac",
".B c #2c76cc",
".C c #1462bc",
".D c #4c7eb4",
".E c #aca6a4",
".F c #2c86cc",
".G c #144eac",
".H c #4c72ac",
".I c #dcdadc",
".J c #a4c6ec",
".K c #246aac",
".L c #9ca6b4",
".M c #348ed4",
".N c #c4beb4",
".O c #0c62bc",
".P c #9c9a9c",
".Q c #bccadc",
".R c #1c5eac",
".S c #b4b6b4",
".T c #2472bc",
".U c #043eac",
".V c #4c5a6c",
".W c #e4ded4",
".X c #cccecc",
".Y c #d4d6dc",
".Z c #4c76ac",
".0 c #1c6abc",
".1 c #6c6e84",
".2 c #8496ac",
".3 c #0c3a9c",
".4 c #e4e6ec",
".5 c #fcfef4",
".6 c #a4a6ac",
".7 c #b4d6f4",
".8 c #344e7c",
"#` c #0c4eac",
"#. c #748eac",
"## c #5c76ac",
"#a c #44567c",
"#b c #eceeec",
"#c c #2c5684",
"#d c #4472ac",
"#e c #1c62a4",
"#f c #acceec",
"#g c #2476c4",
"#h c #ccd2d4",
"#i c #24529c",
"#j c #5c7ea4",
"#k c #2462ac",
"#l c #848a8c",
"#m c #245aa4",
"#n c #84868c",
"#o c #7c7e7c",
"#p c #0c5abc",
"#q c #d4daec",
"#r c #545664",
"#s c #9cc2ec",
"#t c #2c6eac",
"#u c #447ebc",
"#v c #acaaa4",
"#w c #c4c2bc",
"#x c #e4eaec",
"#y c #fcf6f4",
"#z c #9cbae4",
"#A c #348adc",
"#B c #94a2c4",
"#C c #0c46a4",
"#D c #545a6c",
"#E c #a4a6a4",
"#F c #3c6eb4",
"#G c #dcdad4",
"#H c #849ebc",
"#I c #94aabc",
"#J c #bcbebc",
"#K c #84929c",
"#L c #c4cacc",
"#M c #f4f2ec",
"#N c #b4b2ac",
"#O c #8c9294",
"#P c #eceae4",
"#Q c #0442a4",
"#R c #d4dee4",
"#S c #1c72c9",
"#T c #2c7ac4",
"#U c #246abd",
"#V c #145eb6",
"#W c #3486d0",
"#X c #1c568c",
"#Y c #cccacb",
"#Z c #3c96dc",
"#0 c #d4d6d4",
"#1 c #547aa4",
"#2 c #2c72c2",
"#3 c #0c42a4",
"#4 c #5c6274",
"#5 c #043a9f",
"#6 c #4c9ee0",
"#7 c #2c4e90",
"#8 c #8c9eb9",
"a` c #e4e6e4",
"a. c #1456ad",
"a# c #3492d4",
"aa c #9c9e9b",
"ab c #4c7ab4",
"ac c #6c7284",
"ad c #146ac4",
"ae c #646a74",
"af c #acd6f4",
"ag c #2c6ab4",
"ah c #7c96ac",
"ai c #2c628c",
"aj c #2c7acc",
"ak c #9caab4",
"al c #0c5ebc",
"am c #9cc6ec",
"an c #3c9ae4",
"ao c #2c82d4",
"ap c #0c4aac",
"aq c #dcd6d4",
"ar c #244a94",
"as c #2466b4",
"at c #bcbabc",
"au c #c4c6cc",
"av c #1c5ab4",
"aw c #348ad4",
"ax c #8c8e94",
"ay c #246ec4",
"az c #94a2bc",
"aA c #043ea4",
"aB c #0c56bc",
"aC c #2c76c4",
"aD c #dcdee4",
"aE c #3c92dc",
"aF c #d4d2d4",
"aG c #1c62bc",
"aH c #0c3ea4",
"aI c #1c66c4",
"aJ c #949aac",
"aK c #f4f6f4",
"aL c #e4e2e4",
"aM c #94969c",
"aN c #fcfafc",
"aO c #1462c4",
"aP c #2c86d4",
"aQ c #246ab4",
"aR c #348edc",
"aS c #1c5eb4",
"aT c #2472c4",
"aU c #e4dedc",
"aV c #1c6ac4",
"aW c #8496b4",
"aX c None",
"aY c #eceef4",
"aZ c #accef4",
"a0 c #2476cc",
"a1 c #ccd2dc",
"a2 c #848a94",
"a3 c #2c6eb4",
"a4 c #acaaac",
"a5 c #c4c2c4",
"a6 c #f4f2f4",
"a7 c #b4b2b4",
"a8 c #eceaec",
/* pixels */
"aXaX.`am#s.s`EaDaD#RaD#R`U`U`U`U.Ya1.Ya1#ha1#h#h.Q`p#z#z#qaXaXaX",
"aXaZaO.UaA#5#Ha``x.4#xa8#x#x.4aDaD`3.Y#h#h#Yau`D#.`w.O.O#V.u.zaX",
"`kaT``#5`T.n`r.zaNaXaX#yaN#yaKa6#M#ba8#x`Ra`aL.v`lay#2#2#S#m#JaX",
".7`w.n`T.d.n#B.zaKaX#b`D`Dau`5#L`D#Y#L`5#0a``3#G`l`V`4`C`Y`0`y#y",
"af`X.n`TaA#5.g.zaNaXa6#0.Iaq`Uaq#0#0aFaF.IaL`3`3.2`V`q`4aja.aca6",
".7`w#5#3#Q#5az.zaKaNaXaXaXaXaNaNaKa6#ba8a`aL`3.I.2`V#2aC.m.Aac#M",
".7`X`T`T#3`T.g#yaKaNa6.Y.I.I#0.Yaq#0#0aF.I`x`3#G`l`V#2#g.m.Gac#M",
"af#paA#C#CaA.gaKa6aNa8#w`D`D`5`Dau#Y#Y`D#0.v.I.I.2`V#g#2`d.Gac#M",
"af#p#3#C#C#Q#8a6a6a6aY#ba8a8a8#x`RaL`xaU`3aD`3#G.2`VaCaC`d.G.1#M",
".7#p#C`fap#Q#8`F#b#b#ba`a`a`a`aL`x`3`3.I`3`3.Iaqahay#gaC`d.Gac#M",
"`cal#C`f.G`1.r#ba8aYaLa5`D`D`5`D`5`D#Y`DaF`3aq#0aW#SaCaC`d.Aac#M",
"`cal.G`f.G`1`l#Pa`a8a`#0.Iaq.Y#0.Y#0aFaF#0.I#0#0.jaTaCaj`d.A.1#M",
"`c#Vap.G.Aap`l#P.4`Ra8#ba8#ba8#x`Ra`aLaL`3.I`U`h.jaT#g#T#W.Gac#M",
"`c.O.G.A#`#``l`haFaF#0aFaFaF.#aF.X.X.X#Y`D`Da5.N.j#gajaj.F.Aac#M",
"`c.C.Aa.a.a.ag.H#d#d#d.Z#dab#dab#dababababab.D.D#u#g#Taj#W.A.1#M",
"`c.Oa.a.a.`0a.`X.A#p`0#p#V#V.C.C.e`#.ead`V`V#SaT#gaj.m.m#W.Aac#M",
"`c`#a.`0av`0avavaSaSaS.aaG.eas.e#U#U`Q`Q.T#2#gaC#g#T.m.m.Fa..1#M",
"aZ`#`0av`0aS#VaS#V.a.aaG.eas.e#U.0#U`Q`QaT.TaC#gaj#T.m.maw.Aac#M",
"`c`#avaS#VaSaS#VaGaGaGaG.e.e.0#UayayaTa0.B#g#T.m.m`d.m`d`K.Aac#M",
"`c`#aS.CaSaGaG#k#k#k`oasagagag`o`o`o`o#e`o`Q`Q`Q#2.T.m`2.Ma..1#M",
"#f`#.a.a.aaG#k.ia5`ma7#v...y#lax#OaMaMaa.y#c`Zas`Zas`G.F.M`P.1#M",
"`c`#.e.e.e.e.R.S.X#8.L.g#K`B.E.Sa5.#`3aK`R.t.p`d`2aP`s#W.Ma..1#M",
"aZadas.e`Z.0#k`6akal.e.0`##1#N#Jau#0`3a6aq.tao.m`d`2`s.FaEa..1#M",
"#fad#U.0#UaVas...L.0ay.T`V#j.N#Y#0aLa8aXaU.tao`2`d#W`s#WaE`P.1#M",
"#faV#U.0`Qayas`AaJaV.T#2#S#j#Y`UaL#baNaX.#.t#A`d`2.F.o#Wa#`0.1#M",
".J.O#2ay`QaTaQ#O#K`V#2aT#S`n`haLaYaNaKaY`5.t#A`d#Waw.oaw#Z`H.1.k",
".``L.OaCaTaTaQ#na2#Sa0aj`j`n.Wa6aNaKa`aL.N.t#A#W#Waw.oaw`.av.1#M",
"aX.I#F.O#T.B`v#la2.Ka3#taQ.b#PaXa6aL#0aF`IaiaR`K.M.M.o#Z`.`P.x#M",
"aXaX.I`gala0aQ`Bata4`u.N`D.#aXaX#baL#0aF#v.t`tao#WaP#6#A.e.8.PaK",
"aXaXaX.I###i`i.Vae.f.1ac`Jac`b#4.l#D#r`W`e`zar`i.qar#7#7#a#oaqaX",
"aXaXaXaX#P`u#v.E.P.Paa.P.P.P.Paaaaaaaaaaaa`a.Ea4#v#v#v#v`u`3aXaX",
"aXaXaXaXaXaXaXaXaXaXaXaXaXaXaXaXaXaXaXaXaXaXaXaXaXaXaXaXaXaXaXaX"
};
