/* XPM */
static char *updatedb_xpm[] = {
/* width height num_colors chars_per_pixel */
"    32    32      256            2",
/* colors */
"`` c #243a5c",
"`. c #4c9ee4",
"`# c #949290",
"`a c #34729c",
"`b c #cc9e5c",
"`c c #6c7a8c",
"`d c #4486c4",
"`e c #fcea04",
"`f c #84bedc",
"`g c #849ec4",
"`h c #2c5674",
"`i c #4c92d4",
"`j c #c4d2dc",
"`k c #4472b4",
"`l c #eceae7",
"`m c #bcb674",
"`n c #54aee9",
"`o c #3c7eb4",
"`p c #648abc",
"`q c #d4c67c",
"`r c #244a67",
"`s c #5486ca",
"`t c #7cb2d4",
"`u c #5c626c",
"`v c #5c92d9",
"`w c #acaeb4",
"`x c #54a6e6",
"`y c #2c6289",
"`z c #f4e2ac",
"`A c #f4f6f4",
"`B c #4c7ab9",
"`C c #c4c2bc",
"`D c #4c92dc",
"`E c #6c8294",
"`F c #2c4e7c",
"`G c #546e8c",
"`H c #949ea4",
"`I c #dcdedc",
"`J c #548ec8",
"`K c #8cd2f6",
"`L c #f4eee8",
"`M c #4c7acc",
"`N c #d4d2c8",
"`O c #bcbab4",
"`P c #5c9ed7",
"`Q c #cc965c",
"`R c #8c8e8c",
"`S c #344a74",
"`T c #3c6294",
"`U c #4c86cf",
"`V c #34568c",
"`W c #a4aeb4",
"`X c #acb6c4",
"`Y c #5ca6e0",
"`Z c #1c4264",
"`0 c #4c9ad4",
"`1 c #446ecc",
"`2 c #ecf2f0",
"`3 c #5486d4",
"`4 c #d4d6dc",
"`5 c #b49664",
"`6 c #fcc204",
"`7 c #64b6ec",
"`8 c #2c526e",
".` c #4c9ae4",
".. c #7c8288",
".# c #94a2c4",
".a c #9cd2f4",
".b c #7c9ac4",
".c c #3c76a4",
".d c #7c7e87",
".e c #5cb6f4",
".f c #84b6d8",
".g c #e4dedc",
".h c #4c7aa8",
".i c #4c82cc",
".j c #345e94",
".k c #8c96ac",
".l c #549ed4",
".m c #4c8ec4",
".n c #7ca6cc",
".o c #5492c4",
".p c #e4eaf4",
".q c #5caeea",
".r c #447ad4",
".s c #2c4a6f",
".t c #5c9ae1",
".u c #acb6bc",
".v c #346a98",
".w c none",
".x c #4c82c4",
".y c #c4cad4",
".z c #5ca6ec",
".A c #2c466e",
".B c #7c869c",
".C c #e4e6e7",
".D c #ac9a6c",
".E c #747e88",
".F c #4c86b8",
".G c #8cc6e4",
".H c #4c72b8",
".I c #4482bc",
".J c #5c8acc",
".K c #bcc6cf",
".L c #5492de",
".M c #548ed9",
".N c #dcd6d4",
".O c #5c9ee4",
".P c #3c6a94",
".Q c #84827c",
".R c #a4aab4",
".S c #8496bd",
".T c #9c9694",
".U c #446e9c",
".V c #fca604",
".W c #fcf204",
".X c #bcbe74",
".Y c #447ab4",
".Z c #f4cea4",
".0 c #548ac8",
".1 c #5c96d9",
".2 c #b4aeac",
".3 c #54aae7",
".4 c #2c6694",
".5 c #fcf6f4",
".6 c #4c7ac4",
".7 c #345280",
".8 c #4c72ac",
"#` c #94d2f4",
"#. c #fc9a04",
"## c #bcae6c",
"#a c #6496dc",
"#b c #9caecc",
"#c c #94bef4",
"#d c #e4ca94",
"#e c #f4ca04",
"#f c #546a84",
"#g c #c4925c",
"#h c #ccc274",
"#i c #a49e9c",
"#j c #7caeec",
"#k c #8cbaec",
"#l c #ccdae4",
"#m c #4c76ce",
"#n c #a4b6d4",
"#o c #4c8edc",
"#p c #345684",
"#q c #3c5a9c",
"#r c #9ca2b4",
"#s c #6c92cc",
"#t c #547694",
"#u c #9cdafc",
"#v c #345274",
"#w c #3c5e8f",
"#x c #5c6a74",
"#y c #2c3a5c",
"#z c #8cc2e4",
"#A c #547ecc",
"#B c #244264",
"#C c #5c86d4",
"#D c #dcdae0",
"#E c #4476ac",
"#F c #547eac",
"#G c #eceef5",
"#H c #6c769c",
"#I c #8ca2c4",
"#J c #54b2f4",
"#K c #dce2ec",
"#L c #f4f2f4",
"#M c #d4d4d4",
"#N c #3c65a4",
"#O c #acbad4",
"#P c #4c72cc",
"#Q c #e4e2ec",
"#R c #54a0e4",
"#S c #84a8cc",
"#T c #5493d4",
"#U c #4c86c4",
"#V c #4c76c4",
"#W c #4472ac",
"#X c #447ec4",
"#Y c #fccb04",
"#Z c #3c72a4",
"#0 c #9c9e9c",
"#1 c #549ad2",
"#2 c #549ae1",
"#3 c #5482d1",
"#4 c #ece6e4",
"#5 c #c4c6cc",
"#6 c #5c8edc",
"#7 c #ccd2dc",
"#8 c #748294",
"a` c #c4bab4",
"a. c #4c86dc",
"a# c #ecf2fc",
"aa c #b4b6bc",
"ab c #5482c4",
"ac c #747e94",
"ad c #34528c",
"ae c #84aeec",
"af c #3c5e9c",
"ag c #949694",
"ah c #eceeec",
"ai c #2c668c",
"aj c #4c7eb4",
"ak c #c4c6c4",
"al c #4c96e4",
"am c #f4f2ec",
"an c #4c7ed2",
"ao c #5ca2dc",
"ap c #3c669c",
"aq c #acbac7",
"ar c #5caae1",
"as c #548ad5",
"at c #d4dae4",
"au c #7c8684",
"av c #94a6bc",
"aw c #9cd6f8",
"ax c #84badc",
"ay c #e4e2e4",
"az c #5496cc",
"aA c #5cb2ec",
"aB c #2c4e6e",
"aC c #4c8abc",
"aD c #4c76b4",
"aE c #5496dc",
"aF c #848684",
"aG c #849ac0",
"aH c #fcfaf7",
"aI c #4c76a4",
"aJ c #94d6fc",
"aK c #2c3e64",
"aL c #244667",
"aM c #4ca2e4",
"aN c #fcee04",
"aO c #2c5a74",
"aP c #4c96d4",
"aQ c #bcba74",
"aR c #d4ca7c",
"aS c #acb2b4",
"aT c #cc9a5c",
"aU c #344e74",
"aV c #345a8c",
"aW c #8c9aac",
"aX c #54a2d4",
"aY c #7caacc",
"aZ c #5caaec",
"a0 c #8ccae4",
"a1 c #5ca2e4",
"a2 c #fcaa04",
"a3 c #fcf604",
"a4 c #447eb4",
"a5 c #b4b2ac",
"a6 c #c4965c",
"a7 c #9ca6b4",
"a8 c #447aac",
/* pixels */
".w.w.w.w.w.w.w.w.w.w.w.w.w.w.w.w.w.w.w.w.w.w.w.w.w.w.w.w.w.w.w.w",
".w.w.w.w.w.w.w#L#Q#l#7`j#7at.C#L.w.w.w.w.w.w.w.w.w.w.w.w.w.w.w.w",
".w.w.w.w.C#n#SaY.f`f#za0#zax`t.n#I#O`l.w.w.w.w.w.w.w.w.w.w.w.w.w",
".w.waH#b#s#z.a#uaJ`K`K`K`K`Kaw#uaw.f`p#OaH.w.w.w.w.w.w.w.w.w.w.w",
".w.w#n#m#c#j`v#o#oal`.aM.`al#o.M.1#kae.H`XaH.w.w.w.w.w.w.w.w.w.w",
".w.waG#3#3anas.M#2#R`x.3`x#RaE.Ma.an#Can.B`L.w.w.w.w.w.w.w.w.w.w",
".waH.S.6.0.1#2.t#R`Y.qaAaZ`x#R.t#2`v`s.6ac`l.w.w.w.w.w.w.w.w.w.w",
".w.w.S.r#A`s.o#1`Paoarar`Yao.laz#T`s#A#V#8`l.w.w.w.w.w.w.w.w.w.w",
".waHaG`M#3.i.Mal#RaM.3`n.3#R#R.L`U#3#3an#8#4.w.w.w.w.w.w.w.w.w.w",
".w.wav`3#6`3.MaEaM.3`n#J`naM`.aEas`3`vab..ah.w.w.w.w.w.w.w.w.w.w",
"aH.w.R`V`s.1.Oa1.z.3#J#J#J.q.za1.t.1.YaK#0.w.w.w.w.w.w.w.w.w.w.w",
".w.w`g.j`S`F.Pa4.o.larar`Y#1.m#E.j.A``.7aW.5.w.w.w.w.w.w.w.w.w.w",
".w.w.S`M`Bap#p.saL`r`r`r`r`Z#BaLaB`TaD`Mac`l.w.w.w.w.w.w.w.w.w.w",
".waH.S#P#A`s`U`d`o#Z`a`a`a.c`oaj`U.i#A#Vac`l.w.w.w.w.w.w.w.w.w.w",
".w.w.S`M#A.i`3as#oaP`0`0aPaP`J`Uas#3#A`M#8`l.w.w.w.w.w.w.w.w.w.w",
".waH.#`U#6as`U.MaE.l`x.3#R#R.L.Mas`U`v#3.E`l.w.w.w.w.w.w.w.w.w.w",
"aH.w#r.j`J.t.t.t.O.zaZ.qara1.O.t.t.t`s.A`#.w.w.w.w.w.w.w.w.w.w.w",
".w.w`gad`S#w#E`J#1`Y.qaA.q`Yaz.F.U`F``.AaW.5.w.w.w.w.w.w.w.w.w.w",
".w.w.S`MaD.jaB`r.s`r`h`8`r`raL#BaLaV.8.6#8`L.w.w.w.w.w.w.w.w.w.w",
".w.w.S#Van`U.x#X#Z.vaiai.v.v#Za4#X`M.r`1#H`4a##Ga##L#G`2`L`2#L.w",
".waHaG#m#A#3`3`UaPaP`0`0aPaP#T`UaW.X`m`maQ#haR`q`q#7#M`4#7`4.K#M",
".w.w#I`s.M`3as.MaE.O`xaZ`x#R.La.##.W.WaN.W.WaNaN`e`z`2am`2`A#MaS",
".w.w.kaf.o.t.t.1.O#RaZ`n`Ya1`P`D.D#Y#Y#Y#Y#Y#Y#Y`6#dat#M#M#Daa.u",
".w.w.SadaU`T.Y`J.laraA`7.q`Y`P`d`5.V.V.V.Va2.Va2#..Z.pay.C`l`Caa",
".waH.S#X#WaVaB.s`r`8aOaO`h`raL#B`#`b`QaTaT`Q`Q#g`Qa`.Kak.K.y`WaS",
".w.w.S#P#A#3.x.Y#Z.v`y`y`y.v#Z.Y`k#N#Naf#fa7aq.u`XaS`w`waS.2`way",
".waHaG`M#3.ias.MaE#2#R`x#R#2.L.Mas#3#3#A..am.w.w.w.w.w.w.w.w.w.w",
".w.wav.i`v.Mas.MaE#R`xaZ`x#2.L.Mas.M.1.6.dah.w.w.w.w.w.w.w.w.w.w",
".w.w.N`Eab#T.t.Oa1aZ.qaA.qaZa1.O.t.MaI`ua5aH.w.w.w.w.w.w.w.w.w.w",
".w.waH.Nag`c#tajaCaz.l.l#1.o.F.h`G#x.Q`O`A.w.w.w.w.w.w.w.w.w.w.w",
".w.w.w.w`A#D`O#i`R.....E...daF.T.2`N#G.w.w.w.w.w.w.w.w.w.w.w.w.w",
".w.w.w.w.w.w.w.w#L#4.g`I.g.Cah.w.w.w.w.w.w.w.w.w.w.w.w.w.w.w.w.w"
};
