/* XPM */
static char *usermanual_xpm[] = {
/* width height num_colors chars_per_pixel */
"    32    32      256            2",
/* colors */
"`` c #3c362c",
"`. c #a49e4c",
"`# c #d4d27c",
"`a c #bcba54",
"`b c #646a5c",
"`c c #848244",
"`d c #b4cad4",
"`e c #d4ce7c",
"`f c #8ca2ac",
"`g c #646a64",
"`h c #ccc664",
"`i c #b4ae54",
"`j c #64767c",
"`k c #eceae4",
"`l c #ccc264",
"`m c #7c8284",
"`n c #c4be6c",
"`o c #4c5254",
"`p c #c4dae4",
"`q c #c4c25c",
"`r c #848e94",
"`s c #aca654",
"`t c #747274",
"`u c #bcb654",
"`v c #747674",
"`w c #c4ba54",
"`x c #6c7264",
"`y c #c4bebc",
"`z c #d4ce74",
"`A c #dcdadc",
"`B c #4c4e4c",
"`C c #7c7a34",
"`D c #8c8a4c",
"`E c #a4a29c",
"`F c #d4ca74",
"`G c #5c5e5c",
"`H c #b4aa5c",
"`I c #7c7e7c",
"`J c #ccc6c4",
"`K c #e4da84",
"`L c #646e7c",
"`M c #ccc674",
"`N c #bcb254",
"`O c #fcfafc",
"`P c #8c8a8c",
"`Q c #84969c",
"`R c #aca664",
"`S c #c4ba64",
"`T c #7c7a44",
"`U c #acaeac",
"`V c #3c423c",
"`W c #8c8644",
"`X c #ccca8c",
"`Y c #6c6e64",
"`Z c #848284",
"`0 c #545a5c",
"`1 c #8c8e8c",
"`2 c #acaa54",
"`3 c #bcb664",
"`4 c #7c7a7c",
"`5 c #e4e2e4",
"`6 c #aca254",
"`7 c #d4d294",
"`8 c #bcba64",
".` c #ccca6c",
".. c #b4b25c",
".# c #6c7a7c",
".a c #ecf2f4",
".b c #ccc274",
".c c #c4c26c",
".d c #54564c",
".e c #cce6f4",
".f c #84929c",
".g c #c4be5c",
".h c #64727c",
".i c #c4c2bc",
".j c #847a3c",
".k c #cccac4",
".l c #b4b6b4",
".m c #d4ce8c",
".n c #848684",
".o c #3c3a34",
".p c #a4a254",
".q c #dcd67c",
".r c #bcba5c",
".s c #848644",
".t c #646e64",
".u c #ccc66c",
".v c #b4ae5c",
".w c #ccc26c",
".x c #4c565c",
".y c #d4d2d4",
".z c #c4c264",
".A c #848e9c",
".B c #aca65c",
".C c #bcb65c",
".D c #747a84",
".E c #c4ba5c",
".F c #dcdedc",
".G c #4c4e54",
".H c #948e54",
".I c #acaaac",
".J c #646664",
".K c #7c7e84",
".L c #e4de84",
".M c #ccca74",
".N c #bcb25c",
".O c None",
".P c #c4be64",
".Q c #847e4c",
".R c #a4b6bc",
".S c #443e34",
".T c #8c864c",
".U c #6c6e6c",
".V c #acaa5c",
".W c #bcb66c",
".X c #7c7a84",
".Y c #e4e6e4",
".Z c #6c7a84",
".0 c #f4f2f4",
".1 c #c4c274",
".2 c #6c727c",
".3 c #c4c2c4",
".4 c #847e3c",
".5 c #cccacc",
".6 c #d4ce94",
".7 c #84868c",
".8 c #000000",
"#` c #000000",
"#. c #000000",
"## c #000000",
"#a c #000000",
"#b c #000000",
"#c c #000000",
"#d c #000000",
"#e c #000000",
"#f c #000000",
"#g c #000000",
"#h c #000000",
"#i c #000000",
"#j c #000000",
"#k c #000000",
"#l c #000000",
"#m c #000000",
"#n c #000000",
"#o c #000000",
"#p c #000000",
"#q c #000000",
"#r c #000000",
"#s c #000000",
"#t c #000000",
"#u c #000000",
"#v c #000000",
"#w c #000000",
"#x c #000000",
"#y c #000000",
"#z c #000000",
"#A c #000000",
"#B c #000000",
"#C c #000000",
"#D c #000000",
"#E c #000000",
"#F c #000000",
"#G c #000000",
"#H c #000000",
"#I c #000000",
"#J c #000000",
"#K c #000000",
"#L c #000000",
"#M c #000000",
"#N c #000000",
"#O c #000000",
"#P c #000000",
"#Q c #000000",
"#R c #000000",
"#S c #000000",
"#T c #000000",
"#U c #000000",
"#V c #000000",
"#W c #000000",
"#X c #000000",
"#Y c #000000",
"#Z c #000000",
"#0 c #000000",
"#1 c #000000",
"#2 c #000000",
"#3 c #000000",
"#4 c #000000",
"#5 c #000000",
"#6 c #000000",
"#7 c #000000",
"#8 c #000000",
"a` c #000000",
"a. c #000000",
"a# c #000000",
"aa c #000000",
"ab c #000000",
"ac c #000000",
"ad c #000000",
"ae c #000000",
"af c #000000",
"ag c #000000",
"ah c #000000",
"ai c #000000",
"aj c #000000",
"ak c #000000",
"al c #000000",
"am c #000000",
"an c #000000",
"ao c #000000",
"ap c #000000",
"aq c #000000",
"ar c #000000",
"as c #000000",
"at c #000000",
"au c #000000",
"av c #000000",
"aw c #000000",
"ax c #000000",
"ay c #000000",
"az c #000000",
"aA c #000000",
"aB c #000000",
"aC c #000000",
"aD c #000000",
"aE c #000000",
"aF c #000000",
"aG c #000000",
"aH c #000000",
"aI c #000000",
"aJ c #000000",
"aK c #000000",
"aL c #000000",
"aM c #000000",
"aN c #000000",
"aO c #000000",
"aP c #000000",
"aQ c #000000",
"aR c #000000",
"aS c #000000",
"aT c #000000",
"aU c #000000",
"aV c #000000",
"aW c #000000",
"aX c #000000",
"aY c #000000",
"aZ c #000000",
"a0 c #000000",
"a1 c #000000",
"a2 c #000000",
"a3 c #000000",
"a4 c #000000",
"a5 c #000000",
"a6 c #000000",
"a7 c #000000",
"a8 c #000000",
/* pixels */
".O.O.O.O.O.O.O`O`O`O`O`O`O`O`O`O`O`O`O`O`O`O`O`O`O`O.O.O.O.O.O.O",
".O.O.O.O.O.l`G`4`v`v`v`v`v`v`v`v`v`v`v`v`v`v`v`v`v.U`P.O.O.O.O.O",
".O.O.O`O.O`P.Q`7`X`7.6`7.6`7.6`7.6`7.6`7.6`7.6`7.6`e.S.I.O.O.O.O",
".O.O.O.O.O.7`C`H`i.g`u`w`a`w`a`a`w`a`a`w`a`w`a`w`a.C.d.D`k.O.O.O",
".O.O.O.O.O.X.4..`N.g.P.g.P.P.P.P.P.P.P.P.P.P.E`S.P`N`x.h.5.O.O.O",
".O.O.O`O.O.X.j.....g.E.g.C.N.C`N.C.N`u.N.N.r.g.r.g`u`b`L.3.O.O.O",
".O.O.O.O.O.K.4`i`N.P.r.g`..p`6.p`6.p`6.p`.`2.P.g.P`N.t.h.i.O.O.O",
".O.O.O.O.O.K.4.....g.P.P.p.C.C.C.C`u.C.r`i`2.z.E.P`u`b`L.i.O.O.O",
".O.O.O.O.O.K.4.N.N`q.P.g`6.C.C.C.C.C.C.C.v`2`l.E.P`u`g.h.i.O.O.O",
".O.O.O.O.O`I.4...C.P.P.z`..v`i.v`i.V.v.v`s`s`l`8.z`u`Y`L.i.O.O.O",
".O.O.O.O.O.K.4.C`3`l.P`l...V`H`2.v.V.v`H`2`3.z.z`l.C`Y.h.i.O.O.O",
".O.O.O.O.O.K.Q.C`3`h.z.z`l`h.u`h.u`h`h`h.u`h`l.z.w.r`Y`L.i.O.O.O",
".O.O.O.O.O`I`c.r`3.u`l.w.c`l.c.z.c`h.c.w.z.w.z.w`h.E.t`L.i.O.O.O",
".O.O.O.O.O.K`W`3`8.u.c.u.u`h.u.u.u.w.u.z.u.u.u.c.u.g.t.h.i.O.O.O",
".O.O.O.O.O.X`c`S`S.u.u.u.w.u.u.u.u.u.u.u.u.u.u.u.u.g`Y.h.i.O.O.O",
".O.O.O.O.O.K`W`8`S.M.u.`.`.u.M.u.u.`.u.`.M.u.u.u.M.P`Y.h.i.O.O.O",
".O.O.O.O.O.X`W`n`n`z.M`F.M`F`F.`.M`F.M.M`F.``F.M`F.z`Y`L.3.O.O.O",
".O.O.O.O.O.X.T`8.1`z.M`F.``F.M`F.M`F.M`F`F.M`F.``F`l`Y.h.i.O.O.O",
".O.O.O.O.O.K.T.c`n`z`F`z`z`F`z`z`F`z`z`F.M`z`z`F`z.c`Y.h.3.O.O.O",
".O.O.O.O.O`4`D.1.1`#`z.M`e`F.M`e`z.M`e`z`z`z`e.M`e.u`Y.h.i.O.O.O",
".O.O.O.O.O.X`D.b.u`#`e`e`e`#`#`#`z`#`e`e`#`e`#`z`#.u`x.h.3.O.O.O",
".O.O.O.O.O`4`D.b.1.q`#`#`e`#`e.q`e`e`#`#`#`z`#`e.q`M`Y.h.i.O.O.O",
".O.O.O.O.O.K`D.1.b`#`e`e.q`e`e`e`#`e`e`z`#`e`#`e`e`M`x.h.3.O.O.O",
".O.O.O.O.O.X.H`#`#.L`K.q`K.L.q.L`K`K.L`K`K`K`K`K.L`#`x.2.i.O.O.O",
".O.O.O.O.O.K`T.W`R`R`R.V`R`R`R`R`R`R.p`R`R`R`R.p`R.B`b.2.3.O.O.O",
".O.O.O.O.O`Z```V``.o.o.o.o`V.o.o.o`V.o`V.o.o`V.o`V.o`m.#`y.O.O.O",
".O.O.O`O.O`4.x.f.A.f.f.f.A.A.f.f.A.A.f`r.f.A.f`r.A`f`p.Z.3.O.O.O",
".O.O.O.O.O`E`0.R`d`d`d`d`d`d`d`d`d`d`d`d`d`d`d`d`d`d.e.#`y.O.O.O",
".O.O.O.O.O`A.J.G.G.G`o`o`o`o`o`o`o`o`o`o`o`o.G`o.G.G`o.G.y.O.O.O",
".O.O.O.O.O.0.5.7`v.2`x.2.2`x.2`x.2`t`x.2`t`x.2`t`x`v`4`U.a.O.O.O",
".O.O.O.O.O.O.0.Y.F`A`A`A`A`A`A`A`A`A`A`A`A.F`A.F`A`A.F.0`O.O.O.O",
".O.O.O.O.O.O.O.O.O`O.O.O.O.O.O.O.O.O.O.O.O.O.O.O.O.O`O.O.O.O.O.O"
};
