/* XPM */
static char *windowsclose_xpm[] = {
/* width height num_colors chars_per_pixel */
"    32    32      256            2",
/* colors */
"`` c #0486ec",
"`. c #0492dc",
"`# c #849ac4",
"`a c #9c160c",
"`b c #8cdefc",
"`c c #ac5e6c",
"`d c #cccac4",
"`e c #dceaec",
"`f c #d41a04",
"`g c #cc564c",
"`h c #44a2d4",
"`i c #cc3a14",
"`j c #cc7a7c",
"`k c #fccec4",
"`l c #e4f6fc",
"`m c #e43614",
"`n c #ccdaec",
"`o c #f48e7c",
"`p c #ec5624",
"`q c #1caafc",
"`r c #94362c",
"`s c #f4eaec",
"`t c #5cbefc",
"`u c #f4662c",
"`v c #746a6c",
"`w c #1c92dc",
"`x c #accafc",
"`y c #84baec",
"`z c #ccd2fc",
"`A c #74c6fc",
"`B c #bcdef4",
"`C c #c44644",
"`D c #e44614",
"`E c #049afc",
"`F c #b41a04",
"`G c #fc7234",
"`H c #247eac",
"`I c #dcdedc",
"`J c #f4eefc",
"`K c #74b6ec",
"`L c #d4c6bc",
"`M c #f45a24",
"`N c #bcd6e4",
"`O c #fc8654",
"`P c #dc2e04",
"`Q c #d43a14",
"`R c #f4f6f4",
"`S c #b42604",
"`T c #dccabc",
"`U c #e4f2fc",
"`V c #f46e34",
"`W c #bcb6b4",
"`X c #dcdafc",
"`Y c #f4fefc",
"`Z c #1492dc",
"`0 c #a4a69c",
"`1 c #c42a0c",
"`2 c #e44214",
"`3 c #dcd2fc",
"`4 c #fc4e14",
"`5 c #74c2fc",
"`6 c #1c86dc",
"`7 c #8c8284",
"`8 c #ccd2d4",
".` c #dc6e64",
".. c #ecdeec",
".# c #ac362c",
".a c #fc622c",
".b c #bccafc",
".c c #149aec",
".d c #b42204",
".e c #ec7a64",
".f c #2c86ac",
".g c #fceeec",
".h c #dc4224",
".i c #fcf6f4",
".j c #dce2fc",
".k c #048efc",
".l c #ece6fc",
".m c #dc5644",
".n c #e4a2a4",
".o c #fc521c",
".p c #f4e6fc",
".q c #5c7a8c",
".r c #c4e6fc",
".s c #dc4a1c",
".t c #e44e24",
".u c #fc7e4c",
".v c #ecbabc",
".w c #fc5a24",
".x c #dc3a0c",
".y c #b4aeac",
".z c #d42a0c",
".A c #ecdefc",
".B c #048aec",
".C c #9c261c",
".D c #ac6a7c",
".E c #6cc2f4",
".F c #b4d2fc",
".G c #84c2ec",
".H c #7ccefc",
".I c #bc1a04",
".J c #fc7634",
".K c #3482ac",
".L c #7cb6ec",
".M c #bcd6fc",
".N c #fc8264",
".O c #a4c6ec",
".P c #e4dafc",
".Q c #aca6a4",
".R c #ec4214",
".S c #e4d2fc",
".T c #fc662c",
".U c #14a2f4",
".V c #fceefc",
".W c #747a7c",
".X c #d44a34",
".Y c #c4524c",
".Z c #d4cacc",
".0 c #e4e6fc",
".1 c #6c92a4",
".2 c #cc3a2c",
".3 c #e4827c",
".4 c #ec360c",
".5 c #cce2f4",
".6 c #3cb6fc",
".7 c #844a44",
".8 c #64befc",
"#` c #248ee4",
"#. c #74aad4",
"## c #b4464c",
"#a c #9c9694",
"#b c #e49a9c",
"#c c #a47a74",
"#d c #6c869c",
"#e c #7c8684",
"#f c #c45e5c",
"#g c #8c3e44",
"#h c #ec3204",
"#i c #c43224",
"#j c #941e1c",
"#k c #bc2a1c",
"#l c #ecc2c4",
"#m c #c44234",
"#n c #ac4e54",
"#o c #dc5e4c",
"#p c #7cbeec",
"#q c #f4dadc",
"#r c #e4aaac",
"#s c #d43214",
"#t c #04a2fc",
"#u c #bcd2fc",
"#v c #0496fc",
"#w c #d4dafc",
"#x c #e4cacc",
"#y c #fce6e4",
"#z c #ec4a14",
"#A c #e4e2e4",
"#B c #c4daec",
"#C c #a42214",
"#D c #0c96dc",
"#E c #b4cafc",
"#F c #d4d2fc",
"#G c #7ccafc",
"#H c #c4def4",
"#I c #eceefc",
"#J c #a4aaac",
"#K c #e43e24",
"#L c #d4d2d4",
"#M c #2c8abc",
"#N c #fce6fc",
"#O c #f4bebc",
"#P c #f4e2fc",
"#Q c #c4dafc",
"#R c #24aaf4",
"#S c #bc260c",
"#T c #ec4e1c",
"#U c #acc6e4",
"#V c #f45624",
"#W c #dcc6bc",
"#X c #fc6e34",
"#Y c None",
"#Z c #bc2204",
"#0 c #e4e2fc",
"#1 c #cc5a54",
"#2 c #84beec",
"#3 c #b41e04",
"#4 c #2482ac",
"#5 c #fc8a4c",
"#6 c #d43e1c",
"#7 c #f4fafc",
"#8 c #bcbabc",
"a` c #1496e4",
"a. c #149eec",
"a# c #fcf2f4",
"aa c #fcfafc",
"ab c #fc561c",
"ac c #fc5e24",
"ad c #dc3e14",
"ae c #fc866c",
"af c #d44e3c",
"ag c #2492ec",
"ah c #d41e04",
"ai c #5cc2fc",
"aj c #74cafc",
"ak c #f4f2fc",
"al c #f45e24",
"am c #dcdefc",
"an c #dcd6fc",
"ao c #0492fc",
"ap c #eceafc",
"aq c #e4a6a4",
"ar c #f4eafc",
"as c #c4eafc",
"at c #dc4e1c",
"au c #ece2fc",
"av c #7cbaec",
"aw c #e4defc",
"ax c #e4d6fc",
"ay c #fcf2fc",
"az c #d4cecc",
"aA c #e4eafc",
"aB c #e4867c",
"aC c #ec3a0c",
"aD c #7cc2ec",
"aE c #b4cefc",
"aF c #d4d6fc",
"aG c #c4e2f4",
"aH c #ecf2fc",
"aI c #d4d6d4",
"aJ c #0486f4",
"aK c #f46634",
"aL c #84baf4",
"aM c #e4461c",
"aN c #fc723c",
"aO c #74b6f4",
"aP c #d43a1c",
"aQ c #f4f6fc",
"aR c #a4a6a4",
"aS c #e4421c",
"aT c #fc4e1c",
"aU c #1c86e4",
"aV c #fc6234",
"aW c #fcf6fc",
"aX c #d42a14",
"aY c #048af4",
"aZ c #fc763c",
"a0 c #fc6634",
"a1 c #dc5e54",
"a2 c #b41e0c",
"a3 c #2482b4",
"a4 c #149ef4",
"a5 c #fc5624",
"a6 c #fc5e2c",
"a7 c #000000",
"a8 c #000000",
/* pixels */
"#Y#Y#Y#Y#Y#Y#Y#Y#Y#Y#Y#Y#Y#Y#Y#Y#Y#Y#Y#Y#Y#Y#Y#Y#Y#Y#Y#Y#Y#Y#Y#Y",
"#Y`las.rasasasasasasasasasasasasasasasasasasasasasasasasas`U#Y#Y",
"asaj`tai`t`t`t`t`t`t`t`t`t`t`t`t`t`t`t`t`t`t`t`t`t`t`t`t`t.8#Baa",
".6`y.O.O.O.O.O.O.O.O.O.O.O.O.O.O.O.O.O.O.O.O.O.O.O.O.O.O#U`y`haI",
"#t#``6aU`6aU`6aU`6aU`6aU`6aU`6aU`6aU`6aU`6aU`6aU`6aU`6aU`6ag#D.y",
"#taY``aJ``aJ``aJ``aJ``aJ``aJ``aJ``aJ``aJ``aJ``aJ``aJ``aJ``.k`.aR",
"#taoaoaoaoaoaoaoaoaoaoaoaoaoaoaoaoaoaoaoaoaoaoaoaoaoao#vao#v`..Q",
"#R#p#paD.GaDaD.GaDaD.GaD#p.GaDaD#p#p#p#p#pav`Kav`K`K`K`K`KaO`ZaR",
".U.5#Y#Y#Y#Y#Y#Y#Y#Y#Y#Y#Y#Y#Y#Y#Y#YaaaaaWaWayay.V`Jar.l#N#Q`ZaR",
".U#H#Y#Y#Y#Y#Y#Y#Y#Y#Y#Y#Y#YaaaaaQaQak#I#IapapaA.0.0#0amaw.M`ZaR",
".U#H#Y#Y#Y#Y#Y#Y#Y#Y#Y#Y#Y#YaaaaaQaQakakak#IapapaA.0#0.jau.M`ZaR",
".U#H#Y#Y#Y#Y#Y#Y#Y#Y#Y#Y#Yaaaa#7aWaQakak#I#Iapap.0.0.0#0#0.M`ZaR",
".U#H#Y#Y#Y#Y#Y#Y#Y#Y#Y#Y#Y#YaaaQaQaQakaH#I#Iapap.0.l#0am#0.M`ZaR",
".U#H#Y#Y#Y#Y#Y#Y#Y#Y#Y#Y#YaaaaaWaQakakak#Iap#I.0.l.0#0amau.Fa`aR",
".U#H#Y#Y#Y#Y#Y#Y#Y#Y#Y#YaaaaaQaQaQakak#I#IapapaA.0.0#0amaw.M`ZaR",
"a.aG#Yaa#Y#Y#Y#Y#Y#Y#Y#YaaaaaQaWaQakaH`J#Iapap.0.l#0#0amaw.M`ZaR",
".U#H#Y#Y#y.g#Y#Y#Y#Y.g#l#Y#Y#7akakakaH#Iapapap.0.0.0.jamaw.F`ZaR",
"a.aGa#`o#K.e#Y#Y#Yaaa1#sa1.vaQaQakaH`J#Iapap.0.0#0#0am`Xaw#u`ZaR",
"a..r.N#V#5`m#O#Y#Y.``2#X.z#i`saQ#I`J#IapapaA.l.0.0awam`X.P.F`ZaR",
"a..raeaK`O`p.Xa#.3ad.J.t#3#b#7`J#I#I#Iapap.0.0.0#0amam#w.P.F`ZaR",
"a.as`k#K.uaN.R.2.h.J.w#S`g#7ak#I`J#IapapaA.l.0#0#0amam`X`XaE`ZaR",
"a.#Haa.m.TaNaV#TaZ.a`i`S#qaQ#I`J#IapapaA.l.0#0#0amam`XaFax.F`ZaR",
"a4#B#Y.n`2aNa0#X.a.sa2.n`Y#I#I#I#Iapap.0.0.0#0.jam`X`XaFanaE`ZaR",
".c`B#Y#r#s`GaVa6a6`1`C#Y#Iar#IapapaA.laA.0#0#0amam`X#waFan`x`ZaR",
"`q`n.3ad`V#Xac.w.wab.z`jaQaHapapapaA.0.0#0#0amam`X`XaF#F`3#E`ZaR",
"#.af`DaZ.T.w.w.wa5ab.oah#f..`U.0.0.0#0#0.jamam`XaFaF#F`z#F`x`ZaR",
"`#.h#Xaca6`p.daC.waT`4ab`f.Y.Var.V.p.p.pauau.A.A.Paxax`3.S.b`ZaR",
"`c#6.T.w.t.d#n##.4.o`4#z.I.D`b#G#G.H#G#G#G#G`A#G`5`5`5`5`5.8#M.Q",
"#1.Ral`Q#3`r.1#d#C#h`m.I#j.q.f`H`H`H`H.f`H`H`H`H.f`Ha3`H.f.K.W`d",
"`T#m#Z#C.7#e`W`d#8.#`a#g`v`0#W`L#W#W`T.Z#W#W`T.Z#W`L#W#W`L`L`Iaa",
"#Y#W#c`7#J#A#Y#Y#Y#L#a#J`daa#Y#Y#Y#Y#Y#Y#Y#Y#Y#Y#Y#Y#Y#Y#Y#Y#Y#Y",
"#Y#Y`e`IaW#Y#Yaa#Y#Yakaa#Y#Yaa#Yaa#Yaa#Yaa#Yaa#Yaa#Y#Y#Yaa#Yaa#Y"
};
