/* XPM */
static char *windowsfloat_xpm[] = {
/* width height num_colors chars_per_pixel */
"    32    32      256            2",
/* colors */
"`` c #0486ec",
"`. c #aca2a4",
"`# c #84d2fc",
"`a c #2caafc",
"`b c #d4d2fc",
"`c c #64b2dc",
"`d c #c4eafc",
"`e c #448eb4",
"`f c #5cc6fc",
"`g c #0496fc",
"`h c #e4eafc",
"`i c #ccaa9c",
"`j c #ecfafc",
"`k c #f4d6c4",
"`l c #2c7eac",
"`m c #74b6ec",
"`n c #acd6fc",
"`o c #84c2ec",
"`p c #44aeec",
"`q c #acbac4",
"`r c #dcdefc",
"`s c #f4eae4",
"`t c #74c6f4",
"`u c #fcf6f4",
"`v c #2486dc",
"`w c #a4e6fc",
"`x c #5cbefc",
"`y c #349ad4",
"`z c #3c92bc",
"`A c #74befc",
"`B c #44b6fc",
"`C c #a4c6e4",
"`D c #f4f2ec",
"`E c #1c86e4",
"`F c #3caaec",
"`G c #e4d6fc",
"`H c #c4beb4",
"`I c #2c8abc",
"`J c #74d2fc",
"`K c #048efc",
"`L c #94d6fc",
"`M c #d4dafc",
"`N c #5c7a8c",
"`O c #149afc",
"`P c #ecdefc",
"`Q c #2c86b4",
"`R c #84caec",
"`S c #dce6e4",
"`T c #f4eafc",
"`U c #fcfef4",
"`V c #b4e6fc",
"`W c #34b2fc",
"`X c #6cbaec",
"`Y c #049efc",
"`Z c #ecf2fc",
"`0 c #f4fefc",
"`1 c #74baec",
"`2 c #b4defc",
"`3 c #54aedc",
"`4 c #9cc2ec",
"`5 c #74cefc",
"`6 c #6cbeec",
"`7 c #e4cefc",
"`8 c #6c8694",
".` c #048aec",
".. c #84dafc",
".# c #34aaec",
".a c #dcd2fc",
".b c #64baec",
".c c #eceeec",
".d c #f4f6f4",
".e c #b4d6fc",
".f c #e4defc",
".g c #fcfaf4",
".h c #24a2f4",
".i c #7cbeec",
".j c #54b6f4",
".k c #acc6e4",
".l c #dccec4",
".m c #f4e6fc",
".n c #3486ac",
".o c #94cae4",
".p c #bceafc",
".q c #acc2e4",
".r c #8cd6fc",
".s c #5cb2f4",
".t c #6cc6fc",
".u c #d4b29c",
".v c #7cb2ec",
".w c #f4eeec",
".x c #7ccafc",
".y c #248ae4",
".z c #64c2fc",
".A c #64a6c4",
".B c #9ccee4",
".C c #fcf2fc",
".D c #3cb2fc",
".E c #7cd2fc",
".F c #0c8eec",
".G c #94defc",
".H c #5c8294",
".I c #f4e2fc",
".J c #8ccefc",
".K c #fceafc",
".L c #bce2fc",
".M c #0c9ef4",
".N c #54b2fc",
".O c #a4c2e4",
".P c #34aefc",
".Q c #eceafc",
".R c #f4fafc",
".S c #2ca6f4",
".T c #0486f4",
".U c #a4b6c4",
".V c #84d6fc",
".W c #d4d6fc",
".X c #d4eefc",
".Y c #049afc",
".Z c #ccae9c",
".0 c #fce2d4",
".1 c #2c82b4",
".2 c #acdafc",
".3 c #8cc2ec",
".4 c #44b2f4",
".5 c #dce2fc",
".6 c #f4eaec",
".7 c #74c6fc",
".8 c #fcf6fc",
"#` c #2486e4",
"#. c #3ca6ec",
"## c #d4c6bc",
"#a c #e4e6fc",
"#b c #6c8e9c",
"#c c #6ccefc",
"#d c #e4cabc",
"#e c #348ebc",
"#f c #647e8c",
"#g c #84cefc",
"#h c #54b2ec",
"#i c #ace6fc",
"#j c #f4f2fc",
"#k c #dcdafc",
"#l c #7cbaec",
"#m c #7ccefc",
"#n c #9cdefc",
"#o c #6cc2f4",
"#p c #54bafc",
"#q c #5cc2fc",
"#r c #74c2fc",
"#s c #44bafc",
"#t c #3caeec",
"#u c #e4dafc",
"#v c #0492fc",
"#w c #ece2fc",
"#x c #34aeec",
"#y c #dcd6fc",
"#z c #b4dafc",
"#A c #e4e2fc",
"#B c #24a6f4",
"#C c #7cc2ec",
"#D c #5cb6f4",
"#E c #7cb6ec",
"#F c #7cd6fc",
"#G c #fceefc",
"#H c #bce6fc",
"#I c #eceefc",
"#J c #a4c6ec",
"#K c #2c86bc",
"#L c None",
"#M c #048af4",
"#N c #f4f6fc",
"#O c #fcfafc",
"#P c #3486b4",
"#Q c #0c9efc",
"#R c #a4c2ec",
"#S c #000000",
"#T c #000000",
"#U c #000000",
"#V c #000000",
"#W c #000000",
"#X c #000000",
"#Y c #000000",
"#Z c #000000",
"#0 c #000000",
"#1 c #000000",
"#2 c #000000",
"#3 c #000000",
"#4 c #000000",
"#5 c #000000",
"#6 c #000000",
"#7 c #000000",
"#8 c #000000",
"a` c #000000",
"a. c #000000",
"a# c #000000",
"aa c #000000",
"ab c #000000",
"ac c #000000",
"ad c #000000",
"ae c #000000",
"af c #000000",
"ag c #000000",
"ah c #000000",
"ai c #000000",
"aj c #000000",
"ak c #000000",
"al c #000000",
"am c #000000",
"an c #000000",
"ao c #000000",
"ap c #000000",
"aq c #000000",
"ar c #000000",
"as c #000000",
"at c #000000",
"au c #000000",
"av c #000000",
"aw c #000000",
"ax c #000000",
"ay c #000000",
"az c #000000",
"aA c #000000",
"aB c #000000",
"aC c #000000",
"aD c #000000",
"aE c #000000",
"aF c #000000",
"aG c #000000",
"aH c #000000",
"aI c #000000",
"aJ c #000000",
"aK c #000000",
"aL c #000000",
"aM c #000000",
"aN c #000000",
"aO c #000000",
"aP c #000000",
"aQ c #000000",
"aR c #000000",
"aS c #000000",
"aT c #000000",
"aU c #000000",
"aV c #000000",
"aW c #000000",
"aX c #000000",
"aY c #000000",
"aZ c #000000",
"a0 c #000000",
"a1 c #000000",
"a2 c #000000",
"a3 c #000000",
"a4 c #000000",
"a5 c #000000",
"a6 c #000000",
"a7 c #000000",
"a8 c #000000",
/* pixels */
"#L.E`B.z`x#q`x#q`x#q`x#q`x#q`x#q`x#q`x#q`x#q`x#q`x`x`R`S#L#L#L#L",
"`V.j#R.O#R.k#R.k#R.k#R.k#R.k#R.k#R.k#R.k#R.k#R.k#J.q.s.A.6#L#L#L",
"`w#Q#``E`E`E`E`E`E`E`E`E`E`E`E`E`E`E`E`E`E`E`E`E`E`v`O#e.l#L#L#L",
"#i.Y``.```.```.```.```.```.```.```````````.``````````g#P###L#L#L",
"`w`Y`K#v#v#v#v#v#v#v#v#v#v#v#v#v#v#v`g#v#v#v#v`g#v#v`Y`Q###L#L#L",
"`L.D.3#C#C.i#C.i#C.i#C.i#C.i.i.i.i.i`1#l`1`1`m`m`m`m.N.1###L#O#L",
".G.4.g#L#L#L#L#L#L#L#L#L#L#L#L#L#L#L#O#O.8.8.C.C.K.K.J`l#d#L#L#L",
".G#t#j#L.X`d`d.p`d`d#H`d#H#H#H.L.L`2.L#z#z#z#z`n`n.e`#`z`q#L#L#L",
".G#t#N`j#s#p#q`x`x`x#q`x#q`x#q`x#q#q`x#q#q#q#q.z#q#q.z.z.z.B.w#L",
".G#t#O#n#D.q#J.q#J#J.q#J.q#J.q#J.q#J.q#J.q#J.q#J#R.k#R`C`4#..U#O",
".G`F#L#F.F#``E`E`E`E`E`E`E`E`E`E`E`E`E`E`E`E`E`E`E`E`E`E`v#Q#b`D",
".G`F#L.V#M``#M``.```#M``#M``#M``#M``#M``.T``.T.```.T````.T`Y`8`s",
".G.##L.V`K#v#v#v#v#v#v#v#v#v#v#v#v#v#v#v#v`g#v#v#v`g#v`g#v`Y`8.c",
".G`F#L.E#h`o#C`o#C#C`o#C#C.i`o#C#C.i.i.i.i#l#l`1#E`m`m`m.v.S.H.6",
".G#t#L`5`6#L#L#L#L#L#L#L#L#L#L#L#L#L#L#L.8.8.8.C#G`T`T`T.I.D.H.w",
".G.##L#m`X#L#L#L#L#L#L#L#L#L#L#O#O#N#j#j`Z#I.Q`h#a`h#a.5.f.P.H`s",
".G`F#L`5`X#L#L#L#L#L#L#L#L#L#L#O#O#N#N#N`T#I#I.Q.Q#a#a#A.f.P.H.w",
"`L#t#L`5`X#L#L#L#L#L#L#L#L#L#O#O#N.8#N#j`Z#I.Q.Q.Q#a#A#A.f`W.H`s",
".G.##O`5.b#L#L#L#L#L#L#L#L#O#O#O#N#N#j#j`T#I#I.Q#a#a#a#A#k.D.H.w",
".G`F#O`5`X#L#L#L#L#L#L#L#L#L#O#N#N#N#j#j`Z.Q.Q`h.Q#A#A#A#k.P#f.w",
".G.#.g`5`X#L#L#L#L#L#L#L#O#O#N#O#N#j#j`Z#I.Q.Q#a#a#A#A.5#u.P.H.w",
"#i#B`L`f`6#L#L#L#L#L#L#O#O#O#N#N#N#j#j#I#I.Q`h.Q#a#A#A`r#k.D.H.K",
"`U.o`e`y`t#L#L#L#L#L#O#O.R.8#N#N#j#j#I`T#I.Q#a#a#a#A`r`r`G.P.H.w",
"#L.8`k`3`A#L#L#L#L#O#O#O#N#N#j#j#j`Z#I#I.Q.Q#a.Q#A#A`r`r#y.P.H.w",
"#L#L#L`J`X#L#O#O#O#N#N#N#N#j#N#j#I#I#I.Q.Q#a#a#A#A`r`r#k#y.P.H`s",
"#L#L#L`5`X#L#N#O#N.8#N#j#j#j#j#I`T#I.Q.Q`h#a#A#A`r`r#k#k.a.P.H.w",
"#L#L#L`5.b#L#N#N#N#j#j#N#j#I`Z#I#I.Q.Q.Q#a#a#A#A`r`r#k`M.a.P.H`s",
"#L#L#L`5`X#O#j#j#j`Z`Z#I#I#I#I.Q.Q`h`h#a#a#A.5`r`r`M.W.W`b.P.H.w",
"#L#O#L`5`X#L.8.8.8.C.C.C.C#G#G#G#G.K`T.m.m#w#w`P`P`P`G`G`7.P.H`s",
"#L#L#L`#.S.r`##g`#`##g`##g#m#g.x#m.x#m.x.x.7.x#r#r#r`A#r`A.h#f.w",
"#L#L#L.8`c#K#K#K#K#K#K#K#K#K#K#K#K#K#K#K#K#K#K#K#K`I#K#K`I`N`..R",
"#L#L#L#L.0.u`i`i.Z`i.Z`i.Z`i.Z`i`i`i`i`i.Z`i`i.Z`i`i`i`i`i`H.c#L"
};
