/* XPM */
static char *windowsdock_xpm[] = {
/* width height num_colors chars_per_pixel */
"    32    32      256            2",
/* colors */
"`` c #0486ec",
"`. c #84baec",
"`# c #8cd6fc",
"`a c #14b2fc",
"`b c #d4d6d4",
"`c c #e4eefc",
"`d c #747a7c",
"`e c #bccafc",
"`f c #ecdefc",
"`g c #0492dc",
"`h c #5cb6ec",
"`i c #cce2f4",
"`j c #84c2ec",
"`k c #74c6fc",
"`l c #247eac",
"`m c #f4fafc",
"`n c #1c92dc",
"`o c #a4c6ec",
"`p c #dcdedc",
"`q c #f4eefc",
"`r c #74b6ec",
"`s c #acd6f4",
"`t c #d4c6bc",
"`u c #04a2fc",
"`v c #f4e6dc",
"`w c #a4cef4",
"`x c #c4e6fc",
"`y c #2caaf4",
"`z c #248ee4",
"`A c #bcd6e4",
"`B c #d4d2fc",
"`C c #1c86dc",
"`D c #1492dc",
"`E c #dce2fc",
"`F c #2c8abc",
"`G c #dcd6fc",
"`H c #74c2fc",
"`I c #fce6fc",
"`J c #e4f6fc",
"`K c #3482ac",
"`L c #f4f6fc",
"`M c #b4cefc",
"`N c #c4def4",
"`O c #dceafc",
"`P c #dcdefc",
"`Q c #048efc",
"`R c #a4a6a4",
"`S c #24aaf4",
"`T c #ccdaf4",
"`U c #0492fc",
"`V c #5cbefc",
"`W c #2c82ac",
"`X c #d4cecc",
"`Y c #ece6fc",
"`Z c #bcd6fc",
"`0 c #048aec",
"`1 c #eceefc",
"`2 c #7ccefc",
"`3 c #b4cafc",
"`4 c #fceefc",
"`5 c #7cb6ec",
"`6 c #dcc6bc",
"`7 c #149ef4",
"`8 c #accef4",
".` c #e4e2fc",
".. c #e4d6fc",
".# c #6cc2f4",
".a c #f4e6fc",
".b c #c4daf4",
".c c #44a2d4",
".d c #ccd2fc",
".e c #f4e2fc",
".f c #84cefc",
".g c #7ccafc",
".h c #2482ac",
".i c #fcfafc",
".j c #accafc",
".k c #3cb6fc",
".l c #e4d2fc",
".m c #7cbeec",
".n c #b4aeac",
".o c #24b2fc",
".p c #d4d6fc",
".q c #049afc",
".r c #64befc",
".s c #dccabc",
".t c #0486f4",
".u c #84baf4",
".v c #1caefc",
".w c #ccdee4",
".x c #e4f2fc",
".y c #bcd2fc",
".z c #ece2fc",
".A c #0c96dc",
".B c #74cafc",
".C c #2492ec",
".D c #acc6e4",
".E c #f4f2fc",
".F c #74b6f4",
".G c #acdaf4",
".H c #0c9ef4",
".I c #a4d2f4",
".J c #c4eafc",
".K c #34aaec",
".L c #dcd2fc",
".M c #1c86e4",
".N c #1496e4",
".O c #dce6fc",
".P c #dcdafc",
".Q c #fceafc",
".R c #ecf6fc",
".S c #fcf6fc",
".T c #b4d2fc",
".U c #e4eafc",
".V c #e4defc",
".W c #aca6a4",
".X c #24aefc",
".Y c #0496fc",
".Z c #5cc2fc",
".0 c #2c82b4",
".1 c #eceafc",
".2 c #bcdaf4",
".3 c #048af4",
".4 c #ecf2fc",
".5 c #fcf2fc",
".6 c #7cbaec",
".7 c #14a2f4",
".8 c #acd2f4",
"#` c #e4e6fc",
"#. c #54a2cc",
"## c #e4dafc",
"#a c #f4eafc",
"#b c #84d2fc",
"#c c None",
"#d c #7cc2ec",
"#e c #d4dafc",
"#f c #c4dafc",
"#g c #2482b4",
"#h c #dccac4",
"#i c #000000",
"#j c #000000",
"#k c #000000",
"#l c #000000",
"#m c #000000",
"#n c #000000",
"#o c #000000",
"#p c #000000",
"#q c #000000",
"#r c #000000",
"#s c #000000",
"#t c #000000",
"#u c #000000",
"#v c #000000",
"#w c #000000",
"#x c #000000",
"#y c #000000",
"#z c #000000",
"#A c #000000",
"#B c #000000",
"#C c #000000",
"#D c #000000",
"#E c #000000",
"#F c #000000",
"#G c #000000",
"#H c #000000",
"#I c #000000",
"#J c #000000",
"#K c #000000",
"#L c #000000",
"#M c #000000",
"#N c #000000",
"#O c #000000",
"#P c #000000",
"#Q c #000000",
"#R c #000000",
"#S c #000000",
"#T c #000000",
"#U c #000000",
"#V c #000000",
"#W c #000000",
"#X c #000000",
"#Y c #000000",
"#Z c #000000",
"#0 c #000000",
"#1 c #000000",
"#2 c #000000",
"#3 c #000000",
"#4 c #000000",
"#5 c #000000",
"#6 c #000000",
"#7 c #000000",
"#8 c #000000",
"a` c #000000",
"a. c #000000",
"a# c #000000",
"aa c #000000",
"ab c #000000",
"ac c #000000",
"ad c #000000",
"ae c #000000",
"af c #000000",
"ag c #000000",
"ah c #000000",
"ai c #000000",
"aj c #000000",
"ak c #000000",
"al c #000000",
"am c #000000",
"an c #000000",
"ao c #000000",
"ap c #000000",
"aq c #000000",
"ar c #000000",
"as c #000000",
"at c #000000",
"au c #000000",
"av c #000000",
"aw c #000000",
"ax c #000000",
"ay c #000000",
"az c #000000",
"aA c #000000",
"aB c #000000",
"aC c #000000",
"aD c #000000",
"aE c #000000",
"aF c #000000",
"aG c #000000",
"aH c #000000",
"aI c #000000",
"aJ c #000000",
"aK c #000000",
"aL c #000000",
"aM c #000000",
"aN c #000000",
"aO c #000000",
"aP c #000000",
"aQ c #000000",
"aR c #000000",
"aS c #000000",
"aT c #000000",
"aU c #000000",
"aV c #000000",
"aW c #000000",
"aX c #000000",
"aY c #000000",
"aZ c #000000",
"a0 c #000000",
"a1 c #000000",
"a2 c #000000",
"a3 c #000000",
"a4 c #000000",
"a5 c #000000",
"a6 c #000000",
"a7 c #000000",
"a8 c #000000",
/* pixels */
"#c#c#c#c#c#c#c#c#c#c#c#c#c#c#c#c#c#c#c#c#c#c#c#c#c#c#c#c#c#c#c#c",
"#c`J.J`x.J.J.J.J.J.J.J.J.J.J.J.J.J.J.J.J.J.J.J.J.J.J.J.J.J.x#c#c",
".J.B`V.Z`V`V`V`V`V`V`V`V`V`V`V`V`V`V`V`V`V`V`V`V`V`V`V`V`V.r.b.i",
".k`.`o`o`o`o`o`o`o`o`o`o`o`o`o`o`o`o`o`o`o`o`o`o`o`o`o`o.D`..c`b",
"`u`z`C.M`C.M`C.M`C.M`C.M`C.M`C.M`C.M`C.M`C.M`C.M`C.M`C.M`C.C.A.n",
"`u.3``.t``.t``.t``.t``.t``.t``.t``.t``.t``.t``.t``.t``.t```Q`g`R",
"`u`U`U`U`U`U`U`U`U`U`U`U`U`U`U.Y`U`U`U`U`U`U`U`U`U`U`U.Y`U.Y`g.W",
"`S.m.m#d`j#d#d`j#d#d`j#d.m#d`j`S`h.m.m.m.m.6`r.6`r`r`r`r`r.F`D`R",
".7`i#c#c#c#c#c#c#c#c#c#c#c#c#c.X.G#c.i.i.S.S.5.5`4`q#a`Y`I#f`D`R",
".7`N#c#c#c#c#c#c#c#c#c#c#c#c.R.X.G.i.E`1`1.1.1.U#`#`.``P.V`Z`D`R",
".7`N#c#c#c#c#c#c#c#c#c#c#c#c.R.o`s.i.E.E.E`1.1.1.U#`.``E.z`Z`D`R",
".7`N#c#c#c#c#c#c#c#c#c#c#c#c.R.X`s.i.E.4`q`1.1.1#`#`#`.`.``Z`D`R",
".7`N#c#c#c#c#c#c#c#c#c#c#c#c.R.o.G.S.E.E`1`1.1.1#``Y.``P.``Z`D`R",
".7`N#c#c#c#c#c#c#c#c#c#c#c.i.R.X`s.i.E`1`1`1.1.U#`#`.``P.z.T.N`R",
".7`N#c#c#c#c#c#c#c#c#c#c.i.i.4.o`s.S.4`q`1.1.1`Y#`#`.``P.V`Z`D`R",
".7`N#c#c#c#c#c#c#c#c#c#c.i.i.R.X`s.S`q.4`1.1.1#`#`.`.``P.V`Z`D`R",
".7`N#c#c#c#c#c#c#c#c#c.i.i.i.4.v`s.S`1`1.1.1.U`Y#`#`.``P.V.T`D`R",
".7`N#c#c#c#c#c#c#c#c.i.i`L.i`c.o.8.S`1`1.1.1#`#`#`.``P.P.V.y`D`R",
"`7`N#c#c#c#c#c#c.i.i.i.i`L.S`c.v.8.5`1.1.1.1#`#`.`.``P.P##.T`D`R",
".7`N#c#c#c#c#c.i.i.i`m`L.E`L`1.o.I.5`1.1.1#`#`#`.``P`P#e##.T`D`R",
".7`N#c.i#c.i.i.i.i`L.S`L`L.E`c.X.I.E.1.U.1#`#`.`.``P.P.P.P`M`D`R",
".7`N#c.i.S`m.S`L`L`L`L.E.E.E.U.v.I`4.U.1#`#`.`.``P`P.P#e`G`M`D`R",
"`7`N#c`L`m.S`L`L.S.E.E.E.4.E.U.X`w`q.1#`#`#`.`.``P.P.P.p`G`M`D`R",
"`7.2#c`L`L`L`L.E`L.E.E.4`q.E`O.o`w`q#``Y#`.`.``P`P.P.p.p`G`M`D`R",
"`7`N.i.E`L.E.E.E.E.4.E`1`1`q.O.v`w#a#`#`.`.``P`P.P.P.p`B.L.j`D`R",
"`7.2.S.4.E.4.E.4`1`1.1`1.U.1.O.v`w.1.`.``E`P`P.P.p.p.p.d.L.j`D`R",
".H`T.i.5.S.5.5.5.5.5`4`4`4`4.1`S`8.Q.a.a.z`f`f`f##.....L.l`e`D`R",
".K.r`##b#b#b#b#b#b#b#b`2#b.f`2`a.Z.f.g.g.g.g`k.g`H`H`H`H`H`V`F.W",
".w#..0`l`l`l`l.0`l`l`l#g`l`l#g`K.0`l`l`l`l#g`l`l.0#g`l`l.0`K`d`X",
"#c`v.s`t#h#h`t`6`t#h#h`6`t#h`6`t`t#h#h`t#h`6#h`t`6`t#h`t`6`t`p`L",
"#c#c#c#c#c#c#c#c#c#c#c#c#c#c#c#c#c#c#c#c#c#c#c#c#c#c#c#c#c#c#c#c",
"#c#c#c#c#c#c#c#c#c#c#c#c#c#c#c#c#c#c#c#c#c#c#c#c#c#c#c#c.i#c#c#c"
};
