/* XPM */
static char *multisel_xpm[] = {
/* width height num_colors chars_per_pixel */
"    16    16      256            2",
/* colors */
"`` c none",
"`. c #408fc9",
"`# c #3f8bc6",
"`a c #3d85c1",
"`b c #3b7fbe",
"`c c #397aba",
"`d c #3874b5",
"`e c #366eb1",
"`f c #3f8cc7",
"`g c #ffffff",
"`h c #fbfbfd",
"`i c #f2f3fb",
"`j c #e8eaf7",
"`k c #3d85c2",
"`l c #f9fafd",
"`m c #eff1fa",
"`n c #e4e8f6",
"`o c #d9ddf2",
"`p c #3b7ebd",
"`q c #edf0f9",
"`r c #e2e6f5",
"`s c #d6dbf1",
"`t c #c8d0ec",
"`u c #3875b7",
"`v c #fcfcfe",
"`w c #f2f3fa",
"`x c #e8ebf7",
"`y c #3467ac",
"`z c #e5e8f6",
"`A c #d8def2",
"`B c #fefdfe",
"`C c #f6f7fc",
"`D c #f5f5fc",
"`E c #ebedf8",
"`F c #dfe3f4",
"`G c #d2d8f0",
"`H c #c5ceec",
"`I c #b8c3e7",
"`J c #dbe1f3",
"`K c #cfd6ef",
"`L c #c2cbea",
"`M c #b6c0e6",
"`N c #aab6e2",
"`O c #ccd3ed",
"`P c #bfc8e9",
"`Q c #b3bde5",
"`R c #a7b3e1",
"`S c #9eabde",
"`T c #000000",
"`U c #000000",
"`V c #000000",
"`W c #000000",
"`X c #000000",
"`Y c #000000",
"`Z c #000000",
"`0 c #000000",
"`1 c #000000",
"`2 c #000000",
"`3 c #000000",
"`4 c #000000",
"`5 c #000000",
"`6 c #000000",
"`7 c #000000",
"`8 c #000000",
".` c #000000",
".. c #000000",
".# c #000000",
".a c #000000",
".b c #000000",
".c c #000000",
".d c #000000",
".e c #000000",
".f c #000000",
".g c #000000",
".h c #000000",
".i c #000000",
".j c #000000",
".k c #000000",
".l c #000000",
".m c #000000",
".n c #000000",
".o c #000000",
".p c #000000",
".q c #000000",
".r c #000000",
".s c #000000",
".t c #000000",
".u c #000000",
".v c #000000",
".w c #000000",
".x c #000000",
".y c #000000",
".z c #000000",
".A c #000000",
".B c #000000",
".C c #000000",
".D c #000000",
".E c #000000",
".F c #000000",
".G c #000000",
".H c #000000",
".I c #000000",
".J c #000000",
".K c #000000",
".L c #000000",
".M c #000000",
".N c #000000",
".O c #000000",
".P c #000000",
".Q c #000000",
".R c #000000",
".S c #000000",
".T c #000000",
".U c #000000",
".V c #000000",
".W c #000000",
".X c #000000",
".Y c #000000",
".Z c #000000",
".0 c #000000",
".1 c #000000",
".2 c #000000",
".3 c #000000",
".4 c #000000",
".5 c #000000",
".6 c #000000",
".7 c #000000",
".8 c #000000",
"#` c #000000",
"#. c #000000",
"## c #000000",
"#a c #000000",
"#b c #000000",
"#c c #000000",
"#d c #000000",
"#e c #000000",
"#f c #000000",
"#g c #000000",
"#h c #000000",
"#i c #000000",
"#j c #000000",
"#k c #000000",
"#l c #000000",
"#m c #000000",
"#n c #000000",
"#o c #000000",
"#p c #000000",
"#q c #000000",
"#r c #000000",
"#s c #000000",
"#t c #000000",
"#u c #000000",
"#v c #000000",
"#w c #000000",
"#x c #000000",
"#y c #000000",
"#z c #000000",
"#A c #000000",
"#B c #000000",
"#C c #000000",
"#D c #000000",
"#E c #000000",
"#F c #000000",
"#G c #000000",
"#H c #000000",
"#I c #000000",
"#J c #000000",
"#K c #000000",
"#L c #000000",
"#M c #000000",
"#N c #000000",
"#O c #000000",
"#P c #000000",
"#Q c #000000",
"#R c #000000",
"#S c #000000",
"#T c #000000",
"#U c #000000",
"#V c #000000",
"#W c #000000",
"#X c #000000",
"#Y c #000000",
"#Z c #000000",
"#0 c #000000",
"#1 c #000000",
"#2 c #000000",
"#3 c #000000",
"#4 c #000000",
"#5 c #000000",
"#6 c #000000",
"#7 c #000000",
"#8 c #000000",
"a` c #000000",
"a. c #000000",
"a# c #000000",
"aa c #000000",
"ab c #000000",
"ac c #000000",
"ad c #000000",
"ae c #000000",
"af c #000000",
"ag c #000000",
"ah c #000000",
"ai c #000000",
"aj c #000000",
"ak c #000000",
"al c #000000",
"am c #000000",
"an c #000000",
"ao c #000000",
"ap c #000000",
"aq c #000000",
"ar c #000000",
"as c #000000",
"at c #000000",
"au c #000000",
"av c #000000",
"aw c #000000",
"ax c #000000",
"ay c #000000",
"az c #000000",
"aA c #000000",
"aB c #000000",
"aC c #000000",
"aD c #000000",
"aE c #000000",
"aF c #000000",
"aG c #000000",
"aH c #000000",
"aI c #000000",
"aJ c #000000",
"aK c #000000",
"aL c #000000",
"aM c #000000",
"aN c #000000",
"aO c #000000",
"aP c #000000",
"aQ c #000000",
"aR c #000000",
"aS c #000000",
"aT c #000000",
"aU c #000000",
"aV c #000000",
"aW c #000000",
"aX c #000000",
"aY c #000000",
"aZ c #000000",
"a0 c #000000",
"a1 c #000000",
"a2 c #000000",
"a3 c #000000",
"a4 c #000000",
"a5 c #000000",
"a6 c #000000",
"a7 c #000000",
"a8 c #000000",
/* pixels */
"````````````````````````````````",
"````````````````````````````````",
"```````.`#`a`b`c`d`e````````````",
"`````f`g`g`g`g`h`i`j````````````",
"`````k`g`g`g`l`m`n`o````````````",
"`````p`g`````q`r`s`t````````````",
"`````u`v`````.`#`a`b`c`d`e``````",
"`````e`w`x`f`g`g`g`g`h`i`j``````",
"`````y`z`A`k`g`g`g`l`m`n`o``````",
"```````````p`g`B`C`q`r`s`t``````",
"```````````u`v`D`E`F`G`H`I``````",
"```````````e`w`x`J`K`L`M`N``````",
"```````````y`z`A`O`P`Q`R`S``````",
"````````````````````````````````",
"````````````````````````````````",
"````````````````````````````````"
};
