/* XPM */
static char *pan_xpm[] = {
/* width height num_colors chars_per_pixel */
"    16    16      256            2",
/* colors */
"`` c none",
"`. c #6aa4c4",
"`# c #589dc6",
"`a c #73a9c5",
"`b c #a7c4d0",
"`c c #8bbcd3",
"`d c #f1fafd",
"`e c #dff3fe",
"`f c #63add5",
"`g c #7bb9de",
"`h c #82a3b3",
"`i c #88beda",
"`j c #ffffff",
"`k c #bfe3f4",
"`l c #4290b0",
"`m c #e0ecf0",
"`n c #eaedef",
"`o c #6b8e9c",
"`p c #7da4b9",
"`q c #91a1a7",
"`r c #bec3c4",
"`s c #a4d3e8",
"`t c #f5fbfd",
"`u c #ddf1fa",
"`v c #508aa3",
"`w c #dbe5e9",
"`x c #e7eaec",
"`y c #597885",
"`z c #7e97a9",
"`A c #96a4af",
"`B c #87b8de",
"`C c #9aa7b1",
"`D c #a2beca",
"`E c #d0f0fc",
"`F c #6e94a8",
"`G c #d5e1e7",
"`H c #e3e9eb",
"`I c #54727e",
"`J c #708fa1",
"`K c #7b9bb4",
"`L c #d9ebfc",
"`M c #3e6487",
"`N c #c2bfbb",
"`O c #91a6ad",
"`P c #97a8ad",
"`Q c #a3b8c3",
"`R c #fcffff",
"`S c #b1daf2",
"`T c #eaf6fd",
"`U c #dde5ee",
"`V c #608ca3",
"`W c #678fae",
"`X c #adbfd1",
"`Y c #f7fcff",
"`Z c #405a78",
"`0 c #b4b1ad",
"`1 c #75a5be",
"`2 c #9dbac7",
"`3 c #738b94",
"`4 c #5e7783",
"`5 c #d1eff8",
"`6 c #fbfcff",
"`7 c #fffeff",
"`8 c #edf2fc",
".` c #aed4f0",
".. c #fafdff",
".# c #94b8df",
".a c #c7dbf3",
".b c #cdddf5",
".c c #375074",
".d c #afada9",
".e c #5693b5",
".f c #ecebeb",
".g c #3f7999",
".h c #9dc4dc",
".i c #fcfeff",
".j c #faf9ff",
".k c #f2f4ff",
".l c #f2f6fe",
".m c #d8e3f6",
".n c #d6dff5",
".o c #7aa2dd",
".p c #455873",
".q c #8ab1c9",
".r c #a4cae1",
".s c #d7eaf6",
".t c #d5e4ee",
".u c #fcfcff",
".v c #f5faff",
".w c #f3f4ff",
".x c #e7f0fb",
".y c #e0e8f7",
".z c #d6e1f5",
".A c #b5cbef",
".B c #495f81",
".C c #898a8d",
".D c #b3b0ac",
".E c #6aa2c9",
".F c #a7cce7",
".G c #f6f9ff",
".H c #f0f4fb",
".I c #e6f0fa",
".J c #dee5f9",
".K c #d3dcf1",
".L c #c9d6f2",
".M c #bdcbea",
".N c #85aee4",
".O c #323e4d",
".P c #a29f9d",
".Q c #a9b7c0",
".R c #5c9ad4",
".S c #b3cde9",
".T c #eaf2fd",
".U c #dbe4f8",
".V c #d4dff1",
".W c #cbd6f1",
".X c #c1d0ee",
".Y c #bac9eb",
".Z c #a1b8e5",
".0 c #506c95",
".1 c #747577",
".2 c #adaba8",
".3 c #7798c1",
".4 c #6993c6",
".5 c #d2e3f7",
".6 c #ccd8f1",
".7 c #c3d2f0",
".8 c #b8cde9",
"#` c #afc5e9",
"#. c #aabfe6",
"## c #84a7e5",
"#a c #374b6b",
"#b c #8e8d8b",
"#c c #bbb9b4",
"#d c #6484b1",
"#e c #7696c8",
"#f c #c0d0f0",
"#g c #b2c6e7",
"#h c #aec0e8",
"#i c #a6bbe6",
"#j c #a3beea",
"#k c #5873a0",
"#l c #707377",
"#m c #acaba7",
"#n c #5776a3",
"#o c #7f99cb",
"#p c #acc0ec",
"#q c #9eb6df",
"#r c #95b2df",
"#s c #78a5ea",
"#t c #2b4a6d",
"#u c #747470",
"#v c #b9b7b3",
"#w c #8290a5",
"#x c #6e8dbe",
"#y c #9bb4e4",
"#z c #95afde",
"#A c #88a9e2",
"#B c #557abf",
"#C c #394962",
"#D c #898884",
"#E c #bfbdb8",
"#F c #bcb9b5",
"#G c #b1afaa",
"#H c #aeaba7",
"#I c #b4b2ae",
"#J c #000000",
"#K c #000000",
"#L c #000000",
"#M c #000000",
"#N c #000000",
"#O c #000000",
"#P c #000000",
"#Q c #000000",
"#R c #000000",
"#S c #000000",
"#T c #000000",
"#U c #000000",
"#V c #000000",
"#W c #000000",
"#X c #000000",
"#Y c #000000",
"#Z c #000000",
"#0 c #000000",
"#1 c #000000",
"#2 c #000000",
"#3 c #000000",
"#4 c #000000",
"#5 c #000000",
"#6 c #000000",
"#7 c #000000",
"#8 c #000000",
"a` c #000000",
"a. c #000000",
"a# c #000000",
"aa c #000000",
"ab c #000000",
"ac c #000000",
"ad c #000000",
"ae c #000000",
"af c #000000",
"ag c #000000",
"ah c #000000",
"ai c #000000",
"aj c #000000",
"ak c #000000",
"al c #000000",
"am c #000000",
"an c #000000",
"ao c #000000",
"ap c #000000",
"aq c #000000",
"ar c #000000",
"as c #000000",
"at c #000000",
"au c #000000",
"av c #000000",
"aw c #000000",
"ax c #000000",
"ay c #000000",
"az c #000000",
"aA c #000000",
"aB c #000000",
"aC c #000000",
"aD c #000000",
"aE c #000000",
"aF c #000000",
"aG c #000000",
"aH c #000000",
"aI c #000000",
"aJ c #000000",
"aK c #000000",
"aL c #000000",
"aM c #000000",
"aN c #000000",
"aO c #000000",
"aP c #000000",
"aQ c #000000",
"aR c #000000",
"aS c #000000",
"aT c #000000",
"aU c #000000",
"aV c #000000",
"aW c #000000",
"aX c #000000",
"aY c #000000",
"aZ c #000000",
"a0 c #000000",
"a1 c #000000",
"a2 c #000000",
"a3 c #000000",
"a4 c #000000",
"a5 c #000000",
"a6 c #000000",
"a7 c #000000",
"a8 c #000000",
/* pixels */
"```````````````.`#``````````````",
"`````````a`b`c`d`e`f`g`h````````",
"```````i`j`k`l`m`n`o`j`p`q`r````",
"```````s`t`u`v`w`x`y`j`z`A`B`C``",
"```````D`E`j`F`G`H`I`j`J`K`L`M``",
"`````O`P`Q`R`S`T`U`V`j`W`X`Y`Z``",
"```1`2`3`4`5`6`7`8.`...#.a.b.c``",
"``.e`j.f.g.h`j.i.j.k.l.m.n.o.p``",
"``.q.r`j.s.t.u.v.w.x.y.z.A.B.C``",
"````.E.F`j.G.H.I.J.K.L.M.N.O.P``",
"````.Q.R.S.T.U.V.W.X.Y.Z.0.1.2``",
"``````.3.4.5.6.7.8#`#.###a#b````",
"````````#d#e#f#g#h#i#j#k#l#m````",
"``````````#n#o#p#q#r#s#t#u``````",
"``````````#w#x#y#z#A#B#C#D``````",
"````````````````````````````````"
};
