/* XPM */
static char *refresh_xpm[] = {
/* width height num_colors chars_per_pixel */
"    16    16      256            2",
/* colors */
"`` c #fcfdfc",
"`. c None",
"`# c #ecf2ed",
"`a c #7ac266",
"`b c #82c96a",
"`c c #8dc97f",
"`d c #9dcd94",
"`e c #abd0a7",
"`f c #dbe7dc",
"`g c #ffffff",
"`h c #fdfefd",
"`i c #fefdfd",
"`j c #fefcfc",
"`k c #e7f0e8",
"`l c #66b452",
"`m c #88de5d",
"`n c #92e767",
"`o c #92e56d",
"`p c #92e76c",
"`q c #6db859",
"`r c #d5dad8",
"`s c #fbfcfa",
"`t c #becec4",
"`u c #52ad3d",
"`v c #a1f077",
"`w c #a7f083",
"`x c #bfff97",
"`y c #76bf5d",
"`z c #b6bab8",
"`A c #eed6d4",
"`B c #ebcecd",
"`C c #fefdfc",
"`D c #fafcfa",
"`E c #c5e1c5",
"`F c #62c046",
"`G c #87df5c",
"`H c #9cec73",
"`I c #a6f47d",
"`J c #acfd82",
"`K c #6aaf58",
"`L c #ceccd0",
"`M c #f0e0df",
"`N c #b53a33",
"`O c #cd8583",
"`P c #fcffff",
"`Q c #d0e6d2",
"`R c #4cb52d",
"`S c #6cd335",
"`T c #8ce65b",
"`U c #82e059",
"`V c #79d057",
"`W c #a3fb77",
"`X c #5e9e4f",
"`Y c #e0dbe2",
"`Z c #e6bdba",
"`0 c #af0000",
"`1 c #cb9996",
"`2 c #fdffff",
"`3 c #f7f9f9",
"`4 c #69bd5b",
"`5 c #5cc62a",
"`6 c #70d639",
"`7 c #52bc2c",
"`8 c #5a8755",
".` c #679d62",
".. c #84ed54",
".# c #659b56",
".a c #eee7f0",
".b c #f7f2f3",
".c c #cb230e",
".d c #b31e10",
".e c #dfdfe0",
".f c #a7d1a9",
".g c #55bb3c",
".h c #5dca2c",
".i c #46ad24",
".j c #68836a",
".k c #ebdeed",
".l c #dceddc",
".m c #51a540",
".n c #7e9e80",
".o c #fcf8fd",
".p c #fdfcfb",
".q c #fffdfd",
".r c #f3e0df",
".s c #d52208",
".t c #c41000",
".u c #c2a4a3",
".v c #78bd77",
".w c #53bc38",
".x c #3fb919",
".y c #5b8659",
".z c #f1e7f2",
".A c #e3dbe0",
".B c #e2c5c5",
".C c #fffffe",
".D c #fffdfc",
".E c #feffff",
".F c #e57867",
".G c #e61a00",
".H c #d01a00",
".I c #b79390",
".J c #a4cfa7",
".K c #45b92f",
".L c #2c9f15",
".M c #aab2ad",
".N c #fbf9f8",
".O c #fefefd",
".P c #fbae9a",
".Q c #f23e09",
".R c #d7b2ac",
".S c #f9f8fb",
".T c #ee8976",
".U c #f32700",
".V c #f92e02",
".W c #ca1e02",
".X c #b5aaaa",
".Y c #f7f7f9",
".Z c #53b849",
".0 c #199907",
".1 c #c3c8c5",
".2 c #fbfaf9",
".3 c #f58f72",
".4 c #ff722c",
".5 c #d6694b",
".6 c #ec7754",
".7 c #fa480b",
".8 c #fe460d",
"#` c #ff2b00",
"#. c #a14536",
"## c #d8e3e5",
"#a c #cce2cc",
"#b c #129908",
"#c c #7bb378",
"#d c #fcfdfb",
"#e c #fdfdfe",
"#f c #f8926c",
"#g c #fe9d5a",
"#h c #ff9352",
"#i c #fe8949",
"#j c #ff8345",
"#k c #ff5111",
"#l c #b73418",
"#m c #afb2b4",
"#n c #fbfcfb",
"#o c #c1d9c1",
"#p c #3a9538",
"#q c #bbd0bb",
"#r c #fbf2f2",
"#s c #fa9c70",
"#t c #feb772",
"#u c #fdb270",
"#v c #fda565",
"#w c #f37840",
"#x c #b0543d",
"#y c #acacae",
"#z c #fdfdfd",
"#A c #eaeaeb",
"#B c #cfd6ce",
"#C c #fce5e3",
"#D c #fea776",
"#E c #ffe9ad",
"#F c #ffc984",
"#G c #ffb873",
"#H c #e06335",
"#I c #b89592",
"#J c #fcfefc",
"#K c #fdf5f5",
"#L c #eb9978",
"#M c #e9a06c",
"#N c #f2a86e",
"#O c #fa9d5d",
"#P c #ff924c",
"#Q c #eb5524",
"#R c #d4c5c5",
"#S c #fdfcfc",
"#T c #f0eff1",
"#U c #ceb5b2",
"#V c #c9a49d",
"#W c #c38c80",
"#X c #c9806b",
"#Y c #b06b59",
"#Z c #cfcdce",
"#0 c #f9ffff",
"#1 c #e5f7fe",
"#2 c #dceef3",
"#3 c #000000",
"#4 c #000000",
"#5 c #000000",
"#6 c #000000",
"#7 c #000000",
"#8 c #000000",
"a` c #000000",
"a. c #000000",
"a# c #000000",
"aa c #000000",
"ab c #000000",
"ac c #000000",
"ad c #000000",
"ae c #000000",
"af c #000000",
"ag c #000000",
"ah c #000000",
"ai c #000000",
"aj c #000000",
"ak c #000000",
"al c #000000",
"am c #000000",
"an c #000000",
"ao c #000000",
"ap c #000000",
"aq c #000000",
"ar c #000000",
"as c #000000",
"at c #000000",
"au c #000000",
"av c #000000",
"aw c #000000",
"ax c #000000",
"ay c #000000",
"az c #000000",
"aA c #000000",
"aB c #000000",
"aC c #000000",
"aD c #000000",
"aE c #000000",
"aF c #000000",
"aG c #000000",
"aH c #000000",
"aI c #000000",
"aJ c #000000",
"aK c #000000",
"aL c #000000",
"aM c #000000",
"aN c #000000",
"aO c #000000",
"aP c #000000",
"aQ c #000000",
"aR c #000000",
"aS c #000000",
"aT c #000000",
"aU c #000000",
"aV c #000000",
"aW c #000000",
"aX c #000000",
"aY c #000000",
"aZ c #000000",
"a0 c #000000",
"a1 c #000000",
"a2 c #000000",
"a3 c #000000",
"a4 c #000000",
"a5 c #000000",
"a6 c #000000",
"a7 c #000000",
"a8 c #000000",
/* pixels */
"```.`#`a`b`c`d`e`f`g`h`i`j`.`.`.",
"```.`k`l`m`n`o`p`q`r`.`g`g`j`.`g",
"`.`s`g`t`u`v`w`x`y`z`g`A`B`g`C`.",
"`D`g`E`F`G`H`I`J`K`L`.`M`N`O`P`j",
"`g`Q`R`S`T`U`V`W`X`Y`.`g`Z`0`1`2",
"`3`4`5`6`7`8.`...#.a`g`i.b.c.d.e",
".f.g.h.i.j.k.l.m.n.o.p.q.r.s.t.u",
".v.w.x.y.z`g`g.A.B.C.D.E.F.G.H.I",
".J.K.L.M`g.N.O.P.Q.R.S.T.U.V.W.X",
".Y.Z.0.1``.2.E.3.4.5.6.7.8#`#.##",
"`g#a#b#c`g#d#e#f#g#h#i#j#k#l#m`g",
"#n`g#o#p#q.E#r#s#t#u#v#w#x#y`P#z",
"`.```g#A#B.E#C#D#E#F#G#H#I`g.D#z",
"`g`.#J`g`g`.#K#L#M#N#O#P#Q#R`.#S",
"`.`g`.`h```i.E#T#U#V#W#X#Y#Z.E#S",
"`.`.`g`.`g.E.O`g`g`g#0#1#2`g`.`."
};
