/* XPM */
static char *saveedit_xpm[] = {
/* width height num_colors chars_per_pixel */
"    16    16      256            2",
/* colors */
"`` c none",
"`. c #0871c2",
"`# c #023b67",
"`a c #faf29c",
"`b c #faf3a2",
"`c c #fbf3a9",
"`d c #fbf5b1",
"`e c #fcf7bc",
"`f c #fcf8c6",
"`g c #bfbcb7",
"`h c #d5d897",
"`i c #d6d99d",
"`j c #d6d9a4",
"`k c #d6daac",
"`l c #d7dbb5",
"`m c #d7dcbf",
"`n c #fdfad8",
"`o c #b1afaa",
"`p c #faf3a3",
"`q c #fbf4ac",
"`r c #fbf5b5",
"`s c #fcf7bf",
"`t c #fcf8ca",
"`u c #fdf9d5",
"`v c #fefbdf",
"`w c #fefcea",
"`x c #aeaba7",
"`y c #fbf5b2",
"`z c #d7daaf",
"`A c #d7dcb9",
"`B c #d7ddc1",
"`C c #d8decb",
"`D c #d9dfd3",
"`E c #dae0db",
"`F c #fefef8",
"`G c #fcf7c3",
"`H c #fdf9cd",
"`I c #fdfad9",
"`J c #fdfbe3",
"`K c #fefced",
"`L c #fefdf5",
"`M c #fffefc",
"`N c #ffffff",
"`O c #fdfbe0",
"`P c #fefce9",
"`Q c #fefdf2",
"`R c #fffef9",
"`S c #d6d7d7",
"`T c #c4c5c6",
"`U c #b6b6b8",
"`V c #aeaeb1",
"`W c #b0b1b3",
"`X c #bebdc0",
"`Y c #d1d1d1",
"`Z c #e5e4e4",
"`0 c #086bb7",
"`1 c #023a65",
"`2 c #cbcbcd",
"`3 c #bbbbbd",
"`4 c #afb0b2",
"`5 c #adaeb1",
"`6 c #043c67",
"`7 c #dddcdd",
"`8 c #efeeee",
".` c #075ea1",
".. c #023861",
".# c #c0c1c2",
".a c #b2b4b6",
".b c #adaeb0",
".c c #b2b3b5",
".d c #eae8e9",
".e c #f8f6f6",
".f c #065796",
".g c #02375f",
".h c #b7b8b9",
".i c #aeafb1",
".j c #bbbcbd",
".k c #f3f2f2",
".l c #faf8f8",
".m c #023156",
".n c #022e50",
".o c #9b9895",
".p c #b4b2ae",
".q c #b8b5b1",
".r c #aba8a4",
".s c #a4a29e",
".t c #a19e9b",
".u c #b0afab",
".v c #000000",
".w c #000000",
".x c #000000",
".y c #000000",
".z c #000000",
".A c #000000",
".B c #000000",
".C c #000000",
".D c #000000",
".E c #000000",
".F c #000000",
".G c #000000",
".H c #000000",
".I c #000000",
".J c #000000",
".K c #000000",
".L c #000000",
".M c #000000",
".N c #000000",
".O c #000000",
".P c #000000",
".Q c #000000",
".R c #000000",
".S c #000000",
".T c #000000",
".U c #000000",
".V c #000000",
".W c #000000",
".X c #000000",
".Y c #000000",
".Z c #000000",
".0 c #000000",
".1 c #000000",
".2 c #000000",
".3 c #000000",
".4 c #000000",
".5 c #000000",
".6 c #000000",
".7 c #000000",
".8 c #000000",
"#` c #000000",
"#. c #000000",
"## c #000000",
"#a c #000000",
"#b c #000000",
"#c c #000000",
"#d c #000000",
"#e c #000000",
"#f c #000000",
"#g c #000000",
"#h c #000000",
"#i c #000000",
"#j c #000000",
"#k c #000000",
"#l c #000000",
"#m c #000000",
"#n c #000000",
"#o c #000000",
"#p c #000000",
"#q c #000000",
"#r c #000000",
"#s c #000000",
"#t c #000000",
"#u c #000000",
"#v c #000000",
"#w c #000000",
"#x c #000000",
"#y c #000000",
"#z c #000000",
"#A c #000000",
"#B c #000000",
"#C c #000000",
"#D c #000000",
"#E c #000000",
"#F c #000000",
"#G c #000000",
"#H c #000000",
"#I c #000000",
"#J c #000000",
"#K c #000000",
"#L c #000000",
"#M c #000000",
"#N c #000000",
"#O c #000000",
"#P c #000000",
"#Q c #000000",
"#R c #000000",
"#S c #000000",
"#T c #000000",
"#U c #000000",
"#V c #000000",
"#W c #000000",
"#X c #000000",
"#Y c #000000",
"#Z c #000000",
"#0 c #000000",
"#1 c #000000",
"#2 c #000000",
"#3 c #000000",
"#4 c #000000",
"#5 c #000000",
"#6 c #000000",
"#7 c #000000",
"#8 c #000000",
"a` c #000000",
"a. c #000000",
"a# c #000000",
"aa c #000000",
"ab c #000000",
"ac c #000000",
"ad c #000000",
"ae c #000000",
"af c #000000",
"ag c #000000",
"ah c #000000",
"ai c #000000",
"aj c #000000",
"ak c #000000",
"al c #000000",
"am c #000000",
"an c #000000",
"ao c #000000",
"ap c #000000",
"aq c #000000",
"ar c #000000",
"as c #000000",
"at c #000000",
"au c #000000",
"av c #000000",
"aw c #000000",
"ax c #000000",
"ay c #000000",
"az c #000000",
"aA c #000000",
"aB c #000000",
"aC c #000000",
"aD c #000000",
"aE c #000000",
"aF c #000000",
"aG c #000000",
"aH c #000000",
"aI c #000000",
"aJ c #000000",
"aK c #000000",
"aL c #000000",
"aM c #000000",
"aN c #000000",
"aO c #000000",
"aP c #000000",
"aQ c #000000",
"aR c #000000",
"aS c #000000",
"aT c #000000",
"aU c #000000",
"aV c #000000",
"aW c #000000",
"aX c #000000",
"aY c #000000",
"aZ c #000000",
"a0 c #000000",
"a1 c #000000",
"a2 c #000000",
"a3 c #000000",
"a4 c #000000",
"a5 c #000000",
"a6 c #000000",
"a7 c #000000",
"a8 c #000000",
/* pixels */
"````````````````````````````````",
"`````.`.`#`#`#`#`#`#`#`#`.```#``",
"```#`.`.`a`a`a`b`c`d`e`f`.`.`#``",
"```#`.`.`a`h`i`j`k`l`m`n`.`.`#``",
"```#`.`.`p`q`r`s`t`u`v`w`.`.`#``",
"```#`.`.`y`z`A`B`C`D`E`F`.`.`#``",
"```#`.`.`G`H`I`J`K`L`M`N`.`.`#``",
"```#`.`.`u`O`P`Q`R`N`N`N`.`.`#``",
"```#`.`.`.`.`.`.`.`.`.`.`.`.`#``",
"```#`.`.`.`.`.`.`.`.`.`.`.`.`#``",
"```#`.`.`#`S`T`U`V`W`X`Y`Z`0`1``",
"```#`.`.`#`2`3`4`5`6`6`7`8.`..``",
"```#`.`.`#.#.a.b.c`6`6.d.e.f.g``",
"```#`.`.`#.h.i`4.j`6`6.k.l.f.g``",
"`````.`.`#...m.n.n.n.n.n.n.`````",
"````````````````````````````````"
};
