/* XPM */
static char *Setting_xpm[] = {
/* width height num_colors chars_per_pixel */
"    16    16      256            2",
/* colors */
"`` c None",
"`. c #fefefe",
"`# c #fdfdfd",
"`a c #d7d7e9",
"`b c #c3c3dc",
"`c c #cacad7",
"`d c #d8d8e7",
"`e c #babad2",
"`f c #ececf1",
"`g c #fcfcfd",
"`h c #c5c5de",
"`i c #e8e8f4",
"`j c #b8b8d0",
"`k c #bfbfd5",
"`l c #bfbfda",
"`m c #bfbfdd",
"`n c #9191ac",
"`o c #f7f7f4",
"`p c #fdfdfe",
"`q c #fbfbfc",
"`r c #cecee3",
"`s c #c9c9e0",
"`t c #cbcbe1",
"`u c #cfcfe4",
"`v c #dedeed",
"`w c #d2d2e8",
"`x c #c4c4e0",
"`y c #cacae4",
"`z c #83839b",
"`A c #e4e4e4",
"`B c #e9e9ef",
"`C c #e0e0ed",
"`D c #cfcfe5",
"`E c #f1f1f7",
"`F c #dedeec",
"`G c #d2d2e7",
"`H c #cbcbe4",
"`I c #d5d5e8",
"`J c #d2d2e6",
"`K c #c6c6e1",
"`L c #c6c6e2",
"`M c #b0b0ce",
"`N c #aaaaca",
"`O c #9696bb",
"`P c #c6c6cf",
"`Q c #f3f3f6",
"`R c #b7b7d2",
"`S c #e0e0f0",
"`T c #d4d4e9",
"`U c #e4e4f2",
"`V c #cdcdea",
"`W c #d4d4f0",
"`X c #d7d7eb",
"`Y c #c8c8e1",
"`Z c #c9c9e5",
"`0 c #b5b5db",
"`1 c #8585a1",
"`2 c #f4f4f1",
"`3 c #f1f1f5",
"`4 c #b3b3cb",
"`5 c #c8c8e0",
"`6 c #cfcfe7",
"`7 c #e4e4f1",
"`8 c #8e8eb5",
".` c #66668a",
".. c #9090ae",
".# c #b9bad6",
".a c #c9cae2",
".b c #c2c3dd",
".c c #b8bad7",
".d c #6e6ea0",
".e c #757589",
".f c #efefed",
".g c #c4c4d7",
".h c #b7b7d0",
".i c #d1d1e5",
".j c #d5d5e9",
".k c #d3d3ea",
".l c #686884",
".m c #c6c5c0",
".n c #ecece8",
".o c #c6c1da",
".p c #c6bfe8",
".q c #d0c8ed",
".r c #c1bbe4",
".s c #616185",
".t c #b5b5b7",
".u c #a8a8c2",
".v c #cccce3",
".w c #e4e4f4",
".x c #d6d6eb",
".y c #9b9bb4",
".z c #e5e5ea",
".A c #c0d6ce",
".B c #97bcab",
".C c #99c2aa",
".D c #a2c0b6",
".E c #b4b3d8",
".F c #8988ae",
".G c #d7d7db",
".H c #d8d8e1",
".I c #9b9bc6",
".J c #8a8abd",
".K c #b2b2d1",
".L c #cccce5",
".M c #b4b5d3",
".N c #cbc5eb",
".O c #8db6a2",
".P c #3fc127",
".Q c #7bee4a",
".R c #64c35c",
".S c #cac4f3",
".T c #797dab",
".U c #a5a8b0",
".V c #cfcfd5",
".W c #88889d",
".X c #9797bb",
".Y c #d1d1e9",
".Z c #c5c5df",
".0 c #c9c9e2",
".1 c #c5c6e0",
".2 c #ccc4ea",
".3 c #76b67c",
".4 c #65dd40",
".5 c #72ed42",
".6 c #62b460",
".7 c #8d8ac7",
".8 c #8e637a",
"#` c #bda4a3",
"#. c #bdbdd2",
"## c #bfbfdb",
"#a c #c5c5e2",
"#b c #c5c5e0",
"#c c #c5c4e1",
"#d c #c3c4de",
"#e c #49b43d",
"#f c #46c62a",
"#g c #5fb068",
"#h c #589263",
"#i c #a0a9b5",
"#j c #c14330",
"#k c #c0675b",
"#l c #fcfcfc",
"#m c #a9a9c4",
"#n c #bcbcdc",
"#o c #8888b7",
"#p c #8989bf",
"#q c #b9b9e3",
"#r c #c0bfdf",
"#s c #b0b1d0",
"#t c #29a11d",
"#u c #5db263",
"#v c #d0bdf0",
"#w c #9b91a9",
"#x c #cfa9a9",
"#y c #fb4a14",
"#z c #bd5d48",
"#A c #fffffe",
"#B c #dadae1",
"#C c #74749e",
"#D c #58587e",
"#E c #7b7b8b",
"#F c #9292bb",
"#G c #bebfe2",
"#H c #8883b4",
"#I c #247725",
"#J c #6b8d87",
"#K c #b8a9dc",
"#L c #e25f3e",
"#M c #e75e2a",
"#N c #fd5f14",
"#O c #b2695b",
"#P c #d6d6d9",
"#Q c #c4c4c4",
"#R c #fcfcf8",
"#S c #a3a3c1",
"#T c #7878b2",
"#U c #56547e",
"#V c #949d92",
"#W c #aab3b2",
"#X c #a08ca4",
"#Y c #fa7f37",
"#Z c #ffa03e",
"#0 c #dc531f",
"#1 c #b09e9e",
"#2 c #ceceda",
"#3 c #646487",
"#4 c #83848f",
"#5 c #f8f5f4",
"#6 c #f9e0da",
"#7 c #ec753e",
"#8 c #e87f3f",
"a` c #c84e2e",
"a. c #d3c5c5",
"a# c #fafafa",
"aa c #fefefd",
"ab c #e2e2da",
"ac c #f0f0ed",
"ad c #fffdfc",
"ae c #bfa9ab",
"af c #a59297",
"ag c #aea2a1",
"ah c #d5cac8",
"ai c #000000",
"aj c #000000",
"ak c #000000",
"al c #000000",
"am c #000000",
"an c #000000",
"ao c #000000",
"ap c #000000",
"aq c #000000",
"ar c #000000",
"as c #000000",
"at c #000000",
"au c #000000",
"av c #000000",
"aw c #000000",
"ax c #000000",
"ay c #000000",
"az c #000000",
"aA c #000000",
"aB c #000000",
"aC c #000000",
"aD c #000000",
"aE c #000000",
"aF c #000000",
"aG c #000000",
"aH c #000000",
"aI c #000000",
"aJ c #000000",
"aK c #000000",
"aL c #000000",
"aM c #000000",
"aN c #000000",
"aO c #000000",
"aP c #000000",
"aQ c #000000",
"aR c #000000",
"aS c #000000",
"aT c #000000",
"aU c #000000",
"aV c #000000",
"aW c #000000",
"aX c #000000",
"aY c #000000",
"aZ c #000000",
"a0 c #000000",
"a1 c #000000",
"a2 c #000000",
"a3 c #000000",
"a4 c #000000",
"a5 c #000000",
"a6 c #000000",
"a7 c #000000",
"a8 c #000000",
/* pixels */
"```.`.`.`#`a`b`c```d`e`f```g`.``",
"`.```.`g```h`i`j`k`l`m`n`o```#`.",
"`p`q`r`s`t`u`v`w`x`w`y`z`A`B`.`.",
"```C`D`E`F`G`H`I`J`K`L`M`N`O`P``",
"`p`Q`R`S`T`G`U`V`W`X`Y`L`Z`0`1`2",
"```3`4`5`6`7`8.`...#.a.b.c.d.e.f",
".g.h.i.j`G.k.l.m.n.o.p.q.r.s.t``",
".u.v.w`G`H.x.y.z``.A.B.C.D.E.F.G",
".H.I.J.K.L`D`K.M.N.O.P.Q.R.S.T.U",
"``.V.W.X.Y.Z.0.1.2.3.4.5.6.7.8#`",
"`g``#.##.L#a#b#c#d#e#f#g#h#i#j#k",
"`##l#m#n#o#p#q#r#s#t#u#v#w#x#y#z",
"`q#A#B#C#D#E#F#G#H#I#J#K#L#M#N#O",
"`.`#``#P#Q#R#S#T#U#V#W#X#Y#Z#0#1",
"`.`.`.``````#2#3#4#5``#6#7#8a`a.",
"`````.#la#aa``abac``a#adaeafagah"
};
