/* XPM */
static char *split_xpm[] = {
/* width height num_colors chars_per_pixel */
"    16    16      256            2",
/* colors */
"`` c none",
"`. c #94c7de",
"`# c #63a6d6",
"`a c #3992c6",
"`b c #3182ad",
"`c c #63a6ce",
"`d c #94c3de",
"`e c #000000",
"`f c #abc6da",
"`g c #5fa6cd",
"`h c #7bb6da",
"`i c #fffffe",
"`j c #fdfefe",
"`k c #fafbfd",
"`l c #f7f8fb",
"`m c #70b0d4",
"`n c #64a4cd",
"`o c #a5c4d4",
"`p c #a0bace",
"`q c #62a7d0",
"`r c #fdfcfd",
"`s c #f9fafc",
"`t c #f6f7fb",
"`u c #f1f3fa",
"`v c #edeef8",
"`w c #e7eaf6",
"`x c #589ac8",
"`y c #fefefd",
"`z c #fbfbfd",
"`A c #f7f9fc",
"`B c #f4f6fa",
"`C c #eff1f9",
"`D c #eaedf7",
"`E c #e5e8f5",
"`F c #9cbfd9",
"`G c #569ecd",
"`H c #fcfdfd",
"`I c #fafbfc",
"`J c #f6f8fb",
"`K c #edeff8",
"`L c #e8ebf6",
"`M c #dde1f2",
"`N c #d7ddf1",
"`O c #d2d8ef",
"`P c #31679c",
"`Q c #7a8a98",
"`R c #478ec2",
"`S c #fcfbfd",
"`T c #f8f9fc",
"`U c #f0f2f9",
"`V c #ebeef7",
"`W c #e1e4f4",
"`X c #dbdff2",
"`Y c #d5daf0",
"`Z c #d0d6ee",
"`0 c #c9d1ec",
"`1 c #c4ccea",
"`2 c #0c2643",
"`3 c #3979b5",
"`4 c #f7f7fb",
"`5 c #f2f4fa",
"`6 c #eef0f9",
"`7 c #e3e7f5",
"`8 c #dee3f3",
".` c #d9ddf2",
".. c #d3d8f0",
".# c #ccd3ed",
".a c #c6ceeb",
".b c #c0cae9",
".c c #bbc5e8",
".d c #101418",
".e c #e6eaf6",
".f c #e1e5f4",
".g c #dce1f2",
".h c #d5dbf1",
".i c #d0d6ef",
".j c #cbd1ec",
".k c #c4cdeb",
".l c #bec8e9",
".m c #b9c3e7",
".n c #b3bfe5",
".o c #0d1014",
".p c #e4e8f5",
".q c #dfe3f3",
".r c #d9dff1",
".s c #d3d9ef",
".t c #cdd4ee",
".u c #c8cfeb",
".v c #c2cae9",
".w c #bcc6e8",
".x c #b7c1e6",
".y c #b1bce5",
".z c #adb8e3",
".A c #282f38",
".B c #8fafd1",
".C c #769ed5",
".D c #d7dcf0",
".E c #d0d7ee",
".F c #cbd3ed",
".G c #c5cdeb",
".H c #bfc9e9",
".I c #b9c4e7",
".J c #b4bfe6",
".K c #afbae4",
".L c #abb6e2",
".M c #243f79",
".N c #697076",
".O c #bfc4ce",
".P c #6890cf",
".Q c #d4daf0",
".R c #cfd5ee",
".S c #c8d0ec",
".T c #c3cbea",
".U c #b7c2e7",
".V c #b2bde5",
".W c #a8b4e2",
".X c #a4b1e0",
".Y c #2a334a",
".Z c #969897",
".0 c #92a8cc",
".1 c #39527b",
".2 c #c0c9ea",
".3 c #bac4e7",
".4 c #b5bfe6",
".5 c #b0bbe4",
".6 c #a6b3e1",
".7 c #a2b0e0",
".8 c #333c59",
"#` c #5d6163",
"#. c #7c7e82",
"## c #262e35",
"#a c #2e4778",
"#b c #b3bde5",
"#c c #adb9e3",
"#d c #a9b5e2",
"#e c #a5b2e0",
"#f c #333a5a",
"#g c #262b2e",
"#h c #717274",
"#i c #6b6d73",
"#j c #313842",
"#k c #313442",
"#l c #6b696b",
"#m c #000000",
"#n c #000000",
"#o c #000000",
"#p c #000000",
"#q c #000000",
"#r c #000000",
"#s c #000000",
"#t c #000000",
"#u c #000000",
"#v c #000000",
"#w c #000000",
"#x c #000000",
"#y c #000000",
"#z c #000000",
"#A c #000000",
"#B c #000000",
"#C c #000000",
"#D c #000000",
"#E c #000000",
"#F c #000000",
"#G c #000000",
"#H c #000000",
"#I c #000000",
"#J c #000000",
"#K c #000000",
"#L c #000000",
"#M c #000000",
"#N c #000000",
"#O c #000000",
"#P c #000000",
"#Q c #000000",
"#R c #000000",
"#S c #000000",
"#T c #000000",
"#U c #000000",
"#V c #000000",
"#W c #000000",
"#X c #000000",
"#Y c #000000",
"#Z c #000000",
"#0 c #000000",
"#1 c #000000",
"#2 c #000000",
"#3 c #000000",
"#4 c #000000",
"#5 c #000000",
"#6 c #000000",
"#7 c #000000",
"#8 c #000000",
"a` c #000000",
"a. c #000000",
"a# c #000000",
"aa c #000000",
"ab c #000000",
"ac c #000000",
"ad c #000000",
"ae c #000000",
"af c #000000",
"ag c #000000",
"ah c #000000",
"ai c #000000",
"aj c #000000",
"ak c #000000",
"al c #000000",
"am c #000000",
"an c #000000",
"ao c #000000",
"ap c #000000",
"aq c #000000",
"ar c #000000",
"as c #000000",
"at c #000000",
"au c #000000",
"av c #000000",
"aw c #000000",
"ax c #000000",
"ay c #000000",
"az c #000000",
"aA c #000000",
"aB c #000000",
"aC c #000000",
"aD c #000000",
"aE c #000000",
"aF c #000000",
"aG c #000000",
"aH c #000000",
"aI c #000000",
"aJ c #000000",
"aK c #000000",
"aL c #000000",
"aM c #000000",
"aN c #000000",
"aO c #000000",
"aP c #000000",
"aQ c #000000",
"aR c #000000",
"aS c #000000",
"aT c #000000",
"aU c #000000",
"aV c #000000",
"aW c #000000",
"aX c #000000",
"aY c #000000",
"aZ c #000000",
"a0 c #000000",
"a1 c #000000",
"a2 c #000000",
"a3 c #000000",
"a4 c #000000",
"a5 c #000000",
"a6 c #000000",
"a7 c #000000",
"a8 c #000000",
/* pixels */
"````````````````````````````````",
"```````````.`#`a`b`c`d`````````e",
"```````f`g`h`i`j`k`l`m`n`o```e``",
"`````p`q`i`i`r`s`t`u`v`w`e`e````",
"`````x`i`y`z`A`B`C`D`E`e`e`e````",
"```F`G`H`I`J`u`K`L`e`M`N`O`P`Q``",
"```R`S`T`B`U`V`e`W`X`Y`Z`0`1`2``",
"```3`4`5`6`e`7`8.`...#.a.b.c.d``",
"```e`e`e.e.f.g.h.i.j.k.l.m.n.o``",
"```e`e.p.q.r.s.t.u.v.w.x.y.z.A``",
"`e.B.C.g.D.E.F.G.H.I.J.K.L.M.N``",
"``.O.P.Q.R.S.T.w.U.V.z.W.X.Y.Z``",
"````.0.1.a.2.3.4.5.L.6.7.8#`````",
"``````#.###a#b#c#d#e#f#g#h``````",
"``````````#i#j.d`e#k#l``````````",
"````````````````````````````````"
};
