/* XPM */
static char *startedit_xpm[] = {
/* width height num_colors chars_per_pixel */
"    16    16      256            2",
/* colors */
"`` c None",
"`. c #fffeff",
"`# c #fcfdfc",
"`a c #ffffff",
"`b c #eef4ed",
"`c c #8bbb87",
"`d c #519f48",
"`e c #439b3a",
"`f c #439c39",
"`g c #499d3f",
"`h c #61a559",
"`i c #afcdab",
"`j c #fbfcfb",
"`k c #bed8bb",
"`l c #378f2d",
"`m c #42a238",
"`n c #77bf6f",
"`o c #9acb95",
"`p c #9fcd9a",
"`q c #8dc887",
"`r c #64b75b",
"`s c #37992c",
"`t c #569d4e",
"`u c #e6eee5",
"`v c #fafcf9",
"`w c #bcd7b9",
"`x c #28891d",
"`y c #6ec065",
"`z c #a7d5a2",
"`A c #c2d4c0",
"`B c #d4d5d4",
"`C c #c6d3c4",
"`D c #b7d4b3",
"`E c #9ad593",
"`F c #4eaa44",
"`G c #3f8e37",
"`H c #e8ede8",
"`I c #fefffe",
"`J c #fdfdfd",
"`K c #e7f0e6",
"`L c #368f2c",
"`M c #69c15f",
"`N c #8ccf84",
"`O c #9ecc98",
"`P c #b6d1b3",
"`Q c #c7d3c6",
"`R c #c8d3c7",
"`S c #bfd2bc",
"`T c #aacfa6",
"`U c #a3c99e",
"`V c #d7e3d6",
"`W c #55ab4b",
"`X c #5a9a53",
"`Y c #fcfafc",
"`Z c #85b77f",
"`0 c #46a73b",
"`1 c #77ce6e",
"`2 c #7bc773",
"`3 c #94cc8e",
"`4 c #aacfa5",
"`5 c #b6d1b4",
"`6 c #bad2b8",
"`7 c #b1d1ae",
"`8 c #accaa8",
".` c #f0f0f0",
".. c #e6eee6",
".# c #7bc973",
".a c #319026",
".b c #b4c7b2",
".c c #f1f5f0",
".d c #4a9a40",
".e c #65c15b",
".f c #6cc762",
".g c #75c86c",
".h c #87ca80",
".i c #96cc90",
".j c #a2ce9d",
".k c #a4cf9f",
".l c #a4ca9f",
".m c #eceeec",
".n c #e9f2e8",
".o c #7ac972",
".p c #52b048",
".q c #679c61",
".r c #bed2bb",
".s c #459b3c",
".t c #72c968",
".u c #6dc563",
".v c #6ec864",
".w c #6fc766",
".x c #82ca7b",
".y c #8ccc85",
".z c #89c683",
".A c #dae4da",
".B c #fdfafe",
".C c #bcbfbd",
".D c #74be6c",
".E c #64c059",
".F c #4c9144",
".G c #aec8ab",
".H c #489c3f",
".I c #7dcc74",
".J c #68c65f",
".K c #69c160",
".L c #94c88e",
".M c #72c769",
".N c #6cc563",
".O c #afd2ac",
".P c #f7f2f7",
".Q c #99aa97",
".R c #62aa5a",
".S c #77c86d",
".T c #6cc162",
".U c #458d3d",
".V c #bcd1b9",
".W c #4c9c43",
".X c #80c777",
".Y c #8ec389",
".Z c #e3eee1",
".0 c #fff9ff",
".1 c #7dc575",
".2 c #65c05b",
".3 c #f5f6f4",
".4 c #faf6fb",
".5 c #8fa78d",
".6 c #5db653",
".7 c #75ce6b",
".8 c #7dcb75",
"#` c #6cbe63",
"#. c #468b3e",
"## c #f1f3f0",
"#a c #4e9b46",
"#b c #77bd6f",
"#c c #7e9a7b",
"#d c #cac5cb",
"#e c #cae1c8",
"#f c #b2d8ae",
"#g c #fffdff",
"#h c #97af94",
"#i c #50b746",
"#j c #6acb5f",
"#k c #6fc466",
"#l c #85ce7d",
"#m c #5aaf51",
"#n c #5a8d54",
"#o c #83b37d",
"#p c #56ac4d",
"#q c #7cce72",
"#r c #509649",
"#s c #a5aba5",
"#t c #fffbff",
"#u c #b1bdaf",
"#v c #3fae34",
"#w c #58c94b",
"#x c #62c457",
"#y c #6ec564",
"#z c #88d181",
"#A c #2e8824",
"#B c #96a694",
"#C c #fdfefd",
"#D c #e7ede6",
"#E c #368b2d",
"#F c #6dc364",
"#G c #68d15d",
"#H c #3ca032",
"#I c #9fab9e",
"#J c #d5d0d6",
"#K c #3ba830",
"#L c #3dc52f",
"#M c #4ec142",
"#N c #5bc350",
"#O c #7ecf74",
"#P c #54ae4a",
"#Q c #3c7435",
"#R c #ebe6eb",
"#S c #fafcfa",
"#T c #b6ccb3",
"#U c #26851c",
"#V c #58bf4d",
"#W c #51d144",
"#X c #3da532",
"#Y c #4b9943",
"#Z c #28c118",
"#0 c #3bbf2d",
"#1 c #4ec541",
"#2 c #68cd5e",
"#3 c #4fb144",
"#4 c #236d1b",
"#5 c #c1c1c1",
"#6 c #fefefe",
"#7 c #fcfcfb",
"#8 c #b5c8b3",
"a` c #2f8326",
"a. c #2b9d1e",
"a# c #34bc25",
"aa c #27be17",
"ab c #2fc020",
"ac c #39bf2a",
"ad c #3eb531",
"ae c #288f1d",
"af c #326e2a",
"ag c #b9bab9",
"ah c #dee0de",
"ai c #769c72",
"aj c #3d8735",
"ak c #318b27",
"al c #2c8a21",
"am c #318627",
"an c #417c3a",
"ao c #788f76",
"ap c #ded9df",
"aq c #f9fbf9",
"ar c #ddd5de",
"as c #a6a9a6",
"at c #979d96",
"au c #a9a7a9",
"av c #e2d5e4",
"aw c #fafbfa",
"ax c #000000",
"ay c #000000",
"az c #000000",
"aA c #000000",
"aB c #000000",
"aC c #000000",
"aD c #000000",
"aE c #000000",
"aF c #000000",
"aG c #000000",
"aH c #000000",
"aI c #000000",
"aJ c #000000",
"aK c #000000",
"aL c #000000",
"aM c #000000",
"aN c #000000",
"aO c #000000",
"aP c #000000",
"aQ c #000000",
"aR c #000000",
"aS c #000000",
"aT c #000000",
"aU c #000000",
"aV c #000000",
"aW c #000000",
"aX c #000000",
"aY c #000000",
"aZ c #000000",
"a0 c #000000",
"a1 c #000000",
"a2 c #000000",
"a3 c #000000",
"a4 c #000000",
"a5 c #000000",
"a6 c #000000",
"a7 c #000000",
"a8 c #000000",
/* pixels */
"```.`#`a`b`c`d`e`f`g`h`i`a`a`#`.",
"`.`j`a`k`l`m`n`o`p`q`r`s`t`u`a`#",
"`v`a`w`x`y`z`A`B`B`C`D`E`F`G`H`I",
"`J`K`L`M`N`O`P`Q`R`S`T`U`V`W`X`Y",
"`a`Z`0`1`2`3`4`5`6`7`8.`...#.a.b",
".c.d.e.f.g.h.i.j.k.l.m`a.n.o.p.q",
".r.s.t.u.v.w.x.y.z.A`a.B.C.D.E.F",
".G.H.I.J.K.L.M.N.O`a.P.Q.R.S.T.U",
".V.W.X.Y.Z.0.1.2.3.4.5.6.7.8#`#.",
"###a#b#c#d`a#e#f#g#h#i#j#k#l#m#n",
"`a#o#p#q#r#s#t`a#u#v#w#x#y#z#A#B",
"#C#D#E#F#G#H#I#J#K#L#M#N#O#P#Q#R",
"#S`a#T#U#V#W#X#Y#Z#0#1#2#3#4#5`a",
"#6#7`a#8a`a.a#aaabacadaeafag`a`#",
"`a#6`#`aahaiajakalamanaoap`a`##6",
"#6`a#6aq`a`aarasatauav`a`aaw#6`a"
};
