/* XPM */
static char *stopedit_xpm[] = {
/* width height num_colors chars_per_pixel */
"    16    16      256            2",
/* colors */
"`` c #fffefe",
"`. c #feffff",
"`# c #fefdfc",
"`a c #fefdfe",
"`b c #facec6",
"`c c #f6aa98",
"`d c #f59a87",
"`e c #f39682",
"`f c #efa191",
"`g c #f2cdc7",
"`h c #fbffff",
"`i c None",
"`j c #fdfcfc",
"`k c #fefefe",
"`l c #fce3e0",
"`m c #f89077",
"`n c #f98868",
"`o c #fc8a66",
"`p c #fd7a50",
"`q c #fd673a",
"`r c #fb5526",
"`s c #f44a1f",
"`t c #e66e56",
"`u c #eddfdf",
"`v c #fdfbfb",
"`w c #fbded9",
"`x c #f78063",
"`y c #fea07e",
"`z c #ff9269",
"`A c #fe7648",
"`B c #fe6b3c",
"`C c #fe5e2e",
"`D c #fe5624",
"`E c #ff3f0a",
"`F c #fe2c00",
"`G c #e03e20",
"`H c #e4d4d3",
"`I c #fdf4f3",
"`J c #f6886d",
"`K c #fea483",
"`L c #fb815a",
"`M c #e67053",
"`N c #e96b4d",
"`O c #fe6635",
"`P c #fe5f2f",
"`Q c #fc5123",
"`R c #f9927a",
"`S c #fd6740",
"`T c #ff2800",
"`U c #cd452c",
"`V c #eaecee",
"`W c #fffdfd",
"`X c #f8b4a6",
"`Y c #fb8a69",
"`Z c #ff9770",
"`0 c #f2582e",
"`1 c #d9ccce",
"`2 c #e4d6d3",
"`3 c #f85326",
"`4 c #fe4b17",
"`5 c #f8b9a9",
"`6 c #fc8a6a",
"`7 c #ff2f01",
"`8 c #e21900",
".` c #c28b86",
".. c #fdffff",
".# c #fcfbfb",
".a c #f48b72",
".b c #fe8e6a",
".c c #fe7345",
".d c #fd612f",
".e c #e69989",
".f c #e6ffff",
".g c #f39f8d",
".h c #f9ab98",
".i c #fcffff",
".j c #ffc0ad",
".k c #fe3200",
".l c #fd3503",
".m c #ea1f01",
".n c #b33e31",
".o c #e9f2f3",
".p c #f6e1e0",
".q c #f57f62",
".r c #ff7c52",
".s c #fd6030",
".t c #ff6534",
".u c #f65f39",
".v c #e9e0e0",
".w c #f1f9fb",
".x c #f9ffff",
".y c #feddd3",
".z c #fd4d1d",
".A c #fe3503",
".B c #f93202",
".C c #e52000",
".D c #af2111",
".E c #d2d1d1",
".F c #f3d7d6",
".G c #f47658",
".H c #fe683b",
".I c #fe5726",
".J c #ff4d1a",
".K c #f56643",
".L c #ebddda",
".M c #f2efee",
".N c #fafcfb",
".O c #febda9",
".P c #fe3300",
".Q c #fc2c00",
".R c #f32e00",
".S c #db1d00",
".T c #a91508",
".U c #c8c1c1",
".V c #f4ebec",
".W c #f07154",
".X c #fe5b2b",
".Y c #fd4310",
".Z c #e9866f",
".0 c #e1e5e6",
".1 c #e9eff1",
".2 c #f0f9fc",
".3 c #f8fafa",
".4 c #fec4b1",
".5 c #f8461e",
".6 c #eb2701",
".7 c #cc1400",
".8 c #a01d14",
"#` c #cbcdcd",
"#. c #e9816c",
"## c #fe4715",
"#a c #fb4313",
"#b c #dcc7c2",
"#c c #ddf1f6",
"#d c #e9dedb",
"#e c #f8886a",
"#f c #f7e6df",
"#g c #faffff",
"#h c #fca589",
"#i c #db1700",
"#j c #bc0a00",
"#k c #963833",
"#l c #dee9ea",
"#m c #ebc6c2",
"#n c #f23206",
"#o c #fd4819",
"#p c #d9ccc9",
"#q c #e4c4b9",
"#r c #fb5b32",
"#s c #ff2200",
"#t c #fa5f35",
"#u c #f8e2d8",
"#v c #fcb9a4",
"#w c #e83815",
"#x c #c11001",
"#y c #a90400",
"#z c #9b807f",
"#A c #fafeff",
"#B c #fefbfa",
"#C c #db7b6c",
"#D c #f61c00",
"#E c #fd4c1e",
"#F c #fa3907",
"#G c #fa2700",
"#H c #f53003",
"#I c #ef2400",
"#J c #ee360d",
"#K c #e01f00",
"#L c #c11100",
"#M c #b50200",
"#N c #883935",
"#O c #d5dedf",
"#P c #f3f6f7",
"#Q c #ce6657",
"#R c #e21200",
"#S c #f02200",
"#T c #ed2b02",
"#U c #e82801",
"#V c #e02503",
"#W c #d11800",
"#X c #bf0d00",
"#Y c #af0100",
"#Z c #872f2c",
"#0 c #bbc2c3",
"#1 c #fdfdfd",
"#2 c #f3fcfd",
"#3 c #c69390",
"#4 c #b93123",
"#5 c #bd1100",
"#6 c #bd0b00",
"#7 c #b50700",
"#8 c #a80800",
"a` c #981a15",
"a. c #8f615f",
"a# c #c9d1d2",
"aa c #e3e7e9",
"ab c #c3adae",
"ac c #b08786",
"ad c #aa8281",
"ae c #ad9999",
"af c #c4c9ca",
"ag c #f1fafa",
"ah c #fef9f8",
"ai c #fbfbfb",
"aj c #000000",
"ak c #000000",
"al c #000000",
"am c #000000",
"an c #000000",
"ao c #000000",
"ap c #000000",
"aq c #000000",
"ar c #000000",
"as c #000000",
"at c #000000",
"au c #000000",
"av c #000000",
"aw c #000000",
"ax c #000000",
"ay c #000000",
"az c #000000",
"aA c #000000",
"aB c #000000",
"aC c #000000",
"aD c #000000",
"aE c #000000",
"aF c #000000",
"aG c #000000",
"aH c #000000",
"aI c #000000",
"aJ c #000000",
"aK c #000000",
"aL c #000000",
"aM c #000000",
"aN c #000000",
"aO c #000000",
"aP c #000000",
"aQ c #000000",
"aR c #000000",
"aS c #000000",
"aT c #000000",
"aU c #000000",
"aV c #000000",
"aW c #000000",
"aX c #000000",
"aY c #000000",
"aZ c #000000",
"a0 c #000000",
"a1 c #000000",
"a2 c #000000",
"a3 c #000000",
"a4 c #000000",
"a5 c #000000",
"a6 c #000000",
"a7 c #000000",
"a8 c #000000",
/* pixels */
"```.`#`.`a`b`c`d`e`f`g`h`i`j`k`i",
"`.`j`.`l`m`n`o`p`q`r`s`t`u`i`j`k",
"`v`.`w`x`y`z`A`B`C`D`E`F`G`H`i`j",
"`#`I`J`K`L`M`N`O`P`Q`R`S`T`U`V`W",
"`i`X`Y`Z`0`1`2`3`4`5`h`6`7`8.`..",
".#.a.b.c.d.e.f.g.h.i.j.k.l.m.n.o",
".p.q.r.s.t.u.v.w.x.y.z.A.B.C.D.E",
".F.G.H.I.J.K.L.M.N.O.P.Q.R.S.T.U",
".V.W.X.Y.Z.0.1.2.3`..4.5.6.7.8#`",
".i#.###a#b#c#d#e#f#g`i#h#i#j#k#l",
"`i#m#n#o#p#q#r#s#t#u#v#w#x#y#z#A",
"#B`h#C#D#E#F#G#H#I#J#K#L#M#N#O``",
"`j`W#P#Q#R#S#T#U#V#W#X#Y#Z#0`i#1",
"`k#1`i#2#3#4#5#6#7#8a`a.a#`i`j#1",
"`i`k#1```iaaabacadaeafag`i#1`k`k",
"`k`i`i#1ah`i`i`i`i`i`i`iai`k`i`i"
};
