/* XPM */
static char *_2dseismic_xpm[] = {
/* width height num_colors chars_per_pixel */
"    16    16      256            2",
/* colors */
"`` c #d4d0c8",
"`. c #05356d",
"`# c #bbc0c3",
"`a c #b0bac1",
"`b c #a4b2bf",
"`c c #97aabd",
"`d c #89a1ba",
"`e c #7c99b8",
"`f c #6f91b6",
"`g c #6188b3",
"`h c #5480b1",
"`i c #4878af",
"`j c #3d72ad",
"`k c #326bab",
"`l c #2a66a9",
"`m c #feffff",
"`n c #fbfdfe",
"`o c #f7fbff",
"`p c #f4f9ff",
"`q c #eff7fe",
"`r c #ebf4fe",
"`s c #e7f2fe",
"`t c #e2f1fd",
"`u c #dfeefd",
"`v c #dcedfd",
"`w c #d7eafd",
"`x c #d6eafc",
"`y c #fcfeff",
"`z c #f9fcfe",
"`A c #f5faff",
"`B c #f0f8fe",
"`C c #ecf5fe",
"`D c #e7f3fe",
"`E c #e3f0fd",
"`F c #deeefd",
"`G c #dbecfd",
"`H c #d6ebfd",
"`I c #d1e8fc",
"`J c #d0e7fd",
"`K c #fbfdff",
"`L c #f2f9fe",
"`M c #eef6ff",
"`N c #e9f3fe",
"`O c #e4f2fe",
"`P c #dfeffd",
"`Q c #daecfd",
"`R c #d5e9fd",
"`S c #d1e7fc",
"`T c #cae3fc",
"`U c #f9fcff",
"`V c #08299c",
"`W c #082194",
"`X c #081994",
"`Y c #00108c",
"`Z c #e1f0fd",
"`0 c #dbedfd",
"`1 c #d1e8fd",
"`2 c #cde6fc",
"`3 c #c6e2fc",
"`4 c #c4e1fc",
"`5 c #0842a5",
"`6 c #ffffff",
"`7 c #dfeefe",
"`8 c #d9ecfd",
".` c #d4e8fc",
".. c #cde6fd",
".# c #c9e3fc",
".a c #bfdefc",
".b c #1052ad",
".c c #848484",
".d c #5a5a5a",
".e c #bdb5b5",
".f c #636363",
".g c #6b6b6b",
".h c #cbe5fc",
".i c #bedefc",
".j c #bbdcfb",
".k c #105ab5",
".l c #4a4a4a",
".m c #b58442",
".n c #ded6de",
".o c #cfe7fd",
".p c #b8dafc",
".q c #1063bd",
".r c #f7f7f7",
".s c #000084",
".t c #525252",
".u c #d6d6d6",
".v c #cecece",
".w c #106bbd",
".x c #efefef",
".y c #e6e6e6",
".z c #c5c5c5",
".A c #adada5",
".B c #1973c5",
".C c #efe6e6",
".D c #dedede",
".E c #424242",
".F c #4a524a",
".G c #3a3a3a",
".H c #a5a59c",
".I c #cec5ce",
".J c #292929",
".K c #ada5a5",
".L c none",
".M c #000000",
".N c #000000",
".O c #000000",
".P c #000000",
".Q c #000000",
".R c #000000",
".S c #000000",
".T c #000000",
".U c #000000",
".V c #000000",
".W c #000000",
".X c #000000",
".Y c #000000",
".Z c #000000",
".0 c #000000",
".1 c #000000",
".2 c #000000",
".3 c #000000",
".4 c #000000",
".5 c #000000",
".6 c #000000",
".7 c #000000",
".8 c #000000",
"#` c #000000",
"#. c #000000",
"## c #000000",
"#a c #000000",
"#b c #000000",
"#c c #000000",
"#d c #000000",
"#e c #000000",
"#f c #000000",
"#g c #000000",
"#h c #000000",
"#i c #000000",
"#j c #000000",
"#k c #000000",
"#l c #000000",
"#m c #000000",
"#n c #000000",
"#o c #000000",
"#p c #000000",
"#q c #000000",
"#r c #000000",
"#s c #000000",
"#t c #000000",
"#u c #000000",
"#v c #000000",
"#w c #000000",
"#x c #000000",
"#y c #000000",
"#z c #000000",
"#A c #000000",
"#B c #000000",
"#C c #000000",
"#D c #000000",
"#E c #000000",
"#F c #000000",
"#G c #000000",
"#H c #000000",
"#I c #000000",
"#J c #000000",
"#K c #000000",
"#L c #000000",
"#M c #000000",
"#N c #000000",
"#O c #000000",
"#P c #000000",
"#Q c #000000",
"#R c #000000",
"#S c #000000",
"#T c #000000",
"#U c #000000",
"#V c #000000",
"#W c #000000",
"#X c #000000",
"#Y c #000000",
"#Z c #000000",
"#0 c #000000",
"#1 c #000000",
"#2 c #000000",
"#3 c #000000",
"#4 c #000000",
"#5 c #000000",
"#6 c #000000",
"#7 c #000000",
"#8 c #000000",
"a` c #000000",
"a. c #000000",
"a# c #000000",
"aa c #000000",
"ab c #000000",
"ac c #000000",
"ad c #000000",
"ae c #000000",
"af c #000000",
"ag c #000000",
"ah c #000000",
"ai c #000000",
"aj c #000000",
"ak c #000000",
"al c #000000",
"am c #000000",
"an c #000000",
"ao c #000000",
"ap c #000000",
"aq c #000000",
"ar c #000000",
"as c #000000",
"at c #000000",
"au c #000000",
"av c #000000",
"aw c #000000",
"ax c #000000",
"ay c #000000",
"az c #000000",
"aA c #000000",
"aB c #000000",
"aC c #000000",
"aD c #000000",
"aE c #000000",
"aF c #000000",
"aG c #000000",
"aH c #000000",
"aI c #000000",
"aJ c #000000",
"aK c #000000",
"aL c #000000",
"aM c #000000",
"aN c #000000",
"aO c #000000",
"aP c #000000",
"aQ c #000000",
"aR c #000000",
"aS c #000000",
"aT c #000000",
"aU c #000000",
"aV c #000000",
"aW c #000000",
"aX c #000000",
"aY c #000000",
"aZ c #000000",
"a0 c #000000",
"a1 c #000000",
"a2 c #000000",
"a3 c #000000",
"a4 c #000000",
"a5 c #000000",
"a6 c #000000",
"a7 c #000000",
"a8 c #000000",
/* pixels */
".L.L.L.L.L.L.L.L.L.L.L.L.L.L.L.L",
".L.L`.`.`.`.`.`.`.`.`.`.`.`.`..L",
".L`.`#`a`b`c`d`e`f`g`h`i`j`k`l`.",
".L`.`.`.`.`.`.`.`.`.`.`.`.`.`.`.",
".L`.`m`n`o`p`q`r`s`t`u`v`.`w`x`.",
".L`.`y`z`A`B`C`D`E`F`G`H`.`I`J`.",
".L`.`K`o`L`M`N`O`P`Q`R`S`.`.`T`.",
".L`.`U`V`W`X`Y`Z`0`w`1`2`.`3`4`.",
".L`.`5`6`6`6`X`7`8.`...#`.`..a`.",
".L.b`6.c.d.d.e.f.g`S.h`3`..i.j`.",
".L.k`6.l.c.m.d.n.f.o`T`4`..j.p`.",
".L.q`6.r.s.t.u.v.f`.`.`.`.`.`.`.",
".L.w.x.y.n.v.z.z.d.L.L.L.L.L.L.L",
".B.C.D.u.E.z.F.t.L.L.L.L.L.L.L.L",
".y.n.v.G.G.E.l.L.L.L.L.L.L.L.L.L",
".u.I.J.L.L.L.L.L.L.L.L.L.L.L.L.L"
};
