/* XPM */
static char *_3dseismic_xpm[] = {
/* width height num_colors chars_per_pixel */
"    16    16      256            2",
/* colors */
"`` c #d4d0c8",
"`. c #05356d",
"`# c #fffc00",
"`a c #ff0000",
"`b c #27fd03",
"`c c #6497ce",
"`d c #5a90c8",
"`e c #5187c3",
"`f c #4780be",
"`g c #3e77b7",
"`h c #3570b2",
"`i c #2c69ad",
"`j c #2462a8",
"`k c #1d5ca4",
"`l c #16569f",
"`m c #0f519b",
"`n c #0a4c99",
"`o c #064996",
"`p c #f0d271",
"`q c #fbe56c",
"`r c #eed04e",
"`s c #dcaa3f",
"`t c #daa53f",
"`u c #d6b73f",
"`v c #dec13f",
"`w c #f3923f",
"`x c #e4623f",
"`y c #99773f",
"`z c #4fa63f",
"`A c #3fba3f",
"`B c #4bc13f",
"`C c #b4b2ae",
"`D c #e2b870",
"`E c #caa253",
"`F c #dcbb83",
"`G c #f9e8c3",
"`H c #f9f6d0",
"`I c #fcf7db",
"`J c #fae6d6",
"`K c #f4cfbe",
"`L c #fbd4c5",
"`M c #e1cab4",
"`N c #b8a788",
"`O c #ae9a74",
"`P c #c0b786",
"`Q c #aeaba7",
"`R c #f1edd5",
"`S c #dac18b",
"`T c #aba17c",
"`U c #686867",
"`V c #4a2c1e",
"`W c #a92200",
"`X c #e3ab27",
"`Y c #dfcbc1",
"`Z c #e9c9ac",
"`0 c #cb947e",
"`1 c #bf8978",
"`2 c #c2aa78",
"`3 c #c1cc7a",
"`4 c #f0f5fa",
"`5 c #d7ba9d",
"`6 c #edf0f0",
"`7 c #dae9f1",
"`8 c #cee9f1",
".` c #a7a170",
".. c #c78056",
".# c #a57849",
".a c #83a854",
".b c #81da5c",
".c c #90df60",
".d c #e0d4a3",
".e c #72643f",
".f c #97baca",
".g c #58d047",
".h c #52a83f",
".i c #91753f",
".j c #4cb442",
".k c #43d044",
".l c #caab48",
".m c #685e31",
".n c #08299c",
".o c #082194",
".p c #081994",
".q c #00108c",
".r c #d9e9f0",
".s c #738b3f",
".t c #4eb03f",
".u c #a7bd5e",
".v c #0842a5",
".w c #ffffff",
".x c #eceff0",
".y c #dba455",
".z c #bc783f",
".A c #848e3f",
".B c #65a13f",
".C c #1052ad",
".D c #848484",
".E c #5a5a5a",
".F c #bdb5b5",
".G c #636363",
".H c #6b6b6b",
".I c #dee090",
".J c #d19a42",
".K c #92843f",
".L c #69a63f",
".M c #105ab5",
".N c #4a4a4a",
".O c #b58442",
".P c #ded6de",
".Q c #bea5df",
".R c #e2d193",
".S c #d4a844",
".T c #95803f",
".U c #6f9b3f",
".V c #1063bd",
".W c #f7f7f7",
".X c #000084",
".Y c #525252",
".Z c #d6d6d6",
".0 c #cecece",
".1 c #d9c6ad",
".2 c #edb85c",
".3 c #e07f3f",
".4 c #b8693f",
".5 c #a2773f",
".6 c #106bbd",
".7 c #efefef",
".8 c #e6e6e6",
"#` c #c5c5c5",
"#. c #1973c5",
"## c #efe6e6",
"#a c #dedede",
"#b c #424242",
"#c c #4a524a",
"#d c #3a3a3a",
"#e c #a5a59c",
"#f c none",
"#g c #000000",
"#h c #000000",
"#i c #000000",
"#j c #000000",
"#k c #000000",
"#l c #000000",
"#m c #000000",
"#n c #000000",
"#o c #000000",
"#p c #000000",
"#q c #000000",
"#r c #000000",
"#s c #000000",
"#t c #000000",
"#u c #000000",
"#v c #000000",
"#w c #000000",
"#x c #000000",
"#y c #000000",
"#z c #000000",
"#A c #000000",
"#B c #000000",
"#C c #000000",
"#D c #000000",
"#E c #000000",
"#F c #000000",
"#G c #000000",
"#H c #000000",
"#I c #000000",
"#J c #000000",
"#K c #000000",
"#L c #000000",
"#M c #000000",
"#N c #000000",
"#O c #000000",
"#P c #000000",
"#Q c #000000",
"#R c #000000",
"#S c #000000",
"#T c #000000",
"#U c #000000",
"#V c #000000",
"#W c #000000",
"#X c #000000",
"#Y c #000000",
"#Z c #000000",
"#0 c #000000",
"#1 c #000000",
"#2 c #000000",
"#3 c #000000",
"#4 c #000000",
"#5 c #000000",
"#6 c #000000",
"#7 c #000000",
"#8 c #000000",
"a` c #000000",
"a. c #000000",
"a# c #000000",
"aa c #000000",
"ab c #000000",
"ac c #000000",
"ad c #000000",
"ae c #000000",
"af c #000000",
"ag c #000000",
"ah c #000000",
"ai c #000000",
"aj c #000000",
"ak c #000000",
"al c #000000",
"am c #000000",
"an c #000000",
"ao c #000000",
"ap c #000000",
"aq c #000000",
"ar c #000000",
"as c #000000",
"at c #000000",
"au c #000000",
"av c #000000",
"aw c #000000",
"ax c #000000",
"ay c #000000",
"az c #000000",
"aA c #000000",
"aB c #000000",
"aC c #000000",
"aD c #000000",
"aE c #000000",
"aF c #000000",
"aG c #000000",
"aH c #000000",
"aI c #000000",
"aJ c #000000",
"aK c #000000",
"aL c #000000",
"aM c #000000",
"aN c #000000",
"aO c #000000",
"aP c #000000",
"aQ c #000000",
"aR c #000000",
"aS c #000000",
"aT c #000000",
"aU c #000000",
"aV c #000000",
"aW c #000000",
"aX c #000000",
"aY c #000000",
"aZ c #000000",
"a0 c #000000",
"a1 c #000000",
"a2 c #000000",
"a3 c #000000",
"a4 c #000000",
"a5 c #000000",
"a6 c #000000",
"a7 c #000000",
"a8 c #000000",
/* pixels */
"#f#f#f#f#f#f#f#f#f#f#f#f#f#f#f#f",
"#f`.`.`.`.`.`.`.`.`.`#`a`b`.#f#f",
"`.`c`d`e`f`g`h`i`j`k`l`m`n`o`.#f",
"`.`p`q`r`s`t`u`v`w`x`y`z`A`B`.#f",
"`.`D`E`F`G`H`I`J`K`L`M`N`O`P`.#f",
"`.`R`S`T`U`V`W`X`Y`Z`0`1`2`3`.#f",
"`.`4`5`S`S`6`7`8.`...#.a.b.c`.#f",
"`..d.e.f.g.h.g.h.h...i.j.k.g`.#f",
"`..l.m.n.o.p.q`1.r`1.j.s.h.t`.#f",
"`..u.v.w.w.w.p`1.x.j.y.z.A.B`.#f",
"`..C.w.D.E.E.F.G.H.j.I.J.K.L`.#f",
"`..M.w.N.D.O.E.P.G.Q.R.S.T.U`.#f",
"`..V.w.W.X.Y.Z.0.G.1.2.3.4.5`.#f",
"`..6.7.8.P.0#`#`.E`.`.`.`.`.`.#f",
"#.###a.Z#b#`#c.Y#f#f#f#f#f#f#f#f",
".8.P.0#d#d#b.N#f#f#f#f#f#f#f#f#f"
};
