/* XPM */
static char *accplay_xpm[] = {
/* width height num_colors chars_per_pixel */
"    16    16      256            2",
/* colors */
"`` c none",
"`. c #aeb9b9",
"`# c #5d7c91",
"`a c #204e74",
"`b c #335c7d",
"`c c #6c8799",
"`d c #718a9b",
"`e c #396281",
"`f c #1c4a72",
"`g c #54758e",
"`h c #a4b1b4",
"`i c #91a4aa",
"`j c #496e87",
"`k c #899da7",
"`l c #b5bebc",
"`m c #889da7",
"`n c #265075",
"`o c #16466f",
"`p c #7c94a1",
"`q c #b7c0bd",
"`r c #8fa1a9",
"`s c #4e718a",
"`t c #8297a3",
"`u c #b1bcbb",
"`v c #52738b",
"`w c #b8c1be",
"`x c #e3e3d3",
"`y c #edead8",
"`z c #728b98",
"`A c #5e88a0",
"`B c #618da5",
"`C c #658193",
"`D c #e6e4d5",
"`E c #e7e5d5",
"`F c #c1c8c2",
"`G c #59798e",
"`H c #a0afb2",
"`I c #e7e4d4",
"`J c #78909e",
"`K c #849aa5",
"`L c #faf4de",
"`M c #f6f1dd",
"`N c #b1bbb9",
"`O c #49708d",
"`P c #8eb5c4",
"`Q c #99bfcb",
"`R c #48718f",
"`S c #a1aeb2",
"`T c #f4f0dc",
"`U c #fdf5e0",
"`V c #95a7ad",
"`W c #6c8698",
"`X c #d3d6cb",
"`Y c #54758d",
"`Z c #c5cbc4",
"`0 c #ebe8d7",
"`1 c #faf3df",
"`2 c #8397a3",
"`3 c #57819e",
"`4 c #9bc1cd",
"`5 c #608aa5",
"`6 c #708999",
"`7 c #f8f2dd",
"`8 c #eae8d7",
".` c #d2d5ca",
".. c #4f708a",
".# c #c5cbc5",
".a c #355e7f",
".b c #edead7",
".c c #e3e2d3",
".d c #fffbe4",
".e c #5e7a90",
".f c #608ca7",
".g c #a1c5d1",
".h c #9ec3cf",
".i c #709bb2",
".j c #456985",
".k c #fef9e2",
".l c #e2e2d3",
".m c #f5efdb",
".n c #4e728c",
".o c #fffce4",
".p c #56768e",
".q c #5c8ba6",
".r c #a2c6d1",
".s c #9dc3cf",
".t c #4e728d",
".u c #faf4df",
".v c #7b93a0",
".w c #537f9d",
".x c #9abfcc",
".y c #628ba5",
".z c #4f718b",
".A c #b3bcba",
".B c #98bfcb",
".C c #416d8e",
".D c #a2afb2",
".E c #6c8697",
".F c #ecead8",
".G c #5f89a0",
".H c #5f8ca5",
".I c #567991",
".J c #7e95a1",
".K c #b6c0bd",
".L c #396181",
".M c #000000",
".N c #000000",
".O c #000000",
".P c #000000",
".Q c #000000",
".R c #000000",
".S c #000000",
".T c #000000",
".U c #000000",
".V c #000000",
".W c #000000",
".X c #000000",
".Y c #000000",
".Z c #000000",
".0 c #000000",
".1 c #000000",
".2 c #000000",
".3 c #000000",
".4 c #000000",
".5 c #000000",
".6 c #000000",
".7 c #000000",
".8 c #000000",
"#` c #000000",
"#. c #000000",
"## c #000000",
"#a c #000000",
"#b c #000000",
"#c c #000000",
"#d c #000000",
"#e c #000000",
"#f c #000000",
"#g c #000000",
"#h c #000000",
"#i c #000000",
"#j c #000000",
"#k c #000000",
"#l c #000000",
"#m c #000000",
"#n c #000000",
"#o c #000000",
"#p c #000000",
"#q c #000000",
"#r c #000000",
"#s c #000000",
"#t c #000000",
"#u c #000000",
"#v c #000000",
"#w c #000000",
"#x c #000000",
"#y c #000000",
"#z c #000000",
"#A c #000000",
"#B c #000000",
"#C c #000000",
"#D c #000000",
"#E c #000000",
"#F c #000000",
"#G c #000000",
"#H c #000000",
"#I c #000000",
"#J c #000000",
"#K c #000000",
"#L c #000000",
"#M c #000000",
"#N c #000000",
"#O c #000000",
"#P c #000000",
"#Q c #000000",
"#R c #000000",
"#S c #000000",
"#T c #000000",
"#U c #000000",
"#V c #000000",
"#W c #000000",
"#X c #000000",
"#Y c #000000",
"#Z c #000000",
"#0 c #000000",
"#1 c #000000",
"#2 c #000000",
"#3 c #000000",
"#4 c #000000",
"#5 c #000000",
"#6 c #000000",
"#7 c #000000",
"#8 c #000000",
"a` c #000000",
"a. c #000000",
"a# c #000000",
"aa c #000000",
"ab c #000000",
"ac c #000000",
"ad c #000000",
"ae c #000000",
"af c #000000",
"ag c #000000",
"ah c #000000",
"ai c #000000",
"aj c #000000",
"ak c #000000",
"al c #000000",
"am c #000000",
"an c #000000",
"ao c #000000",
"ap c #000000",
"aq c #000000",
"ar c #000000",
"as c #000000",
"at c #000000",
"au c #000000",
"av c #000000",
"aw c #000000",
"ax c #000000",
"ay c #000000",
"az c #000000",
"aA c #000000",
"aB c #000000",
"aC c #000000",
"aD c #000000",
"aE c #000000",
"aF c #000000",
"aG c #000000",
"aH c #000000",
"aI c #000000",
"aJ c #000000",
"aK c #000000",
"aL c #000000",
"aM c #000000",
"aN c #000000",
"aO c #000000",
"aP c #000000",
"aQ c #000000",
"aR c #000000",
"aS c #000000",
"aT c #000000",
"aU c #000000",
"aV c #000000",
"aW c #000000",
"aX c #000000",
"aY c #000000",
"aZ c #000000",
"a0 c #000000",
"a1 c #000000",
"a2 c #000000",
"a3 c #000000",
"a4 c #000000",
"a5 c #000000",
"a6 c #000000",
"a7 c #000000",
"a8 c #000000",
/* pixels */
"````````````````````````````````",
"````````````````````````````````",
"```````.`#`a`b`c`d`e`f`g`h``````",
"`````i`j`k`l`m`n`o`p`q`r`s`t````",
"```u`v`w`x`y`z`A`B`C`D`E`F`G`H``",
"`I`J`K`L`M`N`O`P`Q`R`S`T`U`V`W``",
"`X`Y`Z`0`1`2`3`Q`4`5`6`7`8.`..``",
".#.a.b.c.d.e.f.g.h.i.j.k.l.m.n``",
".#.a.b.c.o.p.q.r.s.i.j.k.l.m.t``",
"`X`Y`Z`0.u.v.w.x`4.y`6`7`8.`.z``",
"`I`J`K`L`M.A`O`P.B.C.D`T`U`V.E``",
"```u`v`w`x.F`z.G.H.I`E`E`F`G`H``",
"`````i`j`k`l`m`n`o.J.K`r`s`t````",
"```````.`#`a`b`c`d.L`f`g`h``````",
"````````````````````````````````",
"````````````````````````````````"
};
