/* XPM */
static char *accumulation_xpm[] = {
/* width height num_colors chars_per_pixel */
"    16    16      256            2",
/* colors */
"`` c none",
"`. c #e4e3d4",
"`# c #cfd2c8",
"`a c #bec5c0",
"`b c #c4cac3",
"`c c #d6d8cd",
"`d c #d7d9cd",
"`e c #c6ccc4",
"`f c #bdc4bf",
"`g c #cdd0c7",
"`h c #e2e1d3",
"`i c #ced2c8",
"`j c #78909e",
"`k c #466d8a",
"`l c #22547b",
"`m c #2a597e",
"`n c #365e7e",
"`o c #375d7d",
"`p c #2c5b7f",
"`q c #20527a",
"`r c #416989",
"`s c #718a9b",
"`t c #c6cac4",
"`u c #d3d5cb",
"`v c #5d7c92",
"`w c #507c97",
"`x c #81a9bc",
"`y c #a6c9d4",
"`z c #658ea7",
"`A c #346486",
"`B c #356487",
"`C c #5b859f",
"`D c #a6c9d3",
"`E c #87aebf",
"`F c #56809b",
"`G c #55768e",
"`H c #c7cdc6",
"`I c #eae7d7",
"`J c #8c9da6",
"`K c #5e8197",
"`L c #9fc5d1",
"`M c #a0c4d0",
"`N c #7ca4b8",
"`O c #356386",
"`P c #88afbf",
"`Q c #95bac8",
"`R c #356486",
"`S c #739cb1",
"`T c #9fc3cf",
"`U c #a2c8d3",
"`V c #65899e",
"`W c #7f939e",
"`X c #e7e5d6",
"`Y c #d7d8cd",
"`Z c #5b7a90",
"`0 c #92afbb",
"`1 c #95bdca",
"`2 c #a1c6d1",
"`3 c #57859f",
"`4 c #557f9c",
"`5 c #97bcca",
"`6 c #99bfcc",
"`7 c #5e88a2",
"`8 c #4c7b97",
".` c #a0c5d1",
".. c #95bccb",
".# c #98b6c0",
".a c #52738c",
".b c #d4d6cc",
".c c #cccfc6",
".d c #2a597d",
".e c #93bcca",
".f c #93bac7",
".g c #a8cdd6",
".h c #3b698b",
".i c #638da6",
".j c #a0c5d0",
".k c #9cc2ce",
".l c #749cb2",
".m c #2e5e82",
".n c #a6cad5",
".o c #93b9c7",
".p c #9ac1ce",
".q c #396789",
".r c #cccfc7",
".s c #2e5b7e",
".t c #98beca",
".u c #3c6b8c",
".v c #739bb1",
".w c #2f5f83",
".x c #94b9c7",
".y c #99c0cd",
".z c #dbdbcd",
".A c #577891",
".B c #77a0b5",
".C c #99bfcb",
".D c #a1c6d0",
".E c #5986a0",
".F c #537e9b",
".G c #96bcca",
".H c #5c87a1",
".I c #4f7d99",
".J c #95bdcb",
".K c #97b5bf",
".L c #56768e",
".M c #d5d7cc",
".N c #edead8",
".O c #8b9ea7",
".P c #4c7692",
".Q c #9fc4cf",
".R c #7fa6ba",
".S c #346286",
".T c #85acbd",
".U c #92b8c6",
".V c #346385",
".W c #769fb3",
".X c #9ec3cf",
".Y c #a1c7d2",
".Z c #60859b",
".0 c #81959f",
".1 c #e8e6d6",
".2 c #d9dacd",
".3 c #607f94",
".4 c #407091",
".5 c #80a6b9",
".6 c #a3c7d2",
".7 c #6790a8",
".8 c #2f5e82",
"#` c #5c86a0",
"#. c #a4c7d2",
"## c #83aabd",
"#a c #517c97",
"#b c #59798f",
"#c c #ccd1c8",
"#d c #d2d5cb",
"#e c #7d94a2",
"#f c #486e8a",
"#g c #1e5078",
"#h c #29577c",
"#i c #3d6381",
"#j c #3e6381",
"#k c #2b5a7e",
"#l c #1d4e77",
"#m c #426988",
"#n c #788f9e",
"#o c #f0ecda",
"#p c #e8e6d5",
"#q c #d8d9cd",
"#r c #d0d3c9",
"#s c #ddddd0",
"#t c #deded1",
"#u c #d2d4ca",
"#v c #cbcfc6",
"#w c #d6d8cc",
"#x c #e6e4d4",
"#y c #efebd9",
"#z c #000000",
"#A c #000000",
"#B c #000000",
"#C c #000000",
"#D c #000000",
"#E c #000000",
"#F c #000000",
"#G c #000000",
"#H c #000000",
"#I c #000000",
"#J c #000000",
"#K c #000000",
"#L c #000000",
"#M c #000000",
"#N c #000000",
"#O c #000000",
"#P c #000000",
"#Q c #000000",
"#R c #000000",
"#S c #000000",
"#T c #000000",
"#U c #000000",
"#V c #000000",
"#W c #000000",
"#X c #000000",
"#Y c #000000",
"#Z c #000000",
"#0 c #000000",
"#1 c #000000",
"#2 c #000000",
"#3 c #000000",
"#4 c #000000",
"#5 c #000000",
"#6 c #000000",
"#7 c #000000",
"#8 c #000000",
"a` c #000000",
"a. c #000000",
"a# c #000000",
"aa c #000000",
"ab c #000000",
"ac c #000000",
"ad c #000000",
"ae c #000000",
"af c #000000",
"ag c #000000",
"ah c #000000",
"ai c #000000",
"aj c #000000",
"ak c #000000",
"al c #000000",
"am c #000000",
"an c #000000",
"ao c #000000",
"ap c #000000",
"aq c #000000",
"ar c #000000",
"as c #000000",
"at c #000000",
"au c #000000",
"av c #000000",
"aw c #000000",
"ax c #000000",
"ay c #000000",
"az c #000000",
"aA c #000000",
"aB c #000000",
"aC c #000000",
"aD c #000000",
"aE c #000000",
"aF c #000000",
"aG c #000000",
"aH c #000000",
"aI c #000000",
"aJ c #000000",
"aK c #000000",
"aL c #000000",
"aM c #000000",
"aN c #000000",
"aO c #000000",
"aP c #000000",
"aQ c #000000",
"aR c #000000",
"aS c #000000",
"aT c #000000",
"aU c #000000",
"aV c #000000",
"aW c #000000",
"aX c #000000",
"aY c #000000",
"aZ c #000000",
"a0 c #000000",
"a1 c #000000",
"a2 c #000000",
"a3 c #000000",
"a4 c #000000",
"a5 c #000000",
"a6 c #000000",
"a7 c #000000",
"a8 c #000000",
/* pixels */
"````````````````````````````````",
"````````````````````````````````",
"```````.`#`a`b`c`d`e`f`g`h``````",
"`````i`j`k`l`m`n`o`p`q`r`s`t````",
"```u`v`w`x`y`z`A`B`C`D`E`F`G`H``",
"`I`J`K`L`M`N`O`P`Q`R`S`T`U`V`W`X",
"`Y`Z`0`1`2`3`4`5`6`7`8.`...#.a.b",
".c.d.e.f.g.h.i.j.k.l.m.n.o.p.q`#",
".r.s.t.f.g.u.i.j.k.v.w.n.x.y.q`#",
".z.A.B.C.D.E.F.G`6.H.I.j.J.K.L.M",
".N.O.P.D.Q.R.S.T.U.V.W.X.Y.Z.0.1",
"``.2.3.4.5.6.7.w.8#`#.###a#b#c``",
"````#d#e#f#g#h#i#j#k#l#m#n.r#o``",
"``````#p#q.r#r#s#t#u#v#w#x#y````",
"````````````````````````````````",
"````````````````````````````````"
};
