/* XPM */
static char *activityall_xpm[] = {
/* width height num_colors chars_per_pixel */
"    16    16      256            2",
/* colors */
"`` c none",
"`. c #fffffd",
"`# c #fefffb",
"`a c #fcfffd",
"`b c #ffffff",
"`c c #fbfdfc",
"`d c #d9dbd6",
"`e c #d2d8ce",
"`f c #fafff9",
"`g c #fafffc",
"`h c #feffff",
"`i c #fffeff",
"`j c #fffbfc",
"`k c #fffefd",
"`l c #fdfdfb",
"`m c #fefffd",
"`n c #fffdfe",
"`o c #fdfffc",
"`p c #d9dbda",
"`q c #bec2c1",
"`r c #8c968e",
"`s c #6e8074",
"`t c #96b1a2",
"`u c #eefffb",
"`v c #f5ffff",
"`w c #fffdff",
"`x c #fffbfb",
"`y c #fefefe",
"`z c #fafefd",
"`A c #fdfdfd",
"`B c #fcfcfa",
"`C c #919390",
"`D c #9fa69f",
"`E c #b3c0b7",
"`F c #b4cabe",
"`G c #5b8270",
"`H c #34765b",
"`I c #2f6f55",
"`J c #94b3a3",
"`K c #fff9f8",
"`L c #fffbfd",
"`M c #fbffff",
"`N c #f9fdfc",
"`O c #f6fffc",
"`P c #d4e3de",
"`Q c #556960",
"`R c #819b8e",
"`S c #accec0",
"`T c #9ecabb",
"`U c #73ae9c",
"`V c #27755b",
"`W c #226b4e",
"`X c #517863",
"`Y c #b8c6b7",
"`Z c #fffdfa",
"`0 c #fff8f7",
"`1 c #f6fffe",
"`2 c #f8fffa",
"`3 c #c6dcd0",
"`4 c #78a495",
"`5 c #427b6a",
"`6 c #437e6a",
"`7 c #40816d",
"`8 c #82cfbd",
".` c #72bfaf",
".. c #266455",
".# c #316652",
".a c #38624a",
".b c #6c8570",
".c c #fffff8",
".d c #fffffa",
".e c #f9fffb",
".f c #f3fff9",
".g c #f4fffa",
".h c #c3e3d6",
".i c #337060",
".j c #2c7665",
".k c #2b7a65",
".l c #1a6d59",
".m c #358c7b",
".n c #7dc9bc",
".o c #a1d0c6",
".p c #a7c8bd",
".q c #8bac97",
".r c #728975",
".s c #fefffa",
".t c #fdfef9",
".u c #f4fef6",
".v c #f7fffb",
".w c #edfffe",
".x c #bee3db",
".y c #306f66",
".z c #27776c",
".A c #247b6b",
".B c #176b5b",
".C c #1e685b",
".D c #7eb8ac",
".E c #aacbc2",
".F c #d1e5da",
".G c #ccdacd",
".H c #838b80",
".I c #c3c2c0",
".J c #fcfdff",
".K c #f1ffff",
".L c #e7ffff",
".M c #80b7b4",
".N c #206763",
".O c #156660",
".P c #277670",
".Q c #3d7b76",
".R c #86b5af",
".S c #acc9c4",
".T c #b1c2bc",
".U c #d7dcd8",
".V c #c4c4c2",
".W c #a2a0a3",
".X c #fefcff",
".Y c #fdfeff",
".Z c #bcdee0",
".0 c #2a5d61",
".1 c #206069",
".2 c #2b6e76",
".3 c #104a4e",
".4 c #184548",
".5 c #7d9fa0",
".6 c #afc4c5",
".7 c #a3a8ac",
".8 c #d8d7dc",
"#` c #bdbcc1",
"#. c #fefeff",
"## c #fefdff",
"#a c #fcfafd",
"#b c #fcffff",
"#c c #c7e6eb",
"#d c #537f88",
"#e c #406f79",
"#f c #436972",
"#g c #1e3d42",
"#h c #4a6463",
"#i c #879999",
"#j c #858a8d",
"#k c #a7a7a9",
"#l c #c3c5c2",
"#m c #d4d6d3",
"#n c #fdfbff",
"#o c #f9fefa",
"#p c #f8ffff",
"#q c #ccdbde",
"#r c #98a7ac",
"#s c #909599",
"#t c #8c8e8d",
"#u c #8c938c",
"#v c #b9c1b6",
"#w c #bec1b8",
"#x c #bec1b6",
"#y c #a3a99b",
"#z c #9da397",
"#A c #c4bec0",
"#B c #cbc2c3",
"#C c #8f8e89",
"#D c #919489",
"#E c #797b70",
"#F c #95978a",
"#G c #8a8e7f",
"#H c #bfc1b4",
"#I c #fffafe",
"#J c #fff5ff",
"#K c #fffbff",
"#L c #f7fdfb",
"#M c #c0c1c6",
"#N c #a3a7aa",
"#O c #babebd",
"#P c #bebebc",
"#Q c #c4c0bd",
"#R c #fffbf8",
"#S c #fffefa",
"#T c #fffaff",
"#U c #fffcff",
"#V c #faffff",
"#W c #fbfeff",
"#X c #fffcfd",
"#Y c #fffcfe",
"#Z c #fefcfd",
"#0 c #fdfbfe",
"#1 c #fdfdff",
"#2 c #f7fcf8",
"#3 c #fffcfc",
"#4 c #fcfbf9",
"#5 c #fcfefd",
"#6 c #fdfffa",
"#7 c #f9fcf5",
"#8 c #fcfffa",
"a` c #fff9f9",
"a. c #f7ffff",
"a# c #fffffb",
"aa c #000000",
"ab c #000000",
"ac c #000000",
"ad c #000000",
"ae c #000000",
"af c #000000",
"ag c #000000",
"ah c #000000",
"ai c #000000",
"aj c #000000",
"ak c #000000",
"al c #000000",
"am c #000000",
"an c #000000",
"ao c #000000",
"ap c #000000",
"aq c #000000",
"ar c #000000",
"as c #000000",
"at c #000000",
"au c #000000",
"av c #000000",
"aw c #000000",
"ax c #000000",
"ay c #000000",
"az c #000000",
"aA c #000000",
"aB c #000000",
"aC c #000000",
"aD c #000000",
"aE c #000000",
"aF c #000000",
"aG c #000000",
"aH c #000000",
"aI c #000000",
"aJ c #000000",
"aK c #000000",
"aL c #000000",
"aM c #000000",
"aN c #000000",
"aO c #000000",
"aP c #000000",
"aQ c #000000",
"aR c #000000",
"aS c #000000",
"aT c #000000",
"aU c #000000",
"aV c #000000",
"aW c #000000",
"aX c #000000",
"aY c #000000",
"aZ c #000000",
"a0 c #000000",
"a1 c #000000",
"a2 c #000000",
"a3 c #000000",
"a4 c #000000",
"a5 c #000000",
"a6 c #000000",
"a7 c #000000",
"a8 c #000000",
/* pixels */
"```.`#`a`b`c`d`e`f`g`h`i`j`k`l`m",
"`n`.`m`o`p`q`r`s`t`u`v`h`w`x`y`z",
"`b`A`B`C`D`E`F`G`H`I`J`f`K`L`b`M",
"`N`O`P`Q`R`S`T`U`V`W`X`Y`Z`0`h`1",
"`2`3`4`5`6`7`8.`...#.a.b.c.d.e.f",
".g.h.i.j.k.l.m.n.o.p.q.r.s.t.u.v",
".w.x.y.z.A.B.C.D.E.F.G.H.I`i.J`M",
".K.L.M.N.O.P.Q.R.S.T.U.V.W.X`i.Y",
"`M.K.Z.0.1.2.3.4.5.6.7.8#`#.##`i",
"#a#b.K#c#d#e#f#g#h#i#j#k#l#m`i#n",
"`i`A#o#p#q#r#s#t#u#v#w#x#y#z`k`w",
"`w`k.d`#`z#.#A#B#C#D#E#F#G#H``#I",
"#J#K`l#L`M#b.J#M#N#O#P#Q#R#S`b`h",
"#T#U`b`M`M#V`M#W.J`h`b#X#U#Y`h#b",
"`k#Z#0#1`m`a#2`.#3#X#4`b#b#b#5`o",
"#6`..X`i`.#7#8.d`xa``k#b#pa.`ha#"
};
