/* XPM */
static char *active_xpm[] = {
/* width height num_colors chars_per_pixel */
"    15    16      256            2",
/* colors */
"`` c none",
"`. c #fbd176",
"`# c #fcd881",
"`a c #fcd884",
"`b c #fbd884",
"`c c #fbd885",
"`d c #fbd987",
"`e c #facc65",
"`f c #feffff",
"`g c #f9fdff",
"`h c #f0ca83",
"`i c #f9f9d5",
"`j c #fff9ca",
"`k c #fff9cb",
"`l c #fff8cb",
"`m c #fff8ca",
"`n c #fffedb",
"`o c #f6cc7f",
"`p c #62c9fe",
"`q c #7ed3fe",
"`r c #7cd3fe",
"`s c #7bccf1",
"`t c #78d0f6",
"`u c #75cce6",
"`v c #fff196",
"`w c #fff099",
"`x c #fff097",
"`y c #fff8a9",
"`z c #f0bf72",
"`A c #6dc5fe",
"`B c #dff7ff",
"`C c #cff1ff",
"`D c #d0f1ff",
"`E c #cff2ff",
"`F c #d8f6ff",
"`G c #70bdeb",
"`H c #f0b769",
"`I c #efb96e",
"`J c #f0bc70",
"`K c #e69f54",
"`L c #66bafc",
"`M c #c6f3ff",
"`N c #b1eaff",
"`O c #b3ebff",
"`P c #c2f0ff",
"`Q c #69b8f7",
"`R c #dcdcda",
"`S c #dddddb",
"`T c #dcddda",
"`U c #e4e4df",
"`V c #3898fd",
"`W c #71bdff",
"`X c #6cb9ff",
"`Y c #71bbff",
"`Z c #6db9ff",
"`0 c #43a0fe",
"`1 c #ade7ff",
"`2 c #abe6ff",
"`3 c #aee8ff",
"`4 c #89d9ff",
"`5 c #c5d9e9",
"`6 c #bdd0df",
"`7 c #bed1e0",
"`8 c #7bb4df",
".` c #a2c7df",
".. c #add5ed",
".# c #def6ff",
".a c #dcf4ff",
".b c #dbf4ff",
".c c #e9f9ff",
".d c #9bd5fe",
".e c #ffbe2a",
".f c #ffd460",
".g c #ffd25c",
".h c #ffcf5c",
".i c #ffd158",
".j c #f8c241",
".k c #c7f1ff",
".l c #c9f0ff",
".m c #c8f0ff",
".n c #d5f6ff",
".o c #90ccfc",
".p c #f2b547",
".q c #fffdc8",
".r c #fff4af",
".s c #fff4b1",
".t c #fff5af",
".u c #fffac0",
".v c #e3af50",
".w c #8bc6ff",
".x c #8fc8ff",
".y c #91c9ff",
".z c #78baff",
".A c #e9a236",
".B c #fff384",
".C c #ffe96a",
".D c #ffe96d",
".E c #ffef81",
".F c #e6a13e",
".G c #ece3c9",
".H c #ede4ca",
".I c #f2e9d1",
".J c #dc780e",
".K c #e99d32",
".L c #e89a30",
".M c #e8992e",
".N c #e8982b",
".O c #df821c",
".P c #ffe6a1",
".Q c #ffe39d",
".R c #ffe39e",
".S c #ffe6a3",
".T c #fbcc66",
".U c #d4dbdb",
".V c #c8d2d4",
".W c #c9d2d5",
".X c #c2ad7e",
".Y c #c7caa7",
".Z c #dbd8a7",
".0 c #fff7bb",
".1 c #fff5ba",
".2 c #fff5b9",
".3 c #fffccd",
".4 c #f5c87d",
".5 c #55c7ff",
".6 c #90deff",
".7 c #8bdcff",
".8 c #8bddff",
"#` c #88dcff",
"#. c #65caf6",
"## c #ffea90",
"#a c #ffea94",
"#b c #ffea92",
"#c c #fff1a0",
"#d c #edb86a",
"#e c #6fc3fd",
"#f c #ddf6ff",
"#g c #caefff",
"#h c #cbefff",
"#i c #c9efff",
"#j c #d7f6ff",
"#k c #71baea",
"#l c #e8af6f",
"#m c #e7b174",
"#n c #e8b274",
"#o c #e3a567",
"#p c #62b6fc",
"#q c #c3f2ff",
"#r c #b2eaff",
"#s c #b3eaff",
"#t c #bdeeff",
"#u c #6ab8fb",
"#v c #fefcfd",
"#w c #fffeff",
"#x c #3995f9",
"#y c #57a8fa",
"#z c #56a7fa",
"#A c #51a5fa",
"#B c #50a1fa",
"#C c #000000",
"#D c #000000",
"#E c #000000",
"#F c #000000",
"#G c #000000",
"#H c #000000",
"#I c #000000",
"#J c #000000",
"#K c #000000",
"#L c #000000",
"#M c #000000",
"#N c #000000",
"#O c #000000",
"#P c #000000",
"#Q c #000000",
"#R c #000000",
"#S c #000000",
"#T c #000000",
"#U c #000000",
"#V c #000000",
"#W c #000000",
"#X c #000000",
"#Y c #000000",
"#Z c #000000",
"#0 c #000000",
"#1 c #000000",
"#2 c #000000",
"#3 c #000000",
"#4 c #000000",
"#5 c #000000",
"#6 c #000000",
"#7 c #000000",
"#8 c #000000",
"a` c #000000",
"a. c #000000",
"a# c #000000",
"aa c #000000",
"ab c #000000",
"ac c #000000",
"ad c #000000",
"ae c #000000",
"af c #000000",
"ag c #000000",
"ah c #000000",
"ai c #000000",
"aj c #000000",
"ak c #000000",
"al c #000000",
"am c #000000",
"an c #000000",
"ao c #000000",
"ap c #000000",
"aq c #000000",
"ar c #000000",
"as c #000000",
"at c #000000",
"au c #000000",
"av c #000000",
"aw c #000000",
"ax c #000000",
"ay c #000000",
"az c #000000",
"aA c #000000",
"aB c #000000",
"aC c #000000",
"aD c #000000",
"aE c #000000",
"aF c #000000",
"aG c #000000",
"aH c #000000",
"aI c #000000",
"aJ c #000000",
"aK c #000000",
"aL c #000000",
"aM c #000000",
"aN c #000000",
"aO c #000000",
"aP c #000000",
"aQ c #000000",
"aR c #000000",
"aS c #000000",
"aT c #000000",
"aU c #000000",
"aV c #000000",
"aW c #000000",
"aX c #000000",
"aY c #000000",
"aZ c #000000",
"a0 c #000000",
"a1 c #000000",
"a2 c #000000",
"a3 c #000000",
"a4 c #000000",
"a5 c #000000",
"a6 c #000000",
"a7 c #000000",
"a8 c #000000",
/* pixels */
"`````````````.`#`a`b`b`b`c`d`e",
"`f`g`g`g`g`g`h`i`j`k`l`l`m`n`o",
"`p`q`r`r`r`r`s`t`u`v`w`w`x`y`z",
"`A`B`C`D`D`D`E`F`G`H`I`I`I`J`K",
"`L`M`N`O`O`O`N`P`Q`R`S`S`S`T`U",
"`V`W`X`X`X`X`Y`Z`0`1`2`2`2`3`4",
"`5`6`7`7`7`7`8.`...#.a.a.b.c.d",
".e.f.g.g.g.g.h.i.j.k.l.l.m.n.o",
".p.q.r.s.s.s.t.u.v.w.x.x.x.y.z",
".A.B.C.D.D.D.C.E.F.G.H.H.H.G.I",
".J.K.L.L.L.L.M.N.O.P.Q.Q.R.S.T",
".U.V.W.W.W.W.X.Y.Z.0.1.1.2.3.4",
".5.6.7.7.7.7.8#`#.###a#a#b#c#d",
"#e#f#g#h#h#h#i#j#k#l#m#m#m#n#o",
"#p#q#r#s#s#s#r#t#u#v#v#v#v#v#w",
"#x#y#z#z#z#z#z#A#B````````````"
};
