/* XPM */
static char *addrec_xpm[] = {
/* width height num_colors chars_per_pixel */
"    21    21      256            2",
/* colors */
"`` c #046e04",
"`. c #8cbe84",
"`# c #2ca604",
"`a c #c4dac4",
"`b c #84da44",
"`c c #348a34",
"`d c #64be44",
"`e c #148a04",
"`f c #e4eee4",
"`g c #94be9c",
"`h c #44b604",
"`i c #a4e274",
"`j c #c4f694",
"`k c #acceac",
"`l c #1c821c",
"`m c #ccdecc",
"`n c #1c9a04",
"`o c #a4ea6c",
"`p c #6cce34",
"`q c #44ba04",
"`r c #048204",
"`s c #248e0c",
"`t c #f4faf4",
"`u c #d4e6d4",
"`v c #349e0c",
"`w c #acd2ac",
"`x c #34b204",
"`y c #74c24c",
"`z c #9cca94",
"`A c #bceaa4",
"`B c #84d254",
"`C c #4cae2c",
"`D c #bcdab4",
"`E c #047604",
"`F c #3ca614",
"`G c #94de6c",
"`H c #149204",
"`I c #f4f2f4",
"`J c #d4ded4",
"`K c #7cce4c",
"`L c #54be1c",
"`M c #148204",
"`N c #bcd2c4",
"`O c #8cd26c",
"`P c #c4eaa4",
"`Q c #349624",
"`R c #2c9e04",
"`S c #b4ea8c",
"`T c #74ca4c",
"`U c #a4d294",
"`V c #34ae04",
"`W c #ecf6ec",
"`X c #ace684",
"`Y c #2c822c",
"`Z c #0c8604",
"`0 c #249604",
"`1 c #fcfaf4",
"`2 c #dce6dc",
"`3 c #449a3c",
"`4 c #4cb624",
"`5 c #147a14",
"`6 c #d4e2d4",
"`7 c #94d66c",
"`8 c #44963c",
".` c #34a604",
".. c #94e25c",
".# c #6cca34",
".a c #1c8a04",
".b c #ecf2ec",
".c c #94c68c",
".d c #44b614",
".e c #a4de84",
".f c #d4fab4",
".g c #b4cabc",
".h c #249a04",
".i c #acf27c",
".j c #74d244",
".k c #4cba14",
".l c #0c7e04",
".m c #b4d6a4",
".n c #a4caa4",
".o c #bcf294",
".p c #bcdeac",
".q c #0c7a04",
".r c #9ce66c",
".s c #1c9204",
".t c #7cd644",
".u c #54ba2c",
".v c #bcd6bc",
".w c #cce6bc",
".x c #7cca4c",
".y c #2c862c",
".z c none",
".A c #dceadc",
".B c #54b62c",
".C c #047204",
".D c #c4debc",
".E c #8cde5c",
".F c #6cbe4c",
".G c #148e04",
".H c #ccf6ac",
".I c #ccded4",
".J c #acee7c",
".K c #6cce3c",
".L c #44ba0c",
".M c #248a1c",
".N c #34a20c",
".O c #3cb604",
".P c #74c64c",
".Q c #bceaac",
".R c #84d64c",
".S c #047a04",
".T c #3caa0c",
".U c #9cda7c",
".V c #f4f6f4",
".W c #d4dedc",
".X c #7cd254",
".Y c #54be24",
".Z c #148604",
".0 c #8cd664",
".1 c #c4eaac",
".2 c #3c962c",
".3 c #2ca204",
".4 c #bcf28c",
".5 c #a4d29c",
".6 c #2c9224",
".7 c #fcfafc",
".8 c #dce6e4",
"#` c #549a54",
"#. c #9cc69c",
"## c #ace28c",
"#a c #b4d2b4",
"#b c #4cb61c",
"#c c #b4ceb4",
"#d c #a4ce9c",
"#e c #34aa04",
"#f c #249e04",
"#g c #0c8204",
"#h c #1c9604",
"#i c #d4e2dc",
"#j c #94d674",
"#k c #449644",
"#l c #ecf2f4",
"#m c #bcdeb4",
"#n c #bcd6c4",
"#o c #7cca54",
"#p c #2c8634",
"#q c #54b634",
"#r c #000000",
"#s c #000000",
"#t c #000000",
"#u c #000000",
"#v c #000000",
"#w c #000000",
"#x c #000000",
"#y c #000000",
"#z c #000000",
"#A c #000000",
"#B c #000000",
"#C c #000000",
"#D c #000000",
"#E c #000000",
"#F c #000000",
"#G c #000000",
"#H c #000000",
"#I c #000000",
"#J c #000000",
"#K c #000000",
"#L c #000000",
"#M c #000000",
"#N c #000000",
"#O c #000000",
"#P c #000000",
"#Q c #000000",
"#R c #000000",
"#S c #000000",
"#T c #000000",
"#U c #000000",
"#V c #000000",
"#W c #000000",
"#X c #000000",
"#Y c #000000",
"#Z c #000000",
"#0 c #000000",
"#1 c #000000",
"#2 c #000000",
"#3 c #000000",
"#4 c #000000",
"#5 c #000000",
"#6 c #000000",
"#7 c #000000",
"#8 c #000000",
"a` c #000000",
"a. c #000000",
"a# c #000000",
"aa c #000000",
"ab c #000000",
"ac c #000000",
"ad c #000000",
"ae c #000000",
"af c #000000",
"ag c #000000",
"ah c #000000",
"ai c #000000",
"aj c #000000",
"ak c #000000",
"al c #000000",
"am c #000000",
"an c #000000",
"ao c #000000",
"ap c #000000",
"aq c #000000",
"ar c #000000",
"as c #000000",
"at c #000000",
"au c #000000",
"av c #000000",
"aw c #000000",
"ax c #000000",
"ay c #000000",
"az c #000000",
"aA c #000000",
"aB c #000000",
"aC c #000000",
"aD c #000000",
"aE c #000000",
"aF c #000000",
"aG c #000000",
"aH c #000000",
"aI c #000000",
"aJ c #000000",
"aK c #000000",
"aL c #000000",
"aM c #000000",
"aN c #000000",
"aO c #000000",
"aP c #000000",
"aQ c #000000",
"aR c #000000",
"aS c #000000",
"aT c #000000",
"aU c #000000",
"aV c #000000",
"aW c #000000",
"aX c #000000",
"aY c #000000",
"aZ c #000000",
"a0 c #000000",
"a1 c #000000",
"a2 c #000000",
"a3 c #000000",
"a4 c #000000",
"a5 c #000000",
"a6 c #000000",
"a7 c #000000",
"a8 c #000000",
/* pixels */
".z.z.z.z.z.z.z`1.1.Q`P.Q`A`A`W.z.z.z.z.z.z",
".z.z.z.z.z.z.z.A##.f.H.H.H`S.w.z.z.z.z.z.z",
".z.z.z.z.z.z.z`u.e.o.o.o.4`X.D.z.z.z.z.z.z",
".z.z.z.z.z.z.z`6.U.i.J.J.J.U.D.z.z.z.z.z.z",
".z.z.z.z.z.z.z`6#j`o.r.r.r`G.D.z.7.z.z.z.z",
".z.z.z.z.z.z.z`u`O...E.E...0.D.z.z.z.z.z.z",
".z.V#m#m#m#m#m`w`7.t`b.R.t.0`U.p.p#m#m#m`W",
".z`D.F.P`T.x`T.R.j`p`p`p.#`p`K`K`T.P.P.F`w",
".z`w#q.u.Y`L.k.L`q`q`h`q.O`h.O.d#b`4`C`4#d",
".z`k`F.T#e#e`V`V`V`V`x`V`V`V#e`#.3.3.N`v`z",
".z.n`0#f.3.3.`.`#e#e#e.`.``#.3.3`R#f.h.G.c",
".z#.`Z#h#h#h`n#f`R.3.3#f.3#f.h#h.s.s.G`r`.",
".z`a#k`8`8`3`3.2`0.h.h`0.h`0`Q`3`3`3`8`8.v",
".z`I.8.I`J.I.W.g`Q.s.s.s.a`0`g.W.I`J.I.8#l",
".z.z.7`t.7`t.7`6.6.Z`e.a`e.Z#c.z`t.7`t.7.7",
".z.z.z.z.z.z.z`2.M#g`M#g`M.l#a.z.z.z.z.z.z",
".z.z.z.z.z.z.z`2`l`E.q.q.S.C#a.z.z.7.z.z.z",
".z.z.z.z.z.z.z`2`5.C`E.C`E``#c.z.z.z.z.z.z",
".z.z.z.z.z.z.z`f#``Y.y.y.y`c`m.z.z.z.z.z.z",
".z.z.z.z.z.z.z.V#i`N#n`N`N.I#l.z.z.z.z.z.z",
".z.z.z.z.z.z.z.z.V.V.V.V.V.V.7.z.z.z.z.z.z"
};
