/* XPM */
static char *addtable_xpm[] = {
/* width height num_colors chars_per_pixel */
"    21    21      256            2",
/* colors */
"`` c #043a7c",
"`. c #749e84",
"`# c #5c6264",
"`a c #046ed4",
"`b c #0456ac",
"`c c #b4deb4",
"`d c #3c6e7c",
"`e c #243e5c",
"`f c #0486fc",
"`g c #dcdad4",
"`h c #6c8274",
"`i c #043a8c",
"`j c #1c76cc",
"`k c #8c9a8c",
"`l c #a49e9c",
"`m c #345674",
"`n c #047ae4",
"`o c #bceabc",
"`p c #74967c",
"`q c #8cae8c",
"`r c #c4f6c4",
"`s c #04467c",
"`t c #0462bc",
"`u c #7c8674",
"`v c #044a94",
"`w c #2c76bc",
"`x c #eceef4",
"`y c #1c3a54",
"`z c #047af4",
"`A c #949e94",
"`B c #0472ec",
"`C c #2486d4",
"`D c #6c8a6c",
"`E c #046ad4",
"`F c #044eac",
"`G c #4c767c",
"`H c #244e7c",
"`I c #0c92fc",
"`J c #b4becc",
"`K c #44627c",
"`L c #d4fac4",
"`M c #fcfafc",
"`N c #cceebc",
"`O c #04427c",
"`P c #0476e4",
"`Q c #74826c",
"`R c #8496a4",
"`S c #94b694",
"`T c #046acc",
"`U c #04529c",
"`V c #fcf6fc",
"`W c #84a284",
"`X c #046ee4",
"`Y c #446e74",
"`Z c #0c8ef4",
"`0 c #247ed4",
"`1 c #9c9694",
"`2 c #a4b6cc",
"`3 c #0c82dc",
"`4 c #849284",
"`5 c #0462cc",
"`6 c #f4f6f4",
"`7 c #0482fc",
"`8 c #345274",
".` c #647664",
".. c #045ebc",
".# c #d4d2d4",
".a c #04428c",
".b c #2476c4",
".c c #3c5e7c",
".d c #c4f2c4",
".e c #7c9674",
".f c #94b294",
".g c #ccfecc",
".h c #1c4e84",
".i c #7c8e9c",
".j c #044ea4",
".k c #3c6e9c",
".l c #14426c",
".m c #047ef4",
".n c #8c9eb4",
".o c #2c527c",
".p c #4c6a84",
".q c #d4fed4",
".r c #0c3e74",
".s c #7c9e7c",
".t c #0472dc",
".u c #bce6bc",
".v c #3c7284",
".w c #244664",
".x c #0c86fc",
".y c #dcdedc",
".z c #6c867c",
".A c #8c9aa4",
".B c #acaaa4",
".C c #345a84",
".D c #0c7adc",
".E c #c4eec4",
".F c #8cb294",
".G c #0c467c",
".H c #0466c4",
".I c #7c8e7c",
".J c #044e9c",
".K c #f4eeec",
".L c #1c3e5c",
".M c #8caa84",
".N c #0476fc",
".O c #748a74",
".P c #046ae4",
".Q c #0452ac",
".R c #4c7a7c",
".S c #2c4a6c",
".T c #149afc",
".U c #ccced4",
".V c #4c6684",
".W c #ccf2cc",
".X c #0c4274",
".Y c #74866c",
".Z c #5c7e94",
".0 c #04469c",
".1 c #7c9a7c",
".2 c #043e7c",
".3 c #046edc",
".4 c #0456b4",
".5 c #b4e2bc",
".6 c #3c6e84",
".7 c #244264",
".8 c #dcdadc",
"#` c #6c866c",
"#. c #bcb6b4",
"## c #1496fc",
"#a c #bcc2cc",
"#b c #3c72ac",
"#c c #2c4e7c",
"#d c #3476bc",
"#e c #7c9e8c",
"#f c #848e7c",
"#g c #bceec4",
"#h c #446684",
"#i c #d4fecc",
"#j c #44727c",
"#k c #044694",
"#l c #f4f2f4",
"#m c #a4a29c",
"#n c #0476ec",
"#o c none",
"#p c #ccf2bc",
"#q c #94ba94",
"#r c #84a684",
"#s c #0472e4",
"#t c #9c9a94",
"#u c #0466cc",
"#v c #647a64",
"#w c #0c8afc",
"#x c #1c76d4",
"#y c #34567c",
"#z c #047aec",
"#A c #8cae94",
"#B c #c4f6cc",
"#C c #044684",
"#D c #0462c4",
"#E c #044a9c",
"#F c #1c3a5c",
"#G c #047afc",
"#H c #046adc",
"#I c #044284",
"#J c #748274",
"#K c #0452a4",
"#L c #0c8efc",
"#M c #0c82e4",
"#N c #f4f6fc",
"#O c #045ec4",
"#P c #2476cc",
"#Q c #7c967c",
"#R c #ccfed4",
"#S c #047efc",
"#T c #d4fedc",
"#U c #8c9aac",
"#V c #8caa8c",
"#W c #748a7c",
"#X c #0452b4",
"#Y c #4c7a84",
"#Z c #000000",
"#0 c #000000",
"#1 c #000000",
"#2 c #000000",
"#3 c #000000",
"#4 c #000000",
"#5 c #000000",
"#6 c #000000",
"#7 c #000000",
"#8 c #000000",
"a` c #000000",
"a. c #000000",
"a# c #000000",
"aa c #000000",
"ab c #000000",
"ac c #000000",
"ad c #000000",
"ae c #000000",
"af c #000000",
"ag c #000000",
"ah c #000000",
"ai c #000000",
"aj c #000000",
"ak c #000000",
"al c #000000",
"am c #000000",
"an c #000000",
"ao c #000000",
"ap c #000000",
"aq c #000000",
"ar c #000000",
"as c #000000",
"at c #000000",
"au c #000000",
"av c #000000",
"aw c #000000",
"ax c #000000",
"ay c #000000",
"az c #000000",
"aA c #000000",
"aB c #000000",
"aC c #000000",
"aD c #000000",
"aE c #000000",
"aF c #000000",
"aG c #000000",
"aH c #000000",
"aI c #000000",
"aJ c #000000",
"aK c #000000",
"aL c #000000",
"aM c #000000",
"aN c #000000",
"aO c #000000",
"aP c #000000",
"aQ c #000000",
"aR c #000000",
"aS c #000000",
"aT c #000000",
"aU c #000000",
"aV c #000000",
"aW c #000000",
"aX c #000000",
"aY c #000000",
"aZ c #000000",
"a0 c #000000",
"a1 c #000000",
"a2 c #000000",
"a3 c #000000",
"a4 c #000000",
"a5 c #000000",
"a6 c #000000",
"a7 c #000000",
"a8 c #000000",
/* pixels */
"#U.p`m.w`e#F`y#F.L.S`m.V#a#o#o#o#o#o#o#o#o",
"`8.0#O`X`B.m`f.m`B.3`5`i.i#o`M#o#o#o#o#o#o",
".c#K`E`P`z`7###S`z`P`T.a`R#o`M#o#o#o#o#o#o",
".c.J#u#s#G`7`I`7`z#s#u.a`R#o#o#o#o#o#o#o#o",
".c.J#u#s#s.t`3.t.t#s#u.a`R#o`V`M#o#o#o#o#o",
".c.j`E`B.6`p.s`p#j`X`T#k.n#o#o#o#o#o#o#o#o",
"`K`v#D.P.v.E.q#p.R#H#D.2`#`l`1#t`l`l.B#..8",
"`x.U`J`2.z.u.q#g`h.h#E#E.2``.2.2````.2.2.l",
".y.8.y`g`u.5.q`o`Q.L#k#D`P`7`I.T`f`7#n#u#I",
"#v#V.F`q`S.d.q#B#q#A#A.M`d`B`f#L`z#n#H..`O",
"`D#B#T.q.q#R.g.g#R.q#T#i.R`B#w#L#G.N.3..#C",
"#`.d.q.q#R.g.g#R#R.q.q.g`G`B`f#L`z#z.3..`O",
".`.1`W.s`W#g.q.d#r`p.s#Q`d#G#L`I#S`z#s#D#C",
"`g.U.#.U#J.u#R`o`Q`e```U`t`X`n#M`X.3#D#K.r",
"#o#o#o#o`k`o#T.d.I#c.j#D#u`E.t.D`E#u`t`b`O",
"#o#o#o#o`4`c.W.5.Y`H.Q.3#z#G`f`I#S`z#s#O`s",
"#o#o#o#o`A#W.I#W#f.o.Q`E#n`z.x#L#G#n.3..#I",
"#o#o#o#o`M`6#l`V`x.C`F`a#n`z`f`I#G#z.3#O`s",
"#o#o#o#o#o#o#o#o.K.C.Q`a#n.N.x#L#G#n.3..#I",
"#o#o#o#o#o#o#o#o.K.C.Q.3#z`z`f`I#S`z#s#D`O",
"#o#o#o#o#o#o#o#o`M`R.k`w.b`j`C`C`j`j`w#b.Z"
};
