/* XPM */
static char *approve_xpm[] = {
/* width height num_colors chars_per_pixel */
"    16    15       16            1",
/* colors */
"` c #000000",
". c #800000",
"# c #008000",
"a c #808000",
"b c #000080",
"c c #800080",
"d c #008080",
"e c #808080",
"f c none",
"g c #ff0000",
"h c #00ff00",
"i c #ffff00",
"j c #0000ff",
"k c #ff00ff",
"l c #00ffff",
"m c #ffffff",
/* pixels */
"ffffffffffffffff",
"ffffffffffffffff",
"ffffffffffffffff",
"fffffffffffff##f",
"ffffffffffff###f",
"fffffffffff###ff",
"ffffffffff###fff",
"f##ffffff###ffff",
"f###ffff###fffff",
"ff###ff###ffffff",
"fff######fffffff",
"ffff####ffffffff",
"fffff##fffffffff",
"ffffffffffffffff",
"ffffffffffffffff"
};
