/* XPM */
static char *basin_xpm[] = {
/* width height num_colors chars_per_pixel */
"    16    16      256            2",
/* colors */
"`` c none",
"`. c #f4f1e0",
"`# c #dfdccd",
"`a c #dbd9ca",
"`b c #f4f1df",
"`c c #f2f0de",
"`d c #ceccbe",
"`e c #424341",
"`f c #313233",
"`g c #c0bfb1",
"`h c #f3f0df",
"`i c #f1eedc",
"`j c #a6a59b",
"`k c #2b2d2c",
"`l c #535557",
"`m c #606265",
"`n c #262727",
"`o c #919088",
"`p c #eeebdb",
"`q c #f4f0de",
"`r c #f5f2e0",
"`s c #e7e4d4",
"`t c #787771",
"`u c #262729",
"`v c #878a8d",
"`w c #ebf2f9",
"`x c #f7ffff",
"`y c #94989d",
"`z c #191c1e",
"`A c #6b6c66",
"`B c #dbdaca",
"`C c #f6f2e1",
"`D c #c9c7ba",
"`E c #504f4b",
"`F c #2b2d30",
"`G c #b7bcc0",
"`H c #f4faff",
"`I c #dee6ed",
"`J c #d8e0e9",
"`K c #e5f0f9",
"`L c #b7c0c8",
"`M c #32363b",
"`N c #434443",
"`O c #bdbcb0",
"`P c #eae7d7",
"`Q c #dad8c9",
"`R c #3a393a",
"`S c #484b4d",
"`T c #dce2e7",
"`U c #f1f8ff",
"`V c #d9e1e8",
"`W c #dce5ed",
"`X c #d8e2ec",
"`Y c #d1dce6",
"`Z c #d6e3ee",
"`0 c #ccd8e3",
"`1 c #555b60",
"`2 c #26282b",
"`3 c #cac8bc",
"`4 c #d4d1c2",
"`5 c #3a3b3b",
"`6 c #9ea2a7",
"`7 c #f1faff",
"`8 c #d6dde6",
".` c #dae4ed",
".. c #d7e2ec",
".# c #d4dfea",
".a c #d0dce8",
".b c #c7d3df",
".c c #d8e7f5",
".d c #96a2aa",
".e c #292c31",
".f c #c2c1b5",
".g c #f1eede",
".h c #7c7b74",
".i c #54585c",
".j c #f1fcff",
".k c #d4dde6",
".l c #d5e0eb",
".m c #d2dee9",
".n c #cfdbe7",
".o c #cbd8e5",
".p c #c3d1df",
".q c #d9eaf9",
".r c #555e66",
".s c #5a5b56",
".t c #eeedde",
".u c #a4a396",
".v c #383c41",
".w c #d6e1e8",
".x c #d4dfe9",
".y c #cfdce6",
".z c #cddae6",
".A c #c9d7e4",
".B c #c5d4e2",
".C c #c2d3e1",
".D c #c2d3e0",
".E c #373f47",
".F c #88877c",
".G c #fefcea",
".H c #ceccbf",
".I c #444649",
".J c #929ba2",
".K c #dbe9f5",
".L c #c9d5e2",
".M c #c8d6e4",
".N c #c4d3e2",
".O c #bfcede",
".P c #c8daeb",
".Q c #8c9ba7",
".R c #32373c",
".S c #bdbdb2",
".T c #63635c",
".U c #5d646b",
".V c #e1f0fd",
".W c #bdccd9",
".X c #bfd0dd",
".Y c #bbccdb",
".Z c #b6c7d6",
".0 c #c6dbed",
".1 c #616e7a",
".2 c #4b4b46",
".3 c #fffcea",
".4 c #908e84",
".5 c #464d56",
".6 c #d4e4f2",
".7 c #d0e2f1",
".8 c #cbdeee",
"#` c #c8dbec",
"#. c #c7dbee",
"## c #c0d4e5",
"#a c #414c55",
"#b c #787770",
"#c c #ffffec",
"#d c #c8c8bd",
"#e c #2d3032",
"#f c #0b0c0f",
"#g c #121518",
"#h c #0f1113",
"#i c #0d1113",
"#j c #101317",
"#k c #090b0e",
"#l c #1b1f22",
"#m c #b6b8af",
"#n c #ebe8d8",
"#o c #dedbcb",
"#p c #d4d1c0",
"#q c #d4d1c1",
"#r c #dcdaca",
"#s c #000000",
"#t c #000000",
"#u c #000000",
"#v c #000000",
"#w c #000000",
"#x c #000000",
"#y c #000000",
"#z c #000000",
"#A c #000000",
"#B c #000000",
"#C c #000000",
"#D c #000000",
"#E c #000000",
"#F c #000000",
"#G c #000000",
"#H c #000000",
"#I c #000000",
"#J c #000000",
"#K c #000000",
"#L c #000000",
"#M c #000000",
"#N c #000000",
"#O c #000000",
"#P c #000000",
"#Q c #000000",
"#R c #000000",
"#S c #000000",
"#T c #000000",
"#U c #000000",
"#V c #000000",
"#W c #000000",
"#X c #000000",
"#Y c #000000",
"#Z c #000000",
"#0 c #000000",
"#1 c #000000",
"#2 c #000000",
"#3 c #000000",
"#4 c #000000",
"#5 c #000000",
"#6 c #000000",
"#7 c #000000",
"#8 c #000000",
"a` c #000000",
"a. c #000000",
"a# c #000000",
"aa c #000000",
"ab c #000000",
"ac c #000000",
"ad c #000000",
"ae c #000000",
"af c #000000",
"ag c #000000",
"ah c #000000",
"ai c #000000",
"aj c #000000",
"ak c #000000",
"al c #000000",
"am c #000000",
"an c #000000",
"ao c #000000",
"ap c #000000",
"aq c #000000",
"ar c #000000",
"as c #000000",
"at c #000000",
"au c #000000",
"av c #000000",
"aw c #000000",
"ax c #000000",
"ay c #000000",
"az c #000000",
"aA c #000000",
"aB c #000000",
"aC c #000000",
"aD c #000000",
"aE c #000000",
"aF c #000000",
"aG c #000000",
"aH c #000000",
"aI c #000000",
"aJ c #000000",
"aK c #000000",
"aL c #000000",
"aM c #000000",
"aN c #000000",
"aO c #000000",
"aP c #000000",
"aQ c #000000",
"aR c #000000",
"aS c #000000",
"aT c #000000",
"aU c #000000",
"aV c #000000",
"aW c #000000",
"aX c #000000",
"aY c #000000",
"aZ c #000000",
"a0 c #000000",
"a1 c #000000",
"a2 c #000000",
"a3 c #000000",
"a4 c #000000",
"a5 c #000000",
"a6 c #000000",
"a7 c #000000",
"a8 c #000000",
/* pixels */
"````````````````````````````````",
"`````````````.`#`a`b````````````",
"```````````c`d`e`f`g`h``````````",
"```````i`h`j`k`l`m`n`o`p`q``````",
"`````r`s`t`u`v`w`x`y`z`A`B`C````",
"`````D`E`F`G`H`I`J`K`L`M`N`O`P``",
"```Q`R`S`T`U`V`W`X`Y`Z`0`1`2`3``",
"```4`5`6`7`8.`...#.a.b.c.d.e.f``",
"``.g.h.i.j.k.l.m.n.o.p.q.r.s.t``",
"````.u.v.w.x.y.z.A.B.C.D.E.F.G``",
"````.H.I.J.K.L.M.N.O.P.Q.R.S````",
"``````.T.U.V.W.X.Y.Z.0.1.2.t````",
"````.3.4.5.6.7.8#`#.###a#b#c````",
"``````#d#e#f#g#h#i#j#k#l#m``````",
"``````#n#o#p#q#p#p#q#q#r`P``````",
"````````````````````````````````"
};
