/* XPM */
static char *clearlist_xpm[] = {
/* width height num_colors chars_per_pixel */
"    16    16       16            1",
/* colors */
"` c #000000",
". c #800000",
"# c #008000",
"a c #808000",
"b c #000080",
"c c #800080",
"d c #008080",
"e c #808080",
"f c #c0c0c0",
"g c #ff0000",
"h c #00ff00",
"i c #ffff00",
"j c #0000ff",
"k c none",
"l c #00ffff",
"m c #ffffff",
/* pixels */
"kkkkk``````kkkkk",
"kkk``gggggg``kkk",
"kk`gggggggggg`kk",
"k`gggggggggggg`k",
"k`gggggggggggg`k",
"`ggggmmggmmgggg`",
"`gggggmmmmggggg`",
"`ggggggmmgggggg`",
"`gggggmmmmggggg`",
"`ggggmmggmmgggg`",
"`gggggggggggggg`",
"k`gggggggggggg`k",
"k`gggggggggggg`k",
"kk`gggggggggg`kk",
"kkk``gggggg``kkk",
"kkkkk``````kkkkk"
};
