/* XPM */
static char *commercialoilvalue_xpm[] = {
/* width height num_colors chars_per_pixel */
"    16    16      256            2",
/* colors */
"`` c none",
"`. c #fcfdfe",
"`# c #fdfeff",
"`a c #fafeff",
"`b c #fbffff",
"`c c #fbfeff",
"`d c #f6fdff",
"`e c #eefbff",
"`f c #ceebfe",
"`g c #4ab8fd",
"`h c #21a8fe",
"`i c #28abfd",
"`j c #2cadfd",
"`k c #2aacff",
"`l c #43b2e8",
"`m c #66bac8",
"`n c #5bbcf1",
"`o c #caeaff",
"`p c #fffffe",
"`q c #def2fe",
"`r c #8ad1ff",
"`s c #70c6ff",
"`t c #75c9fe",
"`u c #74c9fe",
"`v c #72c8ff",
"`w c #afd5c1",
"`x c #fee65d",
"`y c #add9d8",
"`z c #d6f0ff",
"`A c #fffffd",
"`B c #f0fafd",
"`C c #e2f6f8",
"`D c #ddf4f7",
"`E c #ddf3f6",
"`F c #def4f6",
"`G c #def4f7",
"`H c #ddf3f4",
"`I c #def3f0",
"`J c #e2f5f6",
"`K c #e8f5df",
"`L c #bfe47f",
"`M c #b2dd62",
"`N c #b4df67",
"`O c #b6e06b",
"`P c #b4df68",
"`Q c #b0dd64",
"`R c #bfe480",
"`S c #e8f5de",
"`T c #e2f2db",
"`U c #abd473",
"`V c #9acb53",
"`W c #9dcd58",
"`X c #9fce5d",
"`Y c #9acc55",
"`Z c #acd574",
"`0 c #e3f2dc",
"`1 c #fffffb",
"`2 c #e8f2f9",
"`3 c #f4f7ff",
"`4 c #f5f8ff",
"`5 c #f4f7fe",
"`6 c #f3f6ff",
"`7 c #f2f5ff",
"`8 c #f2f5fe",
".` c #f2f4ff",
".. c #f0f3ff",
".# c #e2ebf4",
".a c #fffdf7",
".b c #faf4ec",
".c c #c9d2d6",
".d c #d0d5d7",
".e c #cdd2d4",
".f c #c9ced0",
".g c #c7cbcd",
".h c #c4c8ca",
".i c #c1c5c7",
".j c #bdc1c3",
".k c #bcc0c2",
".l c #aab0b6",
".m c #e5e0da",
".n c #f1ebe4",
".o c #bac3c7",
".p c #c2c8ca",
".q c #bfc4c7",
".r c #bbc1c3",
".s c #b9bfc1",
".t c #b6bcbe",
".u c #b3b8bb",
".v c #afb5b7",
".w c #afb4b7",
".x c #9ca4aa",
".y c #ded9d3",
".z c #e9e5df",
".A c #acb6bc",
".B c #b7bdc0",
".C c #b3b9bc",
".D c #afb6b9",
".E c #adb3b6",
".F c #aab0b3",
".G c #a8aeb1",
".H c #a4abae",
".I c #a4aaad",
".J c #909a9f",
".K c #d6d4cf",
".L c #e2e1da",
".M c #a1acb3",
".N c #adb5b8",
".O c #a9b1b4",
".P c #a5aeb1",
".Q c #a3abaf",
".R c #a0a8ac",
".S c #9ea6aa",
".T c #9ba3a6",
".U c #9aa3a6",
".V c #859197",
".W c #d1d0cb",
".X c #d8d8d2",
".Y c #909ca2",
".Z c #9da6aa",
".0 c #98a1a5",
".1 c #959ea2",
".2 c #959da2",
".3 c #8d959a",
".4 c #828a8e",
".5 c #7f868a",
".6 c #80878b",
".7 c #687278",
".8 c #bfbfbb",
"#` c #c7c8c2",
"#. c #717b82",
"## c #81888d",
"#a c #7c8488",
"#b c #7c8589",
"#c c #666e71",
"#d c #95a2a9",
"#e c #e8fbff",
"#f c #effefe",
"#g c #eefffe",
"#h c #e5fcfe",
"#i c #fffff7",
"#j c #dbe7ea",
"#k c #e3ebec",
"#l c #e2eaeb",
"#m c #e1eaeb",
"#n c #dee6e7",
"#o c #e6eff0",
"#p c #f4feff",
"#q c #f4fefe",
"#r c #f5fffe",
"#s c #eefcfe",
"#t c #000000",
"#u c #000000",
"#v c #000000",
"#w c #000000",
"#x c #000000",
"#y c #000000",
"#z c #000000",
"#A c #000000",
"#B c #000000",
"#C c #000000",
"#D c #000000",
"#E c #000000",
"#F c #000000",
"#G c #000000",
"#H c #000000",
"#I c #000000",
"#J c #000000",
"#K c #000000",
"#L c #000000",
"#M c #000000",
"#N c #000000",
"#O c #000000",
"#P c #000000",
"#Q c #000000",
"#R c #000000",
"#S c #000000",
"#T c #000000",
"#U c #000000",
"#V c #000000",
"#W c #000000",
"#X c #000000",
"#Y c #000000",
"#Z c #000000",
"#0 c #000000",
"#1 c #000000",
"#2 c #000000",
"#3 c #000000",
"#4 c #000000",
"#5 c #000000",
"#6 c #000000",
"#7 c #000000",
"#8 c #000000",
"a` c #000000",
"a. c #000000",
"a# c #000000",
"aa c #000000",
"ab c #000000",
"ac c #000000",
"ad c #000000",
"ae c #000000",
"af c #000000",
"ag c #000000",
"ah c #000000",
"ai c #000000",
"aj c #000000",
"ak c #000000",
"al c #000000",
"am c #000000",
"an c #000000",
"ao c #000000",
"ap c #000000",
"aq c #000000",
"ar c #000000",
"as c #000000",
"at c #000000",
"au c #000000",
"av c #000000",
"aw c #000000",
"ax c #000000",
"ay c #000000",
"az c #000000",
"aA c #000000",
"aB c #000000",
"aC c #000000",
"aD c #000000",
"aE c #000000",
"aF c #000000",
"aG c #000000",
"aH c #000000",
"aI c #000000",
"aJ c #000000",
"aK c #000000",
"aL c #000000",
"aM c #000000",
"aN c #000000",
"aO c #000000",
"aP c #000000",
"aQ c #000000",
"aR c #000000",
"aS c #000000",
"aT c #000000",
"aU c #000000",
"aV c #000000",
"aW c #000000",
"aX c #000000",
"aY c #000000",
"aZ c #000000",
"a0 c #000000",
"a1 c #000000",
"a2 c #000000",
"a3 c #000000",
"a4 c #000000",
"a5 c #000000",
"a6 c #000000",
"a7 c #000000",
"a8 c #000000",
/* pixels */
"````````````````````````````````",
"```````.`#`a`a`b`c`d`e`a`.``````",
"```````f`g`h`i`j`k`l`m`n`o`p````",
"```````q`r`s`t`u`v`w`x`y`z`A````",
"```````B`C`D`E`F`G`H`I`J`B``````",
"```````K`L`M`N`O`O`P`Q`R`S``````",
"```````T`U`V`W`X`X`W`Y`Z`0``````",
"`````1`2`3`4`5`6`7`8.`...#.a````",
"````.b.c.d.e.f.g.h.i.j.k.l.m````",
"````.n.o.p.q.r.s.t.u.v.w.x.y````",
"````.z.A.B.C.D.E.F.G.H.I.J.K````",
"````.L.M.N.O.P.Q.R.S.T.U.V.W````",
"````.X.Y.Z.0.1.2.3.4.5.6.7.8````",
"````#`#.###a#b#c#d#e#f#g#h``````",
"````#i#j#k#l#m#n#o#p#q#r#s``````",
"````````````````````````````````"
};
