/* XPM */
static char *composite_xpm[] = {
/* width height num_colors chars_per_pixel */
"    16    16      256            2",
/* colors */
"`` c none",
"`. c #d6ba73",
"`# c #ffdb9c",
"`a c #f0c75e",
"`b c #efb642",
"`c c #ffcf73",
"`d c #e3b13b",
"`e c #210300",
"`f c #a4a19e",
"`g c #b1afaa",
"`h c #2c2b2a",
"`i c #2b2a29",
"`j c #2a2a29",
"`k c #292928",
"`l c #d0b76b",
"`m c #a1a09c",
"`n c #020202",
"`o c #62cd58",
"`p c #6ccf62",
"`q c #76d36e",
"`r c #80d679",
"`s c #8cda86",
"`t c #decb8c",
"`u c #010101",
"`v c #a5a29e",
"`w c #67cd5d",
"`x c #71d168",
"`y c #7cd473",
"`z c #ceba6b",
"`A c #ffffff",
"`B c #92b391",
"`C c #adc6ad",
"`D c #2a2928",
"`E c #272726",
"`F c #76d26e",
"`G c #847129",
"`H c #77ac73",
"`I c #83b480",
"`J c #9ac399",
"`K c #b8dab9",
"`L c #d6eed7",
"`M c #558dcb",
"`N c #5e92cb",
"`O c #6390c2",
"`P c #71d068",
"`Q c #76ca6f",
"`R c #74ba6e",
"`S c #7cb977",
"`T c #90cb8c",
"`U c #a7d9a4",
"`V c #bee6bc",
"`W c #d1efd1",
"`X c #e0f5e3",
"`Y c #568dcb",
"`Z c #5e92cc",
"`0 c #b4b2ae",
"`1 c #558ecb",
"`2 c #5e93cc",
"`3 c #648bb4",
"`4 c #6c8cb1",
"`5 c #7795b4",
"`6 c #829cb7",
"`7 c #93a8bc",
"`8 c #a3b3c1",
".` c #a09d9a",
".. c #aba9a5",
".# c #b8b5b1",
".a c #6695c8",
".b c #709bc9",
".c c #7da2cc",
".d c #89abd0",
".e c #97b5d5",
".f c #abc2da",
".g c #bdcee0",
".h c #b9b6b2",
".i c #aeaba7",
".j c #000000",
".k c #000000",
".l c #000000",
".m c #000000",
".n c #000000",
".o c #000000",
".p c #000000",
".q c #000000",
".r c #000000",
".s c #000000",
".t c #000000",
".u c #000000",
".v c #000000",
".w c #000000",
".x c #000000",
".y c #000000",
".z c #000000",
".A c #000000",
".B c #000000",
".C c #000000",
".D c #000000",
".E c #000000",
".F c #000000",
".G c #000000",
".H c #000000",
".I c #000000",
".J c #000000",
".K c #000000",
".L c #000000",
".M c #000000",
".N c #000000",
".O c #000000",
".P c #000000",
".Q c #000000",
".R c #000000",
".S c #000000",
".T c #000000",
".U c #000000",
".V c #000000",
".W c #000000",
".X c #000000",
".Y c #000000",
".Z c #000000",
".0 c #000000",
".1 c #000000",
".2 c #000000",
".3 c #000000",
".4 c #000000",
".5 c #000000",
".6 c #000000",
".7 c #000000",
".8 c #000000",
"#` c #000000",
"#. c #000000",
"## c #000000",
"#a c #000000",
"#b c #000000",
"#c c #000000",
"#d c #000000",
"#e c #000000",
"#f c #000000",
"#g c #000000",
"#h c #000000",
"#i c #000000",
"#j c #000000",
"#k c #000000",
"#l c #000000",
"#m c #000000",
"#n c #000000",
"#o c #000000",
"#p c #000000",
"#q c #000000",
"#r c #000000",
"#s c #000000",
"#t c #000000",
"#u c #000000",
"#v c #000000",
"#w c #000000",
"#x c #000000",
"#y c #000000",
"#z c #000000",
"#A c #000000",
"#B c #000000",
"#C c #000000",
"#D c #000000",
"#E c #000000",
"#F c #000000",
"#G c #000000",
"#H c #000000",
"#I c #000000",
"#J c #000000",
"#K c #000000",
"#L c #000000",
"#M c #000000",
"#N c #000000",
"#O c #000000",
"#P c #000000",
"#Q c #000000",
"#R c #000000",
"#S c #000000",
"#T c #000000",
"#U c #000000",
"#V c #000000",
"#W c #000000",
"#X c #000000",
"#Y c #000000",
"#Z c #000000",
"#0 c #000000",
"#1 c #000000",
"#2 c #000000",
"#3 c #000000",
"#4 c #000000",
"#5 c #000000",
"#6 c #000000",
"#7 c #000000",
"#8 c #000000",
"a` c #000000",
"a. c #000000",
"a# c #000000",
"aa c #000000",
"ab c #000000",
"ac c #000000",
"ad c #000000",
"ae c #000000",
"af c #000000",
"ag c #000000",
"ah c #000000",
"ai c #000000",
"aj c #000000",
"ak c #000000",
"al c #000000",
"am c #000000",
"an c #000000",
"ao c #000000",
"ap c #000000",
"aq c #000000",
"ar c #000000",
"as c #000000",
"at c #000000",
"au c #000000",
"av c #000000",
"aw c #000000",
"ax c #000000",
"ay c #000000",
"az c #000000",
"aA c #000000",
"aB c #000000",
"aC c #000000",
"aD c #000000",
"aE c #000000",
"aF c #000000",
"aG c #000000",
"aH c #000000",
"aI c #000000",
"aJ c #000000",
"aK c #000000",
"aL c #000000",
"aM c #000000",
"aN c #000000",
"aO c #000000",
"aP c #000000",
"aQ c #000000",
"aR c #000000",
"aS c #000000",
"aT c #000000",
"aU c #000000",
"aV c #000000",
"aW c #000000",
"aX c #000000",
"aY c #000000",
"aZ c #000000",
"a0 c #000000",
"a1 c #000000",
"a2 c #000000",
"a3 c #000000",
"a4 c #000000",
"a5 c #000000",
"a6 c #000000",
"a7 c #000000",
"a8 c #000000",
/* pixels */
"```````````````````````````.`#``",
"`````````````````````````.`#`a`b",
"```````````````````````.`#`c`d`e",
"`````````````````````.`#`c`b`e``",
"```````````````````.`#`c`b`e````",
"`````````````````.`#`c`b`e``````",
"```h`i`j`j`k`j`l`#`c`b`e````````",
"```n`o`p`q`r`s`t`c`b`e`u````````",
"```````w`x`y`z`A`e`e`B`C````````",
"`h`D`E```p`F```G`H`I`J`K`L``````",
"`n`M`N`O```P`Q`R`S`T`U`V`W`X````",
"`````Y`Z`O``````````````````````",
"```````1`2`O`3`4`5`6`7`8````````",
"`````````M`N.a.b.c.d.e.f.g``````",
"````````````````````````````````",
"````````````````````````````````"
};
