/* XPM */
static char *comparechart_xpm[] = {
/* width height num_colors chars_per_pixel */
"    21    21      256            2",
/* colors */
"`` c #2c52cc",
"`. c #048204",
"`# c #84b684",
"`a c #84ea4c",
"`b c #fcd214",
"`c c #fcbe04",
"`d c #d4d2b4",
"`e c #44be24",
"`f c #d4eafc",
"`g c #b40204",
"`h c #84ba9c",
"`i c #4c86d4",
"`j c #fcfeac",
"`k c #6ca28c",
"`l c #ccb684",
"`m c #a4caa4",
"`n c #3c6ad4",
"`o c #c4d2dc",
"`p c #b4526c",
"`q c #ccb2c4",
"`r c #849ed4",
"`s c #cce2d4",
"`t c #6cbafc",
"`u c #dcfafc",
"`v c #5496e4",
"`w c #fcda64",
"`x c #e4eaf4",
"`y c #b4a2c4",
"`z c #eceef4",
"`A c #ccdef4",
"`B c #1ca604",
"`C c #e40204",
"`D c #5ca2e4",
"`E c #d4ceac",
"`F c #a4c2e4",
"`G c #5c72c4",
"`H c #a4aedc",
"`I c #f4fafc",
"`J c #64de44",
"`K c #94c2d4",
"`L c #448edc",
"`M c #4476dc",
"`N c #a4c6e4",
"`O c #b4b6f4",
"`P c #3c62cc",
"`Q c #acb6dc",
"`R c #94baa4",
"`S c #ac7684",
"`T c #c4c6cc",
"`U c #ecf6fc",
"`V c #dce6f4",
"`W c #b4c6e4",
"`X c #fcd644",
"`Y c #54ca2c",
"`Z c #dcf2fc",
"`0 c #4c86e4",
"`1 c #fcea64",
"`2 c #e4f2f4",
"`3 c #24b61c",
"`4 c #445ac4",
"`5 c #bcd2e4",
"`6 c #dceaf4",
"`7 c #cc1e1c",
"`8 c #74b29c",
".` c #dcbe8c",
".. c #74cafc",
".# c #549eec",
".a c #f4eef4",
".b c #d4e6fc",
".c c #dc2224",
".d c #5cb6f4",
".e c #e4c69c",
".f c #acb2dc",
".g c #447edc",
".h c #345acc",
".i c #049604",
".j c #84aea4",
".k c #ecc66c",
".l c #44c634",
".m c #4472d4",
".n c #d4d2e4",
".o c #dcdedc",
".p c #e4eef4",
".q c #d4e2f4",
".r c #fc0204",
".s c #9cc29c",
".t c #c47284",
".u c #cccee4",
".v c #b4cee4",
".w c #fcea84",
".x c #fcd22c",
".y c #ecd68c",
".z c #cc0204",
".A c #8cc29c",
".B c #4c8adc",
".C c #6caa8c",
".D c #bc6274",
".E c #ccbacc",
".F c #74c6fc",
".G c #5c96f4",
".H c #ecf2f4",
".I c #2caa0c",
".J c #64aaf4",
".K c #dccaa4",
".L c #a4b2dc",
".M c #fcfefc",
".N c #7cee54",
".O c #5492dc",
".P c #4c76e4",
".Q c #acc6e4",
".R c #4466cc",
".S c #acb6ec",
".T c #b4768c",
".U c #d4c2cc",
".V c #fce24c",
".W c #548aec",
".X c #34b614",
".Y c #bcd6ec",
".Z c #dceefc",
".0 c #e4c29c",
".1 c #8cb6ac",
".2 c #fcf284",
".3 c #3456cc",
".4 c #048604",
".5 c #8cfa64",
".6 c #fcc204",
".7 c #dcd2b4",
".8 c #4cc21c",
"#` c #d4eefc",
"#. c #9ca6d4",
"## c #c45a6c",
"#a c #b4bae4",
"#b c #7cd6fc",
"#c c #5cd234",
"#d c #fce25c",
"#e c #fc0a0c",
"#f c #c4c6e4",
"#g c #4c7eec",
"#h c #4c92e4",
"#i c #64b2fc",
"#j c #ccba94",
"#k c #cce6e4",
"#l c #e4f6fc",
"#m c #7cb69c",
"#n c #0c9a04",
"#o c #ccd2e4",
"#p c #24a60c",
"#q c #6cde3c",
"#r c #9cc2dc",
"#s c #5c9ef4",
"#t c #4cc62c",
"#u c #bc0204",
"#v c #f4f6fc",
"#w c #d41e1c",
"#x c #4472e4",
"#y c #cce2fc",
"#z c #5ca6ec",
"#A c #447ad4",
"#B c #fcda3c",
"#C c #dcc294",
"#D c #e4caa4",
"#E c #84b2ac",
"#F c #ecca64",
"#G c #d4d6ec",
"#H c #fcee7c",
"#I c #fcd624",
"#J c #dcceac",
"#K c #84be9c",
"#L c #6ca68c",
"#M c #3c6ed4",
"#N c #ccb6c4",
"#O c #6cbefc",
"#P c #549ae4",
"#Q c #e40604",
"#R c #f4fefc",
"#S c #b4cae4",
"#T c #4c8ae4",
"#U c #f4f2f4",
"#V c #9cc69c",
"#W c #accae4",
"#X c #4c86dc",
"#Y c #e4eafc",
"#Z c #a4aee4",
"#0 c #3c62d4",
"#1 c #94baac",
"#2 c #ac768c",
"#3 c #dce6fc",
"#4 c #e4f2fc",
"#5 c #bcd2ec",
"#6 c #dceafc",
"#7 c #acb2e4",
"#8 c #345ad4",
"a` c #dcdee4",
"a. c #e4eefc",
"a# c #d4e2fc",
"aa c #b4ceec",
"ab c #ecf2fc",
"ac c #acb6f4",
"ad c #34b61c",
"ae c #000000",
"af c #000000",
"ag c #000000",
"ah c #000000",
"ai c #000000",
"aj c #000000",
"ak c #000000",
"al c #000000",
"am c #000000",
"an c #000000",
"ao c #000000",
"ap c #000000",
"aq c #000000",
"ar c #000000",
"as c #000000",
"at c #000000",
"au c #000000",
"av c #000000",
"aw c #000000",
"ax c #000000",
"ay c #000000",
"az c #000000",
"aA c #000000",
"aB c #000000",
"aC c #000000",
"aD c #000000",
"aE c #000000",
"aF c #000000",
"aG c #000000",
"aH c #000000",
"aI c #000000",
"aJ c #000000",
"aK c #000000",
"aL c #000000",
"aM c #000000",
"aN c #000000",
"aO c #000000",
"aP c #000000",
"aQ c #000000",
"aR c #000000",
"aS c #000000",
"aT c #000000",
"aU c #000000",
"aV c #000000",
"aW c #000000",
"aX c #000000",
"aY c #000000",
"aZ c #000000",
"a0 c #000000",
"a1 c #000000",
"a2 c #000000",
"a3 c #000000",
"a4 c #000000",
"a5 c #000000",
"a6 c #000000",
"a7 c #000000",
"a8 c #000000",
/* pixels */
".M.M.M.M.M.M.M.M.M.M.M.M.M.M.M.M.M.M.M.M.M",
".M.M.M.M.M.M.M.M.M.M.M.M.M.M.M.M.M.M.M.M.M",
".M.M#G.u.n.u.n.u.n.u.n.u.n.n.u.n.n.n.u`z.M",
".M#f`i`D`v`v.O#h#T#X.g#A.m`n#0#8.3#8```G#v",
".M.f.d#b...F#O`t#i.J#s.G.W#g.P#x#x.P#x.R.a",
".M.f`L#z#P#h#h#T`0#A#x`n#0#8``.h.h.h.3`4#U",
".M`W#.`Q`Q`Q`Q.L.L.L.L#Z`H.L`Oac.S#Z#Z`r.H",
".M.Y`U.M.M.M.M.M.M#R#R#R#R`s#V`m.s#k.M#5.p",
".M#5`V`Iab#4ab#4#Ya`a`.o`z`#`e#c.I.1`I#W.H",
".M.Y`V`Uab#4a.#l#J.k.y#F.e.A`a.5#t`R#v#W#4",
".M#5`V`U#6.Z#6.Z.K.w`j#H.e#K#q.N`e#1ab#W`z",
".M#5`Z.U`7.c#w.t`d`w.2#d.e#m`Y`Jad.1#4#Wab",
".M`5.Z#N`C.r.r##`d`X`1`X.0`8.X.l#p.1a..Q`2",
".M#5.Z.E`C#e`C.D`E.x.V.x#C`8`B`3#n#E#6#Wa.",
".M`5#``q#u.z`g`p`E`c`b`c.`.C.4.i`..j`f.Q.H",
".M#5.b.u`S#2`S`y`o`l#j`l`T`K`k#L`k`K#y#W#4",
".Maa`A#4`u#l`u.Z#3`f`f`f.b#3.Z#Y#6a##6`F`z",
".M.q`F#S.Q`W.Q#W#S#W#W#S#W#W#W#W#W#W#W`N`I",
".M.M.M.M.M.M.M.M.M.M.M.M.M.M.M.M.M.M.M.M.M",
".M.M.M.M.M.M.M.M.M.M.M.M.M.M.M.M.M.M.M.M.M",
".M.M.M.M.M.M.M.M.M.M.M.M.M.M.M.M.M.M.M.M.M"
};
