/* XPM */
static char *Database_xpm[] = {
/* width height num_colors chars_per_pixel */
"    16    16      256            2",
/* colors */
"`` c #fefefe",
"`. c #fbfbfb",
"`# c #dee2e4",
"`a c #ccd3d7",
"`b c #d2d8dc",
"`c c #dadfe2",
"`d c #d8dee2",
"`e c #cfd7dc",
"`f c #c4ced6",
"`g c #bac7cf",
"`h c #b6c3cb",
"`i c #c2cbd1",
"`j c #e3e6e8",
"`k c #fdfdfd",
"`l c #fdfefe",
"`m c #ffffff",
"`n c #f0f2f3",
"`o c #cbd5db",
"`p c #d4dee4",
"`q c #eaeef2",
"`r c #f7f9fa",
"`s c #eff3f6",
"`t c #dfe6ec",
"`u c #cfdae3",
"`v c #bccdd7",
"`w c #a8bdcb",
"`x c #93acbc",
"`y c #aabac5",
"`z c #f7f8f9",
"`A c #fefeff",
"`B c #fafbfc",
"`C c #b7c6ce",
"`D c #adbec9",
"`E c #dde5ea",
"`F c #e9edf1",
"`G c #eff2f5",
"`H c #eaeef1",
"`I c #dce4ea",
"`J c #ced9e1",
"`K c #c1d0d9",
"`L c #bdccd7",
"`M c #c8d5dd",
"`N c #c4d2db",
"`O c #dde4ea",
"`P c #fffffe",
"`Q c #f8f9fa",
"`R c #a2b4bf",
"`S c #507589",
"`T c #7f9bab",
"`U c #9bb1be",
"`V c #b5c5d0",
"`W c #c7d4dd",
"`X c #d6e0e6",
"`Y c #e6ecef",
"`Z c #f4f7f8",
"`0 c #edf0f4",
"`1 c #dee6ea",
"`2 c #adc0cd",
"`3 c #d3dce3",
"`4 c #cbd6db",
"`5 c #6e8d9e",
"`6 c #7695a7",
"`7 c #819eb0",
"`8 c #c3d2dd",
".` c #e6ecf0",
".. c #f4f7fa",
".# c #e0e9ee",
".a c #c1d1db",
".b c #e8edf1",
".c c #9caab2",
".d c #587484",
".e c #738d9d",
".f c #89a1b0",
".g c #9fb3c1",
".h c #b7c6d0",
".i c #cfd8dd",
".j c #d7dde0",
".k c #b7c2c9",
".l c #8799a3",
".m c #b6c0c6",
".n c #fcfdfd",
".o c #e1e6e9",
".p c #8a9ba4",
".q c #6e828e",
".r c #6b808d",
".s c #6b818e",
".t c #6d8491",
".u c #6f8692",
".v c #6e8491",
".w c #677f8c",
".x c #617986",
".y c #5f7784",
".z c #91a1aa",
".A c #f2f4f6",
".B c #f9fafb",
".C c #aabbc5",
".D c #87a0af",
".E c #b4c3cc",
".F c #b9c6cf",
".G c #bbc7d0",
".H c #bac6cf",
".I c #bbc8d0",
".J c #c2cdd5",
".K c #ccd5dc",
".L c #dae1e6",
".M c #c3d1db",
".N c #d6dfe6",
".O c #a7b8c2",
".P c #4c7286",
".Q c #7493a4",
".R c #89a4b4",
".S c #a2b7c5",
".T c #b8c9d4",
".U c #cedbe3",
".V c #e8eef1",
".W c #dbe4ea",
".X c #aabecb",
".Y c #d6dfe5",
".Z c #fcfcfc",
".0 c #e3e8eb",
".1 c #89a1af",
".2 c #7592a3",
".3 c #85a1b2",
".4 c #97b0bf",
".5 c #acc0cf",
".6 c #c7d6e0",
".7 c #e9f0f3",
".8 c #f3f6f9",
"#` c #d7e0e6",
"#. c #cdd9e1",
"## c #f3f5f7",
"#a c #fefdfd",
"#b c #8c9ba4",
"#c c #4b6675",
"#d c #617c8b",
"#e c #758e9c",
"#f c #879dab",
"#g c #9aacb7",
"#h c #a9b7bf",
"#i c #a8b4bb",
"#j c #8799a2",
"#k c #5c737f",
"#l c #98a6ad",
"#m c #fbfcfc",
"#n c #cdd7dc",
"#o c #93a5af",
"#p c #8d9ea8",
"#q c #82949f",
"#r c #7b8f9a",
"#s c #778c98",
"#t c #758a96",
"#u c #718794",
"#v c #6e8592",
"#w c #748a97",
"#x c #8497a2",
"#y c #a5b4bd",
"#z c #e8edf0",
"#A c #a4b6c1",
"#B c #6f8d9f",
"#C c #a3b7c3",
"#D c #b4c4ce",
"#E c #c1ced6",
"#F c #c8d3dc",
"#G c #ced8df",
"#H c #d7dfe4",
"#I c #e2e8ec",
"#J c #e5eaee",
"#K c #e5ebef",
"#L c #bccdd8",
"#M c #acbcc5",
"#N c #4f7388",
"#O c #6c8c9f",
"#P c #7e9bad",
"#Q c #95aebd",
"#R c #adc0ce",
"#S c #c7d5df",
"#T c #e7edf0",
"#U c #eef2f5",
"#V c #d8e1e8",
"#W c #d6dee4",
"#X c #edf0f1",
"#Y c #9baeb8",
"#Z c #7f99a8",
"#0 c #859faf",
"#1 c #95adbc",
"#2 c #a8bcca",
"#3 c #c1d0da",
"#4 c #dfe7eb",
"#5 c #f4f6f7",
"#6 c #e5eaed",
"#7 c #ced8de",
"#8 c #c8d2d8",
"a` c #e5e8e9",
"a. c #b9c5cb",
"a# c #a1b1bb",
"aa c #a1b2bd",
"ab c #b1bfc7",
"ac c #ced4d7",
"ad c #d3d9dc",
"ae c #e6e9ea",
"af c #000000",
"ag c #000000",
"ah c #000000",
"ai c #000000",
"aj c #000000",
"ak c #000000",
"al c #000000",
"am c #000000",
"an c #000000",
"ao c #000000",
"ap c #000000",
"aq c #000000",
"ar c #000000",
"as c #000000",
"at c #000000",
"au c #000000",
"av c #000000",
"aw c #000000",
"ax c #000000",
"ay c #000000",
"az c #000000",
"aA c #000000",
"aB c #000000",
"aC c #000000",
"aD c #000000",
"aE c #000000",
"aF c #000000",
"aG c #000000",
"aH c #000000",
"aI c #000000",
"aJ c #000000",
"aK c #000000",
"aL c #000000",
"aM c #000000",
"aN c #000000",
"aO c #000000",
"aP c #000000",
"aQ c #000000",
"aR c #000000",
"aS c #000000",
"aT c #000000",
"aU c #000000",
"aV c #000000",
"aW c #000000",
"aX c #000000",
"aY c #000000",
"aZ c #000000",
"a0 c #000000",
"a1 c #000000",
"a2 c #000000",
"a3 c #000000",
"a4 c #000000",
"a5 c #000000",
"a6 c #000000",
"a7 c #000000",
"a8 c #000000",
/* pixels */
"`````.`#`a`b`c`d`e`f`g`h`i`j`k``",
"`l`m`n`o`p`q`r`s`t`u`v`w`x`y`z`A",
"`B```C`D`E`F`G`H`I`J`K`L`M`N`O`P",
"`Q`m`R`S`T`U`V`W`X`Y`Z`0`1`2`3`m",
"`B```4`5`6`7`x`w`8.``m...#.a.b``",
"`````m.c.d.e.f.g.h.i.j.k.l.m`m``",
".n`m.o.p.q.r.s.t.u.v.w.x.y.z.A``",
".B``.C.D.E.F.G`g.H.I.J.K.L.M.N`m",
"`Q`m.O.P.Q.R.S.T.U.V.n`s.W.X.Y`m",
".Z``.0.1.2.3.4.5.6.7`m.8#`#.##``",
"````#a#b#c#d#e#f#g#h#i#j#k#l`P``",
"#m`m#n#o#p#q#r#s#t#u#v#w#x#y#z`P",
"`Q``#A#B#C#D#E#F#G#H#I#J#K#L`p``",
"`Q`m#M#N#O#P#Q#R#S#T`l#U#V.X#W`m",
"`k``#X#Y#Z#0#1#2#3#4#5#6#7#8#5``",
"`m```m`ma`a.a#aaab`iacadae`m`m``"
};
