/* XPM */
static char *data_xpm[] = {
/* width height num_colors chars_per_pixel */
"    16    16      256            2",
/* colors */
"`` c #83c3fc",
"`. c #a2d5ff",
"`# c #a2d6ff",
"`a c #a1d6ff",
"`b c #a0d6ff",
"`c c #a0d5ff",
"`d c #9fd4ff",
"`e c #9ed4ff",
"`f c #9dd4ff",
"`g c #86c6ff",
"`h c #aac5dd",
"`i c #c6c3c1",
"`j c #989898",
"`k c #9e9e9e",
"`l c #8a8a8a",
"`m c #9cd3fe",
"`n c #ffe495",
"`o c #ffd060",
"`p c #ffd36b",
"`q c #ffd46b",
"`r c #ffd369",
"`s c #ffd76a",
"`t c #c6e1f5",
"`u c #c6e7ff",
"`v c #ebe8e5",
"`w c #848484",
"`x c #b3b3b3",
"`y c none",
"`z c #92ceff",
"`A c #ffd05f",
"`B c #fde9af",
"`C c #fef2c6",
"`D c #fef1c4",
"`E c #fef5d1",
"`F c #ffcc50",
"`G c #bad6e4",
"`H c #b9ddfc",
"`I c #c5c1be",
"`J c #868686",
"`K c #858585",
"`L c #dbdbdb",
"`M c #8bcbff",
"`N c #ffcd68",
"`O c #fdecb2",
"`P c #fff4bb",
"`Q c #fff3ba",
"`R c #fff3b9",
"`S c #fff9cc",
"`T c #ffcb5c",
"`U c #b4d2e4",
"`V c #b6dcfe",
"`W c #aaaaaa",
"`X c #fafafa",
"`Y c #84c8ff",
"`Z c #fec667",
"`0 c #fce494",
"`1 c #feec94",
"`2 c #feeb94",
"`3 c #feeb92",
"`4 c #fff2a7",
"`5 c #fec153",
"`6 c #afcfe5",
"`7 c #b1dafd",
"`8 c #a3a3a3",
".` c #efefef",
".. c #7ec6ff",
".# c #fabc65",
".a c #fadc77",
".b c #fde16c",
".c c #fde16e",
".d c #fde06b",
".e c #ffea83",
".f c #f9b649",
".g c #aacbe6",
".h c #add8fc",
".i c #a1a1a1",
".j c #7bc5ff",
".k c #f5b263",
".l c #fad255",
".m c #fdd63e",
".n c #fdd640",
".o c #fdd53d",
".p c #ffe15a",
".q c #f4ab3f",
".r c #a7c8e7",
".s c #acd7fc",
".t c #a2a2a2",
".u c #7ac4ff",
".v c #efa455",
".w c #f4bd38",
".x c #f9c83d",
".y c #f8c83e",
".z c #f8c83c",
".A c #facf48",
".B c #ed9524",
".C c #a6c7e8",
".D c #a9d4f9",
".E c #b7b2ad",
".F c #6f6f6f",
".G c #727272",
".H c #d6d6d6",
".I c #7ac2fc",
".J c #ffc590",
".K c #ea9e58",
".L c #eda561",
".M c #eda560",
".N c #eca35d",
".O c #f6aa62",
".P c #afd2f0",
".Q c #b2ddff",
".R c #e6e2de",
".S c #646464",
".T c #449fed",
".U c #7ac3ff",
".V c #7cc9ff",
".W c #7cc8ff",
".X c #7bc7ff",
".Y c #51a9f5",
".Z c #7ea4c5",
".0 c #b2afac",
".1 c #7a7a7a",
".2 c #8f8f8f",
".3 c #797979",
".4 c #67b2f6",
".5 c #e8e5c9",
".6 c #e5d49e",
".7 c #e5d5a3",
".8 c #e5d5a1",
"#` c #e8ddaf",
"#. c #97c9f2",
"## c #a3cdf1",
"#a c #e3dfdc",
"#b c #6a6a6a",
"#c c #adadad",
"#d c #e8e8e8",
"#e c #6db9ff",
"#f c #ffcd5a",
"#g c #fdd56d",
"#h c #ffde84",
"#i c #ffdd82",
"#j c #ffe089",
"#k c #ffc337",
"#l c #a4c8e0",
"#m c #a9d5fb",
"#n c #f2f0ed",
"#o c #6e6e6e",
"#p c #c2c2c2",
"#q c #6ab7fc",
"#r c #fec066",
"#s c #fde893",
"#t c #ffef8f",
"#u c #ffee90",
"#v c #ffee8d",
"#w c #fff7a6",
"#x c #febd53",
"#y c #a0c3dd",
"#z c #a2cff5",
"#A c #939393",
"#B c #f3f3f3",
"#C c #68b8fc",
"#D c #f5aa56",
"#E c #f5c44c",
"#F c #f9d155",
"#G c #f9d055",
"#H c #f9d054",
"#I c #fad75f",
"#J c #f39e2b",
"#K c #9ec0df",
"#L c #a3d0f7",
"#M c #fbfaf9",
"#N c #808080",
"#O c #dedede",
"#P c #6bb6f6",
"#Q c #ffc892",
"#R c #eea059",
"#S c #f1a761",
"#T c #f1a760",
"#U c #f0a65e",
"#V c #faad64",
"#W c #abcdeb",
"#X c #afdbff",
"#Y c #f0ecea",
"#Z c #525252",
"#0 c #2e8ee0",
"#1 c #62b0f3",
"#2 c #63b3f9",
"#3 c #62b2f7",
"#4 c #62b2f8",
"#5 c #61b2f7",
"#6 c #3d9ae9",
"#7 c #6a90b1",
"#8 c #96918e",
"a` c #5b5b5b",
"a. c #6d6d6d",
"a# c #616161",
"aa c #000000",
"ab c #000000",
"ac c #000000",
"ad c #000000",
"ae c #000000",
"af c #000000",
"ag c #000000",
"ah c #000000",
"ai c #000000",
"aj c #000000",
"ak c #000000",
"al c #000000",
"am c #000000",
"an c #000000",
"ao c #000000",
"ap c #000000",
"aq c #000000",
"ar c #000000",
"as c #000000",
"at c #000000",
"au c #000000",
"av c #000000",
"aw c #000000",
"ax c #000000",
"ay c #000000",
"az c #000000",
"aA c #000000",
"aB c #000000",
"aC c #000000",
"aD c #000000",
"aE c #000000",
"aF c #000000",
"aG c #000000",
"aH c #000000",
"aI c #000000",
"aJ c #000000",
"aK c #000000",
"aL c #000000",
"aM c #000000",
"aN c #000000",
"aO c #000000",
"aP c #000000",
"aQ c #000000",
"aR c #000000",
"aS c #000000",
"aT c #000000",
"aU c #000000",
"aV c #000000",
"aW c #000000",
"aX c #000000",
"aY c #000000",
"aZ c #000000",
"a0 c #000000",
"a1 c #000000",
"a2 c #000000",
"a3 c #000000",
"a4 c #000000",
"a5 c #000000",
"a6 c #000000",
"a7 c #000000",
"a8 c #000000",
/* pixels */
"```.`#`a`a`b`c`d`e`f`g`h`i`j`k`l",
"`m`n`o`p`p`p`p`q`r`s`t`u`v`w`x`y",
"`z`A`B`C`D`D`D`D`E`F`G`H`I`J`K`L",
"`M`N`O`P`Q`Q`Q`R`S`T`U`V`y`W`X`y",
"`Y`Z`0`1`2`2`2`3`4`5`6`7`y`8.``y",
"...#.a.b.c.c.c.d.e.f.g.h`y.i.``y",
".j.k.l.m.n.n.n.o.p.q.r.s`y.t`X`y",
".u.v.w.x.y.y.y.z.A.B.C.D.E.F.G.H",
".I.J.K.L.M.M.M.M.N.O.P.Q.R.S.t`y",
".T.U.V.W.W.W.W.W.W.X.Y.Z.0.1.2.3",
".4.5.6.7.7.7.7.7.8#`#.###a#b#c#d",
"#e#f#g#h#i#i#i#i#j#k#l#m#n#o#p`y",
"#q#r#s#t#u#u#u#v#w#x#y#z`y#A#B`y",
"#C#D#E#F#G#G#G#H#I#J#K#L#M#N#O`y",
"#P#Q#R#S#T#T#T#S#U#V#W#X#Y#Z#c`y",
"#0#1#2#3#3#3#3#3#4#5#6#7#8a`a.a#"
};
