/* XPM */
static char *delrec_xpm[] = {
/* width height num_colors chars_per_pixel */
"    21    21      256            2",
/* colors */
"`` c #ac0204",
"`. c #dc8684",
"`# c #b44244",
"`a c #e4c2c4",
"`b c #d4a2a4",
"`c c #b42224",
"`d c #cc6264",
"`e c #d40204",
"`f c #e4b2b4",
"`g c #d49294",
"`h c #e46e6c",
"`i c #f4e6e4",
"`j c #e41214",
"`k c #dc2e2c",
"`l c #e47274",
"`m c #f44244",
"`n c #f4a6a4",
"`o c #f4b2b4",
"`p c #ec9294",
"`q c #c40204",
"`r c #ec8a8c",
"`s c #fcd2d4",
"`t c #ac3234",
"`u c #ec0204",
"`v c #fc7274",
"`w c #f49e9c",
"`x c #fcc2c4",
"`y c #fcf6f4",
"`z c #ecaaac",
"`A c #bc1614",
"`B c #c47274",
"`C c #e4babc",
"`D c #e41a1c",
"`E c #f44e4c",
"`F c #fc8684",
"`G c #f47a7c",
"`H c #bc0204",
"`I c #b44e4c",
"`J c #eccacc",
"`K c #ec3a3c",
"`L c #f4babc",
"`M c #fc9294",
"`N c #b43e3c",
"`O c #f40a0c",
"`P c #fc5654",
"`Q c #d48e8c",
"`R c #dcaeac",
"`S c #ac2a2c",
"`T c #e40204",
"`U c #fc6264",
"`V c #fceeec",
"`W c #cc0e0c",
"`X c #f48e8c",
"`Y c #fcaaac",
"`Z c #ecbabc",
"`0 c #fc4e4c",
"`1 c #fc7a7c",
"`2 c #b40204",
"`3 c #e48284",
"`4 c #c44244",
"`5 c #ecc2c4",
"`6 c #dc6a6c",
"`7 c #d49a9c",
"`8 c #f41614",
".` c #ec2224",
".. c #fca2a4",
".# c #f49294",
".a c #cc0204",
".b c #f48684",
".c c #f40204",
".d c #fc9a9c",
".e c none",
".f c #dc6e6c",
".g c #f41e1c",
".h c #fcbabc",
".i c #bc3a3c",
".j c #b42a2c",
".k c #fc6e6c",
".l c #bc4644",
".m c #d4a6a4",
".n c #cc6664",
".o c #dc0204",
".p c #e4b6b4",
".q c #dc9694",
".r c #fceaec",
".s c #ec1214",
".t c #e47a7c",
".u c #fcb2b4",
".v c #c40604",
".w c #fcdedc",
".x c #b43634",
".y c #ec0604",
".z c #fc7674",
".A c #fccacc",
".B c #fcfafc",
".C c #ecaeac",
".D c #e4bebc",
".E c #ec1e1c",
".F c #f45254",
".G c #fc8e8c",
".H c #f47e7c",
".I c #bc0a0c",
".J c #cc5654",
".K c #eccecc",
".L c #ec3e3c",
".M c #f4bebc",
".N c #fc9694",
".O c #f40e0c",
".P c #e4aeac",
".Q c #ac2e2c",
".R c #e40604",
".S c #fc6664",
".T c #fcf2f4",
".U c #fcaeac",
".V c #ecbebc",
".W c #fc5254",
".X c #fc7e7c",
".Y c #b40604",
".Z c #e48684",
".0 c #ecc6c4",
".1 c #f42e2c",
".2 c #fca6a4",
".3 c #f49694",
".4 c #f48a8c",
".5 c #fc9e9c",
".6 c #dc7274",
".7 c #bc3e3c",
".8 c #000000",
"#` c #000000",
"#. c #000000",
"## c #000000",
"#a c #000000",
"#b c #000000",
"#c c #000000",
"#d c #000000",
"#e c #000000",
"#f c #000000",
"#g c #000000",
"#h c #000000",
"#i c #000000",
"#j c #000000",
"#k c #000000",
"#l c #000000",
"#m c #000000",
"#n c #000000",
"#o c #000000",
"#p c #000000",
"#q c #000000",
"#r c #000000",
"#s c #000000",
"#t c #000000",
"#u c #000000",
"#v c #000000",
"#w c #000000",
"#x c #000000",
"#y c #000000",
"#z c #000000",
"#A c #000000",
"#B c #000000",
"#C c #000000",
"#D c #000000",
"#E c #000000",
"#F c #000000",
"#G c #000000",
"#H c #000000",
"#I c #000000",
"#J c #000000",
"#K c #000000",
"#L c #000000",
"#M c #000000",
"#N c #000000",
"#O c #000000",
"#P c #000000",
"#Q c #000000",
"#R c #000000",
"#S c #000000",
"#T c #000000",
"#U c #000000",
"#V c #000000",
"#W c #000000",
"#X c #000000",
"#Y c #000000",
"#Z c #000000",
"#0 c #000000",
"#1 c #000000",
"#2 c #000000",
"#3 c #000000",
"#4 c #000000",
"#5 c #000000",
"#6 c #000000",
"#7 c #000000",
"#8 c #000000",
"a` c #000000",
"a. c #000000",
"a# c #000000",
"aa c #000000",
"ab c #000000",
"ac c #000000",
"ad c #000000",
"ae c #000000",
"af c #000000",
"ag c #000000",
"ah c #000000",
"ai c #000000",
"aj c #000000",
"ak c #000000",
"al c #000000",
"am c #000000",
"an c #000000",
"ao c #000000",
"ap c #000000",
"aq c #000000",
"ar c #000000",
"as c #000000",
"at c #000000",
"au c #000000",
"av c #000000",
"aw c #000000",
"ax c #000000",
"ay c #000000",
"az c #000000",
"aA c #000000",
"aB c #000000",
"aC c #000000",
"aD c #000000",
"aE c #000000",
"aF c #000000",
"aG c #000000",
"aH c #000000",
"aI c #000000",
"aJ c #000000",
"aK c #000000",
"aL c #000000",
"aM c #000000",
"aN c #000000",
"aO c #000000",
"aP c #000000",
"aQ c #000000",
"aR c #000000",
"aS c #000000",
"aT c #000000",
"aU c #000000",
"aV c #000000",
"aW c #000000",
"aX c #000000",
"aY c #000000",
"aZ c #000000",
"a0 c #000000",
"a1 c #000000",
"a2 c #000000",
"a3 c #000000",
"a4 c #000000",
"a5 c #000000",
"a6 c #000000",
"a7 c #000000",
"a8 c #000000",
/* pixels */
".e.e.e.e.e.B`i.e.e.e.e.e.e.e.e`V.e.e.e.e.e",
".e.e.e.e`V.q`..V.e.e.e.e.e.e`o.#`L.e.e.e.e",
".e.e.e`y`Q`r`Y.Z`Z.e.B.B.e.C`w.w`n`o.e.e.e",
".e.e.e`d`k.H`X...Z`Z.e.e.C.3`x.h`s`n`o.e.e",
".B.B`d.a`T.R.L`G.d`3`Z.C`r.2.2.U.u.A`n`L.e",
".e.T.x.a.o`T`T.s`E`M`r.b.G.G.N.5...U`Y`p.B",
".e.T`a`S`e`T`T`u`u.1`v`1.z.X`F.G.d.d`h`J.B",
".e.B`V.D`S`e`T`T`u.c`8`U.k.k`v.X`F`6`5.T.e",
".e.e.B`V`C`c`e`T`T`u`u.O`P.S`U.z`6`5.T.e.e",
".e.e.e.B`V`C`A`T`T`u`u.c`O`E.S.6.D.T.e.e.e",
".e.e.e.B.e`7`W.o`T`T`u`u`u`O.W.t`f.e.e.e.e",
".e.e.B.e.m.I`e.o.o.o`T`T`u`u`8`P`l.V.e.e.e",
".e.e.e`b`H.a`e`e`e.o`T`T`T`u`u.E`E`l`a.e.e",
".B.e`b`2`q`q.a.a`e.o.o.o`T`T`T.y.``m`6.0.e",
".B.B`I.Y`q`H.a.a`e.a.i`c`e`T`T`T`j.E`K`Q.e",
".e`y.p.Q.Y`q`H.a`H.l.D`R`S`e.o.o`T`j.J.0.B",
".e.B.r`R`t.Y.v`2`#`J`V`V`C`S.a`T`e.l`C`V.B",
".e.e.B.r`R`t```N.K.T.B.B`V`C`S`H.i.D`V.B.e",
".e.e.e`y`i.P`B`J.T.B.e.e.B.T`C`B`C`V.B.e.e",
".e.e.e.e.e`V`V.T.e.e.e.e.e.B.T`V`V.B.e.e.e",
".e.e.e.e.e.e.B.e.e.e.e.e.e.e.e.B.e.e.e.e.e"
};
