/* XPM */
static char *deltable_xpm[] = {
/* width height num_colors chars_per_pixel */
"    21    21      256            2",
/* colors */
"`` c #042a5c",
"`. c #1496fc",
"`# c #0462c4",
"`a c #4c627c",
"`b c #8c96a4",
"`c c #0c7ee4",
"`d c #0c467c",
"`e c #b4cee4",
"`f c #2c6294",
"`g c #bceec4",
"`h c #1c364c",
"`i c #0472d4",
"`j c #2c465c",
"`k c #647e64",
"`l c #2482d4",
"`m c #043a84",
"`n c #9cb28c",
"`o c #048af4",
"`p c #1c76cc",
"`q c #f4f2f4",
"`r c #0472ec",
"`s c #0456ac",
"`t c #d4d6d4",
"`u c #748274",
"`v c #1486f4",
"`w c #04327c",
"`x c #74967c",
"`y c #0486fc",
"`z c #c4facc",
"`A c #34567c",
"`B c #046acc",
"`C c #5c7664",
"`D c #a4ae8c",
"`E c #04469c",
"`F c #144274",
"`G c #a4b2c4",
"`H c #5496dc",
"`I c #2472c4",
"`J c #04427c",
"`K c #047aec",
"`L c #e4e6e4",
"`M c #748e74",
"`N c #044e9c",
"`O c #04325c",
"`P c #047efc",
"`Q c #e4dad4",
"`R c #94a6b4",
"`S c #c4c2bc",
"`T c #0c72d4",
"`U c #244a94",
"`V c #148efc",
"`W c #8c8a6c",
"`X c #d4fecc",
"`Y c #046adc",
"`Z c #5c768c",
"`0 c #749ecc",
"`1 c #3476b4",
"`2 c #a4aebc",
"`3 c #cccecc",
"`4 c #ccf6cc",
"`5 c #243e54",
"`6 c #0472e4",
"`7 c #2c4e74",
"`8 c #4c92dc",
".` c #0c3e74",
".. c #0c92fc",
".# c #0476ec",
".a c #748a74",
".b c #3c5e7c",
".c c #6c766c",
".d c #549ee4",
".e c #247ad4",
".f c #044eb4",
".g c #0c82f4",
".h c #9caebc",
".i c #042e5c",
".j c #0466d4",
".k c #5c6e64",
".l c #c4f6c4",
".m c #6c826c",
".n c #3c7ec4",
".o c #043e7c",
".p c #0c8afc",
".q c #fcfafc",
".r c #045ebc",
".s c #dcdedc",
".t c #7c828c",
".u c #04368c",
".v c #849a84",
".w c #0c86ec",
".x c #ccfecc",
".y c #3c566c",
".z c #0446ac",
".A c #bcbabc",
".B c #2c72b4",
".C c #0c427c",
".D c #047afc",
".E c #0452a4",
".F c #04326c",
".G c #0482f4",
".H c #e4ded4",
".I c #9caabc",
".J c #b4c6dc",
".K c #046edc",
".L c #ccd6dc",
".M c #344e64",
".N c #042a64",
".O c #0466cc",
".P c #54667c",
".Q c #8ca284",
".R c #0c82ec",
".S c #3c6ea4",
".T c #243a54",
".U c #0472dc",
".V c #2c8ae4",
".W c #bcb6b4",
".X c #0472f4",
".Y c #045ab4",
".Z c #dcdad4",
".0 c #748674",
".1 c #04367c",
".2 c #345a7c",
".3 c #046ad4",
".4 c #647a6c",
".5 c #acb2c4",
".6 c #5c9ad4",
".7 c #2476c4",
".8 c #04428c",
"#` c #047af4",
"#. c #2c425c",
"## c #7c9274",
"#a c #5ca2e4",
"#b c #043664",
"#c c #b4cae4",
"#d c #0476e4",
"#e c #6c7a6c",
"#f c #0c8efc",
"#g c none",
"#h c #849e84",
"#i c #044aac",
"#j c #044ea4",
"#k c #94a6bc",
"#l c #d4fed4",
"#m c #ccced4",
"#n c #0476f4",
"#o c #c4f6cc",
"#p c #6c8274",
"#q c #043e84",
"#r c #0c86f4",
"#s c #ccfed4",
"#t c #0482fc",
"#u c #e4dedc",
"#v c #046ee4",
"#w c #344e6c",
"#x c #000000",
"#y c #000000",
"#z c #000000",
"#A c #000000",
"#B c #000000",
"#C c #000000",
"#D c #000000",
"#E c #000000",
"#F c #000000",
"#G c #000000",
"#H c #000000",
"#I c #000000",
"#J c #000000",
"#K c #000000",
"#L c #000000",
"#M c #000000",
"#N c #000000",
"#O c #000000",
"#P c #000000",
"#Q c #000000",
"#R c #000000",
"#S c #000000",
"#T c #000000",
"#U c #000000",
"#V c #000000",
"#W c #000000",
"#X c #000000",
"#Y c #000000",
"#Z c #000000",
"#0 c #000000",
"#1 c #000000",
"#2 c #000000",
"#3 c #000000",
"#4 c #000000",
"#5 c #000000",
"#6 c #000000",
"#7 c #000000",
"#8 c #000000",
"a` c #000000",
"a. c #000000",
"a# c #000000",
"aa c #000000",
"ab c #000000",
"ac c #000000",
"ad c #000000",
"ae c #000000",
"af c #000000",
"ag c #000000",
"ah c #000000",
"ai c #000000",
"aj c #000000",
"ak c #000000",
"al c #000000",
"am c #000000",
"an c #000000",
"ao c #000000",
"ap c #000000",
"aq c #000000",
"ar c #000000",
"as c #000000",
"at c #000000",
"au c #000000",
"av c #000000",
"aw c #000000",
"ax c #000000",
"ay c #000000",
"az c #000000",
"aA c #000000",
"aB c #000000",
"aC c #000000",
"aD c #000000",
"aE c #000000",
"aF c #000000",
"aG c #000000",
"aH c #000000",
"aI c #000000",
"aJ c #000000",
"aK c #000000",
"aL c #000000",
"aM c #000000",
"aN c #000000",
"aO c #000000",
"aP c #000000",
"aQ c #000000",
"aR c #000000",
"aS c #000000",
"aT c #000000",
"aU c #000000",
"aV c #000000",
"aW c #000000",
"aX c #000000",
"aY c #000000",
"aZ c #000000",
"a0 c #000000",
"a1 c #000000",
"a2 c #000000",
"a3 c #000000",
"a4 c #000000",
"a5 c #000000",
"a6 c #000000",
"a7 c #000000",
"a8 c #000000",
/* pixels */
"`b`a.M#..T`h`h.T.T`j.y.P#m#g#g#g#g#g#g#g#g",
"`7#j.O.K#v`K.R#d#v.3.O`w`R#g#g#g#g#g#g#g#g",
".2`s.3.##``y..#t#``6`B`m.I#g#g#g#g#g#g#g#g",
".2.E`B`6#n`y..`P#n.U.O`m.I#g#g#g#g#g#g#g#g",
".2.E.3`6#n`y..`P#`#v.O`m.I#g#g#g#g#g#g#g#g",
"`A.E.3.#`K`y`V`P#``6`B`m`G#g#g#g#g#g#g#g#g",
".2.E.3.X.X#t`o.D`r.K.O.1.t`S.W.A.A`S`3#u`q",
"`t.h#k`0`8.d.d`H`H.n`E`J.F``.i.i``.i`O#b#w",
"`L#u.s.H.H.H.H.Z.Z.5`U`I`p.V....#t`P.#`#`J",
"#e.v#h#h#h.v.v#h`x#h`n`n`D`W#r.p#`.#.K.Y`d",
".m.l#s#s`z`z#l#s`X.x`z#o.x`M.R#f#`.#`Y.r.C",
".m#o#l#s.x.x#l#l#s#s#l#s#l`M.g#f.D.#.3.r.C",
"`k`g.x`4`z.x`4#o#s.x.x.x`X`M#r#f.D`K.K.r.C",
".c.0.0.m.m.a#p.m.a`u.4.4`C`C`c.R`6.K.O`s.C",
"#g#g#g#g#g#g#g#g#g.J.u.Y`#.j.K`T.O`#.Y`N.`",
"#g#g#g#g#g#g#g.q#g`e#i#d#`.D#f#f`P#``6.r`d",
"#g#g#g#g#g#g#g#g#g#c.z.U.##``o.p.D.#.K.Y.C",
"#g#g#g#g#g#g#g#g#g#c#i.U.##`.p.p#`.#.K.r.C",
"#g#g#g#g#g#g#g#g#g#c#i`i`r#`.p.p.D.#.K.Y`d",
"#g#g#g#g#g#g#g#g#g`e#i#d#``P`o..`P#`.U`#.o",
"#g#g#g#g#g#g#g#g#g.L`f`1.7`p`l`l`p.7.B.S`Z"
};
