/* XPM */
static char *discover_xpm[] = {
/* width height num_colors chars_per_pixel */
"    16    16      256            2",
/* colors */
"`` c none",
"`. c #ebe8d7",
"`# c #ece8d7",
"`a c #ebe8d8",
"`b c #ece9d7",
"`c c #e8e6d6",
"`d c #eae8d9",
"`e c #e7e5d5",
"`f c #e8e5d6",
"`g c #ebead9",
"`h c #eae8d7",
"`i c #ebe8d6",
"`j c #ebe7d6",
"`k c #edead8",
"`l c #e9e1d1",
"`m c #b1bdc3",
"`n c #c9d8e6",
"`o c #b9cbdc",
"`p c #c7cfcc",
"`q c #f7f0da",
"`r c #e9e7d7",
"`s c #ebe9d8",
"`t c #ede8d7",
"`u c #f0ebd9",
"`v c #eceadf",
"`w c #ebeadd",
"`x c #ebe7d5",
"`y c #bdccd1",
"`z c #d4dee3",
"`A c #bbc3c5",
"`B c #c8cece",
"`C c #d1d7de",
"`D c #ccd2cd",
"`E c #f2edd9",
"`F c #eae7d7",
"`G c #e6f0df",
"`H c #e4ebd5",
"`I c #dbe5db",
"`J c #e4d295",
"`K c #e8ce88",
"`L c #ecf5f1",
"`M c #acb4bb",
"`N c #4d5156",
"`O c #a7acb0",
"`P c #c8d4da",
"`Q c #cdd3d5",
"`R c #dcddd2",
"`S c #efead8",
"`T c #e9e4d4",
"`U c #f1f3e0",
"`V c #a26c6d",
"`W c #cfa6b2",
"`X c #9f797d",
"`Y c #ddb023",
"`Z c #eee38c",
"`0 c #e9cacb",
"`1 c #6a6559",
"`2 c #69747c",
"`3 c #c4d4e0",
"`4 c #aabdcf",
"`5 c #c7cfcd",
"`6 c #f4efda",
"`7 c #eae5d4",
"`8 c #ecf0e0",
".` c #dc9989",
".. c #f2a129",
".# c #fec397",
".a c #f1da75",
".b c #fa9a4d",
".c c #c12134",
".d c #222b28",
".e c #cbd0c8",
".f c #f4f5e9",
".g c #c4c6c8",
".h c #c9c6c1",
".i c #eeecda",
".j c #e8e6d5",
".k c #f2efdd",
".l c #9fa49c",
".m c #c4ac9c",
".n c #fbffbf",
".o c #f3b941",
".p c #f74748",
".q c #d1171a",
".r c #451615",
".s c #c6c9ba",
".t c #e1dfd5",
".u c #d4d4cb",
".v c #f0f1e0",
".w c #99837c",
".x c #f09957",
".y c #eaf0d6",
".z c #faac93",
".A c #c36579",
".B c #805343",
".C c #a59462",
".D c #ecebe5",
".E c #ece7d4",
".F c #ecead8",
".G c #ebe4d4",
".H c #f3fff4",
".I c #fbbc7a",
".J c #c28968",
".K c #ede0be",
".L c #e5c593",
".M c #ebd17e",
".N c #bb6d49",
".O c #c8d4ca",
".P c #f4eddb",
".Q c #eae7d6",
".R c #ebe6d5",
".S c #eaecdb",
".T c #eec8b7",
".U c #fc4c59",
".V c #e02527",
".W c #615d61",
".X c #afb358",
".Y c #f9d58a",
".Z c #765370",
".0 c #c9cdbb",
".1 c #f3efdd",
".2 c #ebe3d2",
".3 c #eaf5e2",
".4 c #e8554d",
".5 c #f41211",
".6 c #6a050a",
".7 c #697366",
".8 c #f2bbac",
"#` c #febf71",
"#. c #bb814a",
"## c #ced6cf",
"#a c #eff1df",
"#b c #b6938d",
"#c c #66130a",
"#d c #636b71",
"#e c #f5db52",
"#f c #a3651b",
"#g c #d2cfcf",
"#h c #fbffd0",
"#i c #efebdf",
"#j c #eae7d5",
"#k c #ede9d8",
"#l c #e6e9d9",
"#m c #a5ada7",
"#n c #dcdad2",
"#o c #f4eab9",
"#p c #e4e4b2",
"#q c #e8e7dd",
"#r c #eae5d9",
"#s c #f5f0de",
"#t c #eeead8",
"#u c #eae8dc",
"#v c #edeadd",
"#w c #e8e5d5",
"#x c #ece9d6",
"#y c #ebe8d5",
"#z c #000000",
"#A c #000000",
"#B c #000000",
"#C c #000000",
"#D c #000000",
"#E c #000000",
"#F c #000000",
"#G c #000000",
"#H c #000000",
"#I c #000000",
"#J c #000000",
"#K c #000000",
"#L c #000000",
"#M c #000000",
"#N c #000000",
"#O c #000000",
"#P c #000000",
"#Q c #000000",
"#R c #000000",
"#S c #000000",
"#T c #000000",
"#U c #000000",
"#V c #000000",
"#W c #000000",
"#X c #000000",
"#Y c #000000",
"#Z c #000000",
"#0 c #000000",
"#1 c #000000",
"#2 c #000000",
"#3 c #000000",
"#4 c #000000",
"#5 c #000000",
"#6 c #000000",
"#7 c #000000",
"#8 c #000000",
"a` c #000000",
"a. c #000000",
"a# c #000000",
"aa c #000000",
"ab c #000000",
"ac c #000000",
"ad c #000000",
"ae c #000000",
"af c #000000",
"ag c #000000",
"ah c #000000",
"ai c #000000",
"aj c #000000",
"ak c #000000",
"al c #000000",
"am c #000000",
"an c #000000",
"ao c #000000",
"ap c #000000",
"aq c #000000",
"ar c #000000",
"as c #000000",
"at c #000000",
"au c #000000",
"av c #000000",
"aw c #000000",
"ax c #000000",
"ay c #000000",
"az c #000000",
"aA c #000000",
"aB c #000000",
"aC c #000000",
"aD c #000000",
"aE c #000000",
"aF c #000000",
"aG c #000000",
"aH c #000000",
"aI c #000000",
"aJ c #000000",
"aK c #000000",
"aL c #000000",
"aM c #000000",
"aN c #000000",
"aO c #000000",
"aP c #000000",
"aQ c #000000",
"aR c #000000",
"aS c #000000",
"aT c #000000",
"aU c #000000",
"aV c #000000",
"aW c #000000",
"aX c #000000",
"aY c #000000",
"aZ c #000000",
"a0 c #000000",
"a1 c #000000",
"a2 c #000000",
"a3 c #000000",
"a4 c #000000",
"a5 c #000000",
"a6 c #000000",
"a7 c #000000",
"a8 c #000000",
/* pixels */
"```````````````.`````````#`a`b``",
"```````````a`.```c`d`e`f`g`h```.",
"`.```.`.`.`i`j`k`l`m`n`o`p`q`r``",
"`b`s`t`t`u`v`w`x`y`z`A`B`C`D`E`F",
"`s`#`G`H`I`J`K`L`M`N`O`P`Q`R`S`.",
"`T`U`V`W`X`Y`Z`0`1`2`3`4`5`6`F``",
"`7`8.`...#.a.b.c.d.e.f.g.h.i`i`.",
".j.k.l.m.n.o.p.q.r.s.t.u`F`.`.``",
"`T.v.w.x.y.z.A.B.C.D.E`k.F`.````",
"``.G.H.I.J.K.L.M.N.O.P.Q`.``````",
".R.S.T.U.V.W.X.Y.Z.0.1.Q````````",
".2.3.4.5.6.7.8#`#.##`E`.````````",
"`T#a#b#c#d#e#f#g#h#i#j``````````",
"`.#k#l#m#n#o#p#q#r#j```.````````",
"```.`t#s#t#u#v`b`.```#``````````",
"`.```.#w`F#x#y`a`#``````````````"
};
