/* XPM */
static char *disopenFile_xpm[] = {
/* width height num_colors chars_per_pixel */
"    16    16      256            2",
/* colors */
"`` c #ed1c24",
"`. c none",
"`# c #8594a4",
"`a c #8191a6",
"`b c #7889a1",
"`c c #8795aa",
"`d c #7b8ca0",
"`e c #607495",
"`f c #53698d",
"`g c #6d799e",
"`h c #8291a6",
"`i c #75849f",
"`j c #5f7494",
"`k c #aca48f",
"`l c #b6a988",
"`m c #6a7b98",
"`n c #546b8d",
"`o c #4f6990",
"`p c #dad2a0",
"`q c #f7f0ab",
"`r c #aaa18d",
"`s c #b0a484",
"`t c #536a8e",
"`u c #4f6891",
"`v c #4c6793",
"`w c #aba28e",
"`x c #f6eea7",
"`y c #f9eea6",
"`z c #a79e89",
"`A c #a39986",
"`B c #9f9482",
"`C c #9a907e",
"`D c #978c7a",
"`E c #938877",
"`F c #a8a08b",
"`G c #f6eaa0",
"`H c #fbeb9f",
"`I c #fee898",
"`J c #ffd467",
"`K c #a59c88",
"`L c #f3e69a",
"`M c #b9ac8b",
"`N c #aa9f83",
"`O c #a69a81",
"`P c #a1957f",
"`Q c #9d917c",
"`R c #998e7a",
"`S c #958b79",
"`T c #a39a86",
"`U c #f2e192",
"`V c #fde898",
"`W c #dec480",
"`X c #b0a78e",
"`Y c #fdde81",
"`Z c #ffe084",
"`0 c #ffdf81",
"`1 c #ffdd7b",
"`2 c #ffd874",
"`3 c #ffd66b",
"`4 c #d1a956",
"`5 c #6f624e",
"`6 c #9f9583",
"`7 c #f1dc89",
"`8 c #ffe28c",
".` c #b1a88d",
".. c #c7ba8c",
".# c #fcc54b",
".a c #f7bb41",
".b c #dba22e",
".c c #6c5e47",
".d c #9c9180",
".e c #efd781",
".f c #e0c57d",
".g c #b0a68c",
".h c #fedd80",
".i c #ffd368",
".j c #ffd162",
".k c #ffcd58",
".l c #ecac31",
".m c #816925",
".n c #594414",
".o c #988e7d",
".p c #ecd279",
".q c #ada48b",
".r c #cec289",
".s c #ffd871",
".t c #ffd365",
".u c #ffce5c",
".v c #fec951",
".w c #fac149",
".x c #f5b93f",
".y c #5b4b22",
".z c #34270e",
".A c #958a7a",
".B c #d3be7e",
".C c #aea48a",
".D c #ffdc7e",
".E c #ffcf5f",
".F c #ffcb55",
".G c #fac44c",
".H c #f5bc41",
".I c #f0b337",
".J c #ebaa2e",
".K c #e5a024",
".L c #928777",
".M c #aba189",
".N c #d4b26a",
".O c #cd8f00",
".P c #c78c04",
".Q c #be8808",
".R c #b4820f",
".S c #a97c15",
".T c #9f771b",
".U c #96721f",
".V c #8f8475",
".W c #8f8066",
".X c #877960",
".Y c #7b6e57",
".Z c #615644",
".0 c #524839",
".1 c #433a2e",
".2 c #352e25",
".3 c #29221b",
".4 c #1e1914",
".5 c #16120e",
".6 c #18130e",
".7 c #000000",
".8 c #000000",
"#` c #000000",
"#. c #000000",
"## c #000000",
"#a c #000000",
"#b c #000000",
"#c c #000000",
"#d c #000000",
"#e c #000000",
"#f c #000000",
"#g c #000000",
"#h c #000000",
"#i c #000000",
"#j c #000000",
"#k c #000000",
"#l c #000000",
"#m c #000000",
"#n c #000000",
"#o c #000000",
"#p c #000000",
"#q c #000000",
"#r c #000000",
"#s c #000000",
"#t c #000000",
"#u c #000000",
"#v c #000000",
"#w c #000000",
"#x c #000000",
"#y c #000000",
"#z c #000000",
"#A c #000000",
"#B c #000000",
"#C c #000000",
"#D c #000000",
"#E c #000000",
"#F c #000000",
"#G c #000000",
"#H c #000000",
"#I c #000000",
"#J c #000000",
"#K c #000000",
"#L c #000000",
"#M c #000000",
"#N c #000000",
"#O c #000000",
"#P c #000000",
"#Q c #000000",
"#R c #000000",
"#S c #000000",
"#T c #000000",
"#U c #000000",
"#V c #000000",
"#W c #000000",
"#X c #000000",
"#Y c #000000",
"#Z c #000000",
"#0 c #000000",
"#1 c #000000",
"#2 c #000000",
"#3 c #000000",
"#4 c #000000",
"#5 c #000000",
"#6 c #000000",
"#7 c #000000",
"#8 c #000000",
"a` c #000000",
"a. c #000000",
"a# c #000000",
"aa c #000000",
"ab c #000000",
"ac c #000000",
"ad c #000000",
"ae c #000000",
"af c #000000",
"ag c #000000",
"ah c #000000",
"ai c #000000",
"aj c #000000",
"ak c #000000",
"al c #000000",
"am c #000000",
"an c #000000",
"ao c #000000",
"ap c #000000",
"aq c #000000",
"ar c #000000",
"as c #000000",
"at c #000000",
"au c #000000",
"av c #000000",
"aw c #000000",
"ax c #000000",
"ay c #000000",
"az c #000000",
"aA c #000000",
"aB c #000000",
"aC c #000000",
"aD c #000000",
"aE c #000000",
"aF c #000000",
"aG c #000000",
"aH c #000000",
"aI c #000000",
"aJ c #000000",
"aK c #000000",
"aL c #000000",
"aM c #000000",
"aN c #000000",
"aO c #000000",
"aP c #000000",
"aQ c #000000",
"aR c #000000",
"aS c #000000",
"aT c #000000",
"aU c #000000",
"aV c #000000",
"aW c #000000",
"aX c #000000",
"aY c #000000",
"aZ c #000000",
"a0 c #000000",
"a1 c #000000",
"a2 c #000000",
"a3 c #000000",
"a4 c #000000",
"a5 c #000000",
"a6 c #000000",
"a7 c #000000",
"a8 c #000000",
/* pixels */
"`````.`.`.`.`.`.`.`.`.`.`.`.`.`.",
"```````.`.`.`.`.`.`#`a`b`c`d`.`.",
"`.```````.`.`.`.`.`e`f`.`g`h`i`j",
"`k`k```````k`l`.`.`.`.`.`.`m`n`o",
"`k`p`q```````r`s`.`.`.`.`.`t`u`v",
"`w`x`q`y```````z`A`B`C`D`E`.`.`.",
"`F`G`y`H`I```````J`J`J`J`E`.`.`.",
"`K`L`H`I`M`M```````N`O`P`Q`R`S`E",
"`T`U`V`W`X`Y`Z```````0`1`2`3`4`5",
"`6`7`8.`..`2`J`J``````.#.a.b.c`5",
".d.e.f.g.h.i`J.j.k``````.l.m.n`.",
".o.p.q.r.s.t.u.v.w.x``````.y.z`.",
".A.B.C.D.E.F.G.H.I.J.K```````.`.",
".L.M.N.O.O.O.P.Q.R.S.T.U```````.",
".V.W.X.Y`5.Z.0.1.2.3.4.5.6``````",
"`.`.`.`.`.`.`.`.`.`.`.`.`.`.````"
};
