/* XPM */
static char *dongtai_xpm[] = {
/* width height num_colors chars_per_pixel */
"    16    15      256            2",
/* colors */
"`` c #55c4fe",
"`. c #7bd2fe",
"`# c #78d1fe",
"`a c #79d1fe",
"`b c #6accfe",
"`c c #83d3fe",
"`d c none",
"`e c #73c6fd",
"`f c #e1f8ff",
"`g c #d0f1ff",
"`h c #d1f1ff",
"`i c #c9edff",
"`j c #83ccfd",
"`k c #66b9fc",
"`l c #c4f2ff",
"`m c #b1eaff",
"`n c #b3eaff",
"`o c #b2ebff",
"`p c #afe6ff",
"`q c #7dc1fc",
"`r c #3d98f9",
"`s c #65b2fb",
"`t c #64b1fc",
"`u c #62affb",
"`v c #62b0fb",
"`w c #53a7fa",
"`x c #72b3fa",
"`y c #e5f0fe",
"`z c #dfecfe",
"`A c #d8e5f6",
"`B c #dff0ff",
"`C c #f0fcff",
"`D c #dedcda",
"`E c #e2e0dd",
"`F c #ffe5a7",
"`G c #fed272",
"`H c #fbd37a",
"`I c #fbd379",
"`J c #fbd57b",
"`K c #d7d7d7",
"`L c #bfbfbf",
"`M c #dadada",
"`N c #d3d3d3",
"`O c #e1e2e5",
"`P c #f9c35a",
"`Q c #fddf8a",
"`R c #fee89c",
"`S c #fee79c",
"`T c #fdeda9",
"`U c #f5b532",
"`V c #d4d4d4",
"`W c #a0a0a0",
"`X c #b1b1b1",
"`Y c #a2a2a2",
"`Z c #bfc2c7",
"`0 c #f5bb68",
"`1 c #fee688",
"`2 c #ffec7d",
"`3 c #ffec7e",
"`4 c #ffeb7c",
"`5 c #fff698",
"`6 c #eeac41",
"`7 c #c8c8c8",
"`8 c #d0d0d0",
".` c #e19b4e",
".. c #efb83f",
".# c #f3c34b",
".a c #f3c24a",
".b c #f4ca54",
".c c #dd8614",
".d c #c3c3c3",
".e c #edc7a6",
".f c #e1a575",
".g c #e3aa7a",
".h c #e3aa79",
".i c #e3ab7b",
".j c #bdbdbd",
".k c #fffffa",
".l c #fffeeb",
".m c #fffdeb",
".n c #fffdea",
".o c #fffff4",
".p c #b5b5b5",
".q c #bcbcbc",
".r c #f8c85f",
".s c #fac850",
".t c #fbcf63",
".u c #fbcf62",
".v c #fbd167",
".w c #f8b729",
".x c #c1c1c1",
".y c #5b5b5b",
".z c #6e6e6e",
".A c #5c5c5c",
".B c #93979d",
".C c #fbc76e",
".D c #feeda9",
".E c #fff4aa",
".F c #fff3aa",
".G c #fff3a8",
".H c #fffcc1",
".I c #f1b54a",
".J c #f3f3f3",
".K c #efefef",
".L c #ededed",
".M c #f3f4f4",
".N c #eaad60",
".O c #fee06e",
".P c #ffe86b",
".Q c #ffe86c",
".R c #ffe76a",
".S c #fff280",
".T c #e9a235",
".U c #e09b58",
".V c #da821d",
".W c #dd8d2a",
".X c #dd8f2b",
".Y c #d47511",
".Z c #000000",
".0 c #000000",
".1 c #000000",
".2 c #000000",
".3 c #000000",
".4 c #000000",
".5 c #000000",
".6 c #000000",
".7 c #000000",
".8 c #000000",
"#` c #000000",
"#. c #000000",
"## c #000000",
"#a c #000000",
"#b c #000000",
"#c c #000000",
"#d c #000000",
"#e c #000000",
"#f c #000000",
"#g c #000000",
"#h c #000000",
"#i c #000000",
"#j c #000000",
"#k c #000000",
"#l c #000000",
"#m c #000000",
"#n c #000000",
"#o c #000000",
"#p c #000000",
"#q c #000000",
"#r c #000000",
"#s c #000000",
"#t c #000000",
"#u c #000000",
"#v c #000000",
"#w c #000000",
"#x c #000000",
"#y c #000000",
"#z c #000000",
"#A c #000000",
"#B c #000000",
"#C c #000000",
"#D c #000000",
"#E c #000000",
"#F c #000000",
"#G c #000000",
"#H c #000000",
"#I c #000000",
"#J c #000000",
"#K c #000000",
"#L c #000000",
"#M c #000000",
"#N c #000000",
"#O c #000000",
"#P c #000000",
"#Q c #000000",
"#R c #000000",
"#S c #000000",
"#T c #000000",
"#U c #000000",
"#V c #000000",
"#W c #000000",
"#X c #000000",
"#Y c #000000",
"#Z c #000000",
"#0 c #000000",
"#1 c #000000",
"#2 c #000000",
"#3 c #000000",
"#4 c #000000",
"#5 c #000000",
"#6 c #000000",
"#7 c #000000",
"#8 c #000000",
"a` c #000000",
"a. c #000000",
"a# c #000000",
"aa c #000000",
"ab c #000000",
"ac c #000000",
"ad c #000000",
"ae c #000000",
"af c #000000",
"ag c #000000",
"ah c #000000",
"ai c #000000",
"aj c #000000",
"ak c #000000",
"al c #000000",
"am c #000000",
"an c #000000",
"ao c #000000",
"ap c #000000",
"aq c #000000",
"ar c #000000",
"as c #000000",
"at c #000000",
"au c #000000",
"av c #000000",
"aw c #000000",
"ax c #000000",
"ay c #000000",
"az c #000000",
"aA c #000000",
"aB c #000000",
"aC c #000000",
"aD c #000000",
"aE c #000000",
"aF c #000000",
"aG c #000000",
"aH c #000000",
"aI c #000000",
"aJ c #000000",
"aK c #000000",
"aL c #000000",
"aM c #000000",
"aN c #000000",
"aO c #000000",
"aP c #000000",
"aQ c #000000",
"aR c #000000",
"aS c #000000",
"aT c #000000",
"aU c #000000",
"aV c #000000",
"aW c #000000",
"aX c #000000",
"aY c #000000",
"aZ c #000000",
"a0 c #000000",
"a1 c #000000",
"a2 c #000000",
"a3 c #000000",
"a4 c #000000",
"a5 c #000000",
"a6 c #000000",
"a7 c #000000",
"a8 c #000000",
/* pixels */
"```.`#`#`#`#`a`b`c`d`d`d`d`d`d`d",
"`e`f`g`h`h`h`h`i`j`d`d`d`d`d`d`d",
"`k`l`m`n`n`n`o`p`q`d`d`d`d`d`d`d",
"`r`s`t`t`u`u`v`w`x`d`d`d`d`d`d`d",
"`y`z`A`A`z`z`z`B`C`d`d`d`d`d`d`d",
"`d`d`D`E`d`d`d`F`G`H`H`H`H`H`I`J",
"`d`d`K`L`M`N`O`P`Q`R`S`S`S`S`T`U",
"`d`d`V`W`X`Y`Z`0`1`2`3`3`3`4`5`6",
"`d`d`7`8`d`d`d.`...#.a.a.a.a.b.c",
"`d`d.d.d`d`d`d.e.f.g.g.g.g.g.h.i",
"`d`d.j.j`d`d`d.k.l.m.m.m.m.m.n.o",
"`d`d.p.q`d`d`d.r.s.t.u.u.u.t.v.w",
"`d`d.x.y.z.A.B.C.D.E.F.F.F.G.H.I",
"`d`d`d.J.K.L.M.N.O.P.Q.Q.Q.R.S.T",
"`d`d`d`d`d`d`d.U.V.W.W.W.W.W.X.Y"
};
