/* XPM */
static char *down_xpm[] = {
/* width height num_colors chars_per_pixel */
"    21    21      256            2",
/* colors */
"`` c none",
"`. c #fefefe",
"`# c #f9fbf9",
"`a c #d4e6d4",
"`b c #d0e4d0",
"`c c #d1e5d1",
"`d c #d1e4d1",
"`e c #cfe3cf",
"`f c #dae9da",
"`g c #fdfdfe",
"`h c #fcfdfc",
"`i c #d2e2d2",
"`j c #6cb265",
"`k c #92ca8a",
"`l c #8cc684",
"`m c #8dc785",
"`n c #8cc685",
"`o c #8ec886",
"`p c #75b56f",
"`q c #edf2ee",
"`r c #fdfefd",
"`s c #fdfcfd",
"`t c #cbdbcb",
"`u c #85c17a",
"`v c #bee4b1",
"`w c #b3dea7",
"`x c #b5dfa9",
"`y c #b5dea9",
"`z c #b4dea8",
"`A c #b9e2ad",
"`B c #86be7d",
"`C c #e8ede8",
"`D c #fdfdfd",
"`E c #ceddce",
"`F c #6bb45e",
"`G c #97d088",
"`H c #8fcb80",
"`I c #90cc81",
"`J c #91cb82",
"`K c #90cb81",
"`L c #92ce83",
"`M c #73b568",
"`N c #ebeeec",
"`O c #cfdecf",
"`P c #55a946",
"`Q c #77c064",
"`R c #71bc5f",
"`S c #71bd5f",
"`T c #72bd60",
"`U c #72bc60",
"`V c #72be5f",
"`W c #61ad54",
"`X c #edefee",
"`Y c #d0ded0",
"`Z c #3f9e2e",
"`0 c #58b141",
"`1 c #56ae3f",
"`2 c #56b040",
"`3 c #56af40",
"`4 c #53af3b",
"`5 c #50a442",
"`6 c #eff0f1",
"`7 c #d1dfd2",
"`8 c #32981d",
".` c #47a92a",
".. c #47a82b",
".# c #49a92c",
".a c #48a82c",
".b c #41a623",
".c c #469f36",
".d c #f1f1f2",
".e c #d2e0d3",
".f c #299410",
".g c #3aa315",
".h c #3ca218",
".i c #3da419",
".j c #3da319",
".k c #3ca219",
".l c #33a00d",
".m c #3e9b2d",
".n c #f1f1f4",
".o c #fcfcfc",
".p c #2f9713",
".q c #44a81b",
".r c #46a81e",
".s c #48a920",
".t c #47a81f",
".u c #3ea614",
".v c #439e2f",
".w c #f0f1f3",
".x c #fffeff",
".y c #fcfcfb",
".z c #fffffe",
".A c #d0dfd1",
".B c #41a021",
".C c #5ab42f",
".D c #5bb331",
".E c #5db433",
".F c #54b228",
".G c #51a639",
".H c #fdfdfc",
".I c #fdfbff",
".J c #cedcd2",
".K c #56ab32",
".L c #6fbe40",
".M c #6dbd41",
".N c #70bf43",
".O c #70be43",
".P c #6dbc41",
".Q c #6bbd3b",
".R c #62ae46",
".S c #ecedf2",
".T c #fffdff",
".U c #f6f7f7",
".V c #6caa6a",
".W c #68b551",
".X c #70b65d",
".Y c #6ab056",
".Z c #7bc14f",
".0 c #7ec64f",
".1 c #81c752",
".2 c #84c954",
".3 c #84c854",
".4 c #80c651",
".5 c #80c74f",
".6 c #76bd50",
".7 c #6ab159",
".8 c #75b95f",
"#` c #5fae4b",
"#. c #82b481",
"## c #bac9bb",
"#a c #56a138",
"#b c #84cb4b",
"#c c #78c346",
"#d c #89cb58",
"#e c #8fce5d",
"#f c #95d162",
"#g c #97d365",
"#h c #98d365",
"#i c #94d162",
"#j c #8ecd5d",
"#k c #86ca55",
"#l c #7ac447",
"#m c #7dc746",
"#n c #559b40",
"#o c #d0d7d2",
"#p c #bfcac3",
"#q c #6fac5b",
"#r c #a5db78",
"#s c #95d161",
"#t c #a1d76e",
"#u c #a8db73",
"#v c #acdd76",
"#w c #abdd76",
"#x c #a7db73",
"#y c #9ed66c",
"#z c #9fd775",
"#A c #69a35c",
"#B c #d5d9d9",
"#C c #fbfcfb",
"#D c #bbc8be",
"#E c #79b170",
"#F c #c0e894",
"#G c #b2e078",
"#H c #bae484",
"#I c #c0e787",
"#J c #b8e381",
"#K c #b6e27c",
"#L c #b7e393",
"#M c #6ea66a",
"#N c #d1d7d4",
"#O c #b5c5b7",
"#P c #7bb078",
"#Q c #d5f3aa",
"#R c #ceef90",
"#S c #d2f199",
"#T c #d0f096",
"#U c #d2f194",
"#V c #cbeca7",
"#W c #72a771",
"#X c #d0d6d1",
"#Y c #b3c3b4",
"#Z c #7db17b",
"#0 c #eafdbc",
"#1 c #e6faa5",
"#2 c #ecfdab",
"#3 c #dcf4b6",
"#4 c #73a774",
"#5 c #cfd6cf",
"#6 c #b2c3b3",
"#7 c #feffcb",
"#8 c #e9f7bf",
"a` c #72a675",
"a. c #b3c3b5",
"a# c #7bb178",
"aa c #79ac78",
"ab c #cdd5ce",
"ac c #b9c9b9",
"ad c #ced7ce",
"ae c #fafcfa",
"af c #000000",
"ag c #000000",
"ah c #000000",
"ai c #000000",
"aj c #000000",
"ak c #000000",
"al c #000000",
"am c #000000",
"an c #000000",
"ao c #000000",
"ap c #000000",
"aq c #000000",
"ar c #000000",
"as c #000000",
"at c #000000",
"au c #000000",
"av c #000000",
"aw c #000000",
"ax c #000000",
"ay c #000000",
"az c #000000",
"aA c #000000",
"aB c #000000",
"aC c #000000",
"aD c #000000",
"aE c #000000",
"aF c #000000",
"aG c #000000",
"aH c #000000",
"aI c #000000",
"aJ c #000000",
"aK c #000000",
"aL c #000000",
"aM c #000000",
"aN c #000000",
"aO c #000000",
"aP c #000000",
"aQ c #000000",
"aR c #000000",
"aS c #000000",
"aT c #000000",
"aU c #000000",
"aV c #000000",
"aW c #000000",
"aX c #000000",
"aY c #000000",
"aZ c #000000",
"a0 c #000000",
"a1 c #000000",
"a2 c #000000",
"a3 c #000000",
"a4 c #000000",
"a5 c #000000",
"a6 c #000000",
"a7 c #000000",
"a8 c #000000",
/* pixels */
"```````.`.`.`#`a`b`c`d`d`c`e`f`g`.`.`.````",
"```````.`h```i`j`k`l`m`m`n`o`p`q`.`r`.````",
"`````````s```t`u`v`w`x`y`z`A`B`C```.``````",
"`````````D```E`F`G`H`I`J`K`L`M`N```.`.````",
"`````````D```O`P`Q`R`S`T`U`V`W`X```.``````",
"`````````D```Y`Z`0`1`2`2`3`4`5`6```.``````",
"`````````D```7`8.`...#.#.a.b.c.d```.``````",
"```````.`D``.e.f.g.h.i.j.k.l.m.n```.``````",
"```````..o`.`7.p.q.r.s.s.t.u.v.w`.`D`.````",
"```..x`..y.z.A.B.C.D.E.E.D.F.G`6.z.H`.`.`.",
"```.`h``.I.x.J.K.L.M.N.O.P.Q.R.S.x.T```D`.",
"`r`r.U.V.W.X.Y.Z.0.1.2.3.4.5.6.7.8#`#.`D`D",
"`.`h`.###a#b#c#d#e#f#g#h#i#j#k#l#m#n#o`..H",
".x`.`h``#p#q#r#s#t#u#v#w#x#y#h#z#A#B```h`.",
"`.```.#C``#D#E#F#G#H#I#I#J#K#L#M#N``#C`.``",
"```````.#C``#O#P#Q#R#S#T#U#V#W#X``#C`.```.",
"`````````.#C``#Y#Z#0#1#2#3#4#5``#C`.```.``",
"```````````.#C``#6#Z#7#8a`#5``#C`.````````",
"`````````````D#C``a.a#aaab``#C`.``````````",
"`````````````.`D`h``acad``#C`.`.``````````",
"`````````````.`.`Dae````#C`.`.`.``````````"
};
