/* XPM */
static char *economic_xpm[] = {
/* width height num_colors chars_per_pixel */
"    16    16      256            2",
/* colors */
"`` c none",
"`. c #565452",
"`# c #f1f1f1",
"`a c #fafafa",
"`b c #e0e0e0",
"`c c #cacaca",
"`d c #ff0000",
"`e c #e3e3e3",
"`f c #e9e9e9",
"`g c #e7e7e7",
"`h c #f5f5f5",
"`i c #c5c5c5",
"`j c #bfbfbf",
"`k c #efefef",
"`l c #cdcdcd",
"`m c #ffffff",
"`n c #d5d5d5",
"`o c #bebebe",
"`p c #b3b3b3",
"`q c #d6d6d6",
"`r c #d7d7d7",
"`s c #cfcfcf",
"`t c #838283",
"`u c #747675",
"`v c #636563",
"`w c #5a5d5a",
"`x c #535352",
"`y c #a5a5a5",
"`z c #e2e2e2",
"`A c #dfdfdf",
"`B c #c6c7c6",
"`C c #40453c",
"`D c #a0a0a0",
"`E c #a4a4a4",
"`F c #9f9f9f",
"`G c #c2c2c2",
"`H c #d2d2d2",
"`I c #6b6a6a",
"`J c #34383f",
"`K c #989898",
"`L c #979797",
"`M c #949494",
"`N c #b6b6b6",
"`O c #d3d3d3",
"`P c #3ce308",
"`Q c #04c124",
"`R c #2e2d2d",
"`S c #9a9a9a",
"`T c #969696",
"`U c #999999",
"`V c #9d9d9d",
"`W c #959595",
"`X c #c3c3c3",
"`Y c #bfbfbe",
"`Z c #babbb9",
"`0 c #201f1c",
"`1 c #00028c",
"`2 c #b4b5b4",
"`3 c #090c09",
"`4 c #bbbbbb",
"`5 c #c3c4c3",
"`6 c #bfc0bf",
"`7 c #babbba",
"`8 c #b5b5b4",
".` c #afafad",
".. c #acacac",
".# c #b4b4b4",
".a c #a9aaa7",
".b c #bec0be",
".c c #b9bbb9",
".d c #b5b5b3",
".e c #afafae",
".f c #a9a9a7",
".g c #a3a4a2",
".h c #212121",
".i c #000000",
".j c #000000",
".k c #000000",
".l c #000000",
".m c #000000",
".n c #000000",
".o c #000000",
".p c #000000",
".q c #000000",
".r c #000000",
".s c #000000",
".t c #000000",
".u c #000000",
".v c #000000",
".w c #000000",
".x c #000000",
".y c #000000",
".z c #000000",
".A c #000000",
".B c #000000",
".C c #000000",
".D c #000000",
".E c #000000",
".F c #000000",
".G c #000000",
".H c #000000",
".I c #000000",
".J c #000000",
".K c #000000",
".L c #000000",
".M c #000000",
".N c #000000",
".O c #000000",
".P c #000000",
".Q c #000000",
".R c #000000",
".S c #000000",
".T c #000000",
".U c #000000",
".V c #000000",
".W c #000000",
".X c #000000",
".Y c #000000",
".Z c #000000",
".0 c #000000",
".1 c #000000",
".2 c #000000",
".3 c #000000",
".4 c #000000",
".5 c #000000",
".6 c #000000",
".7 c #000000",
".8 c #000000",
"#` c #000000",
"#. c #000000",
"## c #000000",
"#a c #000000",
"#b c #000000",
"#c c #000000",
"#d c #000000",
"#e c #000000",
"#f c #000000",
"#g c #000000",
"#h c #000000",
"#i c #000000",
"#j c #000000",
"#k c #000000",
"#l c #000000",
"#m c #000000",
"#n c #000000",
"#o c #000000",
"#p c #000000",
"#q c #000000",
"#r c #000000",
"#s c #000000",
"#t c #000000",
"#u c #000000",
"#v c #000000",
"#w c #000000",
"#x c #000000",
"#y c #000000",
"#z c #000000",
"#A c #000000",
"#B c #000000",
"#C c #000000",
"#D c #000000",
"#E c #000000",
"#F c #000000",
"#G c #000000",
"#H c #000000",
"#I c #000000",
"#J c #000000",
"#K c #000000",
"#L c #000000",
"#M c #000000",
"#N c #000000",
"#O c #000000",
"#P c #000000",
"#Q c #000000",
"#R c #000000",
"#S c #000000",
"#T c #000000",
"#U c #000000",
"#V c #000000",
"#W c #000000",
"#X c #000000",
"#Y c #000000",
"#Z c #000000",
"#0 c #000000",
"#1 c #000000",
"#2 c #000000",
"#3 c #000000",
"#4 c #000000",
"#5 c #000000",
"#6 c #000000",
"#7 c #000000",
"#8 c #000000",
"a` c #000000",
"a. c #000000",
"a# c #000000",
"aa c #000000",
"ab c #000000",
"ac c #000000",
"ad c #000000",
"ae c #000000",
"af c #000000",
"ag c #000000",
"ah c #000000",
"ai c #000000",
"aj c #000000",
"ak c #000000",
"al c #000000",
"am c #000000",
"an c #000000",
"ao c #000000",
"ap c #000000",
"aq c #000000",
"ar c #000000",
"as c #000000",
"at c #000000",
"au c #000000",
"av c #000000",
"aw c #000000",
"ax c #000000",
"ay c #000000",
"az c #000000",
"aA c #000000",
"aB c #000000",
"aC c #000000",
"aD c #000000",
"aE c #000000",
"aF c #000000",
"aG c #000000",
"aH c #000000",
"aI c #000000",
"aJ c #000000",
"aK c #000000",
"aL c #000000",
"aM c #000000",
"aN c #000000",
"aO c #000000",
"aP c #000000",
"aQ c #000000",
"aR c #000000",
"aS c #000000",
"aT c #000000",
"aU c #000000",
"aV c #000000",
"aW c #000000",
"aX c #000000",
"aY c #000000",
"aZ c #000000",
"a0 c #000000",
"a1 c #000000",
"a2 c #000000",
"a3 c #000000",
"a4 c #000000",
"a5 c #000000",
"a6 c #000000",
"a7 c #000000",
"a8 c #000000",
/* pixels */
"`````````.``````````````````````",
"```````````.`````````.`.`.``````",
"```````````#`.`````.`a`b`c`.````",
"```````.`d`e`f`.`.`g`h`i`i`.````",
"`````.`j`d`k`l`.`m`m`e`n`o`c`.``",
"`````.`p`q`d`r`s`t`u`u`v`w`x`x`.",
"```.`y`o`z`d`A`t`B`B`B`B`B`B`B`C",
"`.`D`E`F`G`H`d`u`B`I`I`I`I`I`B`J",
"`.`K`L`M`N`O`d`I`B`P`P`P`P`Q`B`R",
"```.`S`T`U`c```v`B`m`m`m`m`m`B`R",
"`````.`V`W`o```v`B`B`B`B`X`Y`Z`0",
"```````.`V`p`j`w`B`1`B`1`Y`1`2`3",
"`````````.`y`4`x`B`B`5`6`7`8.``3",
"```````````...`C`B`1`6`1.#`1.a`3",
"`````````````.`C`X.b.c.d.e.f.g``",
"````````````````.h`0`0`3````````"
};
