/* XPM */
static char *editp_xpm[] = {
/* width height num_colors chars_per_pixel */
"    21    21      256            2",
/* colors */
"`` c none",
"`. c #fefefe",
"`# c #eeeded",
"`a c #adadad",
"`b c #a0a0a0",
"`c c #f9f9f9",
"`d c #f8f8f8",
"`e c #f4f4f4",
"`f c #f5f5f5",
"`g c #f3f3f3",
"`h c #efefef",
"`i c #9d9c9c",
"`j c #949494",
"`k c #8d8d8d",
"`l c #f0f0f0",
"`m c #ebebeb",
"`n c #d8d8d9",
"`o c #e0e0e1",
"`p c #dfdfdf",
"`q c #dfdfe0",
"`r c #dfe0e0",
"`s c #dddede",
"`t c #e2e2e2",
"`u c #d8d8d8",
"`v c #8a8a8a",
"`w c #cccccc",
"`x c #d5d5d5",
"`y c #d9d8d7",
"`z c #f6f5f3",
"`A c #f0efed",
"`B c #f1f0ee",
"`C c #f1efee",
"`D c #efeeec",
"`E c #f3f2f1",
"`F c #e7e7e7",
"`G c #a7a7a7",
"`H c #9c9c9c",
"`I c #898989",
"`J c #cacaca",
"`K c #fdfdfd",
"`L c #d4d4d5",
"`M c #c7ccd4",
"`N c #e0e7ef",
"`O c #dbe1ea",
"`P c #dce2eb",
"`Q c #dce3eb",
"`R c #dbe3ea",
"`S c #dce4ec",
"`T c #d7dfe6",
"`U c #8f8f8f",
"`V c #767675",
"`W c #878787",
"`X c #d4d5d5",
"`Y c #ced1d5",
"`Z c #eaeef3",
"`0 c #e4e8ed",
"`1 c #e5e9ee",
"`2 c #e5eaee",
"`3 c #e6eaef",
"`4 c #e0e5e9",
"`5 c #f2f6fa",
"`6 c #b1b4b6",
"`7 c #818282",
"`8 c #7f8082",
".` c #b1b1b1",
".. c #fcfcfc",
".# c #d4d4d4",
".a c #cacfd6",
".b c #e6ecf4",
".c c #e0e6ed",
".d c #e2e8ef",
".e c #e2e8f0",
".f c #e2e9f0",
".g c #e0e6ee",
".h c #e2e9f1",
".i c #f0f9ff",
".j c #bdc1c5",
".k c #928f8d",
".l c #b7b9ba",
".m c #c7ced5",
".n c #d3d4d4",
".o c #cfd3d7",
".p c #ecf1f6",
".q c #e7ecf1",
".r c #e8ecf2",
".s c #e5e9ef",
".t c #edf2f8",
".u c #e1e4e8",
".v c #818080",
".w c #8c8c8c",
".x c #a6abb0",
".y c #e7eef4",
".z c #d0d4d8",
".A c #cdcdcd",
".B c #cfd3d8",
".C c #f0f4fa",
".D c #eaeef4",
".E c #eaeff4",
".F c #edf1f7",
".G c #e3e9ef",
".H c #383c40",
".I c #000000",
".J c #807f7f",
".K c #eef2f6",
".L c #f1f6fc",
".M c #cdd1d6",
".N c #cfcece",
".O c #cdd2d9",
".P c #edf3fb",
".Q c #e8eef6",
".R c #e8eff7",
".S c #e4ebf3",
".T c #434343",
".U c #4b4d50",
".V c #dee7ef",
".W c #e9f0f7",
".X c #ecf4fb",
".Y c #cdd2d8",
".Z c #cececd",
".0 c #d2d5da",
".1 c #f4f8fd",
".2 c #edf1f6",
".3 c #eef1f6",
".4 c #f1f5f9",
".5 c #f2f5f9",
".6 c #494b4d",
".7 c #484c4f",
".8 c #eff3f7",
"#` c #f2f7fb",
"#. c #ebf0f5",
"## c #f4f9fe",
"#a c #d1d5d9",
"#b c #cecece",
"#c c #cfd4da",
"#d c #eff5fc",
"#e c #eaf0f7",
"#f c #eaeff6",
"#g c #e9f0f8",
"#h c #54585d",
"#i c #5c5b5b",
"#j c #e7eff7",
"#k c #e8f1fa",
"#l c #e6eff7",
"#m c #e7f0f8",
"#n c #ecf5fd",
"#o c #cbd3da",
"#p c #d2d6dc",
"#q c #f2f7fe",
"#r c #ecf1f7",
"#s c #f5fbff",
"#t c #c4c5c7",
"#u c #61676d",
"#v c #f2f9ff",
"#w c #f0f6fb",
"#x c #eef4fa",
"#y c #f1f7fd",
"#z c #eff5fa",
"#A c #f3f9ff",
"#B c #d2d7dc",
"#C c #cdcece",
"#D c #d5d8dd",
"#E c #f5f9fe",
"#F c #f3f7fc",
"#G c #e7ebf0",
"#H c #9e9fa1",
"#I c #b8b8b8",
"#J c #fcffff",
"#K c #f5f9fd",
"#L c #f5fafe",
"#M c #d4d8dc",
"#N c #cfd5dc",
"#O c #eff5fe",
"#P c #edf4fc",
"#Q c #adafb2",
"#R c #cdd4dc",
"#S c #f8ffff",
"#T c #ebf2fa",
"#U c #eef6fd",
"#V c #edf4fb",
"#W c #f0f8ff",
"#X c #cfd6dc",
"#Y c #d6d9dd",
"#Z c #f6fafe",
"#0 c #f5f8fd",
"#1 c #ecf0f4",
"#2 c #e0e4e8",
"#3 c #eef1f5",
"#4 c #f7faff",
"#5 c #f4f8fc",
"#6 c #f6fbff",
"#7 c #d5d9dc",
"#8 c #ced3da",
"a` c #ecf3fb",
"a. c #eaf0f8",
"a# c #edf3fc",
"aa c #d7dee5",
"ab c #c7cdd4",
"ac c #e1e8f0",
"ad c #edf5fc",
"ae c #ebf3fb",
"af c #eaf2f9",
"ag c #cdd4da",
"ah c #d2d2d2",
"ai c #e9e8e6",
"aj c #f6f5f4",
"ak c #e5e4e3",
"al c #fffefc",
"am c #e8e6e5",
"an c #dbdbdb",
"ao c #ababab",
"ap c #b4b4b4",
"aq c #b4b4b5",
"ar c #b5b5b5",
"as c #b3b4b4",
"at c #a0a0a1",
"au c #9d9d9e",
"av c #b1b2b2",
"aw c #b5b5b6",
"ax c #a9a9aa",
"ay c #d6d6d6",
"az c #f7f7f7",
"aA c #c4c4c4",
"aB c #b7b7b7",
"aC c #b6b6b6",
"aD c #c3c3c3",
"aE c #000000",
"aF c #000000",
"aG c #000000",
"aH c #000000",
"aI c #000000",
"aJ c #000000",
"aK c #000000",
"aL c #000000",
"aM c #000000",
"aN c #000000",
"aO c #000000",
"aP c #000000",
"aQ c #000000",
"aR c #000000",
"aS c #000000",
"aT c #000000",
"aU c #000000",
"aV c #000000",
"aW c #000000",
"aX c #000000",
"aY c #000000",
"aZ c #000000",
"a0 c #000000",
"a1 c #000000",
"a2 c #000000",
"a3 c #000000",
"a4 c #000000",
"a5 c #000000",
"a6 c #000000",
"a7 c #000000",
"a8 c #000000",
/* pixels */
"```.```````````````````````````.```#`a`b`c",
"`````d`e`f`f`f`f`f`f`f`f`f`f`g`c`h`i`j`k`l",
"```m`n`o`p`q`q`q`q`q`q`q`r`s`t`u`i`i`v`w``",
"```x`y`z`A`B`B`C`C`C`C`C`D`E`F`G`H`I`J```K",
"```L`M`N`O`P`Q`Q`Q`Q`Q`R`S`T`U`V`W`J```K`.",
"```X`Y`Z`0`1`1`1`2`3`0`4`5`6`7`8.```..`.``",
"``.#.a.b.c.d.e.e.f.g.h.i.j.k.l.m.#`K..````",
"``.n.o.p`3.q.q.r.s.t.u.v.w.x.y.z.A`.`K````",
"``.n.B.C.r.D.E.q.F.G.H.I.J.K.L.M.N```K````",
"``.n.O.P.b.Q.b.R.S.T.I.U.V.W.X.Y.Z```K````",
"``.n.0.1.2.3.4.5.6.I.7.8#`#.###a#b```K````",
"``.n#c#d#e#f#g#h.I#i#j#k#l#m#n#o#b```K````",
"``.n#p#q#r#s#t.I#u#v#w#x#y#z#A#B#C```K````",
"``.n#D#E#F#G#H#I#J#K#F#E###F#L#M#b```K````",
"``.n#N#O#P#Q#R#S#T#P#U#U#U#V#W#X#b```K````",
"``.n#Y#Z#0#1#2#3#4#K#L#Z#Z#5#6#7#b```K````",
"``.n#8a`a.a#aaabacad#Taea`afadag#b```K````",
"``ahai````````ajakal``````````am`w``..````",
"``anaoapaqaqarasatauavawaqaqapaxay```K````",
"``azaAapaBaBaBaCaCaCaCaBaCaBaraDaz```.````",
"`````````````````````````````````````.````"
};
