/* XPM */
static char *editlist_xpm[] = {
/* width height num_colors chars_per_pixel */
"    16    16       16            1",
/* colors */
"` c #000000",
". c #800000",
"# c #008000",
"a c #808000",
"b c #000080",
"c c #800080",
"d c #008080",
"e c #808080",
"f c #c0c0c0",
"g c #ff0000",
"h c #00ff00",
"i c #ffff00",
"j c #0000ff",
"k c none",
"l c #00ffff",
"m c #ffffff",
/* pixels */
"kkkkkkkkkkk`kkkk",
"kkkkkkkkkk`g`kkk",
"kkkkkkkkk`ggg`kk",
"kkkkkkkk`a`ggg`k",
"kkkkkkk`a`i`ggg`",
"kkkkkk`a`ii``g`k",
"kkkkk`a`ii`ee`kk",
"kkkk`a`ii`ee`kkk",
"kkk`a`ii`ee`kkkk",
"kkk``ii`ee`kkkkk",
"kkemm``ee`kkkkkk",
"kkemmm`e`kkkkkkk",
"keemmm``kkkkkkkk",
"k``eeekkkkkkkkkk",
"k``ekkkkkkkkkkkk",
"kkkkkkkkkkkkkkkk"
};
