/* XPM */
static char *findlist_xpm[] = {
/* width height num_colors chars_per_pixel */
"    16    16       16            1",
/* colors */
"` c #000000",
". c #800000",
"# c #008000",
"a c #808000",
"b c #000080",
"c c #800080",
"d c #008080",
"e c #808080",
"f c #c0c0c0",
"g c #ff0000",
"h c #00ff00",
"i c #ffff00",
"j c #0000ff",
"k c none",
"l c #00ffff",
"m c #ffffff",
/* pixels */
"k```````````ekkk",
"k`mmmmmmmmm`mekk",
"k`mmmmmmmmm```kk",
"k`mmmm```mmmm`kk",
"k`mme`mmf`emm`kk",
"k`mm`mm`ff`mm`kk",
"k`m`mmf`fff`m`kk",
"k`m`m`````f`m`kk",
"k`m`fff`ffm`m`kk",
"k`mm`ff`fm`mm`kk",
"k`mme`ffm``.m`kk",
"k`mmmm```.g..`kk",
"k`mmmmmmmm.g..kk",
"k``````````.g.kk",
"kkkkkkkkkkkk..kk",
"kkkkkkkkkkkkkkkk"
};
