/* XPM */
static char *Framework_GIS_xpm[] = {
/* width height num_colors chars_per_pixel */
"    16    16      256            2",
/* colors */
"`` c none",
"`. c #d3cfc7",
"`# c #d3cfc6",
"`a c #d0ccc2",
"`b c #e0dcc5",
"`c c #e3dfcc",
"`d c #e3dfc2",
"`e c #cfcbc8",
"`f c #d0ccc8",
"`g c #d4d0c7",
"`h c #d3cfc8",
"`i c #d3cfc5",
"`j c #d3cfca",
"`k c #e3dedb",
"`l c #9693cf",
"`m c #8280b5",
"`n c #8481e1",
"`o c #8482e3",
"`p c #e7e2bf",
"`q c #e0dcc1",
"`r c #cfcbc9",
"`s c #d5d1c7",
"`t c #d2cec5",
"`u c #d6d2d2",
"`v c #c7c3b7",
"`w c #adaa57",
"`x c #0707f6",
"`y c #0000bb",
"`z c #0000e5",
"`A c #0000d4",
"`B c #4b4af6",
"`C c #9795e5",
"`D c #e6e2c0",
"`E c #cecac9",
"`F c #d2ceca",
"`G c #d9d4c0",
"`H c #929117",
"`I c #7a7a00",
"`J c #666639",
"`K c #0000ff",
"`L c #373781",
"`M c #2222a9",
"`N c #494a4c",
"`O c #353595",
"`P c #aba7e2",
"`Q c #dedac0",
"`R c #d0ccc7",
"`S c #e4e0c2",
"`T c #2e2ea9",
"`U c #22229a",
"`V c #808019",
"`W c #7f7f00",
"`X c #787810",
"`Y c #818106",
"`Z c #747419",
"`0 c #989800",
"`1 c #47475c",
"`2 c #0909ff",
"`3 c #d1cec2",
"`4 c #d6d2c5",
"`5 c #d2cec8",
"`6 c #d4d0c5",
"`7 c #c7c3d2",
"`8 c #1514f5",
".` c #0606f5",
".. c #1a1ad3",
".# c #0101fe",
".a c #636336",
".b c #6f6f0d",
".c c #828200",
".d c #80800d",
".e c #3b3b56",
".f c #0000d9",
".g c #a8a5dc",
".h c #d9d5c5",
".i c #c8c5c7",
".j c #e9e5c8",
".k c #4c4bc0",
".l c #1f1fc8",
".m c #9a9a00",
".n c #3a3a90",
".o c #1f1fb8",
".p c #56561a",
".q c #929200",
".r c #696930",
".s c #0000fc",
".t c #0000a0",
".u c #1515c6",
".v c #dedac9",
".w c #c9c6c7",
".x c #e7e3c7",
".y c #5453c4",
".z c #0000b6",
".A c #5f5f4d",
".B c #7f7f07",
".C c #868600",
".D c #959500",
".E c #606044",
".F c #727222",
".G c #3d3d78",
".H c #0000c0",
".I c #0000f4",
".J c #2322c2",
".K c #ddd9c4",
".L c #d1cdc7",
".M c #c8c5c6",
".N c #e8e4c9",
".O c #5251b7",
".P c #0000ca",
".Q c #525266",
".R c #909000",
".S c #7a7a0b",
".T c #8a8a06",
".U c #343493",
".V c #1616d7",
".W c #0000df",
".X c #000085",
".Y c #0000ad",
".Z c #201ffe",
".0 c #dedac6",
".1 c #c9c6c8",
".2 c #e7e3c5",
".3 c #5453d0",
".4 c #0202ff",
".5 c #0201ff",
".6 c #1818d6",
".7 c #666630",
".8 c #424274",
"#` c #0303ce",
"#. c #0000ac",
"## c #00009e",
"#a c #22218f",
"#b c #ddd9cc",
"#c c #d1cdc5",
"#d c #d8d4ce",
"#e c #151598",
"#f c #0303f4",
"#g c #606040",
"#h c #8a8a00",
"#i c #36365c",
"#j c #020293",
"#k c #00009a",
"#l c #3c3c4b",
"#m c #c1bdb1",
"#n c #d5d1cc",
"#o c #d2cec6",
"#p c #dfdbc6",
"#q c #4947a3",
"#r c #0000bf",
"#s c #0606ca",
"#t c #78781c",
"#u c #6d6d02",
"#v c #04049d",
"#w c #0606cd",
"#x c #24244b",
"#y c #87862a",
"#z c #d4d0c1",
"#A c #d3cfc9",
"#B c #e0dcc3",
"#C c #3b3aa4",
"#D c #0000cb",
"#E c #3e3e4c",
"#F c #3d3d39",
"#G c #04049f",
"#H c #060689",
"#I c #000064",
"#J c #17178c",
"#K c #bcb8cf",
"#L c #dad7ca",
"#M c #d1cdc6",
"#N c #d8d4cc",
"#O c #c8c4b8",
"#P c #8c89cb",
"#Q c #02029e",
"#R c #000094",
"#S c #0000c8",
"#T c #7a78af",
"#U c #b3b0b9",
"#V c #e3dfc8",
"#W c #cfcbc6",
"#X c #d4d0ca",
"#Y c #eae5ca",
"#Z c #b3afb1",
"#0 c #a6a3c4",
"#1 c #a3a0c3",
"#2 c #a4a1cb",
"#3 c #e2ded3",
"#4 c #dcd8c9",
"#5 c #d5d0c8",
"#6 c #e5e1d0",
"#7 c #ebe6c8",
"#8 c #ebe6c9",
"a` c #ebe6c5",
"a. c #cdc9c2",
"a# c #000000",
"aa c #000000",
"ab c #000000",
"ac c #000000",
"ad c #000000",
"ae c #000000",
"af c #000000",
"ag c #000000",
"ah c #000000",
"ai c #000000",
"aj c #000000",
"ak c #000000",
"al c #000000",
"am c #000000",
"an c #000000",
"ao c #000000",
"ap c #000000",
"aq c #000000",
"ar c #000000",
"as c #000000",
"at c #000000",
"au c #000000",
"av c #000000",
"aw c #000000",
"ax c #000000",
"ay c #000000",
"az c #000000",
"aA c #000000",
"aB c #000000",
"aC c #000000",
"aD c #000000",
"aE c #000000",
"aF c #000000",
"aG c #000000",
"aH c #000000",
"aI c #000000",
"aJ c #000000",
"aK c #000000",
"aL c #000000",
"aM c #000000",
"aN c #000000",
"aO c #000000",
"aP c #000000",
"aQ c #000000",
"aR c #000000",
"aS c #000000",
"aT c #000000",
"aU c #000000",
"aV c #000000",
"aW c #000000",
"aX c #000000",
"aY c #000000",
"aZ c #000000",
"a0 c #000000",
"a1 c #000000",
"a2 c #000000",
"a3 c #000000",
"a4 c #000000",
"a5 c #000000",
"a6 c #000000",
"a7 c #000000",
"a8 c #000000",
/* pixels */
"`````.```#`a`b`c`d`d`e`f`g`h````",
"```.```i`j`k`l`m`n`o`p`q`r`s`h``",
"`````t`u`v`w`x`y`z`A`B`C`D`E`g`h",
"`h`.`F`G`H`I`J`K`L`M`N`O`P`Q`f``",
"`g`R`S`T`U`V`W`X`Y`Z`0`1`2`3`4`.",
"`5`6`7`8.`...#.a.b.c.d.e.f.g.h`5",
".i.j.k`K.l.m.n.o.p.q.r.s.t.u.v`R",
".w.x.y.z.A.B.C.D.E.F.G.H.I.J.K.L",
".M.N.O.P.Q.R.S.T.U.V.W.X.Y.Z.0`f",
".1.2.3.4.5.6.7.q.8`K#`#.###a#b.L",
"`h#c#d#e#f`K#g#h#i#j#k#l.C#m#n#o",
"`g.L#p#q#r#s#t#u.H#v#w#x#y#z`j`.",
"`h`.#A#B#C#D#E#F#G#H#I#J#K#L#M``",
"````#M#N#O#P#Q#R#D#S#T#U#V#W```.",
"```.``#o#X#Y#Z#0#1#2#3#4#W#5`.``",
"`````.``#o.w#6#7#8a`a.#W```.````"
};
