/* XPM */
static char *grouptypecurve_xpm[] = {
/* width height num_colors chars_per_pixel */
"    16    16      256            2",
/* colors */
"`` c #fffdf4",
"`. c #fff5f2",
"`# c #eea2ac",
"`a c #fbafb9",
"`b c #fff4f6",
"`c c #fffbf9",
"`d c #fffbfa",
"`e c #fffffd",
"`f c #fffefb",
"`g c #fffffb",
"`h c #fafffc",
"`i c #fbffff",
"`j c #fefdff",
"`k c #fffdff",
"`l c #fffeff",
"`m c #ffffff",
"`n c #fffdf6",
"`o c #c2a6a3",
"`p c #76333c",
"`q c #a9666f",
"`r c #eccccd",
"`s c #fffcfa",
"`t c #fffefd",
"`u c #fffefa",
"`v c #fcfffd",
"`w c #fcffff",
"`x c #fcf9ff",
"`y c #fffef8",
"`z c #ab9693",
"`A c #6f3c41",
"`B c #6c393e",
"`C c #e9d1d1",
"`D c #fffaf8",
"`E c #fffdfe",
"`F c #fafcf7",
"`G c #fdfffc",
"`H c #fefcfd",
"`I c #fefffa",
"`J c #fffcf9",
"`K c #fffaf9",
"`L c #765357",
"`M c #1d0000",
"`N c #bdadae",
"`O c #fffdfd",
"`P c #fbfbfb",
"`Q c #fefffd",
"`R c #fdfdfb",
"`S c #fef9fd",
"`T c #fffefc",
"`U c #fffafb",
"`V c #110102",
"`W c #403738",
"`X c #cecccf",
"`Y c #faf8fb",
"`Z c #feffff",
"`0 c #fbfffe",
"`1 c #fbfffc",
"`2 c #fcfdf7",
"`3 c #6b6a68",
"`4 c #040203",
"`5 c #3b3b3d",
"`6 c #b6b5ba",
"`7 c #fafbfd",
"`8 c #fffcfc",
".` c #faf9f7",
".. c #fdfef9",
".# c #fdfffe",
".a c #fafffe",
".b c #666a6b",
".c c #0c0d0f",
".d c #000004",
".e c #4e4e50",
".f c #9ea09f",
".g c #fafafa",
".h c #fefdfb",
".i c #fefffb",
".j c #fcfffb",
".k c #fcfcfc",
".l c #f9fffd",
".m c #f9ffff",
".n c #969a9b",
".o c #504f54",
".p c #111113",
".q c #040406",
".r c #201e1f",
".s c #363233",
".t c #7f7b7c",
".u c #fcfefb",
".v c #797478",
".w c #585357",
".x c #242225",
".y c #030303",
".z c #3c3e3d",
".A c #fbfffd",
".B c #fffcff",
".C c #fffbff",
".D c #a8a8aa",
".E c #616264",
".F c #000100",
".G c #4d4f4e",
".H c #dce0df",
".I c #494947",
".J c #000000",
".K c #b5b3b4",
".L c #fffffa",
".M c #fefdf9",
".N c #0e0906",
".O c #4c4346",
".P c #fef5f8",
".Q c #fdfeff",
".R c #fefefc",
".S c #fffdfa",
".T c #2f2120",
".U c #443437",
".V c #fffafd",
".W c #fefeff",
".X c #fbfdfc",
".Y c #fffbf8",
".Z c #665251",
".0 c #5b4548",
".1 c #fff7fa",
".2 c #f9fdfe",
".3 c #fff7f3",
".4 c #927a78",
".5 c #886b6f",
".6 c #fff6fa",
".7 c #fffaf4",
".8 c #fff7f4",
"#` c #fff6f8",
"#. c #fff4f9",
"## c #000000",
"#a c #000000",
"#b c #000000",
"#c c #000000",
"#d c #000000",
"#e c #000000",
"#f c #000000",
"#g c #000000",
"#h c #000000",
"#i c #000000",
"#j c #000000",
"#k c #000000",
"#l c #000000",
"#m c #000000",
"#n c #000000",
"#o c #000000",
"#p c #000000",
"#q c #000000",
"#r c #000000",
"#s c #000000",
"#t c #000000",
"#u c #000000",
"#v c #000000",
"#w c #000000",
"#x c #000000",
"#y c #000000",
"#z c #000000",
"#A c #000000",
"#B c #000000",
"#C c #000000",
"#D c #000000",
"#E c #000000",
"#F c #000000",
"#G c #000000",
"#H c #000000",
"#I c #000000",
"#J c #000000",
"#K c #000000",
"#L c #000000",
"#M c #000000",
"#N c #000000",
"#O c #000000",
"#P c #000000",
"#Q c #000000",
"#R c #000000",
"#S c #000000",
"#T c #000000",
"#U c #000000",
"#V c #000000",
"#W c #000000",
"#X c #000000",
"#Y c #000000",
"#Z c #000000",
"#0 c #000000",
"#1 c #000000",
"#2 c #000000",
"#3 c #000000",
"#4 c #000000",
"#5 c #000000",
"#6 c #000000",
"#7 c #000000",
"#8 c #000000",
"a` c #000000",
"a. c #000000",
"a# c #000000",
"aa c #000000",
"ab c #000000",
"ac c #000000",
"ad c #000000",
"ae c #000000",
"af c #000000",
"ag c #000000",
"ah c #000000",
"ai c #000000",
"aj c #000000",
"ak c #000000",
"al c #000000",
"am c #000000",
"an c #000000",
"ao c #000000",
"ap c #000000",
"aq c #000000",
"ar c #000000",
"as c #000000",
"at c #000000",
"au c #000000",
"av c #000000",
"aw c #000000",
"ax c #000000",
"ay c #000000",
"az c #000000",
"aA c #000000",
"aB c #000000",
"aC c #000000",
"aD c #000000",
"aE c #000000",
"aF c #000000",
"aG c #000000",
"aH c #000000",
"aI c #000000",
"aJ c #000000",
"aK c #000000",
"aL c #000000",
"aM c #000000",
"aN c #000000",
"aO c #000000",
"aP c #000000",
"aQ c #000000",
"aR c #000000",
"aS c #000000",
"aT c #000000",
"aU c #000000",
"aV c #000000",
"aW c #000000",
"aX c #000000",
"aY c #000000",
"aZ c #000000",
"a0 c #000000",
"a1 c #000000",
"a2 c #000000",
"a3 c #000000",
"a4 c #000000",
"a5 c #000000",
"a6 c #000000",
"a7 c #000000",
"a8 c #000000",
/* pixels */
"```.`#`a`b`c`d`e`f`g`h`i`j`k`l`m",
"`n`o`p`q`r`s`t`e`u`g`v`w`x`k`l`e",
"`y`z`A`B`C`D`E`m`e`F`G`m`l`l`H`I",
"`J`K`L`M`N`O`l`P`Q`Q`R`l`S`l`T`g",
"`e`O`U`V`W`X`Y`Z`0`1`e`k`l`l`g`2",
"`m`P`e`3`4`5`6`7`0`Q`d`8`l.`..`I",
"`m.#`i.a.b.c.d.e.f.g`k`k.h`e.i.j",
".k`Z.l.m`i.n.o.p.q.r.s.t`m.u`v.j",
"`e`e`Z`w`w`w`m`m.v.w.x.y.z`w`w.A",
"`e`e`l`m`Z`Z`Z`m.B.C.D.E.F.G.H`w",
"`g`f`O`l`e`Q`Q`m`k.B`7`w.I.J.K`l",
".L`g.B.B`l`e`v`Z`k.C`Z`Z.M.N.O.P",
"`g`e`k`k`k`e`v`v`l`l.Q.R.S.T.U.V",
".i`Q`l`k`k`t`v.A.W`m.X`g.Y.Z.0.1",
"`v`w`Z`l`k`t`v.l.2.Q`e`u.3.4.5.6",
".A`i`w`l`k`t`v.l`i`Z`e.Y.7.8#`#."
};
