/* XPM */
static char *huihua_xpm[] = {
/* width height num_colors chars_per_pixel */
"    15    16      256            2",
/* colors */
"`` c none",
"`. c #e7f2ff",
"`# c #b5d8fe",
"`a c #b0d4ff",
"`b c #c3ddfb",
"`c c #fcfdfe",
"`d c #fffffe",
"`e c #fcfeff",
"`f c #b9d7fa",
"`g c #65a9f6",
"`h c #66aaf8",
"`i c #73adef",
"`j c #e5edf6",
"`k c #fcfcfc",
"`l c #ffd6a0",
"`m c #f6ac50",
"`n c #80ade0",
"`o c #4b96ea",
"`p c #5299ea",
"`q c #5a9eeb",
"`r c #4a97ec",
"`s c #337cd1",
"`t c #897460",
"`u c #e3994f",
"`v c #f2e5d9",
"`w c #fdad44",
"`x c #fac07b",
"`y c #86afdf",
"`z c #2d77cc",
"`A c #2a73c7",
"`B c #236bbe",
"`C c #1c62b5",
"`D c #1b60b2",
"`E c #74859c",
"`F c #b25400",
"`G c #d9b391",
"`H c #fba73e",
"`I c #fde1bf",
"`J c #f8feff",
"`K c #d6e1ee",
"`L c #cddbec",
"`M c #c3d3e6",
"`N c #bbcde1",
"`O c #b5c9df",
"`P c #b7d4f2",
"`Q c #aa5a0c",
"`R c #d6ae8a",
"`S c #f9a63e",
"`T c #f9d9b4",
"`U c #fcfcfb",
"`V c #f4f4f3",
"`W c #fcffff",
"`X c #f9ffff",
"`Y c #af5d0e",
"`Z c #d2ad8b",
"`0 c #f8a33b",
"`1 c #f5d7b3",
"`2 c #feffff",
"`3 c #c2c9ce",
"`4 c #515152",
"`5 c #e5e5e5",
"`6 c #e8e8eb",
"`7 c #eaddb7",
"`8 c #f4faee",
".` c #a95911",
".. c #d1ac8b",
".# c #f6a039",
".a c #efd5b1",
".b c #f7ffff",
".c c #e4f0f9",
".d c #788797",
".e c #b2b2b6",
".f c #cac8ac",
".g c #f3d456",
".h c #f3d378",
".i c #b97012",
".j c #d1ae8f",
".k c #f39c36",
".l c #e9d1b1",
".m c #efffff",
".n c #e9f7ff",
".o c #94b5d7",
".p c #4f5867",
".q c #a17717",
".r c #ffda29",
".s c #ffe458",
".t c #f3cf63",
".u c #ecca7c",
".v c #fbeed3",
".w c #ef9a34",
".x c #e4cfb0",
".y c #e8fdff",
".z c #e7f7ff",
".A c #adcce9",
".B c #7ba0c6",
".C c #a9906c",
".D c #d7860c",
".E c #edb011",
".F c #ffe054",
".G c #fde272",
".H c #edd489",
".I c #96c1ea",
".J c #edf5fd",
".K c #eb9532",
".L c #ddcbaf",
".M c #e0fbff",
".N c #e1f6ff",
".O c #c1ddf2",
".P c #8bb4dc",
".Q c #96bfe8",
".R c #c9d1d5",
".S c #ca904b",
".T c #da900f",
".U c #fac636",
".V c #bed2bf",
".W c #83b6f7",
".X c #e1bae9",
".Y c #f6e1f1",
".Z c #e89330",
".0 c #d5c8ae",
".1 c #d8f8ff",
".2 c #d7f1ff",
".3 c #cdeafc",
".4 c #a0c6e5",
".5 c #93bbdf",
".6 c #b1daf8",
".7 c #cff1ff",
".8 c #ac5c12",
"#` c #ad7c38",
"#. c #357ed3",
"## c #a087cc",
"#a c #d073b6",
"#b c #e0beda",
"#c c #e48e2c",
"#d c #cec6b0",
"#e c #d0f6ff",
"#f c #ceeeff",
"#g c #cdf0ff",
"#h c #b0d7f4",
"#i c #a0cbec",
"#j c #a2cded",
"#k c #c0eeff",
"#l c #934f11",
"#m c #c4a88f",
"#n c #9bade2",
"#o c #9b367f",
"#p c #913a7b",
"#q c #f7f2f6",
"#r c #de8a29",
"#s c #c8bea5",
"#t c #c8ecf4",
"#u c #c6e5f4",
"#v c #c4e4f4",
"#w c #badcf0",
"#x c #a9d0e8",
"#y c #a6cde7",
"#z c #b0dbf5",
"#A c #8e4a0b",
"#B c #caa789",
"#C c #e0c8d9",
"#D c #d8c2d3",
"#E c #d99c57",
"#F c #ab5200",
"#G c #a14d00",
"#H c #994600",
"#I c #954300",
"#J c #914200",
"#K c #874305",
"#L c #844207",
"#M c #7f3d03",
"#N c #8c4305",
"#O c #dec8b5",
"#P c #f3e9e0",
"#Q c #ddc3aa",
"#R c #dabfa9",
"#S c #d8bea9",
"#T c #d7bea9",
"#U c #d6beaa",
"#V c #d3bdaa",
"#W c #d1baa8",
"#X c #dfcfc1",
"#Y c #fefcfb",
"#Z c #000000",
"#0 c #000000",
"#1 c #000000",
"#2 c #000000",
"#3 c #000000",
"#4 c #000000",
"#5 c #000000",
"#6 c #000000",
"#7 c #000000",
"#8 c #000000",
"a` c #000000",
"a. c #000000",
"a# c #000000",
"aa c #000000",
"ab c #000000",
"ac c #000000",
"ad c #000000",
"ae c #000000",
"af c #000000",
"ag c #000000",
"ah c #000000",
"ai c #000000",
"aj c #000000",
"ak c #000000",
"al c #000000",
"am c #000000",
"an c #000000",
"ao c #000000",
"ap c #000000",
"aq c #000000",
"ar c #000000",
"as c #000000",
"at c #000000",
"au c #000000",
"av c #000000",
"aw c #000000",
"ax c #000000",
"ay c #000000",
"az c #000000",
"aA c #000000",
"aB c #000000",
"aC c #000000",
"aD c #000000",
"aE c #000000",
"aF c #000000",
"aG c #000000",
"aH c #000000",
"aI c #000000",
"aJ c #000000",
"aK c #000000",
"aL c #000000",
"aM c #000000",
"aN c #000000",
"aO c #000000",
"aP c #000000",
"aQ c #000000",
"aR c #000000",
"aS c #000000",
"aT c #000000",
"aU c #000000",
"aV c #000000",
"aW c #000000",
"aX c #000000",
"aY c #000000",
"aZ c #000000",
"a0 c #000000",
"a1 c #000000",
"a2 c #000000",
"a3 c #000000",
"a4 c #000000",
"a5 c #000000",
"a6 c #000000",
"a7 c #000000",
"a8 c #000000",
/* pixels */
"```````.`#`a`b`c``````````````",
"```d`e`f`g`h`i`j`k````````````",
"`l`m`n`o`p`q`r`s`t`u`v````````",
"`w`x`y`z`A`B`C`D`E`F`G````````",
"`H`I`J`K`L`M`N`O`P`Q`R````````",
"`S`T```U`V`````W`X`Y`Z````````",
"`0`1`2`3`4`5`6`7`8.`..````````",
".#.a.b.c.d.e.f.g.h.i.j````````",
".k.l.m.n.o.p.q.r.s.t.u.v`d````",
".w.x.y.z.A.B.C.D.E.F.G.H.I.J``",
".K.L.M.N.O.P.Q.R.S.T.U.V.W.X.Y",
".Z.0.1.2.3.4.5.6.7.8#`#.###a#b",
"#c#d#e#f#g#h#i#j#k#l#m#n#o#p#q",
"#r#s#t#u#v#w#x#y#z#A#B``#C#D``",
"#E#F#G#H#I#J#K#L#M#N#O````````",
"#P#Q#R#S#T#T#U#V#W#X#Y````````"
};
