/* XPM */
static char *info_xpm[] = {
/* width height num_colors chars_per_pixel */
"    16    16      256            2",
/* colors */
"`` c none",
"`. c #ecf5ff",
"`# c #b8d9fe",
"`a c #b0d5fe",
"`b c #bddafc",
"`c c #f6f9fd",
"`d c #fffffe",
"`e c #fcfeff",
"`f c #c2ddfb",
"`g c #67aaf6",
"`h c #66aaf7",
"`i c #6baaf1",
"`j c #d3e2f3",
"`k c #fafbfc",
"`l c #fffffd",
"`m c #ffd7a1",
"`n c #f8ad4e",
"`o c #86aed9",
"`p c #4d97eb",
"`q c #5098e9",
"`r c #5b9feb",
"`s c #4d98ec",
"`t c #3682d9",
"`u c #6a707b",
"`v c #e18f3f",
"`w c #e9d1ba",
"`x c #feae45",
"`y c #fbbe76",
"`z c #8fb5df",
"`A c #2d78cd",
"`B c #2b73c8",
"`C c #246cbf",
"`D c #1d64b5",
"`E c #185fb3",
"`F c #5d7faa",
"`G c #b2621e",
"`H c #c6874c",
"`I c #fba83f",
"`J c #fddcb7",
"`K c #faffff",
"`L c #d7e2ee",
"`M c #cbd9ea",
"`N c #c3d4e6",
"`O c #bccfe2",
"`P c #b5c9de",
"`Q c #b6d9fb",
"`R c #b1773e",
"`S c #b78456",
"`T c #bbe3ff",
"`U c #afd3fd",
"`V c #e1efff",
"`W c #f9a63f",
"`X c #f9d5ad",
"`Y c #fdffff",
"`Z c #ffedce",
"`0 c #d3aa7b",
"`1 c #95a3b5",
"`2 c #65acfa",
"`3 c #65abfb",
"`4 c #82aad8",
"`5 c #c4b09a",
"`6 c #f4dcbd",
"`7 c #f8a43d",
"`8 c #f4d3ac",
".` c #f7fcff",
".. c #f6fcff",
".# c #f5fbff",
".a c #f4fcff",
".b c #f3fcff",
".c c #ffb854",
".d c #a9a6a0",
".e c #3087eb",
".f c #2f7dd6",
".g c #317ed4",
".h c #1a6fd0",
".i c #555b69",
".j c #c0640e",
".k c #f6a03a",
".l c #efd1aa",
".m c #f5ffff",
".n c #f2faff",
".o c #f1faff",
".p c #eff9ff",
".q c #edfaff",
".r c #edf9fe",
".s c #fcad47",
".t c #ebcba7",
".u c #b7d5f1",
".v c #94b6dc",
".w c #87aad2",
".x c #7da8d9",
".y c #97908c",
".z c #ab4a00",
".A c #f49d36",
".B c #e9ceaa",
".C c #efffff",
".D c #ecf8ff",
".E c #eaf8ff",
".F c #e8f6ff",
".G c #e6f6ff",
".H c #e7f6fe",
".I c #f8a946",
".J c #fad7ac",
".K c #feffff",
".L c #e2caad",
".M c #a14500",
".N c #f09b34",
".O c #e3cba8",
".P c #e7feff",
".Q c #e5f6ff",
".R c #e3f5ff",
".S c #e1f4ff",
".T c #def4ff",
".U c #e0f4fe",
".V c #f8a744",
".W c #f1d2ab",
".X c #f4ffff",
".Y c #f0faff",
".Z c #f2ffff",
".0 c #dac4ac",
".1 c #9e4300",
".2 c #ec9632",
".3 c #dcc7a8",
".4 c #e0fbff",
".5 c #def2ff",
".6 c #dcf2ff",
".7 c #daf2ff",
".8 c #d7f2ff",
"#` c #d9f0fe",
"#. c #f4a240",
"## c #eacea9",
"#a c #ecffff",
"#b c #e9f7ff",
"#c c #e7f6ff",
"#d c #e9ffff",
"#e c #d2c1ac",
"#f c #9a4000",
"#g c #e99330",
"#h c #d5c5a6",
"#i c #d8f9ff",
"#j c #d6efff",
"#k c #d4f0ff",
"#l c #d2efff",
"#m c #cfefff",
"#n c #d1edfe",
"#o c #ed9c3b",
"#p c #e2c9a6",
"#q c #e4fdff",
"#r c #dff4ff",
"#s c #e1fdff",
"#t c #cabeac",
"#u c #933d00",
"#v c #e48f2d",
"#w c #cec2a8",
"#x c #d0f7ff",
"#y c #ceefff",
"#z c #cceeff",
"#A c #caedff",
"#B c #c8edff",
"#C c #c9edff",
"#D c #ea9939",
"#E c #dbc6a6",
"#F c #dcfaff",
"#G c #d8f0ff",
"#H c #d6f1ff",
"#I c #d7f9ff",
"#J c #c3baac",
"#K c #923c00",
"#L c #df8b29",
"#M c #c8ba9e",
"#N c #c9edf4",
"#O c #c6e5f4",
"#P c #c3e4f4",
"#Q c #c1e2f4",
"#R c #bfe2f4",
"#S c #c2e3f3",
"#T c #e79637",
"#U c #d3c8af",
"#V c #d3ffff",
"#W c #d1f6ff",
"#X c #d0ffff",
"#Y c #bdbeb7",
"#Z c #8e3800",
"#0 c #da9d58",
"#1 c #ab5200",
"#2 c #a14d00",
"#3 c #994700",
"#4 c #954400",
"#5 c #914200",
"#6 c #8d3f00",
"#7 c #914603",
"#8 c #d98524",
"a` c #c9a370",
"a. c #c4c2ac",
"a# c #bfbaac",
"aa c #bab8ac",
"ab c #b9bdac",
"ac c #ab9274",
"ad c #8d3c00",
"ae c #f3eae0",
"af c #ddc4ab",
"ag c #dabfa9",
"ah c #d8bfa9",
"ai c #d7bea9",
"aj c #d6bda9",
"ak c #d7bfab",
"al c #d5a572",
"am c #a74f00",
"an c #9c4100",
"ao c #943e00",
"ap c #8d3900",
"aq c #8a3500",
"ar c #893900",
"as c #b98a61",
"at c #000000",
"au c #000000",
"av c #000000",
"aw c #000000",
"ax c #000000",
"ay c #000000",
"az c #000000",
"aA c #000000",
"aB c #000000",
"aC c #000000",
"aD c #000000",
"aE c #000000",
"aF c #000000",
"aG c #000000",
"aH c #000000",
"aI c #000000",
"aJ c #000000",
"aK c #000000",
"aL c #000000",
"aM c #000000",
"aN c #000000",
"aO c #000000",
"aP c #000000",
"aQ c #000000",
"aR c #000000",
"aS c #000000",
"aT c #000000",
"aU c #000000",
"aV c #000000",
"aW c #000000",
"aX c #000000",
"aY c #000000",
"aZ c #000000",
"a0 c #000000",
"a1 c #000000",
"a2 c #000000",
"a3 c #000000",
"a4 c #000000",
"a5 c #000000",
"a6 c #000000",
"a7 c #000000",
"a8 c #000000",
/* pixels */
"```````.`#`a`b`c````````````````",
"```d`e`f`g`h`i`j`k`l````````````",
"`m`n`o`p`q`r`s`t`u`v`w``````````",
"`x`y`z`A`B`C`D`E`F`G`H``````````",
"`I`J`K`L`M`N`O`P`Q`R`S`T`U`V````",
"`W`X```````````Y`Z`0`1`2`3`4`5`6",
"`7`8`K.`...#.a.b.c.d.e.f.g.h.i.j",
".k.l.m.n.o.p.q.r.s.t.u.v.w.x.y.z",
".A.B.C.D.E.F.G.H.I.J````.K``.L.M",
".N.O.P.Q.R.S.T.U.V.W.X.n.Y.Z.0.1",
".2.3.4.5.6.7.8#`#.###a#b#c#d#e#f",
"#g#h#i#j#k#l#m#n#o#p#q.S#r#s#t#u",
"#v#w#x#y#z#A#B#C#D#E#F#G#H#I#J#K",
"#L#M#N#O#P#Q#R#S#T#U#V#W#x#X#Y#Z",
"#0#1#2#3#4#5#6#7#8a`a.a#aaabacad",
"aeafagahaiaiajakalamanaoapaqaras"
};
