/* XPM */
static char *backview_xpm[] = {
/* width height num_colors chars_per_pixel */
"    32    32      256            2",
/* colors */
"`` c #4c4a4c",
"`. c #849a9c",
"`# c #ac3224",
"`a c #a4cedf",
"`b c #ac7244",
"`c c #c49e5c",
"`d c #7cb6d7",
"`e c #fcce66",
"`f c #dc360c",
"`g c #ec661c",
"`h c #747274",
"`i c #acb6b4",
"`j c #fc8238",
"`k c #e44e0c",
"`l c #d4d2d2",
"`m c #848684",
"`n c #d4eaec",
"`o c #9c9a94",
"`p c #94b6cc",
"`q c #bccecc",
"`r c #f4520c",
"`s c #fcb654",
"`t c #dc664c",
"`u c #ec7a2c",
"`v c #b44a24",
"`w c #dc8674",
"`x c #849298",
"`y c #94c2db",
"`z c #eceaec",
"`A c #7cb2d4",
"`B c #dcdedc",
"`C c #9c4e44",
"`D c #c42e0c",
"`E c #acd6e9",
"`F c #bc8644",
"`G c #fc9a4c",
"`H c #947674",
"`I c #dc4a0c",
"`J c #fc8e39",
"`K c #9caeac",
"`L c #c4e2e8",
"`M c #f45a14",
"`N c #94caec",
"`O c #ecf6f8",
"`P c #fc6e1a",
"`Q c #84bee4",
"`R c #ec5e14",
"`S c #84a2ac",
"`T c #747e84",
"`U c #a4cadd",
"`V c #e4aa64",
"`W c #64625c",
"`X c #bcd6e2",
"`Y c #c4c6c4",
"`Z c #949292",
"`0 c #9cc2d8",
"`1 c #d46634",
"`2 c #fc6617",
"`3 c #b4b6b4",
"`4 c #9c8e8c",
"`5 c #9ca2a4",
"`6 c #e4e2e4",
"`7 c #fcfafc",
"`8 c #ac4234",
".` c #b4d2dd",
".. c #ec3a04",
".# c #d4d6d4",
".a c #848e8c",
".b c #fc7624",
".c c #cc3a0c",
".d c #b4d6e1",
".e c #fc9651",
".f c #f46214",
".g c #e45a3c",
".h c #94a2a8",
".i c #6c6a6a",
".j c #cc7e6c",
".k c #8cbad9",
".l c #fc8a3b",
".m c #f45614",
".n c #8c9294",
".o c #d48280",
".p c #ec4204",
".q c #f4fefc",
".r c #847e7c",
".s c #f4aa4c",
".t c #ccd6dc",
".u c #c4665c",
".v c #fc6624",
".w c #bc3a2c",
".x c #accedc",
".y c #94c2e4",
".z c #ecf2f4",
".A c #8caec4",
".B c #9c6a5c",
".C c #acaaa8",
".D c #f4f6f4",
".E c #8cbedb",
".F c #c4dae4",
".G c #d4cacc",
".H c #bcbebc",
".I c #aca6a4",
".J c #fc763c",
".K c #cc9284",
".L c #fcaa6c",
".M c #cc6e64",
".N c #ac3a34",
".O c #a4ceec",
".P c #dc9a8c",
".Q c #84badc",
".R c #747a7c",
".S c #fc8636",
".T c #dc563c",
".U c #dcced4",
".V c #8c8684",
".W c #94bed7",
".X c #ecc26c",
".Y c #d45244",
".Z c #dc8e7c",
".0 c #d4e6ec",
".1 c #a45a54",
".2 c #eca694",
".3 c #9c7674",
".4 c #cce2e4",
".5 c #fc5a11",
".6 c #9ccade",
".7 c #fc6e24",
".8 c #bcdae2",
"#` c #9cc6e4",
"#. c #dc7e7c",
"## c #d4aeac",
"#a c #5c5a54",
"#b c #a4bed4",
"#c c #fcca64",
"#d c #d43a0c",
"#e c #745e5c",
"#f c #ec4a1c",
"#g c #949a9c",
"#h c #cccecc",
"#i c #e4dadc",
"#j c #e4eeec",
"#k c #ec6214",
"#l c #a4bec4",
"#m c #ec5614",
"#n c #ec6244",
"#o c #b4b2b4",
"#p c #bc463c",
"#q c #a4dafc",
"#r c #fcb252",
"#s c #d49684",
"#t c #cc360c",
"#u c #c43a24",
"#v c #fc9a5c",
"#w c #ec5a2c",
"#x c #ec521c",
"#y c #fc4e04",
"#z c #e44a1c",
"#A c #8ca2a4",
"#B c #bcb6ac",
"#C c #94aebc",
"#D c #d4725c",
"#E c #d45a4c",
"#F c #fc7e3c",
"#G c #f4c25c",
"#H c #e43a0c",
"#I c #a49e9c",
"#J c #9cbac4",
"#K c #7c7e7c",
"#L c #cccaca",
"#M c #a4a2a1",
"#N c #ece6e4",
"#O c #b43e2c",
"#P c #dcdadc",
"#Q c #ec5a34",
"#R c #746e6c",
"#S c #fcae54",
"#T c #dcc6c4",
"#U c #d48e7c",
"#V c #a44e44",
"#W c #cc320c",
"#X c #dc461c",
"#Y c #f43a04",
"#Z c #fc762c",
"#0 c #b4d6ec",
"#1 c #fc925c",
"#2 c #94a6b4",
"#3 c #8cc2e4",
"#4 c #fc5214",
"#5 c #8ca6b4",
"#6 c #bcbabc",
"#7 c #8c8e8e",
"#8 c #fc6215",
"a` c #fc5616",
"a. c #b43a30",
"a# c #dce6e4",
"aa c #dceaec",
"ab c #fc8e44",
"ac c #f44204",
"ad c #f4f2f4",
"ae c #7c7a7c",
"af c #9ccaec",
"ag c #7cbadc",
"ah c #dc3a14",
"ai c #848a8c",
"aj c #9c9e9c",
"ak c #ec7e34",
"al c #849694",
"am c #94c6dc",
"an c #eceeee",
"ao c #dce2e4",
"ap c #ecfafc",
"aq c #fc721c",
"ar c #646664",
"as c #949694",
"at c #9cc6dc",
"au c #fc6a1a",
"av c #b4babc",
"aw c #e4e6e9",
"ax c #fc7a1c",
"ay c #b4dae4",
"az c #94a6ac",
"aA c #6c6e6c",
"aB c #8c9699",
"aC c #848283",
"aD c #8cb2cc",
"aE c #acaeac",
"aF c #f4fafc",
"aG c #8cc2dc",
"aH c #cc7268",
"aI c #8c8a8c",
"aJ c #dc9284",
"aK c #9c7a6c",
"aL c #cce6ec",
"aM c #fc5e14",
"aN c #d43e14",
"aO c #949ea4",
"aP c #ccd2d4",
"aQ c #fc9e64",
"aR c #94b2c4",
"aS c #7c8284",
"aT c #a4a6a4",
"aU c #ec5e3c",
"aV c #ec6a1c",
"aW c #747674",
"aX c #dc8a74",
"aY c #947a74",
"aZ c None",
"a0 c #ec3e04",
"a1 c #fc6a24",
"a2 c #94c6e4",
"a3 c #a4d2ec",
"a4 c #dc9e8c",
"a5 c #dcd2d4",
"a6 c #a45244",
"a7 c #f43e04",
"a8 c #fc965c",
/* pixels */
"aZaZaZaZaZaZaZaZaZaZaZaZaZaZaZaZaZaZaZaZaZaZaZaZaZaZaZaZaZaZaZaZ",
"aZaZaZaZaZaZaZad#L#o#I#I.C#L`zaZaZaZaZaZaZaZaZaZaZaZaZaZaZaZaZaZ",
"aZaZaZaZaZ.D#L`Z.naO.h#AaBaCaC#oadaZaZaZaZaZaZaZaZaZaZaZaZaZaZaZ",
"aZaZaZaZad.I#7#l.`.d`E`E`U`0#2#KaI`BaZaZaZaZaZaZaZaZaZaZaZaZaZaZ",
"aZaZaZad#MaO`L.0.0.4.F.``a`U.6.WaC.r`BaZaZaZaZaZaZaZaZaZaZaZaZaZ",
"aZaZaZ#oaBaL`naaaa.4.4.d.x`Uat`y`y#KaIanaZaZaZaZaZaZaZaZaZaZaZaZ",
"aZaZ#P.n.`.0aa.z#j.4.8`X.x.6at`yaGaRaA#oaZaZaZaZaZaZaZaZaZaZaZaZ",
"aZaZ.Iaz`L.0#j.z#j.4`X.d.x`Uat.W`yaGai.rawaZaZaZaZaZaZaZaZaZaZaZ",
"aZ#N#g#J.8.0.Faa.0`X.d.``U.6at.E.Wa2#5`W#LaZaZaZaZaZaZaZaZaZaZaZ",
"aZ#P#7at.`.4.8.8`X.`.x.x`Uat`y.E.Eat.A#RaEaZaZaZaZaZaZaZaZaZaZaZ",
"aZ`lai.6.x.d`X.d.`.``a`U.6at.W.E.WamaD`haj`7aZaZaZaZaZaZaZaZaZaZ",
"aZ`lai`0.6`a`U.x.x`U`Uatat`y.E.Q`yamaD#R`o.DaZaZaZaZaZaZaZaZaZaZ",
"aZ`6aIaD.6`Uatat`E.x`yat`y.E.k`d`U.E#C#a.C`7aZaZaZaZaZaZaZaZaZaZ",
"aZ.D`Z`S`y.W`y.x##.`.E`y.E.k`d`yat.EaB#a.HaZaZaZaZaZaZaZaZaZaZaZ",
"aZaZ#6aS.W.Ea3.M.Y`a.k.E.Q`d.E.xag`0`WaW`6aZaZaZaZaZaZaZaZaZaZaZ",
"`7aZan.V`xa3.Ma0`ta2`A`daD.Eat`Aa2.r``aI#6`BaZaZaZaZaZaZaZaZaZaZ",
"aZaZaZ`Y#g.u.g.l#E#q.6.6`E`E`Na3aI.iaj#7as`maoaZaZaZaZaZaZaZaZaZ",
"aZaZ`7aZ.M#z.L#F`f.T.gaUaU#n#Q.2`T#L#P`l`o`v.KaFaZaZaZaZaZaZaZaZ",
"aZaZaZ#.#X#va1`2.l.e.e.e.e`G`2#D`x.Ian.H`F`u#xa4aFaZaZaZaZaZaZaZ",
"`7aZ.oaha8a1aM`2#Z`j`j`j.S.l`P#V`TaE`3`c#G#S.S.m.PapaZaZaZaZaZaZ",
"`7.oah#1.v.5#8`2`2`2`P`P`PaxaMaHal.V`b.s`e#c#S.la`#saFaZaZaZaZaZ",
"ad#p#f.J#y.5aM#8`2`2au`P`P.b#8#V`..B#X.S#r`e#c#S`Ja`aJapaZaZaZaZ",
"aZ#i.N...5a`.5aMaM`2`2auau`P.5`C`q`B.j.m.l#r#c#c#Saba`.ZadaZaZaZ",
"aZaZa5#Oa7.5a`.5`R`M.f`g.faV#ma6.taZ`O`wa`.l#S#c#c#r`J`1#7#haZaZ",
"aZaZaZa5a.a7aM`k`D#t#W.c#daN#H`C.taZaZ`OaX#4.S#r#c`e`V#oas.r`6aZ",
"aZaZ`7aZ.Ua.ac#4`##e`H`H`HaYaY`4aoaZ`7aZ`O#U#4.S#r.X#iaPaeaC`zaZ",
"aZaZaZaZaZ.G.w..`8`K.z.z.z`O.zadaZaZaZaZaZ`O.Z#4ak#B#j`o.i`5aZaZ",
"aZaZaZaZ`7aZ.G#u`#`iaZaZaZaZaZaZaZaZaZaZaZaZap#UaKav`ZaC.iaTaZaZ",
"aZaZaZaZaZaZaZ#T.1`3aZaZaZaZaZaZaZaZaZaZaZaZaZaoai`h.i`haC.#aZaZ",
"aZaZaZaZaZaZaZaZ#P#PaZaZaZaZaZaZaZaZaZaZaZaZaZaZ#L#7#6`lawaZaZaZ",
"aZaZaZaZaZaZaZaZaZaZaZaZaZaZaZaZaZaZaZaZaZaZaZaZaZadaZaZaZaZaZaZ",
"aZaZaZaZaZaZaZaZaZaZaZaZaZaZaZaZaZaZaZaZaZaZaZaZaZaZaZaZaZaZaZaZ"
};
