/* XPM */
static char *frontview_xpm[] = {
/* width height num_colors chars_per_pixel */
"    32    32      256            2",
/* colors */
"`` c #444644",
"`. c #2caa1c",
"`# c #a4a6a4",
"`a c #ac461c",
"`b c #9cea6c",
"`c c #6cd23c",
"`d c #64aa84",
"`e c #2c8a24",
"`f c #e4aa64",
"`g c #d4d6d4",
"`h c #9c7a6c",
"`i c #747674",
"`j c #9cbe9c",
"`k c #cc826c",
"`l c #7cb6d9",
"`m c #84ea50",
"`n c #649a64",
"`o c #bcbebc",
"`p c #5cb62c",
"`q c #e4eeec",
"`r c #94c2bc",
"`s c #acd6e4",
"`t c #9cc2dc",
"`u c #949292",
"`v c #74de41",
"`w c #5cbe30",
"`x c #c49e5c",
"`y c #a4cedc",
"`z c #949ea4",
"`A c #c4dae4",
"`B c #5c5e54",
"`C c #7c8284",
"`D c #cc9284",
"`E c #84bee1",
"`F c #848e8c",
"`G c #d4d2d2",
"`H c #ece6e4",
"`I c #ecfafc",
"`J c #84e24f",
"`K c #249214",
"`L c #8cf65c",
"`M c #645e5c",
"`N c #849aa4",
"`O c #b4b2b4",
"`P c #74c26c",
"`Q c #94a6ac",
"`R c #ecc26c",
"`S c #d4e6ec",
"`T c #accae4",
"`U c #6cce48",
"`V c #94bedc",
"`W c #44a61c",
"`X c #dc4a14",
"`Y c #bcd6e2",
"`Z c #9ccaf4",
"`0 c #a49e9f",
"`1 c #8c8688",
"`2 c #44a21c",
"`3 c #8cb2cc",
"`4 c #94ee64",
"`5 c #f4f2f4",
"`6 c #9ccade",
"`7 c #7ce648",
"`8 c #fc8e39",
".` c #c4cacc",
".. c #5cae5c",
".# c #a49aa2",
".a c #6cc23c",
".b c #6c6a6c",
".c c #e4e2e4",
".d c #9cbac9",
".e c #7cda44",
".f c #ec7a2c",
".g c #84f254",
".h c #ecf6f9",
".i c #7cde48",
".j c #b4d2de",
".k c #c4e2e8",
".l c #848a8e",
".m c #dc9a8c",
".n c #84969c",
".o c #349e24",
".p c #d46634",
".q c #34b224",
".r c #a4f27f",
".s c #6cda34",
".t c #f4aa4c",
".u c #8c7e8c",
".v c #84b6dc",
".w c #949a9c",
".x c #84a2ac",
".y c #84c284",
".z c #94c6df",
".A c #f45614",
".B c #aca2ac",
".C c #7cb67c",
".D c #64ae84",
".E c #7c7e7c",
".F c #a4cec4",
".G c #8cee58",
".H c #eceeec",
".I c #94c6d4",
".J c #b4d6f4",
".K c #9c929c",
".L c #64c644",
".M c #4c6a4c",
".N c #848283",
".O c #dc8e7c",
".P c #8cbedd",
".Q c #fcfafc",
".R c #84e64e",
".S c #646664",
".T c #b4babc",
".U c #fcca64",
".V c #d4eaec",
".W c #bcdaf4",
".X c #a4a2ac",
".Y c #a4cadb",
".Z c #ccd2d4",
".0 c #5cb65c",
".1 c #fcb252",
".2 c #94ba97",
".3 c #acaeac",
".4 c #7c7674",
".5 c #b4c6b4",
".6 c #8cbed4",
".7 c #b4d6e1",
".8 c #9cc6e4",
"#` c #64be3c",
"#. c #9c6a5c",
"## c #948e9c",
"#a c #547654",
"#b c #bc8644",
"#c c #4c5254",
"#d c #44963c",
"#e c #fc8634",
"#f c #349a24",
"#g c #6ca67c",
"#h c #ac7244",
"#i c #a4bec4",
"#j c #3cae14",
"#k c #54ae2c",
"#l c #64a67c",
"#m c #5cba54",
"#n c #dc8674",
"#o c #ec521c",
"#p c #5c5a5c",
"#q c #2c9624",
"#r c #549a4c",
"#s c #fcc25c",
"#t c #acb6cc",
"#u c #74ae84",
"#v c #8cbadc",
"#w c #accef4",
"#x c #dcdedc",
"#y c #c4c6c4",
"#z c #d49684",
"#A c #747274",
"#B c #a4ee7c",
"#C c #74d644",
"#D c #9c9e9c",
"#E c #f4e6f4",
"#F c #3c9e34",
"#G c #4c7254",
"#H c #b4d2f4",
"#I c #547e54",
"#J c #6cae7c",
"#K c #2c9204",
"#L c #74da42",
"#M c #8ca2a4",
"#N c #34a624",
"#O c #acaaa7",
"#P c #dcdadc",
"#Q c #c4c2c4",
"#R c #d48e7c",
"#S c #8c8e8f",
"#T c #94f660",
"#U c #6c6264",
"#V c #8c9aa4",
"#W c #bcb6ac",
"#X c #dce4e4",
"#Y c #4ca61c",
"#Z c #cccac9",
"#0 c #cce2e4",
"#1 c #acf384",
"#2 c #fcae54",
"#3 c #fc5214",
"#4 c #6ca684",
"#5 c #acd0dc",
"#6 c #c4ddf4",
"#7 c #f4fdfc",
"#8 c #84de5c",
"a` c #94c2ec",
"a. c #94b6cc",
"a# c #746e6c",
"aa c #3cb424",
"ab c #84868c",
"ac c #94c1d4",
"ad c #74ce4c",
"ae c #8c9698",
"af c #6cd24c",
"ag c #d4d2dc",
"ah c #8cf254",
"ai c #6c6664",
"aj c #bcbabc",
"ak c #dceaec",
"al c #a4cae4",
"am c #8ca2b4",
"an c #9cc2a4",
"ao c #7cbadc",
"ap c #84ee54",
"aq c #e4f2e4",
"ar c #9cc6db",
"as c #949694",
"at c #74e244",
"au c #94a2a8",
"av c #eceaec",
"aw c #646264",
"ax c #94c2dd",
"ay c #44aa24",
"az c #bcdae2",
"aA c #a4a2a2",
"aB c #8c8a8c",
"aC c #94f25c",
"aD c #6cc63f",
"aE c #e4e6e6",
"aF c #ec7e34",
"aG c #7ce249",
"aH c #84bada",
"aI c #ecf2f1",
"aJ c #4c6e50",
"aK c #848684",
"aL c #dc9284",
"aM c #8cc2e4",
"aN c #fcce66",
"aO c #fcb654",
"aP c #94be98",
"aQ c #7c7a78",
"aR c #b4dae4",
"aS c #fc8a3c",
"aT c #8c9294",
"aU c #94fa5c",
"aV c #8c9eac",
"aW c #cccecc",
"aX c #cce6ec",
"aY c #fc5617",
"aZ c #649e64",
"a0 c #b4b6b4",
"a1 c #f4f6f4",
"a2 c #dc9e8c",
"a3 c #34a224",
"a4 c #9c969c",
"a5 c None",
"a6 c #64c23c",
"a7 c #dc8a74",
"a8 c #74b284",
/* pixels */
"a5a5a5a5a5a5a5a5a5a5a5a5a5a5a5a5a5a5a5a5aqa5a5a5a5a5a5a5a5a5a5a5",
"a5a5a5a5a5a5a5`5#Z`O`0`0#O#Zava5a5a5a5a5.0aP.Qa5a5a5a5a5a5a5a5a5",
"a5a5a5a5a5a1#Z##ae`zau#Mae`C.N.3ava5a5.Q#m`..2.Qa5a5a5a5a5a5a5a5",
"a5a5a5a5`5#O#S#i.j.7`s`s.Y`T#t##.B#Ea5a5`P.gaa.2.Qa5a5a5a5a5a5a5",
"a5a5a5`5aA`z`A.V`S#0`A#5.j.F.D#JaZaZ.C.y#F`4aU.q.2.Qa5a5a5a5a5a5",
"a5a5a5`O#VaX.Vakak#0#0.j`A#l#j`U`U`cafaf#8.raCaU.q`j.Qa5a5a5a5a5",
"a5a5#PaT.j`SakaI`q#0az.j#6#lad#1`b#B#B#1#1.rapaC`L.q`j.Qa5a5a5a5",
"a5a5.B`Q.k`SaEaIaq#0`Y.j.W#g.L`J`c`vataG`7`7ap.G`Lah#Nana5a5a5a5",
"a5`H.w.daz`S.kak`S`Y.7#5`A#la6`J#L.iaGaG`7`m`m`m.G.G#`#q#ya5a5a5",
"a5#P#Sar.j#0az`Y`Y.j.j.YaR#4`w#L#C`v`vaGaG.R`7`m.RaDa3#a`O.Qa5a5",
"a5`G.l`6#5.j`Y.7.7#5`yar.J#g`w.e#C#L.e.i.i.i`7.R.a.oaJ.#.Ha5a5a5",
"a5`G.l`t`6`y.Y#5#5.Y.Y`t#H#l#K`W`2`W`W`W#k#LaG.a.oaJ.#aIa5a5a5a5",
"a5.caB`3`6.Yarararararac`6`r#l`d#J`d#J`n`e`c.a#q#G.#.Ha5a5a5a5a5",
"a5a1`u`N.z`V.Iarac`tac.6.6axax#w#H`Z.X.u#r`p#faJa4.Ha5a5a5a5a5a5",
"a5a5aj`C`V.6`V.6`V.6.6.P#v`l.v`6`l.d`B#A#d`K.M.K.Ha5a5a5a5a5a5a5",
".Qa5.H`1.n.PaH#vaHaHaH.v.v.6al.v.z.N``.#..#I`u.Ha5a5a5a5a5a5a5a5",
"a5a5a5#Z#AaV`EaHaHaH#v.6axax`l.8.l.b#D#D.5ab#ya5a5a5a5a5a5a5a5a5",
"a5a5a5a5a0a#.l`3.P`E.P`EaM`E.d.4#p`G#P.Z.#`a`D#7a5a5a5a5a5a5a5a5",
"a5a5a5a5.Q#y`ia#`C`N#Mam#V.N`M#c`i#O.H`o#b.f#oa2#7a5a5a5a5a5a5a5",
"a5a5a5a5a5a5.c#DaQa#aiaw#UawaQ#O`u.3a0`x#s#2aS.A.m`Ia5a5a5a5a5a5",
"a5a5a5a5a5a5a5.QaE#y`O.3a0aWaE`5`uaK#h.taN.U#2#eaY#z#7a5a5a5a5a5",
"a5a5a5a5a5a5a5a5a5a5a5a5a5a5a5a5.`#.`X#e.1aN.U#2`8aYaL.ha5a5a5a5",
"a5a5a5a5a5a5a5a5a5a5a5a5a5a5a5a5.Q`g`k.AaS.1.U.U#2`8aY.Oa1a5a5a5",
"a5a5a5a5a5a5a5a5a5a5a5a5a5a5a5a5a5a5.h#n#3aS#2.U.U.1`8.p#SaWa5a5",
"a5a5a5a5a5a5a5a5a5a5a5a5a5a5a5a5a5a5a5.ha7#3aS#2.UaN`f`O`u.N.ca5",
"a5a5a5a5a5a5a5a5a5a5a5a5a5a5a5a5a5a5a5a5.h#R#3#e.1`R.caWaQ.Nava5",
"a5a5a5a5a5a5a5a5a5a5a5a5a5a5a5a5a5a5a5a5a5.h.O#3aF#WaE#D.b#Da5a5",
"a5a5a5a5a5a5a5a5a5a5a5a5a5a5a5a5a5a5a5a5a5a5`I#R`h.T`u.N.b`#a5a5",
"a5a5a5a5a5a5a5a5a5a5a5a5a5a5a5a5a5a5a5a5a5a5a5#X.l#Aai`i.N`ga5a5",
"a5a5a5a5a5a5a5a5a5a5a5a5a5a5a5a5a5a5a5a5a5a5a5a5#Z#Saj`GaEa5a5a5",
"a5a5a5a5a5a5a5a5a5a5a5a5a5a5a5a5a5a5a5a5a5a5a5a5.Qa1a5a5a5a5a5a5",
"a5a5a5a5a5a5a5a5a5a5a5a5a5a5a5a5a5a5a5a5a5a5a5a5a5a5a5a5a5a5a5a5"
};
