/* XPM */
static char *fullview_xpm[] = {
/* width height num_colors chars_per_pixel */
"    32    32      256            2",
/* colors */
"`` c #04329c",
"`. c #049e04",
"`# c #849a84",
"`a c #84e654",
"`b c #5c665c",
"`c c #3cc624",
"`d c #c4cec4",
"`e c #549a54",
"`f c #146614",
"`g c #ccead4",
"`h c #24b216",
"`i c #84b684",
"`j c #549254",
"`k c #4466b4",
"`l c #14880c",
"`m c #249c1c",
"`n c #dcd6cc",
"`o c #64d63c",
"`p c #acb6ac",
"`q c #ecebe7",
"`r c #3c5e44",
"`s c #7c868c",
"`t c #44b531",
"`u c #84f057",
"`v c #c4c4c1",
"`w c #ecf8f0",
"`x c #5c729b",
"`y c #346634",
"`z c #a4a2a8",
"`A c #24a717",
"`B c #34be24",
"`C c #2c8a20",
"`D c #5cb658",
"`E c #dce2e4",
"`F c #64e042",
"`G c #747274",
"`H c #c4e2c4",
"`I c #b4c4b4",
"`J c #24428c",
"`K c #54ce3c",
"`L c #948e94",
"`M c #9cfe67",
"`N c #14a80c",
"`O c #74ea4f",
"`P c #34b527",
"`Q c #849ecc",
"`R c #547854",
"`S c #6484c1",
"`T c #2c4e84",
"`U c #44c02e",
"`V c #8cfa64",
"`W c #fcf7f3",
"`X c #143e8c",
"`Y c #0c7a09",
"`Z c #7c92c0",
"`0 c #34a634",
"`1 c #c4dac4",
"`2 c #0c9608",
"`3 c #bcb8b1",
"`4 c #fcf2f4",
"`5 c #347634",
"`6 c #ece3ea",
"`7 c #149d0c",
"`8 c #24ba1c",
".` c #9cb69c",
".. c #349c28",
".# c #ecf2ec",
".a c #44b244",
".b c #74e54c",
".c c #445a84",
".d c #94aa9c",
".e c #acceac",
".f c #749a74",
".g c #dcece0",
".h c #8c968c",
".i c #84f658",
".j c #a4aabc",
".k c #24ae18",
".l c #2c8e24",
".m c #54d634",
".n c #748fcc",
".o c #4ccf31",
".p c #d4d2cd",
".q c #2cb51a",
".r c #24a224",
".s c #dcdedc",
".t c #cccad0",
".u c #dce2ec",
".v c #6ce64c",
".w c #345eac",
".x c None",
".y c #bcbeb8",
".z c #acdaac",
".A c #143984",
".B c #5c6a84",
".C c #f4edf4",
".D c #8c828c",
".E c #44ba38",
".F c #4c6a54",
".G c #3c8438",
".H c #5cbe5c",
".I c #6ce147",
".J c #d4e4d8",
".K c #bcc6d9",
".L c #6c766c",
".M c #7486b4",
".N c #247e20",
".O c #14a210",
".P c #bce0c0",
".Q c #94a294",
".R c #4cc934",
".S c #2c6c2c",
".T c #248e1c",
".U c #e4dad4",
".V c #ccc6cc",
".W c #f4f6f7",
".X c #5c7db9",
".Y c #a4a6ac",
".Z c #3cc028",
".0 c #6cb66c",
".1 c #e4e2d8",
".2 c #54d235",
".3 c #14ae0c",
".4 c #7ceb53",
".5 c #6c8acc",
".6 c #fcf9fc",
".7 c #1440a0",
".8 c #1c9214",
"#` c #bcb8bc",
"#. c #7cc67c",
"## c #44ae34",
"#a c #344e7c",
"#b c #64a664",
"#c c #84ca84",
"#d c #94aad4",
"#e c #5cae64",
"#f c #4c5e7c",
"#g c #6c8a6c",
"#h c #b4aa9c",
"#i c #447a44",
"#j c #7cae7c",
"#k c #2446a4",
"#l c #747e8c",
"#m c #2c52ac",
"#n c #344a7c",
"#o c #54b254",
"#p c #9cb29c",
"#q c #bcb2bc",
"#r c #9cc09c",
"#s c #d4d6db",
"#t c #6c7285",
"#u c #4c72bc",
"#v c #347234",
"#w c #649664",
"#x c #94a6cc",
"#y c #94ba94",
"#z c #94c694",
"#A c #dcf2dc",
"#B c #84a684",
"#C c #0c3a9c",
"#D c #34ae24",
"#E c #8cb28c",
"#F c #b4e2b4",
"#G c #448a44",
"#H c #847e84",
"#I c #ccd2dc",
"#J c #64b468",
"#K c #e4eaf4",
"#L c #acbeac",
"#M c #c4e6c4",
"#N c #949694",
"#O c #34ba24",
"#P c #4cba4c",
"#Q c #647e64",
"#R c #64ae64",
"#S c #2cae2c",
"#T c #d4d2e0",
"#U c #0c368c",
"#V c #1c8818",
"#W c #2c9e1c",
"#X c #1ca61c",
"#Y c #6c86b4",
"#Z c #147e14",
"#0 c #1c9d17",
"#1 c #a4baac",
"#2 c #b4deb8",
"#3 c #9c9ea3",
"#4 c #a4c2ac",
"#5 c #4c724c",
"#6 c #2c7230",
"#7 c #347e34",
"#8 c #8c96a4",
"a` c #2c9624",
"a. c #8c8a8c",
"a# c #8cf65f",
"aa c #2c7e2c",
"ab c #0c9c0c",
"ac c #646864",
"ad c #44c72c",
"ae c #d4ead4",
"af c #5c8e5c",
"ag c #84858b",
"ah c #8cf25c",
"ai c #ac9eac",
"aj c #2caa1c",
"ak c #7c767c",
"al c #cce1cc",
"am c #bcc2bc",
"an c #2c4684",
"ao c #3cb22c",
"ap c #5c785c",
"aq c #94fd63",
"ar c #1c4290",
"as c #8496c4",
"at c #3caa2c",
"au c #e4eae4",
"av c #5cd73c",
"aw c #e4e6f4",
"ax c #3c62b3",
"ay c #24961c",
"az c #4c7e4c",
"aA c #344ea4",
"aB c #3c6e3c",
"aC c #dcdadc",
"aD c #eceef4",
"aE c #c4c2cc",
"aF c #5cca3c",
"aG c #9c9294",
"aH c #4c5e84",
"aI c #bccae4",
"aJ c #5c7ec4",
"aK c #e4e4e4",
"aL c #9caed4",
"aM c #b4b6b4",
"aN c #3c663c",
"aO c #a4fe6c",
"aP c #149604",
"aQ c #f4f2ed",
"aR c #2cae1c",
"aS c #2ca220",
"aT c #e4dee4",
"aU c #4cba34",
"aV c #5cd23c",
"aW c #1cae14",
"aX c #9c969c",
"aY c #6cae6c",
"aZ c #2c8a2c",
"a0 c #344e84",
"a1 c #2cba1c",
"a2 c #aca6ac",
"a3 c #0c369c",
"a4 c #2c9e2c",
"a5 c #cceecc",
"a6 c #24b617",
"a7 c #dcdad2",
"a8 c #64da44",
/* pixels */
".x.x.x.x.x.x.x.x.x.x.x.x.x.x.x.x.x.x.x.x.x.x.x.x.x.x.x.x.x.x.x.x",
".xaLaA#m#s#d#k#m#s#d#k#m#s#d#k#m#s#d#k#m#s#d#k#m#s#d#kaxaxas.6.x",
".x`QaraH#3.K`xaH#3.K`xaH#3.K`x#faX.K`xaH#3.K`xaH#3.K`x.Bar`T.U.x",
".x.n`J#haK.x`q.U.1.x`q`naK.x`4aT`q.x`qa7.1.x`q.U.1.x`6.U.X#n.p.x",
".x.5.A`3.x.x.x.x.x.x.x.x.x.g.P#2al.#.x.x.x.x.x.x.x.x.x.x`W`v`6.x",
".xaD`z`d.x.6.x.x.x.x.x.z.a#X`7`7`2#b.1#M.6.x.x.x.x.x.x.x.X`Z.x.x",
".xaI#x`W.x.x.x.x.x.W.H`Na6.qa6aWab#Q`iaW`D`1.x.x.x.x.6.xaxan.U.x",
".x.5`X.p.x.x.x.x.x#Pa6.Rad#O`Pa1`lag`D.b`O`P#Jal.x.x.x.x`S#n.p.x",
".x.n.A`3.xa5#2.x#.a6a8.Radad`c`8aa`L.EaqaO`Mav`P.0`E.x.x`W`vaK.x",
".xaD`z`v.x#F`7#R#D`Fav.2.2aR#V`Yap#B.Raq`u.ia#.b`7aZ`d.x`S`Z.6.x",
".xaI#x.W.x`H`U#OaV.ba8`FajaB`G#N#q#J`Faq`u.4.4#0#5.D`v.xax`J.U.x",
".x.5`X.p.x`H.Eaq.4.b.4.R.S.D.s.6.W#P.oav.4.b.b.2.G`v.x.x`S#a.p.x",
".x.n.A`3.xal`taq`u`u`Oa`ac.p.x.xae`7#7.N.2.Ia8.I`m.d.6.x`W`vaK.x",
".xaD`z`v.xae`t`Ma#a#a#atafaK.x.x#A#pai`p#Wavavav#OazaT.x.X`Z.x.x",
".xaI#x.W.xau##aOaOaq.I`t`Y#w`6.x.x.C.#.xaY#Oav`K.Z#6.V.xaxan.U.x",
".x.5`X.p.xaD`maF...N#i.F.L.h#s.x.x.x.x.x#z`A.2ad`B`5#`.x`S#n.p.x",
".x.n.A`3.x.6#j`R#H`L.Q`vaKaQ.6`w`H.x.x.xaYaRad.Z.q.S`3.x`W`vaK.x",
".xaD`z`v.x.x.J`i#o#DaW#r.6.x.x#Aay#y.x`H`l`c#O`B#XaNaE.x.X`Z.x.x",
".xaI#x.6.x.x#S`.`N`ha6`m#L.6.xal#SaS.`.6`eaP`Ba6#Z.L`n.xaxan.U.x",
".x.5`X.p.x.x#c`..k.q.Z`B`A`0.a...R`uay#1`q#G`2`7`yaXaQ.x`S#n.p.x",
".x.n.A`3.x.xau`m.3#O#Oad.2.2av.I.4aq`u.T`p`6.G`f`G.p.x.x`W`vaK.x",
".xaD#3.t.x.x.x.eab.qad`U.oav`F.b.4`u`Mah.l`I`E.h#`.6.x.xaJ`Z.x.x",
".xaI#x`W.x.x.x.6#r.8aWad.ma8.I.4.4a#aO`a.l`RaK.W.W.x.x.xaxan.U.x",
".x.5`X.p.x.x.x.x.6am`j#VaSaoaoaU.ia#aU.S`b`z`6.x.x.x.x.x`S#n.p.x",
".x.n.A`3.x.x.x.x.x.x`6aM`##g`R..`o`C`r#H`vaQ.x.x.x.x.x.x`W`vaK.x",
".xaD`z`v.x.x.x.x.6.x.x.x.C`6`I`Y#vaca2.1.x.x.x.x.x.x.x.x.X`Z.x.x",
".xaI#x.6.x.x.x.x.x.x.x.x.x.xae.faG.t.6.x.x.x.x.x.x.x.x.x`kan.U.x",
".x.5`X.t#K.W.x#Kaw.W.x#Kaw.W.6#T#I.W.x#Kaw.W.x#K#K.W.6#K#u#a.p.x",
".x.n#U.7``#Y#Ta3``.M#Ta3``.M#I#C``.M#I#C``.M#sa3``.M#Ia3.7.c`n.x",
".xaw#8#l#tag#s.j#tag#s.j#tag#s.j#tagaC.j#t`saC.j#tagaC.j#t`saK.x",
".x.x`WaQaQ.C.x.xaQaD.x.xaQ.#.x.xaQ.#.6.x.CaQ.6.xaDaQ.6.x.CaD.6.x",
".x.x.x.x.x.x.x.x.x.x.x.x.x.x.x.x.x.x.x.x.x.x.x.x.x.x.x.x.x.x.x.x"
};
