/* XPM */
static char *importgis_xpm[] = {
/* width height num_colors chars_per_pixel */
"    32    32      256            2",
/* colors */
"`` c #041284",
"`. c #1c8afc",
"`# c #94aad4",
"`a c #044eac",
"`b c #3c62ac",
"`c c #a4d6fc",
"`d c #5c92dc",
"`e c #046eec",
"`f c #5caefc",
"`g c #dce2f4",
"`h c #244ea4",
"`i c #043294",
"`j c #94c6fc",
"`k c #045ec4",
"`l c #2c6ecc",
"`m c #d4f2fc",
"`n c #3c8adc",
"`o c #5ca2ec",
"`p c #0442a4",
"`q c #7cb6f4",
"`r c #3c7ad4",
"`s c #047efc",
"`t c #bcdaf4",
"`u c #b4c2dc",
"`v c #1466cc",
"`w c #ecf2f4",
"`x c #3c9efc",
"`y c #0466e4",
"`z c #146edc",
"`A c #bce6fc",
"`B c #04228c",
"`C c #84a2cc",
"`D c #1c429c",
"`E c #547abc",
"`F c #7c92c4",
"`G c #0466d4",
"`H c #84c2fc",
"`I c #045ac4",
"`J c #6caef4",
"`K c #245eb4",
"`L c #043ea4",
"`M c #5ca6ec",
"`N c #acbadc",
"`O c #9ccefc",
"`P c #3c96fc",
"`Q c #14429c",
"`R c #3c6ebc",
"`S c #0476fc",
"`T c #e4e6f4",
"`U c #045ed4",
"`V c #b4ceec",
"`W c #ecfafc",
"`X c #6cb6fc",
"`Y c #3496fc",
"`Z c #0456bc",
"`0 c #e4fafc",
"`1 c #bcdef4",
"`2 c #042a94",
"`3 c #9cbadc",
"`4 c #247ee4",
"`5 c #7cbaf4",
"`6 c #147ef4",
"`7 c #4ca2fc",
"`8 c #cce6fa",
".` c #5c82c0",
".. c #345aac",
".# c #6caaec",
".a c #2c8efc",
".b c #b4d6fc",
".c c #649adc",
".d c #a4c2e4",
".e c #e4f2fc",
".f c #044aac",
".g c #3c86dc",
".h c #1c76d8",
".i c #8496cc",
".j c #143a9c",
".k c #64a6ec",
".l c #fcfafc",
".m c #c4def4",
".n c #041a89",
".o c #144eb4",
".p c #046efc",
".q c #d4eafc",
".r c #0c329c",
".s c #0c5ec8",
".t c #4c92e4",
".u c #8ccafc",
".v c #74aef0",
".w c #4c96e4",
".x c #4c6eb4",
".y c #c4cee4",
".z c #3482dc",
".A c #1486fc",
".B c #54aafc",
".C c #6482c0",
".D c #94b2dc",
".E c #0452bc",
".F c #3c6abc",
".G c #6c8ac4",
".H c #2c56ac",
".I c #9ccafc",
".J c #dcf2fc",
".K c #6c9edc",
".L c #0c42a4",
".M c #4c76bc",
".N c #bccae4",
".O c #046af4",
".P c #042693",
".Q c #749acc",
".R c #8cc2fc",
".S c #2c5eb0",
".T c #0c3a9c",
".U c #5ca6fc",
".V c #a4cefc",
".W c #144aac",
".X c #0c76f4",
".Y c #e4eef4",
".Z c #0462d6",
".0 c #f4fafc",
".1 c #74b6f8",
".2 c #042e95",
".3 c #2c86e4",
".4 c #84bef7",
".5 c #54a2f4",
".6 c #cceefc",
".7 c #248afc",
".8 c #0452b2",
"#` c #acd6fc",
"#. c #8cb2e4",
"## c #7caae4",
"#a c #2c7ad4",
"#b c #ccd6ec",
"#c c #647ebc",
"#d c #1456bc",
"#e c #4c86d4",
"#f c #4492e4",
"#g c #244aa4",
"#h c #9cbee4",
"#i c #1476ec",
"#j c #4c7ecc",
"#k c #84b2e4",
"#l c #1c72d4",
"#m c #4496ec",
"#n c #2c7ed4",
"#o c #548ed4",
"#p c #3462b4",
"#q c #6c92cc",
"#r c #b4defc",
"#s c #447ac4",
"#t c #648ed4",
"#u c #2c52a8",
"#v c #649ee4",
"#w c #bcc6e4",
"#x c #549aec",
"#y c #5472bc",
"#z c #9caed4",
"#A c #64b2fc",
"#B c #c4e6fc",
"#C c #b4bedc",
"#D c #a4b6dc",
"#E c #3492fc",
"#F c #dceefc",
"#G c #2c62bc",
"#H c #1c66c4",
"#I c #bccee4",
"#J c #9cb2d4",
"#K c #446ab4",
"#L c #448adc",
"#M c #0c7efc",
"#N c #449efc",
"#O c #045ad4",
"#P c #6c9adc",
"#Q c #0c4aac",
"#R c #1c86fc",
"#S c #7c9acc",
"#T c #eceef4",
"#U c #04168c",
"#V c #3c66b4",
"#W c #0472f4",
"#X c #04369c",
"#Y c #94cafb",
"#Z c #0462cc",
"#0 c #0446ac",
"#1 c #b4c6e4",
"#2 c #ecf6fc",
"#3 c #046ae5",
"#4 c #1472e4",
"#5 c #1c46a4",
"#6 c #7c96cc",
"#7 c #046adc",
"#8 c #6cb2fc",
"a` c #1446a4",
"a. c #bce2fc",
"a# c #1482fc",
"aa c #cceafc",
"ab c #64aaf4",
"ac c #c4e2fa",
"ad c #041e8c",
"ae c #74b2f4",
"af c #c4d2e8",
"ag c #6486c4",
"ah c #8cc6fb",
"ai c #0c3e9e",
"aj c #0c7afc",
"ak c #74bafc",
"al c #54a6fc",
"am c #2c82dc",
"an c #64a2ec",
"ao c #dce6f4",
"ap c #d4f6fc",
"aq c #acbedc",
"ar c #9cd2fc",
"as c #3c9afc",
"at c #047afc",
"au c #e4eaf4",
"av c #ecfefc",
"aw c #349afc",
"ax c #045abc",
"ay c #e4fefc",
"az c #4ca6fc",
"aA c #345eac",
"aB c #2c92fc",
"aC c #b4dafc",
"aD c #a4c6e4",
"aE c #e4f6fc",
"aF c #849acc",
"aG c #143e9c",
"aH c None",
"aI c #0472fc",
"aJ c #d4eefc",
"aK c #0c369c",
"aL c #4c72b4",
"aM c #dcf6fc",
"aN c #5caafc",
"aO c #a4d2fc",
"aP c #f4fefc",
"aQ c #248efc",
"aR c #acdafc",
"aS c #c4eafc",
"aT c #046ef4",
"aU c #04329c",
"aV c #045ecc",
"aW c #0442ac",
"aX c #ecf2fc",
"aY c #042294",
"aZ c #0466dc",
"a0 c #045acc",
"a1 c #5ca6f4",
"a2 c #1442a4",
"a3 c #3c6ec4",
"a4 c #045edc",
"a5 c #bcdefc",
"a6 c #042a9c",
"a7 c #7cbafc",
"a8 c #147efc",
/* pixels */
"aHaHaHaHaHaHaHaHaH.l#w`F`ba2.2.2.2.2#X.H#c#DauaHaHaHaHaHaHaHaHaH",
"aHaHaHaHaHaHaHaH`N.H.Pa6#Q`l#P#k#x.c`r#dai.Pai.iaXaH.laHaHaHaHaH",
"aHaHaHaHaHaH`g#Kada`#o.1aJ`maH`W`8.J.qaE.e`3#V`B#5#CaHaHaHaHaHaH",
"aHaHaH.laH#1.j.2#qaJ`W`W.e.e`8.q.YaEaE`W`0aP`0.d`haY#6aHaHaHaHaH",
"aHaHaHaH`u.2#g`VaHaP.0aH.0#2.q#BaM.J.J.JaM.J.JayaJ.M`B.GaHaHaHaH",
"aHaHaH.y.2.H`8aP.0aP.0.e#``Xak#BaEaMaMaMaM.JaM.JaM`0agad#6aHaHaH",
".laH#T#5a2.maP.0`W.YaCalasaBaQahaE.J.JaM.JaEaM.J.JaM`0.MaYaqaHaH",
".laH.C.PaDaH#2#Facah#N`Yas`YaB.u`0`0aEaM`W`maJaEaM.JaEaJ`h#5#TaH",
"aH#b.P.`aP#FaC#`.I`7asasawaQ#N.Ja.#A#r.J#rahaJaM.JaM.J`0#haY#SaH",
"aH`EaU.baE.b`O.V.Bawas`YaQ`7aC`0aaaC#Bak.RaJaM.JaM.J`maJ`m#paGau",
"#b.T.M`mac.I`Oakasas`Y`Y.1aJ`0.JaE`WaEaM`0aM.JaM.J#FaJaaap#..P#D",
"aF.2#haRaO#Y`j`7asasaQ.1`0aM.JaMaMaM.JaM.JaM.J.J`maJaa#B#Ba..T#c",
"aAa`a5`O.4`H.1as`Y`YaQ#8aE.J.J.J.JaMaM.JaM.J.JaJ#BaaaaaSa5aS.F.H",
".2`K`8.Ja5#YaNaBas#EaBaQ.u`0aE`0aEaM.JaM.J.JaJ.6#`a.aO`Oaa`A`daK",
"#U.M`0`W`WaE#raNaBaBaB.7`.`Haa#ra.aM.e.JaJaJaaaaa.#B`jae.#`J##`2",
"``#qaP.JaEaEav#r`Y.7aQ.7#R#R.aa#`YaE`maJaJaaaSacaS#Y`q.w.h`o`d.2",
"#UagavaEaEaE.JaEaaal#R.7#R.A#M#Ma#aC.JaaaaaSac#B.V#4#7.kaO`q#H`i",
"ad.M`0aMaEaMaM.J`0.1a#`.a#a#a##M`S`HaM#B#B#Ba.#B.3#Oam.t.g.h#0`i",
".T#paJaEaMaE.JaE`X.A`.#Ra##M#M#M.p`X.Jaca.a.#r.vaZ`U`o#f#a`Z#0a`",
"aLai.m`0.J.Jav.J#E#R#Ra#a##Majat.palaJa.a.#`#Yam`UaV`o`c`j.1.L#V",
"#z`2.Dav.JaM#Y`f`.#Ra#a##Majat`SaIa8`ca.#raCa1.Z.Z`Z.t`O#Y.4.2`F",
"`T`h.S`0aE#Ya#a##R#Ra##M#Matat`S`S.Oab#B`O#maZa0#4.z`n#Yar#e`2.N",
"aHaFaY.dap#E`..7a#a#a8#Matat`SaIaT`e.X#m`4`U.ZaV.w#n.s`n.kai.H.l",
"aHau.T`baa#E#R#Ra#a##Matat`SaI#WaT`e#3a4.ZaZ#ZaV#n`k.8.8.f.P#DaH",
".laH#zad#S.u#M#Ra##Majat`SaI#WaT`e#3#7aZaZ#ZaV`I`Z`Zax`a.PaL.laH",
"aHaHaH#y.2#vaQ#Ma8`sat`S`SaI#W`e#3`yaZaZ.ZaVaV`Iax`Z.8`ia2`gaH.l",
"aHaHaHau.H.P`z#M#Majat`SaI#W`e`e#3aZaZ.ZaV`k`Iax`Z.8#XaK`uaHaHaH",
"aHaH.laHau...P.s#M`s`S.O#WaT`e#3aZaZ.Z#ZaV`I`Iax.8.2#XaqaHaHaHaH",
"aHaHaHaHaHauaL.PaW`yat`Y.X#3`y.Za4`UaVaV`k`I`Z`p.P#g.NaHaHaHaHaH",
"aHaHaHaHaHaHaH`#aGaY#Q.K.va7ak.5aka1#f`v.8`L.P`i.C`waHaHaHaHaHaH",
"aHaHaHaHaHaHaHaHau#S#u`2.L.S`R#j#j`R#G.W.2a2.`.yaHaHaHaHaHaHaHaH",
"aHaHaHaHaHaHaHaHaHaHao#z.x.jad#U#Uad.2..aFafaHaH.laHaHaHaHaHaHaH"
};
