/* XPM */
static char *panview_xpm[] = {
/* width height num_colors chars_per_pixel */
"    32    32      256            2",
/* colors */
"`` c #343634",
"`. c #8c8264",
"`# c #b4c6c4",
"`a c #f4e2ac",
"`b c #b40604",
"`c c #3c4a4c",
"`d c #e4e2e4",
"`e c #6c624c",
"`f c #9ca2ac",
"`g c #dcc28c",
"`h c #747264",
"`i c #fcf2b4",
"`j c #b49e74",
"`k c #dcf2f4",
"`l c #640e0c",
"`m c #8c9294",
"`n c #fce6bc",
"`o c #6c6a5c",
"`p c #c4d2d4",
"`q c #c4ae84",
"`r c #dcdedc",
"`s c #948264",
"`t c #e4d2b4",
"`u c #dc0204",
"`v c #5c5a54",
"`w c #84765c",
"`x c #7c1214",
"`y c #7c6e54",
"`z c #fceaac",
"`A c #fcf2d4",
"`B c #6c6a64",
"`C c #d4c294",
"`D c #f4ead4",
"`E c #c4baac",
"`F c #7c7a7c",
"`G c #ccb684",
"`H c #f4f2f4",
"`I c #4c3634",
"`J c #848284",
"`K c #dceeec",
"`L c #641e1c",
"`M c #f4d69c",
"`N c #fce2a4",
"`O c #4c5254",
"`P c #b4b6bc",
"`Q c #7c7264",
"`R c #fcfecc",
"`S c #fceebc",
"`T c #c4dadc",
"`U c #9c8a6c",
"`V c #f40204",
"`W c #cccad4",
"`X c #f4deb4",
"`Y c #cc0204",
"`Z c #6c6664",
"`0 c #e4ca94",
"`1 c #fcf6c4",
"`2 c #9c9a9c",
"`3 c #746a54",
"`4 c #646664",
"`5 c #746a64",
"`6 c #fcfafc",
"`7 c #fce2b4",
"`8 c #444244",
".` c #ece2d4",
".. c #746654",
".# c #acaeac",
".a c #fcf6b4",
".b c #741214",
".c c #ccb284",
".d c #948664",
".e c #ec0204",
".f c #645a4c",
".g c #8c0e0c",
".h c #fceeac",
".i c #d4b68c",
".j c #8c8a8c",
".k c #545244",
".l c #7c7274",
".m c #d4cecc",
".n c #746e54",
".o c #8c8274",
".p c #c4cacc",
".q c #6c6654",
".r c #a4a2a4",
".s c #dcc694",
".t c #6c0e0c",
".u c #9c969c",
".v c #fceacc",
".w c #d4d2d4",
".x c #e40204",
".y c #8c7e64",
".z c #7c1614",
".A c #fcfad4",
".B c #6c6e64",
".C c #5c3634",
".D c #eceaec",
".E c #741a1c",
".F c #fcdaa4",
".G c #fce6ac",
".H c #7c766c",
".I c #fceecc",
".J c #ccdadc",
".K c #cccecc",
".L c #fcdea4",
".M c #d40204",
".N c #fcfef4",
".O c #443234",
".P c #8c826c",
".Q c #bccacc",
".R c #bc0604",
".S c #444e4c",
".T c #e4e6e4",
".U c #6c6254",
".V c #dcc294",
".W c #74726c",
".X c #fcf2bc",
".Y c #dcf6f4",
".Z c #949294",
".0 c #fceabc",
".1 c #ccd2d4",
".2 c #c4b284",
".3 c #dcdee4",
".4 c #94826c",
".5 c #dc0604",
".6 c #5c5e5c",
".7 c #8c7a5c",
".8 c #840e0c",
"#` c #fceab4",
"#. c #948e84",
"## c #acbebc",
"#a c #fceedc",
"#b c #8c868c",
"#c c #6c1a1c",
"#d c #e4cea4",
"#e c #543634",
"#f c #fc0204",
"#g c #545254",
"#h c #fcfae4",
"#i c #f4daa4",
"#j c #8c8e94",
"#k c #6c1214",
"#l c #d4c694",
"#m c #7c7e7c",
"#n c #f4f6f4",
"#o c #4c5654",
"#p c #9c9e9c",
"#q c #746e64",
"#r c #fce6b4",
"#s c #444644",
"#t c #ece6d4",
"#u c #d4ba8c",
"#v c #a4a6a4",
"#w c #eceeec",
"#x c #ccdedc",
"#y c #d40604",
"#z c #6c6a6c",
"#A c #ccb68c",
"#B c #fce2ac",
"#C c #7c726c",
"#D c #fceec4",
"#E c #746a5c",
"#F c #fcf6bc",
"#G c #ccb28c",
"#H c #94866c",
"#I c #645a54",
"#J c #fceeb4",
"#K c #746e5c",
"#L c #ccced4",
"#M c #fcdeac",
"#N c None",
"#O c #000000",
"#P c #000000",
"#Q c #000000",
"#R c #000000",
"#S c #000000",
"#T c #000000",
"#U c #000000",
"#V c #000000",
"#W c #000000",
"#X c #000000",
"#Y c #000000",
"#Z c #000000",
"#0 c #000000",
"#1 c #000000",
"#2 c #000000",
"#3 c #000000",
"#4 c #000000",
"#5 c #000000",
"#6 c #000000",
"#7 c #000000",
"#8 c #000000",
"a` c #000000",
"a. c #000000",
"a# c #000000",
"aa c #000000",
"ab c #000000",
"ac c #000000",
"ad c #000000",
"ae c #000000",
"af c #000000",
"ag c #000000",
"ah c #000000",
"ai c #000000",
"aj c #000000",
"ak c #000000",
"al c #000000",
"am c #000000",
"an c #000000",
"ao c #000000",
"ap c #000000",
"aq c #000000",
"ar c #000000",
"as c #000000",
"at c #000000",
"au c #000000",
"av c #000000",
"aw c #000000",
"ax c #000000",
"ay c #000000",
"az c #000000",
"aA c #000000",
"aB c #000000",
"aC c #000000",
"aD c #000000",
"aE c #000000",
"aF c #000000",
"aG c #000000",
"aH c #000000",
"aI c #000000",
"aJ c #000000",
"aK c #000000",
"aL c #000000",
"aM c #000000",
"aN c #000000",
"aO c #000000",
"aP c #000000",
"aQ c #000000",
"aR c #000000",
"aS c #000000",
"aT c #000000",
"aU c #000000",
"aV c #000000",
"aW c #000000",
"aX c #000000",
"aY c #000000",
"aZ c #000000",
"a0 c #000000",
"a1 c #000000",
"a2 c #000000",
"a3 c #000000",
"a4 c #000000",
"a5 c #000000",
"a6 c #000000",
"a7 c #000000",
"a8 c #000000",
/* pixels */
"#N#N#N#N#N#N#N#N#N#N#N#N#N#N#N#N#N#N#N#N#N#N#N#N#N#N#N#N#N#N#N#N",
"#N#N#N#N#N#N#N#N#N#N#N#N#N#N#N#N#N#N#N#N#N#N#N#N#N#N#N#N#N#N#N#N",
"#N#N#N#N#N#N#N#N#N#N#N#N#N#N#N#N#N#N#N#N#N#N#N#N#N#N#N#N#N#N#N#N",
"#N#N#N#N#N#N#N#N#N#N#p`Z#q#m`H#N#N#N#N#N#N#N#N#N#N#N#N#N#N#N#N#N",
"#N#N#N#N#N#N#N#N#N#N`B.V.G`y.3#N#N#N#N#N#N#N#N#N#N#N#N#N#N#N#N#N",
"#N#N#N#N#N#N#N#N#N#N.H.L`i`U`f`W.3#N#N#N#N#N#N#N#N#N#N#N#N#N#N#N",
"#N#N#N#N#N#N#N#N#N#N.W.F`i.4.U`.`3`P#N#N#N#N#N#N#N#N#N#N#N#N#N#N",
"#N#N#N#N#N#N#N#N#N#N`Q.F`i`.`C`R#u#s`h#q.##N#N#N#N#N#N#N#N#N#N#N",
"#N#N#N#N#N#N#N#N#N#N.W.F`i`s`q`i#G`.#F.V`5`6#N#N#N#N#N#N#N#N#N#N",
"#N#N#N#N#N#N#N#N#N#N`h.F`i`s.2#F.c.P`i#B#I`B`5.j`H#N#N#N#N#N#N#N",
"#N#N#N#N#N#N#N#N#N#N#C.F`i.4#A.a#G`.#J.L`3#B`a.n.w#N#N#N#N#N#N#N",
"#N#N#N#N#N#N#N#N#N#w`o.L`i`w`q.a.c.P`i.L#K#M`i`s#L#N#N#N#N#N#N#N",
"#N#N#N#N#N#N`6#N.w#.`B.L#J`E`t`i.c.7`i.F...F`i`s#L#N#N#N#N#N#N#N",
"#N#N#N#N#N#N#N.T#C`X.H.L#r.A`A`n`D.`.0#B.o#M`i`.`W#N#N#N#N#N#N#N",
"#N#N#N#N#N#N.D`B#d`A`e.L#M.L.L#B.0#D`7.I.N`n.X`s#L#N#N#N#N#N#N#N",
"#N#N#N#N#N#N`W.7`1.I.`.I#B.L#B`N.L.L.L#B#B#M`i`s.p#N#N#N#N#N#N#N",
"#N#N#N#N#N#N.1`U#J`7.I#r`N#M`N#B`N#B`N#M`N.F`i`s#L#N#N#N#N#N#N#N",
"#N#N#N#N#N#N`d`o`M#B.L.L`N#B`N#M`N#M`N#B`N.L`i.y#L#N#N#N#N#N#N#N",
"#N#N#N#N#N`6#N#j.d#J.L`N#M.L#B`N#B`N#M`N#M.L`i`s#L#N#N#N#N#N#N#N",
"#N#N#N#N#N#N#N`H`v`0#B.L.L.L#M.L.L#M.L.L.L.F`i`s.p#N#N#N#N#N#N#N",
"#N#N#N#N#N#N#N#N.r`3`i.G`z#``z#J#`.h#`.h`z#J`M.k`d#N`6#N#N#N#N#N",
"#N#N#N#N#N#N#N#N#N`4`j.s.i`G.c.c.c.c.c.i.i#l.f.Z#N`6#N#N#N#N#N#N",
"#N#N#N#N#N#N#N`6#N`W```O`Z#m.j.u.u.Z#b`F`4`8#g#N#N#N#N#N#N#N#N#N",
"#N#N#N#N#N#N#N#N#N#N`Z`J#v`##x`K.Y`K`p###p`F.6`6#N#N#N#N#N#N#N#N",
"#N#N#N#N#N#N#N#N#N#N#o.S`I#c`x.8.g.8.z#c`I`c#o#N#N#N#N#N#N#N#N#N",
"#N#N#N#N#N#N#N#N`H`Z#c`b.M#f#f#f#f#f#f#f.x.R`L.l#n#N#N#N#N#N#N#N",
"#N#N#N#N#N#N#N#N.J`l.M.M.e#f#f#f#f#f#f#f#f.x`u`l.J#N#N#N#N#N#N#N",
"#N#N#N#N#N#N#N#N`p#k`Y`Y.x`V#f#f#f#f#f#f`V.M.M.b`p#N#N#N#N#N#N#N",
"#N#N#N#N#N#N#N#N.Q.t`Y`Y.e#f#f#f#f#f#f#f#f`u`u.t.Q#N#N#N#N#N#N#N",
"#N#N#N#N#N#N#N#N`W.O#e#e.C.C.C.C.C.C.C.C.C.C#e.O.p#N#N#N#N#N#N#N",
"#N#N#N#N#N#N#N#N`d`2#j`m#j`m`m#j`m`m#j`m`m#j#j#p`d#N#N#N#N#N#N#N",
"#N#N#N#N#N#N#N#N`H.1.K.K.K.m.K.m.m.K.m.m.K.m.K.m#w#N#N#N#N#N#N#N"
};
