/* XPM */
static char *pointview_xpm[] = {
/* width height num_colors chars_per_pixel */
"    32    32      256            2",
/* colors */
"`` c #04364c",
"`. c #06930a",
"`# c #942214",
"`a c #94968c",
"`b c #04620c",
"`c c #446e44",
"`d c #88d668",
"`e c #046788",
"`f c #149aa4",
"`g c #047c82",
"`h c #ccccc8",
"`i c #44940c",
"`j c #8c5a54",
"`k c #45bb21",
"`l c #549e94",
"`m c #50463c",
"`n c #2c6688",
"`o c #d0e6f8",
"`p c #d45d20",
"`q c #fc9e34",
"`r c #64ce18",
"`s c #048004",
"`t c #057cce",
"`u c #8ccecc",
"`v c #e97926",
"`w c #1c4e84",
"`x c #507c60",
"`y c #2c82cc",
"`z c #0465c2",
"`A c #54ba84",
"`B c #348e14",
"`C c #b93211",
"`D c #84c2c4",
"`E c #69ce49",
"`F c #eceaf4",
"`G c #108ec4",
"`H c #274b94",
"`I c #1caa04",
"`J c #bc462f",
"`K c #349ad4",
"`L c #f4cabc",
"`M c #dc5a1c",
"`N c #b0cae4",
"`O c #047e6c",
"`P c #a9afac",
"`Q c #4a6690",
"`R c #3c76e4",
"`S c #0471cb",
"`T c #5cc254",
"`U c #377281",
"`V c #dcaa9c",
"`W c #71d934",
"`X c #f9f8f9",
"`Y c #4ca2fc",
"`Z c #647394",
"`0 c #88e650",
"`1 c #7c5a5c",
"`2 c #d97f64",
"`3 c #c7dffc",
"`4 c #048b05",
"`5 c #309408",
"`6 c #34725c",
"`7 c #57c71c",
"`8 c #047fe3",
".` c #7c7c80",
".. c #6bb7ef",
".# c #ce4a1a",
".a c #4fa8ea",
".b c #046e44",
".c c #505658",
".d c #cc664f",
".e c #78d23c",
".f c #055bbb",
".g c #295991",
".h c #399ce7",
".i c #49709a",
".j c #044e64",
".k c #0c767c",
".l c #34667c",
".m c #9acef1",
".n c #0988da",
".o c #b8dcf7",
".p c #c4c5c4",
".q c #2193e3",
".r c #68ce33",
".s c #0466ec",
".t c #d03e08",
".u c #74d848",
".v c #30ac58",
".w c #df6d29",
".x c #b0bae0",
".y c #dcdbd9",
".z c #d1531c",
".A c #5caed4",
".B c #0866ac",
".C c #2c867c",
".D c #f48929",
".E c #146abc",
".F c #347d54",
".G c #87c3f6",
".H c None",
".I c #088630",
".J c #145acc",
".K c #44a4e4",
".L c #148bdc",
".M c #8ca6dc",
".N c #84d294",
".O c #0c8e8c",
".P c #4ca47c",
".Q c #88767c",
".R c #57c136",
".S c #e3e7e5",
".T c #1482d4",
".U c #046ac4",
".V c #eff1f0",
".W c #34b024",
".X c #e6e1dc",
".Y c #0476cc",
".Z c #045ad0",
".0 c #e4beb4",
".1 c #2c97e4",
".2 c #089434",
".3 c #a0a6a4",
".4 c #c85e44",
".5 c #0482d4",
".6 c #9cdabc",
".7 c #c13d1c",
".8 c #344e8c",
"#` c #bcbebc",
"#. c #844244",
"## c #2c2e34",
"#a c #bc766c",
"#b c #7cc6bc",
"#c c #a4ea6c",
"#d c #3c4e70",
"#e c #de9477",
"#f c #547a94",
"#g c #6496cc",
"#h c #24a24c",
"#i c #9ce694",
"#j c #344224",
"#k c #ac422c",
"#l c #048860",
"#m c #7c8baf",
"#n c #475281",
"#o c #89898c",
"#p c #646264",
"#q c #70ba9c",
"#r c #5cae84",
"#s c #047404",
"#t c #44b464",
"#u c #045a9c",
"#v c #245e74",
"#w c #a09c98",
"#x c #74bed4",
"#y c #da8874",
"#z c #585e7c",
"#A c #1c7a4c",
"#B c #5f7e94",
"#C c #304250",
"#D c #1c8e44",
"#E c #88e054",
"#F c #544c4c",
"#G c #d46e4c",
"#H c #94e28c",
"#I c #9cc3e9",
"#J c #1f8ee1",
"#K c #70d068",
"#L c #307498",
"#M c #e7dffc",
"#N c #a4e68c",
"#O c #398339",
"#P c #e46244",
"#Q c #2769a9",
"#R c #087e34",
"#S c #b6b4b0",
"#T c #745a84",
"#U c #3767a2",
"#V c #7cd674",
"#W c #2c9ebc",
"#X c #39598c",
"#Y c #188a04",
"#Z c #9cc2dc",
"#0 c #046f2c",
"#1 c #0c5e74",
"#2 c #1c63a9",
"#3 c #9c8a84",
"#4 c #54b2b4",
"#5 c #54b65c",
"#6 c #38a4b8",
"#7 c #94f25c",
"#8 c #3c864c",
"a` c #e4f2fc",
"a. c #37b714",
"a# c #844a44",
"aa c #5cbe74",
"ab c #0886b0",
"ac c #f0802c",
"ad c #e4b2a4",
"ae c #149e2c",
"af c #047351",
"ag c #74a2cc",
"ah c #74767c",
"ai c #148294",
"aj c #54627c",
"ak c #5472a0",
"al c #dcdef4",
"am c #acaab4",
"an c #add3f5",
"ao c #747a9c",
"ap c #0472a4",
"aq c #7cd2a4",
"ar c #9cd6cc",
"as c #7cdc38",
"at c #d44e34",
"au c #a4cefc",
"av c #cc4224",
"aw c #ec7224",
"ax c #f4dad4",
"ay c #4c7abc",
"az c #3c3e44",
"aA c #d4d6d0",
"aB c #dd651f",
"aC c #dc9c84",
"aD c #c42e0c",
"aE c #fce6e4",
"aF c #3c9514",
"aG c #c4c6e4",
"aH c #5c3e44",
"aI c #64c28c",
"aJ c #74d24c",
"aK c #f4bdae",
"aL c #b4ee94",
"aM c #348e34",
"aN c #44ae7c",
"aO c #8c92ac",
"aP c #5cc830",
"aQ c #cc5438",
"aR c #61b0ee",
"aS c #a0dcd4",
"aT c #943e34",
"aU c #77bbef",
"aV c #84de6c",
"aW c #cc726c",
"aX c #3c72a4",
"aY c #27528c",
"aZ c #4c769c",
"a0 c #bce2e4",
"a1 c #7cde5c",
"a2 c #048e3c",
"a3 c #4c5a74",
"a4 c #bcbad4",
"a5 c #2cae08",
"a6 c #145ea4",
"a7 c #eca69c",
"a8 c #046c60",
/* pixels */
".H.H.H.H.H.H.H.H.H.H.H.H.H.H.H.H.H.H.H.H.H.H`X`LaKaKax.H.H.H.H.H",
".H.H.H.H.H.H.H.H.H.H.H.H.H.H.H.H.H.H.H.H.HaK#Pat.4ataQ`2.S.H.H.H",
".H.H.H.H.H.H.H.H.H.H.H.H.H.H.H.H.H.H.H.HaKav.d`V.0ad`2av.d.y.H.H",
".H.H.H.H.H.H.H.H.H.H.H.H.H.H.H.H.H.H.HaEat.4#eaCaC#e#eaWav#a.S.H",
".H.H.H.H.H.H.H.H.H.H.H.H.H.H.H.H.H.H.Ha7aD.d#y#e#e#e`2#G.#`J#S.H",
".H.H.H.H.H.H.H.H.H`X`oan#I#I#IaGal`X.H#yaD.z.zaB.waB`p.z.#.7#3`X",
".H.H.H.H.H.H.H.VauaR.h.q#J.L.n.T`y#g`NaW.t.z`paBaB.waB`p.z.7.Q.V",
".H.H.H.H.H.Ha0aI.h#6#taN#W#J#J.n.5.Y`8#T.t`paB`v`v`v.w.w`M#k#o.V",
".H.H.H.H.HaS`T`7aaaJ.e.e.r#6.q#J.5.5`t.E`CaB`v`vacacac`v.#a#`P.H",
".H.H.H.HaS.R`ras#x.N#E`d`d.A.h.q.L.5`8#L`j`Caw.D`q`qac`MaT.`.X.H",
".H.H.Han.R.r#K#b.G#I#i#c`u...a`K#J`Gai#p.caH`#.#`M.z`J#..`.p.H.H",
".H.H`3aa`r`W#V.G.mauanaLaraU...h#J`f`c#F.c#jaY#n`1`1.Q.3.y.H.H.H",
".H`X`D`7`EaI`0.6au.o`3a0an.G...a.q.C`m#Faz#1#D#L#m.S.V`X.H.H.H.H",
".H`3#5`r#4`Y.N#ian`3`3.oan.GaU.a.q#d`m#C`z`g`.#8ak.y.H.H.H.H.H.H",
"`X#Z`k`T.h`Y..`uau.o.o.o.m.G...K#J#C##.j`O`4`4`i#Xam.H.H.H.H.H.H",
".V#q`k.R`A#Ka1#H.6.m.m.m.GaUaR`K.q.B```b#s#s`saF`naO.V.H.H.H.H.H",
"#M#ra.aP.r`Was`0#7#H.G.GaUaR.K.q.L.n#u#u#0#s#0.F`6ao.S.H.H.H.H.H",
"al.Pa..RaP.r.u.u`0aV..aR.a.K.1.q.L.n`g#0`s.b.b`U`U`Z.y.H.H.H.H.H",
"#M.P`I`k.R.r.r.r.u`E.K.h.h.q.q.L.5`8.2`s`sa8`e#L.g`Z.X.H.H.H.H.H",
"#M`l`I.W`k`7aP.r`T`T`K.q.1#J.L.n.5.Ya2`4`s`e.J#O`nao.X.H.H.H.H.H",
"`Xag.2a5.W`k`k`7`raN.q.q.L.n.n`t`t`S`g`4#R.Z#AaF`w.`.V.H.H.H.H.H",
".H.x`Saeab#h.W.v.v.L.n.5.5.5`t`t.Y`S.U`z`e#0`5#O.8#w.H.H.H.H.H.H",
".H.S`R`O`tab.O`8.Y`8.5.5`t`t`t`S`S.U`z`e`4#Y`i#v#z.p.H.H.H.H.H.H",
".H`X.M.k#l`S`S.Y`t`t.Y`t.Y`S`S`S`z.B.Za8#Y`B#O`H#o`F.H.H.H.H.H.H",
".H.H`Fay`4`O.s`S`S`S`S`S`S.U`z`z`z.f.fa6.FaF`w#z.p`X.H.H.H.H.H.H",
".H.H.HaG#L#R`O#R.2ap`z`z`z`z.B.f.f.f#2#U.iaY#d#w`X.H.H.H.H.H.H.H",
".H.H.H.H.x`n.I`.`.a8.Z`z.f.f.f.f#2#U.i`Q`w#n`a`F.H.H.H.H.H.H.H.H",
".H.H.H`X.Ha4.i`6`5aM.E#2#2#QaX.i#f.i#X`Ha3#w.X.H.H.H.H.H.H.H.H.H",
".H.H.H.H.H.HaA#m.i`x`x#B#B#B#f`Q.gaY#dah`P.V.H.H.H.H.H.H.H.H.H.H",
".H.H.H.H.H.H.H.V.p#m`Z`Q#X#X#Xa3aj.``P.y`X.H.H.H.H.H.H.H.H.H.H.H",
".H.H.H.H.H.H.H.H.H`X.X.p#S#S#S#`aA`F`X.H.H.H.H.H.H.H.H.H.H.H.H.H",
".H.H.H.H.H.H.H.H.H.H.H.H.H`X.H.H.H.H.H.H.H.H.H.H.H.H.H.H.H.H.H.H"
};
