/* XPM */
static char *poly_xpm[] = {
/* width height num_colors chars_per_pixel */
"    16    16      256            2",
/* colors */
"`` c none",
"`. c #3992c6",
"`# c #adcfe7",
"`a c #4279c6",
"`b c #3b6db2",
"`c c #9ec1dd",
"`d c #fcfcfe",
"`e c #f8f9fd",
"`f c #315c95",
"`g c #88adcf",
"`h c #3a90c6",
"`i c #fefefe",
"`j c #fafafe",
"`k c #f6f7fc",
"`l c #f1f3fb",
"`m c #eceef8",
"`n c #557ead",
"`o c #6f95be",
"`p c #3b8ec6",
"`q c #f4f5fb",
"`r c #eef1fa",
"`s c #e9ecf7",
"`t c #e2e6f5",
"`u c #dce1f3",
"`v c #3b8bc6",
"`w c #fdfefe",
"`x c #fafbfd",
"`y c #f6f8fc",
"`z c #ebeef9",
"`A c #e6e9f7",
"`B c #dfe4f4",
"`C c #d9dff2",
"`D c #d2d9f0",
"`E c #ccd3ee",
"`F c #417dc6",
"`G c #3d89c6",
"`H c #fcfdfe",
"`I c #eff1fa",
"`J c #e9ecf8",
"`K c #e3e6f5",
"`L c #dce1f4",
"`M c #d6dcf1",
"`N c #cfd6ef",
"`O c #c8d0ec",
"`P c #c2caeb",
"`Q c #bbc4e8",
"`R c #3d85c6",
"`S c #f5f8fc",
"`T c #f1f3fa",
"`U c #e6eaf7",
"`V c #e0e4f4",
"`W c #d9def2",
"`X c #d3d9f0",
"`Y c #c5cdeb",
"`Z c #bec8e9",
"`0 c #b8c2e6",
"`1 c #b1bce5",
"`2 c #3f82c6",
"`3 c #eef0fa",
"`4 c #e3e7f5",
"`5 c #dce2f3",
"`6 c #c2caea",
"`7 c #b4bfe6",
"`8 c #aebae4",
".` c #a8b5e2",
".. c #407fc6",
".# c #d9def3",
".a c #bec7e9",
".b c #b8c2e7",
".c c #b1bde4",
".d c #abb8e3",
".e c #a5b2e1",
".f c #a1aedf",
".g c #dde1f3",
".h c #d5dcf1",
".i c #c9d0ed",
".j c #bbc5e8",
".k c #aeb9e3",
".l c #a3b0df",
".m c #9eabdf",
".n c #9aa9dd",
".o c #427ac6",
".p c #000000",
".q c #000000",
".r c #000000",
".s c #000000",
".t c #000000",
".u c #000000",
".v c #000000",
".w c #000000",
".x c #000000",
".y c #000000",
".z c #000000",
".A c #000000",
".B c #000000",
".C c #000000",
".D c #000000",
".E c #000000",
".F c #000000",
".G c #000000",
".H c #000000",
".I c #000000",
".J c #000000",
".K c #000000",
".L c #000000",
".M c #000000",
".N c #000000",
".O c #000000",
".P c #000000",
".Q c #000000",
".R c #000000",
".S c #000000",
".T c #000000",
".U c #000000",
".V c #000000",
".W c #000000",
".X c #000000",
".Y c #000000",
".Z c #000000",
".0 c #000000",
".1 c #000000",
".2 c #000000",
".3 c #000000",
".4 c #000000",
".5 c #000000",
".6 c #000000",
".7 c #000000",
".8 c #000000",
"#` c #000000",
"#. c #000000",
"## c #000000",
"#a c #000000",
"#b c #000000",
"#c c #000000",
"#d c #000000",
"#e c #000000",
"#f c #000000",
"#g c #000000",
"#h c #000000",
"#i c #000000",
"#j c #000000",
"#k c #000000",
"#l c #000000",
"#m c #000000",
"#n c #000000",
"#o c #000000",
"#p c #000000",
"#q c #000000",
"#r c #000000",
"#s c #000000",
"#t c #000000",
"#u c #000000",
"#v c #000000",
"#w c #000000",
"#x c #000000",
"#y c #000000",
"#z c #000000",
"#A c #000000",
"#B c #000000",
"#C c #000000",
"#D c #000000",
"#E c #000000",
"#F c #000000",
"#G c #000000",
"#H c #000000",
"#I c #000000",
"#J c #000000",
"#K c #000000",
"#L c #000000",
"#M c #000000",
"#N c #000000",
"#O c #000000",
"#P c #000000",
"#Q c #000000",
"#R c #000000",
"#S c #000000",
"#T c #000000",
"#U c #000000",
"#V c #000000",
"#W c #000000",
"#X c #000000",
"#Y c #000000",
"#Z c #000000",
"#0 c #000000",
"#1 c #000000",
"#2 c #000000",
"#3 c #000000",
"#4 c #000000",
"#5 c #000000",
"#6 c #000000",
"#7 c #000000",
"#8 c #000000",
"a` c #000000",
"a. c #000000",
"a# c #000000",
"aa c #000000",
"ab c #000000",
"ac c #000000",
"ad c #000000",
"ae c #000000",
"af c #000000",
"ag c #000000",
"ah c #000000",
"ai c #000000",
"aj c #000000",
"ak c #000000",
"al c #000000",
"am c #000000",
"an c #000000",
"ao c #000000",
"ap c #000000",
"aq c #000000",
"ar c #000000",
"as c #000000",
"at c #000000",
"au c #000000",
"av c #000000",
"aw c #000000",
"ax c #000000",
"ay c #000000",
"az c #000000",
"aA c #000000",
"aB c #000000",
"aC c #000000",
"aD c #000000",
"aE c #000000",
"aF c #000000",
"aG c #000000",
"aH c #000000",
"aI c #000000",
"aJ c #000000",
"aK c #000000",
"aL c #000000",
"aM c #000000",
"aN c #000000",
"aO c #000000",
"aP c #000000",
"aQ c #000000",
"aR c #000000",
"aS c #000000",
"aT c #000000",
"aU c #000000",
"aV c #000000",
"aW c #000000",
"aX c #000000",
"aY c #000000",
"aZ c #000000",
"a0 c #000000",
"a1 c #000000",
"a2 c #000000",
"a3 c #000000",
"a4 c #000000",
"a5 c #000000",
"a6 c #000000",
"a7 c #000000",
"a8 c #000000",
/* pixels */
"````````````````````````````````",
"`````````````.`.`#``````````````",
"`````````.`.`#```a`#````````````",
"`````.`.`#`````````b`c``````````",
"```.`#```````````d`e`f`g````````",
"```h`````````i`j`k`l`m`n`o``````",
"```p```````d`e`q`r`s`t`u`n`n````",
"```v```w`x`y`l`z`A`B`C`D`E`n`F``",
"```G`H`e`q`I`J`K`L`M`N`O`P`Q`F``",
"```R`S`T`z`U`V`W`X`E`Y`Z`0`1`F``",
"```2`3`s`4`5`M`N`O`6`Q`7`8.``F``",
"``..`U`B.#`D`E`Y.a.b.c.d.e.f`F``",
"```F.g.h`N.i`6.j`7.k.`.l.m.n`F``",
"``.o`F`F`F`F`F`F`F`F`F`F`F`F`F``",
"````````````````````````````````",
"````````````````````````````````"
};
