/* XPM */
static char *zoomout_xpm[] = {
/* width height num_colors chars_per_pixel */
"    32    32      256            2",
/* colors */
"`` c #c40204",
"`. c #7c8284",
"`# c #7cc2e4",
"`a c #cc826c",
"`b c #ecc26c",
"`c c #4c4a4c",
"`d c #84a2ac",
"`e c #b44a24",
"`f c #c4e2e4",
"`g c #a4c2d4",
"`h c #a4a29c",
"`i c #ac625c",
"`j c #7cb2d4",
"`k c #bc8644",
"`l c #845264",
"`m c #e4e2e4",
"`n c #84969c",
"`o c #8cd2ec",
"`p c #c49e5c",
"`q c #94c2dc",
"`r c #a4deec",
"`s c #fc6634",
"`t c #94b2c4",
"`u c #c4c2c4",
"`v c #ecf2f4",
"`w c #fc8634",
"`x c #646664",
"`y c #dc4a14",
"`z c #94928c",
"`A c #ec521c",
"`B c #c4d6dc",
"`C c #a4cedc",
"`D c #a4bec4",
"`E c #7cbadc",
"`F c #848a94",
"`G c #ac7244",
"`H c #7c7674",
"`I c #94cae4",
"`J c #f4f2f4",
"`K c #ec2204",
"`L c #cc9284",
"`M c #94a2a4",
"`N c #c4f2fc",
"`O c #848a8c",
"`P c #84cae4",
"`Q c #d4e6ec",
"`R c #849aa4",
"`S c #e4aa64",
"`T c #ec7a2c",
"`U c #747274",
"`V c #d4d2cc",
"`W c #8cbad4",
"`X c #5c5a57",
"`Y c #ace6f4",
"`Z c #94bad4",
"`0 c #f44214",
"`1 c #fc5e2c",
"`2 c #b4b2b4",
"`3 c #ec3204",
"`4 c #dc8674",
"`5 c #a4cadf",
"`6 c #d46634",
"`7 c #e4eaec",
"`8 c #9cc2d4",
".` c #949a9c",
".. c #fc5216",
".# c #b4d2dc",
".a c #9c6a5c",
".b c #94aebc",
".c c #fc4a18",
".d c #8c8684",
".e c #acaaa8",
".f c #bc6264",
".g c #9c5a64",
".h c #8492ac",
".i c #c4cacc",
".j c #e4fefc",
".k c #ec8e74",
".l c #746e6c",
".m c #c4766c",
".n c #9ccae4",
".o c #f4fafc",
".p c #d4eaec",
".q c #f4aa4c",
".r c #6c6264",
".s c #b4babc",
".t c #f43a0c",
".u c #848283",
".v c #8cc2e1",
".w c #fcca64",
".x c #ac6a6c",
".y c #8cb2c9",
".z c #9cd6ec",
".A c #b4dae4",
".B c #fc8a3c",
".C c #6c6e6c",
".D c #84badb",
".E c #7c7e7c",
".F c #9ca2a4",
".G c #e47a64",
".H c #dcdadc",
".I c #646260",
".J c #9cbac8",
".K c #fc5624",
".L c #fcb252",
".M c #8caec4",
".N c #ece6e4",
".O c #8c9294",
".P c #94c6df",
".Q c #fc6e3c",
".R c #6c6664",
".S c #c4deec",
".T c #94cee8",
".U c #dc9284",
".V c #94a6b4",
".W c #8c8a8c",
".X c #8ccae4",
".Y c #8cbee4",
".Z c #fc4214",
".0 c #fc3604",
".1 c #dc8e7c",
".2 c #accad8",
".3 c #9c9a94",
".4 c #fc5617",
".5 c #bcd2dc",
".6 c #cccaca",
".7 c #cc7a6c",
".8 c #fcfafc",
"#` c #84868c",
"#. c #a49e9c",
"## c #dc9e8c",
"#a c #c4160c",
"#b c #ec1e04",
"#c c #dcb6b4",
"#d c #dcfefc",
"#e c #fc764c",
"#f c #9c7a6c",
"#g c #945e6c",
"#h c #b4726c",
"#i c #d48e7c",
"#j c #a4666c",
"#k c #fc8254",
"#l c #bceaf4",
"#m c #bce2f4",
"#n c #acd6e4",
"#o c #8c8e94",
"#p c #4c5254",
"#q c #747a7c",
"#r c #dc9a8c",
"#s c #ec2a04",
"#t c #f4c25c",
"#u c #8ca2a4",
"#v c #ccdedc",
"#w c #cce2e4",
"#x c #84b6dc",
"#y c #f45614",
"#z c #ccd2d4",
"#A c #dce2e4",
"#B c #8c9aa4",
"#C c #645e5c",
"#D c #bcb6ac",
"#E c #f43608",
"#F c #a45e5c",
"#G c #cc7264",
"#H c #dceaec",
"#I c #fcae54",
"#J c #84c6e4",
"#K c #b4665c",
"#L c #8c5664",
"#M c #848ea4",
"#N c #d49684",
"#O c #e48a74",
"#P c #eceaec",
"#Q c #9cc6e4",
"#R c #9caabc",
"#S c #ecfafc",
"#T c #bcbabc",
"#U c #84bee4",
"#V c #e47e74",
"#W c #9cbed4",
"#X c #d47e6c",
"#Y c #d48274",
"#Z c #8c92a4",
"#0 c #b46a64",
"#1 c #ac9ea4",
"#2 c #94d2ec",
"#3 c #accedc",
"#4 c #a4bed4",
"#5 c #b4e6f4",
"#6 c #bcdae4",
"#7 c #847e7c",
"#8 c #8ca2b4",
"a` c #a4c6d8",
"a. c #a4a6a4",
"a# c #7cb6dc",
"aa c #e4e6e8",
"ab c #fc6a3c",
"ac c #94b6c4",
"ad c #ecf6fa",
"ae c #949694",
"af c #7c7a78",
"ag c #94a6ac",
"ah c #ec7e34",
"ai c #d4d6d4",
"aj c #8cbedc",
"ak c #f4461c",
"al c #9cc6dc",
"am c #949ea4",
"an c #b4d6e4",
"ao c #fc4e1c",
"ap c #acaeac",
"aq c #9cceec",
"ar c #d4eef4",
"as c #848684",
"at c #8cc6e4",
"au c #fcce66",
"av c #9cdaf0",
"aw c #fc8e39",
"ax c #84bedc",
"ay c #fcb654",
"az c #8c9699",
"aA c #fc7244",
"aB c #6c6a6a",
"aC c #8ccee6",
"aD c #9c9e9c",
"aE c #bcd6e4",
"aF c #cccecc",
"aG c #cce6ec",
"aH c #8c9eac",
"aI c #ac665c",
"aJ c #c4c6c4",
"aK c #f4f6f4",
"aL c #848e8c",
"aM c #747674",
"aN c #94bed4",
"aO c #b4b6b4",
"aP c #dc8a74",
"aQ c #f4fefc",
"aR c #f43e0c",
"aS c #dcdedc",
"aT c #8c8e8c",
"aU c #fc4614",
"aV c None",
"aW c #dce6e4",
"aX c #eceeec",
"aY c #ecfefc",
"aZ c #bcbebc",
"a0 c #a4a2a4",
"a1 c #94c2e4",
"a2 c #a4def4",
"a3 c #94b2cc",
"a4 c #949294",
"a5 c #94caec",
"a6 c #94a2ac",
"a7 c #d4d2d4",
"a8 c #8cbadc",
/* pixels */
"aVaVaVaVaVaVaVaVaVaVaVaVaVaVaVaVaVaVaVaVaVaVaVaVaVaVaVaVaVaVaVaV",
"aVaVaVaVaVaVaV`J.6`2#.#..e.6#PaVaVaVaVaVaVaVaVaVaVaVaVaVaVaVaVaV",
"aVaVaVaVaVaK.6`z.Oama6#uaz.u.u`2`JaVaVaVaVaVaVaVaVaVaVaVaVaVaVaV",
"aVaVaVaV`J.e#o`D.#an#n#n`5`8.V.E.WaSaVaVaVaVaVaVaVaVaVaVaVaVaVaV",
"aVaVaV`Ja0am.S.p`Q#w`B.#`C`5.naN.u#7aSaVaVaVaVaVaVaVaVaVaVaVaVaV",
"aVaVaV`2#B#w.paW#H#w#wan#3`5al`q`q.E.WaXaVaVaVaVaVaVaVaVaVaVaVaV",
"aVaV.H.O.#`QaWaX`7#v`B.5.2a``8aN.v`t.C`2aVaVaVaVaVaVaVaVaVaVaVaV",
"aVaV.eag.S.p#daY.j`N#5#5`rav#2#2`q`q`O.E.NaVaVaVaVaVaVaVaVaVaVaV",
"aV.Nae.J#m#c#V.k#O#X.7.m#h.x#j#g`t.Xa6`x.6aVaVaVaVaVaVaVaVaVaVaV",
"aV.H#o`g`Y.GaUab.K.K.KaU.ZaR.t``#Maq.M.lapaVaVaVaVaVaVaVaVaVaVaV",
"aV`V#`al`r`a.Q#k#eaA`s`1.Kao.c#a.h.T.y`UaD.8aVaVaVaVaVaVaVaVaVaV",
"aVa7`O#Wav#G.0ak`0.t#E#E#s`K#b``#Z.T.M.l.3aKaVaVaVaVaVaVaVaVaVaV",
"aV`m.W.y.z#1.f#0.f#0`i#F#F#L#L`l#R#J#R`X.e.8aVaVaVaVaVaVaVaVaVaV",
"aVaK`z`d`q.PaCaCaC.X.X`Pat`P`#.Xal#Uaz`XaZaVaVaVaVaVaVaVaVaVaVaV",
"aVaV#T`.aNa8aN`ZaNaj`Z`Wa8`j`W.2a##4#C#q`maVaVaVaVaVaVaVaVaVaVaV",
".8aVaX.d`n.Y.D`W.D.D#x#xa#aN`5a#a5#7`caT#TaSaVaVaVaVaVaVaVaVaVaV",
"aVaVaV.6`UaHax.D#x`W.DaN`qa1a##Q#`aBaD.Wae.u#AaVaVaVaVaVaVaVaVaV",
"aVaVaV.8.s.l`O.yaxajax.v#Ja8.J`H`X#z.Ha7.3`e`L.oaVaVaVaVaVaVaVaV",
"aVaVaVaV.8`uaM.las`R#8aHaz.u#C#paM.eaXaZ`k`T`A##.oaVaVaVaVaVaVaV",
"aVaVaVaVaVaV`m.F`H.C.R.I`x.Iafap#oapaO`p#t#I`w#y#r#SaVaVaVaVaVaV",
"aVaVaVaVaVaVaV.8aaaJ`2ap#T.6aa`Ja4.d`G.qau.w#I.B.4#N.oaVaVaVaVaV",
"aVaVaVaVaVaVaVaVaVaVaVaVaVaVaVaV.i.a`y`w.Lau.w#Iaw.4.U#SaVaVaVaV",
"aVaVaVaVaVaVaVaVaVaVaVaVaVaVaVaV.8.H`a#y.B.L.w.w#Iaw.4.1`JaVaVaV",
"aVaVaVaVaVaVaVaVaVaVaVaVaVaVaVaVaVaV`v`4.4.B#I.w.w.Law`6#oaFaVaV",
"aVaVaVaVaVaVaVaVaVaVaVaVaVaVaVaVaVaVaVad#i..`w.L.wau`S`2ae#7`maV",
"aVaVaVaVaVaVaVaVaVaVaVaVaVaVaVaVaVaVaVaVadaP..`w.L`b`maFafas#PaV",
"aVaVaVaVaVaVaVaVaVaVaVaVaVaVaVaVaVaVaVaVaVad#Naoah#Daa.3aB.FaVaV",
"aVaVaVaVaVaVaVaVaVaVaVaVaVaVaVaVaVaVaVaVaVaVaK#i#f.sa4.uaBa.aVaV",
"aVaVaVaVaVaVaVaVaVaVaVaVaVaVaVaVaVaVaVaVaVaVaVaW`F`UaBaM.uaiaVaV",
"aVaVaVaVaVaVaVaVaVaVaVaVaVaVaVaVaVaVaVaVaVaVaVaV.6aT#Ta7aaaVaVaV",
"aVaVaVaVaVaVaVaVaVaVaVaVaVaVaVaVaVaVaVaVaVaVaVaVaV`JaVaVaVaVaVaV",
"aVaVaVaVaVaVaVaVaVaVaVaVaVaVaVaVaVaVaVaVaVaVaVaVaVaVaVaVaVaVaVaV"
};
