/* XPM */
static char *zoomfree_xpm[] = {
/* width height num_colors chars_per_pixel */
"    32    32      256            2",
/* colors */
"`` c #04329c",
"`. c #949a94",
"`# c #a4cedc",
"`a c #945a44",
"`b c #e4a65c",
"`c c #7cb6dc",
"`d c #446ab4",
"`e c #fcce64",
"`f c #d4cec4",
"`g c #d4eaec",
"`h c #a49a94",
"`i c #bcbaac",
"`j c #445a84",
"`k c #7c8284",
"`l c #cc5a34",
"`m c #94b6c4",
"`n c #2c4a84",
"`o c #646664",
"`p c #847e7c",
"`q c #c4beb4",
"`r c #dcdedc",
"`s c #eceae4",
"`t c #8caabc",
"`u c #84929c",
"`v c #a49e9c",
"`w c #647aa4",
"`x c #cccecc",
"`y c #8c8a84",
"`z c #f4f6f4",
"`A c #a4aaac",
"`B c #1c3e8c",
"`C c #849ecc",
"`D c #94c2d4",
"`E c #d4d6d4",
"`F c #6482bc",
"`G c #fc7628",
"`H c #84bee0",
"`I c #a4c6dc",
"`J c #c4c6c4",
"`K c #8ca2ac",
"`L c #445e9c",
"`M c #6c8ec4",
"`N c #34568c",
"`O c #ac8e6c",
"`P c #143e8c",
"`Q c #ecbe54",
"`R c #746e6c",
"`S c #8c9294",
"`T c #b4ae9c",
"`U c #9c9a9c",
"`V c #e45224",
"`W c #2c4ea4",
"`X c #e4dedc",
"`Y c #bcdeec",
"`Z c #f4fefc",
"`0 c #b4d2da",
"`1 c #d4bab4",
"`2 c #747677",
"`3 c #9ccade",
"`4 c #e4dad4",
"`5 c #bcc2c4",
"`6 c #5c5a59",
"`7 c #ecf2f4",
"`8 c #a4b2c4",
".` c #dcd6d0",
".. c #e46a1c",
".# c #747e8c",
".a c #143684",
".b c #8cb6d4",
".c c #94bed0",
".d c #6c7285",
".e c #a4a6a9",
".f c #fcf6f3",
".g c #9cc2dc",
".h c #7486b4",
".i c #8cbedb",
".j c #8c9ea7",
".k c #fcaa54",
".l c #5c7ab4",
".m c #dccecc",
".n c #e4eaf3",
".o c #a47a6c",
".p c #9caeb4",
".q c #acaaaf",
".r c #2c4684",
".s c #6c8ac8",
".t c #7c92c2",
".u c #9c968e",
".v c #e4e6f4",
".w c #bcc6de",
".x c #0c3a9c",
".y c #accedc",
".z c #5c6a88",
".A c #bcbec0",
".B c #345284",
".C c #6c6e70",
".D c #84868b",
".E c #ccc2bc",
".F c #f4eeec",
".G c #8496c4",
".H c #aca29c",
".I c #bcd6e4",
".J c #948a84",
".K c #2446a4",
".L c #94c2e4",
".M c #ec963c",
".N c #dcc6c4",
".O c #3c5eb4",
".P c #fcc664",
".Q c #344ea4",
".R c #e4e6e4",
".S c #cce2e7",
".T c #7c7674",
".U c #dcdadc",
".V c #8cbee4",
".W c #fcb258",
".X c #0c3690",
".Y c #84b6d8",
".Z c #4c6284",
".0 c #344a7c",
".1 c #c4c2c4",
".2 c #d4e6ec",
".3 c #eceaf4",
".4 c #8c929c",
".5 c #a4a2ac",
".6 c #24428c",
".7 c #94a6cc",
".8 c #6c86b4",
"#` c #fc7a2a",
"#. c #fc7224",
"## c #bc9e6c",
"#a c #ac663c",
"#b c #e46234",
"#c c #e4663c",
"#d c #c46644",
"#e c #bc9a94",
"#f c #345eac",
"#g c #8ca6b4",
"#h c #9caed4",
"#i c #5c729c",
"#j c #646264",
"#k c #0c3ea4",
"#l c #f4c26c",
"#m c #b4b2ac",
"#n c #d4c2bc",
"#o c #94aad4",
"#p c #4c628c",
"#q c #ec6e2c",
"#r c #7c7e80",
"#s c #9cbecc",
"#t c #4c5e81",
"#u c #9cbac4",
"#v c #6c6664",
"#w c #8ca2c4",
"#x c #accad4",
"#y c #ccc6c4",
"#z c #748ecc",
"#A c #7c7274",
"#B c #949290",
"#C c #ec5626",
"#D c #dcbeb4",
"#E c #949aa4",
"#F c #143ea4",
"#G c #d4d2d4",
"#H c #dceaec",
"#I c #bcb6bc",
"#J c #dce2ec",
"#K c #a4aabc",
"#L c #94a2ac",
"#M c #9c9ea4",
"#N c #2c4eac",
"#O c #e4e2e4",
"#P c #b4d6e4",
"#Q c #bcc6d4",
"#R c #fcfafc",
"#S c #9cb2c4",
"#T c #5c6e94",
"#U c #c4dae4",
"#V c #c4dee4",
"#W c None",
"#X c #645a54",
"#Y c #f4f2ed",
"#Z c #bcb2b4",
"#0 c #acb2c4",
"#1 c #94bedc",
"#2 c #0c369c",
"#3 c #d4d2cc",
"#4 c #7c868c",
"#5 c #94bacc",
"#6 c #848282",
"#7 c #c4c2bc",
"#8 c #eceeec",
"a` c #a4a2a0",
"a. c #ccd2d4",
"a# c #8c8e8c",
"aa c #f4fafc",
"ab c #1c428f",
"ac c #94c6dc",
"ad c #d4dadc",
"ae c #6486c4",
"af c #74726f",
"ag c #9c9e99",
"ah c #2c529c",
"ai c #e4e2d8",
"aj c #b4d6dc",
"ak c #d4bebc",
"al c #bcc6cc",
"am c #dcdad0",
"an c #8cbad9",
"ao c #fcfaf4",
"ap c #8cc2dc",
"aq c #fcae52",
"ar c #dcd2d0",
"as c #e4eeec",
"at c #acaeac",
"au c #7c96c4",
"av c #bccae4",
"aw c #acd2df",
"ax c #948e8c",
"ay c #3c62b2",
"az c #fcca62",
"aA c #cce6ec",
"aB c #7c7a77",
"aC c #84badc",
"aD c #8c96a4",
"aE c #6c6a6c",
"aF c #cccac9",
"aG c #949694",
"aH c #14429c",
"aI c #2c4e84",
"aJ c #84969c",
"aK c #a4aeac",
"aL c #a4cadc",
"aM c #143a84",
"aN c #9cc6dc",
"aO c #9cb2b4",
"aP c #bcdae4",
"aQ c #94c6e4",
"aR c #8cc2e4",
"aS c #344e7c",
"aT c #eceef4",
"aU c #7492cc",
"aV c #949ea4",
"aW c #dceeec",
"aX c #94a6ac",
"aY c #2c52ac",
"aZ c #949a9c",
"a0 c #a4cee4",
"a1 c #bcbab4",
"a2 c #c4bebc",
"a3 c #dcdee4",
"a4 c #8c8a8c",
"a5 c #f4f6fc",
"a6 c #94c2dc",
"a7 c #d4d6dc",
"a8 c #6482c4",
/* pixels */
"#W#W#W#W#W#W#W#W#W#W#W#W#W#W#W#W#W#W#W#W#W#W#W#W#W#W#W#W#W#W#W#W",
"#W#h.QaYa7#o.K#Na7#h.K#Na7#h.KaYa7#o.KaYa7#o.KaYa7#o.K.Oay.Gao#W",
"#W`Cab#t#M#Q#i.Z.e#0.z.zaG`8#i#p`v.w#i#t#M#Q#i#t#M#Q#T.zabaI`4#W",
"#WaU.6`T#O#W.F`q`h#M`UaZa##B.u#Z`r#W.F.`#O#W.F.`#O#W`s`X.laS#3#W",
"#W.s.aa1#W`z#IaZ#S#xawawaL`m.j`p.q#Y#W#W#W#W#W#W#W#W#W#W.f#7`s#W",
"#WaTa``J#RataV#UaA.2#U`0.ya0`3`m`2`U#Y#W#W#W#W#W#W#W#W#Wa8.tao#R",
"#Wav.7#W.1aDaA`gas.2.S`YawaLaNaQ#5`2.q#R#W#W#W#W#W#W#W#Way.6`4#W",
"#W.s`P.EaZ`0`gas`7#H#VaP.yaLaN`DaRaXafa.#W#W#W#W#W#W#W#Wa8.0#3#W",
"#W.sab`haXaP.2.R`7#HaP.IawaLaN`Da6a6`2a`.f#W#W#W#W#W#W#W.f#7.R#W",
"#W.3.qax#uaP.S#V.S#U`0`0#xaNac.i`DaRaD#r#O#W#W#W#W#W#W#Wa8.t#W#W",
"#Wav#waG#saw#VaP.Iajaw.y`3aN#s.ia6aQ`K#j`E#W#W#W#W#W#W#Way.r`4#W",
"#W.sab.u#5a0.yaw`0aw.y`3aNaNapaC.gaR#L`6#3#W#W#W#W#W#W#Wa8.0#3#W",
"#W.sab.J`m`3`I`3`I`3aNaN#sap.i.Y`3.iaD#v#G#W#W#W#W#W#W#W.f#7.R#W",
"#WaT`A`y.jaRac.gac#sac`Dap.i.Y.caN.L`2`2`r#W#W#W#W#W#W#Wa8.t#W#W",
"#W.w#h#y#4.c.i.c`Dap.c.ian`caCaL`H#S`6aG#R#W#W#W#W#W#W#Way.ram#W",
"#W.s`P`x.u`uapaCaCanaC.Y`c.i`I`Ha6aE`6`UaFa5#W#W#W#W#W#Wa8.0#3#W",
"#W#z.aa1.UaBaJ`HaCaCaC.i.ca6`H.g.T.Dag`U#6#Z#W#W#W#W#W#W.f#7.R#W",
"#WaTa``J#W`x.T`k`taC.iaQ`H.b`t#v.Cam#O.A#a`lar#W#W#W#W#Wa8.t#W#W",
"#Wav.7.f#W#Wa7`y`R.T`k#4`k#A`6#j#ra1ad##.M#q#c`4#W#R#W#Way.6`4#W",
"#W.s`P#3#W#W#WaT.1a#afafaEaBag`Jax.p`O`Q.P.k`G#bar#W#R#W`FaS#3#W",
"#W#z.aa1#W#W#W#W#Wa5#8#O#O#8aa#RaX`a...W`e.P.k`G#b.m#W#W.f#7.R#W",
"#WaTa``J#W#W#W#W#W#W#W#W#W#W#W#W`s#e`V#`.Wazaz.k#`#b.N#Wa8.tao#W",
"#Wav.7ao#W#W#W#W#W#W#W#W#W#W#W#W#W`Z`1#C`Gaq`e.Paq#`#d.1#f`n`4#W",
"#W.s`P#3#W#W#W#W#W#W#W#W#W#W#W#W#W#W#W#D#C`Gaqazaz`b.Ha#.BaS#3#W",
"#W#z.aa1#W#W#W#W#W#W#W#W#W#W#W#W#W#W#R#Wak#C`Gaq#l`X`5`R.ua2.R#W",
"#WaTa``J#W#W#W#W#W#W#W#W#W#W#W#W#W#W#W#W#W#n#C#q`q`raxaf.Oau#W#W",
"#Wav.7#R#W#W#W#W#W#W#W#W#W#W#W#W#W#W#W#W#W#W#D.o`A#6`2aBah`n`4#W",
"#W.s`P#y.na5#W.n.va5#W.n.na5#W.n.va5#W.n.na5aa.j.C.C#rag`d.Bar#W",
"#W#z.XaH``.8#G#2``.ha7#2``.h#G#2``.ha7#2``.8#G#2#2`w`5#F#F`j.`#W",
"#W.v.4.#.d.Dad#K.d.Dad#K.d#4.U#K.d#4.U.p.d.D.U#K.d#4.U#K.d#4ai#W",
"#W#W.f#Y#Y.F#R#W.F`7#R#W.F#Y#R#W#Y.F#R#R.F.F#R#W.F.F#R#W.F`7ao#W",
"#W#W#W#W#W#W#W#W#W#W#W#W#W#W#W#W#W#W#W#W#W#W#W#W#W#W#W#W#W#W#W#W"
};
