/* XPM */
static char *zoomin_xpm[] = {
/* width height num_colors chars_per_pixel */
"    32    32      256            2",
/* colors */
"`` c #4c4a4c",
"`. c #3ca61c",
"`# c #a4a6a4",
"`a c #b44a24",
"`b c #9cfa6c",
"`c c #5cd22c",
"`d c #6ca6a4",
"`e c #0c8204",
"`f c #e4aa64",
"`g c #9c7a6c",
"`h c #9cbed4",
"`i c #84bacc",
"`j c #747a7c",
"`k c #cc826c",
"`l c #d4d6d4",
"`m c #bcbebc",
"`n c #8c9294",
"`o c #e4eef4",
"`p c #9cc6e1",
"`q c #8cbad8",
"`r c #5cae64",
"`s c #2c824c",
"`t c #4c966c",
"`u c #c49e5c",
"`v c #8c9eac",
"`w c #8ca6b4",
"`x c #a4cedc",
"`y c #646260",
"`z c #7ce248",
"`A c #44be1c",
"`B c #cc9284",
"`C c #8cc2dc",
"`D c #bcdacc",
"`E c #d4e6ec",
"`F c #84b2d4",
"`G c #d4d2d2",
"`H c #848686",
"`I c #ecfafc",
"`J c #148e04",
"`K c #acc6ec",
"`L c #9c9e9c",
"`M c #6c6e6c",
"`N c #b4b2b4",
"`O c #ecc26c",
"`P c #8cee5c",
"`Q c #c4decc",
"`R c #e4e2e4",
"`S c #dc4a14",
"`T c #9ccae0",
"`U c #349a44",
"`V c #3cb214",
"`W c #9c9a94",
"`X c #6c9ea4",
"`Y c #8cb2c0",
"`Z c #fc8e39",
"`0 c #147e24",
"`1 c #84c2e4",
"`2 c #847e7c",
"`3 c #c4cacc",
"`4 c #8c9aa4",
"`5 c #f4f2f4",
"`6 c #94badc",
"`7 c #94ea74",
"`8 c #8cc2e4",
".` c #a4ceb4",
".. c #7cbae0",
".# c #ec7a2c",
".a c #5cce2c",
".b c #949ea4",
".c c #6c6a6a",
".d c #7ce64c",
".e c #4cc634",
".f c #dc9a8c",
".g c #d46634",
".h c #9cbac8",
".i c #74e244",
".j c #74aacc",
".k c #f4aa4c",
".l c #bc8644",
".m c #949292",
".n c #8cbae4",
".o c #b4d2df",
".p c #acd6e4",
".q c #d4eaec",
".r c #f45614",
".s c #a4cae1",
".t c #5c5a57",
".u c #74da3c",
".v c #8c8684",
".w c #9cc6d4",
".x c #7c8284",
".y c #ecf6fa",
".z c #44925c",
".A c #64a2a4",
".B c #8caec4",
".C c #6c6264",
".D c #44ba34",
".E c #dc8e7c",
".F c #94b6e4",
".G c #848e8c",
".H c #fcfafc",
".I c #a49e9c",
".J c #7c7674",
".K c #b4babc",
".L c #fcca64",
".M c #c4e2e8",
".N c #eceaec",
".O c #449668",
".P c #4cb23c",
".Q c #ccd2d4",
".R c #84badc",
".S c #fcb252",
".T c #bcdae4",
".U c #44ae44",
".V c #acaeac",
".W c #74b6a4",
".X c #0c8614",
".Y c #a4bec4",
".Z c #7c7a78",
".0 c #a4c6e4",
".1 c #8cbedb",
".2 c #3c825c",
".3 c #4ca264",
".4 c #8ca2b4",
".5 c #7cde5c",
".6 c #94c2d8",
".7 c #8cb2cc",
".8 c #848a94",
"#` c #1c921c",
"#. c #9c6a5c",
"## c #74be7c",
"#a c #84969c",
"#b c #fc8634",
"#c c #7caeb4",
"#d c #247e3c",
"#e c #ac7244",
"#f c #6cce48",
"#g c #7cb6dc",
"#h c #dc8674",
"#i c #ec521c",
"#j c #acfe7c",
"#k c #74aebc",
"#l c #64b26c",
"#m c #34a234",
"#n c #cce6ec",
"#o c #0c7e14",
"#p c #34ae14",
"#q c #dcdedc",
"#r c #c4c6c4",
"#s c #d49684",
"#t c #1c960c",
"#u c #747674",
"#v c #94f65c",
"#w c #1c8624",
"#x c #8c8e8e",
"#y c #74d654",
"#z c #64d23c",
"#A c #4c5254",
"#B c #3c8a64",
"#C c #b4d2f4",
"#D c #accee8",
"#E c #f4c25c",
"#F c #dceae4",
"#G c #24922c",
"#H c #acaaa8",
"#I c #dcdadc",
"#J c #c4c2c4",
"#K c #eceeec",
"#L c #d48e7c",
"#M c #dce2e4",
"#N c #746e6c",
"#O c #bcb6ac",
"#P c #ece6e4",
"#Q c #94b2c4",
"#R c #cccaca",
"#S c #94c2e4",
"#T c #54ca2c",
"#U c #fcae54",
"#V c #fc5214",
"#W c #645e5c",
"#X c #4cba3c",
"#Y c #84e264",
"#Z c #a4fe6c",
"#0 c #9cc2ec",
"#1 c #5caa74",
"#2 c #f4fafc",
"#3 c #3cb624",
"#4 c #74a2a4",
"#5 c #1c8224",
"#6 c #acd2b4",
"#7 c #84e64c",
"#8 c #b4d6e4",
"a` c #c4def4",
"a. c #bcd6f4",
"a# c #8cb6dc",
"aa c #94a6b0",
"ab c #949a9c",
"ac c #94aebc",
"ad c #4cae3c",
"ae c #54a25c",
"af c #3ca23c",
"ag c #147e1c",
"ah c #94ee5c",
"ai c #9ccaec",
"aj c #a4caec",
"ak c #bcbabc",
"al c #a4bed4",
"am c #dceaf4",
"an c #8c9699",
"ao c #8ca2a8",
"ap c #646664",
"aq c #84b6dc",
"ar c #848a8c",
"as c #accaf4",
"at c #9ca2a4",
"au c #e4e6e7",
"av c #3cb618",
"aw c #8cb6c4",
"ax c #848283",
"ay c #f4f6f7",
"az c #94bed4",
"aA c #ec7e34",
"aB c #94a2a8",
"aC c #949694",
"aD c #8c8a8c",
"aE c #dc9284",
"aF c #a4a2a2",
"aG c #fcce66",
"aH c #84bee1",
"aI c #fcb654",
"aJ c #7c7e7c",
"aK c #94c6dc",
"aL c #849aa4",
"aM c #fc8a3c",
"aN c #64d634",
"aO c #ecf2f4",
"aP c #747274",
"aQ c #cccecc",
"aR c #94c6e7",
"aS c #fc5617",
"aT c #9cc2d4",
"aU c #4c9a6c",
"aV c #44c21c",
"aW c #b4b6b4",
"aX c #dc9e8c",
"aY c #8cbee4",
"aZ c #6c6664",
"a0 c None",
"a1 c #3c865c",
"a2 c #dc8a74",
"a3 c #dce6e4",
"a4 c #4cbe3c",
"a5 c #f4fefc",
"a6 c #84ea4c",
"a7 c #b4dae4",
"a8 c #84bad4",
/* pixels */
"a0a0a0a0a0a0a0a0a0a0a0a0a0a0a0a0a0a0a0a0a0a0a0a0a0a0a0a0a0a0a0a0",
"a0a0a0a0a0a0a0`5#R`N.I.I#H#R.Na0a0a0a0a0a0a0a0a0a0a0a0a0a0a0a0a0",
"a0a0a0a0a0ay#R.m`n.baBaoanaxax`N`5a0a0a0a0a0a0a0a0a0a0a0a0a0a0a0",
"a0a0a0a0`5#H#x.Y.o#8.p.p.saTaaaJaD#qa0a0a0a0a0a0a0a0a0a0a0a0a0a0",
"a0a0a0`5aF.b.M`E`E`E.T.o#D`x`Tazax`2#qa0a0a0a0a0a0a0a0a0a0a0a0a0",
"a0a0a0`N`4#n`E`o`D#m.Uaf`U.0aTaKazaJ#x#Ka0a0a0a0a0a0a0a0a0a0a0a0",
"a0a0#I`n.o#M.qay#6`A#j.i#`.haKaz`8#Q.caW.Ha0a0a0a0a0a0a0a0a0a0a0",
"a0a0#Haa.T#Faya0`Q.D`b.a#G`K#Dai.6#Sar.Z.Na0a0a0a0a0a0a0a0a0a0a0",
"a0#PaC.h.M.`#l##.3#X`b#z.X.zaU.O`iaR`w.C#Ra0a0a0a0a0a0a0a0a0a0a0",
"a0#I#x.wa``ra4.5#y`7`P.i#y#f#f`J`Xaj.B#N.Va0a0a0a0a0a0a0a0a0a0a0",
"a0`Gar`p#C#1.d#Z`Pa6`z`z#7#7#7#t`Xai.7aP`L.Ha0a0a0a0a0a0a0a0a0a0",
"a0`Gar.6#C.3avaVav#z#7#z#3#p#p`e#4ai`Y.c`Laya0a0a0a0a0a0a0a0a0a0",
"a0`RaD`Y.s.W.z.O`s.Uah#T#oa1#Ba1`Y`8ac.t#H.Ha0a0a0a0a0a0a0a0a0a0",
"a0ay.m`v`8`p.0as#c.P`P#T#w.F.R#0`paHan.t`ma0a0a0a0a0a0a0a0a0a0a0",
"a0a0ak.xaz.1.1aK.A`..uaV#5.j.1.s..al#W#u`Ra0a0a0a0a0a0a0a0a0a0a0",
".Ha0#Kax#a`8a8.1#k#5`0#5#da#.s#gaR`2``#xak#qa0a0a0a0a0a0a0a0a0a0",
"a0a0a0#RaP`v.R.R.Raq`F.7`q`6..`paraZataDaCax#Ma0a0a0a0a0a0a0a0a0",
"a0a0a0a0ak#Nar.7.1aHaY`1`8.R.h.J.t.Q#I`G`W`a`B#2a0a0a0a0a0a0a0a0",
"a0a0a0a0.H#J#u#N.xaL.4`v`4`2#W``#u`N.N`m.l.##iaX#2a0a0a0a0a0a0a0",
"a0a0a0a0a0a0`Rat.Z#NaZ`yap`yaJ.V#x.VaW`u#E#U#b.r.f`Ia0a0a0a0a0a0",
"a0a0a0a0a0a0a0.H`R#r`N.Vak#Rauay.m`H#e.kaG.L#UaMaS#s#2a0a0a0a0a0",
"a0a0a0a0a0a0a0a0a0a0a0a0a0a0a0a0`3#.`S#b.SaG.L#U`ZaSaE`Ia0a0a0a0",
"a0a0a0a0a0a0a0a0a0a0a0a0a0a0a0a0.H`l`k.raM.S.L.L#U`ZaS.E`5a0a0a0",
"a0a0a0a0a0a0a0a0a0a0a0a0a0a0a0a0a0a0.y#h#VaM#U.L.L.S`Z.g#xaQa0a0",
"a0a0a0a0a0a0a0a0a0a0a0a0a0a0a0a0a0a0a0.ya2#VaM#UaG.L`f`NaC`2`Ra0",
"a0a0a0a0a0a0a0a0a0a0a0a0a0a0a0a0a0a0a0a0.y#L#V#b#U`O#qaQ.Z`H.Na0",
"a0a0a0a0a0a0a0a0a0a0a0a0a0a0a0a0a0a0a0a0a0.y.E#VaA#O.N`W.caFa0a0",
"a0a0a0a0a0a0a0a0a0a0a0a0a0a0a0a0a0a0a0a0a0a0`I#L`g.K.max`M`#a0a0",
"a0a0a0a0a0a0a0a0a0a0a0a0a0a0a0a0a0a0a0a0a0a0a0a3.8aPap#uax`la0a0",
"a0a0a0a0a0a0a0a0a0a0a0a0a0a0a0a0a0a0a0a0a0a0a0a0#R.mak`Gaua0a0a0",
"a0a0a0a0a0a0a0a0a0a0a0a0a0a0a0a0a0a0a0a0a0a0a0a0a0`5a0a0a0a0a0a0",
"a0a0a0a0a0a0a0a0a0a0a0a0a0a0a0a0a0a0a0a0a0a0a0a0a0a0a0a0a0a0a0a0"
};
