/* XPM */
static char *georeference_xpm[] = {
/* width height num_colors chars_per_pixel */
"    32    32      256            2",
/* colors */
"`` c #042284",
"`. c #ac965c",
"`# c #f4ca24",
"`a c #6c5e4c",
"`b c #c49204",
"`c c #d4cab4",
"`d c #1c4ea4",
"`e c #e4e6e4",
"`f c #bca67c",
"`g c #946a04",
"`h c #043a9c",
"`i c #dcae14",
"`j c #7c96c4",
"`k c #f4f6f4",
"`l c #7c7a4c",
"`m c #ecc21c",
"`n c #c4d2ec",
"`o c #243e74",
"`p c #646674",
"`q c #f4e6cc",
"`r c #9c9ea4",
"`s c #4c5a5c",
"`t c #fce24c",
"`u c #ccae44",
"`v c #7c7664",
"`w c #ecda9c",
"`x c #042e84",
"`y c #ecd24c",
"`z c #eceaec",
"`A c #344664",
"`B c #acaeb4",
"`C c #14469c",
"`D c #647284",
"`E c #a4a294",
"`F c #d4d2c4",
"`G c #2c62c4",
"`H c #d4be8c",
"`I c #a47e1c",
"`J c #244684",
"`K c #f4d62c",
"`L c #c4a24c",
"`M c #1c3a7c",
"`N c #dcb61c",
"`O c #fcfef4",
"`P c #d4dee4",
"`Q c #5c6e8c",
"`R c #8ca6d4",
"`S c #747a84",
"`T c #d4be54",
"`U c #dcb634",
"`V c #042e9c",
"`W c #ecf2f4",
"`X c #cc9e14",
"`Y c #dce6f4",
"`Z c #0c3a9c",
"`0 c #fcf6ec",
"`1 c #9ca6b4",
"`2 c #445e9c",
"`3 c #dcd2bc",
"`4 c #f4d63c",
"`5 c #947624",
"`6 c #e4c22c",
"`7 c #646e7c",
"`8 c #3c62ac",
".` c #bcbab4",
".. c #e4b614",
".# c #848a9c",
".a c #042a84",
".b c #9c9284",
".c c #8c722c",
".d c #2c4274",
".e c #f4eed4",
".f c #5c667c",
".g c #fcee4c",
".h c #043694",
".i c #9cb2dc",
".j c #6c727c",
".k c #b4aa9c",
".l c #2c4674",
".m c #d4defc",
".n c #94aedc",
".o c #dcba44",
".p c #c49e2c",
".q c #aca6a4",
".r c #dcd2cc",
".s c #e4ba24",
".t c #6c6654",
".u c #2c56ac",
".v c #c4b284",
".w c #043aac",
".x c #d4dae4",
".y c #244284",
".z c #545e64",
".A c #847664",
".B c #e4dac4",
".C c #042e94",
".D c #f4de4c",
".E c #f4eeec",
".F c #b4b6b4",
".G c #b48604",
".H c #fcda34",
".I c #94aadc",
".J c #f4f2ec",
".K c #d4a614",
".L c #e4e6f4",
".M c #fcfafc",
".N c #bcc6d4",
".O c #e4ba14",
".P c #8c8a8c",
".Q c #9c9e9c",
".R c #6c768c",
".S c #2c4684",
".T c #042694",
".U c #cccecc",
".V c #e4eaec",
".W c #9c720c",
".X c #043ea4",
".Y c #d4ae24",
".Z c #949aa4",
".0 c #f4fafc",
".1 c #ecc624",
".2 c #244274",
".3 c #6c6a6c",
".4 c #ece6dc",
".5 c #545664",
".6 c #fce254",
".7 c #d4ae3c",
".8 c #04328c",
"#` c #eceeec",
"#. c #ac7a04",
"## c #5476bc",
"#a c #84a2d4",
"#b c #bcb2a4",
"#c c #847a6c",
"#d c #94969c",
"#e c #a4862c",
"#f c #1c428c",
"#g c #dcc654",
"#h c #3c6abc",
"#i c #fcf264",
"#j c #74623c",
"#k c #b4b2a4",
"#l c #d4a204",
"#m c #c4c2c4",
"#n c #f4d22c",
"#o c #04369c",
"#p c #d4c68c",
"#q c #44669c",
"#r c #f4de64",
"#s c #ccd2dc",
"#t c #746644",
"#u c #dcdad4",
"#v c #9c6e0c",
"#w c #aca69c",
"#x c #3462bc",
"#y c #9c7a2c",
"#z c #dce2f4",
"#A c #9ca2b4",
"#B c #ecd65c",
"#C c #747e94",
"#D c #3c66bc",
"#E c #bc8a04",
"#F c #a4a6ac",
"#G c #6c6e7c",
"#H c #4c5a6c",
"#I c #7c7674",
"#J c #3c4664",
"#K c #fce644",
"#L c #144aa4",
"#M c #a4a69c",
"#N c #f4da34",
"#O c #c4a654",
"#P c #8caadc",
"#Q c #dcba3c",
"#R c #dceafc",
"#S c #0c3e9c",
"#T c #fcfaf4",
"#U c #dcd6c4",
"#V c #f4da3c",
"#W c #e4c62c",
"#X c #f4f2dc",
"#Y c #6c767c",
"#Z c #2c4a7c",
"#0 c #d4e2f4",
"#1 c #acaaa4",
"#2 c #2c5aac",
"#3 c #c4b68c",
"#4 c #e4decc",
"#5 c #8c8e8c",
"#6 c #d4b22c",
"#7 c #eceae4",
"#8 c #042684",
"a` c #c49604",
"a. c #cca214",
"a# c #9c9684",
"aa c #b4ae9c",
"ab c #dcd6cc",
"ac c #e4eaf4",
"ad c #d4b23c",
"ae c #3466bc",
"af c #d4cabc",
"ag c #e4e6ec",
"ah c #043aa4",
"ai c #f4f6fc",
"aj c #ecc224",
"ak c #ecdaa4",
"al c #042e8c",
"am c #d4d2cc",
"an c #f4d634",
"ao c None",
"ap c #d4deec",
"aq c #8ca6dc",
"ar c #dcb63c",
"as c #ecf2fc",
"at c #fcf6f4",
"au c #dcd2c4",
"av c #e4c234",
"aw c #646e84",
"ax c #bcbabc",
"ay c #e4b61c",
"az c #042a8c",
"aA c #6c7284",
"aB c #2c467c",
"aC c #dcba4c",
"aD c #aca6ac",
"aE c #84766c",
"aF c #f4f2f4",
"aG c #e4ba1c",
"aH c #24427c",
"aI c #6c6a74",
"aJ c #eceef4",
"aK c #b4b2ac",
"aL c #0436a4",
"aM c #0c3ea4",
"aN c #f4da44",
"aO c #2c5ab4",
"aP c #8c8e94",
"aQ c #000000",
"aR c #000000",
"aS c #000000",
"aT c #000000",
"aU c #000000",
"aV c #000000",
"aW c #000000",
"aX c #000000",
"aY c #000000",
"aZ c #000000",
"a0 c #000000",
"a1 c #000000",
"a2 c #000000",
"a3 c #000000",
"a4 c #000000",
"a5 c #000000",
"a6 c #000000",
"a7 c #000000",
"a8 c #000000",
/* pixels */
"aoaoaoaoaoaoaoaoaoaoaoaoaoaoaoaoaoaoaoaoaoaoaoaoaoaoaoaoaoaoaoao",
"aoaoaoaoao.m.Maoaoaoaoaoaoaoaoaoaoaoaoaoaoaoaoaoaoao`YaJaoaoaoao",
"aoao.M.M#z.C#A.0.M.Mao.Mao.Mao.Mao.Mao.Mao.Mao.M.M.MaO`2.J.Maoao",
"aoaoaoaoas#o.j`Oaoaoaoaoaoaoaoaoaoaoaoaoaoaoaoaoaoao#h.d#4aoaoao",
"aoao.iaq#a.X`2`R.n.I.n.I.n.I#Paq`R#P.I.n.I.n.I.n#P.naO`C`j`Racao",
".Mao`8#8`x`h.h.a.a.a.a.a.a.a.T`s`laz.a.a.a.a.a.a.a.a.h.h.8``.#`k",
"aoao#`aa.Z.X.5`E#M#M.q#M#M#F`..6.g#e.##1`E#F#w#M#F.k#2`o.b#M.`aF",
"aoaoaoaoac#oaw`kaoaoaoaoaoak.6#N.1`m`Lagaoaoaoaoaoao#D.2abaoaoao",
"aoaoaoao`Y#oaw.Jaoaoaoao`waN.HaG`N`i#l`L`eaoaoaoaoao#DaH`Fao.Mao",
"aoaoaoao#z`haw.Jao.Maoao.7`I#v.W#v`g.W`ga#aiao.Maoao#DaHauao.Mao",
"aoaoaoao.L#oaw.Jaoaoaoao`z#F.Z`r`r`r`r`rax`kaoaoaoao#DaHamaoaoao",
"aoaoaoao`Y#o`Dat#XarauaoaoaoaoaoaoaoaoaoaoaoaC#paiao#D.2.raoaoao",
"aoaoaoao.L#o`D.B#r`X#caFaoaoaoaoaoaoaoaoaoao#Q`y.v.M#haH`Faoaoao",
"aoaoaoao.LaL`p#B#K`b`vaJaoaoaoaoaoaoaoaoaoao.o#i#W`H`G`o.raoaoao",
"aoaoaoao#0#Z`T#K.1#E`v.Eaoaoaoaoaoaoaoaoaoaoar.6#n`N.z`Jauaoaoao",
"aoaoaoao#0#H.D`KaG#E`vasaoaoaoaoaoaoaoaoaoaoaranaj..#t.y`Faoaoao",
"aoaoaoao.LaL`aaGaG.G.AaJaoaoaoaoaoaoaoaoaoaoar.H`N#y`C#Z.raoaoao",
"aoaoaoao`Y`h.f`f`X#E`v`Waoaoaoaoaoaoaoaoaoao#Q.1.c#I.uaBamaoaoao",
"aoaoaoao.L#o`Dag#3#..AaJaoaoaoaoaoaoaoaoaoao`i`5aI#uaeaH.raoaoao",
"aoaoaoao`Y#oaw`k#Taa.QaFaoaoaoaoaoaoaoaoaoao.r.P.Uao#h.2amaoaoao",
"aoaoaoao.L#o`D.Eao.MaFaoaoaoaoaoaoaoaoaoaoaoaoaiaoao#DaH.raoaoao",
"aoaoaoao`Y#o`D.Jaoaoaoao.e`q`q`q`q`q`q.eaoaoaoaoaoao#D.2.raoaoao",
"aoaoaoao.L#o`D.Jaoaoaoao.7`6av`6aG`NaGa`#b.Maoao.Mao#DaHamaoaoao",
"aoao.Mao`Y#oaw.Jao.Maoao.B#g#i.6`4#N#6#t#d`kaoao.Mao#DaHauao.Mao",
"aoaoaoaoac#oaA`0aoaoaoaoaoaf`U.1`m`X#t#5.Eaoaoaoaoao#D.2abaoaoao",
"aoaoac`Y`n`h`Q`P.L`Y.L`Y.L`Y`B.p.K.t#C#sac`Y.L`Y`Yacae.y#m`Y.Mao",
"aoao.u`V.X`Zah`h#o`h#o#o#o`h.w`J`A.X.X`h#o#o`h#o#o#o.X`h.X`V`1.M",
"aoao.N`S`QaM`A`7awaw`D`Dawaw`D`7`Q`7`7#Gaw`Daw`Daw#Y`d`M`p`7#d`k",
"aoaoaoat.x#o`7.4at.J.J.J.J.J.J.J.J.J.JaF.J.J.J.J.E`0#x.2af`kaFao",
"aoaoaoaoac`C#GaFaoaoaoaoaoaoaoaoaoaoaoaoaoaoaoaoaoao##.lamaoaoao",
"aoaoaoaoaoamax`kaoaoaoaoaoaoaoaoaoaoaoaoaoaoaoaoaoao#7aK`eaoaoao",
"aoaoaoaoaoaoaoaoaoaoaoaoaoaoaoaoaoaoaoaoaoaoaoaoaoaoaoaoaoaoaoao"
};
