/* XPM */
static char *imgmarch_xpm[] = {
/* width height num_colors chars_per_pixel */
"    32    32      256            2",
/* colors */
"`` c #141c20",
"`. c #0c95f9",
"`# c #8c8f8f",
"`a c #145684",
"`b c #2cc8fc",
"`c c #545757",
"`d c #4c8e9c",
"`e c #8cdee4",
"`f c #247294",
"`g c #2c3c44",
"`h c #0caafc",
"`i c #c4cacc",
"`j c #5cdcfb",
"`k c #3c565c",
"`l c #44aacc",
"`m c #3c7288",
"`n c #94b2bc",
"`o c #54727c",
"`p c #443e3c",
"`q c #dceaec",
"`r c #3c76a4",
"`s c #2c91c9",
"`t c #2caae4",
"`u c #64ebfc",
"`v c #244e5c",
"`w c #9c9f9e",
"`x c #74b6c4",
"`y c #146694",
"`z c #142e3c",
"`A c #546c7c",
"`B c #3c6684",
"`C c #4cbfe1",
"`D c #34baf4",
"`E c #44c9fc",
"`F c #7ca6c4",
"`G c #a4defc",
"`H c #747371",
"`I c #4c95d4",
"`J c #74daec",
"`K c #04a2fc",
"`L c #b4b6b4",
"`M c #4cadfb",
"`N c #3c829c",
"`O c #ccdedc",
"`P c #ece9eb",
"`Q c #2c2b2f",
"`R c #848788",
"`S c #9c9896",
"`T c #64e4fc",
"`U c #44565c",
"`V c #3482a4",
"`W c #344b59",
"`X c #4cd7fc",
"`Y c #545e5c",
"`Z c #0c86e4",
"`0 c #4c7274",
"`1 c #444c50",
"`2 c #2cb4fa",
"`3 c #246a94",
"`4 c #2c4654",
"`5 c #b4c2c4",
"`6 c #84eefc",
"`7 c #2c82a4",
"`8 c #449ee4",
".` c #148ed4",
".. c #2c5670",
".# c #c4d6d4",
".a c #345a74",
".b c #249ee4",
".c c #a4a9aa",
".d c #a4f2fc",
".e c #747a7c",
".f c #44b6fc",
".g c #f4f7f6",
".h c #343433",
".i c #545254",
".j c #3cb4e8",
".k c #645a5c",
".l c #44a0c0",
".m c #2c728c",
".n c #6cdefc",
".o c #347a94",
".p c #74fafc",
".q c #6c6c6b",
".r c #3cbdf9",
".s c #44d1fc",
".t c #14a0fc",
".u c #4484b8",
".v c #345167",
".w c #949797",
".x c #5c5856",
".y c #64ddfc",
".z c #44b2dc",
".A c #64f2fc",
".B c #1c6e94",
".C c #3c6d90",
".D c #a49790",
".E c #445254",
".F c #c4c5c6",
".G c #44a6ec",
".H c #b4f2fc",
".I c #242624",
".J c #3cc8fc",
".K c #3c3a39",
".L c #1cb2fc",
".M c #94c6cc",
".N c #ccf2fc",
".O c #4476a4",
".P c #245270",
".Q c #1c333e",
".R c #dcdbdc",
".S c #8c8989",
".T c #6ce5fb",
".U c #54defc",
".V c #4c4b4a",
".W c #34b6ec",
".X c #246e94",
".Y c #3c4448",
".Z c #9cfcfc",
".0 c #34627f",
".1 c #3c332e",
".2 c #54d2fc",
".3 c #14a6fc",
".4 c #241e1c",
".5 c #049afc",
".6 c #94908c",
".7 c #146090",
".8 c #5496a4",
"#` c #9ce6f4",
"#. c #acaeac",
"## c #2c86bc",
"#a c #647274",
"#b c #44769c",
"#c c #1492ec",
"#d c #246290",
"#e c #54bafc",
"#f c #646664",
"#g c #6c7e8c",
"#h c #34a4d8",
"#i c #74e2fc",
"#j c #eceeec",
"#k c #446264",
"#l c #447a84",
"#m c #1c9ae4",
"#n c #a4babc",
"#o c #3caee4",
"#p c #4c8a94",
"#q c #349acc",
"#r c #b4e6fc",
"#s c #dcf6fc",
"#t c #a4fafc",
"#u c #b4fefc",
"#v c #242a2c",
"#w c #4496b4",
"#x c #247aac",
"#y c #646263",
"#z c #d4cecc",
"#A c #94f2fc",
"#B c #d4d3d4",
"#C c #847e7c",
"#D c #54b3fc",
"#E c #2c7aa4",
"#F c #446e74",
"#G c #bcbabc",
"#H c #348ab4",
"#I c #34525c",
"#J c #94dcfc",
"#K c #1c72a4",
"#L c #44c2f4",
"#M c #8cbac4",
"#N c #444644",
"#O c #31c2fc",
"#P c None",
"#Q c #447eac",
"#R c #e4e2e4",
"#S c #3c5e64",
"#T c #347ea4",
"#U c #74bed4",
"#V c #2c8ab4",
"#W c #448ac1",
"#X c #20b6fc",
"#Y c #d4fafc",
"#Z c #149afc",
"#0 c #2caefc",
"#1 c #1c6894",
"#2 c #3c4e4c",
"#3 c #2c668c",
"#4 c #4cb4d0",
"#5 c #4c9adc",
"#6 c #44a6c4",
"#7 c #3cc2fc",
"#8 c #2c6e84",
"a` c #3c627f",
"a. c #4c96a4",
"a# c #1c1a1c",
"aa c #343a3c",
"ab c #4caed4",
"ac c #e4e6e4",
"ad c #a4a1a3",
"ae c #7c7674",
"af c #bcb4b0",
"ag c #54aefc",
"ah c #342e2c",
"ai c #344551",
"aj c #bcbebc",
"ak c #4c9fe7",
"al c #aca9a9",
"am c #fcfafc",
"an c #3c7c9c",
"ao c #746e6c",
"ap c #1ca2f4",
"aq c #ccc6c4",
"ar c #1c628c",
"as c #f4f2f4",
"at c #2476ac",
"au c #34c6fc",
"av c #cccbcc",
"aw c #3c5a6c",
"ax c #3c7494",
"ay c #4c423c",
"az c #6cedfc",
"aA c #7cd6ec",
"aB c #0c9efc",
"aC c #44869c",
"aD c #3c86a4",
"aE c #54d8fc",
"aF c #8cf2fc",
"aG c #ccd2d4",
"aH c #2ca2e4",
"aI c #7c7b7c",
"aJ c #4cb2fc",
"aK c #3cb6f4",
"aL c #2c769c",
"aM c #4cd1fc",
"aN c #bcf6fc",
"aO c #24aefc",
"aP c #4c7aa4",
"aQ c #1c364c",
"aR c #e4dedc",
"aS c #4c7e84",
"aT c #acfefc",
"aU c #1c6aa4",
"aV c #4cb6dc",
"aW c #4c5659",
"aX c #4ca6f4",
"aY c #2c5274",
"aZ c #2c4e5c",
"a0 c #5c5e5c",
"a1 c #5c5254",
"a2 c #6cf2fc",
"a3 c #1c6ea4",
"a4 c #34b6fc",
"a5 c #1ca6fc",
"a6 c #0c9afc",
"a7 c #6c7274",
"a8 c #7ce2fc",
/* pixels */
"#P#P#P#P#P#P#P#P#P#Pac.S.qaI.q`S#j#P#P#P#P#P#P#P#P#P#P#P#P#P#P#P",
"#P#P#P#P#P#P#P#P#P#R`c#a`O`q.#`caIam#P#P#P#P#P#P#P#P#P#P#P#P#P#P",
"#P#P#P#P#P#P#Pam#P.D#kaT#taFaT`e#2av#P#P#P#P#P#P#P#P#P#P#P#P#P#P",
"#P#P#P#P#P#P#P#Pam`Ha.az`T`Taz.p`0al#P#P#P#P#P#Pam#P#P#P#P#P#P#P",
"#P#P#P#P#P#P#P#Pas#y`d`u`T`Taz`T.Ealamam#P#P#Pamam#P#P#P#P#P#P#P",
"#P#P#P#P#P#P#P#Pas`H#I`j`T`Taz`d.K#G#P#P#P#P#P#P#P#P#P#P#P#P#P#P",
"#P#P#P#P#P.gam#P#Pad.h#4`T.y`T#S.V.Fam#P#P#Pas#jasam#P#P#P#P#P#P",
"#P#Pasafad.w`Sal#..qaWaA.y`j`6#M.x#yaI.w.waIaIae`Ras#P#P#P#P#P#P",
"am#Pad.E.w`S`S.w`SaW`A#U.yaE.T.d.N`i.cadal#.`i.M`U#z#Pam#P#P#P#P",
"#P#P#CaD.Z.H.H#u`naP`8#b`C`jaE`j#i#A#u#u#u#u.Z`J.Eaq#P#P#P#P#P#P",
"#Pamao`7au`Dau#h.0`Maga``laEaEaEaEaEaE`j`j`j.Aa.ay#B#P#P#P#P#P#P",
"#P#j#y#H.J#7.Jan`IaJ.O`v.jaMaEaEaE`j`j`j`T`ja2aS#y`P#P#P#P#P#P#P",
"#P#Ra0`s#O.r#o`r`M#D`B#8#LaMaV`CaEaEaE`j`j`jaz#F.Sam#Pam#P#P#P#P",
"#P.RaW`s`b#O#q.u`MaJ.O.o.s`E`N.CaVaE.2aE`j`j`T#l.D#P#P#P#P#P#P#P",
"#P#R.x..#q#h#T#WagaJak.0aK`Eax`Iax#6aE.2aEaEaz#pa1`iaqav#j#P#P#P",
"#P#j.S.haaaa`g.u`MagaJ.uax.j.a#5`M.C#6aEaM.2.n#`.e.q#C.q`cad#P#P",
"#Pam.FaI#y.x.h`Bag`MagaJ#W`B#I#5#D`M.C.l`X.2aEa8aN#Y#Y#s#n#Nad#P",
"#P#P.g#R#B.FaIaiaX`M`Mag#DaX`I`M`Mag`M.C#w`XaMaM.2`j`j#iaT`xaWam",
"#P#P#P#P#P#P#B.V.C#D`M`M`M#DaJagaJag`Mag.C.laMaM.2.2aEaE.y`T`o`P",
"#P#P#Pamam#PamaI.I#W#Dag`M`Mag`Mag`M`M#Dakan`EaMaMaM.2.2aEaE`0#R",
"#P#Paq.q#f`w#G.V#v`g#QagaJ#D`M#D`MagaJaga`#8.JaM.s`X`XaEaE`m.V`P",
"#Pas#f#g`5aI#C`#`F.P`z.a.uakaX`Mag`Maga`aQ#V.r`N.aaCaVaba`ah`Has",
"#P#zai.G#J`G#r#J.f.``a``a##v`WakaJ`M`B.Q.B.W.jai.1ahaa.h.ha0#Gam",
"#PafaY.t.taB.t.t`h#m`4.I`Qa#`Q#5#D`B.Q`y`t#7aK`W#ya7#y.kaIajam#P",
"#Pad.PaBa6aB.t#Z`hat.1#fal`#.Yak.C.Q`yaH`2.r`E#3.6.RaG#B#Ram#P#P",
"#P`S#d.5a6a6a6.taB#da1av#PaRaW.vaQ.7.b#X`2a4au`f.D#P#P#P#P#P#P#P",
"#P.6aY`K.5a6.5#Zapa3.x#j#P#R#N``#1.baO#0#0`2#O`3.D#Pam#P#P#P#P#P",
"#Pal.h#d`Z#c.5`K`h#c`1#B#P#B.K.7.t.L.L.L.L#X`b`f.D#Pam#P#P#P#P#P",
"#P.F`cahaaai`3aUa3..#NaG#P#B.VaZ`3at#######x`VaZ`S#Pamam#P#P#P#P",
"#P#jal.q.i.K.1.1.1.1aoaR#P#R.e`p.1.1.h.K.K.1ah.K`L#P#P#P#P#P#P#P",
"#P#Pas.Raj`w`R`R`R`#`5am#Pasav`S`R.e.q.q.q.e`R.6.R#P#P#P#P#P#P#P",
"#P#P#P#P#Pas`Pac`P`Pamam#P#Pam#jac#BaG.Fav#Bac`P.g#P#P#P#P#P#P#P"
};
