/* XPM */
static char *importpic_xpm[] = {
/* width height num_colors chars_per_pixel */
"    32    32      256            2",
/* colors */
"`` c #046204",
"`. c #1caa0c",
"`# c #94a6b4",
"`a c #a4d6fc",
"`b c #e4a644",
"`c c #948a24",
"`d c #a4bed4",
"`e c #b4c2b4",
"`f c #047a04",
"`g c #d4d6dc",
"`h c #5cba2c",
"`i c #fc6a04",
"`j c #b4cac0",
"`k c #44861c",
"`l c #d4eefc",
"`m c #3ca634",
"`n c #3cba18",
"`o c #049604",
"`p c #eceeec",
"`q c #94beec",
"`r c #b4cae1",
"`s c #d4ae94",
"`t c #848e9c",
"`u c #f48a2c",
"`v c #849ab4",
"`w c #b4bee2",
"`x c #ecfafc",
"`y c #9ccaf9",
"`z c #247a0c",
"`A c #444a54",
"`B c #e4e2f4",
"`C c #548664",
"`D c #c4cadc",
"`E c #ccc6c8",
"`F c #3cb21c",
"`G c #4cba24",
"`H c #acaaac",
"`I c #b4d2ec",
"`J c #e4cebc",
"`K c #5cc22c",
"`L c #fcf2ec",
"`M c #246e1c",
"`N c #848ab4",
"`O c #dca27c",
"`P c #accae7",
"`Q c #048604",
"`R c #fc7a18",
"`S c #24960c",
"`T c #bccadd",
"`U c #b4c6da",
"`V c #cccecc",
"`W c #046e04",
"`X c #bcd6ec",
"`Y c #c4c2bc",
"`Z c #c4cebc",
"`0 c #dcf6fc",
"`1 c #ecf6fb",
"`2 c #ec9a3c",
"`3 c #9ca2ac",
"`4 c #eceae4",
"`5 c #4cc224",
"`6 c #2cae0c",
"`7 c #9cb2c4",
"`8 c #64921c",
".` c #dca684",
".. c #4cae39",
".# c #a4bedc",
".a c #949aa4",
".b c #2c862c",
".c c #747a7c",
".d c #4cb224",
".e c #5cce2c",
".f c #ccced4",
".g c #ace2fc",
".h c #acc6b4",
".i c #dcd6dc",
".j c #e4eef7",
".k c #f4f2ec",
".l c #fcfafc",
".m c #9cd2fc",
".n c #dceaf8",
".o c #8c92b6",
".p c #fc8214",
".q c #b4c6e4",
".r c #7c8ea4",
".s c #a4a6ac",
".t c #b4d6ec",
".u c #bcc6cc",
".v c #1c8204",
".w c #7ca68c",
".x c #448e3c",
".y c #44ba22",
".z c #14a204",
".A c #eceefc",
".B c #b4caec",
".C c #8496a4",
".D c #a4caf4",
".E c #247a2c",
".F c #acbadc",
".G c #5cca2c",
".H c #acd2f4",
".I c #148604",
".J c #2c9e14",
".K c #bccaec",
".L c #047604",
".M c #c4d2bc",
".N c #fc9630",
".O c #54c22a",
".P c #34b614",
".Q c #a4c6ec",
".R c #949abc",
".S c #146a14",
".T c #9caebc",
".U c #f4a644",
".V c #acbed1",
".W c #b4bec8",
".X c #d4d6ec",
".Y c #fc7604",
".Z c #bccad4",
".0 c #548614",
".1 c #44ae34",
".2 c #ec924c",
".3 c #bcc2e4",
".4 c #f4fafc",
".5 c #54626c",
".6 c #54ba24",
".7 c #acceeb",
".8 c #fc7e1a",
"#` c #0c6e04",
"#. c #749e54",
"## c #ccbeb4",
"#a c #8c9254",
"#b c #5c6e7c",
"#c c #ec9e5c",
"#d c #acb6c4",
"#e c #ccd6dc",
"#f c #149a0c",
"#g c #6cd634",
"#h c #347e34",
"#i c #8ca684",
"#j c #a4bacc",
"#k c #2c962c",
"#l c #748e24",
"#m c #2c760c",
"#n c #fcae4c",
"#o c #94aac4",
"#p c #dccecc",
"#q c #54b43c",
"#r c #1c8a1c",
"#s c #34a02c",
"#t c #fc922c",
"#u c #a4b2dc",
"#v c #94a2b4",
"#w c #2c822c",
"#x c #fc9e38",
"#y c #c4c6c7",
"#z c #c4cacf",
"#A c #ece9fc",
"#B c #4c860c",
"#C c #34b21a",
"#D c #e4a674",
"#E c #7c7a84",
"#F c #046a04",
"#G c #048204",
"#H c #c4d2dc",
"#I c #048e04",
"#J c #2c8e2c",
"#K c #1c821c",
"#L c #9cbedc",
"#M c #acc6dc",
"#N c #24aa14",
"#O c #acd6f4",
"#P c #bcbebc",
"#Q c #bccebc",
"#R c #0c920c",
"#S c #8c9298",
"#T c #64c634",
"#U c #54aa3c",
"#V c #d4ced4",
"#W c #9496bc",
"#X c #1c9e0c",
"#Y c #e4d2d4",
"#Z c #dcf1fc",
"#0 c #44aa34",
"#1 c #8c8eb4",
"#2 c #e4f7fc",
"#3 c #acbedc",
"#4 c #fc8624",
"#5 c #b4dafc",
"#6 c #2c7e2c",
"#7 c #fc7214",
"#8 c #8caa94",
"a` c #9ca6ac",
"a. c #fc8a24",
"a# c #8c9abc",
"aa c #bcd2e9",
"ab c #bcc6d4",
"ac c #d4cec8",
"ad c #f4f6f4",
"ae c #a4a2a4",
"af c #e4eaf4",
"ag c #bcc6e5",
"ah c #b4bae1",
"ai c #fca63c",
"aj c #8c96a4",
"ak c #64ca2c",
"al c #646e7c",
"am c #d4dadf",
"an c #448a14",
"ao c #ecf2f4",
"ap c #b4cee4",
"aq c #b4c2e4",
"ar c #9ccef4",
"as c #e4e6f5",
"at c #cccac4",
"au c #3cb61a",
"av c #5cc634",
"aw c #fcf6f0",
"ax c #bccedc",
"ay c #bcdaf4",
"az c #c4c6b4",
"aA c #2cb214",
"aB c #ccd2d6",
"aC c #dcdae4",
"aD c #e4f2fc",
"aE c #8c96bc",
"aF c #7c92ac",
"aG c #44be1c",
"aH c #54c629",
"aI c #949ec1",
"aJ c #acc2d4",
"aK c #c4ced4",
"aL c #7c7e8b",
"aM c #24ae0c",
"aN c #acdafc",
"aO c #046604",
"aP c #047e04",
"aQ c #5cbe2c",
"aR c #fc6e04",
"aS c #3caa34",
"aT c #ecfefc",
"aU c #4cbe24",
"aV c #048a04",
"aW c #047204",
"aX c #dcaa84",
"aY c #a4c2dc",
"aZ c #4cb624",
"a0 c #accab4",
"a1 c None",
"a2 c #ecf2fc",
"a3 c #b4ceec",
"a4 c #a4cef4",
"a5 c #bcceec",
"a6 c #f4fefc",
"a7 c #54be24",
"a8 c #0c7204",
/* pixels */
"a1a1a1a1a1a1a1a1a1a1a1a1a1a1a1a1a1a1a1a1a1a1a1a1a1a1a1a1a1a1a1a1",
"a1a1a1a1a1a1a1a1a1a1a1a1a1a1a1a1a1a1a1a1a1a1a1a1a1a1a1a1a1a1a1a1",
"a1a1a1a1a1a1a1a1a1a1a1a1a1a1a1a1a1a1a1a1a1a1a1a1a1a1a1a1a1a1a1a1",
"aaaaaaaaaaaaa5aaa5a5a5a5a5a5.K.K.K.K`T.Kag.Kag.qagagaqagaq.3`w`4",
"a3a2.l.la1a1a1a1a1a1a1a1.la1.4a1.4.4.4`1`1`1`1`1aDaDaDaD#Z#ZaI`H",
"a5`1a1.l.k.k`L.k`L`Ladaw.kawadawad.kadadad`1aoao`1aoaoaD#2`1aIae",
"a5a2a1.f.TaJ#j.F`d.VaJaJaJaJaqaJ`Uaq`U`U`U`U`U`r`U`T`U#e`1#2a#ae",
"a5aoa1.f`qar`a.gaN`y`y.D`ya4`ya4`ya4.D`y.Da4.D.D.Da4.Q#e#2#2.Rae",
".Ba2a1.f`q.H`v#baF#5.H#O`P`P.7`P.7`P.7`P.7.7.7ap`Pap#M#e#2#2.Rae",
"`Ta2a1`V.##L#o#o.5`A#b.r`P`P`P.7`r.7`r.7`r`r`r`r`rap`U#e`1#2a#ae",
".Ba2a1.f`da3`I`X`P.C.V#v#jay`r`rap`r`r.Z`r.Zap.Z`rax`U#e#2aD.Rae",
"`Ta2a1.f.Vap`raaaa`T.raj`#.T`T`T.Zax`I`Xapax.Z.ZaKax.u`g#2#2aEae",
".Ba2a1.f.V.Z#v`t#d#d.V#S.c.a.WaKaa##.``O`s#z#H#z#z#z#y#e#2#2#Wae",
".qaoa1.f#y.X.Z.sa`.u#H#eam#eaK#y.2aR`i`iaR`RaXaK#z`V`E`g#2aDaEae",
"aga2a1#y`C.w.faCaB#y#z#z`E#zat`u.Y`R.8.8.8`R.Y#D.iac`Yam#2#2#Wae",
".q.ja1`eaOa8#6#i#V.iacatat`V#c.8a.#4a.a.#4a.#4#4#.#r#K`j`x#ZaEae",
".q`pa1.M#T#g`G`S.x#i`Y#p#Y`J.N#t#t#t#t#t#t#t.N#B.L`f.L.h`x#Z#Wae",
"aqaDa1`ZaQak#Takau.v.S`M.E#a`2#x#x#x#x#x#x#x.0`f`f`f.L.h`x#Z.oae",
"aq.ja1`Z.6.G.O.O.O`5.J#GaP.L#m`c.U#n#n#n`ban`f`f.L.LaW.h`x#Z.oae",
"aq.ja1#Q.6av.OaUaUaGaU.P#f#I`QaP`z`k#l`8.v`f.L.L.LaWaW.h#2#Z#Wae",
"aq.ja1#QaZ.OaUaUaU.yauau.P#f#I`Q#G#GaP`f`f`f.LaWaWaW`W.h#2#Z.oae",
"`w.ja1#Q.d`5aU`G.y.yau#C#C#C#N#R`Q#GaPaPaP`f.L.LaW`W#Fa0#2#Z#1ae",
"aq.na1#Q`FaG.y`n.P.P#CaA`6#N`.`..z`o`QaP.LaW`W`WaOaO``.h#2#Z#1ae",
"#3.na6#Q#U#q#q#q#q#U.....1.1#0#0aSaS`m#s#s#k#r.b.b#6#h`j#2`l#1ae",
"ah.n`1af`B`B`B`Basafas#Aas#A#Aas#Aaf#Aafaf#A.A.A.j.j.j.n`l#Z#1ae",
"`waDaT`xa6aTa6a6a6a6aTa6aTa6aTaTaTaTaTaT#2aT`0#2#2`0`0`0`0`0#1.s",
"#uaqagag.qagaqagaq.3aqaq.3aq.3`w.3`w`w`w`w`w`w#3ahahah.Fah`w`Nae",
"aB#S#EaLaLaLaLaL#EaL#EaL#E#E#E#E#E#E#E#E#E#E#E#E#E#E#E#E#E#E#E#P",
".l.k`p.k`4`p.k`4`p.k`p`p.k`p`pao`pao.k`p`p`p.k`p`p`p`p`p`p`p`p.l",
"a1a1a1a1a1a1a1a1a1a1a1a1a1a1a1a1a1a1a1a1a1a1a1a1a1a1a1a1a1a1a1a1",
"a1a1a1a1a1a1a1a1a1a1a1a1a1a1a1a1a1a1a1a1a1a1a1a1a1a1a1a1a1a1a1a1",
"a1a1a1a1a1a1a1a1a1a1a1a1a1a1a1a1a1a1a1a1a1a1a1a1a1a1a1a1a1a1a1a1"
};
