/* XPM */
static char *rastr2vector_xpm[] = {
/* width height num_colors chars_per_pixel */
"    32    32      256            2",
/* colors */
"`` c #042204",
"`. c #0c9204",
"`# c #847a74",
"`a c #84925c",
"`b c #045b04",
"`c c #84ca54",
"`d c #54663c",
"`e c #0c38a0",
"`f c #34a2a4",
"`g c #446e88",
"`h c #cce28c",
"`i c #044804",
"`j c #8cb25f",
"`k c #2cb6fc",
"`l c #246694",
"`m c #d4ea94",
"`n c #34421c",
"`o c #647e84",
"`p c #ec6e6c",
"`q c #f4feac",
"`r c #447e2c",
"`s c #a48888",
"`t c #8cc2cc",
"`u c #54923c",
"`v c #848a64",
"`w c #5492ac",
"`x c #448694",
"`y c #047904",
"`z c #8ccae4",
"`A c #043eac",
"`B c #b49e9c",
"`C c #345624",
"`D c #4ca8f2",
"`E c #5cb6c4",
"`F c #cceaf4",
"`G c #04b004",
"`H c #848789",
"`I c #241e1c",
"`J c #949392",
"`K c #6c6e54",
"`L c #145ae4",
"`M c #ccf6fc",
"`N c #244684",
"`O c #2c4044",
"`P c #acb374",
"`Q c #647644",
"`R c #acaeac",
"`S c #4483bc",
"`T c #94eee4",
"`U c #948e87",
"`V c #246654",
"`W c #e4e6e4",
"`X c #4c95d7",
"`Y c #4c4e4c",
"`Z c #8c9a9c",
"`0 c #447dac",
"`1 c #2c7eac",
"`2 c #0c7a44",
"`3 c #24b21c",
"`4 c #8c8e90",
"`5 c #e4fdfc",
"`6 c #046a04",
"`7 c #54b6e4",
"`8 c #6c8a44",
".` c #bcc0c0",
".. c #4ca0e7",
".# c #c4cacc",
".a c #2c6e9c",
".b c #345264",
".c c #5cc6fc",
".d c #04ba04",
".e c #8c898a",
".f c #d4f6fc",
".g c #448bc2",
".h c #041e5c",
".i c #848274",
".j c #a4ca74",
".k c #5c5c5c",
".l c #44759f",
".m c #2c421c",
".n c #9cb664",
".o c #3c424c",
".p c #6c8a94",
".q c #54a63c",
".r c #048d04",
".s c #144ec4",
".t c #4caefc",
".u c #242e24",
".v c #7c726c",
".w c #a4fefc",
".x c #c4dadc",
".y c #046406",
".z c #243e74",
".A c #045004",
".B c #9c9593",
".C c #6c6e6c",
".D c #345274",
".E c #aceadc",
".F c #44befc",
".G c #d4fefc",
".H c #5c6668",
".I c #043404",
".J c #0ca604",
".K c #94be64",
".L c #345e8c",
".M c #b4ccd4",
".N c #dcf2fb",
".O c #04b604",
".P c #24523c",
".Q c #acbe74",
".R c #747674",
".S c #b4b7b6",
".T c #eceeec",
".U c #9c9c9c",
".V c #f4f6f4",
".W c #4ca2f4",
".X c #444e5c",
".Y c #4c8abc",
".Z c #444644",
".0 c #dcdedc",
".1 c #747172",
".2 c #ace6fc",
".3 c #14961c",
".4 c #0c3e94",
".5 c #1ca6fc",
".6 c #447694",
".7 c #94b564",
".8 c #7c7e84",
"#` c #e47e7c",
"#. c #bcea74",
"## c #34826c",
"#a c #74bed4",
"#b c #749654",
"#c c #34aa64",
"#d c #548e3c",
"#e c #94e0fc",
"#f c #7cd2fc",
"#g c #94a664",
"#h c #64b26c",
"#i c #2c3a4c",
"#j c #1c2a44",
"#k c #3c6a7c",
"#l c #5c7e54",
"#m c #98d664",
"#n c #c4a2a4",
"#o c #b4d67c",
"#p c #548294",
"#q c #5cbef4",
"#r c #fc767c",
"#s c #144224",
"#t c #0c4abc",
"#u c #2caefc",
"#v c #3c62ac",
"#w c #5cd2fc",
"#x c #54a13c",
"#y c #343634",
"#z c #243e6c",
"#A c #7cc2fc",
"#B c #2c4b8f",
"#C c #aca9a9",
"#D c #14261c",
"#E c #14be14",
"#F c #14321c",
"#G c #fc6664",
"#H c #445028",
"#I c #5c8e9c",
"#J c #7c8a58",
"#K c #94966c",
"#L c #8cbeec",
"#M c #3c6d91",
"#N c #1c4294",
"#O c #bcc284",
"#P c #2ca2ec",
"#Q c #242824",
"#R c #54c2f4",
"#S c #3cbafc",
"#T c #6496ac",
"#U c #1456d8",
"#V c #648694",
"#W c #1c62f4",
"#X c #4c565c",
"#Y c #3c7eb4",
"#Z c #6cc6fc",
"#0 c #8c877c",
"#1 c #4cb6fc",
"#2 c #d3f2fc",
"#3 c #c4c6c4",
"#4 c #3c5664",
"#5 c #344a54",
"#6 c #2c361c",
"#7 c #b4eee4",
"#8 c #386684",
"a` c #7c7e7c",
"a. c None",
"a# c #e4e2e4",
"aa c #049a04",
"ab c #c4fefc",
"ac c #1c469c",
"ad c #4c9ae4",
"ae c #047204",
"af c #848284",
"ag c #c4e2ec",
"ah c #343e34",
"ai c #143a94",
"aj c #6c8294",
"ak c #1c5ee4",
"al c #4c7a9c",
"am c #a4b274",
"an c #0c8e04",
"ao c #045604",
"ap c #2c524c",
"aq c #144aac",
"ar c #0cae0c",
"as c #b4b67c",
"at c #b4b2b4",
"au c #eceaec",
"av c #545254",
"aw c #949ca0",
"ax c #c4c2c4",
"ay c #3c5060",
"az c #b4e8e0",
"aA c #646464",
"aB c #7c7a7b",
"aC c #bcbabc",
"aD c #f4f2f4",
"aE c #4c4a4c",
"aF c #1c9214",
"aG c #847d84",
"aH c #0c5a04",
"aI c #94becc",
"aJ c #047614",
"aK c #145ef4",
"aL c #4c86bc",
"aM c #0c7e54",
"aN c #ecfefc",
"aO c #0c6e04",
"aP c #cccecc",
"aQ c #dcf8fc",
"aR c #448ecc",
"aS c #748b94",
"aT c #5caa3c",
"aU c #1452d4",
"aV c #54b0fc",
"aW c #54b7fc",
"aX c #0c8a14",
"aY c #4c6e84",
"aZ c #dcea99",
"a0 c #748a4c",
"a1 c #bcd684",
"a2 c #5c829c",
"a3 c #3c4a4c",
"a4 c #244694",
"a5 c #34b6fc",
"a6 c #8c8274",
"a7 c #dcfefc",
"a8 c #0cb604",
/* pixels */
"a.a.a.a.a.a.a.a.a.a.a.a.a.a.a.a.a.a.a.a.a.a.a.a.a.a.a.a.a.a.a.a.",
"a.a.a.a.a.a.a.a.a.a.a.a.a.a.a.a.a.a.a.a.a.a.a.a.a.a.a.a.a.a.a.a.",
"a.a.a.a.a.a.a.a.a.a.a.a.a.a.a.a.a.a.a.a.a.a.a.a.a.a.a.a.a.a.a.a.",
"a.a.a.a.a.a.a.a.a.a.a.a.a.a.a.a.a.a.a.a.a.a.a.a.a.a.a.a.a.a.a.a.",
"a.a.a.a.a.a.a.a.a.a.a.a.a.a.a.a.a.a.a.a.a.a.a.a.a.a.a.a.a.a.a.a.",
"a.#3.RaBaBaBaBaBaBaBaBaBaBaBaBaBaBaBaBaBaBaBaBaBaBaBaBaBaBaB.Ua.",
"a.afataua#`W`W`W`W`W`W`W`W`W`W`W`W`W`Wau`W`W`W`Wau`W`W`W`W.0aA.V",
"a.af`J.`aCaCaCaCaCaCaCaCaCaCaCaCaCaCaC.SaC#C`J#C.8.C`B`p#`.SaAaD",
"a.a``JaP.`#3ax#3ax.`.Saxaxax#3.`ax#3axax.#atawataB.H#n#G#r.`aA.T",
"a.af`J#C.B.B`J`J.U#0.1.U.B`J`J.B`J.B`J.B`J`U`U`J#0.e`U`s`sataAau",
"a.`HaB.b#p#p`oaS.H.b`S.b`oaS.paS.p.p.p.paS.paS.paS.p#V#I#8.1.Cau",
"a.`H.v`w.w.G`5.f#Vad#1al.x`5`5`5`5`5`5`5`5`5`5`5`5`5a7`5`z.1.Cau",
"a..e.v#Iab.NaQaw#YaW.g#X.M.N#2.N.N.N.N#2.N.NaQ#2.N.N.N`5aI.C.1au",
"a.`H`#.L#AaQ`Fa2.WaW#8.Cag`5#2`M.f#2aQaQaQ.f#2.f.f.f#2`5`t.1.Cau",
"a.`H`#a4aK#L.M`0.taV#M`Z`M#e#Ta2#q#R.c#f.2.f.f.faQaQaQ.G#a.1.1au",
"a.`Ha6#BaK`L#v.g.taWaRaY.F.5`l`0.a#P`k#u#S#R#eazaz#7.E`T`E.R.1`W",
"a.`H#0`NaK`Lac.gaV.t.t#M`1#S.L..`X#M`7#w`f`2aM`baX`G`G#E.3aB.1.T",
"a.`H#0#B`L#U#N.l.t.taV`D.l.6ay`XaW`X`g#caJ.Aao.A`6.O`G.O.raG.Cau",
"a.`H`U`N.s.s.4.b`D.t.taV.t.g`0`D.taVad.P`iao`b`b`y.O`G`G.raG.Rau",
"a.af`U.z#taq.4#jaLaW`D.taVaV.taV.t.taWadap.A.Aaear.Jaa.d.raG.R`W",
"a.`H`U#z`A`e`e.h#i..aW`D.t.taV.taV.t`DaWad.P.A`6an`y`y#EanaG.Rau",
"a.`Haf`Q#h####`V#F#5..aW.taV.taV.taV.t.taL#s.A`b`b`6`y`3aFaG.Rau",
"a..eaf#J#.#m#m`c#d.m`O`0...taV.t.t.taWaL.u.I.A`b`b.y.y`6aH`H.Rau",
"a..e`H`v`m#o#o#o.j#b#H.u`O#4#M`DaV.t`S#D```i.A.A.A.A.A.A.I#0.R`W",
"a..e`H#K`qaZaZ`m`m`h.Qa0`d#H#y`XaW.Yah`C#daT.q.q#x#x#x#x`r`HaBau",
"a..e`H`K#O`P`P`P`Pamam#g`a`Ka3...g#Q`na0.7.7.7.7`j`j`j.K`8aB.R`W",
"a..8at`J.e`4`4`4`4`4.e`4`J`H`Y.l.oaEaB.e.e.e.e.e`4.e`H`4.8#3.1au",
"a..Uav.1.C.C.C.C.C.C.C.C.CaA#y`I#Q`YaA.C.C.C.C.C.C.C.C.C.1.k.CaD",
"a.aP`4aGafafaGaGafaGafaGafa`.k.Z.C`HafafafaGafafafafafafa``H.S.V",
"a.aDa#.0.0.0.0.0.0.0.0.0.0.0aP#3.0.0.0.0.0.0.0.0.0.0.0.0.0.0aua.",
"a.a.a.a.a.a.a.a.a.a.a.a.a.a.a.a.a.a.a.a.a.a.a.a.a.a.a.a.a.a.a.a.",
"a.a.a.a.a.a.a.a.a.a.a.a.a.a.a.a.a.a.a.a.a.a.a.a.a.a.a.a.a.a.a.a."
};
