/* XPM */
static char *scanline_xpm[] = {
/* width height num_colors chars_per_pixel */
"    32    32      256            2",
/* colors */
"`` c #0486ec",
"`. c #1caafc",
"`# c #9caaac",
"`a c #bcd6e4",
"`b c #ccaeb4",
"`c c #dcd6d4",
"`d c #f4522c",
"`e c #e4eefc",
"`f c #ccc2cc",
"`g c #a4c2d4",
"`h c #ecbed4",
"`i c #fcd6d4",
"`j c #5cbefc",
"`k c #cccacc",
"`l c #747a7c",
"`m c #dce2f4",
"`n c #b4aeac",
"`o c #c47e74",
"`p c #0492dc",
"`q c #ccc6e4",
"`r c #74c6fc",
"`s c #acc2d4",
"`t c #bcbac4",
"`u c #74b2e4",
"`v c #f46e4c",
"`w c #f4fafc",
"`x c #cccecc",
"`y c #ece2e4",
"`z c #acc6e4",
"`A c #247eac",
"`B c #ccd6dc",
"`C c #dcdaec",
"`D c #f4eeec",
"`E c #1c92d4",
"`F c #74befc",
"`G c #fcce94",
"`H c #fc8244",
"`I c #fcaa6c",
"`J c #e4eafa",
"`K c #c4bad0",
"`L c #fc763e",
"`M c #a4bad4",
"`N c #dcc6bc",
"`O c #b4aed4",
"`P c #84baf0",
"`Q c #2482b2",
"`R c #e4e2ee",
"`S c #049afc",
"`T c #dccee4",
"`U c #c4c2c9",
"`V c #d4d6f1",
"`W c #ecdefc",
"`X c #b4bad4",
"`Y c #74bae4",
"`Z c #dcd2d4",
"`0 c #c4caf0",
"`1 c #dcdef1",
"`2 c #c4cadc",
"`3 c #2caef4",
"`4 c #f45e34",
"`5 c #e4f6fc",
"`6 c #ccc6d4",
"`7 c #1492dc",
"`8 c #84d2fc",
".` c #d4ced1",
".. c #c4b2cc",
".# c #c4e6fc",
".a c #dcb6c4",
".b c #eccac4",
".c c #a4a2a4",
".d c #cccef1",
".e c #fc723c",
".f c #eceaed",
".g c #b4cef8",
".h c #f4f6fc",
".i c #fc924c",
".j c #fcb67c",
".k c #b4b6cc",
".l c #c4c2d8",
".m c #1c86e4",
".n c #acbac4",
".o c #ecdee4",
".p c #eceef2",
".q c #f4e6dc",
".r c #6cbefc",
".s c #84cefc",
".t c #7cb6ec",
".u c #ccdee4",
".v c #3482ac",
".w c #e4e2fc",
".x c #14befc",
".y c #acaac8",
".z c #c4dafc",
".A c #dcbab4",
".B c #dcdedc",
".C c #048efc",
".D c #7ccefc",
".E c #74b6f4",
".F c #fc6a3c",
".G c #fcfafb",
".H c #3476ac",
".I c #e4d6ec",
".J c #fceeec",
".K c #1c96dc",
".L c #fc764c",
".M c #acbed4",
".N c #2c8abc",
".O c #bcbad7",
".P c #fc663c",
".Q c #fcd2c4",
".R c #d4cee4",
".S c #048af3",
".T c #bcdefc",
".U c #8cd2fc",
".V c #5cc2fc",
".W c #d4c6bc",
".X c #dce6f8",
".Y c #7cc6fc",
".Z c #bcbeca",
".0 c #74b6e9",
".1 c #cccedc",
".2 c #ece6fc",
".3 c #acc6f4",
".4 c #d4d6d8",
".5 c #248ee4",
".6 c #84c2ec",
".7 c #fc7a42",
".8 c #9cbaec",
"#` c #bcb2d4",
"#. c #44a2d4",
"## c #bc8e8c",
"#a c #3cb6fc",
"#b c #e4c2c4",
"#c c #fc9a5c",
"#d c #a4a6c4",
"#e c #fc5a1c",
"#f c #54a6cc",
"#g c #a4c6ec",
"#h c #f4e6fc",
"#i c #b4b6c4",
"#j c #f4d2d4",
"#k c #b4d6fc",
"#l c #e4d2fc",
"#m c #d4b6b4",
"#n c #ccc2e4",
"#o c #ecc6c4",
"#p c #fc8a50",
"#q c #d4defc",
"#r c #fcbe84",
"#s c #f45a34",
"#t c #b4b2c4",
"#u c #e4dae4",
"#v c #7cbeec",
"#w c #fc5e24",
"#x c #f4ced4",
"#y c #c4867c",
"#z c #347eb4",
"#A c #04a2fc",
"#B c #0496fc",
"#C c #2c82b6",
"#D c #e4deec",
"#E c #bcb6cc",
"#F c #64baf4",
"#G c #34aaec",
"#H c #d4cad4",
"#I c #b4cafc",
"#J c #24aafc",
"#K c #0c96dc",
"#L c #dcd6fc",
"#M c #f4f2fc",
"#N c #e4d2e4",
"#O c #d4d2dc",
"#P c #aca6a4",
"#Q c #fc965c",
"#R c #eceefc",
"#S c #f4eaec",
"#T c #fc6e4c",
"#U c #fceefc",
"#V c #d4c6cc",
"#W c #a4beec",
"#X c #bcdafc",
"#Y c #fc5e34",
"#Z c #7cbae7",
"#0 c #d4dedc",
"#1 c #e4dee4",
"#2 c #ecf6fc",
"#3 c #eccad4",
"#4 c #fc724c",
"#5 c #eceafc",
"#6 c #fcf6fc",
"#7 c #b4b6dc",
"#8 c #e4d6fc",
"a` c #e4c2d4",
"a. c #d4c2e4",
"a# c #e4defc",
"aa c #dcdadc",
"ab c #cccaec",
"ac c #ece6e9",
"ad c #fcae6e",
"ae c #c4bed4",
"af c #dccabd",
"ag c #b4b2cf",
"ah c #e4e6ed",
"ai c #c4c6cc",
"aj c #d4daf4",
"ak c #cccad8",
"al c #1496de",
"am c #d4d2d4",
"an c #ccd2f4",
"ao c #b4d2fc",
"ap c #fcba78",
"aq c #c4c6d7",
"ar c #6cc2f4",
"as c #acaec7",
"at c #fc6e40",
"au c None",
"av c #bcbed9",
"aw c #d4d2ec",
"ax c #d4dadc",
"ay c #2492ec",
"az c #fc622c",
"aA c #64befc",
"aB c #1caefc",
"aC c #ccb2b4",
"aD c #e4f2fc",
"aE c #fcdad4",
"aF c #74cafc",
"aG c #74c2fc",
"aH c #fcd294",
"aI c #a4bed4",
"aJ c #c4cedc",
"aK c #84d6fc",
"aL c #c4eafc",
"aM c #dcbac4",
"aN c #a4a6a4",
"aO c #e4e6fc",
"aP c #14c2fc",
"aQ c #dcbeb4",
"aR c #0492fc",
"aS c #347aac",
"aT c #7ccafc",
"aU c #ccd2dc",
"aV c #fc9e5c",
"aW c #f4eafc",
"aX c #dcdafc",
"aY c #ecf2fc",
"aZ c #fcf2fc",
"a0 c #d4cacc",
"a1 c #0486f4",
"a2 c #dce2fc",
"a3 c #bcbacc",
"a4 c #74b2ec",
"a5 c #ccced4",
"a6 c #acc6ec",
"a7 c #247eb4",
"a8 c #1c92dc",
/* pixels */
"auauauauauauauauauauauauauauauauauauauauauauauauauauauauauauauau",
"au`5aL.#aLaLaLaLaLaLaLaLaLaLaLaLaLaLaLaLaLaLaLaLaLaLaLaLaLaDauau",
"aLaF`j.V`j`j`j`j`j`j`j`j`j`j`j`j`j`j`j`j`j`j`j`j`j`j`j`j`jaA`aau",
"#a`P#g#g#g#g#g#g#g#g#g#g#g#g#g#g#g#g#g#g#g#g#g#g#g#g#g#g`z.6#.am",
"#A.5.m.m.m.m.m.m.m.m.m.m.m.m.m.m.m.m.m.m.m.m.m.m.m.m.m.m.m.5#K`n",
"#A.S``````````````````````````````````````````````````````.C`paN",
"#AaRaRaRaRaRaRaRaRaRaRaRaRaRaRaRaR#BaRaRaR#BaRaRaR#BaR#BaR#B`p#P",
"#J#Z#v#v.6`Y#v#v.6`Y#v#v.6`Y#v#v#v`Y#Z#v#va4.0`Y#Za4a4a4.0.E`7.c",
"#J`s.Gauau`c`Dauau`c`Dauau`c#Sauau`Zac.G.G.`.oaZaZ`f`C#5#h.z`7aN",
"`.`gauauauaa.pauauaa.pauauaa.pauau#Oah.Gau`2`1aY.h.l`V#5.2#X`7aN",
"`.`g`c.4.4`U`x.4.4`U`x.4.4`U`kamam`taiakak#iaeaqaqas.kav`K#ga8.c",
"`.`sacac.f`kaa.f.f`kaa.f.f`k`cah.f`U#O`m#1.Zak`C`C#Eaqaw.R#IalaN",
"`.`gauauau#0#2auau#0#2auauaxaDauau`B`JauauaJ.X#2`waq#qaD#5.T`7aN",
"aB.n.QaEaEaQ.baEaE.A.baEaE.A#o`i`i#m#b#j#jaCaM#x.b`b.aa``hae`7.c",
".x#y`H#p`Laz#p`H.7#w#p`H.7az#p#p`Laz#p#p`Laz#p#p`Laz#p#p.7#e#z`#",
".x#yapaH.j`L#raH.j.7#raH.j.7#r`Gap.7#r`G.j.7#r`G.j`L#r`G.j.eaS`#",
"aP`o.i`I#caz#Q`I#caz#Q`I#caz#Q`I#caz#Qad#caz#Qad#caz#c`IaV#e.H`#",
".x##.F.L.P#Y.e`L.F#w.e#4.F#w.e.e.P#Yat.e.P#Yat.e.P#s#Tat.P`d#C`#",
"#J`g.Gauauax.pauau.4`JauauaU`m.h`w`2`1aYaYaqajaO`eav.d#q`1#kal.c",
"`.aIauauau.4.pauau#O.fauau.Rah.Gauak`1#M.haq`C#R#M.OawaO.wao`7aN",
"`.`s`Zam.4`U`kam.4.Zai.`aU`t`Uakak#i.Z`6aq#t.kavav.yas.O#`#W.K.c",
"`.`gahah.fai.4ahacai#O`Rah`UaU`1.B.Zak`C`C.kaqawawagav`0`q.3`7aN",
"`.aI.Gauauam.fauau#Oahauaua5`R.Gauak`1#M.h.l`V#R#R.O.d.wa#ao`7aN",
"`.aI#1`R.fai.4ahah`U#O`R`R.Z.1`C`C.Oaq`V`C.k.l.d.Rag.O`0#n#g`7.c",
"`.aI.``xa5`t`Uaka5#E.Zakak#i.Zaqaq#ta3.lavasagav.O#d.y#7`O.8.K.c",
"`.`M#M.haua5`R.Gauak`m.h`waq`1#M#Maq`V#R#Ravan.waO#7`0aj#L#I`7aN",
"`..n.JaZ.Gaf.o#6#6a0.o#UaZ#V#u#U#U`f`T#h#h`K`T`W`W#`a.#8#l#I`7aN",
"#G`j.U`8aK.D.D`8`8aT.D`8`8.YaT.D.D.YaT.DaTaG`r`r`r.r`Far`FaA.N#P",
".u#f#Ca7`Aa7#C`Aa7a7`Qa7`A`Q`Q#C`A`Qa7a7`A#C`A#C`A#C`Q#Ca7#z`l`x",
"au.q`N.W`N.W`Na0`N.Waf`Na0`N.W`N.W`Nafafa0.W`N.Waf.W.W`N.W.W.B.G",
"auauauauauauauauauauauauauauauauauauauauauauauauauauauauauauauau",
"auauauauauauauauauauauauauauauauauauau.Gauauauauauauauauauauauau"
};
