/* XPM */
static char *connectseismic_xpm[] = {
/* width height num_colors chars_per_pixel */
"    32    32      256            2",
/* colors */
"`` c #081078",
"`. c #049a04",
"`# c #8c9c4c",
"`a c #94120c",
"`b c #94c8fc",
"`c c #2cbe1c",
"`d c #046e04",
"`e c #ccca84",
"`f c #f89058",
"`g c #44963c",
"`h c #9c5a5c",
"`i c #d4ead4",
"`j c #4c4e74",
"`k c #488ad8",
"`l c #8c96c4",
"`m c #6ca2ea",
"`n c #cc1204",
"`o c #0c2e9c",
"`p c #fcc68c",
"`q c #d8543c",
"`r c #44568c",
"`s c #5cce3c",
"`t c #fceaaf",
"`u c #85b5f1",
"`v c #e4764c",
"`w c #648ad4",
"`x c #2854a8",
"`y c #d4be74",
"`z c #343c74",
"`A c #4c7abc",
"`B c #8cb090",
"`C c #ece9e9",
"`D c #acb2b4",
"`E c #ecf6f0",
"`F c #2c8e24",
"`G c #9c322c",
"`H c #c9c9c7",
"`I c #6c7294",
"`J c #c4d6ec",
"`K c #cc3e34",
"`L c #283e88",
"`M c #2f6fcc",
"`N c #909090",
"`O c #85f058",
"`P c #fcccc4",
"`Q c #64e23c",
"`R c #44ba30",
"`S c #fa6130",
"`T c #4486cc",
"`U c #6498e1",
"`V c #8c9e8c",
"`W c #c40f04",
"`X c #fb9d62",
"`Y c #7cb0f1",
"`Z c #ec8654",
"`0 c #29a71f",
"`1 c #47c52c",
"`2 c #fcfafb",
"`3 c #0c1e7c",
"`4 c #588ccc",
"`5 c #8cc1fa",
"`6 c #fcb174",
"`7 c #d4d0d0",
"`8 c #9efe68",
".` c #748a34",
".. c #5c7e24",
".# c #7ca9e7",
".a c #2c3a70",
".b c #a4b2d4",
".c c #fa3104",
".d c #789ee0",
".e c #942224",
".f c #fa4f1c",
".g c #2f5ebf",
".h c #5477bf",
".i c #e4dce8",
".j c #79e84f",
".k c #f3f1f1",
".l c #b9bbb9",
".m c #c8d2e8",
".n c #2c7ad4",
".o c #92fc60",
".p c #6b9ee5",
".q c #e49a8c",
".r c #52d036",
".s c #0c2589",
".t c #5c92e2",
".u c #fc3f09",
".v c #287430",
".w c #84848a",
".x c #745858",
".y c #a4a2ac",
".z c #74aaec",
".A c #dc2a04",
".B c #143aa8",
".C c #fcd89c",
".D c #63db41",
".E c #fc7034",
".F c #344aa4",
".G c #f4fefc",
".H c #d4d7d4",
".I c #1c3fa4",
".J c #ac8e94",
".K c #9f9fa1",
".L c #27b119",
".M c #1ca20c",
".N c #e4e8e9",
".O c #74a6ea",
".P c #94baec",
".Q c #404674",
".R c #8cba8c",
".S c #f4f7f7",
".T c #2c9d24",
".U c #ac3a24",
".V c #c4d2c4",
".W c #fc6931",
".X c #5484c4",
".Y c #fca468",
".Z c #ec7e6c",
".0 c #5a8cdd",
".1 c #fcbb81",
".2 c #749a44",
".3 c #942a24",
".4 c #577ec9",
".5 c #fcdad4",
".6 c #f87860",
".7 c #b4cabc",
".8 c #ec8a7c",
"#` c #4466b8",
"#. c #64a664",
"## c #c4bcbc",
"#a c #649464",
"#b c #b42a1c",
"#c c #904a4c",
"#d c #247e0c",
"#e c #4c7e4c",
"#f c #a47e84",
"#g c #64667c",
"#h c #ec1a04",
"#i c #5c9e5c",
"#j c #7c8a7c",
"#k c #54ae54",
"#l c #34863c",
"#m c #5c5b71",
"#n c #84a6e4",
"#o c #189810",
"#p c #a4c2a4",
"#q c #3c5ab0",
"#r c #648264",
"#s c #ec5a34",
"#t c #5cb654",
"#u c #7c7e94",
"#v c #949894",
"#w c #2446ac",
"#x c #b44644",
"#y c #9c6a6c",
"#z c #a81008",
"#A c #6ca26c",
"#B c #ecd294",
"#C c #147a04",
"#D c #dc3a14",
"#E c #748ec4",
"#F c #3c923c",
"#G c #243694",
"#H c #acc6e4",
"#I c #a4beec",
"#J c #e4a6a4",
"#K c #3cc024",
"#L c #3c6abc",
"#M c #fc8147",
"#N c #1c2684",
"#O c #0c1a84",
"#P c #44a23c",
"#Q c #4c96e4",
"#R c #4c4a64",
"#S c #e45234",
"#T c #3c5ebc",
"#U c #b4aaac",
"#V c #3c76d4",
"#W c #ec2304",
"#X c #fc7840",
"#Y c #bcb2bc",
"#Z c #9cc2f4",
"#0 c #a42214",
"#1 c #546ab4",
"#2 c #c4260c",
"#3 c #fc5624",
"#4 c #fcdf9f",
"#5 c #ac9a9c",
"#6 c #fce6e4",
"#7 c #fcf2f4",
"#8 c #6cde44",
"a` c #34b21c",
"a. c #344284",
"a# c #2c4694",
"aa c #f4d2d4",
"ab c #6cea44",
"ac c #e4e2dc",
"ad c #102a90",
"ae c #e4928c",
"af c #c7c2c7",
"ag c #1c9e1c",
"ah c #fcd294",
"ai c #487ed4",
"aj c #fc965c",
"ak c #8abaf4",
"al c #6792d9",
"am c #94b694",
"an c #ccdef4",
"ao c #8cf65c",
"ap c #46ca2e",
"aq c #f93607",
"ar c #7cee4f",
"as c #2c7a2c",
"at c #aaaaae",
"au c #a4a6a1",
"av c #9ccefc",
"aw c #d41a04",
"ax c #fc4614",
"ay c #e4eeec",
"az c #5486dc",
"aA c #b4b5b4",
"aB c #747684",
"aC c #6ce34a",
"aD c #4c83dc",
"aE c #6c9ae4",
"aF c #94c0f0",
"aG c #dccedc",
"aH c #9c1f1c",
"aI c #ecdadc",
"aJ c #1c389c",
"aK c #dcdad8",
"aL c #94be9c",
"aM c #ccd0d0",
"aN c #4c6aac",
"aO c #9c9a9c",
"aP c #2c4a9c",
"aQ c #4c9e4c",
"aR c #2c9628",
"aS c #9c3a34",
"aT c #7cb6f4",
"aU c none",
"aV c #fcb67c",
"aW c #1caa14",
"aX c #fce2dc",
"aY c #3cc62c",
"aZ c #3c72c4",
"a0 c #fc864c",
"a1 c #5cd63c",
"a2 c #e45a34",
"a3 c #3c66bc",
"a4 c #3c7ed4",
"a5 c #ec2a04",
"a6 c #142e91",
"a7 c #949e9c",
"a8 c #141e70",
/* pixels */
"aUaUaUaUaUaUaUaaaIaUaUaUaUaUaUaUaUaUaUaUaUaUaUaUaUaUaUaUaUaUaUaU",
"aUaUaUaUaUaU`2`K#x.NaUaUaUaUaUaUaUaUaUaUaUaUaUaUaUaUaUaUaUaUaUaU",
"aUaUaUaUaUaU#J#D#2.J.GaUaUaUaUaUaUaUaUaUaUaUaUaUaUaUaUaUaUaUaUaU",
"aUaUaUaUaU#7`q`faq`G.HaUaUaUaUaUaUaUaUaUaUaUaUaUaUaUaUaUaUaUaUaU",
"aUaUaU`2aU.8`vaV.f`W#f.SaUaUaUaUaUaUaUaUaUaUaUaUaUaUaUaUaUaUaUaU",
"aUaUaUaU#6`q`p.Y`S#WaH`HaUaUaUaUaUaUaUaUaUaUaUaUaUaUaUaUaUaUaUaU",
"aUaUaUaU.8`Z#4`X.W.u`W#y`EaUaUaUaUaUaUaUaUaUaUaUaUaUaUaUaUaUaUaU",
"aUaUaUaX#S.C`p`X.Eax#WaH##aUaUaUaUaUaUaUaUaUaUaUaUaUaUaUaUaUaUaU",
"aU`2aU.Z`f`t.1`X#X.f.c`n`hayaUaUaUaUaUaUaUaUaUaUaUaUaUaUaUaUaUaU",
"`2aU.5#s#4.C.1`X#M#3aq#W#z#UaUaUaUaUaUaUaUaUaUaUaUaUaUaUaUaUaUaU",
"`2aU.6`X`tahaV`X#M`Saq.c`n#c.NaUaUaUaUaUaUaUaUaUaUaUaUaUaUaUaUaU",
"aU`P`S#4#B`yaV`X#M.Wax.ca5#z#5`2aUaUaUaUaUaUaUaUaUaUaUaUaUaUaUaU",
"#7.6`6`t.2`#.1`X#M.W.f.c.cawaSaKaUaUaUaUaUaUaUaUaUaUaUaUaUaUaUaU",
"`P`Sah`e`d`#.1aja0.E#3.u.c#h`aauaU`2aU`2#H.m.NaUaUaUaUaUaUaUaUaU",
"aU.qa2..`..``6.Y`f.E.f.A`n.e.x`DaUaU`J`T`M`M`M.h#E.b.m.kaUaUaUaU",
"aU.Gau#C`c#d.U#b#0aH.e#c.x.waA#7.S.z.n`Uak.z`UaD`M.g`x`x#1`l.kaU",
"`2aU.R`.#K.L.v.w#5`Vat`B.7`CaUan`T#Q`5`5.z.O`m.O`U.0aD#V.gad.y`2",
"aUaU#iaW#K`1.L#F.VaU`Eagam#7aU.ta4aFaFakak`Y.p.0.0azazal.g`L`N.S",
"aUaUaQ.L`1`1.r`1aRaL#t.L#aaKaU`Ua4.0.0.d.#`u.P.P.#aE.d#T.B`Lau#7",
"aUaU#..Lapap.r.D.D`0`Rar#FafaU`4aDaE.0azazazalal.##I#q.IaJ.a#U.S",
"`2aUaL.M.r.r`sa1aCar`Oao.TataU`4aD.O`U`U`U.0azaiaDal#w.I`o.aafaU",
"aUaU.NaR`1a1a1aC.j.jar.o`R`V.S.X.t.O`m.p`U`U.taz.0`waJaJad`z`HaU",
"aUaUaU#paga1aCaC.jarao.o.D#a.i.4`U`Y.O.O.paE`U.taE.4a6aJad`j`7aU",
"aUaUaU`2`B.Ta1.j.j`Oao`8ar#laG.X`mak`Y.#.z`maE.t.p.h.sa6#O#gaKaU",
"aUaUaUaU`2#Aa`aoaoao`8`8.o#PaA.h`mak`u`Y`Y.O`m`U.O#`#Oad#OaBacaU",
"aUaUaUaU`i`0`QaCaC.D`s`R`0`Fa7.h`5avakak`Y.z.OaE.p#q#O#Oa8.w.kaU",
"aUaUaU.S#kaR#Fas.v#e#r#j.waOafaN#L.z`5`b`5`u.OaE.p.F``#O#m.l`2aU",
"aUaUaUaU.Vau.y#YafaGaK`C.k.SaUaM`I`ra#a3.0.O`YaT`maJ``#mat.kaUaU",
"aUaUaUaU`2#7`2aUaUaUaUaUaUaUaUaU.k`7au#u.Qa#.Fa3.4.s#RaO`CaUaUaU",
"aUaUaUaUaUaUaUaUaUaUaUaUaUaUaUaUaUaUaU.Sac.l#u#m`z.Q`N.kaUaUaUaU",
"aUaUaUaUaUaUaUaUaUaUaUaUaUaUaUaUaUaUaUaUaUaUaU`Caf#Y`CaUaUaUaUaU",
"aUaUaUaUaUaUaUaUaUaUaUaUaUaUaUaUaUaUaUaUaUaUaUaUaUaUaUaUaUaUaUaU"
};
