/* XPM */
static char *importwell_xpm[] = {
/* width height num_colors chars_per_pixel */
"    32    32      256            2",
/* colors */
"`` c #144eac",
"`. c #4caafc",
"`# c #fcaa04",
"`a c #bc722c",
"`b c #fcd604",
"`c c #1c7ef4",
"`d c #b4e2fc",
"`e c #d47204",
"`f c #acbadc",
"`g c #547ec4",
"`h c #e48e04",
"`i c #7cbefc",
"`j c #f4e284",
"`k c #d4aa84",
"`l c #fcee04",
"`m c #345aac",
"`n c #7cc6fc",
"`o c #ecca7c",
"`p c #8c9ecc",
"`q c #dce6f4",
"`r c #fcc204",
"`s c #5c96dc",
"`t c #cc8e4c",
"`u c #bc7654",
"`v c #3c96fc",
"`w c #dcf6fc",
"`x c #dcc6b4",
"`y c #d48604",
"`z c #fcee44",
"`A c #f4d63c",
"`B c #446ebc",
"`C c #dca64c",
"`D c #94aad4",
"`E c #0c66d4",
"`F c #64aefc",
"`G c #c47e3c",
"`H c #e4ca74",
"`I c #e48204",
"`J c #6c86c4",
"`K c #94d2fc",
"`L c #44a2fc",
"`M c #bce6fc",
"`N c #e4eaf4",
"`O c #fcce04",
"`P c #7c96c4",
"`Q c #e4cab4",
"`R c #94beec",
"`S c #fcb604",
"`T c #fce204",
"`U c #4c86d4",
"`V c #cc966c",
"`W c #f4f2f4",
"`X c #cc8224",
"`Y c #245ab4",
"`Z c #bc7234",
"`0 c #b4cae4",
"`1 c #fcfa2c",
"`2 c #dcc2ac",
"`3 c #c48254",
"`4 c #fcee74",
"`5 c #4c76bc",
"`6 c #6cbafc",
"`7 c #2c92fc",
"`8 c #ec8e04",
".` c #dcbea4",
".. c #346abc",
".# c #8ccefc",
".a c #ecc62c",
".b c #449af4",
".c c #94b2e4",
".d c #e4d2c4",
".e c #fcfaf4",
".f c #e4ca9c",
".g c #0c56c4",
".h c #647ebc",
".i c #dcb28c",
".j c #d49a64",
".k c #fce63c",
".l c #d49e6c",
".m c #6c92cc",
".n c #cceafc",
".o c #f4eadc",
".p c #74a6e4",
".q c #fcfe64",
".r c #a4b2dc",
".s c #5caafc",
".t c #fcb204",
".u c #fcde04",
".v c #3486e4",
".w c #ccd6ec",
".x c #dc7a04",
".y c #ecdeb4",
".z c #dcae8c",
".A c #8ccafc",
".B c #ecded4",
".C c #fcca04",
".D c #54a6fc",
".E c #cc8e5c",
".F c #bc7e54",
".G c #349efc",
".H c #d48a1c",
".I c #f4de64",
".J c #5472b4",
".K c #2466cc",
".L c #64b6fc",
".M c #c48644",
".N c #a4dafc",
".O c #4ca2fc",
".P c #e4ceb4",
".Q c #fcbe04",
".R c #fcea04",
".S c #d48a2c",
".T c #bc7a3c",
".U c #c4cee4",
".V c #fcfe24",
".W c #e4c2a4",
".X c #4466b4",
".Y c #d4a684",
".Z c #f4eeec",
".0 c #c47a14",
".1 c #2486f4",
".2 c #cc7a0c",
".3 c #b4c2e4",
".4 c #d49a24",
".5 c #8cbeec",
".6 c #d4ae8c",
".7 c #fcf214",
".8 c #84c6fc",
"#` c #c48a7c",
"#. c #f49e04",
"## c #d4d2d4",
"#a c #a4badc",
"#b c #4c92ec",
"#c c #a4caf4",
"#d c #cce2f4",
"#e c #f4eab4",
"#f c #84a2d4",
"#g c #ecf2f4",
"#h c #1c5abc",
"#i c #7c8ec4",
"#j c #c48674",
"#k c #f4e6e4",
"#l c #246acc",
"#m c #dca234",
"#n c #5c86c4",
"#o c #3c62ac",
"#p c #e48a04",
"#q c #ccf2fc",
"#r c #f4b21c",
"#s c #f4de9c",
"#t c #cc863c",
"#u c #c4761c",
"#v c #fcf2ec",
"#w c #f4c21c",
"#x c #9cb2d4",
"#y c #ecceac",
"#z c #5ca2ec",
"#A c #fcda54",
"#B c #2c62bc",
"#C c #8ca6d4",
"#D c #fcf674",
"#E c #fcfe7c",
"#F c #ecca64",
"#G c #2482ec",
"#H c #d49254",
"#I c #dc8a0c",
"#J c #4c6eb4",
"#K c #849acc",
"#L c #2c56ac",
"#M c #748ec4",
"#N c #d4deec",
"#O c #1c52ac",
"#P c #b4bedc",
"#Q c #fcc614",
"#R c #fcda3c",
"#S c #fcce14",
"#T c #cc9a7c",
"#U c #bcc6e4",
"#V c #fcf63c",
"#W c #5476bc",
"#X c #74bafc",
"#Y c #d4a27c",
"#Z c #9cb6e4",
"#0 c #ecd2bc",
"#1 c #1456bc",
"#2 c #c47e4c",
"#3 c #54aafc",
"#4 c #e4e6f4",
"#5 c #6496dc",
"#6 c #c4e6fc",
"#7 c #3492fc",
"#8 c #3c6abc",
"a` c #3c9efc",
"a. c #6cb6fc",
"a# c #fcfe34",
"aa c #fc9e04",
"ab c #ec8a04",
"ac c #d4f2fc",
"ad c #bc7a5c",
"ae c #fcf24c",
"af c #c48244",
"ag c #94c2f4",
"ah c #fcba04",
"ai c #f4f6fc",
"aj c #bc763c",
"ak c #fcf27c",
"al c #449efc",
"am c None",
"an c #6482bc",
"ao c #d4a274",
"ap c #f4eee4",
"aq c #cc9264",
"ar c #e4c6ac",
"as c #fcae04",
"at c #fcda04",
"au c #d47604",
"av c #7cc2fc",
"aw c #fcf204",
"ax c #fcc604",
"ay c #3c9afc",
"az c #4472bc",
"aA c #64b2fc",
"aB c #6c8ac4",
"aC c #44a6fc",
"aD c #fcd204",
"aE c #fce604",
"aF c #cc9a6c",
"aG c #c48654",
"aH c #8cd2fc",
"aI c #a4b6dc",
"aJ c #5caefc",
"aK c #a4defc",
"aL c #4ca6fc",
"aM c #446ab4",
"aN c #84cafc",
"aO c #bccae4",
"aP c #547abc",
"aQ c #74befc",
"aR c #d4aa8c",
"aS c #d4860c",
"aT c #c47e44",
"aU c #7c96cc",
"aV c #e4cabc",
"aW c #fcfafc",
"aX c #f4eae4",
"aY c #fcde0c",
"aZ c #e4cebc",
"a0 c #fcea0c",
"a1 c #d48a34",
"a2 c #bc7a44",
"a3 c #e4c2ac",
"a4 c #d4d2dc",
"a5 c #fcba0c",
"a6 c #6482c4",
"a7 c #000000",
"a8 c #000000",
/* pixels */
"amamamam#v.iaq.E`V.l.E.E`Va3amamamamamamamamamamamamamamamamamam",
"amamam#ya2.Y#s`4`zae.k#A`o`taGapamamamamamamamamamamamamamamamam",
"aWam.Waj.y.q.R`TataD`O`O`O#R`CajaXamamamamamamamamamamamamamamam",
"am#0aj#e#VaE`T.uat`baD`Oax.Q#S#m#2.eamamamamamamamamamamamamamam",
"#vaG#ya#aE.R`T.uat`b`O.Cax`rah#Q.H.Yamamamamamamamamamamamamamam",
"ao#T#E`l.R`T`Tat`baD`O.Cax.Qah`S#raf#vamamamamamamamamamamamamam",
"aT.f.VaEaE`T.uat`baD`Oax`r.Qah.t`S.2aVamamamamamamamamamamamamam",
"`u`jaw.RaE`T.uataD`O.Cax`r.Q`S.t`S#IaRamamamamamamamamamamamamam",
"#jak`l.RaE.uat`baD`Oaxax.Qah`Sas.t`8.jamamamamamamamamamamamamam",
"#`#D.RaE`T.uat`b`O.Cax`r.Q`S`SasasabaFamamamamamamamamamamamamam",
"ad.I`l`T`Tat`baD`O.Cax.Q.Q`S.t`#as`I.6amamamamamamamamamamamamam",
"#2`H.7`T.uat`baD`Oax`r.Qah`Sas`#.t`earamaWamamamamamamamamamamam",
"`V.l#V.u.uataD`O.Cax`rahah.tasasaa#u.Zamamamamamamamamamamamamam",
"#v`3#F.R`b`baD`O.Cax.Qah`S.t`#as.x`kam`N.r#K`J#M#K`f`Namamamamam",
"am#0`Z`A`TaD`O.Cax`r.Qah.tas.t`8a1`WaUaM`J#C#Z.c#fa6#JaUaWamamam",
"amam.W`a.aaYaD.Cax`rah`S`S`Saba1a4aMaU#d`M.NaH.#aH`Kag#n.X#4amam",
"amaWam#yaj.4#w.Cax`r.Q`S#.au`ta4aM#aac.AavaQaQ#X.LaAaAaN#5#o`qam",
"amamamam#v.Y`G`X.H`y`y.2.M`2am#W#x#qavaN.8.8aQ#X#X.LaA.s`6`U.JaW",
"amamamaWamamaW.B`Q.`#0#kamam#x.h`w.8.#.Aavav`i#X`6aAaAaJaLaA..#P",
"amamamamamamamamamamamamamaW#J`0aK.A.A.8.8`iaQ`6a..L`FaJ.DaL#ban",
"amamamamamamamamamaWamaWam#N.J.n.A.#aN.8avaQaQ`6a.aAaJ#3aL`L`v#8",
"amamamamamamamamamamamamam#U`J#6aN.A.8.8avaQ#Xa.aAaAaJ.D.Oala`#h",
"amamamamamamamamamamamaWam.raU`d.A.A.8av`iaQ`6a.aAaJ#3aL`Lay`L.K",
"amamamamamamamamamamamamam`faB`daN.8.8avaQ#Xa..LaAaJ#3aLalay.G.g",
"amamamamamamamamamamamamam.w#W`M`n.8`navaQ`6a..LaJaJ#3.Oal`v#7#h",
"amamamamamamamamamamamamamam#J#c.A.8av`iaQ`6a.aAaJ#3aLalaya``c`g",
"amamamamamamamamamamamamamam#K.maK`iavaQ#Xa..LaAaJ#3.O`L`v.G`E`D",
"amamamamamamamamamamamamamaW#4#o`RaNaQaQ`6a.aAaA#3.D`L.ba`.1#B.Z",
"amamamamamamamamamamamamamamam.3`m.5aN`6a..LaAaJ#3.Oal`L`7#1#Uam",
"amamamamamamamamamamamamamamamam#a#L.p.8aQ.LaAaJ#3`.aC#G#h`famam",
"amamamamamamamamamamamamamamamaWamaO#J`g`s.D`F#3.b.v#l`5.UaWaWam",
"amamamamamamamamamamamamamamamamaWamai#M.X#O`Y#h``#J`paWamaWamam"
};
