/* XPM */
static char *logestic_xpm[] = {
/* width height num_colors chars_per_pixel */
"    32    32      256            2",
/* colors */
"`` c #0466cc",
"`. c #04a2fc",
"`# c #84aedc",
"`a c #84d6f4",
"`b c #c4d6e4",
"`c c #047ee4",
"`d c #c4eefc",
"`e c #4c76c4",
"`f c #2cd2fc",
"`g c #e4dad4",
"`h c #a4d6ec",
"`i c #b4b6b4",
"`j c #eceeec",
"`k c #5ca6dc",
"`l c #0c8ee4",
"`m c #7c7a7c",
"`n c #3c3e3c",
"`o c #1cbafc",
"`p c #f4fafc",
"`q c #8cc6e4",
"`r c #c4e2ec",
"`s c #2c72cc",
"`t c #e4e6e4",
"`u c #ace6fc",
"`v c #9cf6fc",
"`w c #5c92d4",
"`x c #24a2e4",
"`y c #9ce2fc",
"`z c #f4eee4",
"`A c #94d6f4",
"`B c #bcd6e4",
"`C c #1c66c4",
"`D c #b4cedc",
"`E c #8c8e8c",
"`F c #9cc6ec",
"`G c #d4e2ec",
"`H c #ccfefc",
"`I c #5c5a5c",
"`J c #f4f6f4",
"`K c #2c8edc",
"`L c #2c82d4",
"`M c #f4eadc",
"`N c #0caefc",
"`O c #1c72cc",
"`P c #d4eef4",
"`Q c #acaaac",
"`R c #d4d6d4",
"`S c #6486cc",
"`T c #6cd6fc",
"`U c #549ee4",
"`V c #94def4",
"`W c #1c6ac4",
"`X c #cccacc",
"`Y c #f4e2dc",
"`Z c #a4def4",
"`0 c #64bae4",
"`1 c #0c9afc",
"`2 c #848684",
"`3 c #cceaf4",
"`4 c #fceee4",
"`5 c #d4f6fc",
"`6 c #e4e2dc",
"`7 c #3ccaf4",
"`8 c #fcfaec",
".` c #84cef4",
".. c #3c7acc",
".# c #e4e6ec",
".a c #24aeec",
".b c #b4e2f4",
".c c #dceef8",
".d c #8cd6f7",
".e c #4c82cc",
".f c #148ae4",
".g c #4c4a4c",
".h c #24c6fc",
".i c #cce2ec",
".j c #6c92d0",
".k c #9cd6ef",
".l c #9cd2ec",
".m c #646666",
".n c #1c82d4",
".o c #94ceec",
".p c #046ed4",
".q c #1ca2ec",
".r c #c4deec",
".s c #b4c2e4",
".t c #7cb2e4",
".u c #7c8284",
".v c #2c7ad4",
".w c #7496d4",
".x c #d4eaf4",
".y c #1caef0",
".z c #acbee4",
".A c #6cf2fc",
".B c #2c6ecc",
".C c #ccd2e8",
".D c #acdef4",
".E c #ece2de",
".F c #fcfafc",
".G c #34b6ec",
".H c #5c86cc",
".I c #4c5254",
".J c #6c6e6c",
".K c #94bae4",
".L c #0486ec",
".M c #54e2fc",
".N c #e4f6fc",
".O c #64aeec",
".P c #2cc2fc",
".Q c #b4eefc",
".R c #f4f2f4",
".S c #2c5ebc",
".T c #c4d2ec",
".U c #a4c6e4",
".V c #dce2e4",
".W c #fcf6f2",
".X c #3c7ed0",
".Y c #fceae4",
".Z c #9caacc",
".0 c #d4deec",
".1 c #74def4",
".2 c #246acc",
".3 c #fcf2f4",
".4 c #8cceec",
".5 c #eceaec",
".6 c #24b6f4",
".7 c #bcdef0",
".8 c #dcf2f9",
"#` c #5482cc",
"#. c #3ce2fc",
"## c #4492d4",
"#a c #64caec",
"#b c #1c9ee4",
"#c c #849acf",
"#d c #649ed4",
"#e c #c4c2d4",
"#f c #1466c4",
"#g c #94aadc",
"#h c #34a6e4",
"#i c #7cd6fc",
"#j c #14aafc",
"#k c #acd2ec",
"#l c #0492fc",
"#m c #d4d6ec",
"#n c #bcbebc",
"#o c #5c96d4",
"#p c #bcd2e4",
"#q c #3496d4",
"#r c #d4d2d4",
"#s c #2486d4",
"#t c #1492e8",
"#u c #0c7edc",
"#v c #bcbabc",
"#w c #648ecc",
"#x c #2462c4",
"#y c #bccae4",
"#z c #dcdadc",
"#A c #5c9adc",
"#B c #8c8a8c",
"#C c #6c6a6c",
"#D c #247ecc",
"#E c #0c6acc",
"#F c #6cb2e4",
"#G c #0c62cc",
"#H c #0ca2fc",
"#I c #34cefc",
"#J c #3472cc",
"#K c #b4e6fc",
"#L c #d4fafc",
"#M c #2472cc",
"#N c #6c8acc",
"#O c #74d2fc",
"#P c #24b2fc",
"#Q c #1cb2fc",
"#R c #64a6e4",
"#S c #24baf8",
"#T c #ece6e3",
"#U c #9cdefc",
"#V c #6cbaec",
"#W c #447ac4",
"#X c #ccdee4",
"#Y c #347acc",
"#Z c #447ed4",
"#0 c #cceefc",
"#1 c #ecdad4",
"#2 c #f4eaec",
"#3 c #14aefc",
"#4 c #e4e2ec",
"#5 c #848284",
"#6 c #545254",
"#7 c #dce2f4",
"#8 c #84dafc",
"a` c #c4dae6",
"a. c #a4daf4",
"a# c #ecf2f4",
"aa c #7c7e7e",
"ab c #c4e6f4",
"ac c #f4f2ec",
"ad c #94daf9",
"ae c #bcdae6",
"af c #9ccae4",
"ag c #d4e6f4",
"ah c #d4f2fc",
"ai c #1c6ecc",
"aj c #a4e2fc",
"ak c #848a8c",
"al c #fcf2ec",
"am c #fcfef4",
"an c #84d2f7",
"ao c #e4eaec",
"ap c #24b2f4",
"aq c #8cdafc",
"ar c #4c4e4d",
"as c #cce6f0",
"at c #6c96d4",
"au c #9cdaf4",
"av c #646a6c",
"aw c #ace2fc",
"ax c #9caed4",
"ay c #5486d4",
"az c #849ed4",
"aA c #0482e4",
"aB c #0c92e4",
"aC c #f4fefc",
"aD c #aceafc",
"aE c #9ce6fc",
"aF c #acaeac",
"aG c #648acc",
"aH c #cccecc",
"aI c #4c86cc",
"aJ c #24cafc",
"aK c #94d2ec",
"aL c none",
"aM c #a4cae4",
"aN c #246ecc",
"aO c #94aedc",
"aP c #0ca6fc",
"aQ c #3476cc",
"aR c #2476cc",
"aS c #84d6fc",
"aT c #a4d6f4",
"aU c #eceef4",
"aV c #c4e2f4",
"aW c #f4eeec",
"aX c #1c66cc",
"aY c #f4f6fc",
"aZ c #f4eae4",
"a0 c #d4eefc",
"a1 c #94defc",
"a2 c #a4defc",
"a3 c #cceafc",
"a4 c #fceeec",
"a5 c #e4e2e4",
"a6 c #fcfaf4",
"a7 c #e4e6f4",
"a8 c #b4e2fc",
/* pixels */
"aLaLaLaLaLaLaLaLaLaLaLaLaLaLaLaLaLaLaLaLaLaLaLaLaLaLaLaLaLaLaLaL",
"aLaLa5`XaHaH#r`XaH#raHaH#r`XaH#raH#raH#raH#raH#raH#raH#raH`R.FaL",
"aL.F`I#5`2`2#5#5#5.u#5aaaa#5aaaaaaaaaaaa`maa`m`maa`maa`m`2.g#raL",
"aL`j.JaLaLaLaLaLama6.Wa6.W.3alala4ala4aWaZaWaZaZaZaZaZ.E`p`2`iaL",
"aL`t#CaUaW.i`A.k.k.k.k.l.l.k.laK.laKaK.oaK.l.oaK.o.o.4`D#T`maFaL",
"aLa5#C.R.W#U.DagaVag.DaS.i.r.7.r#Oaea`aea`an`h`b`Bae.l.4aZaaaFaL",
"aLa5av`Ja6`Z.xalaca4asa..Y#T#T#TaK.E`6`6`Y.la``g#z#1`baKaZaaaFaL",
"aL`t#C`Ja6a2`3.3`jac.iauaW`t`t`t.d.Va5.V.EaKa``M`t.E`B.oaZaaaFaL",
"aL`t#C.Fa6aj`Pa6.3.W.x`Zal#2aW.5.d#T#Ta5`Ya.aM#c#N.Zae.o`M`maFaL",
"aLa5#C`paL.Da8a0`3.x.b.dag`r`r.ian.r.r.r#Xad#A`waf#W`q.l`zaaaFaL",
"aL`t#CaLaLawaqawaj.DaqaSaw#Ua.au#Oauau.k.k#i.v#kaC#o#FauaZaaaFaL",
"aL`t#CaLaLaj.8aLa6aL.caj.Walala4ad`zaZaZ`4`F#Y`H`h#W#paK`4aaaFaL",
"aLa5#CaLaLawah.FaYa6a3`Z.Wa#`j`j.d.5ao.#ac`###`H`k#c.i.o`4aaaFaL",
"aL`t#CaLaLawa0aL.Fa6a0aja6.R.Ra#aq`j.5`t`z#w`0`vaQ#e`r.oalaaaFaL",
"aL`t#CaLaLajahaLaLaLa0aja6`J`J`J`AaU.5`j.V.e`T#a#`.E.raKalaaaFaL",
"aL`t#CaLaL`u#i#Uada1#8#iadadan.``Tad.da1.t`L.A#q#A`V#O.lal.uaFaL",
"aL`t#CaLaLawahaLaLaLa0a2aL.TaI.X#Ra6`j.Raz`x.MaQ.C`Ma`aK.WaaaFaL",
"aL`t#CaLaLawahaL.FaLahajaLaG`l.y`CaO.W.5..`7.G.H.5#T.r.k.W#5aFaL",
"aL`t#CaLaL`ua0aLaCaL.xaD#m`W#S.hap`C#g#y#D#.#saxac#T.7.l.W.uaFaL",
"aL`t#CaLaLaj.NaLaLaL.Naw#NaB#Pai.6#SaR.S`x`f#J.Eal`4`G`A`8#5aFaL",
"aL`t#CaLaL`uaq`uajawaE.OaN`o.f`C`W.y#S#s#I#b.Xajaua.`a`ha6#5aFaL",
"aL`t#CaLaLaw.Qa0a0ah`d`O#t#j.2`b#RaX.qaJ.a#f.U`Pasag.D.kaL#5`QaL",
"aL`t#CaLaLaj.caLaLaL.s#f#Q`c.waL`y.zaQ`K..`U.c.W.R.W.x.kaL`2aFaL",
"aL`t#CaLaL.Q`5a7.z#`.B#taP.2.0aLaqaL#7.C#4aja3.W.R`JasauaL`2aFaL",
"aL`t#CaLaL.tay`C.p.L#H#j.p#caLaL#UaLaLaLaLaw.cam.Wa6.xa.aLak`QaL",
"aL`t#CaL.w#G.L`1#3`1`c``aN.7ahah#iaha0a0ahaqa8`Pa3.cawauaL#B`QaL",
"aLa5avaL#Z#l`..L.p.B.j.Kaw`uajaw`uawajajaw`uajajaj.D#UasaL#BaFaL",
"aL`t#C.Fat#JaQ.H.z`GaLaLaLaLaLaLaLaLaLaLaLaLa6a6a6a6a6.3aL#B`QaL",
"aLa5.m`JaLaLaLaLaLaLaLaLaLaLaLaLaLaLaLaLaLaLaLaLaLaLaLaLaL`E`QaL",
"aL`j#6.gar#6.I#6#6#6#6#6#6#6#6#6#6#6#6#6#6#6#6#6#6#6#6#6#6`n#vaL",
"aLaW#5.gar#6arararar.Iar#6ar.I#6ar.I#6ar.I#6arar.Iararar.g.m#raL",
"aLaY`X#v#v#v#v#v#n#v#v#v#v#v#v#v#v#v#v#v#v#v#v#v#v#v#v#v#v#n.5aL"
};
