/* XPM */
static char *rockphysic_xpm[] = {
/* width height num_colors chars_per_pixel */
"    32    32      256            2",
/* colors */
"`` c #343664",
"`. c #9c9e9c",
"`# c #d4d2cc",
"`a c #6c6a9c",
"`b c #bcbebc",
"`c c #848684",
"`d c #eceae4",
"`e c #5c5a6c",
"`f c #9c9ecc",
"`g c #bcbae4",
"`h c #8486b4",
"`i c #dcdedc",
"`j c #c4c6e4",
"`k c #7c7a7c",
"`l c #acaecc",
"`m c #444674",
"`n c #f4f6f4",
"`o c #64666c",
"`p c #9492b4",
"`q c #c4c2e4",
"`r c #7c7a9c",
"`s c #acaee4",
"`t c #d4d2ec",
"`u c #dcdef4",
"`v c #9c9a94",
"`w c #ccceec",
"`x c #3c3e6c",
"`y c #b4b6b4",
"`z c #7472a4",
"`A c #f4f2ec",
"`B c #a4a6cc",
"`C c #8c8eac",
"`D c #44467c",
"`E c #dcdaec",
"`F c #cccacc",
"`G c #8c8aa4",
"`H c #bcbaf4",
"`I c #b4b6dc",
"`J c #5c5e8c",
"`K c #a4a6a4",
"`L c #bcbad4",
"`M c #8c8e8c",
"`N c #545284",
"`O c #c4c6f4",
"`P c #b4b2cc",
"`Q c #8482b4",
"`R c #e4e6f4",
"`S c #eceafc",
"`T c #848284",
"`U c None",
"`V c #9c9acc",
"`W c #7c7aac",
"`X c #d4d2fc",
"`Y c #646694",
"`Z c #5c5a8c",
"`0 c #3c3a64",
"`1 c #a4a2bc",
"`2 c #6c6ea4",
"`3 c #8c8a8c",
"`4 c #a4a2cc",
"`5 c #bcbee4",
"`6 c #8c8ab4",
"`7 c #e4e6e4",
"`8 c #4c4e64",
".` c #fcfaf4",
".. c #9492c4",
".# c #c4c2f4",
".a c #b4b6e4",
".b c #e4e2f4",
".c c #44426c",
".d c #7476a4",
".e c #acaadc",
".f c #8c8ebc",
".g c #4c4e7c",
".h c #c4c2d4",
".i c #7c7eac",
".j c #9c9eac",
".k c #6c6e94",
".l c #eceeec",
".m c #e4e2e4",
".n c #cccaec",
".o c #7c7e84",
".p c #acaedc",
".q c #d4d6f4",
".r c #cccefc",
".s c #f4f2fc",
".t c #a4a6dc",
".u c #dcdafc",
".v c #bcbef4",
".w c #646294",
".x c #bcbed4",
".y c #545684",
".z c #cccaf4",
".A c #b4b2dc",
".B c #9496c4",
".C c #34366c",
".D c #9c9ea4",
".E c #d4d6dc",
".F c #c4c2c4",
".G c #84868c",
".H c #eceaec",
".I c #9c9ed4",
".J c #bcbaec",
".K c #8486bc",
".L c #dcdeec",
".M c #c4c6ec",
".N c #7c7a84",
".O c #acaed4",
".P c #4c4a74",
".Q c #f4f6fc",
".R c #646284",
".S c #c4c2ec",
".T c #b4b2e4",
".U c #d4d2f4",
".V c #dcdefc",
".W c #9c9a9c",
".X c #cccef4",
".Y c #3c3e74",
".Z c #b4b2c4",
".0 c #7472ac",
".1 c #f4f2f4",
".2 c #a4a6d4",
".3 c #8c8eb4",
".4 c #4c4a7c",
".5 c #dcdaf4",
".6 c #5c5e94",
".7 c #acaaac",
".8 c #bcbadc",
"#` c #8c8e94",
"#. c #eceefc",
"## c #d4d6fc",
"#a c #c4c6fc",
"#b c #b4b2d4",
"#c c #e4e6fc",
"#d c #84828c",
"#e c #7c7ab4",
"#f c #64669c",
"#g c #5c5a94",
"#h c #3c3a6c",
"#i c #8c8a94",
"#j c #a4a2d4",
"#k c #bcbeec",
"#l c #8c8abc",
"#m c #4c4e6c",
"#n c #fcfafc",
"#o c #c4c2fc",
"#p c #b4b6ec",
"#q c #e4e2fc",
"#r c #444274",
"#s c #7476ac",
"#t c #8c8ec4",
"#u c #4c4e84",
"#v c #7c7eb4",
"#w c #6c6e9c",
"#x c #bcbefc",
"#y c #54568c",
"#z c #9496cc",
"#A c #000000",
"#B c #000000",
"#C c #000000",
"#D c #000000",
"#E c #000000",
"#F c #000000",
"#G c #000000",
"#H c #000000",
"#I c #000000",
"#J c #000000",
"#K c #000000",
"#L c #000000",
"#M c #000000",
"#N c #000000",
"#O c #000000",
"#P c #000000",
"#Q c #000000",
"#R c #000000",
"#S c #000000",
"#T c #000000",
"#U c #000000",
"#V c #000000",
"#W c #000000",
"#X c #000000",
"#Y c #000000",
"#Z c #000000",
"#0 c #000000",
"#1 c #000000",
"#2 c #000000",
"#3 c #000000",
"#4 c #000000",
"#5 c #000000",
"#6 c #000000",
"#7 c #000000",
"#8 c #000000",
"a` c #000000",
"a. c #000000",
"a# c #000000",
"aa c #000000",
"ab c #000000",
"ac c #000000",
"ad c #000000",
"ae c #000000",
"af c #000000",
"ag c #000000",
"ah c #000000",
"ai c #000000",
"aj c #000000",
"ak c #000000",
"al c #000000",
"am c #000000",
"an c #000000",
"ao c #000000",
"ap c #000000",
"aq c #000000",
"ar c #000000",
"as c #000000",
"at c #000000",
"au c #000000",
"av c #000000",
"aw c #000000",
"ax c #000000",
"ay c #000000",
"az c #000000",
"aA c #000000",
"aB c #000000",
"aC c #000000",
"aD c #000000",
"aE c #000000",
"aF c #000000",
"aG c #000000",
"aH c #000000",
"aI c #000000",
"aJ c #000000",
"aK c #000000",
"aL c #000000",
"aM c #000000",
"aN c #000000",
"aO c #000000",
"aP c #000000",
"aQ c #000000",
"aR c #000000",
"aS c #000000",
"aT c #000000",
"aU c #000000",
"aV c #000000",
"aW c #000000",
"aX c #000000",
"aY c #000000",
"aZ c #000000",
"a0 c #000000",
"a1 c #000000",
"a2 c #000000",
"a3 c #000000",
"a4 c #000000",
"a5 c #000000",
"a6 c #000000",
"a7 c #000000",
"a8 c #000000",
/* pixels */
"`U`U`U`U`U`U`U`U`U`U`U`U`U`U`U`U`U`U`U`U`U`U`U`U`U`U`U`U`U`U`U`U",
"`U`U`U`U`U`U#n.s`R.5`w.n`q.8.8`I.A#b#b`l#b`L.h.E`S.``U`U`U`U`U`U",
"`U`U`U`U.s.u.r.#`H.J.J#p#p#p.T.T`s.e.t.t#j#z...K`6`p`P.1`U`U`U`U",
"`U`U`U#q.u#x.##o`O.v.v#k.J.J#p.T.T.T`s.p.e.e.e.e.t`V#y`r`7`U`U`U",
"`U`U.Q###n#c`X.z.#.v.J.J#p.a.T`s.T`s.p.e.e.t.t`V#z.K`Y`m.D#n`U`U",
"`U`U.s.r#q#c#c#c#q`u.5##.U.X.z`O.S`g.T.t`f#t`Q`z.w`N.Y.c`3.1`U`U",
"`U`U.s.X.V.u`X.n.S#k.a.e.t.e.2.I#z#t#l`Q#v#s#w.w#y.4.Y`x`3.1`U`U",
"`U`U.s.X#q.u##.X.S#k.A.t.2.2.t`4#z...f.K`Q`W`2.w#y.g#r`x`3.1`U`U",
"`U`U.s.z.V.V`X.z.S#k.T.e.t.2#j.I`V..#l.K.i`W`2`Y#y#u.Y`x`3.1`U`U",
"`U`U.Q.U.u.u.u.X.M`g.a.t.2.t#j#j#z..#l.K`Q#s`z#f`Z.P#r`m#``n`U`U",
"`U`U.s.U#..q`q#k.S#p.T.e.2.e.t#j#z.B#l.K.i`W`2`Z`N`N#y`m`3`n`U`U",
"`U`U.s.z#c`S`R`t.8.O`4#z`V#z`V..#l.K#e.d`z`a`a`a.w#y#r`0#d.1`U`U",
"`U`U.s`O.V.u.u##.q.q.U.S.p.e.I`V#z...B..#l`Q#s#f#y.g.Y#h`T.1`U`U",
"`U`U.s.z#q.V`X.n#k.a.p.t.2.e.t#j`V..#l`Q#v#s`2`Y#y.g#r#h.G`n`U`U",
"`U`U#n.M.u.V##.z.M#k.T.e.2.t.2.I#z..#t.K#v`W`z.w#y.4#h.c`M.1`U`U",
"`U`U.Q`t#q####.U`O`g.T.e.2#j.t`f`V..#l`h#v`W`2`Y`Z`D.4`m#``n`U`U",
"`U`U.Q.z#..b.n`I.J#k`s.e.t.t.e.I`V..#t.K#v`W#w`Z`N#y`N#h.G.1`U`U",
"`U`U.Q.M.V#c.b`u`q.O`4.B#t....#t#l#v#s`z#w`a`a`a.w#y.Y`0.o.1`U`U",
"`U`U.s.n.u.u`X.X.U`t.X.n`g.e#j`V#z.B....#t`Q#s#f#y.4#r.C.N`n`U`U",
"`U`U#n.M.u.V##.z#k`g.p.t.t.e.t#j`V#z#l`Q.i#s`z.w#y.g.Y`x`c.1`U`U",
"`U`U.Q`w#q.u##.U.M.J.T.t#j.2#j.I#z..#l.K#v`W`2`Y`Z.4#r.P`3`n`U`U",
"`U`U#n.n#.`E`O.S.S.S#p.A.t.t.t`4`V..#t#l`Q`W`z#g`N.4#y#h#d`n`U`U",
"`U`U.Q`q.u#.`E`j.A.I.B.B`V#j#j.I.B#t`Q`z#f#f`Y.w.6`J#r```T.1`U`U",
"`U`U#n.M.u.u.V#q.q`t.M.A.I..#t`h`Q`Q#v.K#l.i#s`2`J.4.Y`x`T.1`U`U",
"`U`U#n.M.u.V`X`O.M#k#k`g.a.T`s.e#j.I.B#t`Q`W`z.w`N#u#r`x`3.1`U`U",
"`U`U`U.L`5#q##.n.S.J.A.t#j#j#j.I#z..#l`Q#v`W`2.w`Z.4.Y`8`K#n`U`U",
"`U`U`U#n.x.A.X`X`O`5.T.e.2.t#j.I.B..#l.K`Q`W`z#f`N#r`8`T`i`U`U`U",
"`U`U`U`U.`.F`1`B.a.J.a.e.t.e.e.t.I#z#t.K#e`z#f`m#m`o.W`i`U`U`U`U",
"`U`U`U`U`U#n`i`y.j`G`G.f`p#t#t`6`Q`W.d`a.R`8`e`k.W`F.l`U`U`U`U`U",
"`U`U`U`U`U`U`U`U.H`#`b.7.W.G#d.N.N.N`T`M`.`y`F`i.Q`U`U`U`U`U`U`U",
"`U`U`U`U`U`U`U`U`U`U`U#n.1.1.l.l.l`A.1`n`n`U`U`U`U`U`U`U`U`U`U`U",
"`U`U`U`U`U`U`U`U`U`U`U`U`U`U`U`U`U`U`U`U`U`U`U`U`U`U`U`U`U`U`U`U"
};
