/* XPM */
static char *wellseismicmark_xpm[] = {
/* width height num_colors chars_per_pixel */
"    32    32      256            2",
/* colors */
"`` c #6c6a64",
"`. c #fcc604",
"`# c #acaeb4",
"`a c #f45a24",
"`b c #d4dae4",
"`c c #e4aea4",
"`d c #cc8274",
"`e c #c4c6c4",
"`f c #fcce04",
"`g c #fc823c",
"`h c #8c8e94",
"`i c #d4b28c",
"`j c #eceeec",
"`k c #dc6e54",
"`l c #f4a244",
"`m c #fcd654",
"`n c #dcd6d4",
"`o c #9c9ea4",
"`p c #b4babc",
"`q c #fce244",
"`r c #fcb24c",
"`s c #ec6244",
"`t c #f4dad4",
"`u c #d4d2d4",
"`v c #fc9e74",
"`w c #fcbe54",
"`x c #7c7a7c",
"`y c #cc9a8c",
"`z c #c4bebc",
"`A c #fcfaf4",
"`B c #f4c6b4",
"`C c #e47254",
"`D c #bcc2c4",
"`E c #e4826c",
"`F c #ac9694",
"`G c #fceedc",
"`H c #fc622c",
"`I c #fcb29c",
"`J c #94969c",
"`K c #a4a6a4",
"`L c #b4bacc",
"`M c #fce25c",
"`N c #ecb27c",
"`O c #fc6244",
"`P c #bc9284",
"`Q c #c4c6dc",
"`R c #ccaea4",
"`S c #fcd25c",
"`T c #fce6dc",
"`U c #7c828c",
"`V c #fccabc",
"`W c #f47a3c",
"`X c #b4b6d4",
"`Y c #e4e2dc",
"`Z c #fcaa4c",
"`0 c #eca674",
"`1 c #e49284",
"`2 c #fc5e3c",
"`3 c #fcea44",
"`4 c #d4d2e4",
"`5 c #fc6a34",
"`6 c #fcbeb4",
"`7 c #d49274",
"`8 c #ccb6ac",
".` c #fcda64",
".. c #84827c",
".# c #ec7e54",
".a c #74726c",
".b c #b4b6b4",
".c c #ec5e2c",
".d c #cccacc",
".e c #fcde2c",
".f c #94929c",
".g c #f4f6fc",
".h c #f4a254",
".i c #f4e2dc",
".j c #fcca7c",
".k c #bcaaa4",
".l c #c4c2d4",
".m c #fcf6f4",
".n c #acaaac",
".o c #bcbacc",
".p c #fcb274",
".q c #fc8e7c",
".r c #84828c",
".s c #dcdadc",
".t c #fcd61c",
".u c #8c8ea4",
".v c #f4eef4",
".w c #eccec4",
".x c #a4a2a4",
".y c #bcbabc",
".z c #fce654",
".A c #fcb664",
".B c #fcc65c",
".C c #f4d6ac",
".D c #fceeec",
".E c #fc663c",
".F c #9c9a9c",
".G c #f4d6d4",
".H c #fc7a3c",
".I c #fca694",
".J c #cc968c",
".K c #bcbecc",
".L c #6c6e6c",
".M c #b4aeac",
".N c #f45634",
".O c #dcba9c",
".P c #c4c6d4",
".Q c #fcd20c",
".R c #fc8e44",
".S c #8c929c",
".T c #c47e74",
".U c #fce644",
".V c #fcdacc",
".W c #d4d6d4",
".X c #f49a8c",
".Y c #fcbe64",
".Z c #cca29c",
".0 c #c4c2cc",
".1 c none",
".2 c #fcce9c",
".3 c #fc662c",
".4 c #fcbaa4",
".5 c #a4aaac",
".6 c #fce66c",
".7 c #fc6a4c",
".8 c #cccee4",
"#` c #d4b2ac",
"#. c #fc6e44",
"## c #fc8264",
"#a c #d4aaa4",
"#b c #ecb6ac",
"#c c #fc7e64",
"#d c #fcde3c",
"#e c #c48a7c",
"#f c #f4b66c",
"#g c #fcba74",
"#h c #ecd6cc",
"#i c #fc963c",
"#j c #f4a684",
"#k c #fc9e4c",
"#l c #e4d2cc",
"#m c #ec8e7c",
"#n c #d4b6b4",
"#o c #fc9e5c",
"#p c #cc7a6c",
"#q c #fcae5c",
"#r c #fccab4",
"#s c #cccadc",
"#t c #fcd26c",
"#u c #b4b2bc",
"#v c #c4928c",
"#w c #fcd6cc",
"#x c #d49684",
"#y c #d49a8c",
"#z c #f45e2c",
"#A c #fce2dc",
"#B c #fc9a8c",
"#C c #fcc25c",
"#D c #c4c2c4",
"#E c #ccb2ac",
"#F c #fceadc",
"#G c #e4e6e4",
"#H c #d4d6e4",
"#I c #fcc2ac",
"#J c #ccbab4",
"#K c #fcde64",
"#L c #848684",
"#M c #747674",
"#N c #fc9274",
"#O c #dcdee4",
"#P c #f4f2f4",
"#Q c #bcbebc",
"#R c #fcba5c",
"#S c #fcf2ec",
"#T c #fc7e34",
"#U c #fcded4",
"#V c #fca254",
"#W c #fcca04",
"#X c #7c7e7c",
"#Y c #fc6644",
"#Z c #fcd65c",
"#0 c #84868c",
"#1 c #fcaa94",
"#2 c #ec927c",
"#3 c #6c6a6c",
"#4 c #c4c6cc",
"#5 c #fcce0c",
"#6 c #8c8e9c",
"#7 c #d4b294",
"#8 c #9c9eac",
"a` c #fcfafc",
"a. c #bcc2cc",
"a# c #9496a4",
"aa c #a4a6ac",
"ab c #fce264",
"ac c #fccac4",
"ad c #b4b6dc",
"ae c #e4e2e4",
"af c #fcaa54",
"ag c #fcea4c",
"ah c #fc6a3c",
"ai c #fcda6c",
"aj c #848284",
"ak c #b4b6bc",
"al c #cccad4",
"am c #c4c2dc",
"an c #acaab4",
"ao c #bcbad4",
"ap c #fcb27c",
"aq c #dcdae4",
"ar c #a4a2ac",
"as c #9c9aa4",
"at c #bcbed4",
"au c #f4563c",
"av c #fce64c",
"aw c #d4d6dc",
"ax c #fc6634",
"ay c #fcbaac",
"az c #d4968c",
"aA c #fceae4",
"aB c #d4d6ec",
"aC c #fcc2b4",
"aD c #f4f2fc",
"aE c #bcbec4",
"aF c #fcf2f4",
"aG c #fc7e3c",
"aH c #000000",
"aI c #000000",
"aJ c #000000",
"aK c #000000",
"aL c #000000",
"aM c #000000",
"aN c #000000",
"aO c #000000",
"aP c #000000",
"aQ c #000000",
"aR c #000000",
"aS c #000000",
"aT c #000000",
"aU c #000000",
"aV c #000000",
"aW c #000000",
"aX c #000000",
"aY c #000000",
"aZ c #000000",
"a0 c #000000",
"a1 c #000000",
"a2 c #000000",
"a3 c #000000",
"a4 c #000000",
"a5 c #000000",
"a6 c #000000",
"a7 c #000000",
"a8 c #000000",
/* pixels */
".1.1.1.1aF#F`t.G`t.i#S.1.1.1.1.1.1.1.1.1.1.1.1.1.1.1.1.1.1.1.1.1",
".1.s.M.k#v`i`7.T#p#e`P`F.naaaaaaaaaraa`o.n.n.n.naa.n.x.n`o`ea`.1",
".1.d#n`B.X`v.p`2#.#c`1#7#h.1.1.1.1.1.1.y.1.1.1.1.1.1.1.1.o`x.s.1",
".1#J`c.I#.`5#t`g.R.3#g#j`V.1.1.1.1.1.1#4.1.1.1.1.1.1.1.1#s.a`u.1",
".1#a`1.E.Haf`S.6#C#Z#kau`I.1.1.1.1.1.1.0.1.1.1.1.1.1.1.1#s.L`u.1",
".D.O`N#o#i#K.U.t.U#Z#T#z#N.1.1.1.1.1.1#4.1.1.1.1.1.1.1.1#s.L.W.1",
"aA#x.#.A.``q#W`..Qab`Z`a#caC.1.1.1.1.1.0.1.1.1.1.1.1.1.1#s.L`u.1",
"`Taz`s`H#R.e`.#W#W`q`w`W#c`6.1.1.1.1.1#4.1.1.1.1.1.1.1.1#s.L.W.1",
"aA`y`C.H#k`M.e#W`3`S`r.Aap#r.1.1.1.1.1#4.1.1.1.1.1.1.1.1`Q.a`u.1",
"a`.Z#2`O#q#Zai.z`S.Y`H.N.4#U.1.1.1.1.1.d.1.1.1.1.1.1.1.1.8.L`u.1",
".1#E.T`0#f#z#V`l.B`a.c`k#x#E.d`e.d`e.d`#`p.d`z.0#D.0aE.0an.a`u.1",
".1`z`R.C#N.7`5.E.j.7`E#x.w`Y.1.1.1.1.1`p.1.1.1.1.1.1.1.1.0.L`u.1",
".1#D`n#Aac.4.I#B.2#I#b#`.1.1.1.1.1.1.1.d.1.1.1.1.1.1.1.1#s#3`u.1",
".1`z.W.1aA#U.V#w.V#F#l#D.1a`.1.1.1.1.1.0.1.1.1.1.1.1.1.1`Q.L`u.1",
".1`D.W.1.1.1.m.m.m.1#G#4.1a`.1.1.1.1.1#4.1.1.1.1.1.1.1.1`Q#3.W.1",
".1`z.W.1.1.1.1.1.1.1ae.d.1a`.1.1.1a`.1.0.1.1.1.1.1.1.1.1.l.L`u.1",
".1aE`u.1a`.1.1.1.1.1#G`e.1.1.1.1a`.m.1.0.1.1.1.1.1.1.1.1am#3.W.1",
".1`z`u.1a`.1.1.1.1.1#G#4.1a`.1a`a`.g.1a..1.1.1.1.1.1.1.1.l#3.W.1",
".1aE`u.1.ma`a`a`a`.1ae.d.1a`a`.g.gaD.1.0.1.1.1.1.1.1.1.1`Q``.W.1",
".1`z`K.o.bakakak.y.y`#`K.yak.yak.yakakaaanak#u#u#u#u`#akar#3`u.1",
".1#Qal.1.1.1.1.1.1.1.s.0.1.1.1.1.1.1.1a..1.1.1.1.1.1.1.1.l``.W.1",
".1#Qal.1.1.1.1.1.1.1#O.0.1.1.1.1.1.1.1.K.1.1.1.1.1.1.1.1ao#3.W.1",
".1#Q.P.1.1.1.1.1.1.1aq.0.1.1.1.1.1.1.1.K.1.1.1.1.1.1.1.1ao#3`u.1",
".1.yal.1.1.1.1.1.1.1`b.0.1.1.1.1.1.1.1.K.1.1.1.1.1.1.1.1ao``.W.1",
".1.y.l.1.1.1.1.1.1.1aq.K.1.1.1.1.1.1.1.o.1.1.1.1.1.1.1.1ad``.W.1",
".1#Q.l.1.1.1.1.1.1.1`4.K.1.1.1.1.1.1.1.o.1.1.1.1.1.1.1.1`X```u.1",
".1.yat.1.1.1.1.1.1.1`4aE.1.1.1.1.1.1.1`L.1.1.1.1.1.1.1.1`X``aw.1",
".1.y.l.1.1.1.1.1.1.1aB.0.1.1.1.1.1.1.1.K.1.1.1.1.1.1.1.1ao#3`u.1",
".1#D`har#8`o#8as#8ar.f#0a#.f.S.f.S#6.f`U#6a#.f.f.f.u.f.u.r#3`u.1",
".1#P`Kajajaj#Laj....aj#X#M#M#M#M#M#M#M`x`x..aj#Xaj..aj..aj`J#G.1",
".1.1.m#P#P#P#P.g#P`j.g#P`j#P.v`jaD#P`j`j.v#P#P#P#P#P`j.g#P.g`A.1",
".1.1.1.1.1.1.1.1.1.1.1.1.1.1.1.1.1.1.1.1.1.1.1.1.1.1.1.1.1.1.1.1"
};
